<?xml version="1.0" encoding="UTF-8"?>
<svg width="42px" height="42px" viewBox="0 0 42 42" version="1.1" xmlns="http://www.w3.org/2000/svg" xmlns:xlink="http://www.w3.org/1999/xlink">
    <!-- Generator: Sketch 64 (93537) - https://sketch.com -->
    <title>Group 2</title>
    <desc>Created with Sketch.</desc>
    <g id="Page-1" stroke="none" stroke-width="1" fill="none" fill-rule="evenodd">
        <g id="Group-2">
            <rect id="Rectangle" fill="#FFFFFF" x="0" y="0" width="42" height="42"></rect>
            <g id="Android_logo_2019" transform="translate(1.000000, 10.000000)" fill="#32DE84" fill-rule="nonzero">
                <path d="M29.2582121,6.6540752 L32.5101326,1.02082537 C32.6936404,0.705023401 32.5826832,0.303866624 32.2711453,0.120358752 C31.9596104,-0.0631461543 31.5541866,0.0435425378 31.3749473,0.359345989 L28.0803501,6.06514644 C25.5667252,4.91715696 22.7372998,4.27701591 19.6944881,4.27701591 C16.6516794,4.27701591 13.8222526,4.91715696 11.3086276,6.06514644 L8.01403048,0.359345989 C7.83052261,0.0435425378 7.42936732,-0.0631461543 7.11356386,0.120358752 C6.79775893,0.303866624 6.69106876,0.705023401 6.87457663,1.02082537 L10.1264986,6.6540752 C4.51885463,9.69261832 0.720677291,15.3685433 0.0933389445,22.0132185 L39.295639,22.0132185 C38.6682991,15.3685433 34.8701206,9.69261832 29.2582121,6.6540752 Z M10.6940905,16.5079957 C9.78508827,16.5079957 9.05105975,15.7696986 9.05105975,14.8649664 C9.05105975,13.9559627 9.78935683,13.2219356 10.6940905,13.2219356 C11.6030928,13.2219356 12.3371413,13.9602312 12.3371413,14.8649664 C12.3414076,15.7696986 11.6030928,16.5079957 10.6940905,16.5079957 Z M28.6906187,16.5079957 C27.7816179,16.5079957 27.047585,15.7696986 27.047585,14.8649664 C27.047585,13.9559627 27.7858835,13.2219356 28.6906187,13.2219356 C29.5996224,13.2219356 30.3336679,13.9602312 30.3336679,14.8649664 C30.3379195,15.7696986 29.5996224,16.5079957 28.6906187,16.5079957 Z" id="path80319"></path>
            </g>
        </g>
    </g>
</svg>