<?xml version="1.0" encoding="UTF-8"?>
<svg width="38px" height="42px" viewBox="0 0 38 42" version="1.1" xmlns="http://www.w3.org/2000/svg" xmlns:xlink="http://www.w3.org/1999/xlink">
    <!-- Generator: Sketch 64 (93537) - https://sketch.com -->
    <title>C programming</title>
    <desc>Created with Sketch.</desc>
    <g id="Page-1" stroke="none" stroke-width="1" fill="none" fill-rule="evenodd">
        <g id="C-programming" fill-rule="nonzero">
            <path d="M17.902,0.285 C18.5849026,-0.0941533985 19.4150974,-0.0941533985 20.098,0.285 C23.449,2.168 33.547,7.835 36.902,9.719 C37.5752383,10.0906394 37.995161,10.7970122 38,11.566 L38,30.434 C38,31.195 37.582,31.898 36.902,32.281 L20.098,41.715 C19.4150974,42.0941534 18.5849026,42.0941534 17.902,41.715 L1.098,32.28 C0.425072483,31.9085352 0.0051997387,31.202629 0,30.434 L0,11.566 C0,10.805 0.418,10.102 1.098,9.719 C4.449,7.836 14.551,2.168 17.902,0.285 Z" id="Path" fill="#002D6A"></path>
            <path d="M0.305,31.402 C0.039,31.047 0,30.711 0,30.254 L0,11.496 C0.00482449043,10.7309177 0.423431935,10.0283919 1.094,9.66 C4.437,7.79 14.5,2.152 17.844,0.281 C18.52,-0.098 19.437,-0.089 20.114,0.289 C23.457,2.16 33.484,7.746 36.828,9.617 C37.098,9.77 37.305,9.953 37.488,10.195 L0.305,31.402 Z" id="Path" fill="#006DFF"></path>
            <path d="M19,7 C26.727,7 33,13.273 33,21 C33,28.727 26.727,35 19,35 C11.273,35 5,28.727 5,21 C5,13.273 11.273,7 19,7 Z M19,14 C15.137,14 12,17.137 12,21 C12,24.863 15.137,28 19,28 C22.863,28 26,24.863 26,21 C26,17.137 22.863,14 19,14 Z" id="Shape" fill="#FFFFFF"></path>
            <path d="M37.484,10.203 C38.0000878,10.688 37.992,11.414 37.992,11.988 C37.992,15.785 37.961,26.578 38.0000878,30.371 C38.004,30.77 37.871,31.187 37.676,31.5 L18.594,21 L37.484,10.203 Z" id="Path" fill="#529CFF"></path>
        </g>
    </g>
</svg>