<?xml version="1.0" encoding="UTF-8"?>
<svg width="42px" height="42px" viewBox="0 0 42 42" version="1.1" xmlns="http://www.w3.org/2000/svg" xmlns:xlink="http://www.w3.org/1999/xlink">
    <!-- Generator: Sketch 64 (93537) - https://sketch.com -->
    <title>cpanel</title>
    <desc>Created with Sketch.</desc>
    <g id="Page-1" stroke="none" stroke-width="1" fill="none" fill-rule="evenodd">
        <g id="cpanel" fill-rule="nonzero">
            <g id="transfer-sh-copy-3" fill="#FF6C2C">
                <rect id="Rectangle" x="0" y="0" width="42" height="42" rx="13"></rect>
            </g>
            <path d="M16.0896083,9.14055361 L18.3124219,9.14055361 L18.5416469,9.14124506 C20.757431,9.15505061 21.47395,9.37943887 21.9060831,10.1585601 C22.0316895,10.3850254 23.0051407,13.7947751 24.1118046,17.8767484 L24.2875439,18.5264907 L26.4286083,26.4609947 L28.7763232,26.520611 C30.4705568,26.560645 30.7548929,26.5207276 31.2933772,26.1678027 L31.359656,26.1237091 C32.8837967,25.0965907 33.3300305,23.4055271 32.477289,21.8882796 C31.864778,20.7984631 31.0409162,20.3802894 29.2288543,20.2497551 L28.9148104,20.2280368 C26.5086647,20.0545446 26.2065109,19.7783639 25.458153,17.0685128 L25.3850553,16.8015466 L24.8281738,14.752764 L27.847252,14.7530697 C29.3822674,14.7591587 31.0399177,14.8554219 31.5857644,14.9722393 C34.8992168,15.6813586 37.3153784,18.1015555 38.217611,21.6151608 C38.985528,24.6056939 38.0825911,27.6106939 35.7738046,29.7482231 C33.6232557,31.739252 31.6707197,32.2502191 26.518877,32.1450556 L25.7539407,32.1271607 C23.5870932,32.0714383 23.2401292,32.0072323 22.7514721,31.6659216 L22.7187222,31.642796 C22.3868537,31.4060711 22.0211469,30.970641 21.9060392,30.6751735 L21.8978454,30.6525733 C21.7462677,30.2134502 20.6174669,26.0743268 19.333092,21.2480562 L16.4696899,10.5222211 L16.4696899,10.5222211 L16.0896083,9.14055361 Z M14.5474382,9 L15.7065822,13.2888327 C15.8029843,13.6365758 15.7400042,13.9503175 15.5181247,14.2306371 C15.3055226,14.4982146 15.0356513,14.6383505 14.7082572,14.6500304 L14.663256,14.6508268 L12.8087223,14.6508268 C12.3061368,14.6508268 11.8423826,14.7565987 11.4177495,14.9693982 C10.9924403,15.1819079 10.6447937,15.4667676 10.3744234,15.8244601 C10.1036667,16.181573 9.91540237,16.5922963 9.8093407,17.0560505 C9.70298924,17.5196115 9.71747854,18.0122477 9.852712,18.5339591 C10.0652217,19.2294454 10.436824,19.7799422 10.9684847,20.1856426 C11.4812526,20.5774466 12.070922,20.7799688 12.737058,20.7934699 L12.8087223,20.7941932 L15.8514752,20.7941932 C16.4114383,20.7941932 16.9041711,20.9581155 17.3292871,21.286926 C17.7369349,21.6020277 18.0203076,22.0152319 18.1794052,22.5265386 L18.1986451,22.5909629 L19.2128961,26.4740952 L12.6638293,26.4740952 C11.6974896,26.4740952 10.7701744,26.3191563 9.8817872,26.010341 C8.99301356,25.7011394 8.18644256,25.2714833 7.46197758,24.72089 C6.73751261,24.1702 6.10964296,23.5037888 5.57836865,22.72127 C5.06904562,21.9715413 4.68853448,21.1551002 4.43700526,20.2722866 L4.40492858,20.1567606 L4.28891759,19.7220816 C3.9411744,18.3695538 3.90726944,17.050931 4.18758909,15.7663097 C4.46732916,14.4813986 4.9939669,13.3367439 5.76692273,12.3325389 C6.53929899,11.3276577 7.51008206,10.5213764 8.67927193,9.91272927 C9.81542084,9.32117679 11.0569339,9.01713889 12.4032786,9.00070434 L12.5189363,9 L14.5474382,9 Z" id="Shape" fill="#FFFFFF" transform="translate(21.242808, 20.579012) scale(-1, 1) rotate(-180.000000) translate(-21.242808, -20.579012) "></path>
        </g>
    </g>
</svg>