<?xml version="1.0" encoding="UTF-8"?>
<svg width="42px" height="42px" viewBox="0 0 42 42" version="1.1" xmlns="http://www.w3.org/2000/svg" xmlns:xlink="http://www.w3.org/1999/xlink">
    <!-- Generator: Sketch 64 (93537) - https://sketch.com -->
    <title>deloitte</title>
    <desc>Created with Sketch.</desc>
    <g id="Page-1" stroke="none" stroke-width="1" fill="none" fill-rule="evenodd">
        <g id="deloitte">
            <g id="Group-8-Copy-3" fill="#000000">
                <g id="Group-5-Copy-2">
                    <g id="Group-4">
                        <g id="Group-3-Copy">
                            <g id="Group-2-Copy-2">
                                <g id="Group-9">
                                    <rect id="Rectangle" transform="translate(21.000000, 21.000000) rotate(-180.000000) translate(-21.000000, -21.000000) " x="0" y="0" width="42" height="42" rx="10"></rect>
                                </g>
                            </g>
                        </g>
                    </g>
                </g>
            </g>
            <g transform="translate(10.000000, 12.000000)" fill-rule="nonzero">
                <path d="M16.4875458,16.1465201 C16.4875458,14.6432234 17.7124542,13.4739927 19.1600733,13.4739927 C20.66337,13.4739927 21.8326007,14.6989011 21.8326007,16.1465201 C21.8326007,17.5941392 20.6076923,18.8190476 19.1600733,18.8190476 C17.7124542,18.8190476 16.4875458,17.6498168 16.4875458,16.1465201" id="Path" fill="#86BC25"></path>
                <path d="M15.367033,8.96410256 C15.367033,12.0820513 14.5875458,14.4205128 12.9172161,16.0908425 C11.2468864,17.7611722 8.90842491,18.596337 5.9018315,18.596337 L0,18.596337 L0,0.0556776557 L6.23589744,0.0556776557 C9.18681319,0.0556776557 11.4139194,0.779487179 12.9728938,2.33846154 C14.5875458,3.84175824 15.367033,6.06886447 15.367033,8.96410256 M10.2446886,9.13113553 C10.2446886,7.40512821 9.91062271,6.18021978 9.24249084,5.34505495 C8.63003663,4.56556777 7.57216117,4.12014652 6.23589744,4.12014652 L4.8996337,4.12014652 L4.8996337,14.4761905 L6.01318681,14.4761905 C7.51648352,14.4761905 8.57435897,14.0307692 9.2981685,13.1399267 C9.91062271,12.2490842 10.2446886,10.9128205 10.2446886,9.13113553" id="Shape" fill="#FFFFFF"></path>
            </g>
        </g>
    </g>
</svg>