<?xml version="1.0" encoding="UTF-8"?>
<svg width="42px" height="42px" viewBox="0 0 42 42" version="1.1" xmlns="http://www.w3.org/2000/svg" xmlns:xlink="http://www.w3.org/1999/xlink">
    <!-- Generator: Sketch 64 (93537) - https://sketch.com -->
    <title>Group 2 Copy 4</title>
    <desc>Created with Sketch.</desc>
    <g id="Page-1" stroke="none" stroke-width="1" fill="none" fill-rule="evenodd">
        <g id="Group-2-Copy-4">
            <rect id="Rectangle" fill="#000000" x="0" y="0" width="42" height="42" rx="21"></rect>
            <g id="noun_backup_2832882" transform="translate(7.000000, 7.000000)" fill="#FFFFFF" fill-rule="nonzero">
                <path d="M14,4.7823734e-05 C11.2306826,-0.00721485369 8.52230926,0.812877766 6.22222222,2.3551993 L6.22222222,1.55564649 C6.2222222,0.696539853 5.52577626,4.7823734e-05 4.66666667,4.7823734e-05 C3.80755707,4.7823734e-05 3.11111114,0.696539853 3.11111111,1.55564649 L3.11111111,6.22229711 C3.1110038,6.63488757 3.27485775,7.0306102 3.56660427,7.32235572 C3.85835079,7.61410124 4.25407479,7.77795463 4.66666667,7.77784732 L9.33333333,7.77784732 C10.1924429,7.77784732 10.8888889,7.08140377 10.8888889,6.22229711 C10.8888889,5.36319045 10.1924429,4.6667469 9.33333333,4.6667469 L8.40858667,4.6667469 C12.6497102,2.13077149 18.0671077,2.77068056 21.6006452,6.22500766 C25.1341826,9.67933476 25.896712,15.0808189 23.4575021,19.378315 C21.0182922,23.6758111 15.9897436,25.7903678 11.2123406,24.5275322 C6.43493755,23.2646965 3.10811934,18.9415224 3.11111111,14.0000478 C3.11111111,13.1409415 2.41466517,12.4444979 1.55555556,12.4444979 C0.696445945,12.4444979 0,13.1409415 0,14.0000478 C0,21.7320081 6.2680135,28 14,28 C21.7319865,28 28,21.7320081 28,14.0000478 C28,6.26808823 21.7319865,4.7823734e-05 14,4.7823734e-05 Z M14,7.77784726 C13.5874081,7.77774 13.1916841,7.94159339 12.8999376,8.23333891 C12.6081911,8.52508443 12.4443371,8.92080707 12.4444444,9.33339752 L12.4444444,14.0000481 C12.4443371,14.4126386 12.6081911,14.8083612 12.8999376,15.1001068 C13.1916841,15.3918523 13.5874081,15.5557057 14,15.5555984 L20.2222222,15.5555984 C21.0813318,15.5555984 21.7777778,14.8591548 21.7777778,14.0000481 C21.7777778,13.1409415 21.0813318,12.4444979 20.2222222,12.4444979 L15.5555556,12.4444979 L15.5555556,9.33339752 C15.5556629,8.92080707 15.3918089,8.52508443 15.1000624,8.23333891 C14.8083159,7.94159339 14.4125919,7.77774 14,7.77784726 L14,7.77784726 Z" id="Shape"></path>
            </g>
        </g>
    </g>
</svg>