<svg width="65" height="66" viewBox="0 0 65 66" fill="none" xmlns="http://www.w3.org/2000/svg">
<rect width="65" height="66" rx="15" fill="white"/>
<path d="M42.85 25.5616V39.7977H47.1263V37.6225H45.7132V23.3931L42.8496 23.3935L42.85 25.5616Z" fill="#FF282D"/>
<path d="M5.71875 37.6225H7.1724V30.7542H5.71875V28.8654L7.1724 28.6263V26.7142C7.1724 24.3982 7.67652 23.3931 10.6301 23.3931C11.268 23.3931 12.0241 23.4873 12.6861 23.6065L12.2938 25.9347C11.8454 25.8637 11.6231 25.8511 11.3397 25.8511C10.2991 25.8511 10.036 25.9549 10.036 26.9716V28.6263H12.1966V30.7542H10.036V37.6225H11.4745V39.7973L5.71882 39.7979V37.6225H5.71875Z" fill="#FF282D"/>
<path d="M41.3949 36.9352C40.947 37.0297 40.5553 37.0183 40.2719 37.0253C39.0938 37.0543 39.1955 36.6671 39.1955 35.5562V30.7543H41.438V28.6263H39.1955V23.3931H36.332V36.1499C36.332 38.6546 36.9501 39.7977 39.6441 39.7977C40.2821 39.7977 41.1588 39.6335 41.8207 39.4917L41.3949 36.9352Z" fill="#FF282D"/>
<path d="M59.1839 37.6343C59.7857 37.6343 60.2731 38.1126 60.2731 38.7145C60.2731 39.3162 59.7857 39.7944 59.1839 39.7944C58.5822 39.7944 58.0977 39.3162 58.0977 38.7145C58.0977 38.1126 58.5822 37.6343 59.1839 37.6343ZM59.1839 39.6247C59.6838 39.6247 60.091 39.2143 60.091 38.7145C60.091 38.2144 59.6838 37.8165 59.1839 37.8165C58.6841 37.8165 58.2796 38.2144 58.2796 38.7145C58.2797 39.2143 58.6841 39.6247 59.1839 39.6247ZM59.3845 39.2451L59.1654 38.9242H59.0142V39.2451H58.7705V38.1835H59.2147C59.477 38.1835 59.6406 38.3163 59.6406 38.551C59.6406 38.7235 59.5542 38.8409 59.4185 38.8809L59.6839 39.2451H59.3845V39.2451ZM59.0142 38.7112H59.2086C59.3198 38.7112 59.3939 38.6681 59.3939 38.551C59.3939 38.4399 59.3198 38.3965 59.2147 38.3965H59.0142V38.7112H59.0142Z" fill="#FF282D"/>
<path d="M32.7572 30.7505V30.3695C31.8909 30.2115 31.0306 30.2092 30.5639 30.2092C29.2313 30.2092 29.0688 30.9159 29.0688 31.299C29.0688 31.8409 29.2538 32.1339 30.6975 32.4496C32.8077 32.9233 34.9271 33.4176 34.9271 36.0343C34.9271 38.5158 33.6499 39.7978 30.9617 39.7978C29.1628 39.7978 27.4173 39.4117 26.0855 39.0737V36.9353H28.254L28.2527 37.3152C29.1859 37.4954 30.1643 37.4774 30.6751 37.4774C32.0965 37.4774 32.3265 36.7132 32.3265 36.3069C32.3265 35.743 31.9188 35.4722 30.5864 35.202C28.0762 34.7731 26.084 33.9161 26.084 31.3662C26.084 28.9527 27.6982 28.0059 30.3865 28.0059C32.2078 28.0059 33.5926 28.2883 34.9251 28.6264V30.7505H32.7572Z" fill="#FF282D"/>
<path d="M19.584 32.6301L19.3661 32.4121L18.2594 33.3765C18.2036 33.3565 18.1438 33.345 18.0814 33.345C17.7828 33.345 17.541 33.5939 17.541 33.9006C17.541 34.2076 17.7828 34.4564 18.0814 34.4564C18.3799 34.4564 18.6222 34.2076 18.6222 33.9006C18.6222 33.8423 18.6133 33.7862 18.5972 33.7335L19.584 32.6301Z" fill="#FF282D"/>
<path d="M23.9704 36.9353L23.9685 28.0245H21.105V28.8601C20.5153 28.5063 19.8583 28.2533 19.1581 28.1236H19.1743V27.1347H19.5237V26.4075H16.6404V27.1347H16.9897V28.1236H17.0096C14.2708 28.6278 12.1953 31.026 12.1953 33.9106C12.1953 37.1614 14.8306 39.7967 18.0815 39.7967C19.191 39.7967 20.2285 39.4894 21.1143 38.9557L21.6302 39.7978H24.6548V36.9353H23.9704V36.9353ZM18.253 36.9288V36.5922H17.9099V36.9279C16.373 36.8383 15.1437 35.6035 15.0636 34.0642H15.4046V33.7211H15.0653C15.1565 32.1924 16.3807 30.9694 17.9099 30.8802V31.2176H18.253V30.8793C19.7604 30.9598 20.9746 32.1422 21.1058 33.6356V33.734H20.762V34.0771H21.1058L21.1059 34.171C20.9754 35.6651 19.7608 36.8482 18.253 36.9288Z" fill="#FF282D"/>
<path d="M54.3763 28.6262H60.2823V30.7521H58.8707L55.2486 39.6632C54.2104 42.1665 52.5053 44.5225 49.9085 44.5225C49.2701 44.5225 48.4201 44.4518 47.8306 44.3101L48.0896 41.7111C48.4679 41.7819 48.9633 41.8284 49.2232 41.8284C50.4275 41.8284 51.7859 41.0823 52.2107 39.7831L48.5406 30.7522H47.1289V28.6263H53.038V30.7522H51.6264L53.7057 35.8675L55.7849 30.7522H54.3763V28.6262H54.3763Z" fill="#FF282D"/>
</svg>
