<?xml version="1.0" encoding="UTF-8"?>
<svg width="42px" height="42px" viewBox="0 0 42 42" version="1.1" xmlns="http://www.w3.org/2000/svg" xmlns:xlink="http://www.w3.org/1999/xlink">
    <!-- Generator: Sketch 64 (93537) - https://sketch.com -->
    <title>fluree</title>
    <desc>Created with Sketch.</desc>
    <g id="Page-1" stroke="none" stroke-width="1" fill="none" fill-rule="evenodd">
        <g id="fluree" fill-rule="nonzero">
            <g id="transfer-sh-copy" fill="#13C6FF">
                <rect id="Rectangle" x="0" y="0" width="42" height="42" rx="13"></rect>
            </g>
            <g id="White-Primary-Fluree-Logo" transform="translate(6.000000, 5.000000)" fill="#FFFFFF">
                <polygon id="Path" points="16.8384 15.9168 28.2432 9.3984 30 10.528 20.8512 15.9168 23.232 17.296 26.4896 15.2896 28.2432 16.4192 25.3632 18.2976 30.3744 21.1776 28.2432 22.432"></polygon>
                <polygon id="Path" points="13.536 15.9104 2.1312 9.3952 0.3776 10.5216 9.5264 15.9104 7.1456 17.28 3.8848 15.2864 2.1312 16.4128 5.0112 18.2944 0 21.1776 2.1312 22.4288"></polygon>
                <path d="M16.1472,17.4688 L27.4944,24.0864 C27.4581333,24.7818667 27.4250667,25.4762667 27.3952,26.1696 L18.1536,20.9408 L18.1536,23.68 L21.5168,25.5008 C21.4848,26.1962667 21.4517333,26.8906667 21.4176,27.584 L18.3488,26.0288 L18.3488,31.8112 L16.1984,30.592 L16.1472,17.4688 Z" id="Path"></path>
                <path d="M14.4224,17.3664 L3.0752,24 C3.1104,24.6944 3.1424,25.3888 3.1776,26.0832 L12.4192,20.8384 L12.4192,23.5904 L9.056,25.4112 C9.088,26.1056 9.1232,26.8 9.1552,27.4944 L12.224,25.9392 L12.224,31.7216 L14.3744,30.5024 L14.4224,17.3664 Z" id="Path"></path>
                <path d="M16.1472,14.3552 L27.4944,7.7376 C27.4581333,7.04 27.4250667,6.34453333 27.3952,5.6512 L18.1536,10.88 L18.1536,8.1312 L21.5168,6.3104 C21.4848,5.61706667 21.4517333,4.92266667 21.4176,4.2272 L18.3488,5.7824 L18.3552,0 L16.2048,1.2192 L16.1472,14.3552 Z" id="Path"></path>
                <path d="M14.4512,14.4544 L3.104,7.8368 C3.14026667,7.1392 3.17226667,6.44693333 3.2,5.76 L12.448,10.9792 L12.448,8.2304 L9.0848,6.4 C9.1168,5.7056 9.152,5.0112 9.184,4.3168 L12.2528,5.872 L12.2528,0.0896 L14.4,1.3184 L14.4512,14.4544 Z" id="Path"></path>
            </g>
        </g>
    </g>
</svg>