<?xml version="1.0" encoding="UTF-8"?>
<svg width="42px" height="42px" viewBox="0 0 42 42" version="1.1" xmlns="http://www.w3.org/2000/svg" xmlns:xlink="http://www.w3.org/1999/xlink">
    <!-- Generator: Sketch 64 (93537) - https://sketch.com -->
    <title>free-nas</title>
    <desc>Created with Sketch.</desc>
    <g id="Page-1" stroke="none" stroke-width="1" fill="none" fill-rule="evenodd">
        <g id="free-nas">
            <g id="kafka-copy" fill="#343432">
                <g id="Group-8-Copy-3">
                    <g id="Group-5-Copy-2">
                        <g id="Group-4">
                            <g id="Group-3-Copy">
                                <g id="Group-2-Copy-2">
                                    <g id="Group-9">
                                        <rect id="Rectangle" transform="translate(21.000000, 21.000000) rotate(-180.000000) translate(-21.000000, -21.000000) " x="0" y="0" width="42" height="42" rx="10"></rect>
                                    </g>
                                </g>
                            </g>
                        </g>
                    </g>
                </g>
            </g>
            <path d="M23.467164,20.9503475 C22.6050244,21.989688 21.8807079,23.1256837 21.7041035,24.5403085 C21.5770199,25.5611534 21.9284388,26.3916712 22.7022762,27.0652737 C25.0530235,29.1099465 28.8893954,27.8259851 29.5116871,24.7932824 C29.6017792,24.3553513 29.4955779,24.1894864 29.0427309,24.1697974 C27.6328792,24.1101337 26.4193208,23.5224469 25.3406022,22.6710468 C24.6926551,22.1591328 24.1186909,21.5547401 23.467164,20.9503475 L23.467164,20.9503475 Z M7,20.0458467 C7.17958755,19.0703462 7.3132341,18.0835097 7.55427519,17.1235217 C7.7314762,16.415911 8.02740784,15.7339556 8.30842357,15.0567733 C9.26602496,12.7549502 8.98858904,10.6297314 7.43077146,8.67395738 C7.40272955,8.63875584 7.39556992,8.58804174 7.29473837,8.32790828 C8.58585949,8.4150172 9.79822461,8.39890801 10.9741949,8.59758793 C13.0045485,8.94125048 14.8374154,9.79921359 16.4131321,11.1332925 C16.7424754,11.4125184 16.9853064,11.347485 17.30749,11.2114519 C21.352088,9.50208867 25.5864164,8.52718483 29.9358956,8.00154819 C30.0009289,7.99379191 30.0695421,8.0164641 30.2676254,8.04092619 C30.099374,8.77001584 29.9901895,9.49015595 29.7634677,10.172708 C29.3380659,11.4518964 28.8756727,12.7215386 28.3560025,13.9655254 C28.2396584,14.2459445 27.8524414,14.525767 27.5415938,14.5955734 C26.0828179,14.9237234 24.6073361,15.1784872 23.1300644,15.6068721 C24.3997066,15.9075768 25.6699455,16.2088782 27.0201336,16.5292719 C26.3614471,17.4170668 25.7421385,18.2511645 25.0953847,19.1228502 C26.0327004,19.8412004 27.0959064,19.7946628 28.1298773,19.837024 C28.4860692,19.8519399 28.8595636,19.8555197 29.1990497,19.7672175 C30.0331473,19.5506385 30.6029351,19.7702007 30.9090095,20.6019118 C30.9585303,20.7379449 31.1136558,20.8351966 31.2073277,20.9360282 C31.3021929,20.8990367 31.3761758,20.8912805 31.3851253,20.8632386 C31.7484769,19.7344025 32.6893725,19.5924031 33.6923182,19.3978996 C35.3086062,19.0852622 36.6074835,18.1670388 37.7560086,16.8132708 C37.9075542,18.4021135 37.5865638,19.7421588 36.8157096,20.9760028 C35.95536,22.3536362 34.7101799,23.2694731 33.2329082,23.9215966 C32.9256405,24.0570331 32.593314,24.3487883 32.4692136,24.6488964 C30.4961371,29.4070715 27.0070076,32.2422875 21.8634054,33.0161249 C21.726179,33.0370072 21.5961123,33.1014439 21.4624658,33.145595 L19.0281893,33.145595 C18.8706773,33.0984607 18.7161485,33.0286543 18.5556533,33.0083686 C16.2782923,32.7261596 14.236006,31.8741629 12.4073155,30.5078656 C11.9920566,30.1976147 11.6006631,29.855742 11.162732,29.4989535 C10.263601,30.2739841 9.38535223,31.0311157 8.50710349,31.787054 C8.8698584,30.7626293 9.30957941,29.8193472 9.81552706,28.9118633 C10.0631312,28.4679658 10.0112238,28.1541351 9.71767869,27.7627416 C8.59242249,26.2645877 7.77622393,24.6107116 7.3723011,22.777248 C7.20524291,22.0183266 7.12171382,21.241506 7,20.4730384 L7,20.0458467 Z" id="FeeNAS" fill="#FFFFFF"></path>
        </g>
    </g>
</svg>