<?xml version="1.0" encoding="UTF-8"?>
<svg width="42px" height="42px" viewBox="0 0 42 42" version="1.1" xmlns="http://www.w3.org/2000/svg" xmlns:xlink="http://www.w3.org/1999/xlink">
    <!-- Generator: Sketch 64 (93537) - https://sketch.com -->
    <title>kafka</title>
    <desc>Created with Sketch.</desc>
    <g id="Page-1" stroke="none" stroke-width="1" fill="none" fill-rule="evenodd">
        <g id="kafka">
            <g id="Group-8-Copy-3" fill="#000000">
                <g id="Group-5-Copy-2">
                    <g id="Group-4">
                        <g id="Group-3-Copy">
                            <g id="Group-2-Copy-2">
                                <g id="Group-9">
                                    <rect id="Rectangle" transform="translate(21.000000, 21.000000) rotate(-180.000000) translate(-21.000000, -21.000000) " x="0" y="0" width="42" height="42" rx="10"></rect>
                                </g>
                            </g>
                        </g>
                    </g>
                </g>
            </g>
            <g id="Apache_kafka-icon" transform="translate(13.000000, 6.000000)" fill="#FFFFFF" fill-rule="nonzero">
                <path d="M14.5663759,16.6162538 C13.398127,16.6162538 12.3507734,17.1338337 11.6335556,17.9487098 L9.79572454,16.6476512 C9.99081781,16.1105115 10.1028361,15.5337465 10.1028361,14.9300597 C10.1028361,14.3368387 9.99471529,13.7697457 9.80604576,13.240545 L11.6397625,11.9532721 C12.3569087,12.7640339 13.4015192,13.2787991 14.5663759,13.2787991 C16.7226496,13.2787991 18.4771888,11.5245415 18.4771888,9.367971 C18.4771888,7.21140056 16.7226496,5.45714346 14.5663759,5.45714346 C12.4101028,5.45714346 10.6555636,7.21140056 10.6555636,9.367971 C10.6555636,9.75397249 10.7138825,10.1261882 10.8185382,10.4786997 L8.98359473,11.7666229 C8.21708025,10.8156934 7.1134288,10.1517387 5.85596978,9.94906652 L5.85596978,7.73756975 C7.62746997,7.36549794 8.96223023,5.79153859 8.96223023,3.91082773 C8.96223023,1.7542571 7.20769162,1.77635684e-15 5.05141811,1.77635684e-15 C2.89514455,1.77635684e-15 1.14060555,1.7542571 1.14060555,3.91082773 C1.14060555,5.76634885 2.44079338,7.32089294 4.17685523,7.71952515 L4.17685523,9.95974849 C1.80758877,10.3756316 0,12.4433522 0,14.9300597 C0,17.4288926 1.82548852,19.504192 4.21186084,19.905928 L4.21186084,22.2714506 C2.45804359,22.6569468 1.14060555,24.2210184 1.14060555,26.0891706 C1.14060555,28.2457411 2.89514455,30 5.05141811,30 C7.20769162,30 8.96223023,28.2457411 8.96223023,26.0891706 C8.96223023,24.2210184 7.64479245,22.6569468 5.89097538,22.2714506 L5.89097538,19.9058564 C7.12367775,19.6982755 8.20704748,19.0474575 8.96569473,18.1176035 L10.8157957,19.4271075 C10.7130882,19.7764429 10.6555636,20.1449779 10.6555636,20.5270819 C10.6555636,22.6836524 12.4101028,24.4379094 14.5663759,24.4379094 C16.7226496,24.4379094 18.4771888,22.6836524 18.4771888,20.5270819 C18.4771888,18.3705114 16.7226496,16.6162538 14.5663759,16.6162538 L14.5663759,16.6162538 Z M14.5663759,7.47181432 C15.6119975,7.47181432 16.4624536,8.32263441 16.4624536,9.367971 C16.4624536,10.4133076 15.6119975,11.2640554 14.5663759,11.2640554 C13.5207549,11.2640554 12.6702988,10.4133076 12.6702988,9.367971 C12.6702988,8.32263441 13.5207549,7.47181432 14.5663759,7.47181432 L14.5663759,7.47181432 L14.5663759,7.47181432 Z M3.15526872,3.91082773 C3.15526872,2.86549113 4.00579688,2.01474319 5.05141811,2.01474319 C6.09703954,2.01474319 6.94749498,2.86549113 6.94749498,3.91082773 C6.94749498,4.95616432 6.09703954,5.8069122 5.05141811,5.8069122 C4.00579688,5.8069122 3.15526872,4.95616432 3.15526872,3.91082773 L3.15526872,3.91082773 Z M6.94749498,26.0891706 C6.94749498,27.1345072 6.09703954,27.985255 5.05141811,27.985255 C4.00579688,27.985255 3.15526872,27.1345072 3.15526872,26.0891706 C3.15526872,25.043834 4.00579688,24.1930855 5.05141811,24.1930855 C6.09703954,24.1930855 6.94749498,25.043834 6.94749498,26.0891706 L6.94749498,26.0891706 Z M5.05127376,17.574473 C3.59294714,17.574473 2.40658172,16.3883195 2.40658172,14.9300597 C2.40658172,13.4717276 3.59294714,12.2853573 5.05127376,12.2853573 C6.50952819,12.2853573 7.69589329,13.4717276 7.69589329,14.9300597 C7.69589329,16.3883195 6.50952819,17.574473 5.05127376,17.574473 L5.05127376,17.574473 L5.05127376,17.574473 Z M14.5663759,22.4232386 C13.5207549,22.4232386 12.6702988,21.5724185 12.6702988,20.5270819 C12.6702988,19.4817453 13.5207549,18.6309975 14.5663759,18.6309975 C15.6119975,18.6309975 16.4624536,19.4817453 16.4624536,20.5270819 C16.4624536,21.5724185 15.6119975,22.4232386 14.5663759,22.4232386 L14.5663759,22.4232386 Z" id="path6"></path>
            </g>
        </g>
    </g>
</svg>