<?xml version="1.0" encoding="UTF-8"?>
<svg width="42px" height="42px" viewBox="0 0 42 42" version="1.1" xmlns="http://www.w3.org/2000/svg" xmlns:xlink="http://www.w3.org/1999/xlink">
    <!-- Generator: Sketch 64 (93537) - https://sketch.com -->
    <title>minio</title>
    <desc>Created with Sketch.</desc>
    <g id="Page-1" stroke="none" stroke-width="1" fill="none" fill-rule="evenodd">
        <g id="minio">
            <g id="Group-11-Copy" fill="#C72C48">
                <g id="Group-8-Copy-3">
                    <g id="Group-5-Copy-2">
                        <g id="Group-4">
                            <g id="Group-3-Copy">
                                <g id="Group-2-Copy-2">
                                    <g id="Group-9">
                                        <rect id="Rectangle" transform="translate(21.000000, 21.000000) rotate(-180.000000) translate(-21.000000, -21.000000) " x="0" y="0" width="42" height="42" rx="10"></rect>
                                    </g>
                                </g>
                            </g>
                        </g>
                    </g>
                </g>
            </g>
            <g id="logo" transform="translate(5.000000, 18.000000)" fill="#FFFFFF" fill-rule="nonzero">
                <path d="M10.5502,0.0828 L12.3718,0.0828 L12.3718,4.8088 L10.5502,4.8088 L10.5502,0.0828 Z M8.3422,0.148 L4.6446,2.132 C4.5910171,2.16019976 4.5269829,2.16019976 4.4734,2.132 L0.7758,0.148 C0.694410182,0.104936084 0.603680066,0.0825454573 0.5116,0.0828 L0.507,0.0828 C0.244538961,0.0673594989 0.0184979895,0.265936715 0,0.5282 L0,4.8034 L1.82,4.8034 L1.82,2.7684 C1.82712502,2.70637443 1.86528158,2.65222035 1.92129258,2.62463948 C1.97730359,2.59705861 2.04349195,2.5998313 2.097,2.632 L4.1692,3.7456 C4.37755282,3.85547254 4.62623228,3.85755977 4.8364,3.7512 L7.023,2.6244 C7.07654623,2.59336401 7.14213403,2.59142786 7.19741778,2.6192512 C7.25270153,2.64707453 7.29022349,2.70090399 7.2972,2.7624 L7.2972,4.8034 L9.1172,4.8034 L9.1172,0.5282 C9.09869987,0.266266592 8.87315798,0.0678146741 8.611,0.0828 L8.6064,0.0828 C8.51431993,0.0825454573 8.42358982,0.104936084 8.3422,0.148 Z M21.455,0.0828 L19.6076,0.0828 L19.6076,2.2338 C19.6010122,2.2940819 19.5649276,2.3471607 19.5112951,2.37546009 C19.4576625,2.40375947 19.3934798,2.40358708 19.34,2.375 L14.5524,0.135 C14.4777483,0.100462608 14.3964538,0.0826474388 14.3142,0.0828 L14.311,0.0828 C14.048539,0.0673594989 13.822498,0.265936715 13.804,0.5282 L13.804,4.8036 L15.6366,4.8036 L15.6366,2.655 C15.6432488,2.59478969 15.6792932,2.54178347 15.7328435,2.51346633 C15.7863937,2.48514919 15.8504941,2.48519925 15.904,2.5136 L20.7104,4.7536 C20.784861,4.78805068 20.8659558,4.80579872 20.948,4.8056 C21.210461,4.8210405 21.436502,4.62246329 21.455,4.3602 L21.455,0.0828 Z M22.8872,4.8088 L22.8872,0.0828 L23.7254,0.0828 L23.7254,4.8088 L22.8872,4.8088 Z M28.6584,4.893 C26.4036,4.893 24.804,3.953 24.804,2.4466 C24.804,0.9482 26.4132,0 28.6584,0 C30.9036,0 32.5224,0.94 32.5224,2.4466 C32.5224,3.9532 30.942,4.893 28.6584,4.893 Z M28.6584,0.6264 C26.9818,0.6264 25.6904,1.2698 25.6904,2.4464 C25.6904,3.6316 26.9818,4.2664 28.6584,4.2664 C30.335,4.2664 31.6358,3.6316 31.6358,2.4464 C31.6358,1.2698 30.335,0.6264 28.6584,0.6264 Z" id="Shape"></path>
            </g>
        </g>
    </g>
</svg>