<?xml version="1.0" encoding="UTF-8"?>
<svg width="42px" height="42px" viewBox="0 0 42 42" version="1.1" xmlns="http://www.w3.org/2000/svg" xmlns:xlink="http://www.w3.org/1999/xlink">
    <!-- Generator: Sketch 64 (93537) - https://sketch.com -->
    <title>Group 2 Copy</title>
    <desc>Created with Sketch.</desc>
    <defs>
        <linearGradient x1="49.9972467%" y1="-19.5160457%" x2="49.9972467%" y2="129.625092%" id="linearGradient-1">
            <stop stop-color="#0994DC" offset="0%"></stop>
            <stop stop-color="#66CEF5" offset="35.000601%"></stop>
            <stop stop-color="#66CEF5" offset="35.000601%"></stop>
            <stop stop-color="#127BCA" offset="84.616101%"></stop>
            <stop stop-color="#127BCA" offset="84.616101%"></stop>
            <stop stop-color="#127BCA" offset="100%"></stop>
        </linearGradient>
        <linearGradient x1="50.0007616%" y1="-19.5161868%" x2="50.0007616%" y2="129.624154%" id="linearGradient-2">
            <stop stop-color="#0E76BC" offset="0%"></stop>
            <stop stop-color="#36AEE8" offset="36.0001%"></stop>
            <stop stop-color="#36AEE8" offset="36.0001%"></stop>
            <stop stop-color="#00ADEF" offset="84.616101%"></stop>
            <stop stop-color="#00ADEF" offset="84.616101%"></stop>
            <stop stop-color="#00ADEF" offset="100%"></stop>
        </linearGradient>
        <linearGradient x1="49.9991979%" y1="110.921751%" x2="49.9991979%" y2="-6.21395776%" id="linearGradient-3">
            <stop stop-color="#1C63B7" offset="0%"></stop>
            <stop stop-color="#33BDF2" offset="50%"></stop>
            <stop stop-color="#33BDF2" stop-opacity="0.41960785" offset="100%"></stop>
        </linearGradient>
        <linearGradient x1="50.0009899%" y1="-19.5149993%" x2="50.0009899%" y2="129.627315%" id="linearGradient-4">
            <stop stop-color="#166AB8" offset="0%"></stop>
            <stop stop-color="#36AEE8" offset="39.999399%"></stop>
            <stop stop-color="#36AEE8" offset="39.999399%"></stop>
            <stop stop-color="#0798DD" offset="84.616101%"></stop>
            <stop stop-color="#0798DD" offset="84.616101%"></stop>
            <stop stop-color="#0798DD" offset="100%"></stop>
        </linearGradient>
        <linearGradient x1="49.9985422%" y1="-19.5211325%" x2="49.9985422%" y2="129.626892%" id="linearGradient-5">
            <stop stop-color="#124379" offset="0%"></stop>
            <stop stop-color="#1487CB" offset="38.9999%"></stop>
            <stop stop-color="#1487CB" offset="38.9999%"></stop>
            <stop stop-color="#165197" offset="78.022802%"></stop>
            <stop stop-color="#165197" offset="78.022802%"></stop>
            <stop stop-color="#165197" offset="100%"></stop>
        </linearGradient>
        <linearGradient x1="0.000304652977%" y1="50.000544%" x2="100.000291%" y2="50.000544%" id="linearGradient-6">
            <stop stop-color="#33BDF2" stop-opacity="0.69803923" offset="0%"></stop>
            <stop stop-color="#1DACD8" offset="100%"></stop>
        </linearGradient>
        <linearGradient x1="50.0095709%" y1="94.6864084%" x2="50.0095709%" y2="-3.02458407%" id="linearGradient-7">
            <stop stop-color="#136AB4" offset="0%"></stop>
            <stop stop-color="#59CAF5" stop-opacity="0.54901963" offset="60.000002%"></stop>
            <stop stop-color="#59CAF5" stop-opacity="0.23529412" offset="100%"></stop>
        </linearGradient>
        <linearGradient x1="-0.000760861053%" y1="49.999714%" x2="99.9992241%" y2="49.999714%" id="linearGradient-8">
            <stop stop-color="#05A1E6" stop-opacity="0.24705882" offset="0%"></stop>
            <stop stop-color="#05A1E6" offset="100%"></stop>
        </linearGradient>
        <linearGradient x1="49.9983236%" y1="124.313712%" x2="49.9983236%" y2="-9.42137278%" id="linearGradient-9">
            <stop stop-color="#318ED5" offset="0%"></stop>
            <stop stop-color="#38A7E4" offset="100%"></stop>
        </linearGradient>
        <linearGradient x1="49.99857%" y1="91.1999524%" x2="49.99857%" y2="-76.7854074%" id="linearGradient-10">
            <stop stop-color="#05A1E6" offset="0%"></stop>
            <stop stop-color="#05A1E6" stop-opacity="0.54901963" offset="100%"></stop>
        </linearGradient>
        <linearGradient x1="50.0000694%" y1="100.01049%" x2="50.0000694%" y2="0.0101898204%" id="linearGradient-11">
            <stop stop-color="#1959A6" offset="0%"></stop>
            <stop stop-color="#05A1E6" offset="50%"></stop>
            <stop stop-color="#05A1E6" offset="50%"></stop>
            <stop stop-color="#7EC5EA" offset="91.758698%"></stop>
            <stop stop-color="#7EC5EA" offset="100%"></stop>
        </linearGradient>
        <linearGradient x1="59.8041209%" y1="94.5677442%" x2="38.4710575%" y2="5.75513731%" id="linearGradient-12">
            <stop stop-color="#165096" offset="0%"></stop>
            <stop stop-color="#0D82CA" offset="100%"></stop>
        </linearGradient>
        <linearGradient x1="49.9946843%" y1="76.9980959%" x2="49.9946843%" y2="-3.29893613%" id="linearGradient-13">
            <stop stop-color="#05A1E6" offset="0%"></stop>
            <stop stop-color="#0495D6" offset="87.362701%"></stop>
            <stop stop-color="#0495D6" offset="100%"></stop>
        </linearGradient>
        <linearGradient x1="65.2631169%" y1="-4.16143813%" x2="34.2626975%" y2="105.843625%" id="linearGradient-14">
            <stop stop-color="#38A7E4" stop-opacity="0.32941177" offset="0%"></stop>
            <stop stop-color="#0E88D3" offset="96.153301%"></stop>
            <stop stop-color="#0E88D3" offset="96.153301%"></stop>
            <stop stop-color="#0E88D3" offset="100%"></stop>
        </linearGradient>
        <linearGradient x1="50.016714%" y1="-0.295776148%" x2="50.016714%" y2="101.881944%" id="linearGradient-15">
            <stop stop-color="#168CD4" offset="0%"></stop>
            <stop stop-color="#1C87CC" offset="50%"></stop>
            <stop stop-color="#154B8D" offset="100%"></stop>
        </linearGradient>
        <linearGradient x1="16.6738062%" y1="205.564966%" x2="87.8125992%" y2="-19.8362753%" id="linearGradient-16">
            <stop stop-color="#97D6EE" offset="0%"></stop>
            <stop stop-color="#55C1EA" offset="70.329303%"></stop>
            <stop stop-color="#55C1EA" offset="100%"></stop>
        </linearGradient>
        <linearGradient x1="6.89015912%" y1="6.30038251%" x2="75.7828966%" y2="116.770678%" id="linearGradient-17">
            <stop stop-color="#7ACCEC" offset="0%"></stop>
            <stop stop-color="#3FB7ED" offset="100%"></stop>
        </linearGradient>
        <linearGradient x1="49.9966533%" y1="6.36281892%" x2="49.9966533%" y2="127.96135%" id="linearGradient-18">
            <stop stop-color="#1DA7E7" offset="0%"></stop>
            <stop stop-color="#37ABE7" stop-opacity="0" offset="100%"></stop>
        </linearGradient>
    </defs>
    <g id="Page-1" stroke="none" stroke-width="1" fill="none" fill-rule="evenodd">
        <g id="Group-2-Copy">
            <rect id="Rectangle" fill="#FFFFFF" x="0" y="0" width="42" height="42"></rect>
            <g id="net-seeklogo.com" transform="translate(2.000000, 15.000000)" fill-rule="nonzero">
                <g id="Group" transform="translate(0.117183, 0.000000)">
                    <path d="M12.8012765,2.99255447 C14.1269467,7.04647243 14.6291822,14.2782935 18.5056614,14.2782935 L18.5056614,14.2782935 C18.8008458,14.2782935 19.098995,14.2494196 19.3983279,14.192492 L19.3983279,14.192492 C15.8744178,13.3708385 15.4567769,6.21768246 13.3064651,2.51334545 L13.3064651,2.51334545 C13.1378618,2.66657423 12.9704539,2.82629494 12.8012765,2.99255447" id="Path" fill="url(#linearGradient-1)"></path>
                    <path d="M13.3064651,2.51334545 C15.4567769,6.21768246 15.8744178,13.3708385 19.3983279,14.192492 L19.3983279,14.192492 C19.6751732,14.1416227 19.9526162,14.0647154 20.2306451,13.9676994 L20.2306451,13.9676994 C17.067589,12.4178226 16.1932617,5.47174102 13.7513159,2.12764865 L13.7513159,2.12764865 C13.603419,2.25073789 13.4549479,2.37969801 13.3064651,2.51334545" id="Path" fill="url(#linearGradient-2)"></path>
                    <path d="M16.404707,0.310336292 C16.1101085,0.310336292 15.8113499,0.339198516 15.5114546,0.396137837 C14.7270419,0.544023046 13.930243,0.881780209 13.1269052,1.39288649 C13.3463542,1.60939419 13.5551513,1.85723667 13.7515503,2.12760178 C14.5685048,1.44967347 15.3801273,0.948644946 16.1888087,0.647519257 C16.4922547,0.53512884 16.7945638,0.450557719 17.0980098,0.394954286 C16.8791351,0.339292263 16.6484246,0.310336292 16.404707,0.310336292" id="Path" fill="#14559A"></path>
                    <path d="M22.6998124,12.5390603 C23.0233905,12.2817612 23.3475661,11.9971935 23.6723277,11.686658 C22.3253536,7.65161822 21.8432384,0.316300917 17.9395376,0.316300917 C17.6603251,0.316300917 17.3787456,0.342327307 17.097752,0.394380088 C20.6536062,1.2787852 21.109109,9.01517377 22.6998124,12.5390603" id="Path" fill="url(#linearGradient-3)"></path>
                    <path d="M17.0978692,0.394661329 C16.8789943,0.339057895 16.6482958,0.310101924 16.4045664,0.310101924 L17.9396664,0.315726719 C17.6604424,0.315726719 17.3788627,0.341753109 17.0978692,0.394426961" id="Path" fill="#3092C4"></path>
                    <path d="M22.6316352,13.3962555 C22.4790159,13.2507374 22.3341071,13.0910167 22.1915186,12.920644 C21.5348825,13.3856035 20.8806252,13.7381727 20.2305279,13.9676994 C20.4618007,14.0807109 20.7043348,14.1647195 20.9616926,14.2167723 C21.1610212,14.2574701 21.367498,14.2782935 21.5845798,14.2782935 C22.3139867,14.2782935 22.890739,14.1919295 23.381725,13.956485 C23.1114068,13.8103458 22.8635291,13.6210481 22.6316352,13.3962555" id="Path" fill="#1969BC"></path>
                    <path d="M16.1885275,0.648187201 C19.3734851,2.3140051 19.6503304,9.85755697 22.1916592,12.920644 L22.1916592,12.920644 C22.3620318,12.8005781 22.5306233,12.6733757 22.6992148,12.5390603 L22.6992148,12.5390603 C21.108523,9.01517377 20.6536062,1.27816413 17.0983496,0.394380088 L17.0983496,0.394380088 C16.7948803,0.451167071 16.4919968,0.535222587 16.1885275,0.648187201" id="Path" fill="url(#linearGradient-4)"></path>
                    <path d="M13.7513159,2.12764865 C16.1932617,5.47174102 17.067589,12.4178226 20.2306451,13.9676994 L20.2306451,13.9676994 C20.8807658,13.7381727 21.5350348,13.3856035 22.1916592,12.920644 L22.1916592,12.920644 C19.6503304,9.85755697 19.3734851,2.3140051 16.1885275,0.648187201 L16.1885275,0.648187201 C15.3798696,0.94869182 14.5682586,1.44972035 13.7513159,2.12764865" id="Path" fill="url(#linearGradient-5)"></path>
                    <path d="M11.238908,2.89491742 C10.8561642,3.76039744 10.4651472,4.89793001 9.99248876,6.38274673 C10.9324739,5.05822491 11.8695059,3.91712999 12.8012062,2.99255447 C12.6728437,2.59796345 12.5350128,2.23416819 12.38653,1.90995741 C12.0055674,2.20161469 11.62164,2.52995032 11.238908,2.89491742" id="Path" fill="url(#linearGradient-6)"></path>
                    <path d="M12.7259277,1.66041576 C12.6135256,1.74086203 12.500561,1.82311292 12.386987,1.91005115 C12.5354464,2.23422677 12.6726797,2.59805719 12.8010773,2.99260134 C12.9702195,2.82696288 13.1382134,2.66666797 13.306219,2.5134392 C13.1258154,2.20345446 12.9341506,1.91714073 12.7259277,1.66041576" id="Path" fill="#2B74B1"></path>
                    <path d="M13.1269052,1.39288649 C12.9932109,1.47750448 12.8601376,1.5667981 12.725834,1.66026341 C12.9340568,1.91700012 13.1257217,2.20331384 13.3067463,2.51390793 C13.4552409,2.37960427 13.6037003,2.25006994 13.7515972,2.12760178 C13.5551981,1.85728355 13.3464011,1.60939419 13.1269052,1.39288649" id="Path" fill="#125A9E"></path>
                    <path d="M34.8510198,0.0016288466 C33.0497029,6.94827289 29.2873954,12.5278459 26.1332102,13.9345717 L26.1272338,13.9345717 C26.0698608,13.9605981 26.0130622,13.9842691 25.9568728,14.0073073 C25.9491388,14.0119947 25.9421077,14.0125806 25.9361432,14.015393 C25.9195734,14.0220724 25.9041991,14.0272285 25.8876294,14.0338493 C25.8798952,14.0385367 25.8728643,14.0400601 25.8657746,14.0428724 C25.839174,14.0523643 25.8131242,14.0603914 25.7870978,14.0707972 C25.7758483,14.0754845 25.7652314,14.0784141 25.7545326,14.082164 C25.7426971,14.0868513 25.7290687,14.0911871 25.7154872,14.0949487 C25.7036634,14.099636 25.6912655,14.1030343 25.6776253,14.1081904 C25.6663757,14.1128777 25.6545402,14.1148698 25.6439351,14.1195572 C25.6208382,14.1262366 25.5995929,14.1318614 25.5764962,14.1399001 C25.5670043,14.1399001 25.5581805,14.1450562 25.5481027,14.1475171 C25.5339001,14.1522044 25.5179045,14.1556027 25.5025302,14.1598213 C25.4918664,14.1645086 25.4830309,14.166032 25.4717695,14.1683757 C25.455774,14.173063 25.4380208,14.1773988 25.4220722,14.1811604 C25.40078,14.1858477 25.3818548,14.1901835 25.3617346,14.1944138 C25.5042997,14.2470759 25.6527824,14.2736765 25.8131008,14.2736765 C28.8040147,14.2736765 31.8197246,8.91359935 36.809538,2.67224365e-14 L34.850305,2.67224365e-14 L34.8510198,0.0016288466 Z" id="Path" fill="url(#linearGradient-7)"></path>
                    <path d="M9.34296566,0.592243937 C9.3448406,0.592243937 9.34718426,0.587556608 9.34835609,0.587556608 C9.35069975,0.587556608 9.35433243,0.587556608 9.35550427,0.58286928 L9.35925412,0.58286928 C9.37581211,0.577244485 9.39119828,0.570565043 9.40775625,0.564412924 C9.41197486,0.564412924 9.41420134,0.564412924 9.4172481,0.559725596 C9.42146669,0.559725596 9.42556811,0.555038268 9.42969295,0.554452351 C9.44744621,0.548827558 9.46518775,0.542148114 9.48175746,0.535995997 L9.48456985,0.535995997 C9.52422464,0.524172211 9.56087955,0.509500873 9.59932737,0.495778718 C9.6047178,0.495778718 9.60999104,0.491091391 9.61645956,0.491091391 C9.63245507,0.485935329 9.64902477,0.480193352 9.66555932,0.476420053 C9.67329341,0.471732725 9.68094547,0.471732725 9.68803506,0.469271877 C9.70516724,0.464115816 9.72178383,0.458373839 9.73773246,0.454600539 C9.74488063,0.454600539 9.75136086,0.449913211 9.75665754,0.449444478 C9.81167507,0.434304408 9.86609494,0.420101803 9.92111246,0.406848382 C9.92884655,0.406848382 9.93531506,0.402161054 9.94358819,0.401692321 C9.95953684,0.397004993 9.97436051,0.394544145 9.99150441,0.392200481 C9.99865258,0.387513152 10.0068906,0.387513152 10.0151754,0.385052306 C10.0311241,0.380364976 10.0464985,0.379896244 10.0636776,0.376029198 L10.0749271,0.376029198 C10.1080548,0.369349755 10.1417802,0.363724961 10.1749078,0.357572842 L10.1950165,0.357572842 C10.2109651,0.352885514 10.2251677,0.352416781 10.2411632,0.349487202 C10.249952,0.349487202 10.2589048,0.344799874 10.2671896,0.344799874 C10.2819547,0.344799874 10.2967667,0.340112544 10.3115318,0.33812043 C10.3192659,0.33812043 10.3269062,0.33812043 10.3358121,0.333433102 C10.3706858,0.328745773 10.40679,0.326870842 10.4434683,0.323941261 C10.3399487,0.313980689 10.2334643,0.307371557 10.1252104,0.307371557 C6.75688224,0.307371557 2.11611078,6.55716221 0.0255447677,14.6508541 L0.428396031,14.6508541 C1.0974477,13.4577064 1.698471,12.3290094 2.24802861,11.2695092 C3.71213437,5.53674255 6.69417751,1.62711229 9.3431766,0.591318189" id="Path" fill="url(#linearGradient-8)"></path>
                    <path d="M11.2389431,2.89491742 C11.6216986,2.52995032 12.0056025,2.20161469 12.3865651,1.91000427 C12.2996269,1.71952296 12.2097122,1.54323255 12.1132587,1.38171893 C11.8050786,1.75558024 11.5234991,2.24894498 11.2389431,2.89491742" id="Path" fill="#0D82CA"></path>
                    <path d="M11.5156478,0.639621107 C11.7357062,0.824184661 11.9326677,1.07798005 12.1131181,1.38204704 C12.1699051,1.31224101 12.2273132,1.24774337 12.2870414,1.18740574 C12.0368319,0.953754135 11.7664668,0.76208928 11.4730517,0.61775472 C11.4848872,0.62431698 11.496711,0.629590225 11.5090152,0.63479316 C11.5090152,0.63479316 11.5137026,0.639480487 11.5156947,0.639480487" id="Path" fill="#0D82CA"></path>
                    <path d="M2.24787745,11.2702006 C5.31924583,5.35163996 6.77447847,1.60589041 9.34302425,0.591962696 L9.34302425,0.591962696 C6.69461812,1.62841302 3.7119832,5.53799641 2.24787745,11.2702006" id="Path" fill="url(#linearGradient-9)"></path>
                    <path d="M12.2868422,1.1872534 C12.2271257,1.2482121 12.1703387,1.31210039 12.1129306,1.38190642 C12.2093724,1.54337317 12.2992519,1.71908939 12.3868464,1.9101449 C12.5004204,1.82320666 12.613385,1.74095578 12.7257871,1.6605095 C12.5867961,1.48895329 12.4400827,1.32984193 12.2868422,1.1872534" id="Path" fill="#127BCA"></path>
                    <path d="M3.64217951,14.6249449 L3.64217951,14.6249449 C3.62324974,14.6296322 3.60431996,14.6296322 3.58657256,14.6316243 L3.5759206,14.6316243 C3.55992511,14.6316243 3.54336126,14.6363116 3.52859617,14.6363116 L3.52088552,14.6363116 C3.48245763,14.6409989 3.44457464,14.6409989 3.40789746,14.6439285 L3.39606665,14.6439285 C6.50470397,14.5569435 7.92562303,13.0005278 8.63076127,10.7431456 C9.16671041,9.03179034 9.60683881,7.59014391 9.99253562,6.3804265 C8.690513,8.21307813 7.38257261,10.3976778 6.06754264,12.8449671 C5.43339165,14.0245333 4.46915313,14.517277 3.6421549,14.6226246" id="Path" fill="url(#linearGradient-10)"></path>
                    <path d="M3.64217951,14.6237614 L3.64217951,14.6237614 C4.46917773,14.5184136 5.43341743,14.0262442 6.06756725,12.8461038 L6.06756725,12.8461038 C7.38259604,10.3994238 8.69112234,8.21421482 9.99196143,6.38156317 L9.99196143,6.38156317 C10.4652058,4.8961371 10.8556368,3.75921389 11.2389665,2.89373387 L11.2389665,2.89373387 C8.64617087,5.36171771 6.04331267,9.46537993 3.64217951,14.6225777" id="Path" fill="url(#linearGradient-11)"></path>
                    <path d="M2.24773096,11.2703412 C1.69819679,12.3298414 1.09717466,13.4585384 0.428098386,14.6516861 L1.59999843,14.6516861 C1.7549873,13.4667646 1.97504682,12.3368959 2.24773096,11.2709036" id="Path" fill="#05A1E6"></path>
                    <path d="M10.3356598,0.336456428 C10.3261679,0.336456428 10.3190901,0.341143757 10.3108169,0.341143757 L10.3108169,0.341143757 C10.2966143,0.345831085 10.2818024,0.345831085 10.2670373,0.347354468 L10.2670373,0.347354468 C10.2582485,0.347354468 10.2499051,0.347354468 10.2410109,0.352041796 L10.2410109,0.352041796 C10.2250154,0.356729123 10.2102503,0.357197857 10.1948642,0.360127436 L10.1948642,0.360127436 C10.187716,0.360127436 10.1806733,0.360127436 10.1747555,0.364814766 L10.1747555,0.364814766 C10.1410068,0.370439559 10.1079025,0.376650269 10.0747748,0.382321937 L10.0747748,0.382321937 L10.0635252,0.382321937 L10.0635252,0.382321937 C10.046393,0.387009265 10.0309717,0.389470112 10.0150231,0.391813776 L10.0150231,0.391813776 C10.0067031,0.396501104 9.99845338,0.396501104 9.99074272,0.398376036 L9.99074272,0.398376036 C9.97479409,0.403063364 9.95879858,0.405055478 9.94342415,0.407867876 L9.94342415,0.407867876 C9.93510414,0.412555205 9.92865905,0.412555205 9.92093669,0.413023937 L9.92093669,0.413023937 C9.86593089,0.426277358 9.81149929,0.440479963 9.75648176,0.455620033 L9.75648176,0.455620033 C9.75062261,0.455620033 9.74465799,0.460307362 9.73755668,0.461244827 L9.73755668,0.461244827 C9.72099869,0.465932155 9.70500318,0.470736667 9.687871,0.475916165 L9.687871,0.475916165 C9.68072283,0.480603493 9.67248485,0.480603493 9.66538354,0.482478425 L9.66538354,0.482478425 C9.64882555,0.487165753 9.63225584,0.491970265 9.61628378,0.497149763 L9.61628378,0.497149763 C9.6098387,0.497149763 9.60445999,0.501837091 9.59854224,0.501837091 L9.59854224,0.501837091 C9.56068034,0.516027978 9.52341609,0.530230582 9.48437064,0.542066086 L9.48437064,0.542066086 L9.48437064,0.542066086 L9.48437064,0.542066086 C9.46781265,0.547222147 9.45005939,0.553889873 9.43231786,0.56004199 L9.43231786,0.56004199 C9.42516968,0.56472932 9.41868945,0.565783967 9.41045147,0.569065098 L9.41045147,0.569065098 C9.39388176,0.574221159 9.37732378,0.580900601 9.36193762,0.58705272 L9.36193762,0.58705272 C9.35607846,0.591740048 9.35011384,0.592208782 9.34598899,0.594669629 L9.34598899,0.594669629 C6.77744907,1.60859734 5.32221642,5.35434689 2.25084804,11.2729075 L2.25084804,11.2729075 C1.97813928,12.3388997 1.75748799,13.4687685 1.60309208,14.6536431 L1.60309208,14.6536431 L1.76754464,14.6536431 C2.23073472,14.6536431 2.36146899,14.6489557 2.89446275,14.6489557 L2.89446275,14.6489557 L2.92167386,14.6489557 L3.00094244,14.6489557 L3.02815473,14.6489557 L3.03586539,14.6489557 L3.0630765,14.6489557 L3.0784568,14.6489557 L3.08910875,14.6489557 L3.11040446,14.6489557 L3.17665985,14.6489557 L3.24291405,14.6489557 L3.29851983,14.6489557 L3.31328608,14.6489557 L3.41089267,14.6489557 L3.41089267,14.6489557 C3.44756867,14.6442684 3.48542939,14.6442684 3.52388071,14.6413389 L3.52388071,14.6413389 L3.53098202,14.6413389 L3.53098202,14.6413389 C3.54697753,14.6413389 3.56292616,14.6366515 3.57830646,14.6366515 L3.57830646,14.6366515 L3.58952089,14.6366515 L3.58952089,14.6366515 C3.6066519,14.6366515 3.62619689,14.6319642 3.64512667,14.629972 L3.64512667,14.629972 C6.046261,9.47277419 8.64911216,5.36911198 11.2419078,2.90112813 L11.2419078,2.90112813 C11.527038,2.25515569 11.8080316,1.76179095 12.1156493,1.38853899 L12.1156493,1.38853899 C11.9358082,1.08448372 11.7388232,0.830114132 11.5187649,0.645503705 L11.5187649,0.645503705 C11.5187649,0.645503705 11.5127885,0.645503705 11.5123198,0.640816377 L11.5123198,0.640816377 C11.499875,0.635660316 11.488098,0.629449606 11.4756532,0.623309204 L11.4756532,0.623309204 C11.4631966,0.616629762 11.4525564,0.611473701 11.4395842,0.60485285 L11.4395842,0.60485285 C11.4283346,0.600165521 11.4153155,0.593954811 11.4040894,0.587814411 L11.4040894,0.587814411 C11.388715,0.583127083 11.3762701,0.576447639 11.3626886,0.570295522 L11.3626886,0.570295522 C11.351439,0.565608192 11.3413847,0.560803681 11.3301234,0.556104635 L11.3301234,0.556104635 C11.3070265,0.547081527 11.2839883,0.537648279 11.2620985,0.527711144 L11.2620985,0.527711144 C11.2520207,0.523023814 11.2425992,0.520562968 11.2330839,0.516813106 L11.2330839,0.516813106 C11.2171353,0.511071127 11.1987727,0.503559684 11.1822147,0.496458382 L11.1822147,0.496458382 C11.1738947,0.491771054 11.1644615,0.490833587 11.1550048,0.487435274 L11.1550048,0.487435274 C11.1307713,0.479349634 11.1070886,0.470877288 11.0846011,0.463295534 L11.0846011,0.463295534 L11.0787419,0.463295534 L11.0787419,0.463295534 C11.0515203,0.454272427 11.024908,0.44768673 10.9971004,0.440104977 L10.9971004,0.440104977 C10.9906553,0.435417648 10.9852649,0.435417648 10.9787847,0.434480183 L10.9787847,0.434480183 C10.9545043,0.427800739 10.9332121,0.421226761 10.9101622,0.415074644 L10.9101622,0.415074644 C10.904303,0.415074644 10.8989126,0.410387314 10.8942135,0.410387314 L10.8942135,0.410387314 C10.8386101,0.395715978 10.7812255,0.383892191 10.723255,0.373005871 L10.723255,0.373005871 C10.7172786,0.373005871 10.7114312,0.368318543 10.7055134,0.368318543 L10.7055134,0.368318543 C10.6806706,0.363631215 10.6564136,0.359295435 10.6315708,0.35648304 L10.6315708,0.35648304 C10.6255945,0.35179571 10.622079,0.35179571 10.6168057,0.35179571 L10.6168057,0.35179571 C10.5872287,0.347108382 10.5582376,0.343710069 10.5292464,0.340428939 L10.5292464,0.340428939 L10.513872,0.340428939 L10.513872,0.340428939 C10.4902127,0.335741611 10.4683463,0.335272878 10.4464331,0.332812031 L10.4464331,0.332812031 C10.4091454,0.337499359 10.373674,0.339491473 10.3387651,0.342772604" id="Path" fill="url(#linearGradient-12)"></path>
                    <path d="M27.8150119,3.84732395 C27.2240452,5.74031322 26.7454689,7.30202556 26.3290232,8.58689257 L26.3290232,8.58689257 C27.9504757,6.35553678 29.5476827,3.54856536 31.0686036,0.309246487 L31.0686036,0.309246487 C29.2944968,0.866440927 28.3480079,2.14188641 27.8150119,3.84732395" id="Path" fill="url(#linearGradient-13)"></path>
                    <path d="M26.3804784,13.8162636 C26.2976651,13.8583792 26.2148517,13.8984676 26.1332102,13.9345717 C29.2873954,12.5278459 33.0497029,6.94827289 34.8510198,0.0016288466 L34.4860059,0.0016288466 C30.3474699,7.39430734 29.0164678,12.3432823 26.3804784,13.8162636" id="Path" fill="url(#linearGradient-14)"></path>
                    <path d="M24.3208429,13.1951691 C25.0070443,12.3575318 25.5660434,10.9336738 26.3291991,8.58693945 C25.4489189,9.79608266 24.5628146,10.8354743 23.6760424,11.6831542 C23.6760424,11.6878415 23.6760424,11.6878415 23.6713551,11.6907711 C23.8648245,12.2704999 24.0771605,12.7821686 24.319132,13.1950754" id="Path" fill="#079AE1"></path>
                    <path d="M24.3208429,13.1951691 C24.0871562,13.480311 23.8399231,13.6974281 23.5648238,13.8583323 C23.5044861,13.8933584 23.4435861,13.9263455 23.3814437,13.9565319 C23.6719292,14.1132761 23.9889567,14.2180028 24.3438811,14.2599778 L24.3438811,14.2599778 C24.3958987,14.2651338 24.4473891,14.2699384 24.5012465,14.2736999 L24.5107383,14.2736999 C24.534878,14.2736999 24.5604357,14.2736999 24.5864621,14.2783873 L24.5968914,14.2783873 L24.6744081,14.2783873 L24.7578425,14.2783873 L24.7838806,14.2783873 L24.8430347,14.2783873 C24.8525267,14.2783873 24.8624285,14.2783873 24.8718969,14.2736999 C24.8903533,14.2736999 24.9097588,14.2736999 24.928684,14.2690126 L24.9353634,14.2690126 L24.9566556,14.2690126 C24.9760611,14.2690126 24.9973533,14.2643253 25.0181767,14.2623332 L25.0228642,14.2623332 C25.0290748,14.2623332 25.035637,14.2576458 25.0417892,14.2576458 C25.0635618,14.2529585 25.0862837,14.2509664 25.1074821,14.2476853 L25.1268877,14.2476853 C25.1510157,14.2429979 25.175964,14.2400684 25.2008068,14.235381 L25.2054942,14.235381 L25.2126424,14.235381 C25.2623397,14.2258892 25.3108419,14.2164559 25.3599182,14.2041517 C24.9529292,14.0550712 24.6121956,13.7036857 24.3187805,13.2032313" id="Path" fill="#1969BC"></path>
                    <path d="M18.5057317,14.2783873 C18.8009397,14.2783873 19.0990889,14.249525 19.3984099,14.1920232 C19.675267,14.1417634 19.9526865,14.0648091 20.2307154,13.9677932 C20.4620351,14.0808047 20.7045691,14.1648133 20.9613058,14.2168661 C21.1606462,14.2575638 21.3676854,14.2783873 21.5848143,14.2783873 L18.5057317,14.2783873 L18.5057317,14.2783873 Z" id="Path" fill="#1E5CB3"></path>
                    <path d="M21.5848611,14.2783873 C22.3136586,14.2783873 22.8910203,14.1920232 23.3814437,13.9565787 C23.6718823,14.113323 23.9889567,14.2180496 24.3438811,14.2600715 L24.3438811,14.2600715 C24.3959456,14.2652276 24.447436,14.2700321 24.5012465,14.2737937 L24.5107383,14.2737937 C24.534878,14.2737937 24.5604357,14.2737937 24.5864621,14.278481 L24.5973602,14.278481 L24.6748769,14.278481 L21.5827752,14.278481 L21.5848611,14.2783873 Z" id="Path" fill="#1E5CB3"></path>
                    <path d="M24.6767167,14.2783873 L24.7607252,14.2783873 L24.7867516,14.2783873 L24.8453433,14.2783873 C24.8553039,14.2783873 24.8647371,14.2783873 24.8742055,14.2736999 C24.8926619,14.2736999 24.9120674,14.2736999 24.9316135,14.2690126 L24.9378243,14.2690126 L24.9595969,14.2690126 C24.9789907,14.2690126 25.0002946,14.2643253 25.0205439,14.2624503 L25.0257,14.2624503 C25.0319106,14.2624503 25.0380042,14.257763 25.0441564,14.257763 C25.0659289,14.2530757 25.0886508,14.2512008 25.1098023,14.2478024 C25.1169505,14.2478024 25.1225753,14.2478024 25.1301453,14.2431151 C25.154285,14.2384278 25.1792685,14.2359669 25.204123,14.2312913 L25.2088104,14.2312913 L25.2159586,14.2312913 C25.265656,14.2217995 25.3141581,14.2123545 25.3632344,14.2000503 L25.3632344,14.2000503 C25.5057761,14.2526773 25.6542824,14.2793247 25.8145656,14.2793247 L24.6775956,14.2840121 L24.6767167,14.2783873 Z" id="Path" fill="#1D60B5"></path>
                    <path d="M23.6732534,11.6908648 L23.6732534,11.6861775 C23.3485036,11.9967247 23.024328,12.2812924 22.7007265,12.5385916 C22.5315373,12.6728953 22.3629693,12.8000625 22.1926083,12.9201753 C22.33515,13.0905362 22.4801057,13.2502569 22.6327251,13.3957868 C22.8646189,13.6205324 23.1124497,13.8098771 23.3828148,13.9559694 C23.4443359,13.9256775 23.5058572,13.8926436 23.5655854,13.8577699 C23.8412472,13.6968656 24.0885272,13.4797837 24.322214,13.1946535 C24.0802423,12.7817468 23.8678947,12.2700194 23.6744369,11.6903024" id="Path" fill="#175FAB"></path>
                    <path d="M33.3301107,0.0016288466 L31.7956082,0.0016288466 L31.6429772,0.0016288466 L31.6429772,0.0016288466 L31.4986426,0.0016288466 L31.4986426,0.0016288466 L31.4930178,0.0016288466 C31.3936347,0.00631617495 31.2972398,0.009714488 31.2019698,0.0158314514 L31.2019698,0.0158314514 C31.1570184,0.11228495 31.1108716,0.208726731 31.0664826,0.30574271 L31.0664826,0.30574271 C29.5456086,3.54506158 27.9484015,6.352033 26.3269491,8.58338878 L26.3269491,8.58338878 C25.5644264,10.9300763 25.0048179,12.3539812 24.3186048,13.1916302 L24.3186048,13.1916302 C24.6120198,13.6920845 24.953351,14.0440326 25.3591565,14.193113 L25.3591565,14.193113 C25.370992,14.1884257 25.3804487,14.1884257 25.3911006,14.1859649 L25.3911006,14.1859649 L25.3976628,14.1859649 L25.3976628,14.1859649 C25.404811,14.1859649 25.4124279,14.1812775 25.4201504,14.1812775 L25.4201504,14.1812775 C25.4367084,14.1765902 25.4544616,14.1736606 25.4710196,14.1685046 L25.4710196,14.1685046 C25.4816832,14.1638172 25.4905189,14.1633485 25.5012176,14.1599502 L25.5012176,14.1599502 C25.5165921,14.1552629 25.5325407,14.1518646 25.5467433,14.1481147 L25.5467433,14.1481147 C25.5562352,14.1434274 25.5656685,14.141904 25.5751368,14.1400291 L25.5751368,14.1400291 C25.5987962,14.1324121 25.6200884,14.1267756 25.6425758,14.1196743 L25.6425758,14.1196743 C25.6532394,14.114987 25.6644891,14.1111199 25.6763128,14.1083076 L25.6763128,14.1083076 C25.6893318,14.1036202 25.7023392,14.1002219 25.7141747,14.0945854 L25.7141747,14.0945854 C25.7278031,14.0898981 25.7413847,14.0874372 25.7532201,14.0822812 L25.7532201,14.0822812 C25.7638838,14.0775938 25.7750865,14.0746643 25.7851643,14.0704457 L25.7851643,14.0704457 C25.8117532,14.0609538 25.8378148,14.0529385 25.8644271,14.0425209 L25.8644271,14.0425209 C25.8715752,14.0425209 25.8786297,14.0359586 25.8863403,14.0344353 L25.8863403,14.0344353 C25.9022889,14.0277558 25.9188586,14.0225998 25.9348542,14.0154985 L25.9348542,14.0154985 C25.9407133,14.0108111 25.9478615,14.0103424 25.9555253,14.0078815 L25.9555253,14.0078815 C26.0111404,13.984691 26.0685133,13.9610317 26.1258979,13.9351459 L26.1258979,13.9351459 L26.1318742,13.9351459 L26.1318742,13.9351459 C26.2135041,13.8991824 26.2963292,13.8588128 26.3785567,13.8168378 L26.3785567,13.8168378 C29.015132,12.3438565 30.3461575,7.39488153 34.4846933,0.00220304432 L34.4846933,0.00220304432 L33.3287865,0.00220304432 L33.3301107,0.0016288466 Z" id="Path" fill="url(#linearGradient-15)"></path>
                    <path d="M10.4434449,0.326472419 C10.4500072,0.326472419 10.4558897,0.326472419 10.46237,0.331159747 C10.4783186,0.331159747 10.4943141,0.331159747 10.5102862,0.336315809 L10.5262817,0.336315809 C10.5552494,0.341003136 10.5842522,0.343463984 10.6138293,0.34768258 C10.6192197,0.34768258 10.623907,0.34768258 10.6285944,0.352369908 C10.6528279,0.357057237 10.6776941,0.360924282 10.702537,0.364674145 C10.7079274,0.364674145 10.7149935,0.369361474 10.7208996,0.369361474 C10.7776983,0.380728245 10.8356688,0.392552031 10.8912722,0.407223369 C10.8965455,0.407223369 10.9019359,0.411910697 10.9066584,0.411910697 C10.9303177,0.417535491 10.9516099,0.424683667 10.9752692,0.431304518 C10.9824173,0.431304518 10.9876672,0.435991846 10.994206,0.437046495 C11.0220253,0.44419467 11.0480399,0.451249099 11.0752499,0.460237052 C11.0764217,0.460237052 11.0780623,0.460237052 11.0812262,0.464924381 C11.1042644,0.471955373 11.1279355,0.481013634 11.1522041,0.489052403 C11.1616959,0.493739731 11.1705198,0.495731845 11.179414,0.498075511 C11.1959837,0.505223686 11.2143463,0.512266396 11.230295,0.518898966 C11.2397868,0.518898966 11.2492201,0.525461226 11.2592509,0.528859539 C11.2811173,0.538820112 11.3042142,0.547784627 11.3266899,0.55725303 C11.3385254,0.561940358 11.3485563,0.567213603 11.3598176,0.571443917 C11.3728366,0.578123359 11.3864182,0.584228605 11.4006208,0.588962806 C11.4124446,0.594587601 11.4254636,0.600786592 11.4366781,0.605989526 C11.4491229,0.61266897 11.4609115,0.617825031 11.4727822,0.624445882 C11.7661972,0.768792159 12.0365389,0.961066367 12.2867719,1.19414377 C12.3790537,1.09712779 12.475472,1.01014269 12.5754528,0.932063523 C12.028254,0.543999609 11.408308,0.322757712 10.6931154,0.322757712 C10.6102903,0.322757712 10.527477,0.32744504 10.44348,0.33365575" id="Path" fill="#7DCBEC"></path>
                    <path d="M12.286854,1.1872534 C12.440071,1.32979505 12.5867726,1.48895329 12.7257871,1.6605095 C12.8600673,1.56704417 12.9931757,1.47711778 13.1268701,1.39312086 C12.9517632,1.21801399 12.7671996,1.06066038 12.5749372,0.92517315 C12.4749682,1.00268984 12.3791357,1.09023742 12.286854,1.1872534" id="Path" fill="#5EC5ED"></path>
                    <path d="M10.4433041,0.909059476 C10.5273054,0.916158172 10.6101235,0.919115961 10.6929416,0.919115961 C11.4081351,0.919115961 12.0280878,0.697873299 12.5752789,0.310402859 C13.1526394,0.765902459 13.8506778,0.92503154 14.8202411,0.92503154 L10.125046,0.92503154 C10.2333011,0.92503154 10.3391899,0.918524404 10.4433041,0.909059476" id="Path" fill="url(#linearGradient-16)" transform="translate(12.472644, 0.617717) scale(-1, 1) rotate(-180.000000) translate(-12.472644, -0.617717) "></path>
                    <path d="M14.8202411,1.39295401 C13.8506778,1.39295401 13.1526394,1.23382493 12.5752789,0.778325327 C12.7669436,0.642858563 12.9515097,0.485504157 13.1266109,0.310403011 C13.9305381,0.821509056 14.7267751,1.15988019 15.5117724,1.30776967 C15.8111008,1.36396767 16.1098374,1.39295401 16.4044334,1.39295401 L14.8202411,1.39295401 L14.8202411,1.39295401 Z" id="Path" fill="url(#linearGradient-17)" transform="translate(14.489856, 0.851679) scale(-1, 1) rotate(-180.000000) translate(-14.489856, -0.851679) "></path>
                    <path d="M26.3290232,8.58807612 C26.7460666,7.30202556 27.2234476,5.74093429 27.8155977,3.84732395 C28.3491916,2.14127705 29.2939108,0.865878447 31.0679825,0.309246487 C31.1148441,0.213976539 31.1590925,0.11577701 31.204665,0.0193352294 C28.3125132,0.19268435 26.9608049,1.66386094 26.2805095,3.84260147 C25.090889,7.64630983 24.3703646,10.1119266 23.6764759,11.6831073 C24.562627,10.8359899 25.4487783,9.7960358 26.3290232,8.58807612" id="Path" fill="url(#linearGradient-18)"></path>
                </g>
            </g>
        </g>
    </g>
</svg>