<?xml version="1.0" encoding="UTF-8"?>
<svg width="42px" height="42px" viewBox="0 0 42 42" version="1.1" xmlns="http://www.w3.org/2000/svg" xmlns:xlink="http://www.w3.org/1999/xlink">
    <!-- Generator: Sketch 64 (93537) - https://sketch.com -->
    <title>nextcloud</title>
    <desc>Created with Sketch.</desc>
    <g id="Page-1" stroke="none" stroke-width="1" fill="none" fill-rule="evenodd">
        <g id="nextcloud">
            <rect id="rect4145" fill="#0082C9" x="0" y="0" width="42" height="42" rx="10"></rect>
            <path d="M21.0091878,13.776 C17.7037172,13.776 14.9020544,16.0168907 14.0337281,19.0530462 C13.27906,17.442623 11.6436696,16.3143879 9.75998234,16.3143879 C7.16947123,16.3143879 5.04,18.4438583 5.04,21.0343679 C5.04,23.6248792 7.16947123,25.7553225 9.75998234,25.7553225 C11.6436696,25.7553225 13.27906,24.6263944 14.0337281,23.015691 C14.9020544,26.052076 17.7037172,28.2937118 21.0091878,28.2937118 C24.2902126,28.2937118 27.077588,26.0858826 27.9681241,23.0837445 C28.7367375,24.657886 30.3518878,25.7553225 32.208817,25.7553225 C34.79933,25.7553225 36.9297716,23.6248792 36.9297716,21.0343679 C36.9297716,18.4438583 34.79933,16.3143879 32.208817,16.3143879 C30.3518878,16.3143879 28.7367375,17.4111343 27.9681241,18.984992 C27.077588,15.9830891 24.2902126,13.776 21.0091878,13.776 L21.0091878,13.776 Z M21.0091878,16.5467405 C23.504443,16.5467405 25.4977916,18.53912 25.4977916,21.0343679 C25.4977916,23.5296165 23.504443,25.5229701 21.0091878,25.5229701 C18.5139442,25.5229701 16.5215639,23.5296165 16.5215639,21.0343679 C16.5215639,18.53912 18.5139442,16.5467405 21.0091878,16.5467405 L21.0091878,16.5467405 Z M9.75998234,19.0851284 C10.8532084,19.0851284 11.7101947,19.9411419 11.7101947,21.0343679 C11.7101947,22.1275943 10.8532084,22.9845808 9.75998234,22.9845808 C8.66675326,22.9845808 7.81073933,22.1275943 7.81073933,21.0343679 C7.81073933,19.9411419 8.66675326,19.0851284 9.75998234,19.0851284 L9.75998234,19.0851284 Z M32.208817,19.0851284 C33.3020485,19.0851284 34.1590282,19.9411419 34.1590282,21.0343679 C34.1590282,22.1275943 33.3020434,22.9845808 32.208817,22.9845808 C31.1155923,22.9845808 30.2595802,22.1275943 30.2595802,21.0343679 C30.2595802,19.9411419 31.115599,19.0851284 32.208817,19.0851284 L32.208817,19.0851284 Z" id="XMLID_107_" fill="#FFFFFF" fill-rule="nonzero"></path>
        </g>
    </g>
</svg>