<?xml version="1.0" encoding="UTF-8"?>
<svg width="42px" height="42px" viewBox="0 0 42 42" version="1.1" xmlns="http://www.w3.org/2000/svg" xmlns:xlink="http://www.w3.org/1999/xlink">
    <!-- Generator: Sketch 64 (93537) - https://sketch.com -->
    <title>plesk</title>
    <desc>Created with Sketch.</desc>
    <g id="Page-1" stroke="none" stroke-width="1" fill="none" fill-rule="evenodd">
        <g id="plesk">
            <path d="M10,41.9958 L32,41.9958 C37.5228475,41.9958 42,37.5186475 42,31.9958 L42,10 C42,4.4771525 37.5228475,-2.79088747e-15 32,0 L10,0 C4.4771525,1.01453063e-15 -6.76353751e-16,4.4771525 0,10 L0,31.9958 C-1.77628323e-15,37.5186475 4.4771525,41.9958 10,41.9958 Z" id="Fill-1" fill="#303F49"></path>
            <path d="M10.98832,20.44259 C10.98832,19.6987 10.78063,19.09789 10.36595,18.6403 C9.95106,18.18292 9.3674,17.95395 8.61483,17.95395 C8.37515,17.95395 8.14016,17.96907 7.90937,17.99882 C7.6783,18.02892 7.45171,18.08219 7.22939,18.15919 L7.22939,22.70051 C7.4347,22.76911 7.64624,22.827 7.8645,22.87376 C8.08248,22.92101 8.29402,22.94425 8.49933,22.94425 C9.26044,22.94425 9.86559,22.72844 10.31457,22.2964 C10.76355,21.86485 10.98832,21.24668 10.98832,20.44259 Z M7.22939,26.84423 L6.34403,26.84423 L6.34403,17.53059 C7.08827,17.29973 7.81935,17.18416 8.53776,17.18416 C9.0594,17.18416 9.53407,17.26564 9.96191,17.4279 C10.38933,17.59044 10.75501,17.81724 11.05874,18.10788 C11.36219,18.3988 11.59536,18.74509 11.7579,19.14696 C11.92023,19.54904 12.00164,19.98528 12.00164,20.45554 C12.00164,21.0287 11.90329,21.52024 11.70666,21.93093 C11.50968,22.34141 11.25117,22.6793 10.9305,22.94425 C10.60976,23.20955 10.24401,23.40436 9.83353,23.52798 C9.42298,23.65209 9.00389,23.71404 8.57633,23.71404 C8.3454,23.71404 8.1186,23.69668 7.89642,23.66266 C7.67396,23.62864 7.45171,23.58146 7.22939,23.52161 L7.22939,26.84423 L7.22939,26.84423 Z" id="Fill-3" fill="#FFFFFE"></path>
            <polygon id="Fill-4" fill="#FFFFFE" points="13.79756 23.66266 14.69545 23.66266 14.69545 14.68264 13.79756 14.68264"></polygon>
            <path d="M21.31514,19.8142 C21.31514,19.54904 21.27419,19.30089 21.19313,19.0701 C21.11151,18.83917 20.99629,18.64247 20.84677,18.48 C20.69697,18.3176 20.50223,18.18705 20.26297,18.0887 C20.0235,17.99049 19.74546,17.94121 19.42906,17.94121 C19.10398,17.94121 18.82398,17.99049 18.58892,18.0887 C18.35351,18.18705 18.16759,18.31319 18.03081,18.46705 C17.89389,18.62098 17.76782,18.81565 17.65239,19.05071 C17.53675,19.28612 17.46185,19.5405 17.42783,19.8142 L21.31514,19.8142 Z M22.03355,22.7262 C21.73381,23.05149 21.38759,23.29712 20.99433,23.46372 C20.60072,23.63074 20.12619,23.71404 19.57032,23.71404 C19.05729,23.71404 18.60803,23.6264 18.22324,23.45098 C17.83845,23.27591 17.51778,23.03854 17.26109,22.73894 C17.0044,22.43983 16.81204,22.09767 16.68373,21.71281 C16.55549,21.32802 16.49137,20.92188 16.49137,20.49411 C16.49137,19.92956 16.56837,19.44012 16.7223,19.02516 C16.87616,18.61055 17.0856,18.26615 17.35083,17.99245 C17.61599,17.71889 17.92364,17.51589 18.27462,17.38303 C18.62504,17.25059 18.99723,17.18416 19.39056,17.18416 C20.3315,17.18416 21.04109,17.47277 21.52017,18.05027 C21.99883,18.62749 22.22997,19.4677 22.21303,20.57104 L17.40221,20.57104 C17.42783,21.2982 17.63734,21.87542 18.03081,22.30298 C18.42407,22.73082 18.9588,22.94425 19.63451,22.94425 C20.01069,22.94425 20.35285,22.88251 20.66064,22.75826 C20.96857,22.63443 21.24626,22.43563 21.49448,22.16172 L22.03355,22.7262 L22.03355,22.7262 Z" id="Fill-5" fill="#FFFFFE"></path>
            <path d="M28.09009,18.7621 C27.86609,18.48 27.62431,18.27273 27.36419,18.14001 C27.10407,18.0075 26.79502,17.94121 26.43704,17.94121 C25.98008,17.94121 25.65976,18.02255 25.47622,18.18474 C25.29247,18.34742 25.20084,18.55273 25.20084,18.80053 C25.20084,18.97182 25.24305,19.11721 25.32852,19.23684 C25.41364,19.35675 25.52536,19.45937 25.66438,19.54463 C25.80312,19.63024 25.96468,19.70514 26.14829,19.76905 C26.33183,19.83324 26.52216,19.89561 26.71942,19.95532 C26.96113,20.03218 27.20312,20.11562 27.44476,20.20543 C27.68703,20.29517 27.90858,20.41284 28.11032,20.55816 C28.31164,20.70369 28.47523,20.88107 28.60081,21.09051 C28.72597,21.30023 28.78876,21.56322 28.78876,21.87941 C28.78876,22.1704 28.72597,22.43122 28.60081,22.66208 C28.47523,22.89308 28.30506,23.08754 28.09009,23.24567 C27.87505,23.40436 27.62172,23.52385 27.33059,23.60491 C27.03946,23.68611 26.72775,23.72692 26.39651,23.72692 C25.88614,23.72692 25.43352,23.64334 25.03949,23.47681 C24.64518,23.30993 24.27362,23.03392 23.92411,22.64927 L24.62278,22.03348 C25.08863,22.63233 25.69329,22.93165 26.43704,22.93165 C26.92074,22.93165 27.27921,22.84156 27.51189,22.66208 C27.74485,22.48239 27.86147,22.26434 27.86147,22.00779 C27.86147,21.81123 27.81891,21.64659 27.73393,21.51387 C27.64846,21.38143 27.53233,21.26803 27.38435,21.17395 C27.23665,21.0798 27.06669,21.00084 26.8737,20.93665 C26.68085,20.87246 26.47778,20.81058 26.26246,20.75066 C26.02019,20.68227 25.78058,20.6052 25.54349,20.51966 C25.30584,20.43433 25.09311,20.32527 24.9053,20.19248 C24.71686,20.06004 24.56251,19.89113 24.44148,19.68582 C24.32038,19.48044 24.26011,19.21976 24.26011,18.90322 C24.26011,18.33888 24.46598,17.90264 24.87807,17.59478 C25.28995,17.28671 25.82335,17.13292 26.47778,17.13292 C26.94314,17.13292 27.35761,17.20985 27.72063,17.36378 C28.08344,17.51778 28.43057,17.78714 28.76188,18.17207 L28.10332,18.77498 L28.09009,18.7621" id="Fill-6" fill="#FFFFFE"></path>
            <path d="M31.37246,20.35299 L34.45148,17.24828 L35.65737,17.24828 L32.50163,20.3273 L35.64463,23.66266 L34.4001,23.66266 L31.37246,20.35299 Z M30.47464,23.66266 L31.37246,23.66266 L31.37246,14.69545 L30.47464,14.69545 L30.47464,23.66266 Z" id="Fill-7" fill="#FFFFFE"></path>
            <polygon id="Fill-8" fill="#4BB6D5" points="11.51829 26.84423 16.9218 26.84423 16.9218 25.9994 11.51829 25.9994"></polygon>
        </g>
    </g>
</svg>