<?xml version="1.0" encoding="UTF-8"?>
<svg width="42px" height="42px" viewBox="0 0 42 42" version="1.1" xmlns="http://www.w3.org/2000/svg" xmlns:xlink="http://www.w3.org/1999/xlink">
    <!-- Generator: Sketch 64 (93537) - https://sketch.com -->
    <title>qnap</title>
    <desc>Created with Sketch.</desc>
    <g id="Page-1" stroke="none" stroke-width="1" fill="none" fill-rule="evenodd">
        <g id="qnap">
            <g id="Group-5-Copy-2" fill="#797E85">
                <g id="Group-4">
                    <g id="Group-3-Copy">
                        <g id="Group-2-Copy-2">
                            <rect id="Rectangle" transform="translate(21.000000, 21.000000) rotate(-180.000000) translate(-21.000000, -21.000000) " x="0" y="-1.0658141e-14" width="42" height="42" rx="10"></rect>
                        </g>
                    </g>
                </g>
            </g>
            <g id="Qnap_Logo_2004" transform="translate(2.500000, 18.000000)" fill="#FFFFFF" fill-rule="nonzero">
                <g id="qnap-logo-black">
                    <g id="Group" transform="translate(9.423077, 0.269231)">
                        <path d="M18.2269231,6.48846154 L15.75,6.48846154 L15.75,4.76538462 L12.25,4.76538462 L12.25,6.48846154 L9.77307692,6.48846154 L9.77307692,1.4 C9.77307692,0.969230769 9.93461538,0.619230769 10.2576923,0.35 C10.5807692,0.107692308 11.0384615,0 11.6307692,0 L16.3692308,0 C16.9615385,0 17.4192308,0.134615385 17.7423077,0.376923077 C18.0653846,0.619230769 18.2269231,0.969230769 18.2269231,1.42692308 L18.2269231,6.48846154 Z M15.75,3.58076923 L15.75,1.69615385 L12.25,1.69615385 L12.25,3.58076923 L15.75,3.58076923 Z" id="Shape"></path>
                        <path d="M27.1384615,0.323076923 C26.8961538,0.134615385 26.4923077,0.0269230769 25.9807692,5.97812398e-17 L25.9807692,5.97812398e-17 L25.8730769,5.97812398e-17 C25.8461538,5.97812398e-17 25.8192308,5.97812398e-17 25.8192308,5.97812398e-17 L21.4038462,5.97812398e-17 L21.4038462,5.97812398e-17 L21.2692308,5.97812398e-17 C20.6769231,5.97812398e-17 20.2192308,0.134615385 19.8961538,0.376923077 C19.5730769,0.619230769 19.4115385,0.969230769 19.4115385,1.37307692 L19.4115385,1.37307692 L19.4115385,1.4 C19.4115385,1.4 19.4115385,1.4 19.4115385,1.42692308 L19.4115385,1.42692308 L19.4115385,6.51538462 L21.8884615,6.51538462 L21.8884615,4.81923077 L25.9,4.81923077 C27.0038462,4.81923077 27.5423077,4.38846154 27.5423077,3.5 L27.5423077,1.4 C27.5423077,0.888461538 27.4076923,0.538461538 27.1384615,0.323076923 Z M25.0115385,3.36538462 L21.8615385,3.36538462 L21.8615385,1.69615385 L25.0115385,1.69615385 L25.0115385,3.36538462 Z" id="Shape"></path>
                        <path d="M6.65,0 L6.65,0 L6.27307692,0 L6.27307692,3.76923077 C6.24615385,3.79615385 6.21923077,3.85 6.13846154,3.82307692 C6.13846154,3.82307692 6.08461538,3.82307692 6.05769231,3.76923077 C5.65384615,3.15 4.03846154,0.915384615 3.52692308,0.215384615 C3.52692308,0.215384615 3.52692308,0.215384615 3.52692308,0.215384615 L3.52692308,0.215384615 C3.52692308,0.215384615 3.5,0.188461538 3.5,0.188461538 C3.5,0.188461538 3.5,0.188461538 3.5,0.188461538 C3.36538462,0.0807692308 3.20384615,0 2.96153846,0 L0.942307692,0 C0.7,0 0.484615385,0.0807692308 0.35,0.215384615 C0.215384615,0.35 0.134615385,0.538461538 0.134615385,0.780769231 L0.134615385,0.780769231 L0.134615385,6.51538462 L2.47692308,6.51538462 C2.47692308,6.51538462 2.47692308,3.5 2.45,2.61153846 C2.45,2.55769231 2.50384615,2.47692308 2.69230769,2.47692308 C2.69230769,2.47692308 2.77307692,2.47692308 2.8,2.53076923 L2.8,2.53076923 C3.25769231,3.25769231 6.21923077,6.51538462 6.21923077,6.51538462 L8.66923077,6.51538462 L8.66923077,0 L6.65,0 Z" id="Path"></path>
                    </g>
                    <path d="M5.46538462,5.25 C5.43846154,5.22307692 5.38461538,5.19615385 5.35769231,5.16923077 L2.74615385,5.16923077 L2.74615385,1.75 L6.21923077,1.75 L6.21923077,4.65769231 C7.26923077,4.98076923 7.96923077,5.41153846 8.45384615,5.78846154 C8.53461538,5.57307692 8.58846154,5.33076923 8.58846154,5.06153846 L8.58846154,1.91153846 C8.58846154,0.834615385 7.94230769,0.242307692 6.67692308,0.188461538 L6.67692308,0.188461538 L6.46153846,0.188461538 C6.46153846,0.188461538 6.43461538,0.188461538 6.43461538,0.188461538 L6.43461538,0.188461538 L2.28846154,0.188461538 C0.861538462,0.188461538 0.134615385,0.753846154 0.134615385,1.91153846 L0.134615385,5.08846154 C0.134615385,6.24615385 0.861538462,6.81153846 2.28846154,6.81153846 L6.46153846,6.81153846 L6.46153846,6.81153846 C6.67692308,6.81153846 6.89230769,6.78461538 7.08076923,6.75769231 C6.73076923,6.24615385 6.08461538,5.70769231 5.46538462,5.25 Z" id="Path"></path>
                    <path d="M4.65769231,4.46923077 C5.43846154,4.95384615 6.86538462,5.95 7.32307692,6.83846154 L9.1,6.83846154 C8.80384615,6.3 7.78076923,4.98076923 4.65769231,4.46923077 Z" id="Path"></path>
                </g>
            </g>
        </g>
    </g>
</svg>