<?xml version="1.0" encoding="UTF-8"?>
<svg width="43px" height="43px" viewBox="0 0 43 43" version="1.1" xmlns="http://www.w3.org/2000/svg" xmlns:xlink="http://www.w3.org/1999/xlink">
    <!-- Generator: Sketch 64 (93537) - https://sketch.com -->
    <title>iconfinder_Storage__Content_Delivery_AWS_Storage_Gateway_259249</title>
    <desc>Created with Sketch.</desc>
    <g id="Page-1" stroke="none" stroke-width="1" fill="none" fill-rule="evenodd">
        <g id="iconfinder_Storage__Content_Delivery_AWS_Storage_Gateway_259249" transform="translate(21.500000, 21.500000) scale(-1, 1) translate(-21.500000, -21.500000) " fill-rule="nonzero">
            <polygon id="Path" fill="#0046A5" points="21.4542904 31.1799546 39.8415616 37.4165007 39.8415616 11.1054431 21.4542904 14.8571782"></polygon>
            <polygon id="Path" fill="#001D44" points="22.5527342 13.616864 26.6333753 13.8899201 39.8415616 11.1054431 26.7577808 8.94705595 22.6686575 10.2806325"></polygon>
            <polygon id="Path" fill="#4494FF" points="42.5353644 5.7054184 42.5233479 5.70214144 39.8408548 4.76796623 21.4542904 0.168165716 21.4542904 8.34576487 21.4542904 42.0561615 27.7600932 40.8337617 27.7600932 9.07883906 39.8408548 11.1055074 39.8408548 37.456361 42.5233479 36.5228925 42.5233479 11.6665744 42.5353644 11.6683992"></polygon>
            <polygon id="Path" fill="#0046A5" points="10.2330575 35.4730864 21.4542904 42.0567294 21.4542904 0.167597827 10.2330575 6.75173475"></polygon>
            <polygon id="Path" fill="#0046A5" points="6.2937863 33.4406639 0.383819178 30.6618814 0.383819178 11.5620168 6.2937863 8.78413127"></polygon>
            <polygon id="Path" fill="#4494FF" points="10.2330575 33.2766169 6.2937863 33.3643872 6.2937863 8.78413127 10.2330575 8.87263424"></polygon>
        </g>
    </g>
</svg>