<?xml version="1.0" encoding="UTF-8"?>
<svg width="42px" height="42px" viewBox="0 0 42 42" version="1.1" xmlns="http://www.w3.org/2000/svg" xmlns:xlink="http://www.w3.org/1999/xlink">
    <!-- Generator: Sketch 64 (93537) - https://sketch.com -->
    <title>Group 8 Copy</title>
    <desc>Created with Sketch.</desc>
    <g id="Page-1" stroke="none" stroke-width="1" fill="none" fill-rule="evenodd">
        <g id="Group-8-Copy">
            <g id="synology">
                <g id="Group-4">
                    <g id="Group-3-Copy">
                        <g id="Group-2-Copy-2">
                            <g id="Group-9">
                                <rect id="Rectangle" fill="#FFFFFF" transform="translate(21.000000, 21.000000) rotate(-180.000000) translate(-21.000000, -21.000000) " x="0" y="0" width="42" height="42" rx="10"></rect>
                                <path d="M2,21.2341049 L3.32347197,21.1104159 C3.40501507,21.55478 3.5674141,21.8818686 3.81066908,22.0916817 C4.05392405,22.3014949 4.38421941,22.4052562 4.80155515,22.4029656 C5.24065099,22.4029656 5.57186257,22.3088246 5.7965642,22.1246655 C6.02126582,21.9405063 6.12915009,21.7206148 6.12915009,21.4746112 C6.13380267,21.3252122 6.08507937,21.1790423 5.9917179,21.0623146 C5.89757685,20.9523689 5.73471971,20.8527306 5.50177215,20.7737071 C5.34097649,20.7125497 4.97746835,20.6149729 4.41124774,20.4706691 C3.67804702,20.2913201 3.1681736,20.0666184 2.87338156,19.8020615 C2.47422779,19.4592788 2.24645833,18.9579849 2.25081374,18.4318626 C2.2490781,18.0867561 2.35132457,17.7491272 2.54423146,17.4629656 C2.74969104,17.1521976 3.04466657,16.9111371 3.39012658,16.7716817 C3.75707052,16.6184448 4.19891501,16.538047 4.72184448,16.538047 C5.56888487,16.538047 6.20725738,16.7251838 6.63696203,17.0994575 C7.06575045,17.4794575 7.28976492,17.9776492 7.31106691,18.6029656 L5.94086799,18.6490054 C5.88039783,18.305425 5.75877034,18.0559855 5.56499096,17.9020615 C5.37121157,17.7481374 5.0839783,17.6725497 4.70535262,17.6725497 C4.30954792,17.6725497 3.99895118,17.7536347 3.77631103,17.9199277 C3.63788353,18.0128282 3.55610115,18.169664 3.55916817,18.3363472 C3.55856874,18.4979124 3.63357079,18.650459 3.76188065,18.7486438 C3.93229656,18.8970705 4.35146474,19.0475588 5.01457505,19.20217 C5.67768535,19.3567812 6.16831826,19.5237613 6.48509946,19.6928029 C6.79264356,19.8518009 7.05091851,20.0917804 7.2320434,20.3868354 C7.41001808,20.6733816 7.50278481,21.0403255 7.50278481,21.4711754 C7.50272334,21.8593045 7.39005596,22.2390795 7.17844485,22.5644485 C6.95985727,22.9061514 6.64049213,23.1714886 6.2645208,23.3237613 C5.87009042,23.4852441 5.3794575,23.5718264 4.7919349,23.5718264 C3.93641953,23.5718264 3.28018083,23.3718626 2.819783,22.9719349 C2.35938517,22.5720072 2.08933092,21.9934177 2,21.2341049 Z" id="Path" fill="#4A5158" fill-rule="nonzero"></path>
                                <path d="M7.32962025,18.523255 L8.70394213,18.523255 L9.87761302,22.0174684 L11.0210488,18.523255 L12.3603255,18.523255 L10.6424231,23.2550452 L10.3270163,24.1181193 C10.2423481,24.3479095 10.133631,24.5681078 10.0026763,24.7750452 C9.90916139,24.9201604 9.78881814,25.046101 9.64810127,25.1461121 C9.49706778,25.2452122 9.33088456,25.3190199 9.15609403,25.3646293 C8.93971069,25.4215673 8.71672604,25.449527 8.49298373,25.4477758 C8.24583179,25.4468302 7.99951908,25.4189501 7.75840868,25.3646293 L7.65121157,24.342821 C7.83173817,24.3831547 8.01597542,24.4045723 8.20094033,24.4067269 C8.49985533,24.4067269 8.72249548,24.3187703 8.86611212,24.14217 C9.02145226,23.9389035 9.13411116,23.70634 9.19732369,23.4584448 L7.32962025,18.523255 Z" id="Path" fill="#4A5158" fill-rule="nonzero"></path>
                                <path d="M16.8646655,23.4453888 L15.5714286,23.4453888 L15.5714286,20.94 C15.5714286,20.4122604 15.5446293,20.0721157 15.4875949,19.9147559 C15.4376096,19.7672792 15.3411689,19.6399774 15.2127306,19.5519349 C15.0780508,19.4635435 14.9195554,19.4184647 14.7585172,19.4227486 C14.5404961,19.4206318 14.3271428,19.4859097 14.1476311,19.6096564 C13.9724633,19.7245638 13.8416037,19.8956506 13.7765642,20.094792 C13.7078481,20.3009403 13.6762387,20.6733816 13.6762387,21.2244846 L13.6762387,23.4460759 L12.3884991,23.4460759 L12.3884991,18.523255 L13.5841591,18.523255 L13.5841591,19.2440868 C14.0143219,18.6991682 14.5544304,18.4298011 15.2065461,18.4298011 C15.4774293,18.4274385 15.746069,18.4790641 15.9967812,18.5816637 C16.2081042,18.6651776 16.3941858,18.8020162 16.5368897,18.9788427 C16.6587194,19.1405934 16.7455403,19.3259362 16.7918264,19.5230741 C16.8480682,19.811112 16.8724944,20.1044571 16.8646655,20.39783 L16.8646655,23.4453888 Z" id="Path" fill="#4A5158" fill-rule="nonzero"></path>
                                <path d="M16.8722242,20.9324412 C16.8738864,20.4933127 16.9838762,20.0613785 17.1924412,19.6749367 C17.3947014,19.2826301 17.7099365,18.9599748 18.0974322,18.7486438 C18.4986141,18.5336681 18.9479383,18.4244114 19.403038,18.4311754 C20.1488366,18.4311754 20.7583484,18.672598 21.2315732,19.155443 C21.7047981,19.6382881 21.9430139,20.2487161 21.9462206,20.9867269 C21.9462206,21.7309222 21.7050271,22.3452441 21.2253888,22.8365642 C20.7457505,23.3278843 20.1396745,23.5725136 19.4112839,23.5725136 C18.9632672,23.5722162 18.5215437,23.4670215 18.1214828,23.2653526 C17.7234173,23.072243 17.3969162,22.7577722 17.1890054,22.3672333 C16.9787342,21.9750934 16.8731404,21.4968294 16.8722242,20.9324412 Z M18.1963834,21.0011573 C18.1963834,21.4924774 18.3111392,21.8676673 18.5454611,22.122604 C18.761095,22.3721584 19.0746011,22.5155951 19.4044123,22.5155951 C19.7342235,22.5155951 20.0477296,22.3721584 20.2633635,22.122604 C20.4921881,21.8676673 20.6069439,21.4876673 20.6069439,20.9949729 C20.6069439,20.5022785 20.4921881,20.1367089 20.2633635,19.8797107 C20.0467511,19.6318231 19.733607,19.4896033 19.4044123,19.4896033 C19.0752176,19.4896033 18.7620735,19.6318231 18.5454611,19.8797107 C18.3118264,20.1339602 18.1963834,20.5098373 18.1963834,20.9977215 L18.1963834,21.0011573 Z" id="Shape" fill="#4A5158" fill-rule="nonzero"></path>
                                <path d="M23.5369982,16 L23.5369982,22.3541772 C23.5369982,22.6572152 23.5596745,22.8578662 23.6015913,22.9540687 C23.6415604,23.0494575 23.7124832,23.1286103 23.8029295,23.1787703 C23.8943219,23.2296203 24.0640506,23.2557324 24.3086799,23.2557324 L24.3086799,23.4460759 L21.960651,23.4460759 L21.960651,23.2557324 C22.1805425,23.2557324 22.3303436,23.2330561 22.4148644,23.1870163 C22.499449,23.1337402 22.5647186,23.0547423 22.601085,22.9616275 C22.6471248,22.8578662 22.6698011,22.6558409 22.6698011,22.3569259 L22.6698011,18.0181917 C22.6698011,17.4725859 22.6588065,17.1386257 22.635443,17.0128752 C22.6268709,16.9165516 22.5859386,16.8259679 22.5193128,16.755877 C22.4635474,16.7088584 22.3922369,16.684353 22.319349,16.6871609 C22.203441,16.695692 22.0899353,16.7245336 21.9840145,16.7723689 L21.8946835,16.5861483 L23.3019892,16 L23.5369982,16 Z" id="Path" fill="#4A5158" fill-rule="nonzero"></path>
                                <path d="M26.6395298,18.5074503 C27.3679204,18.5074503 27.9506329,18.7823146 28.3917902,19.3320434 C28.7615392,19.790189 28.9598445,20.36299 28.9525136,20.9516817 C28.9481209,21.4031029 28.8426964,21.8478111 28.6439783,22.2531646 C28.2896867,23.0729419 27.4754099,23.5976076 26.5824955,23.5814467 C25.8568535,23.5814467 25.2814708,23.2942134 24.8563472,22.7197468 C24.5011499,22.2499887 24.3112568,21.6759608 24.3162387,21.0870524 C24.3202426,20.6321599 24.4321059,20.1847066 24.6426401,19.7814467 C24.8316649,19.3829319 25.1324823,19.0479742 25.5084629,18.8173599 C25.8513015,18.615511 26.2416856,18.5085468 26.6395298,18.5074503 Z M26.4787342,18.8599638 C26.2813761,18.8615837 26.0883819,18.9182207 25.9214467,19.0235081 C25.7345389,19.1348282 25.5826763,19.3237975 25.4672333,19.5959132 C25.3517902,19.8680289 25.2947559,20.222604 25.2947559,20.654141 C25.2947559,21.3509222 25.4356239,21.9453165 25.7111754,22.4538156 C25.9867269,22.9623146 26.354358,23.2096926 26.8071971,23.2096926 C27.1372415,23.2135772 27.4488903,23.0580087 27.6441591,22.7918987 C27.8645087,22.5133695 27.9746835,22.0346474 27.9746835,21.3557324 C27.9746835,20.5057143 27.7912116,19.8439783 27.4249548,19.3533454 C27.1775769,19.0235081 26.86217,18.8599638 26.4794213,18.8599638 L26.4787342,18.8599638 Z" id="Shape" fill="#4A5158" fill-rule="nonzero"></path>
                                <path d="M30.0031826,21.6883183 C29.5226522,21.4476025 29.1912904,20.9859011 29.1170325,20.4536047 C29.0427745,19.9213084 29.2351248,19.3865466 29.6314286,19.0235081 C29.9882942,18.6822182 30.4464014,18.5111151 31.0057505,18.5101989 C31.4246096,18.498317 31.8372157,18.6138083 32.1890416,18.8414105 L33.1971067,18.8414105 C33.2850726,18.8373636 33.3732233,18.8419668 33.4602893,18.8551537 C33.4806977,18.8655705 33.4981777,18.8809246 33.5111392,18.8998192 C33.5357215,18.9518799 33.5466017,19.0093558 33.5427486,19.0667993 C33.547287,19.1314253 33.5381555,19.1962823 33.5159494,19.2571429 C33.5035024,19.2774997 33.4834826,19.292082 33.4602893,19.2976854 C33.3729565,19.3126896 33.2842059,19.3177611 33.1957324,19.3128029 L32.5711031,19.3128029 C32.7690054,19.564991 32.8665823,19.8872694 32.8665823,20.2789512 C32.8692995,20.716927 32.6823631,21.1346523 32.3539602,21.4244485 C32.0103797,21.7419168 31.5554792,21.9054611 30.9837613,21.9054611 C30.7370864,21.9052836 30.4918976,21.867277 30.256745,21.7927667 C30.1421494,21.8912083 30.0444277,22.0077316 29.9674503,22.1377215 C29.9208713,22.2144947 29.89287,22.301087 29.8856781,22.3905967 C29.8886316,22.4594655 29.9205842,22.5238699 29.9736347,22.5678843 C30.0292948,22.62217 30.1433635,22.6633996 30.3103436,22.6853888 C30.5526451,22.7128233 30.7962606,22.7270457 31.0401085,22.7279928 C31.7561302,22.7506691 32.2213382,22.7774684 32.4309222,22.8138879 C32.7225486,22.8441171 32.9958961,22.9702775 33.2081013,23.1725859 C33.398678,23.3603365 33.5033453,23.6183998 33.497396,23.885859 C33.497396,24.2741049 33.3118626,24.641736 32.9435443,24.9853165 C32.404352,25.4892345 31.6981796,25.7411935 30.8250271,25.7411935 C30.1550452,25.7411935 29.5881374,25.5934539 29.1263653,25.2904159 C28.8652441,25.115877 28.736745,24.9372152 28.736745,24.7475588 C28.7379178,24.6616118 28.7563798,24.5767804 28.7910307,24.4981193 C28.8902498,24.3076626 29.0103234,24.1288198 29.1490416,23.9648825 C29.1724051,23.9318987 29.3483183,23.744991 29.6712839,23.4027848 C29.5305928,23.3232028 29.4023325,23.2234191 29.2905967,23.1066184 C29.2181933,23.0268399 29.1780278,22.9229973 29.1779024,22.8152622 C29.1872097,22.6616577 29.2375142,22.5133545 29.3235805,22.3857866 C29.4225316,22.2194937 29.6492948,21.9851718 30.0031826,21.6883183 Z M29.9598915,23.4453888 C29.8190501,23.5942634 29.6978146,23.7605292 29.599132,23.9401447 C29.5241759,24.0649521 29.482532,24.2069198 29.4781917,24.3524412 C29.4781917,24.5235443 29.5771429,24.6671609 29.778481,24.7915371 C30.1268716,25.004557 30.6305606,25.1151899 31.2902351,25.1151899 C31.9155515,25.1151899 32.3752622,25.004557 32.6748644,24.7846655 C32.9744665,24.564774 33.121519,24.3332007 33.121519,24.0844485 C33.125291,23.9124226 33.0171128,23.7578028 32.8542134,23.702387 C32.6721157,23.625425 32.3141049,23.5807595 31.7746835,23.5697649 C30.9865099,23.5477758 30.3797468,23.501736 29.9598915,23.4453888 Z M30.9150452,18.7726944 C30.6636613,18.7720815 30.4259657,18.8871282 30.2704882,19.0846655 C30.0980108,19.2908137 30.0121157,19.595226 30.0121157,20.0192043 C30.0121157,20.5657263 30.1296203,20.9899337 30.3646293,21.2918264 C30.5246377,21.5107447 30.7806505,21.6387511 31.0517902,21.6354069 C31.3023083,21.6407282 31.5414149,21.5308 31.7004702,21.337179 C31.8701989,21.1399638 31.9540325,20.8321157 31.9540325,20.4122604 C31.9540325,19.8625316 31.836528,19.4303074 31.5980832,19.1197107 C31.4400429,18.9001564 31.1855611,18.7706113 30.9150452,18.7719961 L30.9150452,18.7726944 Z" id="Shape" fill="#4A5158" fill-rule="nonzero"></path>
                                <path d="M33.6925497,18.6476311 L35.9347559,18.6476311 L35.9347559,18.839349 L35.8261844,18.839349 C35.6998073,18.8314 35.5745606,18.8673235 35.4716094,18.9410488 C35.3971866,19.003851 35.3546166,19.0965479 35.3554792,19.1939241 C35.3554792,19.3313562 35.4111392,19.5196383 35.5279566,19.7594575 L36.6961302,22.1844485 L37.7667269,19.5347559 C37.8246265,19.3986769 37.8549881,19.2524738 37.8560579,19.1045931 C37.8582403,19.0560428 37.8452728,19.0080152 37.8189512,18.9671609 C37.7851319,18.9246148 37.7394583,18.8930498 37.6877034,18.8764557 C37.5863299,18.8465064 37.4806127,18.8339597 37.3750452,18.839349 L37.3750452,18.6476311 L38.9252803,18.6476311 L38.9252803,18.839349 C38.8206323,18.845935 38.7185468,18.8745002 38.6256781,18.9231826 C38.5350382,18.985457 38.456943,19.0642515 38.3954792,19.155443 C38.3253039,19.284557 38.2653379,19.4189635 38.2161302,19.5574322 L36.2735262,24.3359494 C36.0838698,24.8018445 35.8364919,25.1502351 35.5293309,25.3879928 C35.22217,25.6257505 34.9273779,25.7411935 34.6428933,25.7411935 C34.4562269,25.7500452 34.2733419,25.68654 34.1323327,25.563906 C34.008179,25.4648193 33.9350358,25.315254 33.9330561,25.1564195 C33.9281072,25.0246123 33.9807856,24.8971808 34.0773599,24.8073418 C34.187312,24.7118739 34.3306496,24.6639299 34.4759132,24.6740325 C34.6393293,24.6846188 34.7998218,24.7224773 34.9507414,24.7860398 C35.0361335,24.8207965 35.1247491,24.8470359 35.2152984,24.8643761 C35.320434,24.8643761 35.4331284,24.8073418 35.5588788,24.7001447 C35.6846293,24.5929476 35.8069439,24.3847378 35.9326944,24.0775769 L36.2714647,23.2426763 L34.5466908,19.6371429 C34.4737959,19.4964655 34.390173,19.3616121 34.2965642,19.2337794 C34.2352836,19.1424006 34.1630532,19.0588625 34.0814828,18.9850271 C33.9606048,18.916201 33.8295542,18.867028 33.6932369,18.839349 L33.6925497,18.6476311 Z" id="Path" fill="#4A5158" fill-rule="nonzero"></path>
                                <path d="M38.9163472,18.3669738 L38.9163472,17.3674688 L39.4188062,17.3674688 C39.4980926,17.3644359 39.5772669,17.3753628 39.6515931,17.3995958 C39.7038899,17.4163397 39.7481077,17.4480568 39.7770029,17.4895512 C39.8078254,17.5351989 39.8239644,17.5872344 39.8237242,17.6401909 C39.8266739,17.707114 39.7968826,17.7719842 39.741757,17.8186739 C39.6774796,17.8745292 39.5921797,17.908254 39.5015931,17.9136269 C39.5341123,17.9260475 39.5644642,17.94239 39.591757,17.9621743 C39.6399973,18.0012458 39.6821587,18.0456487 39.7171669,18.0942517 L39.9163472,18.3669738 L39.7286423,18.3669738 L39.5786423,18.1599335 C39.53438,18.1035328 39.4966751,18.0549855 39.4696259,18.0235724 C39.4473015,17.9974099 39.4217376,17.9734679 39.3933964,17.9521792 C39.3720643,17.9418167 39.3491613,17.9341257 39.3253636,17.9293334 C39.298438,17.924324 39.2709162,17.9221666 39.2433964,17.922908 L39.0712652,17.922908 L39.0712652,18.3669738 L38.9163472,18.3669738 Z M39.0671669,17.8122485 L39.389298,17.8122485 C39.4450409,17.8163379 39.5011188,17.8092555 39.5532324,17.7915445 C39.5882916,17.781322 39.6175877,17.7598878 39.6351997,17.7315742 C39.6562005,17.7046591 39.6670844,17.6727269 39.6663472,17.6401909 C39.6679237,17.5962299 39.6461517,17.5540891 39.6073308,17.5259618 C39.5546474,17.4922168 39.4897119,17.4762384 39.4245439,17.480984 L39.0630685,17.480984 L39.0671669,17.8122485 Z" id="Shape" fill="#4A5158" fill-rule="nonzero"></path>
                                <path d="M39.9848825,17.8134177 C39.9848825,18.0944681 39.8155449,18.3478315 39.5558615,18.4553205 C39.2961782,18.5628095 38.997313,18.5032462 38.7986787,18.3044153 C38.6000444,18.1055843 38.5407769,17.8066603 38.6485229,17.5470835 C38.7562688,17.2875067 39.0097997,17.11842 39.2908499,17.1186977 C39.6734833,17.1209531 39.983006,17.4307823 39.9848825,17.8134177 Z" id="Path" stroke="#495057"></path>
                            </g>
                        </g>
                    </g>
                </g>
            </g>
        </g>
    </g>
</svg>