<?xml version="1.0" encoding="UTF-8"?>
<svg width="42px" height="42px" viewBox="0 0 42 42" version="1.1" xmlns="http://www.w3.org/2000/svg" xmlns:xlink="http://www.w3.org/1999/xlink">
    <!-- Generator: Sketch 64 (93537) - https://sketch.com -->
    <title>utropic-media</title>
    <desc>Created with Sketch.</desc>
    <defs>
        <linearGradient x1="50%" y1="0%" x2="50%" y2="100%" id="linearGradient-1">
            <stop stop-color="#B5BFCB" offset="0%"></stop>
            <stop stop-color="#7E8B9C" offset="100%"></stop>
        </linearGradient>
    </defs>
    <g id="Page-1" stroke="none" stroke-width="1" fill="none" fill-rule="evenodd">
        <g id="utropic-media" fill-rule="nonzero">
            <g id="Group-13">
                <rect id="Rectangle" fill="url(#linearGradient-1)" x="0" y="0" width="42" height="42" rx="13"></rect>
                <path d="M7.5625,21.1494141 C7.94628906,21.1494141 8.27954102,21.0900879 8.56225586,20.9714355 C8.8449707,20.8527832 9.07275391,20.6784668 9.24560547,20.4484863 C9.41845703,20.2185059 9.52246094,19.9943848 9.55761719,19.776123 C9.59277344,19.5578613 9.61035156,19.1791992 9.61035156,18.6401367 L9.61035156,18.6401367 L9.61035156,13.8852539 L7.76025391,13.8852539 L7.76025391,19.1279297 C7.76025391,19.4824219 7.7434082,19.7072754 7.7097168,19.8024902 C7.67602539,19.8977051 7.60058594,19.9453125 7.48339844,19.9453125 C7.38085938,19.9453125 7.31274414,19.9020996 7.27905273,19.8156738 C7.24536133,19.729248 7.22851562,19.5307617 7.22851562,19.2202148 L7.22851562,19.2202148 L7.22851562,13.8852539 L5.37841797,13.8852539 L5.37885742,18.3277515 C5.38149414,19.0005103 5.39599609,19.4496094 5.42236328,19.6750488 C5.45166016,19.9255371 5.546875,20.1635742 5.70800781,20.3891602 C5.86914062,20.6147461 6.11230469,20.7978516 6.4375,20.9384766 C6.76269531,21.0791016 7.13769531,21.1494141 7.5625,21.1494141 Z M12.9545898,21 L12.9545898,15.309082 L14.0532227,15.309082 L14.0532227,13.8852539 L10.0102539,13.8852539 L10.0102539,15.309082 L11.1044922,15.309082 L11.1044922,21 L12.9545898,21 Z M16.3251953,21 L16.3251953,17.7919922 C16.5800781,17.7919922 16.7375488,17.8374023 16.7976074,17.9282227 C16.857666,18.019043 16.8876953,18.2548828 16.8876953,18.6357422 L16.8876953,18.6357422 L16.8876953,21 L18.605957,21 L18.6053874,18.9404026 C18.6023492,18.4741121 18.5871582,18.1843262 18.5598145,18.0710449 C18.5290527,17.9436035 18.4506836,17.8037109 18.324707,17.6513672 C18.1987305,17.4990234 17.9526367,17.3774414 17.5864258,17.2866211 C17.9907227,17.2485352 18.2617188,17.1342773 18.3994141,16.9438477 C18.5371094,16.753418 18.605957,16.3813477 18.605957,15.8276367 C18.605957,15.2211914 18.5085449,14.779541 18.3137207,14.5026855 C18.1188965,14.2258301 17.8669434,14.0537109 17.5578613,13.9863281 C17.2487793,13.9189453 16.6577148,13.8852539 15.784668,13.8852539 L15.784668,13.8852539 L14.4750977,13.8852539 L14.4750977,21 L16.3251953,21 Z M16.3251953,16.6845703 L16.3251953,15.1025391 C16.5390625,15.1025391 16.6862793,15.1376953 16.7668457,15.2080078 C16.8474121,15.2783203 16.8876953,15.4262695 16.8876953,15.6518555 L16.8876953,15.6518555 L16.8876953,16.0429688 C16.8876953,16.3564453 16.8459473,16.541748 16.7624512,16.598877 C16.6789551,16.6560059 16.5332031,16.6845703 16.3251953,16.6845703 L16.3251953,16.6845703 Z M21.409668,21.1494141 C21.8110352,21.1494141 22.1625977,21.0834961 22.4643555,20.9516602 C22.7661133,20.8198242 23.0056152,20.6308594 23.1828613,20.3847656 C23.3601074,20.1386719 23.4655762,19.8669434 23.4992676,19.5695801 C23.532959,19.2722168 23.5498047,18.7661133 23.5498047,18.0512695 L23.5491536,16.5979818 C23.5456814,15.9903429 23.5283203,15.5563151 23.4970703,15.2958984 C23.4619141,15.0029297 23.3520508,14.7319336 23.1674805,14.4829102 C22.9829102,14.2338867 22.7390137,14.0471191 22.435791,13.9226074 C22.1325684,13.7980957 21.7905273,13.7358398 21.409668,13.7358398 C21.0083008,13.7358398 20.6567383,13.8017578 20.3549805,13.9335938 C20.0532227,14.0654297 19.8137207,14.2543945 19.6364746,14.5004883 C19.4592285,14.746582 19.3537598,15.0183105 19.3200684,15.3156738 C19.286377,15.6130371 19.2695312,16.1191406 19.2695312,16.8339844 L19.2695312,16.8339844 L19.2695312,18.0512695 C19.2695312,18.7836914 19.2871094,19.2963867 19.3222656,19.5893555 C19.3574219,19.8823242 19.4672852,20.1533203 19.6518555,20.4023438 C19.8364258,20.6513672 20.0803223,20.8381348 20.3835449,20.9626465 C20.6867676,21.0871582 21.0288086,21.1494141 21.409668,21.1494141 Z M21.4052734,19.9453125 C21.2822266,19.9453125 21.2038574,19.8969727 21.170166,19.800293 C21.1364746,19.7036133 21.1196289,19.4487305 21.1196289,19.0356445 L21.1196289,19.0356445 L21.1196289,15.7133789 C21.1196289,15.347168 21.1452637,15.126709 21.1965332,15.052002 C21.2478027,14.9772949 21.3217773,14.9399414 21.418457,14.9399414 C21.5327148,14.9399414 21.6081543,14.986084 21.6447754,15.0783691 C21.6813965,15.1706543 21.699707,15.3823242 21.699707,15.7133789 L21.699707,15.7133789 L21.699707,18.9829102 C21.699707,19.4018555 21.6821289,19.6669922 21.6469727,19.7783203 C21.6118164,19.8896484 21.53125,19.9453125 21.4052734,19.9453125 Z M26.0898438,21 L26.0898438,18.1347656 L26.5864258,18.1347656 C26.9907227,18.1347656 27.3181152,18.0791016 27.5686035,17.9677734 C27.8190918,17.8564453 27.9912109,17.6967773 28.0849609,17.4887695 C28.1787109,17.2807617 28.2255859,16.949707 28.2255859,16.4956055 L28.2255859,16.4956055 L28.2255859,15.8759766 C28.2255859,15.4306641 28.201416,15.1018066 28.1530762,14.8894043 C28.1047363,14.677002 28.0124512,14.4960938 27.8762207,14.3466797 C27.7399902,14.1972656 27.536377,14.0830078 27.2653809,14.0039062 C26.9943848,13.9248047 26.6069336,13.8852539 26.1030273,13.8852539 L26.1030273,13.8852539 L24.2397461,13.8852539 L24.2397461,21 L26.0898438,21 Z M26.2260742,16.9174805 C26.1879883,16.9174805 26.1425781,16.9160156 26.0898438,16.9130859 L26.0898438,16.9130859 L26.0898438,15.1025391 C26.3300781,15.1025391 26.4882812,15.1391602 26.5644531,15.2124023 C26.640625,15.2856445 26.6787109,15.4438477 26.6787109,15.6870117 L26.6787109,15.6870117 L26.6787109,16.2714844 C26.6787109,16.5351562 26.645752,16.7087402 26.579834,16.7922363 C26.513916,16.8757324 26.3959961,16.9174805 26.2260742,16.9174805 Z M30.6074219,21 L30.6074219,13.8852539 L28.7573242,13.8852539 L28.7573242,21 L30.6074219,21 Z M33.5078125,21.1494141 C34.0292969,21.1494141 34.4680176,21.0336914 34.8239746,20.8022461 C35.1799316,20.5708008 35.4099121,20.3012695 35.513916,19.9936523 C35.6179199,19.6860352 35.6699219,19.1645508 35.6699219,18.4291992 L35.6699219,18.4291992 L35.6699219,18.1523438 L33.8198242,18.1523438 L33.8198242,19.0444336 C33.8198242,19.434082 33.798584,19.6816406 33.7561035,19.7871094 C33.713623,19.8925781 33.6235352,19.9453125 33.4858398,19.9453125 C33.3422852,19.9453125 33.25,19.8925781 33.2089844,19.7871094 C33.1679688,19.6816406 33.1474609,19.4560547 33.1474609,19.1103516 L33.1474609,19.1103516 L33.1474609,15.8056641 C33.1474609,15.4453125 33.1679688,15.2109375 33.2089844,15.1025391 C33.25,14.9941406 33.3466797,14.9399414 33.4990234,14.9399414 C33.6337891,14.9399414 33.7209473,14.9846191 33.760498,15.0739746 C33.8000488,15.1633301 33.8198242,15.3881836 33.8198242,15.7485352 L33.8198242,15.7485352 L33.8198242,16.987793 L35.6699219,16.987793 L35.6699219,16.3110352 C35.6699219,15.6459961 35.6142578,15.1560059 35.5029297,14.8410645 C35.3916016,14.526123 35.1586914,14.2631836 34.8041992,14.0522461 C34.449707,13.8413086 34,13.7358398 33.4550781,13.7358398 C33.0537109,13.7358398 32.6984863,13.8039551 32.3894043,13.9401855 C32.0803223,14.076416 31.838623,14.2631836 31.6643066,14.5004883 C31.4899902,14.737793 31.3852539,14.9846191 31.3500977,15.2409668 C31.3149414,15.4973145 31.2973633,15.8818359 31.2973633,16.3945312 L31.2973633,16.3945312 L31.2973633,18.4731445 C31.2973633,19.1704102 31.3544922,19.692627 31.46875,20.0397949 C31.5830078,20.3869629 31.815918,20.6586914 32.1674805,20.8549805 C32.519043,21.0512695 32.9658203,21.1494141 33.5078125,21.1494141 Z M11.3220215,30 L11.3220215,25.3066406 L12.0031738,30 L13.1501465,30 L13.7961426,25.1967773 L13.7961426,30 L15.4133301,30 L15.4133301,22.8852539 L13.0007324,22.8852539 L12.5788574,26.2075195 L12.3239746,24.3969727 C12.244873,23.8168945 12.170166,23.3129883 12.0998535,22.8852539 L12.0998535,22.8852539 L9.70483398,22.8852539 L9.70483398,30 L11.3220215,30 Z M19.3640137,30 L19.3640137,28.5761719 L18.0061035,28.5761719 L18.0061035,27.0117188 L19.1618652,27.0117188 L19.1618652,25.6582031 L18.0061035,25.6582031 L18.0061035,24.309082 L19.2409668,24.309082 L19.2409668,22.8852539 L16.1560059,22.8852539 L16.1560059,30 L19.3640137,30 Z M22.229248,30 C22.6716309,30 23.0026855,29.9758301 23.2224121,29.9274902 C23.4421387,29.8791504 23.626709,29.7941895 23.776123,29.6726074 C23.9255371,29.5510254 24.0302734,29.3825684 24.090332,29.1672363 C24.1503906,28.9519043 24.1804199,28.5249023 24.1804199,27.8862305 L24.1804199,27.8862305 L24.1804199,25.3945312 C24.1804199,24.7207031 24.1599121,24.2687988 24.1188965,24.0388184 C24.0778809,23.8088379 23.9753418,23.6000977 23.8112793,23.4125977 C23.6472168,23.2250977 23.4077148,23.090332 23.0927734,23.0083008 C22.777832,22.9262695 22.173584,22.8852539 21.2800293,22.8852539 L21.2800293,22.8852539 L19.895752,22.8852539 L19.895752,30 L22.229248,30 Z M21.7458496,28.7827148 L21.7458496,24.1025391 C21.947998,24.1025391 22.0856934,24.1237793 22.1589355,24.1662598 C22.2321777,24.2087402 22.2790527,24.2753906 22.2995605,24.3662109 C22.3200684,24.4570312 22.3303223,24.6635742 22.3303223,24.9858398 L22.3303223,24.9858398 L22.3303223,27.75 C22.3303223,28.2246094 22.2995605,28.5153809 22.2380371,28.6223145 C22.1765137,28.729248 22.0124512,28.7827148 21.7458496,28.7827148 L21.7458496,28.7827148 Z M26.720459,30 L26.720459,22.8852539 L24.8703613,22.8852539 L24.8703613,30 L26.720459,30 Z M28.9572754,30 L29.0671387,28.7211914 L29.7307129,28.7211914 L29.822998,30 L31.717041,30 L30.657959,22.8852539 L27.9816895,22.8852539 L27.0412598,30 L28.9572754,30 Z M29.6779785,27.4599609 L29.045166,27.4599609 C29.092041,26.8300781 29.2092285,25.8354492 29.3967285,24.4760742 C29.4904785,25.659668 29.5842285,26.6542969 29.6779785,27.4599609 L29.6779785,27.4599609 Z" id="UTROPICMEDIA" fill="#FFFFFF"></path>
            </g>
        </g>
    </g>
</svg>