<?xml version="1.0" encoding="UTF-8"?>
<svg width="42px" height="42px" viewBox="0 0 42 42" version="1.1" xmlns="http://www.w3.org/2000/svg" xmlns:xlink="http://www.w3.org/1999/xlink">
    <!-- Generator: Sketch 64 (93537) - https://sketch.com -->
    <title>western-digital</title>
    <desc>Created with Sketch.</desc>
    <g id="Page-1" stroke="none" stroke-width="1" fill="none" fill-rule="evenodd">
        <g id="western-digital">
            <g id="Group-8-Copy-2" fill="#0267A6">
                <g id="Group-5-Copy-2">
                    <g id="Group-4">
                        <g id="Group-3-Copy">
                            <g id="Group-2-Copy-2">
                                <g id="Group-9">
                                    <rect id="Rectangle" transform="translate(21.000000, 21.000000) rotate(-180.000000) translate(-21.000000, -21.000000) " x="0" y="0" width="42" height="42" rx="10"></rect>
                                </g>
                            </g>
                        </g>
                    </g>
                </g>
            </g>
            <g id="Group-32" transform="translate(5.000000, 13.000000)" fill="#FFFFFF">
                <path d="M3.33343119,4.61752171 L6.42216514,4.61752171 C6.5288318,3.85783976 6.63031193,3.13475719 6.73874006,2.36205994 L3.57680734,2.36205994 C3.49617125,3.10960734 3.41876453,3.82730765 3.33343119,4.61752171 L3.33343119,4.61752171 Z M14.9828991,2.36705076 C14.7500917,3.12007829 14.5242324,3.85040245 14.2835963,4.62887339 L17.3908257,4.62887339 C17.6446728,3.87946667 17.8903976,3.15423119 18.1570642,2.36705076 L14.9828991,2.36705076 Z M12.1368563,4.62515474 C12.0457492,3.83826789 11.9626667,3.12056758 11.876159,2.37341162 L9.44621407,2.37341162 C9.06495413,3.09531988 8.68349847,3.81761957 8.25702752,4.62515474 L12.1368563,4.62515474 Z M9.7618104,7.00020061 C9.81710092,7.0158581 9.87239144,7.0315156 9.9275841,7.04727095 C10.1421896,9.15799878 10.3567951,11.2687266 10.5737492,13.4026471 L14.3676575,13.4026471 C15.2302875,10.8950997 16.0891009,8.3986104 16.9839266,5.79741162 L13.8939205,5.79741162 C13.5275352,6.9523474 13.1600734,8.11119755 12.7925138,9.26994985 C12.7388869,9.26124037 12.6851621,9.25233517 12.631633,9.24352783 C12.500208,8.06021284 12.3689786,6.87689786 12.2263976,5.59337492 L7.7458104,5.59337492 C7.15532722,6.70114251 6.5382263,7.85852477 5.92122324,9.01600489 C5.87337003,8.99437798 5.82561468,8.97275107 5.77776147,8.95122202 C5.94881957,7.81673884 6.11987768,6.68235352 6.30649541,5.44443303 L3.24937003,5.44443303 C2.95833639,8.05835352 2.66436697,10.6979131 2.36413456,13.3933505 L6.59028746,13.3933505 C7.64315596,11.2709774 8.70248318,9.13558899 9.7618104,7.00020061 L9.7618104,7.00020061 Z M20.5083303,10.356482 C20.9922446,8.89828012 21.4651009,7.4737419 21.9755352,5.93588257 L17.8755229,5.93588257 C17.0638777,8.37336269 16.2396086,10.8485187 15.3989969,13.3727021 C15.6287706,13.402745 15.7539327,13.4330813 15.8791927,13.4332771 C17.7866667,13.4364086 19.695315,13.4770202 21.6016147,13.4265248 C24.868159,13.3399193 28.1672905,10.7132771 29.0415657,7.56788257 C29.8760122,4.56585199 28.1891131,2.33788869 25.0806116,2.33651865 C23.531792,2.3359315 21.9828746,2.33554006 20.434055,2.33510513 C19.9974067,2.33510513 19.5608563,2.33510513 19.0721468,2.33510513 C18.8198654,3.10510581 18.5819694,3.83083058 18.3215657,4.62554618 C18.6567339,4.64453089 18.8640979,4.6661578 19.0714618,4.66654924 C20.6366239,4.66958287 22.2018838,4.65901407 23.7670459,4.67163792 C24.9661162,4.68122813 25.7208073,5.45852477 25.7194373,6.6470263 C25.7167951,8.93761957 22.9287829,10.9837602 20.5083303,10.356482 L20.5083303,10.356482 Z" id="Fill-1"></path>
            </g>
        </g>
    </g>
</svg>