<?xml version="1.0" encoding="UTF-8"?>
<svg width="15px" height="15px" viewBox="0 0 15 15" version="1.1" xmlns="http://www.w3.org/2000/svg" xmlns:xlink="http://www.w3.org/1999/xlink">
    <!-- Generator: Sketch 54.1 (76490) - https://sketchapp.com -->
    <title>iconmonstr-linkedin-3</title>
    <desc>Created with Sketch.</desc>
    <g id="Page-1" stroke="none" stroke-width="1" fill="none" fill-rule="evenodd">
        <g id="iconmonstr-linkedin-3" fill="#7E8B9C" fill-rule="nonzero">
            <path d="M11.875,0 L3.125,0 C1.399375,0 0,1.399375 0,3.125 L0,11.875 C0,13.600625 1.399375,15 3.125,15 L11.875,15 C13.60125,15 15,13.600625 15,11.875 L15,3.125 C15,1.399375 13.60125,0 11.875,0 Z M5,11.875 L3.125,11.875 L3.125,5 L5,5 L5,11.875 Z M4.0625,4.2075 C3.45875,4.2075 2.96875,3.71375 2.96875,3.105 C2.96875,2.49625 3.45875,2.0025 4.0625,2.0025 C4.66625,2.0025 5.15625,2.49625 5.15625,3.105 C5.15625,3.71375 4.666875,4.2075 4.0625,4.2075 Z M12.5,11.875 L10.625,11.875 L10.625,8.3725 C10.625,6.2675 8.125,6.426875 8.125,8.3725 L8.125,11.875 L6.25,11.875 L6.25,5 L8.125,5 L8.125,6.103125 C8.9975,4.486875 12.5,4.3675 12.5,7.650625 L12.5,11.875 Z" id="Shape"></path>
        </g>
    </g>
</svg>