<svg width="18" height="18" viewBox="0 0 18 18" fill="none" xmlns="http://www.w3.org/2000/svg">
<path d="M8.30769 8.88122V0.692308C8.30769 0.309957 8.61765 0 9 0C9.38235 0 9.69231 0.309957 9.69231 0.692308V8.88122L11.4477 7.12585C11.718 6.85549 12.1564 6.85549 12.4267 7.12585C12.6971 7.39621 12.6971 7.83456 12.4267 8.10492L9.48954 11.0421C9.21917 11.3125 8.78083 11.3125 8.51046 11.0421L5.57325 8.10492C5.30289 7.83456 5.30289 7.39621 5.57325 7.12585C5.84362 6.85549 6.28196 6.85549 6.55232 7.12585L8.30769 8.88122ZM13.1538 1.38462C12.7715 1.38462 12.4615 1.07466 12.4615 0.692308C12.4615 0.309957 12.7715 0 13.1538 0H14.5385C16.4502 0 18 1.54978 18 3.46154V14.5385C18 16.4502 16.4502 18 14.5385 18H3.46154C1.54978 18 0 16.4502 0 14.5385V3.46154C0 1.54978 1.54978 0 3.46154 0H4.84615C5.22851 0 5.53846 0.309957 5.53846 0.692308C5.53846 1.07466 5.22851 1.38462 4.84615 1.38462H3.46154C2.31449 1.38462 1.38462 2.31449 1.38462 3.46154V14.5385C1.38462 15.6855 2.31449 16.6154 3.46154 16.6154H14.5385C15.6855 16.6154 16.6154 15.6855 16.6154 14.5385V3.46154C16.6154 2.31449 15.6855 1.38462 14.5385 1.38462H13.1538Z" fill="#7E8B9C"/>
</svg>
