<?xml version="1.0" encoding="UTF-8"?>
<svg width="102px" height="118px" viewBox="0 0 102 118" version="1.1" xmlns="http://www.w3.org/2000/svg" xmlns:xlink="http://www.w3.org/1999/xlink">
    <!-- Generator: Sketch 53.2 (72643) - https://sketchapp.com -->
    <title>Group 46</title>
    <desc>Created with Sketch.</desc>
    <defs>
        <linearGradient x1="80.3935651%" y1="94.5937616%" x2="19.6064349%" y2="-55.7993169%" id="linearGradient-1">
            <stop stop-color="#2582FF" offset="0%"></stop>
            <stop stop-color="#12F5E1" offset="100%"></stop>
        </linearGradient>
        <path d="M92,35 L92,113 C92,115.761424 89.7614237,118 87,118 L5,118 C2.23857625,118 3.38176876e-16,115.761424 0,113 L0,5 C-3.38176876e-16,2.23857625 2.23857625,2.27117258e-14 5,2.22044605e-14 L57,2.20127899e-14 L92,35 Z" id="path-2"></path>
        <linearGradient x1="28.4657923%" y1="-101.849753%" x2="74.7010404%" y2="111.589374%" id="linearGradient-4">
            <stop stop-color="#000000" offset="0%"></stop>
            <stop stop-color="#0055C6" offset="100%"></stop>
        </linearGradient>
        <path d="M48.2767127,32.8333333 L48.3257388,40.245098 L3.70588235,40.245098 C1.65918004,40.245098 2.50648743e-16,38.585918 0,36.5392157 C-2.50648743e-16,34.4925134 1.65918004,32.8333333 3.70588235,32.8333333 L48.2767127,32.8333333 Z M18,69.8921569 L18,77.3039216 L3.70588235,77.3039216 C1.65918004,77.3039216 2.50648743e-16,75.6447415 0,73.5980392 C-2.50648743e-16,71.5513369 1.65918004,69.8921569 3.70588235,69.8921569 L18,69.8921569 Z M48.3992878,51.3642087 L48.4482835,58.7713613 C48.3971552,58.7734535 48.3457598,58.7745098 48.2941176,58.7745098 L3.70588235,58.7745098 C1.65918004,58.7745098 2.47109479e-15,57.1153298 2.22044605e-15,55.0686275 C1.93440467e-16,53.0219251 1.65918004,51.3627451 3.70588235,51.3627451 L48.2941176,51.3627451 C48.329291,51.3627451 48.3643498,51.3632351 48.3992878,51.3642087 Z M18,88.4215686 L18,95.8333333 L3.70588235,95.8333333 C1.65918004,95.8333333 2.50648743e-16,94.1741533 0,92.127451 C1.93440467e-16,90.0807487 1.65918004,88.4215686 3.70588235,88.4215686 L18,88.4215686 Z" id="path-5"></path>
        <filter x="-5.5%" y="-4.0%" width="116.7%" height="107.9%" filterUnits="objectBoundingBox" id="filter-6">
            <feGaussianBlur stdDeviation="2" in="SourceAlpha" result="shadowBlurInner1"></feGaussianBlur>
            <feOffset dx="0" dy="1" in="shadowBlurInner1" result="shadowOffsetInner1"></feOffset>
            <feComposite in="shadowOffsetInner1" in2="SourceAlpha" operator="arithmetic" k2="-1" k3="1" result="shadowInnerInner1"></feComposite>
            <feColorMatrix values="0 0 0 0 0   0 0 0 0 0   0 0 0 0 0  0 0 0 0.286057692 0" type="matrix" in="shadowInnerInner1"></feColorMatrix>
        </filter>
        <rect id="path-7" x="0" y="0" width="31" height="119"></rect>
        <linearGradient x1="50%" y1="0%" x2="50%" y2="100%" id="linearGradient-9">
            <stop stop-color="#FFFFFF" offset="0%"></stop>
            <stop stop-color="#FFFFFF" stop-opacity="0" offset="100%"></stop>
        </linearGradient>
        <rect id="path-10" x="0" y="75" width="30" height="42"></rect>
        <linearGradient x1="9.24032691%" y1="-97.1415211%" x2="96.7538135%" y2="109.679742%" id="linearGradient-12">
            <stop stop-color="#000000" offset="0%"></stop>
            <stop stop-color="#0055C6" offset="100%"></stop>
        </linearGradient>
        <path d="M-45,32.8333333 L13,32.8333333 C14.6568542,32.8333333 16,34.1764791 16,35.8333333 L16,37.245098 C16,38.9019523 14.6568542,40.245098 13,40.245098 L-45,40.245098 C-46.6568542,40.245098 -48,38.9019523 -48,37.245098 L-48,35.8333333 C-48,34.1764791 -46.6568542,32.8333333 -45,32.8333333 Z M-45,69.8921569 L13,69.8921569 C14.6568542,69.8921569 16,71.2353026 16,72.8921569 L16,74.3039216 C16,75.9607758 14.6568542,77.3039216 13,77.3039216 L-45,77.3039216 C-46.6568542,77.3039216 -48,75.9607758 -48,74.3039216 L-48,72.8921569 C-48,71.2353026 -46.6568542,69.8921569 -45,69.8921569 Z M-45,51.3627451 L1,51.3627451 C2.65685425,51.3627451 4,52.7058908 4,54.3627451 L4,55.7745098 C4,57.4313641 2.65685425,58.7745098 1,58.7745098 L-45,58.7745098 C-46.6568542,58.7745098 -48,57.4313641 -48,55.7745098 L-48,54.3627451 C-48,52.7058908 -46.6568542,51.3627451 -45,51.3627451 Z M-45,88.4215686 L1,88.4215686 C2.65685425,88.4215686 4,89.7647144 4,91.4215686 L4,92.8333333 C4,94.4901876 2.65685425,95.8333333 1,95.8333333 L-45,95.8333333 C-46.6568542,95.8333333 -48,94.4901876 -48,92.8333333 L-48,91.4215686 C-48,89.7647144 -46.6568542,88.4215686 -45,88.4215686 Z" id="path-13"></path>
        <filter x="-18.8%" y="-19.0%" width="137.5%" height="138.1%" filterUnits="objectBoundingBox" id="filter-14">
            <feGaussianBlur stdDeviation="4" in="SourceGraphic"></feGaussianBlur>
        </filter>
        <linearGradient x1="50%" y1="0%" x2="50%" y2="100%" id="linearGradient-15">
            <stop stop-color="#FFFFFF" offset="0%"></stop>
            <stop stop-color="#FFFFFF" stop-opacity="0" offset="100%"></stop>
        </linearGradient>
        <rect id="path-16" x="0" y="0" width="30" height="72"></rect>
        <path d="M-15,-13.1666667 L43,-13.1666667 C44.6568542,-13.1666667 46,-11.8235209 46,-10.1666667 L46,-8.75490196 C46,-7.09804771 44.6568542,-5.75490196 43,-5.75490196 L-15,-5.75490196 C-16.6568542,-5.75490196 -18,-7.09804771 -18,-8.75490196 L-18,-10.1666667 C-18,-11.8235209 -16.6568542,-13.1666667 -15,-13.1666667 Z M-15,23.8921569 L43,23.8921569 C44.6568542,23.8921569 46,25.2353026 46,26.8921569 L46,28.3039216 C46,29.9607758 44.6568542,31.3039216 43,31.3039216 L-15,31.3039216 C-16.6568542,31.3039216 -18,29.9607758 -18,28.3039216 L-18,26.8921569 C-18,25.2353026 -16.6568542,23.8921569 -15,23.8921569 Z M-15,5.3627451 L31,5.3627451 C32.6568542,5.3627451 34,6.70589085 34,8.3627451 L34,9.7745098 C34,11.4313641 32.6568542,12.7745098 31,12.7745098 L-15,12.7745098 C-16.6568542,12.7745098 -18,11.4313641 -18,9.7745098 L-18,8.3627451 C-18,6.70589085 -16.6568542,5.3627451 -15,5.3627451 Z M-15,42.4215686 L31,42.4215686 C32.6568542,42.4215686 34,43.7647144 34,45.4215686 L34,46.8333333 C34,48.4901876 32.6568542,49.8333333 31,49.8333333 L-15,49.8333333 C-16.6568542,49.8333333 -18,48.4901876 -18,46.8333333 L-18,45.4215686 C-18,43.7647144 -16.6568542,42.4215686 -15,42.4215686 Z" id="path-18"></path>
        <filter x="-18.8%" y="-19.0%" width="137.5%" height="138.1%" filterUnits="objectBoundingBox" id="filter-19">
            <feGaussianBlur stdDeviation="4" in="SourceGraphic"></feGaussianBlur>
        </filter>
        <linearGradient x1="100%" y1="94.5937616%" x2="-20.2358386%" y2="-55.3731232%" id="linearGradient-20">
            <stop stop-color="#85B9FF" offset="0%"></stop>
            <stop stop-color="#60FFF1" offset="100%"></stop>
        </linearGradient>
        <path d="M57,0 L92,35 L62,35 C59.2385763,35 57,32.7614237 57,30 L57,0 Z" id="path-21"></path>
        <filter x="-80.0%" y="-82.4%" width="268.1%" height="268.1%" filterUnits="objectBoundingBox" id="filter-22">
            <feMorphology radius="1" operator="dilate" in="SourceAlpha" result="shadowSpreadOuter1"></feMorphology>
            <feOffset dx="0" dy="2" in="shadowSpreadOuter1" result="shadowOffsetOuter1"></feOffset>
            <feGaussianBlur stdDeviation="8" in="shadowOffsetOuter1" result="shadowBlurOuter1"></feGaussianBlur>
            <feColorMatrix values="0 0 0 0 0   0 0 0 0 0.0408895339   0 0 0 0 0.164855072  0 0 0 0.5 0" type="matrix" in="shadowBlurOuter1"></feColorMatrix>
        </filter>
        <rect id="path-23" x="60" y="73" width="33" height="4" rx="2"></rect>
        <filter x="-40.9%" y="-337.5%" width="181.8%" height="775.0%" filterUnits="objectBoundingBox" id="filter-24">
            <feMorphology radius="1" operator="dilate" in="SourceAlpha" result="shadowSpreadOuter1"></feMorphology>
            <feOffset dx="0" dy="0" in="shadowSpreadOuter1" result="shadowOffsetOuter1"></feOffset>
            <feGaussianBlur stdDeviation="3.5" in="shadowOffsetOuter1" result="shadowBlurOuter1"></feGaussianBlur>
            <feColorMatrix values="0 0 0 0 1   0 0 0 0 1   0 0 0 0 1  0 0 0 1 0" type="matrix" in="shadowBlurOuter1"></feColorMatrix>
        </filter>
        <rect id="path-25" x="29" y="44" width="33" height="4" rx="2"></rect>
        <filter x="-40.9%" y="-337.5%" width="181.8%" height="775.0%" filterUnits="objectBoundingBox" id="filter-26">
            <feMorphology radius="1" operator="dilate" in="SourceAlpha" result="shadowSpreadOuter1"></feMorphology>
            <feOffset dx="0" dy="0" in="shadowSpreadOuter1" result="shadowOffsetOuter1"></feOffset>
            <feGaussianBlur stdDeviation="3.5" in="shadowOffsetOuter1" result="shadowBlurOuter1"></feGaussianBlur>
            <feColorMatrix values="0 0 0 0 1   0 0 0 0 1   0 0 0 0 1  0 0 0 1 0" type="matrix" in="shadowBlurOuter1"></feColorMatrix>
        </filter>
    </defs>
    <g id="Tardigrade-Icos" stroke="none" stroke-width="1" fill="none" fill-rule="evenodd">
        <g id="Group-46">
            <g id="Group-42">
                <g id="Group-38-Copy">
                    <g id="Group-21">
                        <g id="Group-19">
                            <g id="Group-16">
                                <g id="Group-16-Copy">
                                    <g id="Group-36">
                                        <mask id="mask-3" fill="white">
                                            <use xlink:href="#path-2"></use>
                                        </mask>
                                        <path stroke-opacity="0.196131993" stroke="#000000" d="M91.5,35.2071068 L56.7928932,0.5 L5,0.5 C2.51471863,0.5 0.5,2.51471863 0.5,5 L0.5,113 C0.5,115.485281 2.51471863,117.5 5,117.5 L87,117.5 C89.4852814,117.5 91.5,115.485281 91.5,113 L91.5,35.2071068 Z"></path>
                                        <path d="M91.5,35.2071068 L56.7928932,0.5 L5,0.5 C2.51471863,0.5 0.5,2.51471863 0.5,5 L0.5,113 C0.5,115.485281 2.51471863,117.5 5,117.5 L87,117.5 C89.4852814,117.5 91.5,115.485281 91.5,113 L91.5,35.2071068 Z" id="Combined-Shape-Copy-2" stroke-opacity="0.196131993" stroke="#000000" fill="url(#linearGradient-1)" mask="url(#mask-3)"></path>
                                        <g id="Group-43" mask="url(#mask-3)">
                                            <g transform="translate(13.000000, -0.333333)">
                                                <g id="Combined-Shape" fill="none" opacity="0.356980097">
                                                    <use fill="url(#linearGradient-4)" fill-rule="evenodd" xlink:href="#path-5"></use>
                                                    <use fill="#003567" fill-rule="evenodd" xlink:href="#path-5"></use>
                                                    <use fill="black" fill-opacity="1" filter="url(#filter-6)" xlink:href="#path-5"></use>
                                                </g>
                                                <g id="Group-44" stroke-width="1" fill="none" fill-rule="evenodd" transform="translate(18.000000, 0.000000)">
                                                    <g id="Group-45" transform="translate(30.000000, 0.000000)">
                                                        <mask id="mask-8" fill="white">
                                                            <use xlink:href="#path-7"></use>
                                                        </mask>
                                                        <use id="Rectangle-Copy-78" fill="#FFFFFF" opacity="0.506277902" xlink:href="#path-7"></use>
                                                        <mask id="mask-11" fill="white">
                                                            <use xlink:href="#path-10"></use>
                                                        </mask>
                                                        <use id="Rectangle-Copy-78" fill="url(#linearGradient-9)" opacity="0.779924665" xlink:href="#path-10"></use>
                                                        <g id="Combined-Shape" opacity="0.403320312" filter="url(#filter-14)" mask="url(#mask-11)">
                                                            <use fill="url(#linearGradient-12)" xlink:href="#path-13"></use>
                                                            <use fill="#003567" xlink:href="#path-13"></use>
                                                        </g>
                                                    </g>
                                                    <g id="Group-45-Copy" transform="translate(0.000000, 46.000000)">
                                                        <mask id="mask-17" fill="white">
                                                            <use xlink:href="#path-16"></use>
                                                        </mask>
                                                        <use id="Rectangle-Copy-78" fill="url(#linearGradient-15)" opacity="0.779924665" xlink:href="#path-16"></use>
                                                        <g id="Combined-Shape" opacity="0.203450521" filter="url(#filter-19)" mask="url(#mask-17)">
                                                            <use fill="url(#linearGradient-12)" xlink:href="#path-18"></use>
                                                            <use fill="#003567" xlink:href="#path-18"></use>
                                                        </g>
                                                    </g>
                                                </g>
                                                <rect id="Rectangle-Copy-77" fill="#FFFFFF" fill-rule="evenodd" opacity="0.26969401" x="18" y="0.333333333" width="30" height="117"></rect>
                                            </g>
                                        </g>
                                        <rect id="Rectangle-Copy-74" fill="#FFFFFF" opacity="0" mask="url(#mask-3)" x="0" y="-0.333333333" width="31" height="119"></rect>
                                        <g id="Rectangle" mask="url(#mask-3)">
                                            <use fill="black" fill-opacity="1" filter="url(#filter-22)" xlink:href="#path-21"></use>
                                            <use fill="url(#linearGradient-20)" fill-rule="evenodd" xlink:href="#path-21"></use>
                                            <use fill-opacity="0.615029502" fill="#FFFFFF" fill-rule="evenodd" xlink:href="#path-21"></use>
                                        </g>
                                    </g>
                                </g>
                            </g>
                        </g>
                    </g>
                </g>
            </g>
            <g id="Rectangle">
                <use fill="black" fill-opacity="1" filter="url(#filter-24)" xlink:href="#path-23"></use>
                <use fill="#FFFFFF" fill-rule="evenodd" xlink:href="#path-23"></use>
            </g>
            <g id="Rectangle-Copy-76">
                <use fill="black" fill-opacity="1" filter="url(#filter-26)" xlink:href="#path-25"></use>
                <use fill="#FFFFFF" fill-rule="evenodd" xlink:href="#path-25"></use>
            </g>
        </g>
    </g>
</svg>