<svg width="939" height="177" viewBox="0 0 939 177" fill="none" xmlns="http://www.w3.org/2000/svg">
<mask id="mask0" mask-type="alpha" maskUnits="userSpaceOnUse" x="0" y="0" width="939" height="177">
<rect width="939" height="177" rx="6" fill="black"/>
</mask>
<g mask="url(#mask0)">
<rect width="939" height="177" rx="6" fill="#4F0000"/>
<rect width="939" height="177" rx="6" fill="url(#paint0_linear)"/>
<g opacity="0.4">
<path d="M751.721 291.321L564.279 291.321C559.704 291.321 555.175 290.42 550.948 288.668C546.722 286.917 542.883 284.349 539.649 281.113C536.416 277.877 533.852 274.036 532.103 269.808C530.355 265.581 529.457 261.05 529.461 256.475L529.461 147.89C529.461 140.284 526.441 132.99 521.064 127.61C515.687 122.23 508.395 119.206 500.789 119.202L399.483 119.202C390.072 119.202 381.047 115.463 374.393 108.809C367.738 102.155 364 93.1293 364 83.7186L364 49.4669C364.004 40.059 367.745 31.038 374.399 24.3871C381.052 17.7363 390.075 14.0001 399.483 14.0001L493.978 14.0001C503.387 14.0001 512.412 17.7378 519.066 24.391C525.72 31.0442 529.459 40.068 529.461 49.4778L529.461 90.5242C529.464 98.13 532.487 105.423 537.865 110.801C543.244 116.179 550.538 119.2 558.144 119.202L751.721 119.202C756.294 119.202 760.823 120.103 765.049 121.854C769.274 123.605 773.113 126.171 776.347 129.406C779.58 132.64 782.145 136.481 783.893 140.707C785.642 144.933 786.541 149.463 786.539 154.036L786.539 256.475C786.543 261.05 785.645 265.581 783.896 269.808C782.148 274.036 779.584 277.877 776.351 281.113C773.117 284.349 769.278 286.917 765.051 288.668C760.825 290.42 756.295 291.321 751.721 291.321V291.321Z" stroke="#FF282D" stroke-width="2" stroke-miterlimit="10"/>
<path d="M717.217 254.094L604.687 254.094C598.373 254.093 592.317 251.583 587.853 247.118C583.389 242.652 580.881 236.597 580.881 230.282L580.881 171.56C580.881 169.392 580.455 167.246 579.627 165.243C578.798 163.241 577.583 161.421 576.051 159.888C574.518 158.354 572.699 157.138 570.697 156.308C568.695 155.478 566.549 155.05 564.382 155.05L408.68 155.05C404.365 155.05 400.226 153.335 397.175 150.284C394.124 147.233 392.409 143.094 392.409 138.779L392.409 105.296C392.409 103.159 392.83 101.043 393.648 99.0695C394.465 97.0955 395.664 95.3018 397.175 93.791C398.686 92.2801 400.479 91.0817 402.453 90.264C404.427 89.4464 406.543 89.0255 408.68 89.0255L564.61 89.0255C566.747 89.0255 568.863 89.4464 570.837 90.264C572.811 91.0817 574.604 92.2802 576.115 93.791C577.626 95.3019 578.825 97.0955 579.642 99.0695C580.46 101.044 580.881 103.159 580.881 105.296L580.881 138.534C580.884 142.91 582.624 147.106 585.718 150.2C588.813 153.293 593.01 155.032 597.385 155.033L717.217 155.033C723.531 155.033 729.586 157.541 734.051 162.006C738.515 166.47 741.023 172.526 741.023 178.839L741.023 230.282C741.023 236.597 738.515 242.652 734.051 247.118C729.587 251.583 723.532 254.093 717.217 254.094V254.094Z" stroke="#04B2E1" stroke-width="5" stroke-miterlimit="10"/>
<path d="M487.809 320.565L672.025 320.565C691.724 320.565 707.693 304.596 707.693 284.897L707.693 96.3216C707.693 76.6225 691.724 60.6533 672.025 60.6533L487.809 60.6532C468.11 60.6532 452.141 76.6225 452.141 96.3216L452.141 284.897C452.141 304.596 468.11 320.565 487.809 320.565Z" stroke="white" stroke-width="0.75" stroke-miterlimit="10"/>
<path d="M665.442 203.419L729.783 203.419C749.482 203.419 765.451 187.45 765.451 167.751L765.451 59.8193C765.451 40.1202 749.482 24.151 729.783 24.151L665.442 24.1509C645.743 24.1509 629.774 40.1202 629.774 59.8193L629.774 167.751C629.774 187.45 645.743 203.419 665.442 203.419Z" stroke="#F7CCBF" stroke-width="2" stroke-miterlimit="10"/>
</g>
</g>
<defs>
<linearGradient id="paint0_linear" x1="469.5" y1="0" x2="469.5" y2="177" gradientUnits="userSpaceOnUse">
<stop/>
<stop offset="1" stop-color="#002D69"/>
</linearGradient>
</defs>
</svg>
