<svg width="210" height="90" viewBox="0 0 210 90" fill="none" xmlns="http://www.w3.org/2000/svg">
<path d="M138.993 15.9097V65.5619H153.908V57.9755H148.979V8.34656L138.992 8.3479L138.993 15.9097Z" fill="#FF282D"/>
<path d="M9.48193 57.9755H14.5519V34.0207H9.48193V27.4328L14.5519 26.599V19.9302C14.5519 11.8524 16.3102 8.3468 26.6115 8.3468C28.8364 8.3468 31.4736 8.67533 33.7825 9.09129L32.414 17.2114C30.8504 16.9637 30.0748 16.9197 29.0864 16.9197C25.4571 16.9197 24.5395 17.2818 24.5395 20.8278V26.5989H32.0751V34.0207H24.5395V57.9756H29.5566V65.5608L9.48218 65.5629V57.9755H9.48193Z" fill="#FF282D"/>
<path d="M133.912 55.5782C132.35 55.9078 130.984 55.8681 129.995 55.8925C125.886 55.9935 126.241 54.643 126.241 50.7688V34.0207H134.062V26.5989H126.241V8.34656H116.254V52.8394C116.254 61.575 118.41 65.5618 127.806 65.5618C130.031 65.5618 133.088 64.9892 135.397 64.4948L133.912 55.5782Z" fill="#FF282D"/>
<path d="M195.955 58.0162C198.054 58.0162 199.754 59.6846 199.754 61.7837C199.754 63.8823 198.054 65.5503 195.955 65.5503C193.856 65.5503 192.167 63.8823 192.167 61.7837C192.167 59.6846 193.856 58.0162 195.955 58.0162ZM195.955 64.9582C197.699 64.9582 199.119 63.5271 199.119 61.7837C199.119 60.0395 197.699 58.6516 195.955 58.6516C194.212 58.6516 192.801 60.0396 192.801 61.7837C192.801 63.5269 194.212 64.9582 195.955 64.9582ZM196.655 63.6344L195.89 62.5151H195.363V63.6344H194.513V59.9317H196.062C196.977 59.9317 197.548 60.3948 197.548 61.2135C197.548 61.8152 197.246 62.2247 196.773 62.3643L197.699 63.6343H196.655V63.6344ZM195.363 61.7724H196.041C196.429 61.7724 196.687 61.6219 196.687 61.2136C196.687 60.8261 196.429 60.6746 196.062 60.6746H195.363V61.7724H195.363Z" fill="#FF282D"/>
<path d="M103.787 34.0073V32.6786C100.766 32.1274 97.7651 32.1195 96.1376 32.1195C91.4898 32.1195 90.9231 34.5842 90.9231 35.9203C90.9231 37.8104 91.568 38.8324 96.6032 39.9333C103.963 41.5856 111.355 43.3096 111.355 52.4358C111.355 61.0908 106.901 65.5621 97.5248 65.5621C91.2507 65.5621 85.1631 64.2153 80.5181 63.0366V55.5784H88.081L88.0766 56.9034C91.3312 57.532 94.7437 57.4691 96.5252 57.4691C101.483 57.4691 102.285 54.8038 102.285 53.3867C102.285 51.42 100.863 50.4755 96.216 49.5332C87.4609 48.0372 80.5127 45.0481 80.5127 36.1548C80.5127 27.7369 86.1428 24.4347 95.5188 24.4347C101.871 24.4347 106.701 25.4198 111.348 26.5991V34.0073H103.787Z" fill="#FF282D"/>
<path d="M57.8365 40.5629L57.0765 39.8026L53.2166 43.1663C53.0218 43.0965 52.8134 43.0565 52.5957 43.0565C51.5541 43.0565 50.7109 43.9245 50.7109 44.9941C50.7109 46.0649 51.5541 46.9327 52.5957 46.9327C53.6367 46.9327 54.4819 46.0649 54.4819 44.9941C54.4819 44.7909 54.451 44.5953 54.3946 44.4112L57.8365 40.5629Z" fill="#FF282D"/>
<path d="M73.134 55.5783L73.1275 24.4995H63.1403V27.414C61.0833 26.18 58.792 25.2975 56.3499 24.8452H56.4064V21.3963H57.6248V18.8599H47.5687V21.3963H48.7871V24.8452H48.8564C39.3043 26.6037 32.0654 34.9682 32.0654 45.0288C32.0654 56.367 41.2567 65.5583 52.5949 65.5583C56.4645 65.5583 60.0833 64.4862 63.1726 62.625L64.9719 65.5621H75.5211V55.5782H73.134V55.5783ZM53.193 55.5556V54.3816H51.9965V55.5523C46.6363 55.24 42.3488 50.9334 42.0692 45.5645H43.2585V44.368H42.0753C42.3932 39.0363 46.663 34.7706 51.9965 34.4598V35.6365H53.193V34.4563C58.4504 34.7373 62.6853 38.8612 63.1429 44.0698V44.4129H61.944V45.6095H63.1431L63.1433 45.9372C62.6881 51.1482 58.4521 55.2746 53.193 55.5556Z" fill="#FF282D"/>
<path d="M179.184 26.599H199.783V34.0135H194.86L182.227 65.0936C178.606 73.8242 172.659 82.0415 163.602 82.0415C161.375 82.0415 158.411 81.7948 156.355 81.3008L157.258 72.2361C158.577 72.4829 160.305 72.6452 161.212 72.6452C165.412 72.6452 170.15 70.0428 171.631 65.5117L158.831 34.0138H153.907V26.5992H174.517V34.0138H169.594L176.845 51.8549L184.097 34.0138H179.184V26.599H179.184Z" fill="#FF282D"/>
</svg>
