<svg width="21" height="18" viewBox="0 0 21 18" fill="none" xmlns="http://www.w3.org/2000/svg">
<path fill-rule="evenodd" clip-rule="evenodd" d="M19.4125 6.65908C20.3541 8.06677 20.8664 9.82892 20.7012 11.9631C20.4796 14.8477 18.0741 18 15.1793 18H6.05193C3.15901 18 0.752548 14.8477 0.530086 11.9631C0.366701 9.83077 0.879009 8.07046 1.81778 6.66185C1.71162 6.47262 -0.544375 2.40185 2.38547 0C4.22701 0 7.0387 3.03231 7.05347 3.048C9.35747 2.38246 11.9375 2.38708 14.2369 3.06277L14.2156 3.04892C14.2156 3.04892 17.0393 0 18.8855 0C21.8855 2.46 19.4421 6.67938 19.4421 6.67938L19.4125 6.65908ZM17.5393 12.9227C17.5393 7.41286 13.7307 9.66332 10.6163 9.66332C7.50089 9.66332 3.69319 7.47009 3.69319 12.9227C3.69319 14.707 5.13965 16.1535 6.92396 16.1535H14.3086C16.0938 16.1535 17.5393 14.707 17.5393 12.9227ZM15.2506 12.9227C15.2506 13.9129 14.68 14.7689 13.866 14.7689C13.0526 14.7689 12.4813 13.9124 12.4813 12.9227C12.4813 11.933 13.0526 11.0766 13.866 11.0766C14.68 11.0766 15.2506 11.9325 15.2506 12.9227ZM8.78904 12.9227C8.78904 13.9129 8.21851 14.7689 7.40442 14.7689C6.59103 14.7689 6.01981 13.9124 6.01981 12.9227C6.01981 11.933 6.59103 11.0766 7.40442 11.0766C8.21851 11.0766 8.78904 11.9325 8.78904 12.9227Z" fill="#7E8B9C"/>
</svg>
