<svg width="32" height="32" viewBox="0 0 32 32" fill="none" xmlns="http://www.w3.org/2000/svg">
<path d="M25.5352 19.2969C25.5352 19.2969 31.3339 18.5516 31.3339 12.6663C31.3339 8.93826 28.2539 5.87026 24.4272 6.01026C22.9312 2.85426 19.7246 0.66626 16.0006 0.66626C11.0326 0.66626 6.98457 4.54626 6.69524 9.43959C3.58324 8.78893 0.667236 11.1596 0.667236 14.3329C0.667236 19.4116 5.78057 19.3249 5.78057 19.3249" stroke="#2684FF"/>
<path fill-rule="evenodd" clip-rule="evenodd" d="M28.6668 28C28.6668 29.8414 27.1748 31.3334 25.3335 31.3334H6.66683C4.8255 31.3334 3.3335 29.8414 3.3335 28V24.6667H28.6668V28V28V28Z" stroke="#1A5BB0"/>
<path fill-rule="evenodd" clip-rule="evenodd" d="M3.3335 24L6.44416 17.8774C6.75083 17.2107 7.60016 16.6667 8.3335 16.6667H22.6668C23.4002 16.6667 24.3028 17.1854 24.6722 17.8174L28.6668 24V24.6667H3.3335V24Z" stroke="#1A5BB0"/>
<path d="M20 28.6667H24" stroke="#1A5BB0"/>
</svg>
