<svg width="21" height="18" viewBox="0 0 21 18" fill="none" xmlns="http://www.w3.org/2000/svg">
<path d="M17.4892 16.3018V4.44663L10.9511 17.5229C10.9498 17.5254 10.9486 17.528 10.9473 17.5305C10.7375 17.9499 10.2276 18.1199 9.8082 17.9102C9.63438 17.8233 9.50341 17.6848 9.42454 17.5225C9.40249 17.4784 9.39665 17.4667 9.28491 17.243C9.12578 16.9246 9.12578 16.9246 8.89417 16.4613C8.48208 15.637 8.04718 14.7675 7.60913 13.8926L2.88659 4.44685V16.3018H4.07517V17.9998H2.86102e-05V16.3018H1.18861L1.18861 1.69925H2.86102e-05V0.0012722H2.00035C2.03182 -0.000417709 2.06338 -0.000431061 2.09488 0.0012722H4.07517V1.69925H3.41125L9.12766 13.1328C9.48675 13.8501 9.84385 14.5639 10.188 15.2522L16.9645 1.69925H16.3006V0.0012722H18.2809C18.3124 -0.000431061 18.3439 -0.000417709 18.3754 0.0012722H20.3757V1.69925H19.1871L19.1871 16.3018H20.3757V17.9998H16.3006V16.3018H17.4892Z" fill="#7E8B9C"/>
</svg>
