<svg width="425" height="258" viewBox="0 0 425 258" fill="none" xmlns="http://www.w3.org/2000/svg">
<path d="M19.4018 245.663H21.2618V251.312H22.9718V245.663H24.8318V244.292H19.4018V245.663ZM25.35 248.512C25.35 250.272 26.44 251.393 27.8 251.393C28.63 251.393 29.22 251.012 29.53 250.522V251.312H31.24V245.732H29.53V246.522C29.23 246.033 28.64 245.652 27.81 245.652C26.44 245.652 25.35 246.752 25.35 248.512ZM29.53 248.522C29.53 249.412 28.96 249.902 28.31 249.902C27.67 249.902 27.09 249.402 27.09 248.512C27.09 247.622 27.67 247.142 28.31 247.142C28.96 247.142 29.53 247.632 29.53 248.522ZM34.1871 248.722C34.1871 247.762 34.6571 247.482 35.4671 247.482H35.9371V245.672C35.1871 245.672 34.5771 246.072 34.1871 246.662V245.732H32.4771V251.312H34.1871V248.722ZM36.4144 248.512C36.4144 250.272 37.5044 251.393 38.8744 251.393C39.6944 251.393 40.2844 251.022 40.5944 250.512V251.312H42.3044V243.912H40.5944V246.502C40.2544 245.992 39.6144 245.652 38.8744 245.652C37.5044 245.652 36.4144 246.752 36.4144 248.512ZM40.5944 248.522C40.5944 249.412 40.0244 249.902 39.3744 249.902C38.7344 249.902 38.1544 249.402 38.1544 248.512C38.1544 247.622 38.7344 247.142 39.3744 247.142C40.0244 247.142 40.5944 247.632 40.5944 248.522ZM43.5415 251.312H45.2515V245.732H43.5415V251.312ZM44.4015 245.152C45.0015 245.152 45.4115 244.742 45.4115 244.232C45.4115 243.712 45.0015 243.302 44.4015 243.302C43.7915 243.302 43.3815 243.712 43.3815 244.232C43.3815 244.742 43.7915 245.152 44.4015 245.152ZM46.1508 248.512C46.1508 250.272 47.2408 251.393 48.6108 251.393C49.4308 251.393 50.0208 251.002 50.3308 250.512V251.302C50.3308 252.243 49.8208 252.583 49.1708 252.583C48.5808 252.583 48.1608 252.313 48.0508 251.893H46.3608C46.5108 253.223 47.5908 254.063 49.2508 254.063C51.1808 254.063 52.0408 252.793 52.0408 251.302V245.732H50.3308V246.522C50.0308 246.022 49.4308 245.652 48.6108 245.652C47.2408 245.652 46.1508 246.752 46.1508 248.512ZM50.3308 248.522C50.3308 249.412 49.7608 249.902 49.1108 249.902C48.4708 249.902 47.8908 249.402 47.8908 248.512C47.8908 247.622 48.4708 247.142 49.1108 247.142C49.7608 247.142 50.3308 247.632 50.3308 248.522ZM54.9879 248.722C54.9879 247.762 55.4579 247.482 56.2679 247.482H56.7379V245.672C55.9879 245.672 55.3779 246.072 54.9879 246.662V245.732H53.2779V251.312H54.9879V248.722ZM57.2152 248.512C57.2152 250.272 58.3052 251.393 59.6652 251.393C60.4952 251.393 61.0852 251.012 61.3952 250.522V251.312H63.1052V245.732H61.3952V246.522C61.0952 246.033 60.5052 245.652 59.6752 245.652C58.3052 245.652 57.2152 246.752 57.2152 248.512ZM61.3952 248.522C61.3952 249.412 60.8252 249.902 60.1752 249.902C59.5352 249.902 58.9552 249.402 58.9552 248.512C58.9552 247.622 59.5352 247.142 60.1752 247.142C60.8252 247.142 61.3952 247.632 61.3952 248.522ZM64.0023 248.512C64.0023 250.272 65.0923 251.393 66.4623 251.393C67.2823 251.393 67.8723 251.022 68.1823 250.512V251.312H69.8923V243.912H68.1823V246.502C67.8423 245.992 67.2023 245.652 66.4623 245.652C65.0923 245.652 64.0023 246.752 64.0023 248.512ZM68.1823 248.522C68.1823 249.412 67.6123 249.902 66.9623 249.902C66.3223 249.902 65.7423 249.402 65.7423 248.512C65.7423 247.622 66.3223 247.142 66.9623 247.142C67.6123 247.142 68.1823 247.632 68.1823 248.522ZM73.5894 247.022C74.1594 247.022 74.6394 247.372 74.6394 247.982H72.4994C72.5994 247.362 73.0294 247.022 73.5894 247.022ZM76.2594 249.462H74.4394C74.2994 249.762 74.0294 250.002 73.5494 250.002C72.9994 250.002 72.5494 249.662 72.4894 248.932H76.3594C76.3794 248.762 76.3894 248.592 76.3894 248.432C76.3894 246.732 75.2394 245.652 73.6094 245.652C71.9494 245.652 70.7894 246.752 70.7894 248.522C70.7894 250.292 71.9694 251.393 73.6094 251.393C74.9994 251.393 75.9894 250.552 76.2594 249.462Z" fill="#2582FF"/>
<path opacity="0.5" d="M134.482 251.449H136.292L133.752 244.429H131.772L129.232 251.449H131.022L131.442 250.209H134.062L134.482 251.449ZM133.622 248.889H131.892L132.752 246.319L133.622 248.889ZM144.755 251.449H146.455V248.189C146.455 246.689 145.565 245.809 144.185 245.809C143.375 245.809 142.675 246.259 142.305 246.849C141.925 246.179 141.245 245.809 140.405 245.809C139.675 245.809 139.105 246.119 138.775 246.569V245.869H137.065V251.449H138.775V248.419C138.775 247.689 139.195 247.289 139.845 247.289C140.495 247.289 140.915 247.689 140.915 248.419V251.449H142.615V248.419C142.615 247.689 143.035 247.289 143.685 247.289C144.335 247.289 144.755 247.689 144.755 248.419V251.449ZM147.311 248.649C147.311 250.409 148.401 251.529 149.761 251.529C150.591 251.529 151.181 251.149 151.491 250.659V251.449H153.201V245.869H151.491V246.659C151.191 246.169 150.601 245.789 149.771 245.789C148.401 245.789 147.311 246.889 147.311 248.649ZM151.491 248.659C151.491 249.549 150.921 250.039 150.271 250.039C149.631 250.039 149.051 249.539 149.051 248.649C149.051 247.759 149.631 247.279 150.271 247.279C150.921 247.279 151.491 247.769 151.491 248.659ZM158.408 245.869H154.148V247.279H156.448L154.128 250.089V251.449H158.458V250.039H156.038L158.408 247.229V245.869ZM164.859 248.659C164.859 246.889 163.599 245.789 161.959 245.789C160.329 245.789 159.059 246.889 159.059 248.659C159.059 250.429 160.299 251.529 161.939 251.529C163.579 251.529 164.859 250.429 164.859 248.659ZM160.799 248.659C160.799 247.709 161.339 247.269 161.959 247.269C162.559 247.269 163.119 247.709 163.119 248.659C163.119 249.599 162.549 250.049 161.939 250.049C161.319 250.049 160.799 249.599 160.799 248.659ZM169.616 251.449H171.316V248.189C171.316 246.689 170.456 245.809 169.166 245.809C168.416 245.809 167.816 246.139 167.476 246.609V245.869H165.766V251.449H167.476V248.419C167.476 247.659 167.896 247.239 168.546 247.239C169.196 247.239 169.616 247.659 169.616 248.419V251.449ZM179.724 249.359C179.724 247.009 176.254 247.559 176.254 246.339C176.254 245.899 176.564 245.689 176.974 245.699C177.434 245.709 177.754 245.979 177.784 246.429H179.634C179.564 245.089 178.534 244.329 177.004 244.329C175.534 244.329 174.444 245.069 174.444 246.399C174.424 248.889 177.934 248.189 177.934 249.489C177.934 249.899 177.614 250.149 177.114 250.149C176.634 250.149 176.294 249.889 176.244 249.349H174.424C174.474 250.769 175.654 251.519 177.164 251.519C178.804 251.519 179.724 250.539 179.724 249.359ZM180.666 246.209H182.336C182.366 245.809 182.566 245.409 183.116 245.409C183.576 245.409 183.866 245.679 183.866 246.169C183.866 246.829 183.306 246.969 182.726 246.969H182.406V248.359H182.726C183.616 248.359 184.006 248.619 184.006 249.269C184.006 249.749 183.716 250.089 183.186 250.089C182.556 250.089 182.246 249.709 182.236 249.139H180.576C180.626 250.789 181.726 251.509 183.246 251.509C184.776 251.509 185.656 250.629 185.656 249.399C185.656 248.439 185.156 247.879 184.426 247.639V247.599C184.926 247.429 185.526 246.919 185.526 245.959C185.526 244.859 184.696 243.979 183.156 243.979C181.666 243.979 180.726 244.769 180.666 246.209Z" fill="#354049"/>
<path opacity="0.5" d="M236.848 244.349C234.748 244.349 233.278 245.829 233.278 247.929C233.278 250.029 234.758 251.499 236.858 251.499C238.708 251.499 239.878 250.289 240.238 249.079V247.489H236.518V248.749H238.688C238.428 249.539 237.838 249.989 236.988 249.989C235.758 249.989 235.018 249.229 235.018 247.929C235.018 246.709 235.748 245.929 236.848 245.929C237.488 245.929 237.968 246.179 238.228 246.649H240.118C239.748 245.209 238.528 244.349 236.848 244.349ZM246.645 248.659C246.645 246.889 245.385 245.789 243.745 245.789C242.115 245.789 240.845 246.889 240.845 248.659C240.845 250.429 242.085 251.529 243.725 251.529C245.365 251.529 246.645 250.429 246.645 248.659ZM242.585 248.659C242.585 247.709 243.125 247.269 243.745 247.269C244.345 247.269 244.905 247.709 244.905 248.659C244.905 249.599 244.335 250.049 243.725 250.049C243.105 250.049 242.585 249.599 242.585 248.659ZM253.012 248.659C253.012 246.889 251.752 245.789 250.112 245.789C248.482 245.789 247.212 246.889 247.212 248.659C247.212 250.429 248.452 251.529 250.092 251.529C251.732 251.529 253.012 250.429 253.012 248.659ZM248.952 248.659C248.952 247.709 249.492 247.269 250.112 247.269C250.712 247.269 251.272 247.709 251.272 248.659C251.272 249.599 250.702 250.049 250.092 250.049C249.472 250.049 248.952 249.599 248.952 248.659ZM253.579 248.649C253.579 250.409 254.669 251.529 256.039 251.529C256.859 251.529 257.449 251.139 257.759 250.649V251.439C257.759 252.379 257.249 252.719 256.599 252.719C256.009 252.719 255.589 252.449 255.479 252.029H253.789C253.939 253.359 255.019 254.199 256.679 254.199C258.609 254.199 259.469 252.929 259.469 251.439V245.869H257.759V246.659C257.459 246.159 256.859 245.789 256.039 245.789C254.669 245.789 253.579 246.889 253.579 248.649ZM257.759 248.659C257.759 249.549 257.189 250.039 256.539 250.039C255.899 250.039 255.319 249.539 255.319 248.649C255.319 247.759 255.899 247.279 256.539 247.279C257.189 247.279 257.759 247.769 257.759 248.659ZM260.707 251.449H262.417V244.049H260.707V251.449ZM266.116 247.159C266.686 247.159 267.166 247.509 267.166 248.119H265.026C265.126 247.499 265.556 247.159 266.116 247.159ZM268.786 249.599H266.966C266.826 249.899 266.556 250.139 266.076 250.139C265.526 250.139 265.076 249.799 265.016 249.069H268.886C268.906 248.899 268.916 248.729 268.916 248.569C268.916 246.869 267.766 245.789 266.136 245.789C264.476 245.789 263.316 246.889 263.316 248.659C263.316 250.429 264.496 251.529 266.136 251.529C267.526 251.529 268.516 250.689 268.786 249.599ZM271.647 247.929C271.647 250.029 273.107 251.499 275.177 251.499C276.847 251.499 278.107 250.569 278.507 249.049H276.627C276.337 249.649 275.807 249.949 275.157 249.949C274.107 249.949 273.387 249.169 273.387 247.929C273.387 246.689 274.107 245.909 275.157 245.909C275.807 245.909 276.337 246.209 276.627 246.809H278.507C278.107 245.289 276.847 244.349 275.177 244.349C273.107 244.349 271.647 245.829 271.647 247.929ZM279.554 251.449H281.264V244.049H279.554V251.449ZM287.963 248.659C287.963 246.889 286.703 245.789 285.063 245.789C283.433 245.789 282.163 246.889 282.163 248.659C282.163 250.429 283.403 251.529 285.043 251.529C286.683 251.529 287.963 250.429 287.963 248.659ZM283.903 248.659C283.903 247.709 284.443 247.269 285.063 247.269C285.663 247.269 286.223 247.709 286.223 248.659C286.223 249.599 285.653 250.049 285.043 250.049C284.423 250.049 283.903 249.599 283.903 248.659ZM294.381 245.869H292.671V248.899C292.671 249.659 292.251 250.079 291.591 250.079C290.951 250.079 290.521 249.659 290.521 248.899V245.869H288.821V249.129C288.821 250.619 289.691 251.509 290.981 251.509C291.731 251.509 292.331 251.169 292.671 250.689V251.449H294.381V245.869ZM295.269 248.649C295.269 250.409 296.359 251.529 297.729 251.529C298.549 251.529 299.139 251.159 299.449 250.649V251.449H301.159V244.049H299.449V246.639C299.109 246.129 298.469 245.789 297.729 245.789C296.359 245.789 295.269 246.889 295.269 248.649ZM299.449 248.659C299.449 249.549 298.879 250.039 298.229 250.039C297.589 250.039 297.009 249.539 297.009 248.649C297.009 247.759 297.589 247.279 298.229 247.279C298.879 247.279 299.449 247.769 299.449 248.659Z" fill="#354049"/>
<path opacity="0.5" d="M367.737 251.449H369.547L367.007 244.429H365.027L362.487 251.449H364.277L364.697 250.209H367.317L367.737 251.449ZM366.877 248.889H365.147L366.007 246.319L366.877 248.889ZM374.29 245.869H370.03V247.279H372.33L370.01 250.089V251.449H374.34V250.039H371.92L374.29 247.229V245.869ZM380.791 245.869H379.081V248.899C379.081 249.659 378.661 250.079 378.001 250.079C377.361 250.079 376.931 249.659 376.931 248.899V245.869H375.231V249.129C375.231 250.619 376.101 251.509 377.391 251.509C378.141 251.509 378.741 251.169 379.081 250.689V251.449H380.791V245.869ZM383.729 248.859C383.729 247.899 384.199 247.619 385.009 247.619H385.479V245.809C384.729 245.809 384.119 246.209 383.729 246.799V245.869H382.019V251.449H383.729V248.859ZM388.756 247.159C389.326 247.159 389.806 247.509 389.806 248.119H387.666C387.766 247.499 388.196 247.159 388.756 247.159ZM391.426 249.599H389.606C389.466 249.899 389.196 250.139 388.716 250.139C388.166 250.139 387.716 249.799 387.656 249.069H391.526C391.546 248.899 391.556 248.729 391.556 248.569C391.556 246.869 390.406 245.789 388.776 245.789C387.116 245.789 385.956 246.889 385.956 248.659C385.956 250.429 387.136 251.529 388.776 251.529C390.166 251.529 391.156 250.689 391.426 249.599Z" fill="#354049"/>
<rect x="12.5039" y="129" width="72.2222" height="77.1589" fill="#2582FF"/>
<rect x="120.832" y="36.1681" width="72.2222" height="169.991" fill="#B9BECA" fill-opacity="0.5"/>
<rect x="229.166" width="72.2222" height="206.159" fill="#B9BECA" fill-opacity="0.5"/>
<rect x="337.498" y="73.5421" width="72.2222" height="132.617" fill="#B9BECA" fill-opacity="0.5"/>
</svg>
