<svg width="777" height="351" viewBox="0 0 777 351" fill="none" xmlns="http://www.w3.org/2000/svg">
<rect width="777" height="351" rx="6" fill="#F4F6F8"/>
<path d="M324.402 290.35H326.262V296H327.972V290.35H329.832V288.98H324.402V290.35ZM330.35 293.2C330.35 294.96 331.44 296.08 332.8 296.08C333.63 296.08 334.22 295.7 334.53 295.21V296H336.24V290.42H334.53V291.21C334.23 290.72 333.64 290.34 332.81 290.34C331.44 290.34 330.35 291.44 330.35 293.2ZM334.53 293.21C334.53 294.1 333.96 294.59 333.31 294.59C332.67 294.59 332.09 294.09 332.09 293.2C332.09 292.31 332.67 291.83 333.31 291.83C333.96 291.83 334.53 292.32 334.53 293.21ZM339.187 293.41C339.187 292.45 339.657 292.17 340.467 292.17H340.937V290.36C340.187 290.36 339.577 290.76 339.187 291.35V290.42H337.477V296H339.187V293.41ZM341.414 293.2C341.414 294.96 342.504 296.08 343.874 296.08C344.694 296.08 345.284 295.71 345.594 295.2V296H347.304V288.6H345.594V291.19C345.254 290.68 344.614 290.34 343.874 290.34C342.504 290.34 341.414 291.44 341.414 293.2ZM345.594 293.21C345.594 294.1 345.024 294.59 344.374 294.59C343.734 294.59 343.154 294.09 343.154 293.2C343.154 292.31 343.734 291.83 344.374 291.83C345.024 291.83 345.594 292.32 345.594 293.21ZM348.542 296H350.252V290.42H348.542V296ZM349.402 289.84C350.002 289.84 350.412 289.43 350.412 288.92C350.412 288.4 350.002 287.99 349.402 287.99C348.792 287.99 348.382 288.4 348.382 288.92C348.382 289.43 348.792 289.84 349.402 289.84ZM351.151 293.2C351.151 294.96 352.241 296.08 353.611 296.08C354.431 296.08 355.021 295.69 355.331 295.2V295.99C355.331 296.93 354.821 297.27 354.171 297.27C353.581 297.27 353.161 297 353.051 296.58H351.361C351.511 297.91 352.591 298.75 354.251 298.75C356.181 298.75 357.041 297.48 357.041 295.99V290.42H355.331V291.21C355.031 290.71 354.431 290.34 353.611 290.34C352.241 290.34 351.151 291.44 351.151 293.2ZM355.331 293.21C355.331 294.1 354.761 294.59 354.111 294.59C353.471 294.59 352.891 294.09 352.891 293.2C352.891 292.31 353.471 291.83 354.111 291.83C354.761 291.83 355.331 292.32 355.331 293.21ZM359.988 293.41C359.988 292.45 360.458 292.17 361.268 292.17H361.738V290.36C360.988 290.36 360.378 290.76 359.988 291.35V290.42H358.278V296H359.988V293.41ZM362.215 293.2C362.215 294.96 363.305 296.08 364.665 296.08C365.495 296.08 366.085 295.7 366.395 295.21V296H368.105V290.42H366.395V291.21C366.095 290.72 365.505 290.34 364.675 290.34C363.305 290.34 362.215 291.44 362.215 293.2ZM366.395 293.21C366.395 294.1 365.825 294.59 365.175 294.59C364.535 294.59 363.955 294.09 363.955 293.2C363.955 292.31 364.535 291.83 365.175 291.83C365.825 291.83 366.395 292.32 366.395 293.21ZM369.002 293.2C369.002 294.96 370.092 296.08 371.462 296.08C372.282 296.08 372.872 295.71 373.182 295.2V296H374.892V288.6H373.182V291.19C372.842 290.68 372.202 290.34 371.462 290.34C370.092 290.34 369.002 291.44 369.002 293.2ZM373.182 293.21C373.182 294.1 372.612 294.59 371.962 294.59C371.322 294.59 370.742 294.09 370.742 293.2C370.742 292.31 371.322 291.83 371.962 291.83C372.612 291.83 373.182 292.32 373.182 293.21ZM378.589 291.71C379.159 291.71 379.639 292.06 379.639 292.67H377.499C377.599 292.05 378.029 291.71 378.589 291.71ZM381.259 294.15H379.439C379.299 294.45 379.029 294.69 378.549 294.69C377.999 294.69 377.549 294.35 377.489 293.62H381.359C381.379 293.45 381.389 293.28 381.389 293.12C381.389 291.42 380.239 290.34 378.609 290.34C376.949 290.34 375.789 291.44 375.789 293.21C375.789 294.98 376.969 296.08 378.609 296.08C379.999 296.08 380.989 295.24 381.259 294.15Z" fill="#2582FF"/>
<path d="M343.44 281.812H344.336V280.678C346.548 280.58 347.752 279.25 347.752 277.738C347.752 275.568 345.834 275.162 344.336 274.742V272.572C344.728 272.712 344.994 273.034 345.05 273.552H347.612C347.486 271.774 346.254 270.794 344.336 270.64V269.506H343.44V270.64C341.536 270.766 340.066 271.802 340.066 273.552C340.066 275.75 341.942 276.17 343.44 276.562V278.774C342.964 278.62 342.684 278.27 342.628 277.696H340.08C340.15 279.502 341.536 280.496 343.44 280.664V281.812ZM345.246 277.822C345.246 278.34 344.896 278.718 344.336 278.816V276.828C344.882 277.038 345.246 277.318 345.246 277.822ZM342.6 273.44C342.6 272.894 342.922 272.586 343.44 272.502V274.448C342.936 274.224 342.6 273.93 342.6 273.44ZM349.953 270.36V276.45H352.263C352.389 275.974 352.781 275.61 353.453 275.61C354.307 275.61 354.769 276.1 354.769 277.024C354.769 277.906 354.377 278.564 353.467 278.564C352.683 278.564 352.277 278.088 352.179 277.556H349.841C349.925 279.32 351.255 280.594 353.551 280.594C355.819 280.594 357.079 279.194 357.079 277.038C357.079 275.386 356.225 273.692 353.999 273.692C353.187 273.692 352.487 273.986 352.123 274.392V272.46H356.491V270.36H349.953ZM358.764 277.598C358.876 279.166 359.954 280.636 362.18 280.636C364.924 280.636 365.736 278.704 365.736 275.218C365.736 272.11 364.924 270.136 362.012 270.136C359.842 270.136 358.498 271.48 358.498 273.552C358.498 275.722 359.842 276.814 361.592 276.814C362.46 276.814 363.216 276.478 363.622 275.904C363.622 277.85 363.272 278.704 362.264 278.704C361.522 278.704 361.116 278.312 360.976 277.598H358.764ZM362.138 274.924C361.2 274.924 360.752 274.35 360.752 273.58C360.752 272.726 361.256 272.194 362.082 272.194C362.894 272.194 363.426 272.684 363.426 273.594C363.426 274.42 362.922 274.924 362.138 274.924Z" fill="#2582FF"/>
<path opacity="0.5" d="M439.482 296.117H441.292L438.752 289.097H436.772L434.232 296.117H436.022L436.442 294.877H439.062L439.482 296.117ZM438.622 293.557H436.892L437.752 290.987L438.622 293.557ZM449.755 296.117H451.455V292.857C451.455 291.357 450.565 290.477 449.185 290.477C448.375 290.477 447.675 290.927 447.305 291.517C446.925 290.847 446.245 290.477 445.405 290.477C444.675 290.477 444.105 290.787 443.775 291.237V290.537H442.065V296.117H443.775V293.087C443.775 292.357 444.195 291.957 444.845 291.957C445.495 291.957 445.915 292.357 445.915 293.087V296.117H447.615V293.087C447.615 292.357 448.035 291.957 448.685 291.957C449.335 291.957 449.755 292.357 449.755 293.087V296.117ZM452.311 293.317C452.311 295.077 453.401 296.197 454.761 296.197C455.591 296.197 456.181 295.817 456.491 295.327V296.117H458.201V290.537H456.491V291.327C456.191 290.837 455.601 290.457 454.771 290.457C453.401 290.457 452.311 291.557 452.311 293.317ZM456.491 293.327C456.491 294.217 455.921 294.707 455.271 294.707C454.631 294.707 454.051 294.207 454.051 293.317C454.051 292.427 454.631 291.947 455.271 291.947C455.921 291.947 456.491 292.437 456.491 293.327ZM463.408 290.537H459.148V291.947H461.448L459.128 294.757V296.117H463.458V294.707H461.038L463.408 291.897V290.537ZM469.859 293.327C469.859 291.557 468.599 290.457 466.959 290.457C465.329 290.457 464.059 291.557 464.059 293.327C464.059 295.097 465.299 296.197 466.939 296.197C468.579 296.197 469.859 295.097 469.859 293.327ZM465.799 293.327C465.799 292.377 466.339 291.937 466.959 291.937C467.559 291.937 468.119 292.377 468.119 293.327C468.119 294.267 467.549 294.717 466.939 294.717C466.319 294.717 465.799 294.267 465.799 293.327ZM474.616 296.117H476.316V292.857C476.316 291.357 475.456 290.477 474.166 290.477C473.416 290.477 472.816 290.807 472.476 291.277V290.537H470.766V296.117H472.476V293.087C472.476 292.327 472.896 291.907 473.546 291.907C474.196 291.907 474.616 292.327 474.616 293.087V296.117ZM484.724 294.027C484.724 291.677 481.254 292.227 481.254 291.007C481.254 290.567 481.564 290.357 481.974 290.367C482.434 290.377 482.754 290.647 482.784 291.097H484.634C484.564 289.757 483.534 288.997 482.004 288.997C480.534 288.997 479.444 289.737 479.444 291.067C479.424 293.557 482.934 292.857 482.934 294.157C482.934 294.567 482.614 294.817 482.114 294.817C481.634 294.817 481.294 294.557 481.244 294.017H479.424C479.474 295.437 480.654 296.187 482.164 296.187C483.804 296.187 484.724 295.207 484.724 294.027ZM485.666 290.877H487.336C487.366 290.477 487.566 290.077 488.116 290.077C488.576 290.077 488.866 290.347 488.866 290.837C488.866 291.497 488.306 291.637 487.726 291.637H487.406V293.027H487.726C488.616 293.027 489.006 293.287 489.006 293.937C489.006 294.417 488.716 294.757 488.186 294.757C487.556 294.757 487.246 294.377 487.236 293.807H485.576C485.626 295.457 486.726 296.177 488.246 296.177C489.776 296.177 490.656 295.297 490.656 294.067C490.656 293.107 490.156 292.547 489.426 292.307V292.267C489.926 292.097 490.526 291.587 490.526 290.627C490.526 289.527 489.696 288.647 488.156 288.647C486.666 288.647 485.726 289.437 485.666 290.877Z" fill="#354049"/>
<path opacity="0.5" d="M450.827 281.812H451.723V280.678C453.935 280.58 455.139 279.25 455.139 277.738C455.139 275.568 453.221 275.162 451.723 274.742V272.572C452.115 272.712 452.381 273.034 452.437 273.552H454.999C454.873 271.774 453.641 270.794 451.723 270.64V269.506H450.827V270.64C448.923 270.766 447.453 271.802 447.453 273.552C447.453 275.75 449.329 276.17 450.827 276.562V278.774C450.351 278.62 450.071 278.27 450.015 277.696H447.467C447.537 279.502 448.923 280.496 450.827 280.664V281.812ZM452.633 277.822C452.633 278.34 452.283 278.718 451.723 278.816V276.828C452.269 277.038 452.633 277.318 452.633 277.822ZM449.987 273.44C449.987 272.894 450.309 272.586 450.827 272.502V274.448C450.323 274.224 449.987 273.93 449.987 273.44ZM457.815 280.594H460.307V270.374H456.429V272.6H457.815V280.594ZM461.945 275.344C461.945 278.368 462.967 280.552 465.879 280.552C468.791 280.552 469.813 278.368 469.813 275.344C469.813 272.348 468.791 270.164 465.879 270.164C462.967 270.164 461.945 272.348 461.945 275.344ZM467.461 275.344C467.461 276.968 467.293 278.312 465.879 278.312C464.465 278.312 464.297 276.968 464.297 275.344C464.297 273.776 464.465 272.404 465.879 272.404C467.293 272.404 467.461 273.776 467.461 275.344ZM470.994 280.454H478.022V278.508H474.242C475.866 277.262 477.868 275.47 477.868 273.23C477.868 271.508 476.832 270.15 474.508 270.15C472.646 270.15 471.036 271.214 470.966 273.692H473.276C473.276 272.726 473.696 272.166 474.41 272.166C475.138 272.166 475.474 272.642 475.474 273.384C475.474 275.106 473.164 276.884 470.994 278.676V280.454Z" fill="#354049"/>
<path opacity="0.5" d="M541.848 289.017C539.748 289.017 538.278 290.497 538.278 292.597C538.278 294.697 539.758 296.167 541.858 296.167C543.708 296.167 544.878 294.957 545.238 293.747V292.157H541.518V293.417H543.688C543.428 294.207 542.838 294.657 541.988 294.657C540.758 294.657 540.018 293.897 540.018 292.597C540.018 291.377 540.748 290.597 541.848 290.597C542.488 290.597 542.968 290.847 543.228 291.317H545.118C544.748 289.877 543.528 289.017 541.848 289.017ZM551.645 293.327C551.645 291.557 550.385 290.457 548.745 290.457C547.115 290.457 545.845 291.557 545.845 293.327C545.845 295.097 547.085 296.197 548.725 296.197C550.365 296.197 551.645 295.097 551.645 293.327ZM547.585 293.327C547.585 292.377 548.125 291.937 548.745 291.937C549.345 291.937 549.905 292.377 549.905 293.327C549.905 294.267 549.335 294.717 548.725 294.717C548.105 294.717 547.585 294.267 547.585 293.327ZM558.012 293.327C558.012 291.557 556.752 290.457 555.112 290.457C553.482 290.457 552.212 291.557 552.212 293.327C552.212 295.097 553.452 296.197 555.092 296.197C556.732 296.197 558.012 295.097 558.012 293.327ZM553.952 293.327C553.952 292.377 554.492 291.937 555.112 291.937C555.712 291.937 556.272 292.377 556.272 293.327C556.272 294.267 555.702 294.717 555.092 294.717C554.472 294.717 553.952 294.267 553.952 293.327ZM558.579 293.317C558.579 295.077 559.669 296.197 561.039 296.197C561.859 296.197 562.449 295.807 562.759 295.317V296.107C562.759 297.047 562.249 297.387 561.599 297.387C561.009 297.387 560.589 297.117 560.479 296.697H558.789C558.939 298.027 560.019 298.867 561.679 298.867C563.609 298.867 564.469 297.597 564.469 296.107V290.537H562.759V291.327C562.459 290.827 561.859 290.457 561.039 290.457C559.669 290.457 558.579 291.557 558.579 293.317ZM562.759 293.327C562.759 294.217 562.189 294.707 561.539 294.707C560.899 294.707 560.319 294.207 560.319 293.317C560.319 292.427 560.899 291.947 561.539 291.947C562.189 291.947 562.759 292.437 562.759 293.327ZM565.707 296.117H567.417V288.717H565.707V296.117ZM571.116 291.827C571.686 291.827 572.166 292.177 572.166 292.787H570.026C570.126 292.167 570.556 291.827 571.116 291.827ZM573.786 294.267H571.966C571.826 294.567 571.556 294.807 571.076 294.807C570.526 294.807 570.076 294.467 570.016 293.737H573.886C573.906 293.567 573.916 293.397 573.916 293.237C573.916 291.537 572.766 290.457 571.136 290.457C569.476 290.457 568.316 291.557 568.316 293.327C568.316 295.097 569.496 296.197 571.136 296.197C572.526 296.197 573.516 295.357 573.786 294.267ZM576.647 292.597C576.647 294.697 578.107 296.167 580.177 296.167C581.847 296.167 583.107 295.237 583.507 293.717H581.627C581.337 294.317 580.807 294.617 580.157 294.617C579.107 294.617 578.387 293.837 578.387 292.597C578.387 291.357 579.107 290.577 580.157 290.577C580.807 290.577 581.337 290.877 581.627 291.477H583.507C583.107 289.957 581.847 289.017 580.177 289.017C578.107 289.017 576.647 290.497 576.647 292.597ZM584.554 296.117H586.264V288.717H584.554V296.117ZM592.963 293.327C592.963 291.557 591.703 290.457 590.063 290.457C588.433 290.457 587.163 291.557 587.163 293.327C587.163 295.097 588.403 296.197 590.043 296.197C591.683 296.197 592.963 295.097 592.963 293.327ZM588.903 293.327C588.903 292.377 589.443 291.937 590.063 291.937C590.663 291.937 591.223 292.377 591.223 293.327C591.223 294.267 590.653 294.717 590.043 294.717C589.423 294.717 588.903 294.267 588.903 293.327ZM599.381 290.537H597.671V293.567C597.671 294.327 597.251 294.747 596.591 294.747C595.951 294.747 595.521 294.327 595.521 293.567V290.537H593.821V293.797C593.821 295.287 594.691 296.177 595.981 296.177C596.731 296.177 597.331 295.837 597.671 295.357V296.117H599.381V290.537ZM600.269 293.317C600.269 295.077 601.359 296.197 602.729 296.197C603.549 296.197 604.139 295.827 604.449 295.317V296.117H606.159V288.717H604.449V291.307C604.109 290.797 603.469 290.457 602.729 290.457C601.359 290.457 600.269 291.557 600.269 293.317ZM604.449 293.327C604.449 294.217 603.879 294.707 603.229 294.707C602.589 294.707 602.009 294.207 602.009 293.317C602.009 292.427 602.589 291.947 603.229 291.947C603.879 291.947 604.449 292.437 604.449 293.327Z" fill="#354049"/>
<path opacity="0.5" d="M560.875 281.812H561.771V280.678C563.983 280.58 565.187 279.25 565.187 277.738C565.187 275.568 563.269 275.162 561.771 274.742V272.572C562.163 272.712 562.429 273.034 562.485 273.552H565.047C564.921 271.774 563.689 270.794 561.771 270.64V269.506H560.875V270.64C558.971 270.766 557.501 271.802 557.501 273.552C557.501 275.75 559.377 276.17 560.875 276.562V278.774C560.399 278.62 560.119 278.27 560.063 277.696H557.515C557.585 279.502 558.971 280.496 560.875 280.664V281.812ZM562.681 277.822C562.681 278.34 562.331 278.718 561.771 278.816V276.828C562.317 277.038 562.681 277.318 562.681 277.822ZM560.035 273.44C560.035 272.894 560.357 272.586 560.875 272.502V274.448C560.371 274.224 560.035 273.93 560.035 273.44ZM567.864 280.594H570.356V270.374H566.478V272.6H567.864V280.594ZM572.078 273.258H574.416C574.458 272.698 574.738 272.138 575.508 272.138C576.152 272.138 576.558 272.516 576.558 273.202C576.558 274.126 575.774 274.322 574.962 274.322H574.514V276.268H574.962C576.208 276.268 576.754 276.632 576.754 277.542C576.754 278.214 576.348 278.69 575.606 278.69C574.724 278.69 574.29 278.158 574.276 277.36H571.952C572.022 279.67 573.562 280.678 575.69 280.678C577.832 280.678 579.064 279.446 579.064 277.724C579.064 276.38 578.364 275.596 577.342 275.26V275.204C578.042 274.966 578.882 274.252 578.882 272.908C578.882 271.368 577.72 270.136 575.564 270.136C573.478 270.136 572.162 271.242 572.078 273.258ZM580.386 280.454H587.414V278.508H583.634C585.258 277.262 587.26 275.47 587.26 273.23C587.26 271.508 586.224 270.15 583.9 270.15C582.038 270.15 580.428 271.214 580.358 273.692H582.668C582.668 272.726 583.088 272.166 583.802 272.166C584.53 272.166 584.866 272.642 584.866 273.384C584.866 275.106 582.556 276.884 580.386 278.676V280.454Z" fill="#354049"/>
<path opacity="0.5" d="M672.737 296.117H674.547L672.007 289.097H670.027L667.487 296.117H669.277L669.697 294.877H672.317L672.737 296.117ZM671.877 293.557H670.147L671.007 290.987L671.877 293.557ZM679.29 290.537H675.03V291.947H677.33L675.01 294.757V296.117H679.34V294.707H676.92L679.29 291.897V290.537ZM685.791 290.537H684.081V293.567C684.081 294.327 683.661 294.747 683.001 294.747C682.361 294.747 681.931 294.327 681.931 293.567V290.537H680.231V293.797C680.231 295.287 681.101 296.177 682.391 296.177C683.141 296.177 683.741 295.837 684.081 295.357V296.117H685.791V290.537ZM688.729 293.527C688.729 292.567 689.199 292.287 690.009 292.287H690.479V290.477C689.729 290.477 689.119 290.877 688.729 291.467V290.537H687.019V296.117H688.729V293.527ZM693.756 291.827C694.326 291.827 694.806 292.177 694.806 292.787H692.666C692.766 292.167 693.196 291.827 693.756 291.827ZM696.426 294.267H694.606C694.466 294.567 694.196 294.807 693.716 294.807C693.166 294.807 692.716 294.467 692.656 293.737H696.526C696.546 293.567 696.556 293.397 696.556 293.237C696.556 291.537 695.406 290.457 693.776 290.457C692.116 290.457 690.956 291.557 690.956 293.327C690.956 295.097 692.136 296.197 693.776 296.197C695.166 296.197 696.156 295.357 696.426 294.267Z" fill="#354049"/>
<path opacity="0.5" d="M672.62 281.812H673.516V280.678C675.728 280.58 676.932 279.25 676.932 277.738C676.932 275.568 675.014 275.162 673.516 274.742V272.572C673.908 272.712 674.174 273.034 674.23 273.552H676.792C676.666 271.774 675.434 270.794 673.516 270.64V269.506H672.62V270.64C670.716 270.766 669.246 271.802 669.246 273.552C669.246 275.75 671.122 276.17 672.62 276.562V278.774C672.144 278.62 671.864 278.27 671.808 277.696H669.26C669.33 279.502 670.716 280.496 672.62 280.664V281.812ZM674.426 277.822C674.426 278.34 674.076 278.718 673.516 278.816V276.828C674.062 277.038 674.426 277.318 674.426 277.822ZM671.78 273.44C671.78 272.894 672.102 272.586 672.62 272.502V274.448C672.116 274.224 671.78 273.93 671.78 273.44ZM680.154 275.106C679.174 275.568 678.6 276.436 678.6 277.598C678.6 279.642 680.294 280.79 682.38 280.79C684.466 280.79 686.16 279.642 686.16 277.598C686.16 276.436 685.586 275.582 684.592 275.106C685.362 274.7 685.908 273.958 685.908 272.908C685.908 271.452 684.788 270.164 682.38 270.164C679.972 270.164 678.838 271.452 678.838 272.908C678.838 273.986 679.37 274.686 680.154 275.106ZM682.38 274.462C681.694 274.462 681.176 274.028 681.176 273.286C681.176 272.502 681.666 272.068 682.38 272.068C683.094 272.068 683.584 272.502 683.584 273.272C683.584 274.014 683.066 274.462 682.38 274.462ZM682.38 276.142C683.234 276.142 683.822 276.646 683.822 277.486C683.822 278.242 683.29 278.83 682.38 278.83C681.456 278.83 680.91 278.256 680.91 277.486C680.91 276.618 681.526 276.142 682.38 276.142ZM687.917 277.598C688.029 279.166 689.107 280.636 691.333 280.636C694.077 280.636 694.889 278.704 694.889 275.218C694.889 272.11 694.077 270.136 691.165 270.136C688.995 270.136 687.651 271.48 687.651 273.552C687.651 275.722 688.995 276.814 690.745 276.814C691.613 276.814 692.369 276.478 692.775 275.904C692.775 277.85 692.425 278.704 691.417 278.704C690.675 278.704 690.269 278.312 690.129 277.598H687.917ZM691.291 274.924C690.353 274.924 689.905 274.35 689.905 273.58C689.905 272.726 690.409 272.194 691.235 272.194C692.047 272.194 692.579 272.684 692.579 273.594C692.579 274.42 692.075 274.924 691.291 274.924Z" fill="#354049"/>
<rect x="317.504" y="192.5" width="72.2222" height="66.0935" fill="#2582FF"/>
<rect x="425.832" y="112.981" width="72.2222" height="145.612" fill="#B9BECA" fill-opacity="0.5"/>
<rect x="534.166" y="82" width="72.2222" height="176.593" fill="#B9BECA" fill-opacity="0.5"/>
<rect x="642.498" y="144.995" width="72.2222" height="113.598" fill="#B9BECA" fill-opacity="0.5"/>
</svg>
