<svg width="22" height="18" viewBox="0 0 22 18" fill="none" xmlns="http://www.w3.org/2000/svg">
<path fill-rule="evenodd" clip-rule="evenodd" d="M5.11105 7.78314C6.51796 6.92443 8.34245 6.3792 10.3502 6.30796L10.3502 6.3076C10.3502 6.30428 10.3502 6.30428 10.3501 6.29502C10.3446 5.66758 10.423 4.81942 10.6676 3.97361C11.3275 1.69185 12.9032 0.742002 15.3946 1.98936C15.7065 0.842823 16.7547 0 18.0002 0C19.4916 0 20.7002 1.20857 20.7002 2.7C20.7002 4.19143 19.4916 5.4 18.0002 5.4C16.5983 5.4 15.4463 4.33213 15.313 2.96526C13.1651 1.74352 12.0728 2.35454 11.5322 4.22365C11.3164 4.96977 11.2453 5.7394 11.2501 6.28721L11.2501 6.2924C11.2502 6.29761 11.2502 6.3028 11.2501 6.30797C13.2579 6.37923 15.0826 6.92463 16.4897 7.78358C16.9443 6.88289 17.8698 6.30036 18.9003 6.30036C20.3917 6.30036 21.6003 7.50893 21.6003 9.00036C21.6003 10.335 20.6261 11.4623 19.3215 11.6675C19.3405 11.8266 19.3502 11.9875 19.3502 12.15C19.3502 15.381 15.5216 18 10.8002 18C6.07788 18 2.25018 15.381 2.25018 12.15C2.25018 11.9874 2.25988 11.8263 2.27891 11.6671C0.973353 11.463 0 10.3354 0 8.99991C0 7.50848 1.20857 6.29991 2.7 6.29991C3.73008 6.29991 4.65616 6.88285 5.11105 7.78314ZM4.36788 8.29612C4.35179 8.27406 4.3375 8.25021 4.3253 8.22468C4.02862 7.60402 3.40039 7.19991 2.7 7.19991C1.70563 7.19991 0.9 8.00554 0.9 8.99991C0.9 9.89278 1.55226 10.646 2.42489 10.7789C2.44443 10.7819 2.46349 10.7861 2.482 10.7914C2.80879 9.85149 3.46715 8.99934 4.36788 8.29612ZM17.2327 8.29652C18.1333 8.99976 18.7917 9.8519 19.1184 10.7918C19.1367 10.7866 19.1556 10.7824 19.1749 10.7795C20.0472 10.6456 20.7003 9.89218 20.7003 9.00036C20.7003 8.00599 19.8946 7.20036 18.9003 7.20036C18.1997 7.20036 17.5725 7.6037 17.2759 8.22423C17.2635 8.25008 17.249 8.27421 17.2327 8.29652ZM16.2002 2.69339C16.2003 2.69802 16.2003 2.70266 16.2002 2.70729C16.2041 3.69831 17.0082 4.5 18.0002 4.5C18.9945 4.5 19.8002 3.69437 19.8002 2.7C19.8002 1.70563 18.9945 0.9 18.0002 0.9C17.008 0.9 16.2037 1.70206 16.2002 2.69339ZM13.759 14.3532C12.9443 14.8224 11.9046 15.087 10.8003 15.087C9.69086 15.087 8.64605 14.8199 7.82797 14.3465C7.61287 14.222 7.33758 14.2955 7.21309 14.5106C7.0886 14.7257 7.16206 15.001 7.37717 15.1254C8.33564 15.6801 9.53614 15.987 10.8003 15.987C12.0587 15.987 13.2534 15.683 14.2081 15.1331C14.4235 15.0091 14.4976 14.734 14.3735 14.5186C14.2495 14.3032 13.9744 14.2292 13.759 14.3532ZM16.2002 10.8C16.2002 9.80564 15.3942 9 14.4002 9C13.4062 9 12.6002 9.80564 12.6002 10.8C12.6002 11.795 13.4059 12.6 14.4002 12.6C15.3944 12.6 16.2002 11.795 16.2002 10.8ZM9.00018 10.8C9.00018 9.80564 8.19417 9 7.20018 9C6.20619 9 5.40018 9.80564 5.40018 10.8C5.40018 11.795 6.20592 12.6 7.20018 12.6C8.19444 12.6 9.00018 11.795 9.00018 10.8Z" fill="#7E8B9C"/>
</svg>
