<svg width="14" height="14" viewBox="0 0 14 14" fill="none" xmlns="http://www.w3.org/2000/svg">
<path fill-rule="evenodd" clip-rule="evenodd" d="M12.9812 12.9856C12.6693 13.2967 12.1636 13.294 11.8549 12.9797L9.78268 10.8696C9.47729 10.5587 9.4799 10.0596 9.78852 9.75182C10.1005 9.44072 10.6062 9.44337 10.9149 9.75771L12.9871 11.8678C13.2925 12.1787 13.2899 12.6778 12.9812 12.9856Z" fill="#93A1AF"/>
<path fill-rule="evenodd" clip-rule="evenodd" d="M1.53852 6.06304C1.53852 8.57443 3.60498 10.6103 6.15408 10.6103C8.70318 10.6103 10.7696 8.57443 10.7696 6.06304C10.7696 3.55164 8.70318 1.51576 6.15408 1.51576C3.60498 1.51576 1.53852 3.55164 1.53852 6.06304ZM6.15408 0C2.75527 0 0 2.71451 0 6.06304C0 9.41156 2.75527 12.1261 6.15408 12.1261C9.55288 12.1261 12.3082 9.41156 12.3082 6.06304C12.3082 2.71451 9.55288 0 6.15408 0Z" fill="#93A1AF"/>
</svg>
