<?xml version="1.0" encoding="UTF-8"?>
<svg width="92px" height="118px" viewBox="0 0 92 118" version="1.1" xmlns="http://www.w3.org/2000/svg" xmlns:xlink="http://www.w3.org/1999/xlink">
    <!-- Generator: Sketch 53.2 (72643) - https://sketchapp.com -->
    <title>Group 37</title>
    <desc>Created with Sketch.</desc>
    <defs>
        <linearGradient x1="80.3935651%" y1="94.5937616%" x2="19.6064349%" y2="12.652711%" id="linearGradient-1">
            <stop stop-color="#BDD9FF" offset="0%"></stop>
            <stop stop-color="#C2FFFA" offset="100%"></stop>
        </linearGradient>
        <linearGradient x1="80.3935651%" y1="94.5937616%" x2="15.2253828%" y2="-15.9719317%" id="linearGradient-2">
            <stop stop-color="#2582FF" offset="0%"></stop>
            <stop stop-color="#12F5E1" offset="100%"></stop>
        </linearGradient>
    </defs>
    <g id="Tardigrade-Icos" stroke="none" stroke-width="1" fill="none" fill-rule="evenodd">
        <g id="Group-37">
            <path d="M3,1 C1.8954305,1 1,1.8954305 1,3 L1,21 C1,22.1045695 1.8954305,23 3,23 L21,23 C22.1045695,23 23,22.1045695 23,21 L23,3 C23,1.8954305 22.1045695,1 21,1 L3,1 Z M37,49 C35.8954305,49 35,49.8954305 35,51 L35,69 C35,70.1045695 35.8954305,71 37,71 L55,71 C56.1045695,71 57,70.1045695 57,69 L57,51 C57,49.8954305 56.1045695,49 55,49 L37,49 Z M3,95 C1.8954305,95 1,95.8954305 1,97 L1,115 C1,116.104569 1.8954305,117 3,117 L21,117 C22.1045695,117 23,116.104569 23,115 L23,97 C23,95.8954305 22.1045695,95 21,95 L3,95 Z M71,95 C69.8954305,95 69,95.8954305 69,97 L69,115 C69,116.104569 69.8954305,117 71,117 L89,117 C90.1045695,117 91,116.104569 91,115 L91,97 C91,95.8954305 90.1045695,95 89,95 L71,95 Z" id="Combined-Shape" stroke-opacity="0.187418051" stroke="#979797" stroke-width="2" fill="url(#linearGradient-1)"></path>
            <path d="M37,0 L55,0 C56.6568542,-3.04359188e-16 58,1.34314575 58,3 L58,21 C58,22.6568542 56.6568542,24 55,24 L37,24 C35.3431458,24 34,22.6568542 34,21 L34,3 C34,1.34314575 35.3431458,3.04359188e-16 37,0 Z M71,0 L89,0 C90.6568542,-3.04359188e-16 92,1.34314575 92,3 L92,21 C92,22.6568542 90.6568542,24 89,24 L71,24 C69.3431458,24 68,22.6568542 68,21 L68,3 C68,1.34314575 69.3431458,3.04359188e-16 71,0 Z M3,48 L21,48 C22.6568542,48 24,49.3431458 24,51 L24,69 C24,70.6568542 22.6568542,72 21,72 L3,72 C1.34314575,72 2.02906125e-16,70.6568542 0,69 L0,51 C-2.02906125e-16,49.3431458 1.34314575,48 3,48 Z M71,48 L89,48 C90.6568542,48 92,49.3431458 92,51 L92,69 C92,70.6568542 90.6568542,72 89,72 L71,72 C69.3431458,72 68,70.6568542 68,69 L68,51 C68,49.3431458 69.3431458,48 71,48 Z M37,94 L55,94 C56.6568542,94 58,95.3431458 58,97 L58,115 C58,116.656854 56.6568542,118 55,118 L37,118 C35.3431458,118 34,116.656854 34,115 L34,97 C34,95.3431458 35.3431458,94 37,94 Z" id="Combined-Shape" fill="url(#linearGradient-2)"></path>
        </g>
    </g>
</svg>