<svg width="1188" height="848" viewBox="0 0 1188 848" fill="none" xmlns="http://www.w3.org/2000/svg">
<g opacity="0.0538737">
<path fill-rule="evenodd" clip-rule="evenodd" d="M1129.39 693.69V699.028L1139.97 693.023V687.684L1129.39 693.69Z" fill="#F9F8FA"/>
<path fill-rule="evenodd" clip-rule="evenodd" d="M1129.39 693.69V699.028L1118.81 693.023V687.684L1129.39 693.69Z" fill="#96ADBE"/>
<path fill-rule="evenodd" clip-rule="evenodd" d="M1139.97 687.651L1129.39 693.662L1118.81 687.651L1129.39 681.641L1139.97 687.651Z" fill="#DCE1EA"/>
</g>
<g opacity="0.0538737">
<path fill-rule="evenodd" clip-rule="evenodd" d="M318.83 675.04V677.177L323.067 674.773V672.636L318.83 675.04Z" fill="#F9F8FA"/>
<path fill-rule="evenodd" clip-rule="evenodd" d="M318.83 675.04V677.177L314.593 674.772V672.635L318.83 675.04Z" fill="#96ADBE"/>
<path fill-rule="evenodd" clip-rule="evenodd" d="M323.067 672.622L318.83 675.028L314.593 672.622L318.83 670.216L323.067 672.622Z" fill="#DCE1EA"/>
</g>
<g opacity="0.0538737">
<path fill-rule="evenodd" clip-rule="evenodd" d="M548.83 845.04V847.177L553.067 844.773V842.636L548.83 845.04Z" fill="#F9F8FA"/>
<path fill-rule="evenodd" clip-rule="evenodd" d="M548.83 845.04V847.177L544.593 844.773V842.636L548.83 845.04Z" fill="#96ADBE"/>
<path fill-rule="evenodd" clip-rule="evenodd" d="M553.067 842.622L548.83 845.029L544.593 842.622L548.83 840.216L553.067 842.622Z" fill="#DCE1EA"/>
</g>
<g opacity="0.0538737">
<path fill-rule="evenodd" clip-rule="evenodd" d="M208.83 645.04V647.177L213.067 644.773V642.636L208.83 645.04Z" fill="#F9F8FA"/>
<path fill-rule="evenodd" clip-rule="evenodd" d="M208.83 645.04V647.177L204.593 644.772V642.635L208.83 645.04Z" fill="#96ADBE"/>
<path fill-rule="evenodd" clip-rule="evenodd" d="M213.067 642.622L208.83 645.028L204.593 642.622L208.83 640.216L213.067 642.622Z" fill="#DCE1EA"/>
</g>
<g opacity="0.0538737">
<path fill-rule="evenodd" clip-rule="evenodd" d="M28.8303 565.04V567.177L33.0674 564.773V562.636L28.8303 565.04Z" fill="#F9F8FA"/>
<path fill-rule="evenodd" clip-rule="evenodd" d="M28.8303 565.04V567.177L24.5933 564.772V562.635L28.8303 565.04Z" fill="#96ADBE"/>
<path fill-rule="evenodd" clip-rule="evenodd" d="M33.0673 562.622L28.8303 565.028L24.5933 562.622L28.8303 560.216L33.0673 562.622Z" fill="#DCE1EA"/>
</g>
<g opacity="0.0538737">
<path fill-rule="evenodd" clip-rule="evenodd" d="M38.8303 515.04V517.177L43.0674 514.773V512.636L38.8303 515.04Z" fill="#F9F8FA"/>
<path fill-rule="evenodd" clip-rule="evenodd" d="M38.8303 515.04V517.177L34.5933 514.772V512.635L38.8303 515.04Z" fill="#96ADBE"/>
<path fill-rule="evenodd" clip-rule="evenodd" d="M43.0673 512.622L38.8303 515.029L34.5933 512.622L38.8303 510.216L43.0673 512.622Z" fill="#DCE1EA"/>
</g>
<g opacity="0.0538737">
<path fill-rule="evenodd" clip-rule="evenodd" d="M-1.16968 275.04V277.177L3.06736 274.773V272.636L-1.16968 275.04Z" fill="#F9F8FA"/>
<path fill-rule="evenodd" clip-rule="evenodd" d="M3.06733 272.622L-1.1697 275.029L-5.40674 272.622L-1.1697 270.216L3.06733 272.622Z" fill="#DCE1EA"/>
</g>
<g opacity="0.0538737">
<path fill-rule="evenodd" clip-rule="evenodd" d="M88.8303 365.04V367.177L93.0674 364.773V362.636L88.8303 365.04Z" fill="#F9F8FA"/>
<path fill-rule="evenodd" clip-rule="evenodd" d="M88.8303 365.04V367.177L84.5933 364.773V362.636L88.8303 365.04Z" fill="#96ADBE"/>
<path fill-rule="evenodd" clip-rule="evenodd" d="M93.0673 362.622L88.8303 365.029L84.5933 362.622L88.8303 360.216L93.0673 362.622Z" fill="#DCE1EA"/>
</g>
<g opacity="0.0538737">
<path fill-rule="evenodd" clip-rule="evenodd" d="M308.83 565.04V567.177L313.067 564.773V562.636L308.83 565.04Z" fill="#F9F8FA"/>
<path fill-rule="evenodd" clip-rule="evenodd" d="M308.83 565.04V567.177L304.593 564.772V562.635L308.83 565.04Z" fill="#96ADBE"/>
<path fill-rule="evenodd" clip-rule="evenodd" d="M313.067 562.622L308.83 565.028L304.593 562.622L308.83 560.216L313.067 562.622Z" fill="#DCE1EA"/>
</g>
<g opacity="0.0538737">
<path fill-rule="evenodd" clip-rule="evenodd" d="M588.83 85.0398V87.177L593.067 84.7727V82.6356L588.83 85.0398Z" fill="#F9F8FA"/>
<path fill-rule="evenodd" clip-rule="evenodd" d="M588.83 85.0398V87.1769L584.593 84.7726V82.6355L588.83 85.0398Z" fill="#96ADBE"/>
<path fill-rule="evenodd" clip-rule="evenodd" d="M593.067 82.6223L588.83 85.0287L584.593 82.6223L588.83 80.2161L593.067 82.6223Z" fill="#DCE1EA"/>
</g>
<g opacity="0.0538737">
<path fill-rule="evenodd" clip-rule="evenodd" d="M548.83 25.0398V27.1769L553.067 24.7727V22.6356L548.83 25.0398Z" fill="#F9F8FA"/>
<path fill-rule="evenodd" clip-rule="evenodd" d="M548.83 25.0398V27.1769L544.593 24.7727V22.6356L548.83 25.0398Z" fill="#96ADBE"/>
<path fill-rule="evenodd" clip-rule="evenodd" d="M553.067 22.6223L548.83 25.0287L544.593 22.6223L548.83 20.2161L553.067 22.6223Z" fill="#DCE1EA"/>
</g>
<g opacity="0.0538737">
<path fill-rule="evenodd" clip-rule="evenodd" d="M165.83 295.04V297.177L170.067 294.773V292.636L165.83 295.04Z" fill="#F9F8FA"/>
<path fill-rule="evenodd" clip-rule="evenodd" d="M165.83 295.04V297.177L161.593 294.773V292.636L165.83 295.04Z" fill="#96ADBE"/>
<path fill-rule="evenodd" clip-rule="evenodd" d="M170.067 292.622L165.83 295.029L161.593 292.622L165.83 290.216L170.067 292.622Z" fill="#DCE1EA"/>
</g>
<g opacity="0.0538737">
<path fill-rule="evenodd" clip-rule="evenodd" d="M215.83 105.04V107.177L220.067 104.773V102.636L215.83 105.04Z" fill="#F9F8FA"/>
<path fill-rule="evenodd" clip-rule="evenodd" d="M215.83 105.04V107.177L211.593 104.773V102.635L215.83 105.04Z" fill="#96ADBE"/>
<path fill-rule="evenodd" clip-rule="evenodd" d="M220.067 102.622L215.83 105.029L211.593 102.622L215.83 100.216L220.067 102.622Z" fill="#DCE1EA"/>
</g>
<g opacity="0.0538737">
<path fill-rule="evenodd" clip-rule="evenodd" d="M538.83 795.04V797.177L543.067 794.773V792.636L538.83 795.04Z" fill="#F9F8FA"/>
<path fill-rule="evenodd" clip-rule="evenodd" d="M538.83 795.04V797.177L534.593 794.773V792.636L538.83 795.04Z" fill="#96ADBE"/>
<path fill-rule="evenodd" clip-rule="evenodd" d="M543.067 792.622L538.83 795.029L534.593 792.622L538.83 790.216L543.067 792.622Z" fill="#DCE1EA"/>
</g>
<g opacity="0.0538737">
<path fill-rule="evenodd" clip-rule="evenodd" d="M438.83 785.04V787.177L443.067 784.773V782.636L438.83 785.04Z" fill="#F9F8FA"/>
<path fill-rule="evenodd" clip-rule="evenodd" d="M438.83 785.04V787.177L434.593 784.772V782.635L438.83 785.04Z" fill="#96ADBE"/>
<path fill-rule="evenodd" clip-rule="evenodd" d="M443.067 782.622L438.83 785.028L434.593 782.622L438.83 780.216L443.067 782.622Z" fill="#DCE1EA"/>
</g>
<g opacity="0.0538737">
<path fill-rule="evenodd" clip-rule="evenodd" d="M638.83 785.04V787.177L643.067 784.773V782.636L638.83 785.04Z" fill="#F9F8FA"/>
<path fill-rule="evenodd" clip-rule="evenodd" d="M638.83 785.04V787.177L634.593 784.772V782.635L638.83 785.04Z" fill="#96ADBE"/>
<path fill-rule="evenodd" clip-rule="evenodd" d="M643.067 782.622L638.83 785.028L634.593 782.622L638.83 780.216L643.067 782.622Z" fill="#DCE1EA"/>
</g>
<g opacity="0.0538737">
<path fill-rule="evenodd" clip-rule="evenodd" d="M58.8303 75.0398V77.1769L63.0674 74.7726V72.6355L58.8303 75.0398Z" fill="#F9F8FA"/>
<path fill-rule="evenodd" clip-rule="evenodd" d="M58.8303 75.0398V77.1769L54.5933 74.7726V72.6355L58.8303 75.0398Z" fill="#96ADBE"/>
<path fill-rule="evenodd" clip-rule="evenodd" d="M63.0673 72.6223L58.8303 75.0287L54.5933 72.6223L58.8303 70.2161L63.0673 72.6223Z" fill="#DCE1EA"/>
</g>
<g opacity="0.0538737">
<path fill-rule="evenodd" clip-rule="evenodd" d="M-1.16968 95.0398V97.177L3.06736 94.7727V92.6356L-1.16968 95.0398Z" fill="#F9F8FA"/>
<path fill-rule="evenodd" clip-rule="evenodd" d="M3.06733 92.6224L-1.1697 95.0288L-5.40674 92.6224L-1.1697 90.2162L3.06733 92.6224Z" fill="#DCE1EA"/>
</g>
<g opacity="0.0538737">
<path fill-rule="evenodd" clip-rule="evenodd" d="M138.83 65.0398V67.177L143.067 64.7727V62.6356L138.83 65.0398Z" fill="#F9F8FA"/>
<path fill-rule="evenodd" clip-rule="evenodd" d="M138.83 65.0398V67.177L134.593 64.7727V62.6356L138.83 65.0398Z" fill="#96ADBE"/>
<path fill-rule="evenodd" clip-rule="evenodd" d="M143.067 62.6224L138.83 65.0288L134.593 62.6224L138.83 60.2162L143.067 62.6224Z" fill="#DCE1EA"/>
</g>
<g opacity="0.0538737">
<path fill-rule="evenodd" clip-rule="evenodd" d="M38.8303 5.03982V7.17693L43.0674 4.77267V2.63556L38.8303 5.03982Z" fill="#F9F8FA"/>
<path fill-rule="evenodd" clip-rule="evenodd" d="M38.8303 5.03966V7.17677L34.5933 4.77252V2.63541L38.8303 5.03966Z" fill="#96ADBE"/>
<path fill-rule="evenodd" clip-rule="evenodd" d="M43.0673 2.62217L38.8303 5.02857L34.5933 2.62217L38.8303 0.215973L43.0673 2.62217Z" fill="#DCE1EA"/>
</g>
<g opacity="0.0538737">
<path fill-rule="evenodd" clip-rule="evenodd" d="M428.83 65.0398V67.177L433.067 64.7727V62.6356L428.83 65.0398Z" fill="#F9F8FA"/>
<path fill-rule="evenodd" clip-rule="evenodd" d="M428.83 65.0398V67.177L424.593 64.7727V62.6356L428.83 65.0398Z" fill="#96ADBE"/>
<path fill-rule="evenodd" clip-rule="evenodd" d="M433.067 62.6224L428.83 65.0288L424.593 62.6224L428.83 60.2162L433.067 62.6224Z" fill="#DCE1EA"/>
</g>
<g opacity="0.0538737">
<path fill-rule="evenodd" clip-rule="evenodd" d="M768.83 75.0398V77.1769L773.067 74.7726V72.6355L768.83 75.0398Z" fill="#F9F8FA"/>
<path fill-rule="evenodd" clip-rule="evenodd" d="M768.83 75.0398V77.1769L764.593 74.7726V72.6355L768.83 75.0398Z" fill="#96ADBE"/>
<path fill-rule="evenodd" clip-rule="evenodd" d="M773.067 72.6223L768.83 75.0287L764.593 72.6223L768.83 70.2161L773.067 72.6223Z" fill="#DCE1EA"/>
</g>
<g opacity="0.0538737">
<path fill-rule="evenodd" clip-rule="evenodd" d="M908.83 125.04V127.177L913.067 124.773V122.636L908.83 125.04Z" fill="#F9F8FA"/>
<path fill-rule="evenodd" clip-rule="evenodd" d="M908.83 125.04V127.177L904.593 124.773V122.635L908.83 125.04Z" fill="#96ADBE"/>
<path fill-rule="evenodd" clip-rule="evenodd" d="M913.067 122.622L908.83 125.029L904.593 122.622L908.83 120.216L913.067 122.622Z" fill="#DCE1EA"/>
</g>
<g opacity="0.0538737">
<path fill-rule="evenodd" clip-rule="evenodd" d="M1108.83 93.0398V95.1769L1113.07 92.7727V90.6356L1108.83 93.0398Z" fill="#F9F8FA"/>
<path fill-rule="evenodd" clip-rule="evenodd" d="M1108.83 93.0398V95.1769L1104.59 92.7727V90.6356L1108.83 93.0398Z" fill="#96ADBE"/>
<path fill-rule="evenodd" clip-rule="evenodd" d="M1113.07 90.6223L1108.83 93.0287L1104.59 90.6223L1108.83 88.2161L1113.07 90.6223Z" fill="#DCE1EA"/>
</g>
<g opacity="0.0538737">
<path fill-rule="evenodd" clip-rule="evenodd" d="M1148.83 233.04V235.177L1153.07 232.773V230.636L1148.83 233.04Z" fill="#F9F8FA"/>
<path fill-rule="evenodd" clip-rule="evenodd" d="M1148.83 233.04V235.177L1144.59 232.773V230.636L1148.83 233.04Z" fill="#96ADBE"/>
<path fill-rule="evenodd" clip-rule="evenodd" d="M1153.07 230.622L1148.83 233.029L1144.59 230.622L1148.83 228.216L1153.07 230.622Z" fill="#DCE1EA"/>
</g>
<g opacity="0.568592">
<path fill-rule="evenodd" clip-rule="evenodd" d="M88.78 798.478V800.655L93.7542 797.819V795.642L88.78 798.478Z" fill="#F9F8FA"/>
<path fill-rule="evenodd" clip-rule="evenodd" d="M88.7801 798.478V800.655L83.8059 797.819V795.642L88.7801 798.478Z" fill="#96ADBE"/>
<path fill-rule="evenodd" clip-rule="evenodd" d="M93.7542 795.627L88.7801 798.465L83.8059 795.627L88.7801 792.788L93.7542 795.627Z" fill="#DCE1EA"/>
<path opacity="0.410296" fill-rule="evenodd" clip-rule="evenodd" d="M159.446 752.579L159.733 759.739L130.812 775.92L90.7529 799.165L88.7801 800.264L88.7801 798.465L83.8122 795.854L156.326 753.776L159.446 752.579Z" fill="url(#paint0_linear)"/>
</g>
<g opacity="0.152669">
<path fill-rule="evenodd" clip-rule="evenodd" d="M256.865 128.336V130.514L261.839 127.678V125.5L256.865 128.336Z" fill="#F9F8FA"/>
<path fill-rule="evenodd" clip-rule="evenodd" d="M256.866 128.336V130.514L251.891 127.678V125.5L256.866 128.336Z" fill="#96ADBE"/>
<path fill-rule="evenodd" clip-rule="evenodd" d="M261.84 125.485L256.866 128.323L251.891 125.485L256.866 122.647L261.84 125.485Z" fill="#DCE1EA"/>
<path opacity="0.410296" fill-rule="evenodd" clip-rule="evenodd" d="M327.531 82.4372L327.818 89.597L298.897 105.778L258.838 129.023L256.865 130.122L256.865 128.323L251.897 125.712L324.411 83.6347L327.531 82.4372Z" fill="url(#paint1_linear)"/>
</g>
<g opacity="0.202544">
<path fill-rule="evenodd" clip-rule="evenodd" d="M78.8328 386.478V388.655L73.8586 385.819V383.642L78.8328 386.478Z" fill="#F9F8FA"/>
<path fill-rule="evenodd" clip-rule="evenodd" d="M78.8327 386.478V388.655L83.8069 385.819V383.642L78.8327 386.478Z" fill="#96ADBE"/>
<path fill-rule="evenodd" clip-rule="evenodd" d="M73.8586 383.627L78.8327 386.465L83.8069 383.627L78.8327 380.788L73.8586 383.627Z" fill="#DCE1EA"/>
<path opacity="0.410296" fill-rule="evenodd" clip-rule="evenodd" d="M8.16714 340.579L7.87969 347.739L36.8007 363.92L76.8599 387.165L78.8327 388.264L78.8327 386.465L83.8006 383.854L11.2866 341.776L8.16714 340.579Z" fill="url(#paint2_linear)"/>
</g>
<g opacity="0.0985398">
<path fill-rule="evenodd" clip-rule="evenodd" d="M1103.8 122.763V124.906L1108.8 122.114V119.97L1103.8 122.763Z" fill="#F9F8FA"/>
<path fill-rule="evenodd" clip-rule="evenodd" d="M1103.8 122.763V124.906L1098.81 122.114V119.97L1103.8 122.763Z" fill="#96ADBE"/>
<path fill-rule="evenodd" clip-rule="evenodd" d="M1108.8 119.955L1103.8 122.75L1098.81 119.955L1103.8 117.161L1108.8 119.955Z" fill="#DCE1EA"/>
</g>
<g opacity="0.0985398">
<path fill-rule="evenodd" clip-rule="evenodd" d="M673.789 260.777V263.389L679.77 259.986V257.374L673.789 260.777Z" fill="#F9F8FA"/>
<path fill-rule="evenodd" clip-rule="evenodd" d="M673.789 260.777V263.389L667.807 259.986V257.374L673.789 260.777Z" fill="#96ADBE"/>
<path fill-rule="evenodd" clip-rule="evenodd" d="M679.77 257.355L673.789 260.761L667.807 257.355L673.789 253.949L679.77 257.355Z" fill="#DCE1EA"/>
<path opacity="0.410296" fill-rule="evenodd" clip-rule="evenodd" d="M758.766 205.698L759.112 214.289L724.334 233.707L676.161 261.601L673.789 262.919L673.789 260.761L667.815 257.628L755.015 207.135L758.766 205.698Z" fill="url(#paint3_linear)"/>
</g>
<defs>
<linearGradient id="paint0_linear" x1="110.114" y1="780.808" x2="115.346" y2="796.917" gradientUnits="userSpaceOnUse">
<stop stop-color="white" stop-opacity="0.01"/>
<stop offset="1" stop-color="white"/>
</linearGradient>
<linearGradient id="paint1_linear" x1="278.199" y1="110.666" x2="283.432" y2="126.775" gradientUnits="userSpaceOnUse">
<stop stop-color="white" stop-opacity="0.01"/>
<stop offset="1" stop-color="white"/>
</linearGradient>
<linearGradient id="paint2_linear" x1="57.4993" y1="368.808" x2="52.2664" y2="384.917" gradientUnits="userSpaceOnUse">
<stop stop-color="white" stop-opacity="0.01"/>
<stop offset="1" stop-color="white"/>
</linearGradient>
<linearGradient id="paint3_linear" x1="699.472" y1="239.623" x2="705.76" y2="258.964" gradientUnits="userSpaceOnUse">
<stop stop-color="white" stop-opacity="0.01"/>
<stop offset="1" stop-color="white"/>
</linearGradient>
</defs>
</svg>
