<svg width="158" height="41" viewBox="0 0 158 41" fill="none" xmlns="http://www.w3.org/2000/svg">
<path d="M99.4059 16.9215H95.309V14.1327H99.4059H102.219V22.2952C102.219 25.3249 100.438 26.7863 97.8038 26.7863C95.8634 26.7863 94.5817 25.9309 93.7273 24.915L95.454 22.9902C96.166 23.7744 96.8603 24.2378 97.7326 24.2378C98.765 24.2378 99.4059 23.614 99.4059 22.1704V16.9215ZM53.1856 22.9225C53.1856 25.3975 51.2981 26.7863 48.6094 26.7863C46.7219 26.7863 44.8166 26.1275 43.3208 24.7921L44.9412 22.8513C46.063 23.7772 47.2382 24.3648 48.6628 24.3648C49.7846 24.3648 50.4612 23.9196 50.4612 23.1896V23.154C50.4612 22.4595 50.0339 22.1034 47.9505 21.5692C45.4398 20.9282 43.8194 20.2338 43.8194 17.7588V17.7232C43.8194 15.4619 45.6357 13.9662 48.182 13.9662C49.9983 13.9662 51.5474 14.536 52.8117 15.5509L51.3872 17.6164C50.2832 16.8507 49.197 16.3878 48.1464 16.3878C47.0958 16.3878 46.5438 16.8685 46.5438 17.4739V17.5095C46.5438 18.3286 47.078 18.5957 49.2326 19.1477C51.7611 19.8065 53.1856 20.7146 53.1856 22.8869V22.9225ZM64.8403 16.6658H61.0494V26.6198H58.3085V16.6658H54.5176V14.1327H64.8403V16.6658ZM79.2422 20.3763C79.2422 23.9229 76.4402 26.828 72.5853 26.828C68.7304 26.828 65.9642 23.9586 65.9642 20.4119V20.3763C65.9642 16.8296 68.7661 13.9246 72.621 13.9246C76.4759 13.9246 79.2422 16.794 79.2422 20.3406V20.3763ZM76.3701 20.4118V20.3763C76.3701 18.2421 74.7991 16.4636 72.5853 16.4636C70.3716 16.4636 68.8362 18.2065 68.8362 20.3407V20.3763C68.8362 22.5104 70.4073 24.2889 72.621 24.2889C74.8348 24.2889 76.3701 22.546 76.3701 20.4118ZM92.3537 26.6198H89.1462L86.4734 22.624H84.3172V26.6198H81.5731V14.1327H87.2752C90.2154 14.1327 91.9795 15.6847 91.9795 18.2534V18.2891C91.9795 20.3049 90.8925 21.5715 89.3066 22.1601L92.3537 26.6198ZM89.1903 18.4467V18.411C89.1903 17.2356 88.3727 16.6301 87.0396 16.6301H84.3203V20.2098H87.093C88.426 20.2098 89.1903 19.4974 89.1903 18.4467Z" fill="#133E9C"/>
<path d="M14.4458 26.2544C14.4564 26.2544 14.467 26.2544 14.4776 26.2544C14.4802 26.2544 14.4829 26.2544 14.4857 26.2544H17.1948C17.1954 26.4481 17.1956 26.5626 17.1956 26.598C17.1895 29.3601 17.1901 32.1215 17.195 34.8834C17.1952 35.0783 17.1339 35.1893 16.9563 35.2743C16.0262 35.723 15.3242 36.8805 15.5157 38.1186C15.7379 39.5568 17.2147 40.6429 18.6399 40.3641C19.8954 40.1188 20.7202 39.2611 20.8968 37.9416C21.0164 37.0468 20.5862 35.8655 19.436 35.274C19.2799 35.1942 19.1938 35.107 19.1944 34.9152C19.2001 32.2324 19.2006 29.5497 19.1944 26.8675C19.1944 26.7813 19.2087 26.7199 19.2368 26.6749V26.2544H22.5456C22.6492 26.2544 22.7522 26.2462 22.8535 26.2299C23.6171 26.1518 24.325 25.8913 24.931 25.4935L29.6888 28.251L29.6701 28.2655C29.797 28.3378 29.9239 28.41 30.0508 28.4822C30.2873 28.6161 30.3786 28.7642 30.3716 29.0412C30.3294 30.6465 31.7283 31.9578 33.3593 31.7838C34.9606 31.6135 36.0952 30.0714 35.7237 28.5121C35.2785 26.6434 33.2554 25.8002 31.6213 26.8102C31.449 26.9164 31.3245 26.9454 31.1408 26.8378C29.758 26.0294 28.3719 25.2266 26.9801 24.4339C26.9075 24.3926 26.8571 24.3524 26.8252 24.3079L26.3416 24.0282C26.7433 23.3589 26.9737 22.5789 26.9737 21.7457C26.9737 20.092 26.0695 18.6567 24.7278 17.8722L24.745 17.8622C24.7683 17.8446 24.795 17.8273 24.8252 17.81C25.4137 17.4728 26.002 17.1351 26.5901 16.7969L30.4981 14.5405C30.7141 14.4152 30.9301 14.29 31.1461 14.1646C31.3155 14.0667 31.4305 14.065 31.5968 14.1767C32.1897 14.5748 32.8544 14.7009 33.5518 14.5787C34.9092 14.3406 35.893 13.1116 35.772 11.6608C35.6404 10.0869 34.0975 8.91046 32.5564 9.25179C31.2041 9.55143 30.3545 10.6089 30.3701 11.999C30.3723 12.2358 30.3066 12.3708 30.0954 12.4917C29.5506 12.8036 29.0061 13.1161 28.4619 13.4291L28.4623 13.4297L23.481 16.3164C22.6032 14.778 21.0368 13.671 19.1985 13.3818C19.199 11.043 19.2035 8.70428 19.1909 6.36569C19.1891 6.0148 19.271 5.81143 19.5996 5.62258C20.7779 4.94523 21.2257 3.48711 20.6866 2.24375C20.1429 0.989555 18.7541 0.31956 17.4515 0.71656C16.266 1.07792 15.6051 1.91583 15.4889 3.13531C15.3995 4.07628 15.8444 5.12159 16.9178 5.70855C17.0827 5.79857 17.1976 5.87775 17.1969 6.10408C17.1947 6.79249 17.1931 7.48085 17.192 8.16921H17.2316V13.3899C15.602 13.6604 14.1655 14.5772 13.2549 15.9062C13.0217 15.9575 12.7942 16.0235 12.5734 16.1033C10.5213 14.9301 8.47832 13.7404 6.42268 12.5727C6.1144 12.3979 5.96567 12.2103 6.01708 11.855C6.03765 11.7133 5.99395 11.5616 5.97081 11.4157C5.76021 10.0877 4.46207 8.97678 2.89512 9.23434C1.35792 9.4875 0.38184 10.8793 0.635592 12.369C0.959117 14.2715 3.12905 15.2345 4.76613 14.1938C4.95085 14.0764 5.07864 14.0672 5.26795 14.1776C5.85107 14.518 6.43506 14.8568 7.01952 15.1949L7.04161 15.1566L10.6874 17.2653C9.68691 18.2141 9.06316 19.5403 9.06316 21.0159C9.06316 22.1563 9.43566 23.2073 10.0665 24.0637L5.81927 26.516L5.81661 26.4977C5.6105 26.6155 5.4043 26.7332 5.19799 26.8506C5.10582 26.903 4.92679 26.8921 4.83315 26.8356C4.39267 26.5695 3.92354 26.3928 3.41016 26.379C1.7022 26.3353 0.663501 27.7311 0.605113 28.9438C0.537543 30.3643 1.61168 31.8193 3.34883 31.8062C4.87226 31.7948 6.03159 30.5726 6.01653 29.0476C6.01415 28.7752 6.0942 28.621 6.33308 28.4853C7.50658 27.8167 9.25831 26.8069 11.5883 25.4558C12.4182 25.9624 13.3988 26.2544 14.4458 26.2544ZM34.7214 14.7833C34.5229 14.902 34.454 15.0229 34.4546 15.2492C34.4614 18.7534 34.4608 22.2576 34.4555 25.761C34.4551 25.9716 34.5087 26.0985 34.7017 26.2096C35.9459 26.9291 36.5755 28.256 36.352 29.6509C36.1378 30.9876 35.0699 32.0857 33.6865 32.3486C32.8845 32.5016 32.1077 32.3798 31.4048 31.9482C31.1905 31.8171 31.0396 31.8402 30.8387 31.956C27.828 33.7009 24.814 35.4412 21.7965 37.1748C21.5902 37.2937 21.5129 37.4241 21.5134 37.6652C21.5165 39.3511 20.216 40.8182 18.5914 40.9817C16.861 41.1564 15.3312 40.0685 14.9573 38.3884C14.9001 38.1301 14.8808 37.8601 14.8749 37.5957C14.8705 37.4166 14.8209 37.3069 14.6617 37.2147C11.6026 35.454 8.54598 33.6891 5.49067 31.9216C5.32523 31.8252 5.19524 31.8244 5.02833 31.9255C3.03192 33.1279 0.487417 31.9753 0.0640072 29.729C-0.203149 28.31 0.374128 26.9833 1.64344 26.2359C1.84394 26.1174 1.93465 25.9982 1.93428 25.7529C1.9251 22.2485 1.92657 18.7447 1.93208 15.2408C1.93226 15.0303 1.87755 14.9057 1.68494 14.7938C0.410667 14.0533 -0.188827 12.7666 0.0559283 11.3219C0.299031 9.8867 1.40823 8.83385 2.85179 8.62809C3.62553 8.51805 4.37173 8.65914 5.04118 9.08682C5.1967 9.18639 5.3122 9.18327 5.47047 9.09197C8.51678 7.32815 11.5655 5.5693 14.6166 3.81449C14.8011 3.7083 14.8731 3.5865 14.8736 3.36899C14.8786 1.4391 16.4027 -0.03831 18.334 0.000820586C19.8392 0.0309493 21.2477 1.27412 21.4613 2.76035C21.4807 2.89703 21.5114 2.98117 21.5114 3.16929C21.5114 3.58136 21.6631 3.75607 21.9836 3.93941C24.9442 5.63433 27.8965 7.34248 30.8468 9.05357C31.0495 9.17151 31.1968 9.17629 31.4079 9.05651C33.4118 7.91291 35.8416 9.00893 36.3294 11.2719C36.3754 11.4824 36.3709 11.704 36.3869 11.8963C36.3541 13.1808 35.7968 14.1382 34.7214 14.7833ZM32.317 29.0985C32.317 28.6523 32.6374 28.3282 33.0762 28.3291C33.4987 28.3313 33.8588 28.6802 33.863 29.0932C33.8676 29.4907 33.4829 29.8752 33.0825 29.876C32.6537 29.876 32.3172 29.5345 32.317 29.0985ZM17.4218 3.3203C17.4234 2.88821 17.7602 2.55478 18.1954 2.55441C18.6312 2.55404 18.9654 2.88674 18.9671 3.32049C18.9682 3.73641 18.6052 4.1042 18.1968 4.09906C17.7817 4.09501 17.4205 3.73163 17.4218 3.3203ZM4.07134 29.1016C4.06969 29.5372 3.73019 29.8795 3.30366 29.876C2.90063 29.8721 2.52808 29.4961 2.52625 29.0901C2.52423 28.6844 2.89292 28.3291 3.31596 28.3291C3.75425 28.3295 4.073 28.6552 4.07134 29.1016ZM18.2038 36.9272C18.6386 36.9301 18.9689 37.261 18.9669 37.6916C18.9641 38.1206 18.6289 38.4437 18.1882 38.441C17.7512 38.4388 17.417 38.1055 17.4218 37.6762C17.4268 37.2492 17.7673 36.9239 18.2038 36.9272ZM3.32459 12.6679C2.88392 12.6718 2.53947 12.3505 2.52643 11.9244C2.51339 11.5092 2.86189 11.1607 3.29632 11.1545C3.74984 11.1477 4.06492 11.4501 4.07134 11.8974C4.07814 12.347 3.77059 12.6639 3.32459 12.6679ZM33.0667 12.669C32.6212 12.6659 32.3126 12.3484 32.317 11.8989C32.3214 11.4527 32.6374 11.1492 33.0909 11.155C33.5257 11.1611 33.8718 11.5065 33.8615 11.9239C33.8512 12.3468 33.5044 12.6721 33.0667 12.669ZM14.4458 24.3843C12.5059 24.3843 10.9333 22.8762 10.9333 21.0159C10.9333 19.1631 12.4932 17.6596 14.4222 17.6475C15.0396 16.1979 16.5161 15.1773 18.2392 15.1773C20.4984 15.1773 22.3334 16.9316 22.3645 19.1071C22.3669 19.1071 22.3692 19.1071 22.3716 19.1071C23.8804 19.1071 25.1035 20.2884 25.1035 21.7457C25.1035 23.1361 23.99 24.2753 22.5773 24.3769C22.5678 24.3816 22.557 24.3843 22.5456 24.3843H14.4857C14.484 24.3843 14.4824 24.3842 14.4808 24.3841C14.4691 24.3842 14.4574 24.3843 14.4458 24.3843Z" fill="#133E9C"/>
<path d="M117.408 26.0001V25.2321H110.832V14.8001H110V26.0001H117.408Z" fill="#133E9C"/>
<path d="M132.178 26.0001L126.962 14.7201H126.162L120.946 26.0001H121.81L123.234 22.8641H129.842L131.266 26.0001H132.178ZM129.49 22.1121H123.586L126.546 15.6321L129.49 22.1121Z" fill="#133E9C"/>
<path d="M145.427 22.9441V22.9121C145.427 21.3601 144.243 20.5921 142.899 20.2401C143.811 19.8721 144.803 19.1041 144.803 17.5841V17.5521C144.803 15.8721 143.347 14.8001 141.171 14.8001H136.547V26.0001H141.411C143.827 26.0001 145.427 24.8161 145.427 22.9441ZM143.955 17.6641C143.955 19.1521 142.755 19.9681 141.075 19.9681H137.379V15.5681H141.155C142.947 15.5681 143.955 16.4001 143.955 17.6321V17.6641ZM144.579 22.9441C144.579 24.3521 143.363 25.2321 141.443 25.2321H137.379V20.7361H141.171C143.379 20.7361 144.579 21.5361 144.579 22.9121V22.9441Z" fill="#133E9C"/>
<path d="M157.598 23.1041V23.0721C157.598 21.4401 156.51 20.5121 153.918 19.9841C151.262 19.4401 150.654 18.7201 150.654 17.5361V17.5041C150.654 16.3361 151.742 15.3921 153.39 15.3921C154.622 15.3921 155.678 15.7441 156.734 16.6561L157.262 16.0001C156.126 15.0881 155.054 14.6401 153.422 14.6401C151.342 14.6401 149.822 15.9201 149.822 17.5841V17.6161C149.822 19.3121 150.91 20.2241 153.598 20.7681C156.142 21.2801 156.766 21.9681 156.766 23.1521V23.1841C156.766 24.4641 155.614 25.4081 153.934 25.4081C152.286 25.4081 151.15 24.8801 149.918 23.7441L149.374 24.3681C150.718 25.5681 152.094 26.1601 153.886 26.1601C156.046 26.1601 157.598 24.9121 157.598 23.1041Z" fill="#133E9C"/>
</svg>
