<svg width="16" height="18" viewBox="0 0 16 18" fill="none" xmlns="http://www.w3.org/2000/svg">
<path d="M6.34204 11.5263C6.3467 11.5263 6.35136 11.5263 6.35602 11.5263C6.35715 11.5263 6.35833 11.5263 6.35956 11.5263H7.54896C7.5492 11.6113 7.54931 11.6616 7.54928 11.6772C7.54662 12.8898 7.54686 14.1021 7.54904 15.3146C7.54912 15.4002 7.5222 15.4489 7.44425 15.4863C7.03587 15.6832 6.7277 16.1914 6.81178 16.735C6.90932 17.3664 7.55766 17.8432 8.18336 17.7208C8.73457 17.6131 9.09667 17.2365 9.17422 16.6573C9.2267 16.2644 9.03783 15.7458 8.53289 15.4861C8.46437 15.4511 8.42656 15.4128 8.4268 15.3286C8.4293 14.1508 8.42954 12.973 8.4268 11.7955C8.4268 11.7576 8.43308 11.7307 8.44542 11.7109V11.5263H9.89806C9.94357 11.5263 9.98876 11.5227 10.0332 11.5155C10.3685 11.4813 10.6793 11.3669 10.9453 11.1922L13.0341 12.4029L13.0259 12.4092C13.0816 12.441 13.1373 12.4727 13.193 12.5043C13.2969 12.5631 13.3369 12.6281 13.3339 12.7498C13.3153 13.4545 13.9295 14.0302 14.6456 13.9538C15.3486 13.8791 15.8467 13.2021 15.6836 12.5175C15.4881 11.6971 14.5999 11.3269 13.8825 11.7703C13.8069 11.8169 13.7522 11.8297 13.6715 11.7824C13.0645 11.4275 12.4559 11.0751 11.8449 10.727C11.8131 10.7089 11.7909 10.6913 11.7769 10.6717L11.5646 10.549C11.741 10.2551 11.8421 9.91265 11.8421 9.54685C11.8421 8.82084 11.4451 8.19072 10.8561 7.84629L10.8637 7.84191C10.8739 7.8342 10.8856 7.82661 10.8989 7.81899C11.1573 7.67094 11.4155 7.52268 11.6737 7.37422L13.3894 6.38359C13.4843 6.32862 13.5791 6.27361 13.6739 6.21858C13.7483 6.17559 13.7988 6.17487 13.8718 6.2239C14.1321 6.39868 14.4239 6.45401 14.73 6.40037C15.326 6.29585 15.7579 5.75627 15.7048 5.11935C15.647 4.42839 14.9696 3.91188 14.2931 4.06174C13.6994 4.19328 13.3264 4.65753 13.3332 5.26783C13.3342 5.3718 13.3053 5.43108 13.2126 5.48415C12.9734 5.62109 12.7344 5.75826 12.4955 5.89566L12.4956 5.89594L10.3087 7.16329C9.92337 6.48787 9.23566 6.00189 8.4286 5.87491C8.42884 4.84814 8.43082 3.82137 8.42527 2.79467C8.42447 2.64062 8.46042 2.55133 8.60471 2.46842C9.12199 2.17105 9.31859 1.5309 9.08192 0.985036C8.84324 0.434412 8.2335 0.140268 7.66165 0.314561C7.14115 0.473207 6.85103 0.841069 6.80001 1.37645C6.76075 1.78956 6.95607 2.24848 7.42732 2.50617C7.49971 2.54569 7.55017 2.58045 7.54984 2.67981C7.54888 2.98204 7.54818 3.28425 7.5477 3.58645H7.5651V5.87848C6.84966 5.99721 6.21901 6.39973 5.81922 6.98317C5.71686 7.0057 5.61696 7.0347 5.52001 7.06972C4.61911 6.55464 3.72219 6.03235 2.81972 5.51972C2.68437 5.44293 2.61908 5.36059 2.64165 5.2046C2.65068 5.14242 2.63149 5.0758 2.62133 5.01176C2.52887 4.42871 1.95896 3.941 1.27103 4.05407C0.596161 4.16522 0.167637 4.77625 0.279041 5.43027C0.421076 6.26552 1.37373 6.68831 2.09245 6.23141C2.17354 6.17987 2.22965 6.17583 2.31276 6.22431C2.56876 6.37371 2.82515 6.52248 3.08174 6.67092L3.09144 6.65409L4.69204 7.57985C4.25279 7.99642 3.97895 8.57864 3.97895 9.22645C3.97895 9.72715 4.14249 10.1885 4.41945 10.5645L2.5548 11.6411L2.55363 11.6331C2.46315 11.6848 2.37262 11.7365 2.28204 11.788C2.24158 11.811 2.16298 11.8063 2.12187 11.7814C1.92849 11.6646 1.72253 11.5871 1.49714 11.581C0.747306 11.5618 0.291293 12.1746 0.265659 12.707C0.235995 13.3306 0.707565 13.9694 1.47022 13.9637C2.13904 13.9587 2.64802 13.4221 2.64141 12.7526C2.64036 12.633 2.6755 12.5653 2.78038 12.5057C3.29557 12.2122 4.06462 11.7689 5.08754 11.1757C5.45189 11.3981 5.88241 11.5263 6.34204 11.5263ZM15.2435 6.49022C15.1564 6.54233 15.1262 6.5954 15.1264 6.69476C15.1294 8.23315 15.1291 9.77162 15.1268 11.3097C15.1266 11.4021 15.1502 11.4579 15.2349 11.5066C15.7811 11.8225 16.0575 12.4051 15.9594 13.0175C15.8654 13.6043 15.3965 14.0864 14.7892 14.2018C14.4371 14.269 14.096 14.2155 13.7875 14.026C13.6934 13.9684 13.6271 13.9786 13.5389 14.0294C12.2172 14.7955 10.894 15.5595 9.56921 16.3206C9.47861 16.3728 9.44467 16.4301 9.44491 16.5359C9.44628 17.2761 8.87532 17.9202 8.16208 17.9919C7.40241 18.0686 6.73076 17.591 6.56664 16.8534C6.54149 16.74 6.53303 16.6215 6.53045 16.5054C6.52851 16.4268 6.50675 16.3786 6.43686 16.3381C5.09381 15.5651 3.75189 14.7903 2.41054 14.0143C2.33791 13.972 2.28084 13.9717 2.20756 14.016C1.33108 14.5439 0.213988 14.0379 0.0281007 13.0517C-0.0891872 12.4288 0.164252 11.8463 0.72151 11.5182C0.809537 11.4662 0.849358 11.4138 0.849197 11.3061C0.845166 9.76759 0.845811 8.22936 0.84823 6.69105C0.84831 6.59862 0.824288 6.54394 0.739728 6.49482C0.180293 6.16971 -0.0828996 5.60481 0.0245539 4.97054C0.131282 4.34048 0.618248 3.87825 1.25201 3.78792C1.5917 3.73961 1.9193 3.80155 2.2132 3.98931C2.28148 4.03302 2.33218 4.03165 2.40167 3.99157C3.73908 3.21721 5.07753 2.44503 6.41703 1.67463C6.49804 1.62801 6.52964 1.57453 6.52988 1.47904C6.53206 0.631772 7.20121 -0.0168458 8.04906 0.000333461C8.70991 0.0135607 9.32827 0.559345 9.42202 1.21183C9.43056 1.27184 9.44403 1.30878 9.44403 1.39137C9.44403 1.57228 9.51061 1.64898 9.65135 1.72947C10.9511 2.47358 12.2472 3.2235 13.5425 3.97471C13.6315 4.02649 13.6961 4.02859 13.7888 3.976C14.6686 3.47393 15.7353 3.95511 15.9495 4.94861C15.9697 5.04104 15.9677 5.1383 15.9747 5.22275C15.9603 5.78668 15.7157 6.20697 15.2435 6.49022ZM14.1879 12.7749C14.1879 12.579 14.3286 12.4367 14.5213 12.4372C14.7067 12.4381 14.8648 12.5913 14.8667 12.7726C14.8687 12.9471 14.6998 13.1159 14.524 13.1163C14.3358 13.1163 14.188 12.9663 14.1879 12.7749ZM7.64859 1.45767C7.64932 1.26797 7.79716 1.12158 7.9882 1.12142C8.17957 1.12126 8.32628 1.26732 8.32701 1.45775C8.32749 1.64035 8.16813 1.80182 7.98885 1.79956C7.80659 1.79778 7.64803 1.63825 7.64859 1.45767ZM1.78742 12.7763C1.78669 12.9675 1.63765 13.1178 1.45039 13.1163C1.27345 13.1146 1.10989 12.9495 1.10908 12.7712C1.1082 12.5931 1.27006 12.4372 1.45579 12.4372C1.64821 12.4373 1.78815 12.5803 1.78742 12.7763ZM7.99191 16.2119C8.1828 16.2132 8.32781 16.3585 8.32693 16.5475C8.32572 16.7358 8.17852 16.8777 7.98506 16.8765C7.79321 16.8755 7.6465 16.7292 7.64859 16.5407C7.65077 16.3533 7.8003 16.2105 7.99191 16.2119ZM1.45958 5.56149C1.26611 5.56319 1.11489 5.42212 1.10917 5.23509C1.10344 5.05281 1.25644 4.89981 1.44716 4.89707C1.64627 4.89408 1.7846 5.02684 1.78742 5.22323C1.7904 5.42059 1.65538 5.55972 1.45958 5.56149ZM14.5171 5.56198C14.3215 5.56061 14.186 5.42124 14.1879 5.22388C14.1899 5.02797 14.3286 4.89473 14.5277 4.89731C14.7186 4.89997 14.8705 5.0516 14.866 5.23485C14.8615 5.42051 14.7092 5.56335 14.5171 5.56198ZM6.34204 10.7053C5.4904 10.7053 4.8 10.0432 4.8 9.22645C4.8 8.41302 5.48482 7.75299 6.33172 7.74766C6.60277 7.11123 7.25095 6.66316 8.00745 6.66316C8.99929 6.66316 9.80492 7.43335 9.81857 8.38845C9.81961 8.38845 9.82064 8.38845 9.82168 8.38845C10.4841 8.38845 11.0211 8.90708 11.0211 9.54685C11.0211 10.1573 10.5322 10.6574 9.912 10.702C9.90779 10.7041 9.90306 10.7053 9.89806 10.7053H6.35956C6.35883 10.7053 6.35812 10.7052 6.35741 10.7052C6.35229 10.7052 6.34717 10.7053 6.34204 10.7053Z" fill="#253C6C"/>
</svg>
