<svg width="19" height="19" viewBox="0 0 19 19" fill="none" xmlns="http://www.w3.org/2000/svg">
<path fill-rule="evenodd" clip-rule="evenodd" d="M17.854 0.776374C16.8188 -0.258791 15.1405 -0.258792 14.1053 0.776374L9.26619 5.61548L4.52498 0.874274C3.48981 -0.160891 1.81148 -0.160891 0.776313 0.874275C-0.258852 1.90944 -0.258852 3.58777 0.776313 4.62294L5.51752 9.36415L0.776709 14.105C-0.258457 15.1401 -0.258457 16.8185 0.776709 17.8536C1.81187 18.8888 3.49021 18.8888 4.52537 17.8536L9.26619 13.1128L14.1049 17.9515C15.1401 18.9867 16.8184 18.9867 17.8536 17.9515C18.8887 16.9164 18.8887 15.238 17.8536 14.2029L13.0149 9.36415L17.854 4.52504C18.8891 3.48987 18.8891 1.81154 17.854 0.776374Z" fill="#A5B1C0"/>
</svg>
