<?xml version="1.0" encoding="UTF-8"?>
<svg width="40px" height="42px" viewBox="0 0 40 42" version="1.1" xmlns="http://www.w3.org/2000/svg" xmlns:xlink="http://www.w3.org/1999/xlink">
    <!-- Generator: Sketch 53.2 (72643) - https://sketchapp.com -->
    <title>durable</title>
    <desc>Created with Sketch.</desc>
    <defs>
        <linearGradient x1="59.3233471%" y1="100%" x2="40.6766529%" y2="0%" id="linearGradient-1">
            <stop stop-color="#B341FF" offset="0%"></stop>
            <stop stop-color="#2582FF" offset="100%"></stop>
        </linearGradient>
        <linearGradient x1="0%" y1="50%" x2="100%" y2="50%" id="linearGradient-2">
            <stop stop-color="#D7EBFF" offset="0%"></stop>
            <stop stop-color="#ABCEF2" offset="48.4740733%"></stop>
            <stop stop-color="#8AACD1" offset="100%"></stop>
        </linearGradient>
        <linearGradient x1="48.2988514%" y1="110.885075%" x2="42.8940344%" y2="-9.24258951%" id="linearGradient-3">
            <stop stop-color="#205193" stop-opacity="0.292859484" offset="0%"></stop>
            <stop stop-color="#0383FF" stop-opacity="0.103365385" offset="100%"></stop>
        </linearGradient>
        <path d="M22.7272727,0 C26.203859,4.49276897 31.7014635,7.14285714 37.5451205,7.14285714 L40,7.14285714 L40,18.2369988 C40,25.538986 36.0101295,32.309925 29.4793312,36.0909135 L22.7272727,40 L22.7272727,40 L22.7272727,40" id="path-4"></path>
        <radialGradient cx="50%" cy="50%" fx="50%" fy="50%" r="67.5945909%" gradientTransform="translate(0.500000,0.500000),scale(0.931034,1.000000),rotate(41.968703),translate(-0.500000,-0.500000)" id="radialGradient-5">
            <stop stop-color="#F7F7F7" offset="0%"></stop>
            <stop stop-color="#FFFFFF" offset="100%"></stop>
        </radialGradient>
    </defs>
    <g id="Tardigrade-Icos" stroke="none" stroke-width="1" fill="none" fill-rule="evenodd">
        <g id="durable" transform="translate(-1.000000, 1.000000)">
            <path d="M22.7272727,40 L15.9752143,36.0909135 C9.44441594,32.309925 5.45454545,25.538986 5.45454545,18.2369988 L5.45454545,7.14285714 L7.90942494,7.14285714 C13.753082,7.14285714 19.2506864,4.49276897 22.7272727,0 L22.7272727,40 L22.7272727,40 Z" id="Path" stroke-opacity="0.40786167" stroke="#003071" stroke-width="1.5" fill="url(#linearGradient-1)" stroke-linecap="round" stroke-linejoin="round"></path>
            <g id="Path" stroke-width="1.5">
                <path stroke="url(#linearGradient-3)" d="M23.4772727,2.00955388 L23.4772727,38.6991645 L29.103554,35.4418438 C35.4050464,31.7936114 39.25,25.268601 39.25,18.2369988 L39.25,7.89285714 L37.5451205,7.89285714 C32.1765728,7.89285714 27.0865652,5.73975922 23.4772727,2.00955388 Z" stroke-linejoin="square" fill="url(#linearGradient-2)" fill-rule="evenodd"></path>
                <use stroke-opacity="0.40786167" stroke="#003071" xlink:href="#path-4"></use>
            </g>
            <path d="M17.5246198,19.5545657 L20.6666231,18.1951967 C21.0721266,18.0197581 21.5430733,18.2062624 21.7185119,18.6117659 C21.8142814,18.8331245 21.8050721,19.0858757 21.6934469,19.2996776 L20.2371419,22.0890196 L28.0056663,23.2675685 C28.4424958,23.3338391 28.7428931,23.7416824 28.6766225,24.1785119 C28.6237282,24.5271699 28.3487733,24.8000694 27.9997283,24.8503461 L20.1973434,25.9742078 L21.6049028,28.7943274 C21.8022138,29.1896503 21.6416934,29.6700749 21.2463705,29.8673859 C21.0309634,29.9748984 20.7785923,29.979688 20.559261,29.8804261 L17.4474145,28.4721096 L16.1562624,35.8494508 C16.0800933,36.2846635 15.6655364,36.5757258 15.2303237,36.4995567 C14.8958208,36.4410133 14.6347277,36.1776663 14.5790616,35.8426726 L13.3483718,28.4364858 L10.2063685,29.7958548 C9.80086501,29.9712934 9.32991834,29.7847891 9.15447967,29.3792856 C9.0587102,29.157927 9.06791954,28.9051758 9.17954469,28.6913739 L10.6358497,25.9020319 L2.8673253,24.723483 C2.4304958,24.6572124 2.13009847,24.2493691 2.19636909,23.8125396 C2.24926338,23.4638816 2.52421827,23.1909821 2.87326336,23.1407054 L10.6756482,22.0168437 L9.2680888,19.1967241 C9.07077785,18.8014012 9.23129826,18.3209766 9.62662116,18.1236656 C9.84202825,18.016153 10.0943993,18.0113635 10.3137306,18.1106254 L13.4255771,19.5189419 L14.7167292,12.1416006 C14.7928984,11.706388 15.2074552,11.4153257 15.6426679,11.4914948 C15.9771708,11.5500382 16.2382639,11.8133852 16.29393,12.1483789 L17.5246198,19.5545657 Z" id="Star" stroke="#8EC0FE" fill="url(#radialGradient-5)" stroke-linecap="round" stroke-linejoin="round"></path>
        </g>
    </g>
</svg>