<?xml version="1.0" encoding="UTF-8"?>
<svg width="33px" height="42px" viewBox="0 0 33 42" version="1.1" xmlns="http://www.w3.org/2000/svg" xmlns:xlink="http://www.w3.org/1999/xlink">
    <!-- Generator: Sketch 53.2 (72643) - https://sketchapp.com -->
    <title>tar-com-ico-lock-unlock copy</title>
    <desc>Created with Sketch.</desc>
    <defs>
        <linearGradient x1="58.319722%" y1="16.5898174%" x2="58.319722%" y2="100%" id="linearGradient-1">
            <stop stop-color="#EBEBEB" offset="0%"></stop>
            <stop stop-color="#BCC6CB" offset="100%"></stop>
        </linearGradient>
        <linearGradient x1="14.645243%" y1="66.8174683%" x2="85.354757%" y2="33.1825317%" id="linearGradient-2">
            <stop stop-color="#10B0FF" offset="0%"></stop>
            <stop stop-color="#08EBBF" offset="100%"></stop>
        </linearGradient>
    </defs>
    <g id="Tardigrade-Icos" stroke="none" stroke-width="1" fill="none" fill-rule="evenodd" stroke-opacity="0.238224638">
        <g id="tar-com-ico-lock-unlock-copy" transform="translate(0.000000, 2.000000)" fill-rule="nonzero" stroke="#000000" stroke-width="1.5">
            <path d="M10.1751096,20.8666669 L10.1751096,21.6166669 L9.42510961,20.8666669 L10.1751096,20.8666669 Z M10.1751096,20.8666669 L20.5081783,20.8666669 L20.5081783,22.3666669 L4.20262278,22.3666669 L4.20262278,11.0694049 C4.20262278,4.54172783 9.49435061,-0.75 16.0220277,-0.75 C22.5497048,-0.75 27.8414326,4.54172783 27.8414326,11.0694049 L27.8414326,22.6018519 L21.8689458,22.6018519 L21.8689458,11.0694049 C21.8689458,7.84024122 19.2511914,5.22248683 16.0220277,5.22248683 C12.792864,5.22248683 10.1751096,7.84024122 10.1751096,11.0694049 L10.1751096,20.8666669 Z" id="Path" fill="url(#linearGradient-1)"></path>
            <path d="M31.426667,18.5277778 L0.75,18.5277778 L0.75,33.037474 C0.75,36.4518941 3.51793443,39.2198286 6.93235459,39.2198286 L25.2443125,39.2198286 C28.6587326,39.2198286 31.426667,36.4518941 31.426667,33.037474 L31.426667,18.5277778 Z" id="Shape-Copy" fill="url(#linearGradient-2)"></path>
        </g>
    </g>
</svg>