<svg width="49" height="43" viewBox="0 0 49 43" fill="none" xmlns="http://www.w3.org/2000/svg">
<path d="M25.6602 40.4611C36.1321 40.4611 44.6212 31.9719 44.6212 21.5001C44.6212 11.0281 36.1321 2.53906 25.6602 2.53906C15.1883 2.53906 6.69922 11.0281 6.69922 21.5001C6.69922 31.9719 15.1883 40.4611 25.6602 40.4611Z" fill="url(#paint0_linear)"/>
<path fill-rule="evenodd" clip-rule="evenodd" d="M39.3123 8.34183C42.5995 11.7516 44.6212 16.3898 44.6212 21.5C44.6212 27.0832 42.2082 32.1025 38.3682 35.5724C36.9918 33.8577 36.8953 29.7483 35.7019 26.1196C34.6398 22.8905 31.189 20.4768 31.189 18.7558C31.189 14.7151 34.504 8.88334 39.3123 8.34183ZM17.8925 38.8021C11.2939 35.835 6.69922 29.2041 6.69922 21.5C6.69922 13.6468 11.4737 6.90857 18.2782 4.02979C18.3192 4.04786 18.3583 4.06562 18.3959 4.08308C19.7542 4.71464 21.2159 6.01116 22.7809 7.97262C23.2765 8.59381 23.4857 9.39584 23.3568 10.18L21.3242 22.5491C21.2355 23.0896 21.3064 23.6439 21.5287 24.1444L22.8926 27.2174C23.1299 27.752 22.889 28.3777 22.3544 28.6149C22.2193 28.6751 22.0728 28.706 21.9248 28.706C20.9334 28.706 20.0338 28.1254 19.6254 27.222L18.3959 24.5025C14.2579 25.4116 12.3955 26.8128 12.8089 28.706C13.4758 31.76 15.8287 35.6084 17.8925 38.8021Z" fill="url(#paint1_linear)"/>
<path d="M23.3684 2.67619C23.1677 2.70039 22.968 2.72773 22.7691 2.75815C20.5202 2.11337 18.4217 2.21789 16.7071 3.20773C11.382 6.28225 11.601 16.836 17.3347 26.767C23.0684 36.6979 32.0986 42.1646 37.4238 39.09C39.5253 37.8767 40.7633 35.4987 41.1398 32.4536C41.2922 32.2388 41.4401 32.0207 41.5837 31.7994C41.3658 35.5714 39.9886 38.5685 37.4238 40.0493C31.6647 43.3743 22.2771 37.6913 16.3753 27.4693C10.4736 17.2471 10.2459 6.27567 16.0048 2.9507C18.0949 1.74405 20.6627 1.72374 23.3684 2.67619Z" fill="url(#paint2_radial)"/>
<g filter="url(#filter0_d)">
<path d="M18.2877 30.6293C18.8695 30.6293 19.3411 30.1577 19.3411 29.5759C19.3411 28.9941 18.8695 28.5225 18.2877 28.5225C17.706 28.5225 17.2344 28.9941 17.2344 29.5759C17.2344 30.1577 17.706 30.6293 18.2877 30.6293Z" fill="black"/>
</g>
<path d="M18.2877 30.6293C18.8695 30.6293 19.3411 30.1577 19.3411 29.5759C19.3411 28.9941 18.8695 28.5225 18.2877 28.5225C17.706 28.5225 17.2344 28.9941 17.2344 29.5759C17.2344 30.1577 17.706 30.6293 18.2877 30.6293Z" fill="white"/>
<g filter="url(#filter1_d)">
<path d="M13.3716 19.3931C13.9534 19.3931 14.4251 18.9215 14.4251 18.3397C14.4251 17.7579 13.9534 17.2864 13.3716 17.2864C12.79 17.2864 12.3184 17.7579 12.3184 18.3397C12.3184 18.9215 12.79 19.3931 13.3716 19.3931Z" fill="black"/>
</g>
<path d="M13.3716 19.3931C13.9534 19.3931 14.4251 18.9215 14.4251 18.3397C14.4251 17.7579 13.9534 17.2864 13.3716 17.2864C12.79 17.2864 12.3184 17.7579 12.3184 18.3397C12.3184 18.9215 12.79 19.3931 13.3716 19.3931Z" fill="white"/>
<path d="M40.6004 9.896C43.1871 11.1357 44.9886 12.9659 45.6132 15.2969C47.3343 21.7203 39.4154 29.3171 28.014 32.3722C16.6126 35.4272 5.95619 32.8075 4.23505 26.3842C3.46857 23.5235 4.61393 20.4304 7.1273 17.6092C7.07223 17.8671 7.02259 18.1259 6.97837 18.3857C5.09145 20.8049 4.28533 23.3619 4.91337 25.7058C6.50486 31.6453 16.7558 34.1652 27.8322 31.1972C38.9088 28.2293 46.5263 20.9217 44.9349 14.9821C44.4224 13.0698 43.0126 11.5121 40.9663 10.3777C40.8472 10.2157 40.7254 10.055 40.6004 9.896Z" fill="url(#paint3_radial)"/>
<g filter="url(#filter2_d)">
<path d="M33.7376 30.6293C34.3194 30.6293 34.791 30.1577 34.791 29.5759C34.791 28.9941 34.3194 28.5225 33.7376 28.5225C33.1559 28.5225 32.6843 28.9941 32.6843 29.5759C32.6843 30.1577 33.1559 30.6293 33.7376 30.6293Z" fill="white"/>
</g>
<path d="M11.6164 33.0876C12.1982 33.0876 12.6698 32.6159 12.6698 32.0341C12.6698 31.4523 12.1982 30.9807 11.6164 30.9807C11.0346 30.9807 10.563 31.4523 10.563 32.0341C10.563 32.6159 11.0346 33.0876 11.6164 33.0876Z" fill="white"/>
<path d="M6.8789 24.0972C5.2586 21.7302 4.61361 19.2445 5.23822 16.9135C6.95935 10.4901 17.6159 7.87052 29.0172 10.9255C40.4185 13.9805 48.3375 21.5774 46.6163 28.0007C45.8498 30.8612 43.3114 32.9675 39.7241 34.1541C39.9008 33.9582 40.0732 33.7588 40.2414 33.556C43.085 32.4044 45.0616 30.593 45.6898 28.2491C47.2813 22.3095 39.6636 15.0018 28.5872 12.0339C17.5106 9.06592 7.25974 11.5858 5.66827 17.5253C5.15588 19.4375 5.59807 21.4916 6.80293 23.497C6.825 23.6969 6.8503 23.8971 6.8789 24.0972Z" fill="url(#paint4_radial)"/>
<g filter="url(#filter3_d)">
<path d="M28.1192 12.3709C28.701 12.3709 29.1726 11.8993 29.1726 11.3176C29.1726 10.7358 28.701 10.2642 28.1192 10.2642C27.5374 10.2642 27.0659 10.7358 27.0659 11.3176C27.0659 11.8993 27.5374 12.3709 28.1192 12.3709Z" fill="black"/>
</g>
<path d="M28.1192 12.3707C28.701 12.3707 29.1726 11.8991 29.1726 11.3173C29.1726 10.7355 28.701 10.2639 28.1192 10.2639C27.5374 10.2639 27.0659 10.7355 27.0659 11.3173C27.0659 11.8991 27.5374 12.3707 28.1192 12.3707Z" fill="white"/>
<g filter="url(#filter4_d)">
<path d="M46.0271 28.5227C46.4149 28.5227 46.7293 28.2082 46.7293 27.8206C46.7293 27.4327 46.4149 27.1182 46.0271 27.1182C45.6392 27.1182 45.3247 27.4327 45.3247 27.8206C45.3247 28.2082 45.6392 28.5227 46.0271 28.5227Z" fill="black"/>
</g>
<path d="M46.0269 28.5227C46.4147 28.5227 46.729 28.2082 46.729 27.8206C46.729 27.4327 46.4147 27.1182 46.0269 27.1182C45.639 27.1182 45.3245 27.4327 45.3245 27.8206C45.3245 28.2082 45.639 28.5227 46.0269 28.5227Z" fill="white"/>
<g filter="url(#filter5_d)">
<path d="M12.3179 12.3709C12.7058 12.3709 13.0201 12.0564 13.0201 11.6686C13.0201 11.2807 12.7058 10.9663 12.3179 10.9663C11.9301 10.9663 11.6157 11.2807 11.6157 11.6686C11.6157 12.0564 11.9301 12.3709 12.3179 12.3709Z" fill="white"/>
</g>
<g filter="url(#filter6_d)">
<path d="M5.64708 21.8512C6.03493 21.8512 6.34934 21.5368 6.34934 21.1489C6.34934 20.7611 6.03493 20.4468 5.64708 20.4468C5.25923 20.4468 4.94482 20.7611 4.94482 21.1489C4.94482 21.5368 5.25923 21.8512 5.64708 21.8512Z" fill="black"/>
</g>
<path d="M5.64683 21.8512C6.03469 21.8512 6.3491 21.5368 6.3491 21.1489C6.3491 20.7611 6.03469 20.4468 5.64683 20.4468C5.25899 20.4468 4.94458 20.7611 4.94458 21.1489C4.94458 21.5368 5.25899 21.8512 5.64683 21.8512Z" fill="white"/>
<g filter="url(#filter7_d)">
<path d="M44.2715 13.4243C44.6594 13.4243 44.9738 13.1098 44.9738 12.7221C44.9738 12.3342 44.6594 12.0198 44.2715 12.0198C43.8837 12.0198 43.5693 12.3342 43.5693 12.7221C43.5693 13.1098 43.8837 13.4243 44.2715 13.4243Z" fill="black"/>
</g>
<path d="M44.2715 13.4243C44.6594 13.4243 44.9738 13.1098 44.9738 12.7221C44.9738 12.3342 44.6594 12.0198 44.2715 12.0198C43.8837 12.0198 43.5693 12.3342 43.5693 12.7221C43.5693 13.1098 43.8837 13.4243 44.2715 13.4243Z" fill="white"/>
<g filter="url(#filter8_d)">
<path d="M16.8829 3.59202C17.2709 3.59202 17.5852 3.27759 17.5852 2.88975C17.5852 2.5019 17.2709 2.1875 16.8829 2.1875C16.4952 2.1875 16.1807 2.5019 16.1807 2.88975C16.1807 3.27759 16.4952 3.59202 16.8829 3.59202Z" fill="black"/>
</g>
<path d="M16.8829 3.59226C17.2709 3.59226 17.5852 3.27784 17.5852 2.89C17.5852 2.50214 17.2709 2.18774 16.8829 2.18774C16.4952 2.18774 16.1807 2.50214 16.1807 2.89C16.1807 3.27784 16.4952 3.59226 16.8829 3.59226Z" fill="white"/>
<g filter="url(#filter9_d)">
<path d="M30.5769 40.4608C30.9648 40.4608 31.2792 40.1464 31.2792 39.7587C31.2792 39.3708 30.9648 39.0564 30.5769 39.0564C30.1891 39.0564 29.8748 39.3708 29.8748 39.7587C29.8748 40.1464 30.1891 40.4608 30.5769 40.4608Z" fill="black"/>
</g>
<path d="M30.5769 40.4608C30.9648 40.4608 31.2792 40.1464 31.2792 39.7587C31.2792 39.3708 30.9648 39.0564 30.5769 39.0564C30.1891 39.0564 29.8748 39.3708 29.8748 39.7587C29.8748 40.1464 30.1891 40.4608 30.5769 40.4608Z" fill="white"/>
<g filter="url(#filter10_d)">
<path d="M6.69981 29.9272C7.08767 29.9272 7.40207 29.6127 7.40207 29.2249C7.40207 28.837 7.08767 28.5225 6.69981 28.5225C6.31197 28.5225 5.99756 28.837 5.99756 29.2249C5.99756 29.6127 6.31197 29.9272 6.69981 29.9272Z" fill="black"/>
</g>
<path d="M6.69981 29.9272C7.08767 29.9272 7.40207 29.6127 7.40207 29.2249C7.40207 28.837 7.08767 28.5225 6.69981 28.5225C6.31197 28.5225 5.99756 28.837 5.99756 29.2249C5.99756 29.6127 6.31197 29.9272 6.69981 29.9272Z" fill="white"/>
<defs>
<filter id="filter0_d" x="15.2344" y="26.5225" width="6.1067" height="6.10684" filterUnits="userSpaceOnUse" color-interpolation-filters="sRGB">
<feFlood flood-opacity="0" result="BackgroundImageFix"/>
<feColorMatrix in="SourceAlpha" type="matrix" values="0 0 0 0 0 0 0 0 0 0 0 0 0 0 0 0 0 0 127 0"/>
<feOffset/>
<feGaussianBlur stdDeviation="1"/>
<feColorMatrix type="matrix" values="0 0 0 0 1 0 0 0 0 1 0 0 0 0 1 0 0 0 1 0"/>
<feBlend mode="normal" in2="BackgroundImageFix" result="effect1_dropShadow"/>
<feBlend mode="normal" in="SourceGraphic" in2="effect1_dropShadow" result="shape"/>
</filter>
<filter id="filter1_d" x="10.3184" y="15.2864" width="6.1067" height="6.1067" filterUnits="userSpaceOnUse" color-interpolation-filters="sRGB">
<feFlood flood-opacity="0" result="BackgroundImageFix"/>
<feColorMatrix in="SourceAlpha" type="matrix" values="0 0 0 0 0 0 0 0 0 0 0 0 0 0 0 0 0 0 127 0"/>
<feOffset/>
<feGaussianBlur stdDeviation="1"/>
<feColorMatrix type="matrix" values="0 0 0 0 1 0 0 0 0 1 0 0 0 0 1 0 0 0 1 0"/>
<feBlend mode="normal" in2="BackgroundImageFix" result="effect1_dropShadow"/>
<feBlend mode="normal" in="SourceGraphic" in2="effect1_dropShadow" result="shape"/>
</filter>
<filter id="filter2_d" x="30.6843" y="26.5225" width="6.1067" height="6.10684" filterUnits="userSpaceOnUse" color-interpolation-filters="sRGB">
<feFlood flood-opacity="0" result="BackgroundImageFix"/>
<feColorMatrix in="SourceAlpha" type="matrix" values="0 0 0 0 0 0 0 0 0 0 0 0 0 0 0 0 0 0 127 0"/>
<feOffset/>
<feGaussianBlur stdDeviation="1"/>
<feColorMatrix type="matrix" values="0 0 0 0 1 0 0 0 0 1 0 0 0 0 1 0 0 0 1 0"/>
<feBlend mode="normal" in2="BackgroundImageFix" result="effect1_dropShadow"/>
<feBlend mode="normal" in="SourceGraphic" in2="effect1_dropShadow" result="shape"/>
</filter>
<filter id="filter3_d" x="25.0659" y="8.26416" width="6.1067" height="6.10678" filterUnits="userSpaceOnUse" color-interpolation-filters="sRGB">
<feFlood flood-opacity="0" result="BackgroundImageFix"/>
<feColorMatrix in="SourceAlpha" type="matrix" values="0 0 0 0 0 0 0 0 0 0 0 0 0 0 0 0 0 0 127 0"/>
<feOffset/>
<feGaussianBlur stdDeviation="1"/>
<feColorMatrix type="matrix" values="0 0 0 0 1 0 0 0 0 1 0 0 0 0 1 0 0 0 1 0"/>
<feBlend mode="normal" in2="BackgroundImageFix" result="effect1_dropShadow"/>
<feBlend mode="normal" in="SourceGraphic" in2="effect1_dropShadow" result="shape"/>
</filter>
<filter id="filter4_d" x="43.3247" y="25.1182" width="5.40456" height="5.40456" filterUnits="userSpaceOnUse" color-interpolation-filters="sRGB">
<feFlood flood-opacity="0" result="BackgroundImageFix"/>
<feColorMatrix in="SourceAlpha" type="matrix" values="0 0 0 0 0 0 0 0 0 0 0 0 0 0 0 0 0 0 127 0"/>
<feOffset/>
<feGaussianBlur stdDeviation="1"/>
<feColorMatrix type="matrix" values="0 0 0 0 1 0 0 0 0 1 0 0 0 0 1 0 0 0 1 0"/>
<feBlend mode="normal" in2="BackgroundImageFix" result="effect1_dropShadow"/>
<feBlend mode="normal" in="SourceGraphic" in2="effect1_dropShadow" result="shape"/>
</filter>
<filter id="filter5_d" x="0.615723" y="7.96631" width="23.4044" height="23.4046" filterUnits="userSpaceOnUse" color-interpolation-filters="sRGB">
<feFlood flood-opacity="0" result="BackgroundImageFix"/>
<feColorMatrix in="SourceAlpha" type="matrix" values="0 0 0 0 0 0 0 0 0 0 0 0 0 0 0 0 0 0 127 0"/>
<feOffset dy="8"/>
<feGaussianBlur stdDeviation="5.5"/>
<feColorMatrix type="matrix" values="0 0 0 0 1 0 0 0 0 1 0 0 0 0 1 0 0 0 1 0"/>
<feBlend mode="normal" in2="BackgroundImageFix" result="effect1_dropShadow"/>
<feBlend mode="normal" in="SourceGraphic" in2="effect1_dropShadow" result="shape"/>
</filter>
<filter id="filter6_d" x="2.94482" y="18.4468" width="5.40452" height="5.40442" filterUnits="userSpaceOnUse" color-interpolation-filters="sRGB">
<feFlood flood-opacity="0" result="BackgroundImageFix"/>
<feColorMatrix in="SourceAlpha" type="matrix" values="0 0 0 0 0 0 0 0 0 0 0 0 0 0 0 0 0 0 127 0"/>
<feOffset/>
<feGaussianBlur stdDeviation="1"/>
<feColorMatrix type="matrix" values="0 0 0 0 1 0 0 0 0 1 0 0 0 0 1 0 0 0 1 0"/>
<feBlend mode="normal" in2="BackgroundImageFix" result="effect1_dropShadow"/>
<feBlend mode="normal" in="SourceGraphic" in2="effect1_dropShadow" result="shape"/>
</filter>
<filter id="filter7_d" x="41.5693" y="10.0198" width="5.40442" height="5.40456" filterUnits="userSpaceOnUse" color-interpolation-filters="sRGB">
<feFlood flood-opacity="0" result="BackgroundImageFix"/>
<feColorMatrix in="SourceAlpha" type="matrix" values="0 0 0 0 0 0 0 0 0 0 0 0 0 0 0 0 0 0 127 0"/>
<feOffset/>
<feGaussianBlur stdDeviation="1"/>
<feColorMatrix type="matrix" values="0 0 0 0 1 0 0 0 0 1 0 0 0 0 1 0 0 0 1 0"/>
<feBlend mode="normal" in2="BackgroundImageFix" result="effect1_dropShadow"/>
<feBlend mode="normal" in="SourceGraphic" in2="effect1_dropShadow" result="shape"/>
</filter>
<filter id="filter8_d" x="14.1807" y="0.1875" width="5.40456" height="5.40452" filterUnits="userSpaceOnUse" color-interpolation-filters="sRGB">
<feFlood flood-opacity="0" result="BackgroundImageFix"/>
<feColorMatrix in="SourceAlpha" type="matrix" values="0 0 0 0 0 0 0 0 0 0 0 0 0 0 0 0 0 0 127 0"/>
<feOffset/>
<feGaussianBlur stdDeviation="1"/>
<feColorMatrix type="matrix" values="0 0 0 0 1 0 0 0 0 1 0 0 0 0 1 0 0 0 1 0"/>
<feBlend mode="normal" in2="BackgroundImageFix" result="effect1_dropShadow"/>
<feBlend mode="normal" in="SourceGraphic" in2="effect1_dropShadow" result="shape"/>
</filter>
<filter id="filter9_d" x="27.8748" y="37.0564" width="5.40442" height="5.40442" filterUnits="userSpaceOnUse" color-interpolation-filters="sRGB">
<feFlood flood-opacity="0" result="BackgroundImageFix"/>
<feColorMatrix in="SourceAlpha" type="matrix" values="0 0 0 0 0 0 0 0 0 0 0 0 0 0 0 0 0 0 127 0"/>
<feOffset/>
<feGaussianBlur stdDeviation="1"/>
<feColorMatrix type="matrix" values="0 0 0 0 1 0 0 0 0 1 0 0 0 0 1 0 0 0 1 0"/>
<feBlend mode="normal" in2="BackgroundImageFix" result="effect1_dropShadow"/>
<feBlend mode="normal" in="SourceGraphic" in2="effect1_dropShadow" result="shape"/>
</filter>
<filter id="filter10_d" x="3.99756" y="26.5225" width="5.40452" height="5.4047" filterUnits="userSpaceOnUse" color-interpolation-filters="sRGB">
<feFlood flood-opacity="0" result="BackgroundImageFix"/>
<feColorMatrix in="SourceAlpha" type="matrix" values="0 0 0 0 0 0 0 0 0 0 0 0 0 0 0 0 0 0 127 0"/>
<feOffset/>
<feGaussianBlur stdDeviation="1"/>
<feColorMatrix type="matrix" values="0 0 0 0 1 0 0 0 0 1 0 0 0 0 1 0 0 0 1 0"/>
<feBlend mode="normal" in2="BackgroundImageFix" result="effect1_dropShadow"/>
<feBlend mode="normal" in="SourceGraphic" in2="effect1_dropShadow" result="shape"/>
</filter>
<linearGradient id="paint0_linear" x1="36.4994" y1="37.701" x2="19.1988" y2="3.69047" gradientUnits="userSpaceOnUse">
<stop stop-color="#000B1A"/>
<stop offset="1" stop-color="#006AD5"/>
</linearGradient>
<linearGradient id="paint1_linear" x1="27.7145" y1="86.8039" x2="14.8147" y2="-4.83004" gradientUnits="userSpaceOnUse">
<stop stop-color="#D705FF"/>
<stop offset="1" stop-color="#29D6FF"/>
</linearGradient>
<radialGradient id="paint2_radial" cx="0" cy="0" r="1" gradientUnits="userSpaceOnUse" gradientTransform="translate(6.01234 -20.0772) rotate(-135) scale(21.05 28.5891)">
<stop stop-color="#EEFFFF"/>
<stop offset="1" stop-color="#72AEFF" stop-opacity="0.576349"/>
</radialGradient>
<radialGradient id="paint3_radial" cx="0" cy="0" r="1" gradientUnits="userSpaceOnUse" gradientTransform="translate(-0.363658 -24.692) rotate(-135) scale(29.5911 19.5606)">
<stop stop-color="#EEFFFF"/>
<stop offset="1" stop-color="#72AEFF" stop-opacity="0.85"/>
</radialGradient>
<radialGradient id="paint4_radial" cx="0" cy="0" r="1" gradientUnits="userSpaceOnUse" gradientTransform="translate(-0.766349 -25.4241) rotate(-135) scale(29.5911 19.8673)">
<stop stop-color="#EEFFFF"/>
<stop offset="1" stop-color="#72AEFF" stop-opacity="0.576349"/>
</radialGradient>
</defs>
</svg>
