<?xml version="1.0" encoding="UTF-8"?>
<svg width="67px" height="73px" viewBox="0 0 67 73" version="1.1" xmlns="http://www.w3.org/2000/svg" xmlns:xlink="http://www.w3.org/1999/xlink">
    <!-- Generator: Sketch 53.2 (72643) - https://sketchapp.com -->
    <title>tar-com-ico-images</title>
    <desc>Created with Sketch.</desc>
    <defs>
        <linearGradient x1="24.6949804%" y1="3.71311037%" x2="128.266825%" y2="194.053089%" id="linearGradient-1">
            <stop stop-color="#E8ECF1" offset="0%"></stop>
            <stop stop-color="#93A1AF" offset="100%"></stop>
        </linearGradient>
        <path d="M2,-7.10542736e-15 L36.5454545,-7.10542736e-15 C37.650024,-7.30833348e-15 38.5454545,0.8954305 38.5454545,2 L38.5454545,43 C38.5454545,44.1045695 37.650024,45 36.5454545,45 L2,45 C0.8954305,45 1.3527075e-16,44.1045695 0,43 L0,2 C-1.3527075e-16,0.8954305 0.8954305,-6.90252123e-15 2,-7.10542736e-15 Z" id="path-2"></path>
        <filter x="-18.2%" y="-11.1%" width="136.3%" height="131.1%" filterUnits="objectBoundingBox" id="filter-3">
            <feOffset dx="0" dy="2" in="SourceAlpha" result="shadowOffsetOuter1"></feOffset>
            <feGaussianBlur stdDeviation="2" in="shadowOffsetOuter1" result="shadowBlurOuter1"></feGaussianBlur>
            <feColorMatrix values="0 0 0 0 0   0 0 0 0 0   0 0 0 0 0  0 0 0 0.410210883 0" type="matrix" in="shadowBlurOuter1"></feColorMatrix>
        </filter>
        <linearGradient x1="100%" y1="100%" x2="0%" y2="0%" id="linearGradient-4">
            <stop stop-color="#B341FF" offset="0%"></stop>
            <stop stop-color="#2582FF" offset="100%"></stop>
        </linearGradient>
        <path d="M2,-7.10542736e-15 L36.5454545,-7.10542736e-15 C37.650024,-7.30833348e-15 38.5454545,0.8954305 38.5454545,2 L38.5454545,43 C38.5454545,44.1045695 37.650024,45 36.5454545,45 L2,45 C0.8954305,45 1.3527075e-16,44.1045695 0,43 L0,2 C-1.3527075e-16,0.8954305 0.8954305,-6.90252123e-15 2,-7.10542736e-15 Z" id="path-5"></path>
        <filter x="-18.2%" y="-11.1%" width="136.3%" height="131.1%" filterUnits="objectBoundingBox" id="filter-6">
            <feOffset dx="0" dy="2" in="SourceAlpha" result="shadowOffsetOuter1"></feOffset>
            <feGaussianBlur stdDeviation="2" in="shadowOffsetOuter1" result="shadowBlurOuter1"></feGaussianBlur>
            <feColorMatrix values="0 0 0 0 0   0 0 0 0 0   0 0 0 0 0  0 0 0 0.410210883 0" type="matrix" in="shadowBlurOuter1"></feColorMatrix>
        </filter>
        <path d="M2,-7.10542736e-15 L36.5454545,-7.10542736e-15 C37.650024,-7.30833348e-15 38.5454545,0.8954305 38.5454545,2 L38.5454545,43 C38.5454545,44.1045695 37.650024,45 36.5454545,45 L2,45 C0.8954305,45 1.3527075e-16,44.1045695 0,43 L0,2 C-1.3527075e-16,0.8954305 0.8954305,-6.90252123e-15 2,-7.10542736e-15 Z" id="path-7"></path>
        <filter x="-18.2%" y="-11.1%" width="136.3%" height="131.1%" filterUnits="objectBoundingBox" id="filter-8">
            <feOffset dx="0" dy="2" in="SourceAlpha" result="shadowOffsetOuter1"></feOffset>
            <feGaussianBlur stdDeviation="2" in="shadowOffsetOuter1" result="shadowBlurOuter1"></feGaussianBlur>
            <feColorMatrix values="0 0 0 0 0   0 0 0 0 0   0 0 0 0 0  0 0 0 0.410210883 0" type="matrix" in="shadowBlurOuter1"></feColorMatrix>
        </filter>
    </defs>
    <g id="Tardigrade-Icos" stroke="none" stroke-width="1" fill="none" fill-rule="evenodd">
        <g id="tar-com-ico-images" transform="translate(4.000000, 2.000000)">
            <g id="Group-68" opacity="0.365280878">
                <g id="Group-67-Copy-2" opacity="0.51578776">
                    <g id="Rectangle">
                        <use fill="black" fill-opacity="1" filter="url(#filter-3)" xlink:href="#path-2"></use>
                        <use fill="url(#linearGradient-1)" fill-rule="evenodd" xlink:href="#path-2"></use>
                        <use fill-opacity="0.290100524" fill="#FFFFFF" fill-rule="evenodd" xlink:href="#path-2"></use>
                    </g>
                    <rect id="Rectangle-Copy-9" stroke-opacity="0.229403409" stroke="#000000" fill="url(#linearGradient-4)" x="4.13636364" y="4.13636364" width="30.2727273" height="30.2727273" rx="1.5"></rect>
                </g>
                <g id="Group-67-Copy" transform="translate(10.000000, 10.000000)">
                    <g id="Rectangle">
                        <use fill="black" fill-opacity="1" filter="url(#filter-6)" xlink:href="#path-5"></use>
                        <use fill="url(#linearGradient-1)" fill-rule="evenodd" xlink:href="#path-5"></use>
                        <use fill-opacity="0.290100524" fill="#FFFFFF" fill-rule="evenodd" xlink:href="#path-5"></use>
                    </g>
                    <rect id="Rectangle-Copy-9" stroke-opacity="0.229403409" stroke="#000000" fill="url(#linearGradient-4)" x="4.13636364" y="4.13636364" width="30.2727273" height="30.2727273" rx="1.5"></rect>
                </g>
            </g>
            <g id="Group-67" transform="translate(20.000000, 20.000000)">
                <g id="Rectangle">
                    <use fill="black" fill-opacity="1" filter="url(#filter-8)" xlink:href="#path-7"></use>
                    <use fill="url(#linearGradient-1)" fill-rule="evenodd" xlink:href="#path-7"></use>
                    <use fill-opacity="0.290100524" fill="#FFFFFF" fill-rule="evenodd" xlink:href="#path-7"></use>
                </g>
                <rect id="Rectangle-Copy-9" stroke-opacity="0.229403409" stroke="#000000" fill="url(#linearGradient-4)" x="4.13636364" y="4.13636364" width="30.2727273" height="30.2727273" rx="1.5"></rect>
            </g>
        </g>
    </g>
</svg>