<svg width="1440" height="987" viewBox="0 0 1440 987" fill="none" xmlns="http://www.w3.org/2000/svg">
<g opacity="0.1" filter="url(#filter0_d)">
<path d="M217 533H9.00001C-49.5422 533 -97 580.458 -97 639V847C-97 905.542 -49.5422 953 9.00001 953H217C275.542 953 323 905.542 323 847V639C323 580.458 275.542 533 217 533Z" fill="#0075FF"/>
</g>
<g opacity="0.1" filter="url(#filter1_d)">
<path d="M885 -184H677C618.458 -184 571 -136.542 571 -78V130C571 188.542 618.458 236 677 236H885C943.542 236 991 188.542 991 130V-78C991 -136.542 943.542 -184 885 -184Z" fill="#0075FF"/>
</g>
<g opacity="0.05" filter="url(#filter2_d)">
<path d="M1373.69 453H1308.31C1289.92 453 1275 467.915 1275 486.314V551.686C1275 570.085 1289.92 585 1308.31 585H1373.69C1392.08 585 1407 570.085 1407 551.686V486.314C1407 467.915 1392.08 453 1373.69 453Z" fill="#0075FF"/>
</g>
<g opacity="0.05" filter="url(#filter3_d)">
<path d="M211.686 -23H146.314C127.915 -23 113 -8.08468 113 10.3143V75.6857C113 94.0847 127.915 109 146.314 109H211.686C230.085 109 245 94.0847 245 75.6857V10.3143C245 -8.08468 230.085 -23 211.686 -23Z" fill="#0075FF"/>
</g>
<defs>
<filter id="filter0_d" x="-131" y="499" width="488" height="488" filterUnits="userSpaceOnUse" color-interpolation-filters="sRGB">
<feFlood flood-opacity="0" result="BackgroundImageFix"/>
<feColorMatrix in="SourceAlpha" type="matrix" values="0 0 0 0 0 0 0 0 0 0 0 0 0 0 0 0 0 0 127 0"/>
<feOffset/>
<feGaussianBlur stdDeviation="17"/>
<feColorMatrix type="matrix" values="0 0 0 0 0.0377257 0 0 0 0 0.10428 0 0 0 0 0.170833 0 0 0 0.1 0"/>
<feBlend mode="normal" in2="BackgroundImageFix" result="effect1_dropShadow"/>
<feBlend mode="normal" in="SourceGraphic" in2="effect1_dropShadow" result="shape"/>
</filter>
<filter id="filter1_d" x="537" y="-218" width="488" height="488" filterUnits="userSpaceOnUse" color-interpolation-filters="sRGB">
<feFlood flood-opacity="0" result="BackgroundImageFix"/>
<feColorMatrix in="SourceAlpha" type="matrix" values="0 0 0 0 0 0 0 0 0 0 0 0 0 0 0 0 0 0 127 0"/>
<feOffset/>
<feGaussianBlur stdDeviation="17"/>
<feColorMatrix type="matrix" values="0 0 0 0 0.0377257 0 0 0 0 0.10428 0 0 0 0 0.170833 0 0 0 0.1 0"/>
<feBlend mode="normal" in2="BackgroundImageFix" result="effect1_dropShadow"/>
<feBlend mode="normal" in="SourceGraphic" in2="effect1_dropShadow" result="shape"/>
</filter>
<filter id="filter2_d" x="1241" y="419" width="200" height="200" filterUnits="userSpaceOnUse" color-interpolation-filters="sRGB">
<feFlood flood-opacity="0" result="BackgroundImageFix"/>
<feColorMatrix in="SourceAlpha" type="matrix" values="0 0 0 0 0 0 0 0 0 0 0 0 0 0 0 0 0 0 127 0"/>
<feOffset/>
<feGaussianBlur stdDeviation="17"/>
<feColorMatrix type="matrix" values="0 0 0 0 0.0377257 0 0 0 0 0.10428 0 0 0 0 0.170833 0 0 0 0.1 0"/>
<feBlend mode="normal" in2="BackgroundImageFix" result="effect1_dropShadow"/>
<feBlend mode="normal" in="SourceGraphic" in2="effect1_dropShadow" result="shape"/>
</filter>
<filter id="filter3_d" x="79" y="-57" width="200" height="200" filterUnits="userSpaceOnUse" color-interpolation-filters="sRGB">
<feFlood flood-opacity="0" result="BackgroundImageFix"/>
<feColorMatrix in="SourceAlpha" type="matrix" values="0 0 0 0 0 0 0 0 0 0 0 0 0 0 0 0 0 0 127 0"/>
<feOffset/>
<feGaussianBlur stdDeviation="17"/>
<feColorMatrix type="matrix" values="0 0 0 0 0.0377257 0 0 0 0 0.10428 0 0 0 0 0.170833 0 0 0 0.1 0"/>
<feBlend mode="normal" in2="BackgroundImageFix" result="effect1_dropShadow"/>
<feBlend mode="normal" in="SourceGraphic" in2="effect1_dropShadow" result="shape"/>
</filter>
</defs>
</svg>
