<svg width="29" height="37" viewBox="0 0 29 37" fill="none" xmlns="http://www.w3.org/2000/svg">
<path d="M5.62778 11.1759C4.93843 13.9274 4.85673 16.3801 5.13747 18.2277C5.33916 19.5551 5.73234 20.5774 6.21375 21.2026C6.49758 21.5712 6.81615 21.8104 7.14567 21.9225C7.49741 22.0423 7.86804 22.0262 8.24489 21.8488C8.69819 21.6346 8.98912 21.2627 9.16797 20.8536C9.46252 20.1798 9.43739 19.4131 9.43047 19.2826L9.43062 17.916C9.43679 11.9686 9.50822 10.4103 10.8916 7.90476C12.2348 5.74535 13.2347 4.4163 15.001 2.76501C15.8251 1.87404 16.8029 1.14541 17.8844 0.613892C17.8918 3.02389 18.6682 5.37364 20.1066 7.30775C20.9264 8.57534 21.8394 9.77872 22.8577 10.93C25.407 13.8519 28.6116 17.4855 28.6116 22.8503C28.6116 25.9888 27.3071 29.0191 25.221 31.4283C23.0948 33.8838 20.1543 35.6969 16.9344 36.3199C15.2414 36.6204 14.1918 36.6186 11.9922 36.3195C8.79934 35.6759 5.8699 33.8544 3.75161 31.3932C1.68569 28.9928 0.389177 25.9811 0.388386 22.8532C0.450024 18.3816 2.35658 14.1509 5.62778 11.1759Z" fill="url(#paint0_linear)"/>
<path fill-rule="evenodd" clip-rule="evenodd" d="M13.1379 15.1749C13.63 17.6355 13.529 19.6483 12.8626 21.2177C12.5653 21.9177 12.1389 22.5145 11.6872 23.1406C10.7527 24.4362 9.70984 25.8732 9.70984 28.8671C9.70984 30.8266 10.3377 32.6001 11.4502 33.8641C12.5005 35.0574 13.9833 35.7897 15.7609 35.7897C17.5923 35.7897 19.2498 35.0158 20.4497 33.7661C21.6536 32.5123 22.3973 30.78 22.3973 28.8671C22.3973 26.9759 21.511 23.5938 18.1344 19.9103C16.6161 18.254 14.9506 16.6756 13.1379 15.1749Z" fill="url(#paint1_linear)"/>
<path opacity="0.677037" fill-rule="evenodd" clip-rule="evenodd" d="M16.0536 35.1342C17.1976 35.1342 18.125 34.1951 18.125 33.0367C18.125 31.8782 17.1976 28.8416 16.0536 28.8416C14.9096 28.8416 13.9821 31.8782 13.9821 33.0367C13.9821 34.1951 14.9096 35.1342 16.0536 35.1342Z" fill="white"/>
<defs>
<linearGradient id="paint0_linear" x1="23.4187" y1="4.22915" x2="-0.569021" y2="31.0423" gradientUnits="userSpaceOnUse">
<stop stop-color="#FF8800"/>
<stop offset="1" stop-color="#FF2400"/>
</linearGradient>
<linearGradient id="paint1_linear" x1="13.6225" y1="17.2491" x2="23.875" y2="32.0579" gradientUnits="userSpaceOnUse">
<stop stop-color="#FFDC00"/>
<stop offset="1" stop-color="#FF8500"/>
</linearGradient>
</defs>
</svg>
