<?xml version="1.0" encoding="UTF-8"?>
<svg width="56px" height="46px" viewBox="0 0 56 46" version="1.1" xmlns="http://www.w3.org/2000/svg" xmlns:xlink="http://www.w3.org/1999/xlink">
    <!-- Generator: Sketch 53.2 (72643) - https://sketchapp.com -->
    <title>tar-com-ico-reciept</title>
    <desc>Created with Sketch.</desc>
    <defs>
        <linearGradient x1="0%" y1="80.0148994%" x2="50%" y2="80.0148994%" id="linearGradient-1">
            <stop stop-color="#CED4DB" offset="0%"></stop>
            <stop stop-color="#7C8691" offset="71.2516562%"></stop>
            <stop stop-color="#242B34" offset="100%"></stop>
        </linearGradient>
        <linearGradient x1="17.0401637%" y1="0%" x2="17.0401637%" y2="100%" id="linearGradient-2">
            <stop stop-color="#E8ECF1" offset="0%"></stop>
            <stop stop-color="#848F9A" offset="100%"></stop>
        </linearGradient>
        <linearGradient x1="57.4473533%" y1="0%" x2="57.4473533%" y2="142.340948%" id="linearGradient-3">
            <stop stop-color="#FFFFFF" offset="0%"></stop>
            <stop stop-color="#EBEEF1" stop-opacity="0.960875599" offset="54.9626834%"></stop>
            <stop stop-color="#0D141B" offset="100%"></stop>
        </linearGradient>
        <linearGradient x1="37.519373%" y1="23.5110083%" x2="9.46253879%" y2="100%" id="linearGradient-4">
            <stop stop-color="#7B838F" stop-opacity="0.261609484" offset="0%"></stop>
            <stop stop-color="#979797" stop-opacity="0" offset="100%"></stop>
        </linearGradient>
    </defs>
    <g id="Tardigrade-Icos" stroke="none" stroke-width="1" fill="none" fill-rule="evenodd">
        <g id="tar-com-ico-reciept">
            <g id="Group-65">
                <g id="Group-55">
                    <g id="Group-2" transform="translate(0.000000, 10.914894)">
                        <path d="M4.00515145,0.965103474 L15.4945131,0.965103474 L15.4945131,24.7948907 L2.00515145,24.7948907 C0.900581946,24.7948907 0.00515144599,23.8994602 0.00515144599,22.7948907 L0.00515144599,4.96510347 C0.00515144599,2.75596447 1.79601245,0.965103474 4.00515145,0.965103474 Z" id="Rectangle-Copy-17" fill="url(#linearGradient-1)" opacity="0.586728051"></path>
                        <path d="M8.34559216,4.53957156 L8.34559216,5.73106092 L4.66583709,5.73106092 C4.33681638,5.73106092 4.07009241,5.46433694 4.07009241,5.13531624 C4.07009241,4.80629554 4.33681638,4.53957156 4.66583709,4.53957156 L8.34559216,4.53957156 Z M8.34559216,13.9585601 L8.34559216,15.1500494 L4.66583709,15.1500494 C4.33681638,15.1500494 4.07009241,14.8833255 4.07009241,14.5543048 C4.07009241,14.2252841 4.33681638,13.9585601 4.66583709,13.9585601 L8.34559216,13.9585601 Z M8.34559216,9.24906582 L8.34559216,10.2582432 L4.57468108,10.2582432 C4.29600445,10.2582432 4.07009241,10.0323311 4.07009241,9.75365449 C4.07009241,9.47497786 4.29600445,9.24906582 4.57468108,9.24906582 L8.34559216,9.24906582 Z M8.34559216,18.6680543 L8.34559216,19.6772317 L4.57468108,19.6772317 C4.29600445,19.6772317 4.07009241,19.4513196 4.07009241,19.172643 C4.07009241,18.8939664 4.29600445,18.6680543 4.57468108,18.6680543 L8.34559216,18.6680543 Z M8.34559216,20.7611629 L8.34559216,21.7703402 L4.44247171,21.7703402 C4.16379508,21.7703402 3.93788304,21.5444282 3.93788304,21.2657516 C3.93788304,20.9870749 4.16379508,20.7611629 4.44247171,20.7611629 L8.34559216,20.7611629 Z M8.34559216,7.90349603 L8.27499799,7.90349603 C7.99632137,7.90349603 7.77040932,7.67758399 7.77040932,7.39890736 C7.77040932,7.12023073 7.99632137,6.89431869 8.27499799,6.89431869 L8.34559216,6.89431869 L8.34559216,7.90349603 Z M8.34559216,17.3224846 L8.27499799,17.3224846 C7.99632137,17.3224846 7.77040932,17.0965725 7.77040932,16.8178959 C7.77040932,16.5392193 7.99632137,16.3133072 8.27499799,16.3133072 L8.34559216,16.3133072 L8.34559216,17.3224846 Z M4.57468108,6.89431869 L5.24746597,6.89431869 C5.5261426,6.89431869 5.75205464,7.12023073 5.75205464,7.39890736 C5.75205464,7.67758399 5.5261426,7.90349603 5.24746597,7.90349603 L4.57468108,7.90349603 C4.29600445,7.90349603 4.07009241,7.67758399 4.07009241,7.39890736 C4.07009241,7.12023073 4.29600445,6.89431869 4.57468108,6.89431869 Z M4.57468108,16.3133072 L5.24746597,16.3133072 C5.5261426,16.3133072 5.75205464,16.5392193 5.75205464,16.8178959 C5.75205464,17.0965725 5.5261426,17.3224846 5.24746597,17.3224846 L4.57468108,17.3224846 C4.29600445,17.3224846 4.07009241,17.0965725 4.07009241,16.8178959 C4.07009241,16.5392193 4.29600445,16.3133072 4.57468108,16.3133072 Z" id="Shape" fill-opacity="0.530048077" fill="#192431" opacity="0.583170573"></path>
                    </g>
                    <path d="M38.041158,11.8799971 L37.5051514,43.593837 C27.0146314,44.3393809 19.2934573,44.8683045 14.341629,45.1806077 C13.7024407,45.2209202 13.03709,45.2209202 12.345577,45.1806077 C10.136438,45.1806077 8.34557698,43.3897467 8.34557698,41.1806077 L8.34557698,14.8587205 C8.34557698,13.213617 7.01195708,11.8799971 5.36685357,11.8799971 L38.041158,11.8799971 Z" id="Rectangle-Copy-15" fill="url(#linearGradient-2)"></path>
                    <path d="M15.5730221,44.7765957 L49.3584288,44.7765957 C52.3959949,44.7765957 54.8584288,42.3141619 54.8584288,39.2765957 L54.8584288,4 C54.8584288,2.06700338 53.2914254,0.5 51.3584288,0.5 L20.589198,0.5 C18.6562014,0.5 17.089198,2.06700338 17.089198,4 L17.089198,41.5188216 C17.089198,42.8259795 16.500152,43.9955583 15.5730221,44.7765957 Z" id="Rectangle" stroke="url(#linearGradient-4)" fill="url(#linearGradient-3)"></path>
                    <path d="M23.4020731,7.79050736 L39.471904,7.79050736 C40.0455811,7.79050736 40.5106383,8.25556456 40.5106383,8.82924167 C40.5106383,9.40291879 40.0455811,9.86797598 39.471904,9.86797598 L23.4020731,9.86797598 C22.828396,9.86797598 22.3633388,9.40291879 22.3633388,8.82924167 C22.3633388,8.25556456 22.828396,7.79050736 23.4020731,7.79050736 Z M48.5455537,7.79050736 C49.1192309,7.79050736 49.5842881,8.25556456 49.5842881,8.82924167 C49.5842881,9.40291879 49.1192309,9.86797598 48.5455537,9.86797598 L46.4986361,9.86797598 C45.924959,9.86797598 45.4599018,9.40291879 45.4599018,8.82924167 C45.4599018,8.25556456 45.924959,7.79050736 46.4986361,7.79050736 L48.5455537,7.79050736 Z M23.4020731,27.1802145 L39.471904,27.1802145 C40.0455811,27.1802145 40.5106383,27.6452717 40.5106383,28.2189488 C40.5106383,28.7926259 40.0455811,29.2576831 39.471904,29.2576831 L23.4020731,29.2576831 C22.828396,29.2576831 22.3633388,28.7926259 22.3633388,28.2189488 C22.3633388,27.6452717 22.828396,27.1802145 23.4020731,27.1802145 Z M48.5455537,27.1802145 C49.1192309,27.1802145 49.5842881,27.6452717 49.5842881,28.2189488 C49.5842881,28.7926259 49.1192309,29.2576831 48.5455537,29.2576831 L46.4986361,29.2576831 C45.924959,29.2576831 45.4599018,28.7926259 45.4599018,28.2189488 C45.4599018,27.6452717 45.924959,27.1802145 46.4986361,27.1802145 L48.5455537,27.1802145 Z M23.4020731,17.4853609 L48.5455537,17.4853609 C49.1192309,17.4853609 49.5842881,17.9504181 49.5842881,18.5240952 C49.5842881,19.0977723 49.1192309,19.5628295 48.5455537,19.5628295 L23.4020731,19.5628295 C22.828396,19.5628295 22.3633388,19.0977723 22.3633388,18.5240952 C22.3633388,17.9504181 22.828396,17.4853609 23.4020731,17.4853609 Z M23.4020731,36.875068 L48.5455537,36.875068 C49.1192309,36.875068 49.5842881,37.3401252 49.5842881,37.9138023 C49.5842881,38.4874795 49.1192309,38.9525366 48.5455537,38.9525366 L23.4020731,38.9525366 C22.828396,38.9525366 22.3633388,38.4874795 22.3633388,37.9138023 C22.3633388,37.3401252 22.828396,36.875068 23.4020731,36.875068 Z M48.5455537,12.6379341 C49.1192309,12.6379341 49.5842881,13.1029913 49.5842881,13.6766685 C49.5842881,14.2503456 49.1192309,14.7154028 48.5455537,14.7154028 L32.4757229,14.7154028 C31.9020457,14.7154028 31.4369885,14.2503456 31.4369885,13.6766685 C31.4369885,13.1029913 31.9020457,12.6379341 32.4757229,12.6379341 L48.5455537,12.6379341 Z M23.4020731,12.6379341 L25.4489907,12.6379341 C26.0226678,12.6379341 26.487725,13.1029913 26.487725,13.6766685 C26.487725,14.2503456 26.0226678,14.7154028 25.4489907,14.7154028 L23.4020731,14.7154028 C22.828396,14.7154028 22.3633388,14.2503456 22.3633388,13.6766685 C22.3633388,13.1029913 22.828396,12.6379341 23.4020731,12.6379341 Z M48.5455537,32.0276412 C49.1192309,32.0276412 49.5842881,32.4926984 49.5842881,33.0663756 C49.5842881,33.6400527 49.1192309,34.1051099 48.5455537,34.1051099 L32.4757229,34.1051099 C31.9020457,34.1051099 31.4369885,33.6400527 31.4369885,33.0663756 C31.4369885,32.4926984 31.9020457,32.0276412 32.4757229,32.0276412 L48.5455537,32.0276412 Z M23.4020731,32.0276412 L25.4489907,32.0276412 C26.0226678,32.0276412 26.487725,32.4926984 26.487725,33.0663756 C26.487725,33.6400527 26.0226678,34.1051099 25.4489907,34.1051099 L23.4020731,34.1051099 C22.828396,34.1051099 22.3633388,33.6400527 22.3633388,33.0663756 C22.3633388,32.4926984 22.828396,32.0276412 23.4020731,32.0276412 L23.4020731,32.0276412 Z" id="Shape" fill-opacity="0.530048077" fill="#192431" opacity="0.589541481"></path>
                </g>
            </g>
            <g id="Group-63" transform="translate(37.500000, 4.500000) scale(-1, 1) translate(-37.500000, -4.500000) translate(21.000000, 3.000000)"></g>
            <g id="Group-63-Copy-2" transform="translate(37.500000, 32.500000) scale(-1, 1) translate(-37.500000, -32.500000) translate(21.000000, 31.000000)"></g>
        </g>
    </g>
</svg>