<svg width="39" height="32" viewBox="0 0 39 32" fill="none" xmlns="http://www.w3.org/2000/svg">
<path d="M21.551 29.613C29.0693 29.613 35.164 23.5182 35.164 16C35.164 8.48168 29.0693 2.38696 21.551 2.38696C14.0327 2.38696 7.93799 8.48168 7.93799 16C7.93799 23.5182 14.0327 29.613 21.551 29.613Z" fill="url(#paint0_linear)"/>
<path fill-rule="evenodd" clip-rule="evenodd" d="M31.3525 6.5531C33.7125 9.00114 35.164 12.3311 35.164 16C35.164 20.0084 33.4316 23.612 30.6747 26.1032C29.6865 24.8722 29.6172 21.9218 28.7604 19.3166C27.9979 16.9983 25.5204 15.2654 25.5204 14.0298C25.5204 11.1288 27.9004 6.94188 31.3525 6.5531ZM15.9742 28.422C11.2367 26.2918 7.93799 21.5311 7.93799 16C7.93799 10.3618 11.3658 5.5241 16.2511 3.45728C16.2805 3.47026 16.3086 3.48301 16.3356 3.49554C17.3108 3.94897 18.3602 4.8798 19.4838 6.28803C19.8396 6.73401 19.9898 7.30983 19.8973 7.87281L18.438 16.7532C18.3743 17.1412 18.4252 17.5392 18.5848 17.8985L19.564 20.1048C19.7344 20.4886 19.5614 20.9378 19.1776 21.1081C19.0806 21.1513 18.9754 21.1735 18.8692 21.1735C18.1574 21.1735 17.5115 20.7567 17.2183 20.1081L16.3356 18.1556C13.3647 18.8083 12.0276 19.8143 12.3244 21.1735C12.8032 23.3661 14.4925 26.1291 15.9742 28.422Z" fill="url(#paint1_linear)"/>
<path d="M19.9055 2.48547C19.7614 2.50284 19.618 2.52247 19.4752 2.54431C17.8606 2.08139 16.354 2.15643 15.123 2.86709C11.2999 5.07443 11.4571 12.6515 15.5736 19.7814C19.6901 26.9113 26.1733 30.8361 29.9965 28.6287C31.5053 27.7576 32.3941 26.0503 32.6644 23.8641C32.7738 23.7099 32.88 23.5533 32.9831 23.3944C32.8267 26.1025 31.8379 28.2543 29.9965 29.3174C25.8618 31.7046 19.122 27.6245 14.8848 20.2856C10.6477 12.9466 10.4842 5.06971 14.6188 2.68255C16.1194 1.81624 17.9629 1.80166 19.9055 2.48547Z" fill="url(#paint2_radial)"/>
<g filter="url(#filter0_d)">
<path d="M16.2577 22.5543C16.6754 22.5543 17.014 22.2157 17.014 21.798C17.014 21.3803 16.6754 21.0417 16.2577 21.0417C15.8401 21.0417 15.5015 21.3803 15.5015 21.798C15.5015 22.2157 15.8401 22.5543 16.2577 22.5543Z" fill="black"/>
</g>
<path d="M16.2577 22.5543C16.6754 22.5543 17.014 22.2157 17.014 21.798C17.014 21.3803 16.6754 21.0417 16.2577 21.0417C15.8401 21.0417 15.5015 21.3803 15.5015 21.798C15.5015 22.2157 15.8401 22.5543 16.2577 22.5543Z" fill="white"/>
<g filter="url(#filter1_d)">
<path d="M12.7284 14.4874C13.1461 14.4874 13.4847 14.1488 13.4847 13.7311C13.4847 13.3134 13.1461 12.9749 12.7284 12.9749C12.3108 12.9749 11.9722 13.3134 11.9722 13.7311C11.9722 14.1488 12.3108 14.4874 12.7284 14.4874Z" fill="black"/>
</g>
<path d="M12.7284 14.4874C13.1461 14.4874 13.4847 14.1488 13.4847 13.7311C13.4847 13.3134 13.1461 12.9749 12.7284 12.9749C12.3108 12.9749 11.9722 13.3134 11.9722 13.7311C11.9722 14.1488 12.3108 14.4874 12.7284 14.4874Z" fill="white"/>
<path d="M32.2772 7.66895C34.1343 8.559 35.4277 9.87297 35.8761 11.5465C37.1118 16.1582 31.4264 21.6123 23.2408 23.8057C15.0552 25.999 7.40444 24.1182 6.16875 19.5066C5.61846 17.4528 6.44077 15.2321 8.24524 13.2066C8.2057 13.3918 8.17006 13.5776 8.13831 13.7641C6.7836 15.501 6.20485 17.3368 6.65575 19.0196C7.79836 23.2838 15.158 25.093 23.1103 22.9621C31.0627 20.8313 36.5317 15.5848 35.3891 11.3205C35.0212 9.94759 34.009 8.8292 32.5399 8.01482C32.4544 7.89848 32.3669 7.78312 32.2772 7.66895Z" fill="url(#paint3_radial)"/>
<g filter="url(#filter2_d)">
<path d="M27.35 22.5543C27.7677 22.5543 28.1063 22.2157 28.1063 21.798C28.1063 21.3803 27.7677 21.0417 27.35 21.0417C26.9324 21.0417 26.5938 21.3803 26.5938 21.798C26.5938 22.2157 26.9324 22.5543 27.35 22.5543Z" fill="white"/>
</g>
<path d="M11.4682 24.3192C11.8859 24.3192 12.2245 23.9806 12.2245 23.5629C12.2245 23.1452 11.8859 22.8066 11.4682 22.8066C11.0505 22.8066 10.7119 23.1452 10.7119 23.5629C10.7119 23.9806 11.0505 24.3192 11.4682 24.3192Z" fill="white"/>
<path d="M8.06689 17.8647C6.9036 16.1653 6.44053 14.3807 6.88897 12.7072C8.12465 8.09549 15.7755 6.21478 23.961 8.40811C32.1466 10.6014 37.832 16.0556 36.5963 20.6672C36.046 22.7209 34.2235 24.2331 31.648 25.085C31.7749 24.9444 31.8987 24.8012 32.0194 24.6556C34.061 23.8288 35.4801 22.5283 35.9311 20.8455C37.0737 16.5812 31.6046 11.3347 23.6523 9.20387C15.6999 7.07301 8.34031 8.88215 7.19772 13.1464C6.82985 14.5193 7.14732 15.994 8.01235 17.4338C8.02819 17.5773 8.04636 17.721 8.06689 17.8647Z" fill="url(#paint4_radial)"/>
<g filter="url(#filter3_d)">
<path d="M23.3163 9.44567C23.734 9.44567 24.0726 9.10708 24.0726 8.68939C24.0726 8.2717 23.734 7.93311 23.3163 7.93311C22.8986 7.93311 22.5601 8.2717 22.5601 8.68939C22.5601 9.10708 22.8986 9.44567 23.3163 9.44567Z" fill="black"/>
</g>
<path d="M23.3163 9.44567C23.734 9.44567 24.0726 9.10708 24.0726 8.68939C24.0726 8.2717 23.734 7.93311 23.3163 7.93311C22.8986 7.93311 22.5601 8.2717 22.5601 8.68939C22.5601 9.10708 22.8986 9.44567 23.3163 9.44567Z" fill="white"/>
<g filter="url(#filter4_d)">
<path d="M36.1732 21.0418C36.4516 21.0418 36.6773 20.816 36.6773 20.5377C36.6773 20.2592 36.4516 20.0334 36.1732 20.0334C35.8947 20.0334 35.6689 20.2592 35.6689 20.5377C35.6689 20.816 35.8947 21.0418 36.1732 21.0418Z" fill="black"/>
</g>
<path d="M36.1732 21.0418C36.4516 21.0418 36.6773 20.816 36.6773 20.5377C36.6773 20.2592 36.4516 20.0334 36.1732 20.0334C35.8947 20.0334 35.6689 20.2592 35.6689 20.5377C35.6689 20.816 35.8947 21.0418 36.1732 21.0418Z" fill="white"/>
<g filter="url(#filter5_d)">
<path d="M11.9719 9.44567C12.2504 9.44567 12.4761 9.21992 12.4761 8.94147C12.4761 8.66301 12.2504 8.43726 11.9719 8.43726C11.6935 8.43726 11.4678 8.66301 11.4678 8.94147C11.4678 9.21992 11.6935 9.44567 11.9719 9.44567Z" fill="white"/>
</g>
<g filter="url(#filter6_d)">
<path d="M7.1824 16.2522C7.46086 16.2522 7.68659 16.0265 7.68659 15.748C7.68659 15.4696 7.46086 15.2439 7.1824 15.2439C6.90395 15.2439 6.67822 15.4696 6.67822 15.748C6.67822 16.0265 6.90395 16.2522 7.1824 16.2522Z" fill="black"/>
</g>
<path d="M7.1824 16.2522C7.46086 16.2522 7.68659 16.0265 7.68659 15.748C7.68659 15.4696 7.46086 15.2439 7.1824 15.2439C6.90395 15.2439 6.67822 15.4696 6.67822 15.748C6.67822 16.0265 6.90395 16.2522 7.1824 16.2522Z" fill="white"/>
<g filter="url(#filter7_d)">
<path d="M34.9128 10.202C35.1913 10.202 35.417 9.9762 35.417 9.69781C35.417 9.41935 35.1913 9.1936 34.9128 9.1936C34.6344 9.1936 34.4087 9.41935 34.4087 9.69781C34.4087 9.9762 34.6344 10.202 34.9128 10.202Z" fill="black"/>
</g>
<path d="M34.9128 10.202C35.1913 10.202 35.417 9.9762 35.417 9.69781C35.417 9.41935 35.1913 9.1936 34.9128 9.1936C34.6344 9.1936 34.4087 9.41935 34.4087 9.69781C34.4087 9.9762 34.6344 10.202 34.9128 10.202Z" fill="white"/>
<g filter="url(#filter8_d)">
<path d="M15.2493 3.14314C15.5278 3.14314 15.7535 2.9174 15.7535 2.63895C15.7535 2.36049 15.5278 2.13477 15.2493 2.13477C14.9709 2.13477 14.7451 2.36049 14.7451 2.63895C14.7451 2.9174 14.9709 3.14314 15.2493 3.14314Z" fill="black"/>
</g>
<path d="M15.2493 3.14314C15.5278 3.14314 15.7535 2.9174 15.7535 2.63895C15.7535 2.36049 15.5278 2.13477 15.2493 2.13477C14.9709 2.13477 14.7451 2.36049 14.7451 2.63895C14.7451 2.9174 14.9709 3.14314 15.2493 3.14314Z" fill="white"/>
<g filter="url(#filter9_d)">
<path d="M25.0808 29.6128C25.3593 29.6128 25.585 29.3871 25.585 29.1087C25.585 28.8302 25.3593 28.6045 25.0808 28.6045C24.8024 28.6045 24.5767 28.8302 24.5767 29.1087C24.5767 29.3871 24.8024 29.6128 25.0808 29.6128Z" fill="black"/>
</g>
<path d="M25.0808 29.6128C25.3593 29.6128 25.585 29.3871 25.585 29.1087C25.585 28.8302 25.3593 28.6045 25.0808 28.6045C24.8024 28.6045 24.5767 28.8302 24.5767 29.1087C24.5767 29.3871 24.8024 29.6128 25.0808 29.6128Z" fill="white"/>
<g filter="url(#filter10_d)">
<path d="M7.93826 22.0502C8.21672 22.0502 8.44245 21.8244 8.44245 21.546C8.44245 21.2675 8.21672 21.0417 7.93826 21.0417C7.65981 21.0417 7.43408 21.2675 7.43408 21.546C7.43408 21.8244 7.65981 22.0502 7.93826 22.0502Z" fill="black"/>
</g>
<path d="M7.93826 22.0502C8.21672 22.0502 8.44245 21.8244 8.44245 21.546C8.44245 21.2675 8.21672 21.0417 7.93826 21.0417C7.65981 21.0417 7.43408 21.2675 7.43408 21.546C7.43408 21.8244 7.65981 22.0502 7.93826 22.0502Z" fill="white"/>
<defs>
<filter id="filter0_d" x="13.5015" y="19.0417" width="5.51256" height="5.51256" filterUnits="userSpaceOnUse" color-interpolation-filters="sRGB">
<feFlood flood-opacity="0" result="BackgroundImageFix"/>
<feColorMatrix in="SourceAlpha" type="matrix" values="0 0 0 0 0 0 0 0 0 0 0 0 0 0 0 0 0 0 127 0"/>
<feOffset/>
<feGaussianBlur stdDeviation="1"/>
<feColorMatrix type="matrix" values="0 0 0 0 1 0 0 0 0 1 0 0 0 0 1 0 0 0 1 0"/>
<feBlend mode="normal" in2="BackgroundImageFix" result="effect1_dropShadow"/>
<feBlend mode="normal" in="SourceGraphic" in2="effect1_dropShadow" result="shape"/>
</filter>
<filter id="filter1_d" x="9.97217" y="10.9749" width="5.51256" height="5.51256" filterUnits="userSpaceOnUse" color-interpolation-filters="sRGB">
<feFlood flood-opacity="0" result="BackgroundImageFix"/>
<feColorMatrix in="SourceAlpha" type="matrix" values="0 0 0 0 0 0 0 0 0 0 0 0 0 0 0 0 0 0 127 0"/>
<feOffset/>
<feGaussianBlur stdDeviation="1"/>
<feColorMatrix type="matrix" values="0 0 0 0 1 0 0 0 0 1 0 0 0 0 1 0 0 0 1 0"/>
<feBlend mode="normal" in2="BackgroundImageFix" result="effect1_dropShadow"/>
<feBlend mode="normal" in="SourceGraphic" in2="effect1_dropShadow" result="shape"/>
</filter>
<filter id="filter2_d" x="24.5938" y="19.0417" width="5.51256" height="5.51256" filterUnits="userSpaceOnUse" color-interpolation-filters="sRGB">
<feFlood flood-opacity="0" result="BackgroundImageFix"/>
<feColorMatrix in="SourceAlpha" type="matrix" values="0 0 0 0 0 0 0 0 0 0 0 0 0 0 0 0 0 0 127 0"/>
<feOffset/>
<feGaussianBlur stdDeviation="1"/>
<feColorMatrix type="matrix" values="0 0 0 0 1 0 0 0 0 1 0 0 0 0 1 0 0 0 1 0"/>
<feBlend mode="normal" in2="BackgroundImageFix" result="effect1_dropShadow"/>
<feBlend mode="normal" in="SourceGraphic" in2="effect1_dropShadow" result="shape"/>
</filter>
<filter id="filter3_d" x="20.5601" y="5.93311" width="5.51256" height="5.51256" filterUnits="userSpaceOnUse" color-interpolation-filters="sRGB">
<feFlood flood-opacity="0" result="BackgroundImageFix"/>
<feColorMatrix in="SourceAlpha" type="matrix" values="0 0 0 0 0 0 0 0 0 0 0 0 0 0 0 0 0 0 127 0"/>
<feOffset/>
<feGaussianBlur stdDeviation="1"/>
<feColorMatrix type="matrix" values="0 0 0 0 1 0 0 0 0 1 0 0 0 0 1 0 0 0 1 0"/>
<feBlend mode="normal" in2="BackgroundImageFix" result="effect1_dropShadow"/>
<feBlend mode="normal" in="SourceGraphic" in2="effect1_dropShadow" result="shape"/>
</filter>
<filter id="filter4_d" x="33.6689" y="18.0334" width="5.00835" height="5.00835" filterUnits="userSpaceOnUse" color-interpolation-filters="sRGB">
<feFlood flood-opacity="0" result="BackgroundImageFix"/>
<feColorMatrix in="SourceAlpha" type="matrix" values="0 0 0 0 0 0 0 0 0 0 0 0 0 0 0 0 0 0 127 0"/>
<feOffset/>
<feGaussianBlur stdDeviation="1"/>
<feColorMatrix type="matrix" values="0 0 0 0 1 0 0 0 0 1 0 0 0 0 1 0 0 0 1 0"/>
<feBlend mode="normal" in2="BackgroundImageFix" result="effect1_dropShadow"/>
<feBlend mode="normal" in="SourceGraphic" in2="effect1_dropShadow" result="shape"/>
</filter>
<filter id="filter5_d" x="0.467773" y="5.43726" width="23.0084" height="23.0084" filterUnits="userSpaceOnUse" color-interpolation-filters="sRGB">
<feFlood flood-opacity="0" result="BackgroundImageFix"/>
<feColorMatrix in="SourceAlpha" type="matrix" values="0 0 0 0 0 0 0 0 0 0 0 0 0 0 0 0 0 0 127 0"/>
<feOffset dy="8"/>
<feGaussianBlur stdDeviation="5.5"/>
<feColorMatrix type="matrix" values="0 0 0 0 1 0 0 0 0 1 0 0 0 0 1 0 0 0 1 0"/>
<feBlend mode="normal" in2="BackgroundImageFix" result="effect1_dropShadow"/>
<feBlend mode="normal" in="SourceGraphic" in2="effect1_dropShadow" result="shape"/>
</filter>
<filter id="filter6_d" x="4.67822" y="13.2439" width="5.00837" height="5.00835" filterUnits="userSpaceOnUse" color-interpolation-filters="sRGB">
<feFlood flood-opacity="0" result="BackgroundImageFix"/>
<feColorMatrix in="SourceAlpha" type="matrix" values="0 0 0 0 0 0 0 0 0 0 0 0 0 0 0 0 0 0 127 0"/>
<feOffset/>
<feGaussianBlur stdDeviation="1"/>
<feColorMatrix type="matrix" values="0 0 0 0 1 0 0 0 0 1 0 0 0 0 1 0 0 0 1 0"/>
<feBlend mode="normal" in2="BackgroundImageFix" result="effect1_dropShadow"/>
<feBlend mode="normal" in="SourceGraphic" in2="effect1_dropShadow" result="shape"/>
</filter>
<filter id="filter7_d" x="32.4087" y="7.1936" width="5.00835" height="5.00835" filterUnits="userSpaceOnUse" color-interpolation-filters="sRGB">
<feFlood flood-opacity="0" result="BackgroundImageFix"/>
<feColorMatrix in="SourceAlpha" type="matrix" values="0 0 0 0 0 0 0 0 0 0 0 0 0 0 0 0 0 0 127 0"/>
<feOffset/>
<feGaussianBlur stdDeviation="1"/>
<feColorMatrix type="matrix" values="0 0 0 0 1 0 0 0 0 1 0 0 0 0 1 0 0 0 1 0"/>
<feBlend mode="normal" in2="BackgroundImageFix" result="effect1_dropShadow"/>
<feBlend mode="normal" in="SourceGraphic" in2="effect1_dropShadow" result="shape"/>
</filter>
<filter id="filter8_d" x="12.7451" y="0.134766" width="5.00835" height="5.00837" filterUnits="userSpaceOnUse" color-interpolation-filters="sRGB">
<feFlood flood-opacity="0" result="BackgroundImageFix"/>
<feColorMatrix in="SourceAlpha" type="matrix" values="0 0 0 0 0 0 0 0 0 0 0 0 0 0 0 0 0 0 127 0"/>
<feOffset/>
<feGaussianBlur stdDeviation="1"/>
<feColorMatrix type="matrix" values="0 0 0 0 1 0 0 0 0 1 0 0 0 0 1 0 0 0 1 0"/>
<feBlend mode="normal" in2="BackgroundImageFix" result="effect1_dropShadow"/>
<feBlend mode="normal" in="SourceGraphic" in2="effect1_dropShadow" result="shape"/>
</filter>
<filter id="filter9_d" x="22.5767" y="26.6045" width="5.00835" height="5.00835" filterUnits="userSpaceOnUse" color-interpolation-filters="sRGB">
<feFlood flood-opacity="0" result="BackgroundImageFix"/>
<feColorMatrix in="SourceAlpha" type="matrix" values="0 0 0 0 0 0 0 0 0 0 0 0 0 0 0 0 0 0 127 0"/>
<feOffset/>
<feGaussianBlur stdDeviation="1"/>
<feColorMatrix type="matrix" values="0 0 0 0 1 0 0 0 0 1 0 0 0 0 1 0 0 0 1 0"/>
<feBlend mode="normal" in2="BackgroundImageFix" result="effect1_dropShadow"/>
<feBlend mode="normal" in="SourceGraphic" in2="effect1_dropShadow" result="shape"/>
</filter>
<filter id="filter10_d" x="5.43408" y="19.0417" width="5.00837" height="5.00842" filterUnits="userSpaceOnUse" color-interpolation-filters="sRGB">
<feFlood flood-opacity="0" result="BackgroundImageFix"/>
<feColorMatrix in="SourceAlpha" type="matrix" values="0 0 0 0 0 0 0 0 0 0 0 0 0 0 0 0 0 0 127 0"/>
<feOffset/>
<feGaussianBlur stdDeviation="1"/>
<feColorMatrix type="matrix" values="0 0 0 0 1 0 0 0 0 1 0 0 0 0 1 0 0 0 1 0"/>
<feBlend mode="normal" in2="BackgroundImageFix" result="effect1_dropShadow"/>
<feBlend mode="normal" in="SourceGraphic" in2="effect1_dropShadow" result="shape"/>
</filter>
<linearGradient id="paint0_linear" x1="29.333" y1="27.6314" x2="16.912" y2="3.21361" gradientUnits="userSpaceOnUse">
<stop stop-color="#000B1A"/>
<stop offset="1" stop-color="#006AD5"/>
</linearGradient>
<linearGradient id="paint1_linear" x1="23.0259" y1="62.8848" x2="13.7645" y2="-2.90361" gradientUnits="userSpaceOnUse">
<stop stop-color="#D705FF"/>
<stop offset="1" stop-color="#29D6FF"/>
</linearGradient>
<radialGradient id="paint2_radial" cx="0" cy="0" r="1" gradientUnits="userSpaceOnUse" gradientTransform="translate(7.44473 -13.8503) rotate(-135) scale(15.1128 20.5255)">
<stop stop-color="#EEFFFF"/>
<stop offset="1" stop-color="#72AEFF" stop-opacity="0.576349"/>
</radialGradient>
<radialGradient id="paint3_radial" cx="0" cy="0" r="1" gradientUnits="userSpaceOnUse" gradientTransform="translate(2.86712 -17.1634) rotate(-135) scale(21.2449 14.0435)">
<stop stop-color="#EEFFFF"/>
<stop offset="1" stop-color="#72AEFF" stop-opacity="0.85"/>
</radialGradient>
<radialGradient id="paint4_radial" cx="0" cy="0" r="1" gradientUnits="userSpaceOnUse" gradientTransform="translate(2.578 -17.689) rotate(-135) scale(21.2449 14.2637)">
<stop stop-color="#EEFFFF"/>
<stop offset="1" stop-color="#72AEFF" stop-opacity="0.576349"/>
</radialGradient>
</defs>
</svg>
