<?xml version="1.0" encoding="UTF-8"?>
<svg width="49px" height="57px" viewBox="0 0 49 57" version="1.1" xmlns="http://www.w3.org/2000/svg" xmlns:xlink="http://www.w3.org/1999/xlink">
    <!-- Generator: Sketch 53.2 (72643) - https://sketchapp.com -->
    <title>tar-com-ico-folder-files</title>
    <desc>Created with Sketch.</desc>
    <defs>
        <path d="M27.7871951,39.101724 L-3.90798505e-14,23.0467156 L-3.90798505e-14,0.811304968 L0.172175712,0.69652116 C0.810965303,0.270661432 1.63714847,0.248045846 2.29827862,0.638322125 L11.8335174,6.26713443 L11.8335174,9.19292053 L27.518695,18.3663957 C28.4386941,18.9044571 29.0041526,19.8902314 29.0041526,20.9560214 L29.0041526,38.2904191 L27.7871951,39.101724 Z" id="path-1"></path>
        <path d="M27.7871951,39.101724 L-3.90798505e-14,23.0467156 L-3.90798505e-14,0.811304968 L0.172175712,0.69652116 C0.810965303,0.270661432 1.63714847,0.248045846 2.29827862,0.638322125 L11.8335174,6.26713443 L11.8335174,9.19292053 L27.518695,18.3663957 C28.4386941,18.9044571 29.0041526,19.8902314 29.0041526,20.9560214 L29.0041526,38.2904191 L27.7871951,39.101724 Z" id="path-3"></path>
        <path d="M0.892933931,20.5260492 L0.892933931,0.512446407 L1.92651785,0 L12.7264514,6.45062104 L12.7264514,9.37640713 L28.9067815,18.8394722 C29.5201142,19.1981798 29.8970865,19.8553627 29.8970865,20.5658893 L29.8970865,36.5903729 L0.892933931,20.5260492 Z" id="path-5"></path>
        <linearGradient x1="45.485959%" y1="38.5043078%" x2="64.6568099%" y2="48.5401028%" id="linearGradient-7">
            <stop stop-color="#E8ECF1" offset="0%"></stop>
            <stop stop-color="#8B9EB0" offset="100%"></stop>
        </linearGradient>
        <linearGradient x1="39.9027609%" y1="34.9524779%" x2="76.770592%" y2="53.7405558%" id="linearGradient-8">
            <stop stop-color="#F1F5FB" offset="0%"></stop>
            <stop stop-color="#8B9EB0" offset="100%"></stop>
        </linearGradient>
        <linearGradient x1="39.9027609%" y1="34.9524779%" x2="76.770592%" y2="53.7405558%" id="linearGradient-9">
            <stop stop-color="#E2E6EA" offset="0%"></stop>
            <stop stop-color="#8B9EB0" offset="100%"></stop>
        </linearGradient>
        <linearGradient x1="45.485959%" y1="43.8666462%" x2="64.6568099%" y2="49.2210938%" id="linearGradient-10">
            <stop stop-color="#E8ECF1" offset="0%"></stop>
            <stop stop-color="#8B9EB0" offset="100%"></stop>
        </linearGradient>
        <linearGradient x1="46.4333503%" y1="33.4462032%" x2="61.5806893%" y2="47.897748%" id="linearGradient-11">
            <stop stop-color="#E8ECF1" offset="0%"></stop>
            <stop stop-color="#5A6672" offset="100%"></stop>
        </linearGradient>
        <linearGradient x1="46.664139%" y1="33.4462032%" x2="72.9963972%" y2="59.9523839%" id="linearGradient-12">
            <stop stop-color="#F1F4F8" offset="0%"></stop>
            <stop stop-color="#D2D8E0" offset="37.9418683%"></stop>
            <stop stop-color="#A5B1BD" offset="55.6685609%"></stop>
            <stop stop-color="#29445E" offset="100%"></stop>
        </linearGradient>
        <path d="M27.6242476,37.5669897 L0.913043478,22.1336721 L0.725082977,2.7867107 C0.715840706,1.83539454 1.19933122,0.946980806 2.00319866,0.438173368 L2.00319866,0.438173368 C2.79528693,-0.0631784518 3.80297697,-0.0727038718 4.60440114,0.413584908 L11.4958974,4.59521235 C12.2723875,5.06637166 12.7465609,5.90872847 12.7465609,6.816984 L12.7465609,7.13263977 C12.7465609,7.84316644 13.1235333,8.5003493 13.736866,8.8590569 L28.4317385,17.4533522 C29.3517376,17.9914136 29.9171961,18.9771879 29.9171961,20.0429779 L29.9171961,37.3773756 L29.7342118,37.4993651 C29.1010316,37.9214852 28.2831585,37.9476981 27.6242476,37.5669897 Z" id="path-13"></path>
        <linearGradient x1="55.9179406%" y1="28.293765%" x2="45.0079644%" y2="75.0069717%" id="linearGradient-15">
            <stop stop-color="#84B9FF" offset="0%"></stop>
            <stop stop-color="#2582FF" offset="100%"></stop>
        </linearGradient>
    </defs>
    <g id="Page-1" stroke="none" stroke-width="1" fill="none" fill-rule="evenodd">
        <g id="tar-com-ico-folder-files" transform="translate(-7.000000, -8.000000)">
            <path d="M33.2054666,63.5329705 L8.31232416,49.1501006 C7.74762101,48.8238239 7.39979547,48.2211459 7.39979547,47.5689603 L7.39979547,27.5530812 C7.39979547,26.8327004 7.78720648,26.16798 8.41400088,25.8129062 L22.8531579,17.6332445 C25.9663073,15.8696713 29.7844728,15.9037544 32.8656434,17.7226214 L38.5018059,21.0497431 L38.5018059,23.9755292 L54.1869835,33.1490044 C55.1069825,33.6870658 55.672441,34.67284 55.672441,35.7386301 L55.672441,53.0730278 L37.1781834,63.5498701 C35.9445381,64.2487199 34.4331216,64.2422904 33.2054666,63.5329705 Z" id="Path" fill="#3B5790" fill-rule="nonzero"></path>
            <g id="Path-3" transform="translate(26.668288, 14.782609)">
                <g id="Path" fill="#10244E" fill-rule="nonzero">
                    <path d="M27.7871951,39.101724 L-3.90798505e-14,23.0467156 L-3.90798505e-14,0.811304968 L0.172175712,0.69652116 C0.810965303,0.270661432 1.63714847,0.248045846 2.29827862,0.638322125 L11.8335174,6.26713443 L11.8335174,9.19292053 L27.518695,18.3663957 C28.4386941,18.9044571 29.0041526,19.8902314 29.0041526,20.9560214 L29.0041526,38.2904191 L27.7871951,39.101724 Z" id="path-1"></path>
                </g>
                <g id="Path-Clipped">
                    <mask id="mask-2" fill="white">
                        <use xlink:href="#path-1"></use>
                    </mask>
                    <g id="path-1"></g>
                    <path d="M11.8880274,9.22480067 L27.518695,18.3663957 C28.0095998,18.6535013 28.3995594,19.0680803 28.6565301,19.5542703 L12.7503254,28.7377218 L3.70261516,13.9506506 L11.8880274,9.22480067 Z" id="Path" fill="#C2D8F4" fill-rule="nonzero" mask="url(#mask-2)"></path>
                </g>
                <g id="Rectangle-Copy-10-Clipped">
                    <mask id="mask-4" fill="white">
                        <use xlink:href="#path-3"></use>
                    </mask>
                    <g id="path-1"></g>
                </g>
            </g>
            <g id="Group-73" transform="translate(24.558397, 15.547285)">
                <g id="Path-Copy" fill="#2E4470" fill-rule="nonzero">
                    <path d="M0.892933931,20.5260492 L0.892933931,0.512446407 L1.92651785,0 L12.7264514,6.45062104 L12.7264514,9.37640713 L28.9067815,18.8394722 C29.5201142,19.1981798 29.8970865,19.8553627 29.8970865,20.5658893 L29.8970865,36.5903729 L0.892933931,20.5260492 Z" id="path-3"></path>
                </g>
                <g id="Background-Copy-4-Clipped">
                    <mask id="mask-6" fill="white">
                        <use xlink:href="#path-5"></use>
                    </mask>
                    <g id="path-3"></g>
                </g>
            </g>
            <g id="Background-Copy-7" transform="translate(2.316153, 0.175404)" fill-rule="nonzero">
                <g id="Background-Copy-5" transform="translate(29.454806, 31.655097) rotate(60.000000) translate(-29.454806, -31.655097) translate(5.454806, 11.655097)">
                    <g id="Group" transform="translate(0.959312, 0.745367)">
                        <path d="M21.7452426,0.570429938 L45.6283019,14.3288582 C46.4603197,14.8081627 46.7462504,15.8711995 46.2669459,16.7032173 C46.1147152,16.9674724 45.8956532,17.1870363 45.6317471,17.3398713 L29.7676019,26.5272205 C28.4460548,27.2925637 26.8165173,27.2944282 25.4932222,26.5321113 L1.6101629,12.773683 C0.77814509,12.2943785 0.49221444,11.2313417 0.97151893,10.3993239 C1.12374964,10.1350688 1.34281163,9.91550494 1.6067177,9.76266994 L17.4708629,0.575320738 C18.7924101,-0.190022462 20.4219475,-0.191886962 21.7452426,0.570429938 Z" id="path-8" fill="#D0D7E0" opacity="0.61672247"></path>
                        <path d="M22.0819855,4.04369896 L45.9650449,17.8021273 C46.7970627,18.2814318 47.0829933,19.3444686 46.6036888,20.1764864 C46.4514581,20.4407415 46.2323961,20.6603054 45.9684901,20.8131404 L30.1043449,30.0004896 C28.7827977,30.7658328 27.1532603,30.7676973 25.8299652,30.0053804 L1.94690589,16.2469521 C1.11488807,15.7676476 0.828957424,14.7046108 1.30826191,13.872593 C1.46049263,13.6083379 1.67955462,13.388774 1.94346069,13.235939 L17.8076059,4.04858976 C19.129153,3.28324656 20.7586905,3.28138206 22.0819855,4.04369896 Z" id="path-12" fill="#D0D7E0" opacity="0.61672247"></path>
                        <path d="M21.864597,7.66544692 L45.7476564,21.4238752 C46.5796742,21.9031797 46.8656048,22.9662165 46.3863003,23.7982343 C46.2340696,24.0624894 46.0150076,24.2820533 45.7511016,24.4348883 L29.8869564,33.6222375 C28.5654092,34.3875807 26.9358718,34.3894452 25.6125767,33.6271283 L1.72951737,19.8687 C0.897499548,19.3893955 0.611568905,18.3263587 1.09087339,17.4943409 C1.24310411,17.2300858 1.4621661,17.0105219 1.72607217,16.8576869 L17.5902174,7.67033772 C18.9117645,6.90499452 20.541302,6.90313002 21.864597,7.66544692 Z" id="path-16" fill="url(#linearGradient-8)"></path>
                        <path d="M21.9985143,11.4900214 L45.8815737,25.2484497 C46.7135915,25.7277542 46.9995221,26.790791 46.5202176,27.6228088 C46.3679869,27.8870639 46.1489249,28.1066278 45.8850189,28.2594628 L30.0208737,37.446812 C28.6993265,38.2121552 27.0697891,38.2140197 25.746494,37.4517028 L1.86343465,23.6932745 C1.03141683,23.21397 0.745486188,22.1509332 1.22479067,21.3189154 C1.37702139,21.0546603 1.59608338,20.8350964 1.85998945,20.6822614 L17.7241347,11.4949122 C19.0456818,10.729569 20.6752193,10.7277045 21.9985143,11.4900214 Z" id="path-20" fill="url(#linearGradient-9)"></path>
                    </g>
                </g>
            </g>
            <g id="Background-Copy-6" transform="translate(10.215716, 4.203666)" opacity="0.959565662">
                <g id="Background-Copy-3" transform="translate(24.235763, 27.200546) rotate(60.000000) translate(-24.235763, -27.200546) translate(1.235763, 13.200546)"></g>
            </g>
            <g id="Background-Copy-8" transform="translate(6.970496, 5.826276)" opacity="0.959565662">
                <g id="Background-Copy-2" transform="translate(24.235763, 27.200546) rotate(60.000000) translate(-24.235763, -27.200546) translate(1.235763, 13.200546)"></g>
            </g>
            <g id="Background-Copy-9" transform="translate(3.725276, 7.854539)" opacity="0.959565662">
                <g id="Background-Copy" transform="translate(24.235763, 27.200546) rotate(60.000000) translate(-24.235763, -27.200546) translate(1.235763, 13.200546)"></g>
            </g>
            <g id="Background-2" transform="translate(0.449067, 10.112979)" fill="url(#linearGradient-12)" fill-rule="nonzero">
                <path d="M22.0702141,14.3236097 L45.9532735,28.082038 C46.7852913,28.5613425 47.0712219,29.6243793 46.5919174,30.4563971 C46.4396867,30.7206522 46.2206247,30.9402161 45.9567187,31.0930511 L30.0925735,40.2804003 C28.7710263,41.0457435 27.1414889,41.047608 25.8181938,40.2852911 L1.93513453,26.5268628 C1.10311671,26.0475583 0.81718607,24.9845215 1.29649055,24.1525037 C1.44872127,23.8882486 1.66778326,23.6686847 1.93168933,23.5158497 L17.7958345,14.3285005 C19.1173816,13.5631573 20.7469191,13.5612928 22.0702141,14.3236097 Z" id="Background" transform="translate(23.944204, 27.304450) rotate(60.000000) translate(-23.944204, -27.304450) "></path>
            </g>
            <g id="Path-Copy-2" transform="translate(6.689578, 26.379474)">
                <g id="Path-Copy" fill="#10244E" fill-rule="nonzero">
                    <path d="M27.6242476,37.5669897 L0.913043478,22.1336721 L0.725082977,2.7867107 C0.715840706,1.83539454 1.19933122,0.946980806 2.00319866,0.438173368 L2.00319866,0.438173368 C2.79528693,-0.0631784518 3.80297697,-0.0727038718 4.60440114,0.413584908 L11.4958974,4.59521235 C12.2723875,5.06637166 12.7465609,5.90872847 12.7465609,6.816984 L12.7465609,7.13263977 C12.7465609,7.84316644 13.1235333,8.5003493 13.736866,8.8590569 L28.4317385,17.4533522 C29.3517376,17.9914136 29.9171961,18.9771879 29.9171961,20.0429779 L29.9171961,37.3773756 L29.7342118,37.4993651 C29.1010316,37.9214852 28.2831585,37.9476981 27.6242476,37.5669897 Z" id="path-25"></path>
                </g>
                <g id="Path-Clipped">
                    <mask id="mask-14" fill="white">
                        <use xlink:href="#path-13"></use>
                    </mask>
                    <g id="path-25"></g>
                    <path d="M13.3329896,8.54755825 C13.4522554,8.66672187 13.587557,8.77173357 13.736866,8.8590569 L28.4317385,17.4533522 C28.9644714,17.764921 29.3783239,18.2266116 29.6323436,18.767031 L17.1293358,25.9856459 L8.24654277,11.4842197 L13.3329896,8.54755825 L13.3329896,8.54755825 Z" id="Path" fill="#C2D8F4" fill-rule="nonzero" mask="url(#mask-14)"></path>
                </g>
            </g>
            <path d="M14,22.6064896 L14.0677795,22.5597992 L14.0677795,24.4275818 L14,24.4801182 L10.522426,26.4878964 C10.7906878,26.5443979 11.0517548,26.6460821 11.2939794,26.7930593 L18.1854756,30.9746868 C18.5835807,31.2162493 18.9022189,31.5553845 19.1182297,31.9509481 L9.16760517,37.6959438 L7.47058453,34.9224283 L7.41466121,29.1661851 C7.41460924,29.160836 7.41457285,29.1554888 7.41455201,29.1501437 L7.39979547,29.1743653 L7.41099933,27.5515712 C7.41589833,26.8419877 7.79641971,26.1881283 8.41095166,25.8333282 L14,22.6064896 Z" id="Combined-Shape" fill="#CEE3FF" fill-rule="nonzero"></path>
            <path d="M8.21970276,25.9434603 L8.21970276,25.9434603 L8.21970276,25.9434603 C7.97580685,26.232745 8.01260171,26.6649733 8.30188639,26.9088692 C8.33109727,26.9334969 8.3623171,26.9556379 8.39521932,26.9750606 L17.033058,32.0741225 C17.6424299,32.433845 18.0163555,33.0887962 18.0163555,33.7964221 L18.0163555,34.4331284 C18.0163555,35.1436551 18.3933278,35.8008379 19.0066605,36.1595455 L34.1966856,45.0434307 C34.8100183,45.4021383 35.1869906,46.0593212 35.1869906,46.7698479 L35.1869906,62.9451621 C35.1869906,63.4974469 34.7392754,63.9451621 34.1869906,63.9451621 C34.0113435,63.9451621 33.8387949,63.8988977 33.6867087,63.8110247 L8.39923165,49.2003144 C7.78074725,48.8429638 7.39979547,48.1828878 7.39979547,47.4685893 L7.39979547,27.3198455 C7.39979547,26.7453488 7.71451844,26.2170207 8.21970276,25.9434603 Z" id="Rectangle" fill="url(#linearGradient-15)" fill-rule="nonzero"></path>
            <polygon id="Rectangle" fill="#10244E" fill-rule="nonzero" transform="translate(45.514343, 57.798336) rotate(60.000000) translate(-45.514343, -57.798336) " points="46.4184511 47.0646901 46.2328458 69.2842172 44.6102358 68.342192 44.7958411 46.3124551"></polygon>
        </g>
    </g>
</svg>