<svg width="460" height="226" viewBox="0 0 460 226" fill="none" xmlns="http://www.w3.org/2000/svg">
<rect y="0.982422" width="460" height="225" rx="4" fill="#F4F6F8"/>
<path d="M127.382 40.9824H130.118V29.7504H127.382V34.1504H123.126V29.7504H120.39V40.9824H123.126V36.3584H127.382V40.9824ZM140.83 36.5184C140.83 33.6864 138.814 31.9264 136.19 31.9264C133.582 31.9264 131.55 33.6864 131.55 36.5184C131.55 39.3504 133.534 41.1104 136.158 41.1104C138.782 41.1104 140.83 39.3504 140.83 36.5184ZM134.334 36.5184C134.334 34.9984 135.198 34.2944 136.19 34.2944C137.15 34.2944 138.046 34.9984 138.046 36.5184C138.046 38.0224 137.134 38.7424 136.158 38.7424C135.166 38.7424 134.334 38.0224 134.334 36.5184ZM143.785 40.9824H146.793L148.249 35.1904L149.657 40.9824H152.681L155.097 32.0544H152.521L151.273 38.4064L149.753 32.0544H146.857L145.353 38.4384L144.089 32.0544H141.353L143.785 40.9824ZM158.923 31.9424H161.899V40.9824H164.635V31.9424H167.611V29.7504H158.923V31.9424ZM168.44 36.5024C168.44 39.3184 170.184 41.1104 172.36 41.1104C173.688 41.1104 174.632 40.5024 175.128 39.7184V40.9824H177.864V32.0544H175.128V33.3184C174.648 32.5344 173.704 31.9264 172.376 31.9264C170.184 31.9264 168.44 33.6864 168.44 36.5024ZM175.128 36.5184C175.128 37.9424 174.216 38.7264 173.176 38.7264C172.152 38.7264 171.224 37.9264 171.224 36.5024C171.224 35.0784 172.152 34.3104 173.176 34.3104C174.216 34.3104 175.128 35.0944 175.128 36.5184ZM182.58 36.8384C182.58 35.3024 183.332 34.8544 184.628 34.8544H185.38V31.9584C184.18 31.9584 183.204 32.5984 182.58 33.5424V32.0544H179.844V40.9824H182.58V36.8384ZM186.143 36.5024C186.143 39.3184 187.887 41.1104 190.079 41.1104C191.391 41.1104 192.335 40.5184 192.831 39.7024V40.9824H195.567V29.1424H192.831V33.2864C192.287 32.4704 191.263 31.9264 190.079 31.9264C187.887 31.9264 186.143 33.6864 186.143 36.5024ZM192.831 36.5184C192.831 37.9424 191.919 38.7264 190.879 38.7264C189.855 38.7264 188.927 37.9264 188.927 36.5024C188.927 35.0784 189.855 34.3104 190.879 34.3104C191.919 34.3104 192.831 35.0944 192.831 36.5184ZM197.547 40.9824H200.283V32.0544H197.547V40.9824ZM198.923 31.1264C199.883 31.1264 200.539 30.4704 200.539 29.6544C200.539 28.8224 199.883 28.1664 198.923 28.1664C197.947 28.1664 197.291 28.8224 197.291 29.6544C197.291 30.4704 197.947 31.1264 198.923 31.1264ZM201.721 36.5024C201.721 39.3184 203.465 41.1104 205.657 41.1104C206.969 41.1104 207.913 40.4864 208.409 39.7024V40.9664C208.409 42.4704 207.593 43.0144 206.553 43.0144C205.609 43.0144 204.937 42.5824 204.761 41.9104H202.057C202.297 44.0384 204.025 45.3824 206.681 45.3824C209.769 45.3824 211.145 43.3504 211.145 40.9664V32.0544H208.409V33.3184C207.929 32.5184 206.969 31.9264 205.657 31.9264C203.465 31.9264 201.721 33.6864 201.721 36.5024ZM208.409 36.5184C208.409 37.9424 207.497 38.7264 206.457 38.7264C205.433 38.7264 204.505 37.9264 204.505 36.5024C204.505 35.0784 205.433 34.3104 206.457 34.3104C207.497 34.3104 208.409 35.0944 208.409 36.5184ZM215.861 36.8384C215.861 35.3024 216.613 34.8544 217.909 34.8544H218.661V31.9584C217.461 31.9584 216.485 32.5984 215.861 33.5424V32.0544H213.125V40.9824H215.861V36.8384ZM219.425 36.5024C219.425 39.3184 221.169 41.1104 223.345 41.1104C224.673 41.1104 225.617 40.5024 226.113 39.7184V40.9824H228.849V32.0544H226.113V33.3184C225.633 32.5344 224.689 31.9264 223.361 31.9264C221.169 31.9264 219.425 33.6864 219.425 36.5024ZM226.113 36.5184C226.113 37.9424 225.201 38.7264 224.161 38.7264C223.137 38.7264 222.209 37.9264 222.209 36.5024C222.209 35.0784 223.137 34.3104 224.161 34.3104C225.201 34.3104 226.113 35.0944 226.113 36.5184ZM230.284 36.5024C230.284 39.3184 232.028 41.1104 234.22 41.1104C235.532 41.1104 236.476 40.5184 236.972 39.7024V40.9824H239.708V29.1424H236.972V33.2864C236.428 32.4704 235.404 31.9264 234.22 31.9264C232.028 31.9264 230.284 33.6864 230.284 36.5024ZM236.972 36.5184C236.972 37.9424 236.06 38.7264 235.02 38.7264C233.996 38.7264 233.068 37.9264 233.068 36.5024C233.068 35.0784 233.996 34.3104 235.02 34.3104C236.06 34.3104 236.972 35.0944 236.972 36.5184ZM245.623 34.1184C246.535 34.1184 247.303 34.6784 247.303 35.6544H243.879C244.039 34.6624 244.727 34.1184 245.623 34.1184ZM249.895 38.0224H246.983C246.759 38.5024 246.327 38.8864 245.559 38.8864C244.679 38.8864 243.959 38.3424 243.863 37.1744H250.055C250.087 36.9024 250.103 36.6304 250.103 36.3744C250.103 33.6544 248.263 31.9264 245.655 31.9264C242.999 31.9264 241.143 33.6864 241.143 36.5184C241.143 39.3504 243.031 41.1104 245.655 41.1104C247.879 41.1104 249.463 39.7664 249.895 38.0224ZM254.473 35.3504C254.473 38.7104 256.809 41.0624 260.121 41.0624C262.793 41.0624 264.809 39.5744 265.449 37.1424H262.441C261.977 38.1024 261.129 38.5824 260.089 38.5824C258.409 38.5824 257.257 37.3344 257.257 35.3504C257.257 33.3664 258.409 32.1184 260.089 32.1184C261.129 32.1184 261.977 32.5984 262.441 33.5584H265.449C264.809 31.1264 262.793 29.6224 260.121 29.6224C256.809 29.6224 254.473 31.9904 254.473 35.3504ZM275.861 36.5184C275.861 33.6864 273.845 31.9264 271.221 31.9264C268.613 31.9264 266.581 33.6864 266.581 36.5184C266.581 39.3504 268.565 41.1104 271.189 41.1104C273.813 41.1104 275.861 39.3504 275.861 36.5184ZM269.365 36.5184C269.365 34.9984 270.229 34.2944 271.221 34.2944C272.181 34.2944 273.077 34.9984 273.077 36.5184C273.077 38.0224 272.165 38.7424 271.189 38.7424C270.197 38.7424 269.365 38.0224 269.365 36.5184ZM289.616 40.9824H292.336V35.7664C292.336 33.3664 290.912 31.9584 288.704 31.9584C287.408 31.9584 286.288 32.6784 285.696 33.6224C285.088 32.5504 284 31.9584 282.656 31.9584C281.488 31.9584 280.576 32.4544 280.048 33.1744V32.0544H277.312V40.9824H280.048V36.1344C280.048 34.9664 280.72 34.3264 281.76 34.3264C282.8 34.3264 283.472 34.9664 283.472 36.1344V40.9824H286.192V36.1344C286.192 34.9664 286.864 34.3264 287.904 34.3264C288.944 34.3264 289.616 34.9664 289.616 36.1344V40.9824ZM296.986 33.3184V32.0544H294.25V45.2384H296.986V39.7344C297.482 40.4864 298.426 41.1104 299.738 41.1104C301.93 41.1104 303.674 39.3184 303.674 36.5024C303.674 33.6864 301.93 31.9264 299.738 31.9264C298.426 31.9264 297.482 32.5344 296.986 33.3184ZM300.89 36.5024C300.89 37.9264 299.962 38.7264 298.922 38.7264C297.898 38.7264 296.97 37.9424 296.97 36.5184C296.97 35.0944 297.898 34.3104 298.922 34.3104C299.962 34.3104 300.89 35.0784 300.89 36.5024ZM304.565 36.5024C304.565 39.3184 306.309 41.1104 308.485 41.1104C309.813 41.1104 310.757 40.5024 311.253 39.7184V40.9824H313.989V32.0544H311.253V33.3184C310.773 32.5344 309.829 31.9264 308.501 31.9264C306.309 31.9264 304.565 33.6864 304.565 36.5024ZM311.253 36.5184C311.253 37.9424 310.341 38.7264 309.301 38.7264C308.277 38.7264 307.349 37.9264 307.349 36.5024C307.349 35.0784 308.277 34.3104 309.301 34.3104C310.341 34.3104 311.253 35.0944 311.253 36.5184ZM318.705 36.8384C318.705 35.3024 319.457 34.8544 320.753 34.8544H321.505V31.9584C320.305 31.9584 319.329 32.5984 318.705 33.5424V32.0544H315.969V40.9824H318.705V36.8384ZM326.748 34.1184C327.66 34.1184 328.428 34.6784 328.428 35.6544H325.004C325.164 34.6624 325.852 34.1184 326.748 34.1184ZM331.02 38.0224H328.108C327.884 38.5024 327.452 38.8864 326.684 38.8864C325.804 38.8864 325.084 38.3424 324.988 37.1744H331.18C331.212 36.9024 331.228 36.6304 331.228 36.3744C331.228 33.6544 329.388 31.9264 326.78 31.9264C324.124 31.9264 322.268 33.6864 322.268 36.5184C322.268 39.3504 324.156 41.1104 326.78 41.1104C329.004 41.1104 330.588 39.7664 331.02 38.0224ZM339.92 38.3904C339.872 35.0624 335.04 36.0704 335.04 34.6464C335.04 34.2144 335.392 33.9584 336.032 33.9584C336.8 33.9584 337.264 34.3584 337.344 34.9664H339.872C339.696 33.2064 338.416 31.9264 336.112 31.9264C333.776 31.9264 332.48 33.1744 332.48 34.6944C332.48 37.9744 337.344 36.9344 337.344 38.3744C337.344 38.7744 336.976 39.0944 336.272 39.0944C335.52 39.0944 334.96 38.6784 334.896 38.0544H332.192C332.32 39.7824 333.92 41.1104 336.304 41.1104C338.544 41.1104 339.92 39.9424 339.92 38.3904Z" fill="black"/>
<path d="M42.0586 145.344C42.0586 146.613 41.8418 147.557 41.4082 148.174C40.9746 148.791 40.2969 149.1 39.375 149.1C38.4648 149.1 37.791 148.799 37.3535 148.197C36.916 147.592 36.6895 146.689 36.6738 145.49V144.043C36.6738 142.789 36.8906 141.857 37.3242 141.248C37.7578 140.639 38.4375 140.334 39.3633 140.334C40.2812 140.334 40.957 140.629 41.3906 141.219C41.8242 141.805 42.0469 142.711 42.0586 143.938V145.344ZM40.9746 143.861C40.9746 142.943 40.8457 142.275 40.5879 141.857C40.3301 141.436 39.9219 141.225 39.3633 141.225C38.8086 141.225 38.4043 141.434 38.1504 141.852C37.8965 142.27 37.7656 142.912 37.7578 143.779V145.514C37.7578 146.436 37.8906 147.117 38.1562 147.559C38.4258 147.996 38.832 148.215 39.375 148.215C39.9102 148.215 40.3066 148.008 40.5645 147.594C40.8262 147.18 40.9629 146.527 40.9746 145.637V143.861ZM43.582 148.414C43.582 148.227 43.6367 148.07 43.7461 147.945C43.8594 147.82 44.0273 147.758 44.25 147.758C44.4727 147.758 44.6406 147.82 44.7539 147.945C44.8711 148.07 44.9297 148.227 44.9297 148.414C44.9297 148.594 44.8711 148.744 44.7539 148.865C44.6406 148.986 44.4727 149.047 44.25 149.047C44.0273 149.047 43.8594 148.986 43.7461 148.865C43.6367 148.744 43.582 148.594 43.582 148.414ZM51.9609 145.344C51.9609 146.613 51.7441 147.557 51.3105 148.174C50.877 148.791 50.1992 149.1 49.2773 149.1C48.3672 149.1 47.6934 148.799 47.2559 148.197C46.8184 147.592 46.5918 146.689 46.5762 145.49V144.043C46.5762 142.789 46.793 141.857 47.2266 141.248C47.6602 140.639 48.3398 140.334 49.2656 140.334C50.1836 140.334 50.8594 140.629 51.293 141.219C51.7266 141.805 51.9492 142.711 51.9609 143.938V145.344ZM50.877 143.861C50.877 142.943 50.748 142.275 50.4902 141.857C50.2324 141.436 49.8242 141.225 49.2656 141.225C48.7109 141.225 48.3066 141.434 48.0527 141.852C47.7988 142.27 47.668 142.912 47.6602 143.779V145.514C47.6602 146.436 47.793 147.117 48.0586 147.559C48.3281 147.996 48.7344 148.215 49.2773 148.215C49.8125 148.215 50.209 148.008 50.4668 147.594C50.7285 147.18 50.8652 146.527 50.877 145.637V143.861ZM58.6992 145.344C58.6992 146.613 58.4824 147.557 58.0488 148.174C57.6152 148.791 56.9375 149.1 56.0156 149.1C55.1055 149.1 54.4316 148.799 53.9941 148.197C53.5566 147.592 53.3301 146.689 53.3145 145.49V144.043C53.3145 142.789 53.5312 141.857 53.9648 141.248C54.3984 140.639 55.0781 140.334 56.0039 140.334C56.9219 140.334 57.5977 140.629 58.0312 141.219C58.4648 141.805 58.6875 142.711 58.6992 143.938V145.344ZM57.6152 143.861C57.6152 142.943 57.4863 142.275 57.2285 141.857C56.9707 141.436 56.5625 141.225 56.0039 141.225C55.4492 141.225 55.0449 141.434 54.791 141.852C54.5371 142.27 54.4062 142.912 54.3984 143.779V145.514C54.3984 146.436 54.5312 147.117 54.7969 147.559C55.0664 147.996 55.4727 148.215 56.0156 148.215C56.5508 148.215 56.9473 148.008 57.2051 147.594C57.4668 147.18 57.6035 146.527 57.6152 145.637V143.861ZM65.4375 145.344C65.4375 146.613 65.2207 147.557 64.7871 148.174C64.3535 148.791 63.6758 149.1 62.7539 149.1C61.8438 149.1 61.1699 148.799 60.7324 148.197C60.2949 147.592 60.0684 146.689 60.0527 145.49V144.043C60.0527 142.789 60.2695 141.857 60.7031 141.248C61.1367 140.639 61.8164 140.334 62.7422 140.334C63.6602 140.334 64.3359 140.629 64.7695 141.219C65.2031 141.805 65.4258 142.711 65.4375 143.938V145.344ZM64.3535 143.861C64.3535 142.943 64.2246 142.275 63.9668 141.857C63.709 141.436 63.3008 141.225 62.7422 141.225C62.1875 141.225 61.7832 141.434 61.5293 141.852C61.2754 142.27 61.1445 142.912 61.1367 143.779V145.514C61.1367 146.436 61.2695 147.117 61.5352 147.559C61.8047 147.996 62.2109 148.215 62.7539 148.215C63.2891 148.215 63.6855 148.008 63.9434 147.594C64.2051 147.18 64.3418 146.527 64.3535 145.637V143.861Z" fill="black"/>
<path d="M42.0586 125.344C42.0586 126.613 41.8418 127.557 41.4082 128.174C40.9746 128.791 40.2969 129.1 39.375 129.1C38.4648 129.1 37.791 128.799 37.3535 128.197C36.916 127.592 36.6895 126.689 36.6738 125.49V124.043C36.6738 122.789 36.8906 121.857 37.3242 121.248C37.7578 120.639 38.4375 120.334 39.3633 120.334C40.2812 120.334 40.957 120.629 41.3906 121.219C41.8242 121.805 42.0469 122.711 42.0586 123.938V125.344ZM40.9746 123.861C40.9746 122.943 40.8457 122.275 40.5879 121.857C40.3301 121.436 39.9219 121.225 39.3633 121.225C38.8086 121.225 38.4043 121.434 38.1504 121.852C37.8965 122.27 37.7656 122.912 37.7578 123.779V125.514C37.7578 126.436 37.8906 127.117 38.1562 127.559C38.4258 127.996 38.832 128.215 39.375 128.215C39.9102 128.215 40.3066 128.008 40.5645 127.594C40.8262 127.18 40.9629 126.527 40.9746 125.637V123.861ZM43.582 128.414C43.582 128.227 43.6367 128.07 43.7461 127.945C43.8594 127.82 44.0273 127.758 44.25 127.758C44.4727 127.758 44.6406 127.82 44.7539 127.945C44.8711 128.07 44.9297 128.227 44.9297 128.414C44.9297 128.594 44.8711 128.744 44.7539 128.865C44.6406 128.986 44.4727 129.047 44.25 129.047C44.0273 129.047 43.8594 128.986 43.7461 128.865C43.6367 128.744 43.582 128.594 43.582 128.414ZM51.9609 125.344C51.9609 126.613 51.7441 127.557 51.3105 128.174C50.877 128.791 50.1992 129.1 49.2773 129.1C48.3672 129.1 47.6934 128.799 47.2559 128.197C46.8184 127.592 46.5918 126.689 46.5762 125.49V124.043C46.5762 122.789 46.793 121.857 47.2266 121.248C47.6602 120.639 48.3398 120.334 49.2656 120.334C50.1836 120.334 50.8594 120.629 51.293 121.219C51.7266 121.805 51.9492 122.711 51.9609 123.938V125.344ZM50.877 123.861C50.877 122.943 50.748 122.275 50.4902 121.857C50.2324 121.436 49.8242 121.225 49.2656 121.225C48.7109 121.225 48.3066 121.434 48.0527 121.852C47.7988 122.27 47.668 122.912 47.6602 123.779V125.514C47.6602 126.436 47.793 127.117 48.0586 127.559C48.3281 127.996 48.7344 128.215 49.2773 128.215C49.8125 128.215 50.209 128.008 50.4668 127.594C50.7285 127.18 50.8652 126.527 50.877 125.637V123.861ZM58.6992 125.344C58.6992 126.613 58.4824 127.557 58.0488 128.174C57.6152 128.791 56.9375 129.1 56.0156 129.1C55.1055 129.1 54.4316 128.799 53.9941 128.197C53.5566 127.592 53.3301 126.689 53.3145 125.49V124.043C53.3145 122.789 53.5312 121.857 53.9648 121.248C54.3984 120.639 55.0781 120.334 56.0039 120.334C56.9219 120.334 57.5977 120.629 58.0312 121.219C58.4648 121.805 58.6875 122.711 58.6992 123.938V125.344ZM57.6152 123.861C57.6152 122.943 57.4863 122.275 57.2285 121.857C56.9707 121.436 56.5625 121.225 56.0039 121.225C55.4492 121.225 55.0449 121.434 54.791 121.852C54.5371 122.27 54.4062 122.912 54.3984 123.779V125.514C54.3984 126.436 54.5312 127.117 54.7969 127.559C55.0664 127.996 55.4727 128.215 56.0156 128.215C56.5508 128.215 56.9473 128.008 57.2051 127.594C57.4668 127.18 57.6035 126.527 57.6152 125.637V123.861ZM60.5859 124.705L61.0195 120.451H65.3906V121.453H61.9395L61.6816 123.779C62.0996 123.533 62.5742 123.41 63.1055 123.41C63.8828 123.41 64.5 123.668 64.957 124.184C65.4141 124.695 65.6426 125.389 65.6426 126.264C65.6426 127.143 65.4043 127.836 64.9277 128.344C64.4551 128.848 63.793 129.1 62.9414 129.1C62.1875 129.1 61.5723 128.891 61.0957 128.473C60.6191 128.055 60.3477 127.477 60.2812 126.738H61.3066C61.373 127.227 61.5469 127.596 61.8281 127.846C62.1094 128.092 62.4805 128.215 62.9414 128.215C63.4453 128.215 63.8398 128.043 64.125 127.699C64.4141 127.355 64.5586 126.881 64.5586 126.275C64.5586 125.705 64.4023 125.248 64.0898 124.904C63.7812 124.557 63.3691 124.383 62.8535 124.383C62.3809 124.383 62.0098 124.486 61.7402 124.693L61.4531 124.928L60.5859 124.705Z" fill="black"/>
<path d="M42.0586 106.344C42.0586 107.613 41.8418 108.557 41.4082 109.174C40.9746 109.791 40.2969 110.1 39.375 110.1C38.4648 110.1 37.791 109.799 37.3535 109.197C36.916 108.592 36.6895 107.689 36.6738 106.49V105.043C36.6738 103.789 36.8906 102.857 37.3242 102.248C37.7578 101.639 38.4375 101.334 39.3633 101.334C40.2812 101.334 40.957 101.629 41.3906 102.219C41.8242 102.805 42.0469 103.711 42.0586 104.938V106.344ZM40.9746 104.861C40.9746 103.943 40.8457 103.275 40.5879 102.857C40.3301 102.436 39.9219 102.225 39.3633 102.225C38.8086 102.225 38.4043 102.434 38.1504 102.852C37.8965 103.27 37.7656 103.912 37.7578 104.779V106.514C37.7578 107.436 37.8906 108.117 38.1562 108.559C38.4258 108.996 38.832 109.215 39.375 109.215C39.9102 109.215 40.3066 109.008 40.5645 108.594C40.8262 108.18 40.9629 107.527 40.9746 106.637V104.861ZM43.582 109.414C43.582 109.227 43.6367 109.07 43.7461 108.945C43.8594 108.82 44.0273 108.758 44.25 108.758C44.4727 108.758 44.6406 108.82 44.7539 108.945C44.8711 109.07 44.9297 109.227 44.9297 109.414C44.9297 109.594 44.8711 109.744 44.7539 109.865C44.6406 109.986 44.4727 110.047 44.25 110.047C44.0273 110.047 43.8594 109.986 43.7461 109.865C43.6367 109.744 43.582 109.594 43.582 109.414ZM51.9609 106.344C51.9609 107.613 51.7441 108.557 51.3105 109.174C50.877 109.791 50.1992 110.1 49.2773 110.1C48.3672 110.1 47.6934 109.799 47.2559 109.197C46.8184 108.592 46.5918 107.689 46.5762 106.49V105.043C46.5762 103.789 46.793 102.857 47.2266 102.248C47.6602 101.639 48.3398 101.334 49.2656 101.334C50.1836 101.334 50.8594 101.629 51.293 102.219C51.7266 102.805 51.9492 103.711 51.9609 104.938V106.344ZM50.877 104.861C50.877 103.943 50.748 103.275 50.4902 102.857C50.2324 102.436 49.8242 102.225 49.2656 102.225C48.7109 102.225 48.3066 102.434 48.0527 102.852C47.7988 103.27 47.668 103.912 47.6602 104.779V106.514C47.6602 107.436 47.793 108.117 48.0586 108.559C48.3281 108.996 48.7344 109.215 49.2773 109.215C49.8125 109.215 50.209 109.008 50.4668 108.594C50.7285 108.18 50.8652 107.527 50.877 106.637V104.861ZM56.9121 109.982H55.8223V102.758L53.6367 103.561V102.576L56.7422 101.41H56.9121V109.982ZM65.4375 106.344C65.4375 107.613 65.2207 108.557 64.7871 109.174C64.3535 109.791 63.6758 110.1 62.7539 110.1C61.8438 110.1 61.1699 109.799 60.7324 109.197C60.2949 108.592 60.0684 107.689 60.0527 106.49V105.043C60.0527 103.789 60.2695 102.857 60.7031 102.248C61.1367 101.639 61.8164 101.334 62.7422 101.334C63.6602 101.334 64.3359 101.629 64.7695 102.219C65.2031 102.805 65.4258 103.711 65.4375 104.938V106.344ZM64.3535 104.861C64.3535 103.943 64.2246 103.275 63.9668 102.857C63.709 102.436 63.3008 102.225 62.7422 102.225C62.1875 102.225 61.7832 102.434 61.5293 102.852C61.2754 103.27 61.1445 103.912 61.1367 104.779V106.514C61.1367 107.436 61.2695 108.117 61.5352 108.559C61.8047 108.996 62.2109 109.215 62.7539 109.215C63.2891 109.215 63.6855 109.008 63.9434 108.594C64.2051 108.18 64.3418 107.527 64.3535 106.637V104.861Z" fill="black"/>
<path d="M42.0586 87.3438C42.0586 88.6133 41.8418 89.5566 41.4082 90.1738C40.9746 90.791 40.2969 91.0996 39.375 91.0996C38.4648 91.0996 37.791 90.7988 37.3535 90.1973C36.916 89.5918 36.6895 88.6895 36.6738 87.4902V86.043C36.6738 84.7891 36.8906 83.8574 37.3242 83.248C37.7578 82.6387 38.4375 82.334 39.3633 82.334C40.2812 82.334 40.957 82.6289 41.3906 83.2188C41.8242 83.8047 42.0469 84.7109 42.0586 85.9375V87.3438ZM40.9746 85.8613C40.9746 84.9434 40.8457 84.2754 40.5879 83.8574C40.3301 83.4355 39.9219 83.2246 39.3633 83.2246C38.8086 83.2246 38.4043 83.4336 38.1504 83.8516C37.8965 84.2695 37.7656 84.9121 37.7578 85.7793V87.5137C37.7578 88.4355 37.8906 89.1172 38.1562 89.5586C38.4258 89.9961 38.832 90.2148 39.375 90.2148C39.9102 90.2148 40.3066 90.0078 40.5645 89.5938C40.8262 89.1797 40.9629 88.5273 40.9746 87.6367V85.8613ZM43.582 90.4141C43.582 90.2266 43.6367 90.0703 43.7461 89.9453C43.8594 89.8203 44.0273 89.7578 44.25 89.7578C44.4727 89.7578 44.6406 89.8203 44.7539 89.9453C44.8711 90.0703 44.9297 90.2266 44.9297 90.4141C44.9297 90.5938 44.8711 90.7441 44.7539 90.8652C44.6406 90.9863 44.4727 91.0469 44.25 91.0469C44.0273 91.0469 43.8594 90.9863 43.7461 90.8652C43.6367 90.7441 43.582 90.5938 43.582 90.4141ZM51.9609 87.3438C51.9609 88.6133 51.7441 89.5566 51.3105 90.1738C50.877 90.791 50.1992 91.0996 49.2773 91.0996C48.3672 91.0996 47.6934 90.7988 47.2559 90.1973C46.8184 89.5918 46.5918 88.6895 46.5762 87.4902V86.043C46.5762 84.7891 46.793 83.8574 47.2266 83.248C47.6602 82.6387 48.3398 82.334 49.2656 82.334C50.1836 82.334 50.8594 82.6289 51.293 83.2188C51.7266 83.8047 51.9492 84.7109 51.9609 85.9375V87.3438ZM50.877 85.8613C50.877 84.9434 50.748 84.2754 50.4902 83.8574C50.2324 83.4355 49.8242 83.2246 49.2656 83.2246C48.7109 83.2246 48.3066 83.4336 48.0527 83.8516C47.7988 84.2695 47.668 84.9121 47.6602 85.7793V87.5137C47.6602 88.4355 47.793 89.1172 48.0586 89.5586C48.3281 89.9961 48.7344 90.2148 49.2773 90.2148C49.8125 90.2148 50.209 90.0078 50.4668 89.5938C50.7285 89.1797 50.8652 88.5273 50.877 87.6367V85.8613ZM56.9121 90.9824H55.8223V83.7578L53.6367 84.5605V83.5762L56.7422 82.4102H56.9121V90.9824ZM60.5859 86.7051L61.0195 82.4512H65.3906V83.4531H61.9395L61.6816 85.7793C62.0996 85.5332 62.5742 85.4102 63.1055 85.4102C63.8828 85.4102 64.5 85.668 64.957 86.1836C65.4141 86.6953 65.6426 87.3887 65.6426 88.2637C65.6426 89.1426 65.4043 89.8359 64.9277 90.3438C64.4551 90.8477 63.793 91.0996 62.9414 91.0996C62.1875 91.0996 61.5723 90.8906 61.0957 90.4727C60.6191 90.0547 60.3477 89.4766 60.2812 88.7383H61.3066C61.373 89.2266 61.5469 89.5957 61.8281 89.8457C62.1094 90.0918 62.4805 90.2148 62.9414 90.2148C63.4453 90.2148 63.8398 90.043 64.125 89.6992C64.4141 89.3555 64.5586 88.8809 64.5586 88.2754C64.5586 87.7051 64.4023 87.248 64.0898 86.9043C63.7812 86.5566 63.3691 86.3828 62.8535 86.3828C62.3809 86.3828 62.0098 86.4863 61.7402 86.6934L61.4531 86.9277L60.5859 86.7051Z" fill="black"/>
<path d="M42.0586 69.3438C42.0586 70.6133 41.8418 71.5566 41.4082 72.1738C40.9746 72.791 40.2969 73.0996 39.375 73.0996C38.4648 73.0996 37.791 72.7988 37.3535 72.1973C36.916 71.5918 36.6895 70.6895 36.6738 69.4902V68.043C36.6738 66.7891 36.8906 65.8574 37.3242 65.248C37.7578 64.6387 38.4375 64.334 39.3633 64.334C40.2812 64.334 40.957 64.6289 41.3906 65.2188C41.8242 65.8047 42.0469 66.7109 42.0586 67.9375V69.3438ZM40.9746 67.8613C40.9746 66.9434 40.8457 66.2754 40.5879 65.8574C40.3301 65.4355 39.9219 65.2246 39.3633 65.2246C38.8086 65.2246 38.4043 65.4336 38.1504 65.8516C37.8965 66.2695 37.7656 66.9121 37.7578 67.7793V69.5137C37.7578 70.4355 37.8906 71.1172 38.1562 71.5586C38.4258 71.9961 38.832 72.2148 39.375 72.2148C39.9102 72.2148 40.3066 72.0078 40.5645 71.5938C40.8262 71.1797 40.9629 70.5273 40.9746 69.6367V67.8613ZM43.582 72.4141C43.582 72.2266 43.6367 72.0703 43.7461 71.9453C43.8594 71.8203 44.0273 71.7578 44.25 71.7578C44.4727 71.7578 44.6406 71.8203 44.7539 71.9453C44.8711 72.0703 44.9297 72.2266 44.9297 72.4141C44.9297 72.5938 44.8711 72.7441 44.7539 72.8652C44.6406 72.9863 44.4727 73.0469 44.25 73.0469C44.0273 73.0469 43.8594 72.9863 43.7461 72.8652C43.6367 72.7441 43.582 72.5938 43.582 72.4141ZM51.9609 69.3438C51.9609 70.6133 51.7441 71.5566 51.3105 72.1738C50.877 72.791 50.1992 73.0996 49.2773 73.0996C48.3672 73.0996 47.6934 72.7988 47.2559 72.1973C46.8184 71.5918 46.5918 70.6895 46.5762 69.4902V68.043C46.5762 66.7891 46.793 65.8574 47.2266 65.248C47.6602 64.6387 48.3398 64.334 49.2656 64.334C50.1836 64.334 50.8594 64.6289 51.293 65.2188C51.7266 65.8047 51.9492 66.7109 51.9609 67.9375V69.3438ZM50.877 67.8613C50.877 66.9434 50.748 66.2754 50.4902 65.8574C50.2324 65.4355 49.8242 65.2246 49.2656 65.2246C48.7109 65.2246 48.3066 65.4336 48.0527 65.8516C47.7988 66.2695 47.668 66.9121 47.6602 67.7793V69.5137C47.6602 70.4355 47.793 71.1172 48.0586 71.5586C48.3281 71.9961 48.7344 72.2148 49.2773 72.2148C49.8125 72.2148 50.209 72.0078 50.4668 71.5938C50.7285 71.1797 50.8652 70.5273 50.877 69.6367V67.8613ZM58.9395 72.9824H53.3496V72.2031L56.3027 68.9219C56.7402 68.4258 57.041 68.0234 57.2051 67.7148C57.373 67.4023 57.457 67.0801 57.457 66.748C57.457 66.3027 57.3223 65.9375 57.0527 65.6523C56.7832 65.3672 56.4238 65.2246 55.9746 65.2246C55.4355 65.2246 55.0156 65.3789 54.7148 65.6875C54.418 65.9922 54.2695 66.418 54.2695 66.9648H53.1855C53.1855 66.1797 53.4375 65.5449 53.9414 65.0605C54.4492 64.5762 55.127 64.334 55.9746 64.334C56.7676 64.334 57.3945 64.543 57.8555 64.9609C58.3164 65.375 58.5469 65.9277 58.5469 66.6191C58.5469 67.459 58.0117 68.459 56.9414 69.6191L54.6562 72.0977H58.9395V72.9824ZM65.4375 69.3438C65.4375 70.6133 65.2207 71.5566 64.7871 72.1738C64.3535 72.791 63.6758 73.0996 62.7539 73.0996C61.8438 73.0996 61.1699 72.7988 60.7324 72.1973C60.2949 71.5918 60.0684 70.6895 60.0527 69.4902V68.043C60.0527 66.7891 60.2695 65.8574 60.7031 65.248C61.1367 64.6387 61.8164 64.334 62.7422 64.334C63.6602 64.334 64.3359 64.6289 64.7695 65.2188C65.2031 65.8047 65.4258 66.7109 65.4375 67.9375V69.3438ZM64.3535 67.8613C64.3535 66.9434 64.2246 66.2754 63.9668 65.8574C63.709 65.4355 63.3008 65.2246 62.7422 65.2246C62.1875 65.2246 61.7832 65.4336 61.5293 65.8516C61.2754 66.2695 61.1445 66.9121 61.1367 67.7793V69.5137C61.1367 70.4355 61.2695 71.1172 61.5352 71.5586C61.8047 71.9961 62.2109 72.2148 62.7539 72.2148C63.2891 72.2148 63.6855 72.0078 63.9434 71.5938C64.2051 71.1797 64.3418 70.5273 64.3535 69.6367V67.8613Z" fill="black"/>
<line x1="423" y1="153.482" x2="36" y2="153.482" stroke="#96ADBE" stroke-opacity="0.5"/>
<line x1="423" y1="78.4824" x2="36" y2="78.4824" stroke="#96ADBE" stroke-opacity="0.5"/>
<line x1="423" y1="115.482" x2="36" y2="115.482" stroke="#96ADBE" stroke-opacity="0.5"/>
<line x1="423" y1="96.4824" x2="36" y2="96.4824" stroke="#96ADBE" stroke-opacity="0.5"/>
<line x1="423" y1="133.482" x2="36" y2="133.482" stroke="#96ADBE" stroke-opacity="0.5"/>
<rect x="229" y="153.982" width="78" height="67" transform="rotate(-90 229 153.982)" fill="#96ADBE"/>
<rect x="336" y="153.982" width="70" height="67" transform="rotate(-90 336 153.982)" fill="#C2D1D9"/>
<rect x="124" y="153.982" width="38" height="61" transform="rotate(-90 124 153.982)" fill="#2582FF"/>
<path d="M256.043 168.808H257.099L254.338 161.185H253.183L250.411 168.808H251.467L252.083 167.103H255.427L256.043 168.808ZM255.141 166.289H252.369L253.755 162.417L255.141 166.289ZM259.534 168.819L260.645 168.808L262.493 162.637L264.275 168.808H265.397L267.619 161.141H266.541L264.858 167.62L263.098 161.141H261.976L260.128 167.642L258.456 161.141H257.389L259.534 168.819ZM273.372 166.718C273.372 163.88 269.236 165.112 269.236 163.132C269.236 162.307 269.885 161.878 270.71 161.9C271.645 161.911 272.129 162.494 272.195 163.011H273.295C273.174 161.845 272.217 161.042 270.754 161.042C269.236 161.042 268.213 161.9 268.213 163.165C268.213 166.014 272.36 164.694 272.36 166.762C272.36 167.488 271.788 168.038 270.82 168.038C269.753 168.038 269.302 167.4 269.236 166.762H268.169C268.191 168.027 269.28 168.885 270.82 168.885C272.481 168.885 273.372 167.807 273.372 166.718Z" fill="#7E8B9C"/>
<path d="M124.942 163.285H126.988V169.5H128.869V163.285H130.915V161.778H124.942V163.285ZM131.161 166.42C131.161 168.356 132.36 169.588 133.856 169.588C134.769 169.588 135.418 169.17 135.759 168.631V169.5H137.64V163.362H135.759V164.231C135.429 163.692 134.78 163.274 133.867 163.274C132.36 163.274 131.161 164.484 131.161 166.42ZM135.759 166.431C135.759 167.41 135.132 167.949 134.417 167.949C133.713 167.949 133.075 167.399 133.075 166.42C133.075 165.441 133.713 164.913 134.417 164.913C135.132 164.913 135.759 165.452 135.759 166.431ZM140.557 166.651C140.557 165.595 141.074 165.287 141.965 165.287H142.482V163.296C141.657 163.296 140.986 163.736 140.557 164.385V163.362H138.676V169.5H140.557V166.651ZM142.682 166.42C142.682 168.356 143.881 169.588 145.388 169.588C146.29 169.588 146.939 169.181 147.28 168.62V169.5H149.161V161.36H147.28V164.209C146.906 163.648 146.202 163.274 145.388 163.274C143.881 163.274 142.682 164.484 142.682 166.42ZM147.28 166.431C147.28 167.41 146.653 167.949 145.938 167.949C145.234 167.949 144.596 167.399 144.596 166.42C144.596 165.441 145.234 164.913 145.938 164.913C146.653 164.913 147.28 165.452 147.28 166.431ZM150.198 169.5H152.079V163.362H150.198V169.5ZM151.144 162.724C151.804 162.724 152.255 162.273 152.255 161.712C152.255 161.14 151.804 160.689 151.144 160.689C150.473 160.689 150.022 161.14 150.022 161.712C150.022 162.273 150.473 162.724 151.144 162.724ZM152.743 166.42C152.743 168.356 153.942 169.588 155.449 169.588C156.351 169.588 157 169.159 157.341 168.62V169.489C157.341 170.523 156.78 170.897 156.065 170.897C155.416 170.897 154.954 170.6 154.833 170.138H152.974C153.139 171.601 154.327 172.525 156.153 172.525C158.276 172.525 159.222 171.128 159.222 169.489V163.362H157.341V164.231C157.011 163.681 156.351 163.274 155.449 163.274C153.942 163.274 152.743 164.484 152.743 166.42ZM157.341 166.431C157.341 167.41 156.714 167.949 155.999 167.949C155.295 167.949 154.657 167.399 154.657 166.42C154.657 165.441 155.295 164.913 155.999 164.913C156.714 164.913 157.341 165.452 157.341 166.431ZM162.139 166.651C162.139 165.595 162.656 165.287 163.547 165.287H164.064V163.296C163.239 163.296 162.568 163.736 162.139 164.385V163.362H160.258V169.5H162.139V166.651ZM164.265 166.42C164.265 168.356 165.464 169.588 166.96 169.588C167.873 169.588 168.522 169.17 168.863 168.631V169.5H170.744V163.362H168.863V164.231C168.533 163.692 167.884 163.274 166.971 163.274C165.464 163.274 164.265 164.484 164.265 166.42ZM168.863 166.431C168.863 167.41 168.236 167.949 167.521 167.949C166.817 167.949 166.179 167.399 166.179 166.42C166.179 165.441 166.817 164.913 167.521 164.913C168.236 164.913 168.863 165.452 168.863 166.431ZM171.406 166.42C171.406 168.356 172.605 169.588 174.112 169.588C175.014 169.588 175.663 169.181 176.004 168.62V169.5H177.885V161.36H176.004V164.209C175.63 163.648 174.926 163.274 174.112 163.274C172.605 163.274 171.406 164.484 171.406 166.42ZM176.004 166.431C176.004 167.41 175.377 167.949 174.662 167.949C173.958 167.949 173.32 167.399 173.32 166.42C173.32 165.441 173.958 164.913 174.662 164.913C175.377 164.913 176.004 165.452 176.004 166.431ZM181.627 164.781C182.254 164.781 182.782 165.166 182.782 165.837H180.428C180.538 165.155 181.011 164.781 181.627 164.781ZM184.564 167.465H182.562C182.408 167.795 182.111 168.059 181.583 168.059C180.978 168.059 180.483 167.685 180.417 166.882H184.674C184.696 166.695 184.707 166.508 184.707 166.332C184.707 164.462 183.442 163.274 181.649 163.274C179.823 163.274 178.547 164.484 178.547 166.431C178.547 168.378 179.845 169.588 181.649 169.588C183.178 169.588 184.267 168.664 184.564 167.465Z" fill="#2582FF"/>
<path d="M337.844 161.318C335.688 161.318 333.994 162.935 333.994 165.234C333.994 167.533 335.688 169.139 337.844 169.139C339.923 169.139 341.43 167.61 341.606 165.707V164.937H337.481V165.751H340.539C340.385 167.269 339.351 168.237 337.844 168.237C336.227 168.237 335.017 167.071 335.017 165.234C335.017 163.386 336.227 162.22 337.844 162.22C338.922 162.22 339.758 162.737 340.176 163.628H341.375C340.803 162.154 339.461 161.318 337.844 161.318ZM348.325 166.048C348.325 164.145 346.994 162.946 345.278 162.946C343.573 162.946 342.231 164.145 342.231 166.048C342.231 167.962 343.529 169.172 345.234 169.172C346.95 169.172 348.325 167.962 348.325 166.048ZM343.254 166.048C343.254 164.53 344.211 163.815 345.267 163.815C346.301 163.815 347.302 164.53 347.302 166.048C347.302 167.577 346.279 168.292 345.234 168.292C344.189 168.292 343.254 167.577 343.254 166.048ZM355.036 166.048C355.036 164.145 353.705 162.946 351.989 162.946C350.284 162.946 348.942 164.145 348.942 166.048C348.942 167.962 350.24 169.172 351.945 169.172C353.661 169.172 355.036 167.962 355.036 166.048ZM349.965 166.048C349.965 164.53 350.922 163.815 351.978 163.815C353.012 163.815 354.013 164.53 354.013 166.048C354.013 167.577 352.99 168.292 351.945 168.292C350.9 168.292 349.965 167.577 349.965 166.048ZM355.654 166.037C355.654 167.907 356.897 169.172 358.514 169.172C359.614 169.172 360.395 168.589 360.758 167.94V169.205C360.758 170.492 359.955 171.174 358.888 171.174C357.898 171.174 357.183 170.679 356.963 169.953H355.973C356.171 171.24 357.304 172.043 358.888 172.043C360.659 172.043 361.77 170.866 361.77 169.205V163.045H360.758V164.145C360.406 163.496 359.614 162.946 358.514 162.946C356.897 162.946 355.654 164.156 355.654 166.037ZM360.758 166.048C360.758 167.467 359.812 168.292 358.712 168.292C357.612 168.292 356.677 167.456 356.677 166.037C356.677 164.618 357.612 163.815 358.712 163.815C359.812 163.815 360.758 164.651 360.758 166.048ZM363.137 169.073H364.138V160.933H363.137V169.073ZM368.082 163.793C369.116 163.793 369.996 164.442 369.985 165.619H366.179C366.289 164.442 367.103 163.793 368.082 163.793ZM370.898 167.214H369.82C369.6 167.863 369.028 168.325 368.126 168.325C367.103 168.325 366.245 167.654 366.168 166.433H370.986C371.008 166.224 371.019 166.048 371.019 165.828C371.019 164.178 369.875 162.946 368.126 162.946C366.366 162.946 365.145 164.145 365.145 166.048C365.145 167.962 366.41 169.172 368.126 169.172C369.622 169.172 370.59 168.314 370.898 167.214ZM374.25 165.234C374.25 167.533 375.933 169.139 378.078 169.139C379.739 169.139 381.059 168.314 381.631 166.84H380.432C380.014 167.753 379.2 168.27 378.078 168.27C376.472 168.27 375.273 167.104 375.273 165.234C375.273 163.353 376.472 162.187 378.078 162.187C379.2 162.187 380.014 162.704 380.432 163.628H381.631C381.059 162.143 379.739 161.307 378.078 161.307C375.933 161.307 374.25 162.935 374.25 165.234ZM382.796 169.073H383.797V160.933H382.796V169.073ZM390.898 166.048C390.898 164.145 389.567 162.946 387.851 162.946C386.146 162.946 384.804 164.145 384.804 166.048C384.804 167.962 386.102 169.172 387.807 169.172C389.523 169.172 390.898 167.962 390.898 166.048ZM385.827 166.048C385.827 164.53 386.784 163.815 387.84 163.815C388.874 163.815 389.875 164.53 389.875 166.048C389.875 167.577 388.852 168.292 387.807 168.292C386.762 168.292 385.827 167.577 385.827 166.048ZM397.236 163.045H396.235V166.356C396.235 167.654 395.542 168.292 394.508 168.292C393.496 168.292 392.825 167.665 392.825 166.444V163.045H391.835V166.576C391.835 168.303 392.924 169.161 394.31 169.161C395.113 169.161 395.85 168.809 396.235 168.182V169.073H397.236V163.045ZM398.227 166.037C398.227 167.907 399.47 169.172 401.087 169.172C402.187 169.172 402.968 168.611 403.331 167.94V169.073H404.343V160.933H403.331V164.123C402.913 163.43 402.044 162.946 401.098 162.946C399.47 162.946 398.227 164.156 398.227 166.037ZM403.331 166.048C403.331 167.467 402.385 168.292 401.285 168.292C400.185 168.292 399.25 167.456 399.25 166.037C399.25 164.618 400.185 163.815 401.285 163.815C402.385 163.815 403.331 164.651 403.331 166.048Z" fill="#7E8B9C"/>
<path d="M251.195 182.306C251.195 182.039 251.12 181.827 250.97 181.671C250.824 181.511 250.573 181.365 250.218 181.231C249.864 181.098 249.558 180.966 249.3 180.836C249.043 180.702 248.822 180.551 248.636 180.382C248.454 180.209 248.311 180.007 248.207 179.776C248.106 179.545 248.055 179.27 248.055 178.951C248.055 178.401 248.231 177.95 248.583 177.599C248.934 177.247 249.401 177.042 249.984 176.983V175.938H250.765V176.998C251.341 177.079 251.792 177.32 252.118 177.721C252.443 178.118 252.606 178.634 252.606 179.269H251.195C251.195 178.878 251.114 178.587 250.951 178.395C250.791 178.199 250.577 178.102 250.306 178.102C250.039 178.102 249.833 178.178 249.686 178.331C249.54 178.481 249.466 178.689 249.466 178.956C249.466 179.203 249.538 179.402 249.681 179.552C249.825 179.701 250.09 179.854 250.477 180.011C250.868 180.167 251.188 180.315 251.439 180.455C251.69 180.592 251.901 180.748 252.074 180.924C252.246 181.096 252.378 181.295 252.469 181.52C252.561 181.741 252.606 182 252.606 182.296C252.606 182.849 252.434 183.299 252.089 183.644C251.743 183.989 251.268 184.192 250.663 184.254V185.226H249.886V184.259C249.219 184.187 248.702 183.951 248.334 183.551C247.969 183.147 247.787 182.612 247.787 181.944H249.198C249.198 182.332 249.289 182.63 249.471 182.838C249.657 183.043 249.922 183.146 250.267 183.146C250.554 183.146 250.78 183.071 250.946 182.921C251.112 182.768 251.195 182.563 251.195 182.306ZM258.024 181.236C258.024 182.219 257.82 182.971 257.413 183.492C257.006 184.013 256.411 184.273 255.626 184.273C254.851 184.273 254.259 184.018 253.849 183.507C253.439 182.996 253.229 182.263 253.219 181.31V180.001C253.219 179.008 253.424 178.255 253.834 177.74C254.248 177.226 254.842 176.969 255.616 176.969C256.391 176.969 256.984 177.224 257.394 177.735C257.804 178.243 258.014 178.974 258.024 179.928V181.236ZM256.613 179.801C256.613 179.212 256.531 178.784 256.368 178.517C256.209 178.246 255.958 178.111 255.616 178.111C255.284 178.111 255.039 178.24 254.879 178.497C254.723 178.751 254.64 179.15 254.63 179.693V181.422C254.63 182.001 254.708 182.433 254.864 182.716C255.024 182.996 255.278 183.136 255.626 183.136C255.971 183.136 256.22 183.001 256.373 182.73C256.526 182.46 256.606 182.047 256.613 181.49V179.801ZM258.788 183.482C258.788 183.258 258.863 183.076 259.013 182.936C259.166 182.796 259.356 182.726 259.584 182.726C259.815 182.726 260.005 182.796 260.155 182.936C260.308 183.076 260.385 183.258 260.385 183.482C260.385 183.704 260.31 183.884 260.16 184.024C260.01 184.161 259.818 184.229 259.584 184.229C259.353 184.229 259.162 184.161 259.013 184.024C258.863 183.884 258.788 183.704 258.788 183.482ZM266.027 181.236C266.027 182.219 265.823 182.971 265.416 183.492C265.009 184.013 264.414 184.273 263.629 184.273C262.855 184.273 262.262 184.018 261.852 183.507C261.442 182.996 261.232 182.263 261.222 181.31V180.001C261.222 179.008 261.427 178.255 261.837 177.74C262.251 177.226 262.845 176.969 263.62 176.969C264.394 176.969 264.987 177.224 265.397 177.735C265.807 178.243 266.017 178.974 266.027 179.928V181.236ZM264.616 179.801C264.616 179.212 264.534 178.784 264.371 178.517C264.212 178.246 263.961 178.111 263.62 178.111C263.287 178.111 263.042 178.24 262.882 178.497C262.726 178.751 262.643 179.15 262.633 179.693V181.422C262.633 182.001 262.711 182.433 262.868 182.716C263.027 182.996 263.281 183.136 263.629 183.136C263.974 183.136 264.223 183.001 264.376 182.73C264.529 182.46 264.609 182.047 264.616 181.49V179.801ZM271.532 184.176H266.659V183.209L268.959 180.758C269.275 180.413 269.507 180.112 269.657 179.854C269.81 179.597 269.887 179.353 269.887 179.122C269.887 178.806 269.807 178.559 269.647 178.38C269.488 178.198 269.26 178.106 268.964 178.106C268.645 178.106 268.393 178.217 268.207 178.438C268.025 178.657 267.934 178.945 267.934 179.303H266.518C266.518 178.87 266.62 178.474 266.825 178.116C267.033 177.758 267.326 177.478 267.704 177.276C268.082 177.071 268.51 176.969 268.988 176.969C269.721 176.969 270.289 177.145 270.692 177.496C271.099 177.848 271.303 178.344 271.303 178.985C271.303 179.337 271.212 179.695 271.029 180.06C270.847 180.424 270.534 180.849 270.092 181.334L268.476 183.038H271.532V184.176ZM275.504 184.176H274.093V178.736L272.409 179.259V178.111L275.353 177.057H275.504V184.176Z" fill="black"/>
<path d="M146.318 182.306C146.318 182.039 146.243 181.827 146.093 181.671C145.946 181.511 145.696 181.365 145.341 181.231C144.986 181.098 144.68 180.966 144.423 180.836C144.166 180.702 143.945 180.551 143.759 180.382C143.577 180.209 143.433 180.007 143.329 179.776C143.228 179.545 143.178 179.27 143.178 178.951C143.178 178.401 143.354 177.95 143.705 177.599C144.057 177.247 144.524 177.042 145.107 176.983V175.938H145.888V176.998C146.464 177.079 146.915 177.32 147.24 177.721C147.566 178.118 147.729 178.634 147.729 179.269H146.318C146.318 178.878 146.236 178.587 146.073 178.395C145.914 178.199 145.699 178.102 145.429 178.102C145.162 178.102 144.955 178.178 144.809 178.331C144.662 178.481 144.589 178.689 144.589 178.956C144.589 179.203 144.661 179.402 144.804 179.552C144.947 179.701 145.212 179.854 145.6 180.011C145.99 180.167 146.311 180.315 146.562 180.455C146.812 180.592 147.024 180.748 147.196 180.924C147.369 181.096 147.501 181.295 147.592 181.52C147.683 181.741 147.729 182 147.729 182.296C147.729 182.849 147.556 183.299 147.211 183.644C146.866 183.989 146.391 184.192 145.785 184.254V185.226H145.009V184.259C144.342 184.187 143.824 183.951 143.456 183.551C143.092 183.147 142.909 182.612 142.909 181.944H144.321C144.321 182.332 144.412 182.63 144.594 182.838C144.779 183.043 145.045 183.146 145.39 183.146C145.676 183.146 145.903 183.071 146.069 182.921C146.235 182.768 146.318 182.563 146.318 182.306ZM153.146 181.236C153.146 182.219 152.943 182.971 152.536 183.492C152.129 184.013 151.533 184.273 150.749 184.273C149.974 184.273 149.382 184.018 148.971 183.507C148.561 182.996 148.351 182.263 148.342 181.31V180.001C148.342 179.008 148.547 178.255 148.957 177.74C149.37 177.226 149.964 176.969 150.739 176.969C151.514 176.969 152.106 177.224 152.516 177.735C152.927 178.243 153.136 178.974 153.146 179.928V181.236ZM151.735 179.801C151.735 179.212 151.654 178.784 151.491 178.517C151.331 178.246 151.081 178.111 150.739 178.111C150.407 178.111 150.161 178.24 150.002 178.497C149.845 178.751 149.762 179.15 149.753 179.693V181.422C149.753 182.001 149.831 182.433 149.987 182.716C150.147 182.996 150.4 183.136 150.749 183.136C151.094 183.136 151.343 183.001 151.496 182.73C151.649 182.46 151.729 182.047 151.735 181.49V179.801ZM153.91 183.482C153.91 183.258 153.985 183.076 154.135 182.936C154.288 182.796 154.479 182.726 154.706 182.726C154.938 182.726 155.128 182.796 155.278 182.936C155.431 183.076 155.507 183.258 155.507 183.482C155.507 183.704 155.432 183.884 155.283 184.024C155.133 184.161 154.941 184.229 154.706 184.229C154.475 184.229 154.285 184.161 154.135 184.024C153.985 183.884 153.91 183.704 153.91 183.482ZM161.149 181.236C161.149 182.219 160.946 182.971 160.539 183.492C160.132 184.013 159.536 184.273 158.752 184.273C157.977 184.273 157.385 184.018 156.975 183.507C156.564 182.996 156.354 182.263 156.345 181.31V180.001C156.345 179.008 156.55 178.255 156.96 177.74C157.373 177.226 157.967 176.969 158.742 176.969C159.517 176.969 160.109 177.224 160.519 177.735C160.93 178.243 161.14 178.974 161.149 179.928V181.236ZM159.738 179.801C159.738 179.212 159.657 178.784 159.494 178.517C159.335 178.246 159.084 178.111 158.742 178.111C158.41 178.111 158.164 178.24 158.005 178.497C157.849 178.751 157.766 179.15 157.756 179.693V181.422C157.756 182.001 157.834 182.433 157.99 182.716C158.15 182.996 158.404 183.136 158.752 183.136C159.097 183.136 159.346 183.001 159.499 182.73C159.652 182.46 159.732 182.047 159.738 181.49V179.801ZM165.209 184.176H163.798V178.736L162.114 179.259V178.111L165.058 177.057H165.209V184.176Z" fill="black"/>
<path d="M358.594 181.994C358.594 181.727 358.519 181.516 358.369 181.36C358.223 181.2 357.972 181.054 357.617 180.92C357.263 180.787 356.957 180.655 356.699 180.525C356.442 180.391 356.221 180.24 356.035 180.071C355.853 179.898 355.71 179.696 355.606 179.465C355.505 179.234 355.454 178.959 355.454 178.64C355.454 178.09 355.63 177.639 355.982 177.287C356.333 176.936 356.8 176.731 357.383 176.672V175.627H358.164V176.687C358.741 176.768 359.191 177.009 359.517 177.409C359.842 177.807 360.005 178.323 360.005 178.957H358.594C358.594 178.567 358.513 178.275 358.35 178.083C358.19 177.888 357.976 177.79 357.705 177.79C357.438 177.79 357.232 177.867 357.085 178.02C356.939 178.17 356.866 178.378 356.866 178.645C356.866 178.892 356.937 179.091 357.08 179.24C357.224 179.39 357.489 179.543 357.876 179.699C358.267 179.856 358.588 180.004 358.838 180.144C359.089 180.281 359.3 180.437 359.473 180.613C359.645 180.785 359.777 180.984 359.868 181.208C359.96 181.43 360.005 181.688 360.005 181.985C360.005 182.538 359.833 182.987 359.488 183.332C359.143 183.677 358.667 183.881 358.062 183.943V184.914H357.285V183.948C356.618 183.876 356.101 183.64 355.733 183.24C355.368 182.836 355.186 182.3 355.186 181.633H356.597C356.597 182.02 356.688 182.318 356.87 182.527C357.056 182.732 357.321 182.834 357.666 182.834C357.953 182.834 358.179 182.759 358.345 182.61C358.511 182.457 358.594 182.252 358.594 181.994ZM365.423 180.925C365.423 181.908 365.219 182.66 364.812 183.181C364.405 183.702 363.81 183.962 363.025 183.962C362.251 183.962 361.658 183.707 361.248 183.196C360.838 182.684 360.628 181.952 360.618 180.998V179.69C360.618 178.697 360.823 177.943 361.233 177.429C361.647 176.915 362.241 176.657 363.015 176.657C363.79 176.657 364.383 176.913 364.793 177.424C365.203 177.932 365.413 178.663 365.423 179.616V180.925ZM364.012 179.49C364.012 178.9 363.93 178.472 363.767 178.205C363.608 177.935 363.357 177.8 363.015 177.8C362.683 177.8 362.438 177.929 362.278 178.186C362.122 178.44 362.039 178.838 362.029 179.382V181.111C362.029 181.69 362.107 182.121 362.264 182.405C362.423 182.684 362.677 182.824 363.025 182.824C363.37 182.824 363.619 182.689 363.772 182.419C363.925 182.149 364.005 181.736 364.012 181.179V179.49ZM366.187 183.171C366.187 182.947 366.262 182.764 366.412 182.624C366.565 182.484 366.755 182.414 366.983 182.414C367.214 182.414 367.404 182.484 367.554 182.624C367.707 182.764 367.784 182.947 367.784 183.171C367.784 183.392 367.709 183.573 367.559 183.713C367.409 183.85 367.217 183.918 366.983 183.918C366.752 183.918 366.561 183.85 366.412 183.713C366.262 183.573 366.187 183.392 366.187 183.171ZM373.426 180.925C373.426 181.908 373.222 182.66 372.815 183.181C372.409 183.702 371.813 183.962 371.028 183.962C370.254 183.962 369.661 183.707 369.251 183.196C368.841 182.684 368.631 181.952 368.621 180.998V179.69C368.621 178.697 368.826 177.943 369.236 177.429C369.65 176.915 370.244 176.657 371.019 176.657C371.793 176.657 372.386 176.913 372.796 177.424C373.206 177.932 373.416 178.663 373.426 179.616V180.925ZM372.015 179.49C372.015 178.9 371.933 178.472 371.77 178.205C371.611 177.935 371.36 177.8 371.019 177.8C370.687 177.8 370.441 177.929 370.281 178.186C370.125 178.44 370.042 178.838 370.032 179.382V181.111C370.032 181.69 370.11 182.121 370.267 182.405C370.426 182.684 370.68 182.824 371.028 182.824C371.373 182.824 371.622 182.689 371.775 182.419C371.928 182.149 372.008 181.736 372.015 181.179V179.49ZM377.486 183.865H376.075V178.425L374.39 178.948V177.8L377.335 176.745H377.486V183.865ZM384.11 178.645C384.11 178.99 384.023 179.296 383.851 179.563C383.678 179.83 383.441 180.043 383.138 180.202C383.483 180.368 383.756 180.598 383.958 180.891C384.16 181.181 384.261 181.522 384.261 181.916C384.261 182.548 384.046 183.047 383.616 183.415C383.187 183.78 382.602 183.962 381.863 183.962C381.124 183.962 380.539 183.778 380.106 183.41C379.673 183.043 379.456 182.545 379.456 181.916C379.456 181.522 379.557 181.179 379.759 180.886C379.961 180.593 380.233 180.365 380.574 180.202C380.272 180.043 380.034 179.83 379.861 179.563C379.692 179.296 379.608 178.99 379.608 178.645C379.608 178.039 379.809 177.558 380.213 177.199C380.617 176.838 381.165 176.657 381.859 176.657C382.549 176.657 383.096 176.837 383.499 177.195C383.906 177.549 384.11 178.033 384.11 178.645ZM382.845 181.814C382.845 181.504 382.755 181.257 382.576 181.072C382.397 180.886 382.156 180.793 381.854 180.793C381.554 180.793 381.315 180.886 381.136 181.072C380.957 181.254 380.867 181.501 380.867 181.814C380.867 182.116 380.955 182.361 381.131 182.546C381.307 182.732 381.551 182.824 381.863 182.824C382.169 182.824 382.409 182.735 382.581 182.556C382.757 182.377 382.845 182.129 382.845 181.814ZM382.698 178.713C382.698 178.436 382.625 178.215 382.479 178.049C382.332 177.88 382.125 177.795 381.859 177.795C381.595 177.795 381.39 177.877 381.243 178.039C381.097 178.202 381.024 178.427 381.024 178.713C381.024 178.996 381.097 179.224 381.243 179.397C381.39 179.569 381.596 179.656 381.863 179.656C382.13 179.656 382.335 179.569 382.479 179.397C382.625 179.224 382.698 178.996 382.698 178.713Z" fill="black"/>
<path d="M248.389 199.762H247.803V193.355L245.869 194.073V193.526L248.291 192.628H248.389V199.762ZM253.611 199.762H253.025V193.355L251.091 194.073V193.526L253.513 192.628H253.611V199.762ZM260.4 196.798C260.4 197.8 260.217 198.562 259.849 199.083C259.481 199.601 258.939 199.859 258.223 199.859C257.52 199.859 256.981 199.605 256.606 199.098C256.232 198.587 256.04 197.844 256.03 196.871V195.597C256.03 194.597 256.216 193.84 256.587 193.326C256.958 192.812 257.5 192.555 258.213 192.555C258.916 192.555 259.453 192.804 259.824 193.302C260.195 193.797 260.387 194.527 260.4 195.494V196.798ZM259.814 195.523C259.814 194.71 259.681 194.094 259.414 193.678C259.15 193.261 258.75 193.053 258.213 193.053C257.686 193.053 257.288 193.256 257.022 193.663C256.755 194.07 256.618 194.671 256.611 195.465V196.861C256.611 197.672 256.748 198.292 257.022 198.722C257.298 199.151 257.699 199.366 258.223 199.366C258.744 199.366 259.137 199.156 259.404 198.736C259.675 198.316 259.811 197.701 259.814 196.891V195.523ZM261.199 194.02C261.199 193.596 261.329 193.246 261.589 192.97C261.853 192.69 262.187 192.55 262.59 192.55C262.994 192.55 263.326 192.69 263.587 192.97C263.85 193.246 263.982 193.606 263.982 194.049V194.396C263.982 194.812 263.852 195.16 263.591 195.44C263.334 195.717 263.004 195.855 262.6 195.855C262.2 195.855 261.866 195.719 261.599 195.445C261.332 195.172 261.199 194.811 261.199 194.361V194.02ZM261.672 194.396C261.672 194.698 261.755 194.947 261.921 195.143C262.091 195.338 262.317 195.436 262.6 195.436C262.877 195.436 263.097 195.338 263.259 195.143C263.425 194.944 263.508 194.688 263.508 194.376V194.02C263.508 193.717 263.424 193.468 263.254 193.272C263.085 193.074 262.864 192.975 262.59 192.975C262.32 192.975 262.099 193.072 261.926 193.268C261.757 193.463 261.672 193.723 261.672 194.049V194.396ZM264.778 198.019C264.778 197.595 264.908 197.245 265.169 196.969C265.432 196.692 265.764 196.554 266.165 196.554C266.565 196.554 266.897 196.692 267.161 196.969C267.428 197.242 267.561 197.604 267.561 198.053V198.399C267.561 198.823 267.429 199.173 267.166 199.449C266.905 199.726 266.575 199.864 266.174 199.864C265.774 199.864 265.44 199.728 265.173 199.454C264.91 199.177 264.778 198.818 264.778 198.375V198.019ZM265.247 198.399C265.247 198.705 265.33 198.956 265.496 199.151C265.665 199.347 265.891 199.444 266.174 199.444C266.454 199.444 266.676 199.347 266.838 199.151C267.004 198.953 267.088 198.694 267.088 198.375V198.019C267.088 197.706 267.003 197.455 266.834 197.267C266.668 197.075 266.445 196.979 266.165 196.979C265.891 196.979 265.67 197.075 265.501 197.267C265.331 197.459 265.247 197.716 265.247 198.038V198.399ZM262.786 199.171L262.42 198.937L265.891 193.38L266.257 193.614L262.786 199.171Z" fill="black"/>
<path d="M277.171 193.43L281.412 197.432H272.93L277.171 193.43Z" fill="#FF0000"/>
<path d="M360.858 194.483C360.858 194.851 360.751 195.182 360.536 195.475C360.321 195.764 360.038 195.978 359.687 196.114C360.097 196.254 360.425 196.48 360.673 196.793C360.92 197.105 361.044 197.467 361.044 197.877C361.044 198.486 360.837 198.969 360.424 199.327C360.01 199.682 359.464 199.859 358.783 199.859C358.096 199.859 357.546 199.682 357.133 199.327C356.723 198.972 356.518 198.489 356.518 197.877C356.518 197.473 356.636 197.114 356.874 196.798C357.112 196.482 357.437 196.254 357.851 196.114C357.499 195.978 357.219 195.764 357.011 195.475C356.802 195.182 356.698 194.851 356.698 194.483C356.698 193.894 356.887 193.425 357.265 193.077C357.646 192.729 358.148 192.555 358.773 192.555C359.398 192.555 359.901 192.73 360.282 193.082C360.666 193.434 360.858 193.901 360.858 194.483ZM360.458 197.882C360.458 197.439 360.3 197.076 359.984 196.793C359.669 196.507 359.265 196.363 358.773 196.363C358.282 196.363 357.88 196.503 357.567 196.783C357.255 197.063 357.099 197.429 357.099 197.882C357.099 198.334 357.25 198.696 357.553 198.966C357.855 199.233 358.266 199.366 358.783 199.366C359.288 199.366 359.693 199.233 359.999 198.966C360.305 198.699 360.458 198.338 360.458 197.882ZM360.272 194.479C360.272 194.072 360.131 193.733 359.848 193.463C359.568 193.189 359.21 193.053 358.773 193.053C358.331 193.053 357.971 193.185 357.694 193.448C357.421 193.709 357.284 194.052 357.284 194.479C357.284 194.895 357.421 195.23 357.694 195.484C357.971 195.738 358.332 195.865 358.778 195.865C359.218 195.865 359.576 195.738 359.853 195.484C360.132 195.227 360.272 194.892 360.272 194.479ZM366.178 196.798C366.178 197.8 365.994 198.562 365.627 199.083C365.259 199.601 364.717 199.859 364.001 199.859C363.297 199.859 362.759 199.605 362.384 199.098C362.01 198.587 361.818 197.844 361.808 196.871V195.597C361.808 194.597 361.994 193.84 362.365 193.326C362.736 192.812 363.278 192.555 363.991 192.555C364.694 192.555 365.231 192.804 365.602 193.302C365.973 193.797 366.165 194.527 366.178 195.494V196.798ZM365.592 195.523C365.592 194.71 365.459 194.094 365.192 193.678C364.928 193.261 364.528 193.053 363.991 193.053C363.463 193.053 363.066 193.256 362.799 193.663C362.532 194.07 362.396 194.671 362.389 195.465V196.861C362.389 197.672 362.526 198.292 362.799 198.722C363.076 199.151 363.476 199.366 364.001 199.366C364.521 199.366 364.915 199.156 365.182 198.736C365.452 198.316 365.589 197.701 365.592 196.891V195.523ZM366.977 194.02C366.977 193.596 367.107 193.246 367.367 192.97C367.631 192.69 367.965 192.55 368.368 192.55C368.772 192.55 369.104 192.69 369.364 192.97C369.628 193.246 369.76 193.606 369.76 194.049V194.396C369.76 194.812 369.63 195.16 369.369 195.44C369.112 195.717 368.782 195.855 368.378 195.855C367.978 195.855 367.644 195.719 367.377 195.445C367.11 195.172 366.977 194.811 366.977 194.361V194.02ZM367.45 194.396C367.45 194.698 367.533 194.947 367.699 195.143C367.869 195.338 368.095 195.436 368.378 195.436C368.655 195.436 368.874 195.338 369.037 195.143C369.203 194.944 369.286 194.688 369.286 194.376V194.02C369.286 193.717 369.202 193.468 369.032 193.272C368.863 193.074 368.642 192.975 368.368 192.975C368.098 192.975 367.877 193.072 367.704 193.268C367.535 193.463 367.45 193.723 367.45 194.049V194.396ZM370.556 198.019C370.556 197.595 370.686 197.245 370.946 196.969C371.21 196.692 371.542 196.554 371.943 196.554C372.343 196.554 372.675 196.692 372.939 196.969C373.206 197.242 373.339 197.604 373.339 198.053V198.399C373.339 198.823 373.207 199.173 372.943 199.449C372.683 199.726 372.353 199.864 371.952 199.864C371.552 199.864 371.218 199.728 370.951 199.454C370.688 199.177 370.556 198.818 370.556 198.375V198.019ZM371.025 198.399C371.025 198.705 371.108 198.956 371.274 199.151C371.443 199.347 371.669 199.444 371.952 199.444C372.232 199.444 372.454 199.347 372.616 199.151C372.782 198.953 372.865 198.694 372.865 198.375V198.019C372.865 197.706 372.781 197.455 372.611 197.267C372.445 197.075 372.222 196.979 371.943 196.979C371.669 196.979 371.448 197.075 371.278 197.267C371.109 197.459 371.025 197.716 371.025 198.038V198.399ZM368.564 199.171L368.197 198.937L371.669 193.38L372.035 193.614L368.564 199.171Z" fill="black"/>
<path d="M383.317 193.43L387.558 197.432H379.076L383.317 193.43Z" fill="#FF0000"/>
</svg>
