<?xml version="1.0" encoding="UTF-8"?>
<svg width="58px" height="40px" viewBox="0 0 58 40" version="1.1" xmlns="http://www.w3.org/2000/svg" xmlns:xlink="http://www.w3.org/1999/xlink">
    <!-- Generator: Sketch 53.2 (72643) - https://sketchapp.com -->
    <title>tar-com-ico-performance</title>
    <desc>Created with Sketch.</desc>
    <defs>
        <linearGradient x1="100%" y1="64.1346085%" x2="0%" y2="35.8653915%" id="linearGradient-1">
            <stop stop-color="#9900FF" offset="0%"></stop>
            <stop stop-color="#006DFF" offset="100%"></stop>
        </linearGradient>
        <linearGradient x1="100%" y1="54.6613817%" x2="0%" y2="45.3386183%" id="linearGradient-2">
            <stop stop-color="#CB7CFF" offset="0%"></stop>
            <stop stop-color="#6CABFF" offset="100%"></stop>
        </linearGradient>
        <radialGradient cx="49.999991%" cy="41.1163%" fx="49.999991%" fy="41.1163%" r="255.597539%" gradientTransform="translate(0.500000,0.411163),scale(0.452441,1.000000),rotate(90.000000),translate(-0.500000,-0.411163)" id="radialGradient-3">
            <stop stop-color="#FDFDFD" offset="0%"></stop>
            <stop stop-color="#DCDCDC" offset="100%"></stop>
        </radialGradient>
    </defs>
    <g id="Tardigrade-Icos" stroke="none" stroke-width="1" fill="none" fill-rule="evenodd">
        <g id="tar-com-ico-performance" fill-rule="nonzero">
            <path d="M51.3088732,33.7167297 C51.3088732,36.7520857 48.848231,39.2127279 45.812875,39.2127279 L11.0431622,39.2127279 C8.00780622,39.2127279 5.54716407,36.7520857 5.54716407,33.7167297 L5.54716407,27.2515236 C5.54716407,26.1703894 5.54716407,25.2865747 5.54716407,24.6000793 C8.74292652,22.7739294 13.5365701,20.0347044 19.928095,16.3824045 C21.5420024,15.4601717 23.5734882,15.7322244 24.8878722,17.0466084 L29.8285041,21.9872402 C32.0865476,24.2452837 35.6027733,24.6496918 38.3144822,22.9632293 C44.0897671,19.3714716 48.4212307,16.6776534 51.3088732,14.8817746 C51.3088732,17.6658217 51.3088732,23.9441401 51.3088732,33.7167297 Z" id="path-6" fill="url(#linearGradient-1)"></path>
            <path d="M1.94041492,23.4960679 C5.63470175,21.3850468 11.176132,18.2185153 18.5647056,13.9964732 C21.2545513,12.4594185 24.640361,12.9128396 26.831001,15.1034796 L31.7716328,20.0441114 C33.126459,21.3989376 35.2361944,21.6415824 36.8632197,20.6297049 C44.7220428,15.7421559 50.6161601,12.0764941 54.5455716,9.63271963 C57.0016824,8.10521843 58.6313123,10.3278128 56.2643853,11.799849 C52.2755179,14.2806001 46.2922169,18.0017269 38.3144822,22.9632293 C35.6027733,24.6496918 32.0865476,24.2452837 29.8285041,21.9872402 L24.8878722,17.0466084 C23.5734882,15.7322244 21.5420024,15.4601717 19.928095,16.3824045 C12.3956979,20.6866315 6.74639995,23.9148017 2.98020136,26.0669152 C0.226412085,27.640509 -0.921241985,25.1313004 1.94041492,23.4960679 Z" id="Line" fill="url(#linearGradient-2)"></path>
            <path d="M51.3023626,11.6336848 C48.0879302,13.6328004 43.2662817,16.6314737 36.837417,20.6297049 C35.2103917,21.6415824 33.1006563,21.3989376 31.7458301,20.0441114 L26.8051983,15.1034796 C24.6145584,12.9128396 21.2287487,12.4594185 18.538903,13.9964732 C12.6718721,17.3490622 8.27159904,19.863504 5.33808361,21.5397985 C5.47747058,17.0494656 5.52900087,11.9484458 5.4926745,6.2367389 C5.4926745,3.20138293 7.95331667,0.740740741 10.9886727,0.740740741 L45.812875,0.740740741 C48.848231,0.740740741 51.3088732,3.20138293 51.3088732,6.2367389 C51.3088732,8.46570222 51.306703,10.2646841 51.3023626,11.6336848 Z" id="path-3" fill="url(#radialGradient-3)"></path>
        </g>
    </g>
</svg>