<svg width="392" height="211" viewBox="0 0 392 211" fill="none" xmlns="http://www.w3.org/2000/svg">
<path d="M11.3824 17H14.1184V5.768H11.3824V10.168H7.12644V5.768H4.39044V17H7.12644V12.376H11.3824V17ZM24.8296 12.536C24.8296 9.704 22.8136 7.944 20.1896 7.944C17.5816 7.944 15.5496 9.704 15.5496 12.536C15.5496 15.368 17.5336 17.128 20.1576 17.128C22.7816 17.128 24.8296 15.368 24.8296 12.536ZM18.3336 12.536C18.3336 11.016 19.1976 10.312 20.1896 10.312C21.1496 10.312 22.0456 11.016 22.0456 12.536C22.0456 14.04 21.1336 14.76 20.1576 14.76C19.1656 14.76 18.3336 14.04 18.3336 12.536ZM27.7851 17H30.7931L32.2491 11.208L33.6571 17H36.6811L39.0971 8.072H36.5211L35.2731 14.424L33.7531 8.072H30.8571L29.3531 14.456L28.0891 8.072H25.3531L27.7851 17ZM42.9231 7.96H45.8991V17H48.6351V7.96H51.6111V5.768H42.9231V7.96ZM52.4402 12.52C52.4402 15.336 54.1842 17.128 56.3602 17.128C57.6882 17.128 58.6322 16.52 59.1282 15.736V17H61.8642V8.072H59.1282V9.336C58.6482 8.552 57.7042 7.944 56.3762 7.944C54.1842 7.944 52.4402 9.704 52.4402 12.52ZM59.1282 12.536C59.1282 13.96 58.2162 14.744 57.1762 14.744C56.1522 14.744 55.2242 13.944 55.2242 12.52C55.2242 11.096 56.1522 10.328 57.1762 10.328C58.2162 10.328 59.1282 11.112 59.1282 12.536ZM66.5796 12.856C66.5796 11.32 67.3316 10.872 68.6276 10.872H69.3796V7.976C68.1796 7.976 67.2036 8.616 66.5796 9.56V8.072H63.8436V17H66.5796V12.856ZM70.1433 12.52C70.1433 15.336 71.8873 17.128 74.0793 17.128C75.3913 17.128 76.3353 16.536 76.8313 15.72V17H79.5673V5.16H76.8313V9.304C76.2873 8.488 75.2633 7.944 74.0793 7.944C71.8873 7.944 70.1433 9.704 70.1433 12.52ZM76.8313 12.536C76.8313 13.96 75.9193 14.744 74.8793 14.744C73.8553 14.744 72.9273 13.944 72.9273 12.52C72.9273 11.096 73.8553 10.328 74.8793 10.328C75.9193 10.328 76.8313 11.112 76.8313 12.536ZM81.5467 17H84.2827V8.072H81.5467V17ZM82.9227 7.144C83.8827 7.144 84.5387 6.488 84.5387 5.672C84.5387 4.84 83.8827 4.184 82.9227 4.184C81.9467 4.184 81.2907 4.84 81.2907 5.672C81.2907 6.488 81.9467 7.144 82.9227 7.144ZM85.7214 12.52C85.7214 15.336 87.4654 17.128 89.6574 17.128C90.9694 17.128 91.9134 16.504 92.4094 15.72V16.984C92.4094 18.488 91.5934 19.032 90.5534 19.032C89.6094 19.032 88.9374 18.6 88.7614 17.928H86.0574C86.2974 20.056 88.0254 21.4 90.6814 21.4C93.7694 21.4 95.1454 19.368 95.1454 16.984V8.072H92.4094V9.336C91.9294 8.536 90.9694 7.944 89.6574 7.944C87.4654 7.944 85.7214 9.704 85.7214 12.52ZM92.4094 12.536C92.4094 13.96 91.4974 14.744 90.4574 14.744C89.4334 14.744 88.5054 13.944 88.5054 12.52C88.5054 11.096 89.4334 10.328 90.4574 10.328C91.4974 10.328 92.4094 11.112 92.4094 12.536ZM99.8608 12.856C99.8608 11.32 100.613 10.872 101.909 10.872H102.661V7.976C101.461 7.976 100.485 8.616 99.8608 9.56V8.072H97.1248V17H99.8608V12.856ZM103.425 12.52C103.425 15.336 105.169 17.128 107.345 17.128C108.673 17.128 109.617 16.52 110.113 15.736V17H112.849V8.072H110.113V9.336C109.633 8.552 108.689 7.944 107.361 7.944C105.169 7.944 103.425 9.704 103.425 12.52ZM110.113 12.536C110.113 13.96 109.201 14.744 108.161 14.744C107.137 14.744 106.209 13.944 106.209 12.52C106.209 11.096 107.137 10.328 108.161 10.328C109.201 10.328 110.113 11.112 110.113 12.536ZM114.284 12.52C114.284 15.336 116.028 17.128 118.22 17.128C119.532 17.128 120.476 16.536 120.972 15.72V17H123.708V5.16H120.972V9.304C120.428 8.488 119.404 7.944 118.22 7.944C116.028 7.944 114.284 9.704 114.284 12.52ZM120.972 12.536C120.972 13.96 120.06 14.744 119.02 14.744C117.996 14.744 117.068 13.944 117.068 12.52C117.068 11.096 117.996 10.328 119.02 10.328C120.06 10.328 120.972 11.112 120.972 12.536ZM129.623 10.136C130.535 10.136 131.303 10.696 131.303 11.672H127.879C128.039 10.68 128.727 10.136 129.623 10.136ZM133.895 14.04H130.983C130.759 14.52 130.327 14.904 129.559 14.904C128.679 14.904 127.959 14.36 127.863 13.192H134.055C134.087 12.92 134.103 12.648 134.103 12.392C134.103 9.672 132.263 7.944 129.655 7.944C126.999 7.944 125.143 9.704 125.143 12.536C125.143 15.368 127.031 17.128 129.655 17.128C131.879 17.128 133.463 15.784 133.895 14.04ZM138.473 11.368C138.473 14.728 140.809 17.08 144.121 17.08C146.793 17.08 148.809 15.592 149.449 13.16H146.441C145.977 14.12 145.129 14.6 144.089 14.6C142.409 14.6 141.257 13.352 141.257 11.368C141.257 9.384 142.409 8.136 144.089 8.136C145.129 8.136 145.977 8.616 146.441 9.576H149.449C148.809 7.144 146.793 5.64 144.121 5.64C140.809 5.64 138.473 8.008 138.473 11.368ZM159.861 12.536C159.861 9.704 157.845 7.944 155.221 7.944C152.613 7.944 150.581 9.704 150.581 12.536C150.581 15.368 152.565 17.128 155.189 17.128C157.813 17.128 159.861 15.368 159.861 12.536ZM153.365 12.536C153.365 11.016 154.229 10.312 155.221 10.312C156.181 10.312 157.077 11.016 157.077 12.536C157.077 14.04 156.165 14.76 155.189 14.76C154.197 14.76 153.365 14.04 153.365 12.536ZM173.616 17H176.336V11.784C176.336 9.384 174.912 7.976 172.704 7.976C171.408 7.976 170.288 8.696 169.696 9.64C169.088 8.568 168 7.976 166.656 7.976C165.488 7.976 164.576 8.472 164.048 9.192V8.072H161.312V17H164.048V12.152C164.048 10.984 164.72 10.344 165.76 10.344C166.8 10.344 167.472 10.984 167.472 12.152V17H170.192V12.152C170.192 10.984 170.864 10.344 171.904 10.344C172.944 10.344 173.616 10.984 173.616 12.152V17ZM180.986 9.336V8.072H178.25V21.256H180.986V15.752C181.482 16.504 182.426 17.128 183.738 17.128C185.93 17.128 187.674 15.336 187.674 12.52C187.674 9.704 185.93 7.944 183.738 7.944C182.426 7.944 181.482 8.552 180.986 9.336ZM184.89 12.52C184.89 13.944 183.962 14.744 182.922 14.744C181.898 14.744 180.97 13.96 180.97 12.536C180.97 11.112 181.898 10.328 182.922 10.328C183.962 10.328 184.89 11.096 184.89 12.52ZM188.565 12.52C188.565 15.336 190.309 17.128 192.485 17.128C193.813 17.128 194.757 16.52 195.253 15.736V17H197.989V8.072H195.253V9.336C194.773 8.552 193.829 7.944 192.501 7.944C190.309 7.944 188.565 9.704 188.565 12.52ZM195.253 12.536C195.253 13.96 194.341 14.744 193.301 14.744C192.277 14.744 191.349 13.944 191.349 12.52C191.349 11.096 192.277 10.328 193.301 10.328C194.341 10.328 195.253 11.112 195.253 12.536ZM202.705 12.856C202.705 11.32 203.457 10.872 204.753 10.872H205.505V7.976C204.305 7.976 203.329 8.616 202.705 9.56V8.072H199.969V17H202.705V12.856ZM210.748 10.136C211.66 10.136 212.428 10.696 212.428 11.672H209.004C209.164 10.68 209.852 10.136 210.748 10.136ZM215.02 14.04H212.108C211.884 14.52 211.452 14.904 210.684 14.904C209.804 14.904 209.084 14.36 208.988 13.192H215.18C215.212 12.92 215.228 12.648 215.228 12.392C215.228 9.672 213.388 7.944 210.78 7.944C208.124 7.944 206.268 9.704 206.268 12.536C206.268 15.368 208.156 17.128 210.78 17.128C213.004 17.128 214.588 15.784 215.02 14.04ZM223.92 14.408C223.872 11.08 219.04 12.088 219.04 10.664C219.04 10.232 219.392 9.976 220.032 9.976C220.8 9.976 221.264 10.376 221.344 10.984H223.872C223.696 9.224 222.416 7.944 220.112 7.944C217.776 7.944 216.48 9.192 216.48 10.712C216.48 13.992 221.344 12.952 221.344 14.392C221.344 14.792 220.976 15.112 220.272 15.112C219.52 15.112 218.96 14.696 218.896 14.072H216.192C216.32 15.8 217.92 17.128 220.304 17.128C222.544 17.128 223.92 15.96 223.92 14.408Z" fill="black"/>
<path d="M390 10L383.5 16.5L377 10" stroke="black" stroke-width="3" stroke-linecap="round" stroke-linejoin="round"/>
<path d="M9.05859 152.361C9.05859 153.631 8.8418 154.574 8.4082 155.191C7.97461 155.809 7.29688 156.117 6.375 156.117C5.46484 156.117 4.79102 155.816 4.35352 155.215C3.91602 154.609 3.68945 153.707 3.67383 152.508V151.061C3.67383 149.807 3.89062 148.875 4.32422 148.266C4.75781 147.656 5.4375 147.352 6.36328 147.352C7.28125 147.352 7.95703 147.646 8.39062 148.236C8.82422 148.822 9.04688 149.729 9.05859 150.955V152.361ZM7.97461 150.879C7.97461 149.961 7.8457 149.293 7.58789 148.875C7.33008 148.453 6.92188 148.242 6.36328 148.242C5.80859 148.242 5.4043 148.451 5.15039 148.869C4.89648 149.287 4.76562 149.93 4.75781 150.797V152.531C4.75781 153.453 4.89062 154.135 5.15625 154.576C5.42578 155.014 5.83203 155.232 6.375 155.232C6.91016 155.232 7.30664 155.025 7.56445 154.611C7.82617 154.197 7.96289 153.545 7.97461 152.654V150.879ZM10.582 155.432C10.582 155.244 10.6367 155.088 10.7461 154.963C10.8594 154.838 11.0273 154.775 11.25 154.775C11.4727 154.775 11.6406 154.838 11.7539 154.963C11.8711 155.088 11.9297 155.244 11.9297 155.432C11.9297 155.611 11.8711 155.762 11.7539 155.883C11.6406 156.004 11.4727 156.064 11.25 156.064C11.0273 156.064 10.8594 156.004 10.7461 155.883C10.6367 155.762 10.582 155.611 10.582 155.432ZM18.9609 152.361C18.9609 153.631 18.7441 154.574 18.3105 155.191C17.877 155.809 17.1992 156.117 16.2773 156.117C15.3672 156.117 14.6934 155.816 14.2559 155.215C13.8184 154.609 13.5918 153.707 13.5762 152.508V151.061C13.5762 149.807 13.793 148.875 14.2266 148.266C14.6602 147.656 15.3398 147.352 16.2656 147.352C17.1836 147.352 17.8594 147.646 18.293 148.236C18.7266 148.822 18.9492 149.729 18.9609 150.955V152.361ZM17.877 150.879C17.877 149.961 17.748 149.293 17.4902 148.875C17.2324 148.453 16.8242 148.242 16.2656 148.242C15.7109 148.242 15.3066 148.451 15.0527 148.869C14.7988 149.287 14.668 149.93 14.6602 150.797V152.531C14.6602 153.453 14.793 154.135 15.0586 154.576C15.3281 155.014 15.7344 155.232 16.2773 155.232C16.8125 155.232 17.209 155.025 17.4668 154.611C17.7285 154.197 17.8652 153.545 17.877 152.654V150.879ZM25.6992 152.361C25.6992 153.631 25.4824 154.574 25.0488 155.191C24.6152 155.809 23.9375 156.117 23.0156 156.117C22.1055 156.117 21.4316 155.816 20.9941 155.215C20.5566 154.609 20.3301 153.707 20.3145 152.508V151.061C20.3145 149.807 20.5312 148.875 20.9648 148.266C21.3984 147.656 22.0781 147.352 23.0039 147.352C23.9219 147.352 24.5977 147.646 25.0312 148.236C25.4648 148.822 25.6875 149.729 25.6992 150.955V152.361ZM24.6152 150.879C24.6152 149.961 24.4863 149.293 24.2285 148.875C23.9707 148.453 23.5625 148.242 23.0039 148.242C22.4492 148.242 22.0449 148.451 21.791 148.869C21.5371 149.287 21.4062 149.93 21.3984 150.797V152.531C21.3984 153.453 21.5312 154.135 21.7969 154.576C22.0664 155.014 22.4727 155.232 23.0156 155.232C23.5508 155.232 23.9473 155.025 24.2051 154.611C24.4668 154.197 24.6035 153.545 24.6152 152.654V150.879ZM32.4375 152.361C32.4375 153.631 32.2207 154.574 31.7871 155.191C31.3535 155.809 30.6758 156.117 29.7539 156.117C28.8438 156.117 28.1699 155.816 27.7324 155.215C27.2949 154.609 27.0684 153.707 27.0527 152.508V151.061C27.0527 149.807 27.2695 148.875 27.7031 148.266C28.1367 147.656 28.8164 147.352 29.7422 147.352C30.6602 147.352 31.3359 147.646 31.7695 148.236C32.2031 148.822 32.4258 149.729 32.4375 150.955V152.361ZM31.3535 150.879C31.3535 149.961 31.2246 149.293 30.9668 148.875C30.709 148.453 30.3008 148.242 29.7422 148.242C29.1875 148.242 28.7832 148.451 28.5293 148.869C28.2754 149.287 28.1445 149.93 28.1367 150.797V152.531C28.1367 153.453 28.2695 154.135 28.5352 154.576C28.8047 155.014 29.2109 155.232 29.7539 155.232C30.2891 155.232 30.6855 155.025 30.9434 154.611C31.2051 154.197 31.3418 153.545 31.3535 152.654V150.879Z" fill="black"/>
<path d="M9.05859 132.361C9.05859 133.631 8.8418 134.574 8.4082 135.191C7.97461 135.809 7.29688 136.117 6.375 136.117C5.46484 136.117 4.79102 135.816 4.35352 135.215C3.91602 134.609 3.68945 133.707 3.67383 132.508V131.061C3.67383 129.807 3.89062 128.875 4.32422 128.266C4.75781 127.656 5.4375 127.352 6.36328 127.352C7.28125 127.352 7.95703 127.646 8.39062 128.236C8.82422 128.822 9.04688 129.729 9.05859 130.955V132.361ZM7.97461 130.879C7.97461 129.961 7.8457 129.293 7.58789 128.875C7.33008 128.453 6.92188 128.242 6.36328 128.242C5.80859 128.242 5.4043 128.451 5.15039 128.869C4.89648 129.287 4.76562 129.93 4.75781 130.797V132.531C4.75781 133.453 4.89062 134.135 5.15625 134.576C5.42578 135.014 5.83203 135.232 6.375 135.232C6.91016 135.232 7.30664 135.025 7.56445 134.611C7.82617 134.197 7.96289 133.545 7.97461 132.654V130.879ZM10.582 135.432C10.582 135.244 10.6367 135.088 10.7461 134.963C10.8594 134.838 11.0273 134.775 11.25 134.775C11.4727 134.775 11.6406 134.838 11.7539 134.963C11.8711 135.088 11.9297 135.244 11.9297 135.432C11.9297 135.611 11.8711 135.762 11.7539 135.883C11.6406 136.004 11.4727 136.064 11.25 136.064C11.0273 136.064 10.8594 136.004 10.7461 135.883C10.6367 135.762 10.582 135.611 10.582 135.432ZM18.9609 132.361C18.9609 133.631 18.7441 134.574 18.3105 135.191C17.877 135.809 17.1992 136.117 16.2773 136.117C15.3672 136.117 14.6934 135.816 14.2559 135.215C13.8184 134.609 13.5918 133.707 13.5762 132.508V131.061C13.5762 129.807 13.793 128.875 14.2266 128.266C14.6602 127.656 15.3398 127.352 16.2656 127.352C17.1836 127.352 17.8594 127.646 18.293 128.236C18.7266 128.822 18.9492 129.729 18.9609 130.955V132.361ZM17.877 130.879C17.877 129.961 17.748 129.293 17.4902 128.875C17.2324 128.453 16.8242 128.242 16.2656 128.242C15.7109 128.242 15.3066 128.451 15.0527 128.869C14.7988 129.287 14.668 129.93 14.6602 130.797V132.531C14.6602 133.453 14.793 134.135 15.0586 134.576C15.3281 135.014 15.7344 135.232 16.2773 135.232C16.8125 135.232 17.209 135.025 17.4668 134.611C17.7285 134.197 17.8652 133.545 17.877 132.654V130.879ZM25.6992 132.361C25.6992 133.631 25.4824 134.574 25.0488 135.191C24.6152 135.809 23.9375 136.117 23.0156 136.117C22.1055 136.117 21.4316 135.816 20.9941 135.215C20.5566 134.609 20.3301 133.707 20.3145 132.508V131.061C20.3145 129.807 20.5312 128.875 20.9648 128.266C21.3984 127.656 22.0781 127.352 23.0039 127.352C23.9219 127.352 24.5977 127.646 25.0312 128.236C25.4648 128.822 25.6875 129.729 25.6992 130.955V132.361ZM24.6152 130.879C24.6152 129.961 24.4863 129.293 24.2285 128.875C23.9707 128.453 23.5625 128.242 23.0039 128.242C22.4492 128.242 22.0449 128.451 21.791 128.869C21.5371 129.287 21.4062 129.93 21.3984 130.797V132.531C21.3984 133.453 21.5312 134.135 21.7969 134.576C22.0664 135.014 22.4727 135.232 23.0156 135.232C23.5508 135.232 23.9473 135.025 24.2051 134.611C24.4668 134.197 24.6035 133.545 24.6152 132.654V130.879ZM27.5859 131.723L28.0195 127.469H32.3906V128.471H28.9395L28.6816 130.797C29.0996 130.551 29.5742 130.428 30.1055 130.428C30.8828 130.428 31.5 130.686 31.957 131.201C32.4141 131.713 32.6426 132.406 32.6426 133.281C32.6426 134.16 32.4043 134.854 31.9277 135.361C31.4551 135.865 30.793 136.117 29.9414 136.117C29.1875 136.117 28.5723 135.908 28.0957 135.49C27.6191 135.072 27.3477 134.494 27.2812 133.756H28.3066C28.373 134.244 28.5469 134.613 28.8281 134.863C29.1094 135.109 29.4805 135.232 29.9414 135.232C30.4453 135.232 30.8398 135.061 31.125 134.717C31.4141 134.373 31.5586 133.898 31.5586 133.293C31.5586 132.723 31.4023 132.266 31.0898 131.922C30.7812 131.574 30.3691 131.4 29.8535 131.4C29.3809 131.4 29.0098 131.504 28.7402 131.711L28.4531 131.945L27.5859 131.723Z" fill="black"/>
<path d="M9.05859 113.361C9.05859 114.631 8.8418 115.574 8.4082 116.191C7.97461 116.809 7.29688 117.117 6.375 117.117C5.46484 117.117 4.79102 116.816 4.35352 116.215C3.91602 115.609 3.68945 114.707 3.67383 113.508V112.061C3.67383 110.807 3.89062 109.875 4.32422 109.266C4.75781 108.656 5.4375 108.352 6.36328 108.352C7.28125 108.352 7.95703 108.646 8.39062 109.236C8.82422 109.822 9.04688 110.729 9.05859 111.955V113.361ZM7.97461 111.879C7.97461 110.961 7.8457 110.293 7.58789 109.875C7.33008 109.453 6.92188 109.242 6.36328 109.242C5.80859 109.242 5.4043 109.451 5.15039 109.869C4.89648 110.287 4.76562 110.93 4.75781 111.797V113.531C4.75781 114.453 4.89062 115.135 5.15625 115.576C5.42578 116.014 5.83203 116.232 6.375 116.232C6.91016 116.232 7.30664 116.025 7.56445 115.611C7.82617 115.197 7.96289 114.545 7.97461 113.654V111.879ZM10.582 116.432C10.582 116.244 10.6367 116.088 10.7461 115.963C10.8594 115.838 11.0273 115.775 11.25 115.775C11.4727 115.775 11.6406 115.838 11.7539 115.963C11.8711 116.088 11.9297 116.244 11.9297 116.432C11.9297 116.611 11.8711 116.762 11.7539 116.883C11.6406 117.004 11.4727 117.064 11.25 117.064C11.0273 117.064 10.8594 117.004 10.7461 116.883C10.6367 116.762 10.582 116.611 10.582 116.432ZM18.9609 113.361C18.9609 114.631 18.7441 115.574 18.3105 116.191C17.877 116.809 17.1992 117.117 16.2773 117.117C15.3672 117.117 14.6934 116.816 14.2559 116.215C13.8184 115.609 13.5918 114.707 13.5762 113.508V112.061C13.5762 110.807 13.793 109.875 14.2266 109.266C14.6602 108.656 15.3398 108.352 16.2656 108.352C17.1836 108.352 17.8594 108.646 18.293 109.236C18.7266 109.822 18.9492 110.729 18.9609 111.955V113.361ZM17.877 111.879C17.877 110.961 17.748 110.293 17.4902 109.875C17.2324 109.453 16.8242 109.242 16.2656 109.242C15.7109 109.242 15.3066 109.451 15.0527 109.869C14.7988 110.287 14.668 110.93 14.6602 111.797V113.531C14.6602 114.453 14.793 115.135 15.0586 115.576C15.3281 116.014 15.7344 116.232 16.2773 116.232C16.8125 116.232 17.209 116.025 17.4668 115.611C17.7285 115.197 17.8652 114.545 17.877 113.654V111.879ZM23.9121 117H22.8223V109.775L20.6367 110.578V109.594L23.7422 108.428H23.9121V117ZM32.4375 113.361C32.4375 114.631 32.2207 115.574 31.7871 116.191C31.3535 116.809 30.6758 117.117 29.7539 117.117C28.8438 117.117 28.1699 116.816 27.7324 116.215C27.2949 115.609 27.0684 114.707 27.0527 113.508V112.061C27.0527 110.807 27.2695 109.875 27.7031 109.266C28.1367 108.656 28.8164 108.352 29.7422 108.352C30.6602 108.352 31.3359 108.646 31.7695 109.236C32.2031 109.822 32.4258 110.729 32.4375 111.955V113.361ZM31.3535 111.879C31.3535 110.961 31.2246 110.293 30.9668 109.875C30.709 109.453 30.3008 109.242 29.7422 109.242C29.1875 109.242 28.7832 109.451 28.5293 109.869C28.2754 110.287 28.1445 110.93 28.1367 111.797V113.531C28.1367 114.453 28.2695 115.135 28.5352 115.576C28.8047 116.014 29.2109 116.232 29.7539 116.232C30.2891 116.232 30.6855 116.025 30.9434 115.611C31.2051 115.197 31.3418 114.545 31.3535 113.654V111.879Z" fill="black"/>
<path d="M9.05859 94.3613C9.05859 95.6309 8.8418 96.5742 8.4082 97.1914C7.97461 97.8086 7.29688 98.1172 6.375 98.1172C5.46484 98.1172 4.79102 97.8164 4.35352 97.2148C3.91602 96.6094 3.68945 95.707 3.67383 94.5078V93.0605C3.67383 91.8066 3.89062 90.875 4.32422 90.2656C4.75781 89.6562 5.4375 89.3516 6.36328 89.3516C7.28125 89.3516 7.95703 89.6465 8.39062 90.2363C8.82422 90.8223 9.04688 91.7285 9.05859 92.9551V94.3613ZM7.97461 92.8789C7.97461 91.9609 7.8457 91.293 7.58789 90.875C7.33008 90.4531 6.92188 90.2422 6.36328 90.2422C5.80859 90.2422 5.4043 90.4512 5.15039 90.8691C4.89648 91.2871 4.76562 91.9297 4.75781 92.7969V94.5312C4.75781 95.4531 4.89062 96.1348 5.15625 96.5762C5.42578 97.0137 5.83203 97.2324 6.375 97.2324C6.91016 97.2324 7.30664 97.0254 7.56445 96.6113C7.82617 96.1973 7.96289 95.5449 7.97461 94.6543V92.8789ZM10.582 97.4316C10.582 97.2441 10.6367 97.0879 10.7461 96.9629C10.8594 96.8379 11.0273 96.7754 11.25 96.7754C11.4727 96.7754 11.6406 96.8379 11.7539 96.9629C11.8711 97.0879 11.9297 97.2441 11.9297 97.4316C11.9297 97.6113 11.8711 97.7617 11.7539 97.8828C11.6406 98.0039 11.4727 98.0645 11.25 98.0645C11.0273 98.0645 10.8594 98.0039 10.7461 97.8828C10.6367 97.7617 10.582 97.6113 10.582 97.4316ZM18.9609 94.3613C18.9609 95.6309 18.7441 96.5742 18.3105 97.1914C17.877 97.8086 17.1992 98.1172 16.2773 98.1172C15.3672 98.1172 14.6934 97.8164 14.2559 97.2148C13.8184 96.6094 13.5918 95.707 13.5762 94.5078V93.0605C13.5762 91.8066 13.793 90.875 14.2266 90.2656C14.6602 89.6562 15.3398 89.3516 16.2656 89.3516C17.1836 89.3516 17.8594 89.6465 18.293 90.2363C18.7266 90.8223 18.9492 91.7285 18.9609 92.9551V94.3613ZM17.877 92.8789C17.877 91.9609 17.748 91.293 17.4902 90.875C17.2324 90.4531 16.8242 90.2422 16.2656 90.2422C15.7109 90.2422 15.3066 90.4512 15.0527 90.8691C14.7988 91.2871 14.668 91.9297 14.6602 92.7969V94.5312C14.6602 95.4531 14.793 96.1348 15.0586 96.5762C15.3281 97.0137 15.7344 97.2324 16.2773 97.2324C16.8125 97.2324 17.209 97.0254 17.4668 96.6113C17.7285 96.1973 17.8652 95.5449 17.877 94.6543V92.8789ZM23.9121 98H22.8223V90.7754L20.6367 91.5781V90.5938L23.7422 89.4277H23.9121V98ZM27.5859 93.7227L28.0195 89.4688H32.3906V90.4707H28.9395L28.6816 92.7969C29.0996 92.5508 29.5742 92.4277 30.1055 92.4277C30.8828 92.4277 31.5 92.6855 31.957 93.2012C32.4141 93.7129 32.6426 94.4062 32.6426 95.2812C32.6426 96.1602 32.4043 96.8535 31.9277 97.3613C31.4551 97.8652 30.793 98.1172 29.9414 98.1172C29.1875 98.1172 28.5723 97.9082 28.0957 97.4902C27.6191 97.0723 27.3477 96.4941 27.2812 95.7559H28.3066C28.373 96.2441 28.5469 96.6133 28.8281 96.8633C29.1094 97.1094 29.4805 97.2324 29.9414 97.2324C30.4453 97.2324 30.8398 97.0605 31.125 96.7168C31.4141 96.373 31.5586 95.8984 31.5586 95.293C31.5586 94.7227 31.4023 94.2656 31.0898 93.9219C30.7812 93.5742 30.3691 93.4004 29.8535 93.4004C29.3809 93.4004 29.0098 93.5039 28.7402 93.7109L28.4531 93.9453L27.5859 93.7227Z" fill="black"/>
<path d="M9.05859 76.3613C9.05859 77.6309 8.8418 78.5742 8.4082 79.1914C7.97461 79.8086 7.29688 80.1172 6.375 80.1172C5.46484 80.1172 4.79102 79.8164 4.35352 79.2148C3.91602 78.6094 3.68945 77.707 3.67383 76.5078V75.0605C3.67383 73.8066 3.89062 72.875 4.32422 72.2656C4.75781 71.6562 5.4375 71.3516 6.36328 71.3516C7.28125 71.3516 7.95703 71.6465 8.39062 72.2363C8.82422 72.8223 9.04688 73.7285 9.05859 74.9551V76.3613ZM7.97461 74.8789C7.97461 73.9609 7.8457 73.293 7.58789 72.875C7.33008 72.4531 6.92188 72.2422 6.36328 72.2422C5.80859 72.2422 5.4043 72.4512 5.15039 72.8691C4.89648 73.2871 4.76562 73.9297 4.75781 74.7969V76.5312C4.75781 77.4531 4.89062 78.1348 5.15625 78.5762C5.42578 79.0137 5.83203 79.2324 6.375 79.2324C6.91016 79.2324 7.30664 79.0254 7.56445 78.6113C7.82617 78.1973 7.96289 77.5449 7.97461 76.6543V74.8789ZM10.582 79.4316C10.582 79.2441 10.6367 79.0879 10.7461 78.9629C10.8594 78.8379 11.0273 78.7754 11.25 78.7754C11.4727 78.7754 11.6406 78.8379 11.7539 78.9629C11.8711 79.0879 11.9297 79.2441 11.9297 79.4316C11.9297 79.6113 11.8711 79.7617 11.7539 79.8828C11.6406 80.0039 11.4727 80.0645 11.25 80.0645C11.0273 80.0645 10.8594 80.0039 10.7461 79.8828C10.6367 79.7617 10.582 79.6113 10.582 79.4316ZM18.9609 76.3613C18.9609 77.6309 18.7441 78.5742 18.3105 79.1914C17.877 79.8086 17.1992 80.1172 16.2773 80.1172C15.3672 80.1172 14.6934 79.8164 14.2559 79.2148C13.8184 78.6094 13.5918 77.707 13.5762 76.5078V75.0605C13.5762 73.8066 13.793 72.875 14.2266 72.2656C14.6602 71.6562 15.3398 71.3516 16.2656 71.3516C17.1836 71.3516 17.8594 71.6465 18.293 72.2363C18.7266 72.8223 18.9492 73.7285 18.9609 74.9551V76.3613ZM17.877 74.8789C17.877 73.9609 17.748 73.293 17.4902 72.875C17.2324 72.4531 16.8242 72.2422 16.2656 72.2422C15.7109 72.2422 15.3066 72.4512 15.0527 72.8691C14.7988 73.2871 14.668 73.9297 14.6602 74.7969V76.5312C14.6602 77.4531 14.793 78.1348 15.0586 78.5762C15.3281 79.0137 15.7344 79.2324 16.2773 79.2324C16.8125 79.2324 17.209 79.0254 17.4668 78.6113C17.7285 78.1973 17.8652 77.5449 17.877 76.6543V74.8789ZM25.9395 80H20.3496V79.2207L23.3027 75.9395C23.7402 75.4434 24.041 75.041 24.2051 74.7324C24.373 74.4199 24.457 74.0977 24.457 73.7656C24.457 73.3203 24.3223 72.9551 24.0527 72.6699C23.7832 72.3848 23.4238 72.2422 22.9746 72.2422C22.4355 72.2422 22.0156 72.3965 21.7148 72.7051C21.418 73.0098 21.2695 73.4355 21.2695 73.9824H20.1855C20.1855 73.1973 20.4375 72.5625 20.9414 72.0781C21.4492 71.5938 22.127 71.3516 22.9746 71.3516C23.7676 71.3516 24.3945 71.5605 24.8555 71.9785C25.3164 72.3926 25.5469 72.9453 25.5469 73.6367C25.5469 74.4766 25.0117 75.4766 23.9414 76.6367L21.6562 79.1152H25.9395V80ZM32.4375 76.3613C32.4375 77.6309 32.2207 78.5742 31.7871 79.1914C31.3535 79.8086 30.6758 80.1172 29.7539 80.1172C28.8438 80.1172 28.1699 79.8164 27.7324 79.2148C27.2949 78.6094 27.0684 77.707 27.0527 76.5078V75.0605C27.0527 73.8066 27.2695 72.875 27.7031 72.2656C28.1367 71.6562 28.8164 71.3516 29.7422 71.3516C30.6602 71.3516 31.3359 71.6465 31.7695 72.2363C32.2031 72.8223 32.4258 73.7285 32.4375 74.9551V76.3613ZM31.3535 74.8789C31.3535 73.9609 31.2246 73.293 30.9668 72.875C30.709 72.4531 30.3008 72.2422 29.7422 72.2422C29.1875 72.2422 28.7832 72.4512 28.5293 72.8691C28.2754 73.2871 28.1445 73.9297 28.1367 74.7969V76.5312C28.1367 77.4531 28.2695 78.1348 28.5352 78.5762C28.8047 79.0137 29.2109 79.2324 29.7539 79.2324C30.2891 79.2324 30.6855 79.0254 30.9434 78.6113C31.2051 78.1973 31.3418 77.5449 31.3535 76.6543V74.8789Z" fill="black"/>
<line x1="390" y1="160.5" x2="3" y2="160.5" stroke="#96ADBE" stroke-opacity="0.5"/>
<line x1="390" y1="85.5" x2="3" y2="85.5" stroke="#96ADBE" stroke-opacity="0.5"/>
<line x1="390" y1="122.5" x2="3" y2="122.5" stroke="#96ADBE" stroke-opacity="0.5"/>
<line x1="390" y1="103.5" x2="3" y2="103.5" stroke="#96ADBE" stroke-opacity="0.5"/>
<line x1="390" y1="140.5" x2="3" y2="140.5" stroke="#96ADBE" stroke-opacity="0.5"/>
<rect x="196" y="161" width="78" height="67" transform="rotate(-90 196 161)" fill="#96ADBE"/>
<rect x="303" y="161" width="70" height="67" transform="rotate(-90 303 161)" fill="#C2D1D9"/>
<rect x="91" y="161" width="38" height="61" transform="rotate(-90 91 161)" fill="#2582FF"/>
<path d="M223.043 175.825H224.099L221.338 168.202H220.183L217.411 175.825H218.467L219.083 174.12H222.427L223.043 175.825ZM222.141 173.306H219.369L220.755 169.434L222.141 173.306ZM226.534 175.836L227.645 175.825L229.493 169.654L231.275 175.825H232.397L234.619 168.158H233.541L231.858 174.637L230.098 168.158H228.976L227.128 174.659L225.456 168.158H224.389L226.534 175.836ZM240.372 173.735C240.372 170.897 236.236 172.129 236.236 170.149C236.236 169.324 236.885 168.895 237.71 168.917C238.645 168.928 239.129 169.511 239.195 170.028H240.295C240.174 168.862 239.217 168.059 237.754 168.059C236.236 168.059 235.213 168.917 235.213 170.182C235.213 173.031 239.36 171.711 239.36 173.779C239.36 174.505 238.788 175.055 237.82 175.055C236.753 175.055 236.302 174.417 236.236 173.779H235.169C235.191 175.044 236.28 175.902 237.82 175.902C239.481 175.902 240.372 174.824 240.372 173.735Z" fill="#7E8B9C"/>
<path d="M91.9424 170.302H93.9884V176.517H95.8694V170.302H97.9154V168.795H91.9424V170.302ZM98.1608 173.437C98.1608 175.373 99.3598 176.605 100.856 176.605C101.769 176.605 102.418 176.187 102.759 175.648V176.517H104.64V170.379H102.759V171.248C102.429 170.709 101.78 170.291 100.867 170.291C99.3598 170.291 98.1608 171.501 98.1608 173.437ZM102.759 173.448C102.759 174.427 102.132 174.966 101.417 174.966C100.713 174.966 100.075 174.416 100.075 173.437C100.075 172.458 100.713 171.93 101.417 171.93C102.132 171.93 102.759 172.469 102.759 173.448ZM107.557 173.668C107.557 172.612 108.074 172.304 108.965 172.304H109.482V170.313C108.657 170.313 107.986 170.753 107.557 171.402V170.379H105.676V176.517H107.557V173.668ZM109.682 173.437C109.682 175.373 110.881 176.605 112.388 176.605C113.29 176.605 113.939 176.198 114.28 175.637V176.517H116.161V168.377H114.28V171.226C113.906 170.665 113.202 170.291 112.388 170.291C110.881 170.291 109.682 171.501 109.682 173.437ZM114.28 173.448C114.28 174.427 113.653 174.966 112.938 174.966C112.234 174.966 111.596 174.416 111.596 173.437C111.596 172.458 112.234 171.93 112.938 171.93C113.653 171.93 114.28 172.469 114.28 173.448ZM117.198 176.517H119.079V170.379H117.198V176.517ZM118.144 169.741C118.804 169.741 119.255 169.29 119.255 168.729C119.255 168.157 118.804 167.706 118.144 167.706C117.473 167.706 117.022 168.157 117.022 168.729C117.022 169.29 117.473 169.741 118.144 169.741ZM119.743 173.437C119.743 175.373 120.942 176.605 122.449 176.605C123.351 176.605 124 176.176 124.341 175.637V176.506C124.341 177.54 123.78 177.914 123.065 177.914C122.416 177.914 121.954 177.617 121.833 177.155H119.974C120.139 178.618 121.327 179.542 123.153 179.542C125.276 179.542 126.222 178.145 126.222 176.506V170.379H124.341V171.248C124.011 170.698 123.351 170.291 122.449 170.291C120.942 170.291 119.743 171.501 119.743 173.437ZM124.341 173.448C124.341 174.427 123.714 174.966 122.999 174.966C122.295 174.966 121.657 174.416 121.657 173.437C121.657 172.458 122.295 171.93 122.999 171.93C123.714 171.93 124.341 172.469 124.341 173.448ZM129.139 173.668C129.139 172.612 129.656 172.304 130.547 172.304H131.064V170.313C130.239 170.313 129.568 170.753 129.139 171.402V170.379H127.258V176.517H129.139V173.668ZM131.265 173.437C131.265 175.373 132.464 176.605 133.96 176.605C134.873 176.605 135.522 176.187 135.863 175.648V176.517H137.744V170.379H135.863V171.248C135.533 170.709 134.884 170.291 133.971 170.291C132.464 170.291 131.265 171.501 131.265 173.437ZM135.863 173.448C135.863 174.427 135.236 174.966 134.521 174.966C133.817 174.966 133.179 174.416 133.179 173.437C133.179 172.458 133.817 171.93 134.521 171.93C135.236 171.93 135.863 172.469 135.863 173.448ZM138.406 173.437C138.406 175.373 139.605 176.605 141.112 176.605C142.014 176.605 142.663 176.198 143.004 175.637V176.517H144.885V168.377H143.004V171.226C142.63 170.665 141.926 170.291 141.112 170.291C139.605 170.291 138.406 171.501 138.406 173.437ZM143.004 173.448C143.004 174.427 142.377 174.966 141.662 174.966C140.958 174.966 140.32 174.416 140.32 173.437C140.32 172.458 140.958 171.93 141.662 171.93C142.377 171.93 143.004 172.469 143.004 173.448ZM148.627 171.798C149.254 171.798 149.782 172.183 149.782 172.854H147.428C147.538 172.172 148.011 171.798 148.627 171.798ZM151.564 174.482H149.562C149.408 174.812 149.111 175.076 148.583 175.076C147.978 175.076 147.483 174.702 147.417 173.899H151.674C151.696 173.712 151.707 173.525 151.707 173.349C151.707 171.479 150.442 170.291 148.649 170.291C146.823 170.291 145.547 171.501 145.547 173.448C145.547 175.395 146.845 176.605 148.649 176.605C150.178 176.605 151.267 175.681 151.564 174.482Z" fill="#2582FF"/>
<path d="M304.844 168.335C302.688 168.335 300.994 169.952 300.994 172.251C300.994 174.55 302.688 176.156 304.844 176.156C306.923 176.156 308.43 174.627 308.606 172.724V171.954H304.481V172.768H307.539C307.385 174.286 306.351 175.254 304.844 175.254C303.227 175.254 302.017 174.088 302.017 172.251C302.017 170.403 303.227 169.237 304.844 169.237C305.922 169.237 306.758 169.754 307.176 170.645H308.375C307.803 169.171 306.461 168.335 304.844 168.335ZM315.325 173.065C315.325 171.162 313.994 169.963 312.278 169.963C310.573 169.963 309.231 171.162 309.231 173.065C309.231 174.979 310.529 176.189 312.234 176.189C313.95 176.189 315.325 174.979 315.325 173.065ZM310.254 173.065C310.254 171.547 311.211 170.832 312.267 170.832C313.301 170.832 314.302 171.547 314.302 173.065C314.302 174.594 313.279 175.309 312.234 175.309C311.189 175.309 310.254 174.594 310.254 173.065ZM322.036 173.065C322.036 171.162 320.705 169.963 318.989 169.963C317.284 169.963 315.942 171.162 315.942 173.065C315.942 174.979 317.24 176.189 318.945 176.189C320.661 176.189 322.036 174.979 322.036 173.065ZM316.965 173.065C316.965 171.547 317.922 170.832 318.978 170.832C320.012 170.832 321.013 171.547 321.013 173.065C321.013 174.594 319.99 175.309 318.945 175.309C317.9 175.309 316.965 174.594 316.965 173.065ZM322.654 173.054C322.654 174.924 323.897 176.189 325.514 176.189C326.614 176.189 327.395 175.606 327.758 174.957V176.222C327.758 177.509 326.955 178.191 325.888 178.191C324.898 178.191 324.183 177.696 323.963 176.97H322.973C323.171 178.257 324.304 179.06 325.888 179.06C327.659 179.06 328.77 177.883 328.77 176.222V170.062H327.758V171.162C327.406 170.513 326.614 169.963 325.514 169.963C323.897 169.963 322.654 171.173 322.654 173.054ZM327.758 173.065C327.758 174.484 326.812 175.309 325.712 175.309C324.612 175.309 323.677 174.473 323.677 173.054C323.677 171.635 324.612 170.832 325.712 170.832C326.812 170.832 327.758 171.668 327.758 173.065ZM330.137 176.09H331.138V167.95H330.137V176.09ZM335.082 170.81C336.116 170.81 336.996 171.459 336.985 172.636H333.179C333.289 171.459 334.103 170.81 335.082 170.81ZM337.898 174.231H336.82C336.6 174.88 336.028 175.342 335.126 175.342C334.103 175.342 333.245 174.671 333.168 173.45H337.986C338.008 173.241 338.019 173.065 338.019 172.845C338.019 171.195 336.875 169.963 335.126 169.963C333.366 169.963 332.145 171.162 332.145 173.065C332.145 174.979 333.41 176.189 335.126 176.189C336.622 176.189 337.59 175.331 337.898 174.231ZM341.25 172.251C341.25 174.55 342.933 176.156 345.078 176.156C346.739 176.156 348.059 175.331 348.631 173.857H347.432C347.014 174.77 346.2 175.287 345.078 175.287C343.472 175.287 342.273 174.121 342.273 172.251C342.273 170.37 343.472 169.204 345.078 169.204C346.2 169.204 347.014 169.721 347.432 170.645H348.631C348.059 169.16 346.739 168.324 345.078 168.324C342.933 168.324 341.25 169.952 341.25 172.251ZM349.796 176.09H350.797V167.95H349.796V176.09ZM357.898 173.065C357.898 171.162 356.567 169.963 354.851 169.963C353.146 169.963 351.804 171.162 351.804 173.065C351.804 174.979 353.102 176.189 354.807 176.189C356.523 176.189 357.898 174.979 357.898 173.065ZM352.827 173.065C352.827 171.547 353.784 170.832 354.84 170.832C355.874 170.832 356.875 171.547 356.875 173.065C356.875 174.594 355.852 175.309 354.807 175.309C353.762 175.309 352.827 174.594 352.827 173.065ZM364.236 170.062H363.235V173.373C363.235 174.671 362.542 175.309 361.508 175.309C360.496 175.309 359.825 174.682 359.825 173.461V170.062H358.835V173.593C358.835 175.32 359.924 176.178 361.31 176.178C362.113 176.178 362.85 175.826 363.235 175.199V176.09H364.236V170.062ZM365.227 173.054C365.227 174.924 366.47 176.189 368.087 176.189C369.187 176.189 369.968 175.628 370.331 174.957V176.09H371.343V167.95H370.331V171.14C369.913 170.447 369.044 169.963 368.098 169.963C366.47 169.963 365.227 171.173 365.227 173.054ZM370.331 173.065C370.331 174.484 369.385 175.309 368.285 175.309C367.185 175.309 366.25 174.473 366.25 173.054C366.25 171.635 367.185 170.832 368.285 170.832C369.385 170.832 370.331 171.668 370.331 173.065Z" fill="#7E8B9C"/>
<path d="M218.195 189.323C218.195 189.056 218.12 188.845 217.97 188.688C217.824 188.529 217.573 188.382 217.218 188.249C216.864 188.116 216.558 187.984 216.3 187.854C216.043 187.72 215.822 187.569 215.636 187.399C215.454 187.227 215.311 187.025 215.207 186.794C215.106 186.563 215.055 186.288 215.055 185.969C215.055 185.419 215.231 184.968 215.583 184.616C215.934 184.265 216.401 184.06 216.984 184.001V182.956H217.765V184.016C218.341 184.097 218.792 184.338 219.118 184.738C219.443 185.135 219.606 185.651 219.606 186.286H218.195C218.195 185.896 218.114 185.604 217.951 185.412C217.791 185.217 217.576 185.119 217.306 185.119C217.039 185.119 216.833 185.196 216.686 185.349C216.54 185.498 216.466 185.707 216.466 185.974C216.466 186.221 216.538 186.42 216.681 186.569C216.825 186.719 217.09 186.872 217.477 187.028C217.868 187.185 218.188 187.333 218.439 187.473C218.69 187.609 218.901 187.766 219.074 187.941C219.246 188.114 219.378 188.312 219.469 188.537C219.561 188.758 219.606 189.017 219.606 189.313C219.606 189.867 219.434 190.316 219.089 190.661C218.743 191.006 218.268 191.21 217.663 191.271V192.243H216.886V191.276C216.219 191.205 215.701 190.969 215.334 190.568C214.969 190.165 214.787 189.629 214.787 188.962H216.198C216.198 189.349 216.289 189.647 216.471 189.855C216.657 190.061 216.922 190.163 217.267 190.163C217.554 190.163 217.78 190.088 217.946 189.938C218.112 189.785 218.195 189.58 218.195 189.323ZM225.024 188.254C225.024 189.237 224.82 189.989 224.413 190.51C224.006 191.031 223.411 191.291 222.626 191.291C221.851 191.291 221.259 191.035 220.849 190.524C220.439 190.013 220.229 189.281 220.219 188.327V187.019C220.219 186.026 220.424 185.272 220.834 184.758C221.248 184.243 221.842 183.986 222.616 183.986C223.391 183.986 223.984 184.242 224.394 184.753C224.804 185.261 225.014 185.992 225.024 186.945V188.254ZM223.613 186.818C223.613 186.229 223.531 185.801 223.368 185.534C223.209 185.264 222.958 185.129 222.616 185.129C222.284 185.129 222.039 185.257 221.879 185.515C221.723 185.769 221.64 186.167 221.63 186.711V188.439C221.63 189.019 221.708 189.45 221.864 189.733C222.024 190.013 222.278 190.153 222.626 190.153C222.971 190.153 223.22 190.018 223.373 189.748C223.526 189.478 223.606 189.064 223.613 188.508V186.818ZM225.788 190.5C225.788 190.275 225.863 190.093 226.012 189.953C226.165 189.813 226.356 189.743 226.584 189.743C226.815 189.743 227.005 189.813 227.155 189.953C227.308 190.093 227.385 190.275 227.385 190.5C227.385 190.721 227.31 190.902 227.16 191.042C227.01 191.179 226.818 191.247 226.584 191.247C226.353 191.247 226.162 191.179 226.012 191.042C225.863 190.902 225.788 190.721 225.788 190.5ZM233.027 188.254C233.027 189.237 232.823 189.989 232.416 190.51C232.009 191.031 231.414 191.291 230.629 191.291C229.855 191.291 229.262 191.035 228.852 190.524C228.442 190.013 228.232 189.281 228.222 188.327V187.019C228.222 186.026 228.427 185.272 228.837 184.758C229.251 184.243 229.845 183.986 230.619 183.986C231.394 183.986 231.987 184.242 232.397 184.753C232.807 185.261 233.017 185.992 233.027 186.945V188.254ZM231.616 186.818C231.616 186.229 231.534 185.801 231.371 185.534C231.212 185.264 230.961 185.129 230.619 185.129C230.287 185.129 230.042 185.257 229.882 185.515C229.726 185.769 229.643 186.167 229.633 186.711V188.439C229.633 189.019 229.711 189.45 229.868 189.733C230.027 190.013 230.281 190.153 230.629 190.153C230.974 190.153 231.223 190.018 231.376 189.748C231.529 189.478 231.609 189.064 231.616 188.508V186.818ZM238.532 191.193H233.659V190.227L235.959 187.775C236.275 187.43 236.507 187.129 236.657 186.872C236.81 186.615 236.887 186.371 236.887 186.14C236.887 185.824 236.807 185.576 236.647 185.397C236.488 185.215 236.26 185.124 235.964 185.124C235.645 185.124 235.393 185.235 235.207 185.456C235.025 185.674 234.934 185.962 234.934 186.32H233.518C233.518 185.887 233.62 185.492 233.825 185.134C234.033 184.776 234.326 184.496 234.704 184.294C235.082 184.089 235.51 183.986 235.988 183.986C236.721 183.986 237.289 184.162 237.692 184.514C238.099 184.865 238.303 185.362 238.303 186.003C238.303 186.354 238.212 186.713 238.029 187.077C237.847 187.442 237.534 187.867 237.092 188.352L235.476 190.056H238.532V191.193ZM242.504 191.193H241.093V185.754L239.409 186.276V185.129L242.353 184.074H242.504V191.193Z" fill="black"/>
<path d="M113.318 189.323C113.318 189.056 113.243 188.845 113.093 188.688C112.946 188.529 112.696 188.382 112.341 188.249C111.986 188.116 111.68 187.984 111.423 187.854C111.166 187.72 110.944 187.569 110.759 187.399C110.577 187.227 110.433 187.025 110.329 186.794C110.228 186.563 110.178 186.288 110.178 185.969C110.178 185.419 110.354 184.968 110.705 184.616C111.057 184.265 111.524 184.06 112.107 184.001V182.956H112.888V184.016C113.464 184.097 113.915 184.338 114.24 184.738C114.566 185.135 114.729 185.651 114.729 186.286H113.318C113.318 185.896 113.236 185.604 113.073 185.412C112.914 185.217 112.699 185.119 112.429 185.119C112.162 185.119 111.955 185.196 111.809 185.349C111.662 185.498 111.589 185.707 111.589 185.974C111.589 186.221 111.661 186.42 111.804 186.569C111.947 186.719 112.212 186.872 112.6 187.028C112.99 187.185 113.311 187.333 113.562 187.473C113.812 187.609 114.024 187.766 114.196 187.941C114.369 188.114 114.501 188.312 114.592 188.537C114.683 188.758 114.729 189.017 114.729 189.313C114.729 189.867 114.556 190.316 114.211 190.661C113.866 191.006 113.391 191.21 112.785 191.271V192.243H112.009V191.276C111.342 191.205 110.824 190.969 110.456 190.568C110.092 190.165 109.909 189.629 109.909 188.962H111.32C111.32 189.349 111.412 189.647 111.594 189.855C111.779 190.061 112.045 190.163 112.39 190.163C112.676 190.163 112.903 190.088 113.069 189.938C113.235 189.785 113.318 189.58 113.318 189.323ZM120.146 188.254C120.146 189.237 119.943 189.989 119.536 190.51C119.129 191.031 118.533 191.291 117.749 191.291C116.974 191.291 116.382 191.035 115.971 190.524C115.561 190.013 115.351 189.281 115.342 188.327V187.019C115.342 186.026 115.547 185.272 115.957 184.758C116.37 184.243 116.964 183.986 117.739 183.986C118.514 183.986 119.106 184.242 119.516 184.753C119.927 185.261 120.136 185.992 120.146 186.945V188.254ZM118.735 186.818C118.735 186.229 118.654 185.801 118.491 185.534C118.331 185.264 118.081 185.129 117.739 185.129C117.407 185.129 117.161 185.257 117.002 185.515C116.845 185.769 116.762 186.167 116.753 186.711V188.439C116.753 189.019 116.831 189.45 116.987 189.733C117.147 190.013 117.4 190.153 117.749 190.153C118.094 190.153 118.343 190.018 118.496 189.748C118.649 189.478 118.729 189.064 118.735 188.508V186.818ZM120.91 190.5C120.91 190.275 120.985 190.093 121.135 189.953C121.288 189.813 121.478 189.743 121.706 189.743C121.937 189.743 122.128 189.813 122.278 189.953C122.431 190.093 122.507 190.275 122.507 190.5C122.507 190.721 122.432 190.902 122.283 191.042C122.133 191.179 121.941 191.247 121.706 191.247C121.475 191.247 121.285 191.179 121.135 191.042C120.985 190.902 120.91 190.721 120.91 190.5ZM128.149 188.254C128.149 189.237 127.946 189.989 127.539 190.51C127.132 191.031 126.536 191.291 125.752 191.291C124.977 191.291 124.385 191.035 123.974 190.524C123.564 190.013 123.354 189.281 123.345 188.327V187.019C123.345 186.026 123.55 185.272 123.96 184.758C124.373 184.243 124.967 183.986 125.742 183.986C126.517 183.986 127.109 184.242 127.519 184.753C127.93 185.261 128.14 185.992 128.149 186.945V188.254ZM126.738 186.818C126.738 186.229 126.657 185.801 126.494 185.534C126.335 185.264 126.084 185.129 125.742 185.129C125.41 185.129 125.164 185.257 125.005 185.515C124.849 185.769 124.766 186.167 124.756 186.711V188.439C124.756 189.019 124.834 189.45 124.99 189.733C125.15 190.013 125.404 190.153 125.752 190.153C126.097 190.153 126.346 190.018 126.499 189.748C126.652 189.478 126.732 189.064 126.738 188.508V186.818ZM132.209 191.193H130.798V185.754L129.114 186.276V185.129L132.058 184.074H132.209V191.193Z" fill="black"/>
<path d="M325.594 189.012C325.594 188.745 325.519 188.533 325.369 188.377C325.223 188.218 324.972 188.071 324.617 187.938C324.263 187.804 323.957 187.672 323.699 187.542C323.442 187.409 323.221 187.257 323.035 187.088C322.853 186.916 322.71 186.714 322.606 186.483C322.505 186.252 322.454 185.976 322.454 185.657C322.454 185.107 322.63 184.656 322.982 184.305C323.333 183.953 323.8 183.748 324.383 183.69V182.645H325.164V183.704C325.74 183.786 326.191 184.027 326.517 184.427C326.842 184.824 327.005 185.34 327.005 185.975H325.594C325.594 185.584 325.513 185.293 325.35 185.101C325.19 184.906 324.976 184.808 324.705 184.808C324.438 184.808 324.232 184.884 324.085 185.037C323.939 185.187 323.865 185.395 323.865 185.662C323.865 185.91 323.937 186.108 324.08 186.258C324.224 186.408 324.489 186.561 324.876 186.717C325.267 186.873 325.587 187.021 325.838 187.161C326.089 187.298 326.3 187.454 326.473 187.63C326.645 187.803 326.777 188.001 326.868 188.226C326.96 188.447 327.005 188.706 327.005 189.002C327.005 189.556 326.833 190.005 326.488 190.35C326.142 190.695 325.667 190.898 325.062 190.96V191.932H324.285V190.965C323.618 190.893 323.101 190.657 322.733 190.257C322.368 189.853 322.186 189.318 322.186 188.651H323.597C323.597 189.038 323.688 189.336 323.87 189.544C324.056 189.749 324.321 189.852 324.666 189.852C324.953 189.852 325.179 189.777 325.345 189.627C325.511 189.474 325.594 189.269 325.594 189.012ZM332.423 187.943C332.423 188.926 332.219 189.678 331.812 190.198C331.405 190.719 330.81 190.98 330.025 190.98C329.25 190.98 328.658 190.724 328.248 190.213C327.838 189.702 327.628 188.97 327.618 188.016V186.707C327.618 185.714 327.823 184.961 328.233 184.447C328.647 183.932 329.241 183.675 330.015 183.675C330.79 183.675 331.383 183.931 331.793 184.442C332.203 184.949 332.413 185.68 332.423 186.634V187.943ZM331.012 186.507C331.012 185.918 330.93 185.49 330.767 185.223C330.608 184.953 330.357 184.818 330.015 184.818C329.683 184.818 329.438 184.946 329.278 185.203C329.122 185.457 329.039 185.856 329.029 186.4V188.128C329.029 188.708 329.107 189.139 329.263 189.422C329.423 189.702 329.677 189.842 330.025 189.842C330.37 189.842 330.619 189.707 330.772 189.437C330.925 189.167 331.005 188.753 331.012 188.197V186.507ZM333.187 190.189C333.187 189.964 333.262 189.782 333.412 189.642C333.565 189.502 333.755 189.432 333.983 189.432C334.214 189.432 334.404 189.502 334.554 189.642C334.707 189.782 334.784 189.964 334.784 190.189C334.784 190.41 334.709 190.591 334.559 190.731C334.409 190.867 334.217 190.936 333.983 190.936C333.752 190.936 333.561 190.867 333.412 190.731C333.262 190.591 333.187 190.41 333.187 190.189ZM340.426 187.943C340.426 188.926 340.222 189.678 339.815 190.198C339.408 190.719 338.813 190.98 338.028 190.98C337.254 190.98 336.661 190.724 336.251 190.213C335.841 189.702 335.631 188.97 335.621 188.016V186.707C335.621 185.714 335.826 184.961 336.236 184.447C336.65 183.932 337.244 183.675 338.019 183.675C338.793 183.675 339.386 183.931 339.796 184.442C340.206 184.949 340.416 185.68 340.426 186.634V187.943ZM339.015 186.507C339.015 185.918 338.933 185.49 338.77 185.223C338.611 184.953 338.36 184.818 338.019 184.818C337.686 184.818 337.441 184.946 337.281 185.203C337.125 185.457 337.042 185.856 337.032 186.4V188.128C337.032 188.708 337.11 189.139 337.267 189.422C337.426 189.702 337.68 189.842 338.028 189.842C338.373 189.842 338.622 189.707 338.775 189.437C338.928 189.167 339.008 188.753 339.015 188.197V186.507ZM344.486 190.882H343.075V185.443L341.39 185.965V184.818L344.335 183.763H344.486V190.882ZM351.109 185.662C351.109 186.007 351.023 186.313 350.851 186.58C350.678 186.847 350.441 187.06 350.138 187.22C350.483 187.386 350.756 187.615 350.958 187.908C351.16 188.198 351.261 188.54 351.261 188.934C351.261 189.565 351.046 190.065 350.616 190.433C350.187 190.797 349.602 190.98 348.863 190.98C348.124 190.98 347.539 190.796 347.106 190.428C346.673 190.06 346.456 189.562 346.456 188.934C346.456 188.54 346.557 188.197 346.759 187.904C346.961 187.611 347.233 187.383 347.574 187.22C347.272 187.06 347.034 186.847 346.861 186.58C346.692 186.313 346.608 186.007 346.608 185.662C346.608 185.057 346.809 184.575 347.213 184.217C347.617 183.856 348.165 183.675 348.858 183.675C349.549 183.675 350.095 183.854 350.499 184.212C350.906 184.567 351.109 185.05 351.109 185.662ZM349.845 188.831C349.845 188.522 349.755 188.275 349.576 188.089C349.397 187.904 349.156 187.811 348.854 187.811C348.554 187.811 348.315 187.904 348.136 188.089C347.957 188.271 347.867 188.519 347.867 188.831C347.867 189.134 347.955 189.378 348.131 189.564C348.307 189.749 348.551 189.842 348.863 189.842C349.169 189.842 349.409 189.753 349.581 189.573C349.757 189.394 349.845 189.147 349.845 188.831ZM349.698 185.731C349.698 185.454 349.625 185.233 349.479 185.067C349.332 184.897 349.125 184.813 348.858 184.813C348.595 184.813 348.39 184.894 348.243 185.057C348.097 185.22 348.024 185.444 348.024 185.731C348.024 186.014 348.097 186.242 348.243 186.414C348.39 186.587 348.596 186.673 348.863 186.673C349.13 186.673 349.335 186.587 349.479 186.414C349.625 186.242 349.698 186.014 349.698 185.731Z" fill="black"/>
<path d="M215.389 206.779H214.803V200.373L212.869 201.091V200.544L215.291 199.646H215.389V206.779ZM220.611 206.779H220.025V200.373L218.091 201.091V200.544L220.513 199.646H220.611V206.779ZM227.4 203.815C227.4 204.818 227.216 205.58 226.849 206.101C226.481 206.618 225.939 206.877 225.223 206.877C224.52 206.877 223.981 206.623 223.606 206.115C223.232 205.604 223.04 204.862 223.03 203.889V202.614C223.03 201.615 223.216 200.858 223.587 200.344C223.958 199.829 224.5 199.572 225.213 199.572C225.916 199.572 226.453 199.821 226.824 200.319C227.195 200.814 227.387 201.545 227.4 202.512V203.815ZM226.814 202.541C226.814 201.727 226.681 201.112 226.414 200.695C226.15 200.279 225.75 200.07 225.213 200.07C224.686 200.07 224.288 200.274 224.022 200.681C223.755 201.088 223.618 201.688 223.611 202.482V203.879C223.611 204.689 223.748 205.31 224.022 205.739C224.298 206.169 224.699 206.384 225.223 206.384C225.744 206.384 226.137 206.174 226.404 205.754C226.674 205.334 226.811 204.719 226.814 203.908V202.541ZM228.199 201.037C228.199 200.614 228.329 200.264 228.589 199.987C228.853 199.707 229.187 199.567 229.59 199.567C229.994 199.567 230.326 199.707 230.587 199.987C230.85 200.264 230.982 200.624 230.982 201.066V201.413C230.982 201.83 230.852 202.178 230.591 202.458C230.334 202.735 230.004 202.873 229.6 202.873C229.2 202.873 228.866 202.736 228.599 202.463C228.332 202.189 228.199 201.828 228.199 201.379V201.037ZM228.672 201.413C228.672 201.716 228.755 201.965 228.921 202.16C229.091 202.355 229.317 202.453 229.6 202.453C229.877 202.453 230.097 202.355 230.259 202.16C230.425 201.962 230.508 201.706 230.508 201.394V201.037C230.508 200.734 230.424 200.485 230.254 200.29C230.085 200.091 229.864 199.992 229.59 199.992C229.32 199.992 229.099 200.09 228.926 200.285C228.757 200.48 228.672 200.741 228.672 201.066V201.413ZM231.778 205.036C231.778 204.613 231.908 204.263 232.169 203.986C232.432 203.71 232.764 203.571 233.165 203.571C233.565 203.571 233.897 203.71 234.161 203.986C234.428 204.26 234.561 204.621 234.561 205.07V205.417C234.561 205.84 234.429 206.19 234.166 206.467C233.905 206.743 233.575 206.882 233.174 206.882C232.774 206.882 232.44 206.745 232.173 206.472C231.91 206.195 231.778 205.835 231.778 205.393V205.036ZM232.247 205.417C232.247 205.723 232.33 205.974 232.496 206.169C232.665 206.364 232.891 206.462 233.174 206.462C233.454 206.462 233.676 206.364 233.838 206.169C234.004 205.97 234.087 205.712 234.087 205.393V205.036C234.087 204.724 234.003 204.473 233.834 204.284C233.668 204.092 233.445 203.996 233.165 203.996C232.891 203.996 232.67 204.092 232.501 204.284C232.331 204.476 232.247 204.733 232.247 205.056V205.417ZM229.786 206.188L229.42 205.954L232.891 200.397L233.257 200.632L229.786 206.188Z" fill="black"/>
<path d="M244.171 200.447L248.412 204.449H239.93L244.171 200.447Z" fill="#FF0000"/>
<path d="M327.858 201.501C327.858 201.869 327.751 202.199 327.536 202.492C327.321 202.782 327.038 202.995 326.687 203.132C327.097 203.272 327.425 203.498 327.673 203.811C327.92 204.123 328.044 204.484 328.044 204.895C328.044 205.503 327.837 205.987 327.424 206.345C327.01 206.7 326.464 206.877 325.783 206.877C325.096 206.877 324.546 206.7 324.133 206.345C323.723 205.99 323.518 205.507 323.518 204.895C323.518 204.491 323.636 204.131 323.874 203.815C324.112 203.5 324.437 203.272 324.851 203.132C324.499 202.995 324.219 202.782 324.011 202.492C323.802 202.199 323.698 201.869 323.698 201.501C323.698 200.912 323.887 200.443 324.265 200.095C324.646 199.746 325.148 199.572 325.773 199.572C326.398 199.572 326.901 199.748 327.282 200.1C327.666 200.451 327.858 200.918 327.858 201.501ZM327.458 204.899C327.458 204.457 327.3 204.094 326.984 203.811C326.669 203.524 326.265 203.381 325.773 203.381C325.282 203.381 324.88 203.521 324.567 203.801C324.255 204.081 324.099 204.447 324.099 204.899C324.099 205.352 324.25 205.713 324.553 205.983C324.855 206.25 325.266 206.384 325.783 206.384C326.288 206.384 326.693 206.25 326.999 205.983C327.305 205.716 327.458 205.355 327.458 204.899ZM327.272 201.496C327.272 201.089 327.131 200.751 326.848 200.48C326.568 200.207 326.21 200.07 325.773 200.07C325.331 200.07 324.971 200.202 324.694 200.466C324.421 200.726 324.284 201.07 324.284 201.496C324.284 201.913 324.421 202.248 324.694 202.502C324.971 202.756 325.332 202.883 325.778 202.883C326.218 202.883 326.576 202.756 326.853 202.502C327.132 202.245 327.272 201.91 327.272 201.496ZM333.178 203.815C333.178 204.818 332.994 205.58 332.627 206.101C332.259 206.618 331.717 206.877 331.001 206.877C330.297 206.877 329.759 206.623 329.384 206.115C329.01 205.604 328.818 204.862 328.808 203.889V202.614C328.808 201.615 328.994 200.858 329.365 200.344C329.736 199.829 330.278 199.572 330.991 199.572C331.694 199.572 332.231 199.821 332.602 200.319C332.973 200.814 333.165 201.545 333.178 202.512V203.815ZM332.592 202.541C332.592 201.727 332.459 201.112 332.192 200.695C331.928 200.279 331.528 200.07 330.991 200.07C330.463 200.07 330.066 200.274 329.799 200.681C329.532 201.088 329.396 201.688 329.389 202.482V203.879C329.389 204.689 329.526 205.31 329.799 205.739C330.076 206.169 330.476 206.384 331.001 206.384C331.521 206.384 331.915 206.174 332.182 205.754C332.452 205.334 332.589 204.719 332.592 203.908V202.541ZM333.977 201.037C333.977 200.614 334.107 200.264 334.367 199.987C334.631 199.707 334.965 199.567 335.368 199.567C335.772 199.567 336.104 199.707 336.364 199.987C336.628 200.264 336.76 200.624 336.76 201.066V201.413C336.76 201.83 336.63 202.178 336.369 202.458C336.112 202.735 335.782 202.873 335.378 202.873C334.978 202.873 334.644 202.736 334.377 202.463C334.11 202.189 333.977 201.828 333.977 201.379V201.037ZM334.45 201.413C334.45 201.716 334.533 201.965 334.699 202.16C334.869 202.355 335.095 202.453 335.378 202.453C335.655 202.453 335.874 202.355 336.037 202.16C336.203 201.962 336.286 201.706 336.286 201.394V201.037C336.286 200.734 336.202 200.485 336.032 200.29C335.863 200.091 335.642 199.992 335.368 199.992C335.098 199.992 334.877 200.09 334.704 200.285C334.535 200.48 334.45 200.741 334.45 201.066V201.413ZM337.556 205.036C337.556 204.613 337.686 204.263 337.946 203.986C338.21 203.71 338.542 203.571 338.943 203.571C339.343 203.571 339.675 203.71 339.939 203.986C340.206 204.26 340.339 204.621 340.339 205.07V205.417C340.339 205.84 340.207 206.19 339.943 206.467C339.683 206.743 339.353 206.882 338.952 206.882C338.552 206.882 338.218 206.745 337.951 206.472C337.688 206.195 337.556 205.835 337.556 205.393V205.036ZM338.025 205.417C338.025 205.723 338.108 205.974 338.274 206.169C338.443 206.364 338.669 206.462 338.952 206.462C339.232 206.462 339.454 206.364 339.616 206.169C339.782 205.97 339.865 205.712 339.865 205.393V205.036C339.865 204.724 339.781 204.473 339.611 204.284C339.445 204.092 339.222 203.996 338.943 203.996C338.669 203.996 338.448 204.092 338.278 204.284C338.109 204.476 338.025 204.733 338.025 205.056V205.417ZM335.564 206.188L335.197 205.954L338.669 200.397L339.035 200.632L335.564 206.188Z" fill="black"/>
<path d="M350.317 200.447L354.558 204.449H346.076L350.317 200.447Z" fill="#FF0000"/>
</svg>
