<svg width="27" height="27" viewBox="0 0 27 27" fill="none" xmlns="http://www.w3.org/2000/svg">
<path fill-rule="evenodd" clip-rule="evenodd" d="M0.980153 24.4765L8.4096 15.3067L1.23032 15.2099C0.543456 15.2006 -0.00724415 14.5088 7.20621e-05 13.6648C0.00380211 13.2725 0.129933 12.8968 0.352578 12.6156L10.9937 0.462528C11.2278 0.166816 11.5493 0 11.8851 0H25.7562C26.4432 0 27 0.684298 27 1.52842C27 1.99326 26.8279 2.43284 26.5323 2.72286L16.2771 11.4986H19.9002C20.5871 11.4986 21.1439 12.1829 21.1439 13.027C21.1439 13.5534 20.9236 14.0427 20.5606 14.3222L2.58481 26.7665C2.00276 27.2147 1.23521 26.9983 0.870449 26.283C0.581409 25.7162 0.625856 24.9843 0.980153 24.4765Z" fill="url(#paint0_linear)"/>
<defs>
<linearGradient id="paint0_linear" x1="0" y1="2.71668" x2="0" y2="27" gradientUnits="userSpaceOnUse">
<stop stop-color="#FFDC00"/>
<stop offset="1" stop-color="#FF8500"/>
</linearGradient>
</defs>
</svg>
