<svg width="388" height="142" viewBox="0 0 388 142" fill="none" xmlns="http://www.w3.org/2000/svg">
<path d="M6.05859 83.3613C6.05859 84.6309 5.8418 85.5742 5.4082 86.1914C4.97461 86.8086 4.29688 87.1172 3.375 87.1172C2.46484 87.1172 1.79102 86.8164 1.35352 86.2148C0.916016 85.6094 0.689453 84.707 0.673828 83.5078V82.0605C0.673828 80.8066 0.890625 79.875 1.32422 79.2656C1.75781 78.6562 2.4375 78.3516 3.36328 78.3516C4.28125 78.3516 4.95703 78.6465 5.39062 79.2363C5.82422 79.8223 6.04688 80.7285 6.05859 81.9551V83.3613ZM4.97461 81.8789C4.97461 80.9609 4.8457 80.293 4.58789 79.875C4.33008 79.4531 3.92188 79.2422 3.36328 79.2422C2.80859 79.2422 2.4043 79.4512 2.15039 79.8691C1.89648 80.2871 1.76562 80.9297 1.75781 81.7969V83.5312C1.75781 84.4531 1.89062 85.1348 2.15625 85.5762C2.42578 86.0137 2.83203 86.2324 3.375 86.2324C3.91016 86.2324 4.30664 86.0254 4.56445 85.6113C4.82617 85.1973 4.96289 84.5449 4.97461 83.6543V81.8789ZM7.58203 86.4316C7.58203 86.2441 7.63672 86.0879 7.74609 85.9629C7.85938 85.8379 8.02734 85.7754 8.25 85.7754C8.47266 85.7754 8.64062 85.8379 8.75391 85.9629C8.87109 86.0879 8.92969 86.2441 8.92969 86.4316C8.92969 86.6113 8.87109 86.7617 8.75391 86.8828C8.64062 87.0039 8.47266 87.0645 8.25 87.0645C8.02734 87.0645 7.85938 87.0039 7.74609 86.8828C7.63672 86.7617 7.58203 86.6113 7.58203 86.4316ZM15.9609 83.3613C15.9609 84.6309 15.7441 85.5742 15.3105 86.1914C14.877 86.8086 14.1992 87.1172 13.2773 87.1172C12.3672 87.1172 11.6934 86.8164 11.2559 86.2148C10.8184 85.6094 10.5918 84.707 10.5762 83.5078V82.0605C10.5762 80.8066 10.793 79.875 11.2266 79.2656C11.6602 78.6562 12.3398 78.3516 13.2656 78.3516C14.1836 78.3516 14.8594 78.6465 15.293 79.2363C15.7266 79.8223 15.9492 80.7285 15.9609 81.9551V83.3613ZM14.877 81.8789C14.877 80.9609 14.748 80.293 14.4902 79.875C14.2324 79.4531 13.8242 79.2422 13.2656 79.2422C12.7109 79.2422 12.3066 79.4512 12.0527 79.8691C11.7988 80.2871 11.668 80.9297 11.6602 81.7969V83.5312C11.6602 84.4531 11.793 85.1348 12.0586 85.5762C12.3281 86.0137 12.7344 86.2324 13.2773 86.2324C13.8125 86.2324 14.209 86.0254 14.4668 85.6113C14.7285 85.1973 14.8652 84.5449 14.877 83.6543V81.8789ZM22.6992 83.3613C22.6992 84.6309 22.4824 85.5742 22.0488 86.1914C21.6152 86.8086 20.9375 87.1172 20.0156 87.1172C19.1055 87.1172 18.4316 86.8164 17.9941 86.2148C17.5566 85.6094 17.3301 84.707 17.3145 83.5078V82.0605C17.3145 80.8066 17.5312 79.875 17.9648 79.2656C18.3984 78.6562 19.0781 78.3516 20.0039 78.3516C20.9219 78.3516 21.5977 78.6465 22.0312 79.2363C22.4648 79.8223 22.6875 80.7285 22.6992 81.9551V83.3613ZM21.6152 81.8789C21.6152 80.9609 21.4863 80.293 21.2285 79.875C20.9707 79.4531 20.5625 79.2422 20.0039 79.2422C19.4492 79.2422 19.0449 79.4512 18.791 79.8691C18.5371 80.2871 18.4062 80.9297 18.3984 81.7969V83.5312C18.3984 84.4531 18.5312 85.1348 18.7969 85.5762C19.0664 86.0137 19.4727 86.2324 20.0156 86.2324C20.5508 86.2324 20.9473 86.0254 21.2051 85.6113C21.4668 85.1973 21.6035 84.5449 21.6152 83.6543V81.8789ZM29.4375 83.3613C29.4375 84.6309 29.2207 85.5742 28.7871 86.1914C28.3535 86.8086 27.6758 87.1172 26.7539 87.1172C25.8438 87.1172 25.1699 86.8164 24.7324 86.2148C24.2949 85.6094 24.0684 84.707 24.0527 83.5078V82.0605C24.0527 80.8066 24.2695 79.875 24.7031 79.2656C25.1367 78.6562 25.8164 78.3516 26.7422 78.3516C27.6602 78.3516 28.3359 78.6465 28.7695 79.2363C29.2031 79.8223 29.4258 80.7285 29.4375 81.9551V83.3613ZM28.3535 81.8789C28.3535 80.9609 28.2246 80.293 27.9668 79.875C27.709 79.4531 27.3008 79.2422 26.7422 79.2422C26.1875 79.2422 25.7832 79.4512 25.5293 79.8691C25.2754 80.2871 25.1445 80.9297 25.1367 81.7969V83.5312C25.1367 84.4531 25.2695 85.1348 25.5352 85.5762C25.8047 86.0137 26.2109 86.2324 26.7539 86.2324C27.2891 86.2324 27.6855 86.0254 27.9434 85.6113C28.2051 85.1973 28.3418 84.5449 28.3535 83.6543V81.8789Z" fill="black"/>
<path d="M6.05859 63.3613C6.05859 64.6309 5.8418 65.5742 5.4082 66.1914C4.97461 66.8086 4.29688 67.1172 3.375 67.1172C2.46484 67.1172 1.79102 66.8164 1.35352 66.2148C0.916016 65.6094 0.689453 64.707 0.673828 63.5078V62.0605C0.673828 60.8066 0.890625 59.875 1.32422 59.2656C1.75781 58.6562 2.4375 58.3516 3.36328 58.3516C4.28125 58.3516 4.95703 58.6465 5.39062 59.2363C5.82422 59.8223 6.04688 60.7285 6.05859 61.9551V63.3613ZM4.97461 61.8789C4.97461 60.9609 4.8457 60.293 4.58789 59.875C4.33008 59.4531 3.92188 59.2422 3.36328 59.2422C2.80859 59.2422 2.4043 59.4512 2.15039 59.8691C1.89648 60.2871 1.76562 60.9297 1.75781 61.7969V63.5312C1.75781 64.4531 1.89062 65.1348 2.15625 65.5762C2.42578 66.0137 2.83203 66.2324 3.375 66.2324C3.91016 66.2324 4.30664 66.0254 4.56445 65.6113C4.82617 65.1973 4.96289 64.5449 4.97461 63.6543V61.8789ZM7.58203 66.4316C7.58203 66.2441 7.63672 66.0879 7.74609 65.9629C7.85938 65.8379 8.02734 65.7754 8.25 65.7754C8.47266 65.7754 8.64062 65.8379 8.75391 65.9629C8.87109 66.0879 8.92969 66.2441 8.92969 66.4316C8.92969 66.6113 8.87109 66.7617 8.75391 66.8828C8.64062 67.0039 8.47266 67.0645 8.25 67.0645C8.02734 67.0645 7.85938 67.0039 7.74609 66.8828C7.63672 66.7617 7.58203 66.6113 7.58203 66.4316ZM15.9609 63.3613C15.9609 64.6309 15.7441 65.5742 15.3105 66.1914C14.877 66.8086 14.1992 67.1172 13.2773 67.1172C12.3672 67.1172 11.6934 66.8164 11.2559 66.2148C10.8184 65.6094 10.5918 64.707 10.5762 63.5078V62.0605C10.5762 60.8066 10.793 59.875 11.2266 59.2656C11.6602 58.6562 12.3398 58.3516 13.2656 58.3516C14.1836 58.3516 14.8594 58.6465 15.293 59.2363C15.7266 59.8223 15.9492 60.7285 15.9609 61.9551V63.3613ZM14.877 61.8789C14.877 60.9609 14.748 60.293 14.4902 59.875C14.2324 59.4531 13.8242 59.2422 13.2656 59.2422C12.7109 59.2422 12.3066 59.4512 12.0527 59.8691C11.7988 60.2871 11.668 60.9297 11.6602 61.7969V63.5312C11.6602 64.4531 11.793 65.1348 12.0586 65.5762C12.3281 66.0137 12.7344 66.2324 13.2773 66.2324C13.8125 66.2324 14.209 66.0254 14.4668 65.6113C14.7285 65.1973 14.8652 64.5449 14.877 63.6543V61.8789ZM22.6992 63.3613C22.6992 64.6309 22.4824 65.5742 22.0488 66.1914C21.6152 66.8086 20.9375 67.1172 20.0156 67.1172C19.1055 67.1172 18.4316 66.8164 17.9941 66.2148C17.5566 65.6094 17.3301 64.707 17.3145 63.5078V62.0605C17.3145 60.8066 17.5312 59.875 17.9648 59.2656C18.3984 58.6562 19.0781 58.3516 20.0039 58.3516C20.9219 58.3516 21.5977 58.6465 22.0312 59.2363C22.4648 59.8223 22.6875 60.7285 22.6992 61.9551V63.3613ZM21.6152 61.8789C21.6152 60.9609 21.4863 60.293 21.2285 59.875C20.9707 59.4531 20.5625 59.2422 20.0039 59.2422C19.4492 59.2422 19.0449 59.4512 18.791 59.8691C18.5371 60.2871 18.4062 60.9297 18.3984 61.7969V63.5312C18.3984 64.4531 18.5312 65.1348 18.7969 65.5762C19.0664 66.0137 19.4727 66.2324 20.0156 66.2324C20.5508 66.2324 20.9473 66.0254 21.2051 65.6113C21.4668 65.1973 21.6035 64.5449 21.6152 63.6543V61.8789ZM24.5859 62.7227L25.0195 58.4688H29.3906V59.4707H25.9395L25.6816 61.7969C26.0996 61.5508 26.5742 61.4277 27.1055 61.4277C27.8828 61.4277 28.5 61.6855 28.957 62.2012C29.4141 62.7129 29.6426 63.4062 29.6426 64.2812C29.6426 65.1602 29.4043 65.8535 28.9277 66.3613C28.4551 66.8652 27.793 67.1172 26.9414 67.1172C26.1875 67.1172 25.5723 66.9082 25.0957 66.4902C24.6191 66.0723 24.3477 65.4941 24.2812 64.7559H25.3066C25.373 65.2441 25.5469 65.6133 25.8281 65.8633C26.1094 66.1094 26.4805 66.2324 26.9414 66.2324C27.4453 66.2324 27.8398 66.0605 28.125 65.7168C28.4141 65.373 28.5586 64.8984 28.5586 64.293C28.5586 63.7227 28.4023 63.2656 28.0898 62.9219C27.7812 62.5742 27.3691 62.4004 26.8535 62.4004C26.3809 62.4004 26.0098 62.5039 25.7402 62.7109L25.4531 62.9453L24.5859 62.7227Z" fill="black"/>
<path d="M6.05859 44.3613C6.05859 45.6309 5.8418 46.5742 5.4082 47.1914C4.97461 47.8086 4.29688 48.1172 3.375 48.1172C2.46484 48.1172 1.79102 47.8164 1.35352 47.2148C0.916016 46.6094 0.689453 45.707 0.673828 44.5078V43.0605C0.673828 41.8066 0.890625 40.875 1.32422 40.2656C1.75781 39.6562 2.4375 39.3516 3.36328 39.3516C4.28125 39.3516 4.95703 39.6465 5.39062 40.2363C5.82422 40.8223 6.04688 41.7285 6.05859 42.9551V44.3613ZM4.97461 42.8789C4.97461 41.9609 4.8457 41.293 4.58789 40.875C4.33008 40.4531 3.92188 40.2422 3.36328 40.2422C2.80859 40.2422 2.4043 40.4512 2.15039 40.8691C1.89648 41.2871 1.76562 41.9297 1.75781 42.7969V44.5312C1.75781 45.4531 1.89062 46.1348 2.15625 46.5762C2.42578 47.0137 2.83203 47.2324 3.375 47.2324C3.91016 47.2324 4.30664 47.0254 4.56445 46.6113C4.82617 46.1973 4.96289 45.5449 4.97461 44.6543V42.8789ZM7.58203 47.4316C7.58203 47.2441 7.63672 47.0879 7.74609 46.9629C7.85938 46.8379 8.02734 46.7754 8.25 46.7754C8.47266 46.7754 8.64062 46.8379 8.75391 46.9629C8.87109 47.0879 8.92969 47.2441 8.92969 47.4316C8.92969 47.6113 8.87109 47.7617 8.75391 47.8828C8.64062 48.0039 8.47266 48.0645 8.25 48.0645C8.02734 48.0645 7.85938 48.0039 7.74609 47.8828C7.63672 47.7617 7.58203 47.6113 7.58203 47.4316ZM15.9609 44.3613C15.9609 45.6309 15.7441 46.5742 15.3105 47.1914C14.877 47.8086 14.1992 48.1172 13.2773 48.1172C12.3672 48.1172 11.6934 47.8164 11.2559 47.2148C10.8184 46.6094 10.5918 45.707 10.5762 44.5078V43.0605C10.5762 41.8066 10.793 40.875 11.2266 40.2656C11.6602 39.6562 12.3398 39.3516 13.2656 39.3516C14.1836 39.3516 14.8594 39.6465 15.293 40.2363C15.7266 40.8223 15.9492 41.7285 15.9609 42.9551V44.3613ZM14.877 42.8789C14.877 41.9609 14.748 41.293 14.4902 40.875C14.2324 40.4531 13.8242 40.2422 13.2656 40.2422C12.7109 40.2422 12.3066 40.4512 12.0527 40.8691C11.7988 41.2871 11.668 41.9297 11.6602 42.7969V44.5312C11.6602 45.4531 11.793 46.1348 12.0586 46.5762C12.3281 47.0137 12.7344 47.2324 13.2773 47.2324C13.8125 47.2324 14.209 47.0254 14.4668 46.6113C14.7285 46.1973 14.8652 45.5449 14.877 44.6543V42.8789ZM20.9121 48H19.8223V40.7754L17.6367 41.5781V40.5938L20.7422 39.4277H20.9121V48ZM29.4375 44.3613C29.4375 45.6309 29.2207 46.5742 28.7871 47.1914C28.3535 47.8086 27.6758 48.1172 26.7539 48.1172C25.8438 48.1172 25.1699 47.8164 24.7324 47.2148C24.2949 46.6094 24.0684 45.707 24.0527 44.5078V43.0605C24.0527 41.8066 24.2695 40.875 24.7031 40.2656C25.1367 39.6562 25.8164 39.3516 26.7422 39.3516C27.6602 39.3516 28.3359 39.6465 28.7695 40.2363C29.2031 40.8223 29.4258 41.7285 29.4375 42.9551V44.3613ZM28.3535 42.8789C28.3535 41.9609 28.2246 41.293 27.9668 40.875C27.709 40.4531 27.3008 40.2422 26.7422 40.2422C26.1875 40.2422 25.7832 40.4512 25.5293 40.8691C25.2754 41.2871 25.1445 41.9297 25.1367 42.7969V44.5312C25.1367 45.4531 25.2695 46.1348 25.5352 46.5762C25.8047 47.0137 26.2109 47.2324 26.7539 47.2324C27.2891 47.2324 27.6855 47.0254 27.9434 46.6113C28.2051 46.1973 28.3418 45.5449 28.3535 44.6543V42.8789Z" fill="black"/>
<path d="M6.05859 25.3613C6.05859 26.6309 5.8418 27.5742 5.4082 28.1914C4.97461 28.8086 4.29688 29.1172 3.375 29.1172C2.46484 29.1172 1.79102 28.8164 1.35352 28.2148C0.916016 27.6094 0.689453 26.707 0.673828 25.5078V24.0605C0.673828 22.8066 0.890625 21.875 1.32422 21.2656C1.75781 20.6562 2.4375 20.3516 3.36328 20.3516C4.28125 20.3516 4.95703 20.6465 5.39062 21.2363C5.82422 21.8223 6.04688 22.7285 6.05859 23.9551V25.3613ZM4.97461 23.8789C4.97461 22.9609 4.8457 22.293 4.58789 21.875C4.33008 21.4531 3.92188 21.2422 3.36328 21.2422C2.80859 21.2422 2.4043 21.4512 2.15039 21.8691C1.89648 22.2871 1.76562 22.9297 1.75781 23.7969V25.5312C1.75781 26.4531 1.89062 27.1348 2.15625 27.5762C2.42578 28.0137 2.83203 28.2324 3.375 28.2324C3.91016 28.2324 4.30664 28.0254 4.56445 27.6113C4.82617 27.1973 4.96289 26.5449 4.97461 25.6543V23.8789ZM7.58203 28.4316C7.58203 28.2441 7.63672 28.0879 7.74609 27.9629C7.85938 27.8379 8.02734 27.7754 8.25 27.7754C8.47266 27.7754 8.64062 27.8379 8.75391 27.9629C8.87109 28.0879 8.92969 28.2441 8.92969 28.4316C8.92969 28.6113 8.87109 28.7617 8.75391 28.8828C8.64062 29.0039 8.47266 29.0645 8.25 29.0645C8.02734 29.0645 7.85938 29.0039 7.74609 28.8828C7.63672 28.7617 7.58203 28.6113 7.58203 28.4316ZM15.9609 25.3613C15.9609 26.6309 15.7441 27.5742 15.3105 28.1914C14.877 28.8086 14.1992 29.1172 13.2773 29.1172C12.3672 29.1172 11.6934 28.8164 11.2559 28.2148C10.8184 27.6094 10.5918 26.707 10.5762 25.5078V24.0605C10.5762 22.8066 10.793 21.875 11.2266 21.2656C11.6602 20.6562 12.3398 20.3516 13.2656 20.3516C14.1836 20.3516 14.8594 20.6465 15.293 21.2363C15.7266 21.8223 15.9492 22.7285 15.9609 23.9551V25.3613ZM14.877 23.8789C14.877 22.9609 14.748 22.293 14.4902 21.875C14.2324 21.4531 13.8242 21.2422 13.2656 21.2422C12.7109 21.2422 12.3066 21.4512 12.0527 21.8691C11.7988 22.2871 11.668 22.9297 11.6602 23.7969V25.5312C11.6602 26.4531 11.793 27.1348 12.0586 27.5762C12.3281 28.0137 12.7344 28.2324 13.2773 28.2324C13.8125 28.2324 14.209 28.0254 14.4668 27.6113C14.7285 27.1973 14.8652 26.5449 14.877 25.6543V23.8789ZM20.9121 29H19.8223V21.7754L17.6367 22.5781V21.5938L20.7422 20.4277H20.9121V29ZM24.5859 24.7227L25.0195 20.4688H29.3906V21.4707H25.9395L25.6816 23.7969C26.0996 23.5508 26.5742 23.4277 27.1055 23.4277C27.8828 23.4277 28.5 23.6855 28.957 24.2012C29.4141 24.7129 29.6426 25.4062 29.6426 26.2812C29.6426 27.1602 29.4043 27.8535 28.9277 28.3613C28.4551 28.8652 27.793 29.1172 26.9414 29.1172C26.1875 29.1172 25.5723 28.9082 25.0957 28.4902C24.6191 28.0723 24.3477 27.4941 24.2812 26.7559H25.3066C25.373 27.2441 25.5469 27.6133 25.8281 27.8633C26.1094 28.1094 26.4805 28.2324 26.9414 28.2324C27.4453 28.2324 27.8398 28.0605 28.125 27.7168C28.4141 27.373 28.5586 26.8984 28.5586 26.293C28.5586 25.7227 28.4023 25.2656 28.0898 24.9219C27.7812 24.5742 27.3691 24.4004 26.8535 24.4004C26.3809 24.4004 26.0098 24.5039 25.7402 24.7109L25.4531 24.9453L24.5859 24.7227Z" fill="black"/>
<path d="M6.05859 7.36133C6.05859 8.63086 5.8418 9.57422 5.4082 10.1914C4.97461 10.8086 4.29688 11.1172 3.375 11.1172C2.46484 11.1172 1.79102 10.8164 1.35352 10.2148C0.916016 9.60938 0.689453 8.70703 0.673828 7.50781V6.06055C0.673828 4.80664 0.890625 3.875 1.32422 3.26562C1.75781 2.65625 2.4375 2.35156 3.36328 2.35156C4.28125 2.35156 4.95703 2.64648 5.39062 3.23633C5.82422 3.82227 6.04688 4.72852 6.05859 5.95508V7.36133ZM4.97461 5.87891C4.97461 4.96094 4.8457 4.29297 4.58789 3.875C4.33008 3.45312 3.92188 3.24219 3.36328 3.24219C2.80859 3.24219 2.4043 3.45117 2.15039 3.86914C1.89648 4.28711 1.76562 4.92969 1.75781 5.79688V7.53125C1.75781 8.45312 1.89062 9.13477 2.15625 9.57617C2.42578 10.0137 2.83203 10.2324 3.375 10.2324C3.91016 10.2324 4.30664 10.0254 4.56445 9.61133C4.82617 9.19727 4.96289 8.54492 4.97461 7.6543V5.87891ZM7.58203 10.4316C7.58203 10.2441 7.63672 10.0879 7.74609 9.96289C7.85938 9.83789 8.02734 9.77539 8.25 9.77539C8.47266 9.77539 8.64062 9.83789 8.75391 9.96289C8.87109 10.0879 8.92969 10.2441 8.92969 10.4316C8.92969 10.6113 8.87109 10.7617 8.75391 10.8828C8.64062 11.0039 8.47266 11.0645 8.25 11.0645C8.02734 11.0645 7.85938 11.0039 7.74609 10.8828C7.63672 10.7617 7.58203 10.6113 7.58203 10.4316ZM15.9609 7.36133C15.9609 8.63086 15.7441 9.57422 15.3105 10.1914C14.877 10.8086 14.1992 11.1172 13.2773 11.1172C12.3672 11.1172 11.6934 10.8164 11.2559 10.2148C10.8184 9.60938 10.5918 8.70703 10.5762 7.50781V6.06055C10.5762 4.80664 10.793 3.875 11.2266 3.26562C11.6602 2.65625 12.3398 2.35156 13.2656 2.35156C14.1836 2.35156 14.8594 2.64648 15.293 3.23633C15.7266 3.82227 15.9492 4.72852 15.9609 5.95508V7.36133ZM14.877 5.87891C14.877 4.96094 14.748 4.29297 14.4902 3.875C14.2324 3.45312 13.8242 3.24219 13.2656 3.24219C12.7109 3.24219 12.3066 3.45117 12.0527 3.86914C11.7988 4.28711 11.668 4.92969 11.6602 5.79688V7.53125C11.6602 8.45312 11.793 9.13477 12.0586 9.57617C12.3281 10.0137 12.7344 10.2324 13.2773 10.2324C13.8125 10.2324 14.209 10.0254 14.4668 9.61133C14.7285 9.19727 14.8652 8.54492 14.877 7.6543V5.87891ZM22.9395 11H17.3496V10.2207L20.3027 6.93945C20.7402 6.44336 21.041 6.04102 21.2051 5.73242C21.373 5.41992 21.457 5.09766 21.457 4.76562C21.457 4.32031 21.3223 3.95508 21.0527 3.66992C20.7832 3.38477 20.4238 3.24219 19.9746 3.24219C19.4355 3.24219 19.0156 3.39648 18.7148 3.70508C18.418 4.00977 18.2695 4.43555 18.2695 4.98242H17.1855C17.1855 4.19727 17.4375 3.5625 17.9414 3.07812C18.4492 2.59375 19.127 2.35156 19.9746 2.35156C20.7676 2.35156 21.3945 2.56055 21.8555 2.97852C22.3164 3.39258 22.5469 3.94531 22.5469 4.63672C22.5469 5.47656 22.0117 6.47656 20.9414 7.63672L18.6562 10.1152H22.9395V11ZM29.4375 7.36133C29.4375 8.63086 29.2207 9.57422 28.7871 10.1914C28.3535 10.8086 27.6758 11.1172 26.7539 11.1172C25.8438 11.1172 25.1699 10.8164 24.7324 10.2148C24.2949 9.60938 24.0684 8.70703 24.0527 7.50781V6.06055C24.0527 4.80664 24.2695 3.875 24.7031 3.26562C25.1367 2.65625 25.8164 2.35156 26.7422 2.35156C27.6602 2.35156 28.3359 2.64648 28.7695 3.23633C29.2031 3.82227 29.4258 4.72852 29.4375 5.95508V7.36133ZM28.3535 5.87891C28.3535 4.96094 28.2246 4.29297 27.9668 3.875C27.709 3.45312 27.3008 3.24219 26.7422 3.24219C26.1875 3.24219 25.7832 3.45117 25.5293 3.86914C25.2754 4.28711 25.1445 4.92969 25.1367 5.79688V7.53125C25.1367 8.45312 25.2695 9.13477 25.5352 9.57617C25.8047 10.0137 26.2109 10.2324 26.7539 10.2324C27.2891 10.2324 27.6855 10.0254 27.9434 9.61133C28.2051 9.19727 28.3418 8.54492 28.3535 7.6543V5.87891Z" fill="black"/>
<line x1="387" y1="91.5" x2="6.5543e-08" y2="91.5" stroke="#96ADBE" stroke-opacity="0.5"/>
<line x1="387" y1="16.5" x2="8.3072e-08" y2="16.5" stroke="#96ADBE" stroke-opacity="0.5"/>
<line x1="387" y1="53.5" x2="8.3072e-08" y2="53.5" stroke="#96ADBE" stroke-opacity="0.5"/>
<line x1="387" y1="34.5" x2="8.21171e-08" y2="34.5" stroke="#96ADBE" stroke-opacity="0.5"/>
<line x1="387" y1="71.5" x2="8.21171e-08" y2="71.5" stroke="#96ADBE" stroke-opacity="0.5"/>
<rect x="193" y="91.9998" width="78" height="67" transform="rotate(-90 193 91.9998)" fill="#96ADBE"/>
<rect x="300" y="92" width="70" height="67" transform="rotate(-90 300 92)" fill="#C2D1D9"/>
<rect x="88" y="92" width="38" height="61" transform="rotate(-90 88 92)" fill="#2582FF"/>
<path d="M220.043 106.825H221.099L218.338 99.2024H217.183L214.411 106.825H215.467L216.083 105.12H219.427L220.043 106.825ZM219.141 104.306H216.369L217.755 100.434L219.141 104.306ZM223.534 106.836L224.645 106.825L226.493 100.654L228.275 106.825H229.397L231.619 99.1584H230.541L228.858 105.637L227.098 99.1584H225.976L224.128 105.659L222.456 99.1584H221.389L223.534 106.836ZM237.372 104.735C237.372 101.897 233.236 103.129 233.236 101.149C233.236 100.324 233.885 99.8954 234.71 99.9174C235.645 99.9284 236.129 100.511 236.195 101.028H237.295C237.174 99.8624 236.217 99.0594 234.754 99.0594C233.236 99.0594 232.213 99.9174 232.213 101.182C232.213 104.031 236.36 102.711 236.36 104.779C236.36 105.505 235.788 106.055 234.82 106.055C233.753 106.055 233.302 105.417 233.236 104.779H232.169C232.191 106.044 233.28 106.902 234.82 106.902C236.481 106.902 237.372 105.824 237.372 104.735Z" fill="#7E8B9C"/>
<path d="M88.9424 101.302H90.9884V107.517H92.8694V101.302H94.9154V99.7953H88.9424V101.302ZM95.1608 104.437C95.1608 106.373 96.3598 107.605 97.8558 107.605C98.7688 107.605 99.4178 107.187 99.7588 106.648V107.517H101.64V101.379H99.7588V102.248C99.4288 101.709 98.7798 101.291 97.8668 101.291C96.3598 101.291 95.1608 102.501 95.1608 104.437ZM99.7588 104.448C99.7588 105.427 99.1318 105.966 98.4168 105.966C97.7128 105.966 97.0748 105.416 97.0748 104.437C97.0748 103.458 97.7128 102.93 98.4168 102.93C99.1318 102.93 99.7588 103.469 99.7588 104.448ZM104.557 104.668C104.557 103.612 105.074 103.304 105.965 103.304H106.482V101.313C105.657 101.313 104.986 101.753 104.557 102.402V101.379H102.676V107.517H104.557V104.668ZM106.682 104.437C106.682 106.373 107.881 107.605 109.388 107.605C110.29 107.605 110.939 107.198 111.28 106.637V107.517H113.161V99.3773H111.28V102.226C110.906 101.665 110.202 101.291 109.388 101.291C107.881 101.291 106.682 102.501 106.682 104.437ZM111.28 104.448C111.28 105.427 110.653 105.966 109.938 105.966C109.234 105.966 108.596 105.416 108.596 104.437C108.596 103.458 109.234 102.93 109.938 102.93C110.653 102.93 111.28 103.469 111.28 104.448ZM114.198 107.517H116.079V101.379H114.198V107.517ZM115.144 100.741C115.804 100.741 116.255 100.29 116.255 99.7293C116.255 99.1573 115.804 98.7063 115.144 98.7063C114.473 98.7063 114.022 99.1573 114.022 99.7293C114.022 100.29 114.473 100.741 115.144 100.741ZM116.743 104.437C116.743 106.373 117.942 107.605 119.449 107.605C120.351 107.605 121 107.176 121.341 106.637V107.506C121.341 108.54 120.78 108.914 120.065 108.914C119.416 108.914 118.954 108.617 118.833 108.155H116.974C117.139 109.618 118.327 110.542 120.153 110.542C122.276 110.542 123.222 109.145 123.222 107.506V101.379H121.341V102.248C121.011 101.698 120.351 101.291 119.449 101.291C117.942 101.291 116.743 102.501 116.743 104.437ZM121.341 104.448C121.341 105.427 120.714 105.966 119.999 105.966C119.295 105.966 118.657 105.416 118.657 104.437C118.657 103.458 119.295 102.93 119.999 102.93C120.714 102.93 121.341 103.469 121.341 104.448ZM126.139 104.668C126.139 103.612 126.656 103.304 127.547 103.304H128.064V101.313C127.239 101.313 126.568 101.753 126.139 102.402V101.379H124.258V107.517H126.139V104.668ZM128.265 104.437C128.265 106.373 129.464 107.605 130.96 107.605C131.873 107.605 132.522 107.187 132.863 106.648V107.517H134.744V101.379H132.863V102.248C132.533 101.709 131.884 101.291 130.971 101.291C129.464 101.291 128.265 102.501 128.265 104.437ZM132.863 104.448C132.863 105.427 132.236 105.966 131.521 105.966C130.817 105.966 130.179 105.416 130.179 104.437C130.179 103.458 130.817 102.93 131.521 102.93C132.236 102.93 132.863 103.469 132.863 104.448ZM135.406 104.437C135.406 106.373 136.605 107.605 138.112 107.605C139.014 107.605 139.663 107.198 140.004 106.637V107.517H141.885V99.3773H140.004V102.226C139.63 101.665 138.926 101.291 138.112 101.291C136.605 101.291 135.406 102.501 135.406 104.437ZM140.004 104.448C140.004 105.427 139.377 105.966 138.662 105.966C137.958 105.966 137.32 105.416 137.32 104.437C137.32 103.458 137.958 102.93 138.662 102.93C139.377 102.93 140.004 103.469 140.004 104.448ZM145.627 102.798C146.254 102.798 146.782 103.183 146.782 103.854H144.428C144.538 103.172 145.011 102.798 145.627 102.798ZM148.564 105.482H146.562C146.408 105.812 146.111 106.076 145.583 106.076C144.978 106.076 144.483 105.702 144.417 104.899H148.674C148.696 104.712 148.707 104.525 148.707 104.349C148.707 102.479 147.442 101.291 145.649 101.291C143.823 101.291 142.547 102.501 142.547 104.448C142.547 106.395 143.845 107.605 145.649 107.605C147.178 107.605 148.267 106.681 148.564 105.482Z" fill="#2582FF"/>
<path d="M301.844 99.3353C299.688 99.3353 297.994 100.952 297.994 103.251C297.994 105.55 299.688 107.156 301.844 107.156C303.923 107.156 305.43 105.627 305.606 103.724V102.954H301.481V103.768H304.539C304.385 105.286 303.351 106.254 301.844 106.254C300.227 106.254 299.017 105.088 299.017 103.251C299.017 101.403 300.227 100.237 301.844 100.237C302.922 100.237 303.758 100.754 304.176 101.645H305.375C304.803 100.171 303.461 99.3353 301.844 99.3353ZM312.325 104.065C312.325 102.162 310.994 100.963 309.278 100.963C307.573 100.963 306.231 102.162 306.231 104.065C306.231 105.979 307.529 107.189 309.234 107.189C310.95 107.189 312.325 105.979 312.325 104.065ZM307.254 104.065C307.254 102.547 308.211 101.832 309.267 101.832C310.301 101.832 311.302 102.547 311.302 104.065C311.302 105.594 310.279 106.309 309.234 106.309C308.189 106.309 307.254 105.594 307.254 104.065ZM319.036 104.065C319.036 102.162 317.705 100.963 315.989 100.963C314.284 100.963 312.942 102.162 312.942 104.065C312.942 105.979 314.24 107.189 315.945 107.189C317.661 107.189 319.036 105.979 319.036 104.065ZM313.965 104.065C313.965 102.547 314.922 101.832 315.978 101.832C317.012 101.832 318.013 102.547 318.013 104.065C318.013 105.594 316.99 106.309 315.945 106.309C314.9 106.309 313.965 105.594 313.965 104.065ZM319.654 104.054C319.654 105.924 320.897 107.189 322.514 107.189C323.614 107.189 324.395 106.606 324.758 105.957V107.222C324.758 108.509 323.955 109.191 322.888 109.191C321.898 109.191 321.183 108.696 320.963 107.97H319.973C320.171 109.257 321.304 110.06 322.888 110.06C324.659 110.06 325.77 108.883 325.77 107.222V101.062H324.758V102.162C324.406 101.513 323.614 100.963 322.514 100.963C320.897 100.963 319.654 102.173 319.654 104.054ZM324.758 104.065C324.758 105.484 323.812 106.309 322.712 106.309C321.612 106.309 320.677 105.473 320.677 104.054C320.677 102.635 321.612 101.832 322.712 101.832C323.812 101.832 324.758 102.668 324.758 104.065ZM327.137 107.09H328.138V98.9503H327.137V107.09ZM332.082 101.81C333.116 101.81 333.996 102.459 333.985 103.636H330.179C330.289 102.459 331.103 101.81 332.082 101.81ZM334.898 105.231H333.82C333.6 105.88 333.028 106.342 332.126 106.342C331.103 106.342 330.245 105.671 330.168 104.45H334.986C335.008 104.241 335.019 104.065 335.019 103.845C335.019 102.195 333.875 100.963 332.126 100.963C330.366 100.963 329.145 102.162 329.145 104.065C329.145 105.979 330.41 107.189 332.126 107.189C333.622 107.189 334.59 106.331 334.898 105.231ZM338.25 103.251C338.25 105.55 339.933 107.156 342.078 107.156C343.739 107.156 345.059 106.331 345.631 104.857H344.432C344.014 105.77 343.2 106.287 342.078 106.287C340.472 106.287 339.273 105.121 339.273 103.251C339.273 101.37 340.472 100.204 342.078 100.204C343.2 100.204 344.014 100.721 344.432 101.645H345.631C345.059 100.16 343.739 99.3243 342.078 99.3243C339.933 99.3243 338.25 100.952 338.25 103.251ZM346.796 107.09H347.797V98.9503H346.796V107.09ZM354.898 104.065C354.898 102.162 353.567 100.963 351.851 100.963C350.146 100.963 348.804 102.162 348.804 104.065C348.804 105.979 350.102 107.189 351.807 107.189C353.523 107.189 354.898 105.979 354.898 104.065ZM349.827 104.065C349.827 102.547 350.784 101.832 351.84 101.832C352.874 101.832 353.875 102.547 353.875 104.065C353.875 105.594 352.852 106.309 351.807 106.309C350.762 106.309 349.827 105.594 349.827 104.065ZM361.236 101.062H360.235V104.373C360.235 105.671 359.542 106.309 358.508 106.309C357.496 106.309 356.825 105.682 356.825 104.461V101.062H355.835V104.593C355.835 106.32 356.924 107.178 358.31 107.178C359.113 107.178 359.85 106.826 360.235 106.199V107.09H361.236V101.062ZM362.227 104.054C362.227 105.924 363.47 107.189 365.087 107.189C366.187 107.189 366.968 106.628 367.331 105.957V107.09H368.343V98.9503H367.331V102.14C366.913 101.447 366.044 100.963 365.098 100.963C363.47 100.963 362.227 102.173 362.227 104.054ZM367.331 104.065C367.331 105.484 366.385 106.309 365.285 106.309C364.185 106.309 363.25 105.473 363.25 104.054C363.25 102.635 364.185 101.832 365.285 101.832C366.385 101.832 367.331 102.668 367.331 104.065Z" fill="#7E8B9C"/>
<path d="M215.195 120.323C215.195 120.056 215.12 119.845 214.97 119.688C214.824 119.529 214.573 119.382 214.218 119.249C213.864 119.116 213.558 118.984 213.3 118.854C213.043 118.72 212.822 118.569 212.636 118.399C212.454 118.227 212.311 118.025 212.207 117.794C212.106 117.563 212.055 117.288 212.055 116.969C212.055 116.419 212.231 115.968 212.583 115.616C212.934 115.265 213.401 115.06 213.984 115.001V113.956H214.765V115.016C215.341 115.097 215.792 115.338 216.118 115.738C216.443 116.135 216.606 116.651 216.606 117.286H215.195C215.195 116.896 215.114 116.604 214.951 116.412C214.791 116.217 214.576 116.119 214.306 116.119C214.039 116.119 213.833 116.196 213.686 116.349C213.54 116.498 213.466 116.707 213.466 116.974C213.466 117.221 213.538 117.42 213.681 117.569C213.825 117.719 214.09 117.872 214.477 118.028C214.868 118.185 215.188 118.333 215.439 118.473C215.69 118.609 215.901 118.766 216.074 118.941C216.246 119.114 216.378 119.312 216.469 119.537C216.561 119.758 216.606 120.017 216.606 120.313C216.606 120.867 216.434 121.316 216.089 121.661C215.743 122.006 215.268 122.21 214.663 122.271V123.243H213.886V122.276C213.219 122.205 212.701 121.969 212.334 121.568C211.969 121.165 211.787 120.629 211.787 119.962H213.198C213.198 120.349 213.289 120.647 213.471 120.855C213.657 121.061 213.922 121.163 214.267 121.163C214.554 121.163 214.78 121.088 214.946 120.938C215.112 120.785 215.195 120.58 215.195 120.323ZM222.024 119.254C222.024 120.237 221.82 120.989 221.413 121.51C221.006 122.031 220.411 122.291 219.626 122.291C218.851 122.291 218.259 122.035 217.849 121.524C217.439 121.013 217.229 120.281 217.219 119.327V118.019C217.219 117.026 217.424 116.272 217.834 115.758C218.248 115.243 218.842 114.986 219.616 114.986C220.391 114.986 220.984 115.242 221.394 115.753C221.804 116.261 222.014 116.992 222.024 117.945V119.254ZM220.613 117.818C220.613 117.229 220.531 116.801 220.368 116.534C220.209 116.264 219.958 116.129 219.616 116.129C219.284 116.129 219.039 116.257 218.879 116.515C218.723 116.769 218.64 117.167 218.63 117.711V119.439C218.63 120.019 218.708 120.45 218.864 120.733C219.024 121.013 219.278 121.153 219.626 121.153C219.971 121.153 220.22 121.018 220.373 120.748C220.526 120.478 220.606 120.064 220.613 119.508V117.818ZM222.788 121.5C222.788 121.275 222.863 121.093 223.012 120.953C223.165 120.813 223.356 120.743 223.584 120.743C223.815 120.743 224.005 120.813 224.155 120.953C224.308 121.093 224.385 121.275 224.385 121.5C224.385 121.721 224.31 121.902 224.16 122.042C224.01 122.179 223.818 122.247 223.584 122.247C223.353 122.247 223.162 122.179 223.012 122.042C222.863 121.902 222.788 121.721 222.788 121.5ZM230.027 119.254C230.027 120.237 229.823 120.989 229.416 121.51C229.009 122.031 228.414 122.291 227.629 122.291C226.855 122.291 226.262 122.035 225.852 121.524C225.442 121.013 225.232 120.281 225.222 119.327V118.019C225.222 117.026 225.427 116.272 225.837 115.758C226.251 115.243 226.845 114.986 227.619 114.986C228.394 114.986 228.987 115.242 229.397 115.753C229.807 116.261 230.017 116.992 230.027 117.945V119.254ZM228.616 117.818C228.616 117.229 228.534 116.801 228.371 116.534C228.212 116.264 227.961 116.129 227.619 116.129C227.287 116.129 227.042 116.257 226.882 116.515C226.726 116.769 226.643 117.167 226.633 117.711V119.439C226.633 120.019 226.711 120.45 226.868 120.733C227.027 121.013 227.281 121.153 227.629 121.153C227.974 121.153 228.223 121.018 228.376 120.748C228.529 120.478 228.609 120.064 228.616 119.508V117.818ZM235.532 122.193H230.659V121.227L232.959 118.775C233.275 118.43 233.507 118.129 233.657 117.872C233.81 117.615 233.887 117.371 233.887 117.14C233.887 116.824 233.807 116.576 233.647 116.397C233.488 116.215 233.26 116.124 232.964 116.124C232.645 116.124 232.393 116.235 232.207 116.456C232.025 116.674 231.934 116.962 231.934 117.32H230.518C230.518 116.887 230.62 116.492 230.825 116.134C231.033 115.776 231.326 115.496 231.704 115.294C232.082 115.089 232.51 114.986 232.988 114.986C233.721 114.986 234.289 115.162 234.692 115.514C235.099 115.865 235.303 116.362 235.303 117.003C235.303 117.354 235.212 117.713 235.029 118.077C234.847 118.442 234.534 118.867 234.092 119.352L232.476 121.056H235.532V122.193ZM239.504 122.193H238.093V116.754L236.409 117.276V116.129L239.353 115.074H239.504V122.193Z" fill="black"/>
<path d="M110.318 120.323C110.318 120.056 110.243 119.845 110.093 119.688C109.946 119.529 109.696 119.382 109.341 119.249C108.986 119.116 108.68 118.984 108.423 118.854C108.166 118.72 107.944 118.569 107.759 118.399C107.577 118.227 107.433 118.025 107.329 117.794C107.228 117.563 107.178 117.288 107.178 116.969C107.178 116.419 107.354 115.968 107.705 115.616C108.057 115.265 108.524 115.06 109.107 115.001V113.956H109.888V115.016C110.464 115.097 110.915 115.338 111.24 115.738C111.566 116.135 111.729 116.651 111.729 117.286H110.318C110.318 116.896 110.236 116.604 110.073 116.412C109.914 116.217 109.699 116.119 109.429 116.119C109.162 116.119 108.955 116.196 108.809 116.349C108.662 116.498 108.589 116.707 108.589 116.974C108.589 117.221 108.661 117.42 108.804 117.569C108.947 117.719 109.212 117.872 109.6 118.028C109.99 118.185 110.311 118.333 110.562 118.473C110.812 118.609 111.024 118.766 111.196 118.941C111.369 119.114 111.501 119.312 111.592 119.537C111.683 119.758 111.729 120.017 111.729 120.313C111.729 120.867 111.556 121.316 111.211 121.661C110.866 122.006 110.391 122.21 109.785 122.271V123.243H109.009V122.276C108.342 122.205 107.824 121.969 107.456 121.568C107.092 121.165 106.909 120.629 106.909 119.962H108.32C108.32 120.349 108.412 120.647 108.594 120.855C108.779 121.061 109.045 121.163 109.39 121.163C109.676 121.163 109.903 121.088 110.069 120.938C110.235 120.785 110.318 120.58 110.318 120.323ZM117.146 119.254C117.146 120.237 116.943 120.989 116.536 121.51C116.129 122.031 115.533 122.291 114.749 122.291C113.974 122.291 113.382 122.035 112.971 121.524C112.561 121.013 112.351 120.281 112.342 119.327V118.019C112.342 117.026 112.547 116.272 112.957 115.758C113.37 115.243 113.964 114.986 114.739 114.986C115.514 114.986 116.106 115.242 116.516 115.753C116.927 116.261 117.136 116.992 117.146 117.945V119.254ZM115.735 117.818C115.735 117.229 115.654 116.801 115.491 116.534C115.331 116.264 115.081 116.129 114.739 116.129C114.407 116.129 114.161 116.257 114.002 116.515C113.845 116.769 113.762 117.167 113.753 117.711V119.439C113.753 120.019 113.831 120.45 113.987 120.733C114.147 121.013 114.4 121.153 114.749 121.153C115.094 121.153 115.343 121.018 115.496 120.748C115.649 120.478 115.729 120.064 115.735 119.508V117.818ZM117.91 121.5C117.91 121.275 117.985 121.093 118.135 120.953C118.288 120.813 118.478 120.743 118.706 120.743C118.937 120.743 119.128 120.813 119.278 120.953C119.431 121.093 119.507 121.275 119.507 121.5C119.507 121.721 119.432 121.902 119.283 122.042C119.133 122.179 118.941 122.247 118.706 122.247C118.475 122.247 118.285 122.179 118.135 122.042C117.985 121.902 117.91 121.721 117.91 121.5ZM125.149 119.254C125.149 120.237 124.946 120.989 124.539 121.51C124.132 122.031 123.536 122.291 122.752 122.291C121.977 122.291 121.385 122.035 120.974 121.524C120.564 121.013 120.354 120.281 120.345 119.327V118.019C120.345 117.026 120.55 116.272 120.96 115.758C121.373 115.243 121.967 114.986 122.742 114.986C123.517 114.986 124.109 115.242 124.519 115.753C124.93 116.261 125.14 116.992 125.149 117.945V119.254ZM123.738 117.818C123.738 117.229 123.657 116.801 123.494 116.534C123.335 116.264 123.084 116.129 122.742 116.129C122.41 116.129 122.164 116.257 122.005 116.515C121.849 116.769 121.766 117.167 121.756 117.711V119.439C121.756 120.019 121.834 120.45 121.99 120.733C122.15 121.013 122.404 121.153 122.752 121.153C123.097 121.153 123.346 121.018 123.499 120.748C123.652 120.478 123.732 120.064 123.738 119.508V117.818ZM129.209 122.193H127.798V116.754L126.114 117.276V116.129L129.058 115.074H129.209V122.193Z" fill="black"/>
<path d="M322.594 120.012C322.594 119.745 322.519 119.533 322.369 119.377C322.223 119.218 321.972 119.071 321.617 118.938C321.263 118.804 320.957 118.672 320.699 118.542C320.442 118.409 320.221 118.257 320.035 118.088C319.853 117.916 319.71 117.714 319.606 117.483C319.505 117.252 319.454 116.976 319.454 116.657C319.454 116.107 319.63 115.656 319.982 115.305C320.333 114.953 320.8 114.748 321.383 114.69V113.645H322.164V114.704C322.74 114.786 323.191 115.027 323.517 115.427C323.842 115.824 324.005 116.34 324.005 116.975H322.594C322.594 116.584 322.513 116.293 322.35 116.101C322.19 115.906 321.976 115.808 321.705 115.808C321.438 115.808 321.232 115.884 321.085 116.037C320.939 116.187 320.865 116.395 320.865 116.662C320.865 116.91 320.937 117.108 321.08 117.258C321.224 117.408 321.489 117.561 321.876 117.717C322.267 117.873 322.587 118.021 322.838 118.161C323.089 118.298 323.3 118.454 323.473 118.63C323.645 118.803 323.777 119.001 323.868 119.226C323.96 119.447 324.005 119.706 324.005 120.002C324.005 120.556 323.833 121.005 323.488 121.35C323.142 121.695 322.667 121.898 322.062 121.96V122.932H321.285V121.965C320.618 121.893 320.101 121.657 319.733 121.257C319.368 120.853 319.186 120.318 319.186 119.651H320.597C320.597 120.038 320.688 120.336 320.87 120.544C321.056 120.749 321.321 120.852 321.666 120.852C321.953 120.852 322.179 120.777 322.345 120.627C322.511 120.474 322.594 120.269 322.594 120.012ZM329.423 118.943C329.423 119.926 329.219 120.678 328.812 121.198C328.405 121.719 327.81 121.98 327.025 121.98C326.25 121.98 325.658 121.724 325.248 121.213C324.838 120.702 324.628 119.97 324.618 119.016V117.707C324.618 116.714 324.823 115.961 325.233 115.447C325.647 114.932 326.241 114.675 327.015 114.675C327.79 114.675 328.383 114.931 328.793 115.442C329.203 115.949 329.413 116.68 329.423 117.634V118.943ZM328.012 117.507C328.012 116.918 327.93 116.49 327.767 116.223C327.608 115.953 327.357 115.818 327.015 115.818C326.683 115.818 326.438 115.946 326.278 116.203C326.122 116.457 326.039 116.856 326.029 117.4V119.128C326.029 119.708 326.107 120.139 326.263 120.422C326.423 120.702 326.677 120.842 327.025 120.842C327.37 120.842 327.619 120.707 327.772 120.437C327.925 120.167 328.005 119.753 328.012 119.197V117.507ZM330.187 121.189C330.187 120.964 330.262 120.782 330.412 120.642C330.565 120.502 330.755 120.432 330.983 120.432C331.214 120.432 331.404 120.502 331.554 120.642C331.707 120.782 331.784 120.964 331.784 121.189C331.784 121.41 331.709 121.591 331.559 121.731C331.409 121.867 331.217 121.936 330.983 121.936C330.752 121.936 330.561 121.867 330.412 121.731C330.262 121.591 330.187 121.41 330.187 121.189ZM337.426 118.943C337.426 119.926 337.222 120.678 336.815 121.198C336.408 121.719 335.813 121.98 335.028 121.98C334.254 121.98 333.661 121.724 333.251 121.213C332.841 120.702 332.631 119.97 332.621 119.016V117.707C332.621 116.714 332.826 115.961 333.236 115.447C333.65 114.932 334.244 114.675 335.019 114.675C335.793 114.675 336.386 114.931 336.796 115.442C337.206 115.949 337.416 116.68 337.426 117.634V118.943ZM336.015 117.507C336.015 116.918 335.933 116.49 335.77 116.223C335.611 115.953 335.36 115.818 335.019 115.818C334.686 115.818 334.441 115.946 334.281 116.203C334.125 116.457 334.042 116.856 334.032 117.4V119.128C334.032 119.708 334.11 120.139 334.267 120.422C334.426 120.702 334.68 120.842 335.028 120.842C335.373 120.842 335.622 120.707 335.775 120.437C335.928 120.167 336.008 119.753 336.015 119.197V117.507ZM341.486 121.882H340.075V116.443L338.39 116.965V115.818L341.335 114.763H341.486V121.882ZM348.109 116.662C348.109 117.007 348.023 117.313 347.851 117.58C347.678 117.847 347.441 118.06 347.138 118.22C347.483 118.386 347.756 118.615 347.958 118.908C348.16 119.198 348.261 119.54 348.261 119.934C348.261 120.565 348.046 121.065 347.616 121.433C347.187 121.797 346.602 121.98 345.863 121.98C345.124 121.98 344.539 121.796 344.106 121.428C343.673 121.06 343.456 120.562 343.456 119.934C343.456 119.54 343.557 119.197 343.759 118.904C343.961 118.611 344.233 118.383 344.574 118.22C344.272 118.06 344.034 117.847 343.861 117.58C343.692 117.313 343.608 117.007 343.608 116.662C343.608 116.057 343.809 115.575 344.213 115.217C344.617 114.856 345.165 114.675 345.858 114.675C346.549 114.675 347.095 114.854 347.499 115.212C347.906 115.567 348.109 116.05 348.109 116.662ZM346.845 119.831C346.845 119.522 346.755 119.275 346.576 119.089C346.397 118.904 346.156 118.811 345.854 118.811C345.554 118.811 345.315 118.904 345.136 119.089C344.957 119.271 344.867 119.519 344.867 119.831C344.867 120.134 344.955 120.378 345.131 120.564C345.307 120.749 345.551 120.842 345.863 120.842C346.169 120.842 346.409 120.753 346.581 120.573C346.757 120.394 346.845 120.147 346.845 119.831ZM346.698 116.731C346.698 116.454 346.625 116.233 346.479 116.067C346.332 115.897 346.125 115.813 345.858 115.813C345.595 115.813 345.39 115.894 345.243 116.057C345.097 116.22 345.024 116.444 345.024 116.731C345.024 117.014 345.097 117.242 345.243 117.414C345.39 117.587 345.596 117.673 345.863 117.673C346.13 117.673 346.335 117.587 346.479 117.414C346.625 117.242 346.698 117.014 346.698 116.731Z" fill="black"/>
<path d="M212.389 137.779H211.803V131.373L209.869 132.091V131.544L212.291 130.646H212.389V137.779ZM217.611 137.779H217.025V131.373L215.091 132.091V131.544L217.513 130.646H217.611V137.779ZM224.4 134.815C224.4 135.818 224.216 136.58 223.849 137.101C223.481 137.618 222.939 137.877 222.223 137.877C221.52 137.877 220.981 137.623 220.606 137.115C220.232 136.604 220.04 135.862 220.03 134.889V133.614C220.03 132.615 220.216 131.858 220.587 131.344C220.958 130.829 221.5 130.572 222.213 130.572C222.916 130.572 223.453 130.821 223.824 131.319C224.195 131.814 224.387 132.545 224.4 133.512V134.815ZM223.814 133.541C223.814 132.727 223.681 132.112 223.414 131.695C223.15 131.279 222.75 131.07 222.213 131.07C221.686 131.07 221.288 131.274 221.022 131.681C220.755 132.088 220.618 132.688 220.611 133.482V134.879C220.611 135.689 220.748 136.31 221.022 136.739C221.298 137.169 221.699 137.384 222.223 137.384C222.744 137.384 223.137 137.174 223.404 136.754C223.674 136.334 223.811 135.719 223.814 134.908V133.541ZM225.199 132.037C225.199 131.614 225.329 131.264 225.589 130.987C225.853 130.707 226.187 130.567 226.59 130.567C226.994 130.567 227.326 130.707 227.587 130.987C227.85 131.264 227.982 131.624 227.982 132.066V132.413C227.982 132.83 227.852 133.178 227.591 133.458C227.334 133.735 227.004 133.873 226.6 133.873C226.2 133.873 225.866 133.736 225.599 133.463C225.332 133.189 225.199 132.828 225.199 132.379V132.037ZM225.672 132.413C225.672 132.716 225.755 132.965 225.921 133.16C226.091 133.355 226.317 133.453 226.6 133.453C226.877 133.453 227.097 133.355 227.259 133.16C227.425 132.962 227.508 132.706 227.508 132.394V132.037C227.508 131.734 227.424 131.485 227.254 131.29C227.085 131.091 226.864 130.992 226.59 130.992C226.32 130.992 226.099 131.09 225.926 131.285C225.757 131.48 225.672 131.741 225.672 132.066V132.413ZM228.778 136.036C228.778 135.613 228.908 135.263 229.169 134.986C229.432 134.71 229.764 134.571 230.165 134.571C230.565 134.571 230.897 134.71 231.161 134.986C231.428 135.26 231.561 135.621 231.561 136.07V136.417C231.561 136.84 231.429 137.19 231.166 137.467C230.905 137.743 230.575 137.882 230.174 137.882C229.774 137.882 229.44 137.745 229.173 137.472C228.91 137.195 228.778 136.835 228.778 136.393V136.036ZM229.247 136.417C229.247 136.723 229.33 136.974 229.496 137.169C229.665 137.364 229.891 137.462 230.174 137.462C230.454 137.462 230.676 137.364 230.838 137.169C231.004 136.97 231.087 136.712 231.087 136.393V136.036C231.087 135.724 231.003 135.473 230.834 135.284C230.668 135.092 230.445 134.996 230.165 134.996C229.891 134.996 229.67 135.092 229.501 135.284C229.331 135.476 229.247 135.733 229.247 136.056V136.417ZM226.786 137.188L226.42 136.954L229.891 131.397L230.257 131.632L226.786 137.188Z" fill="black"/>
<path d="M241.171 131.447L245.412 135.449H236.93L241.171 131.447Z" fill="#FF0000"/>
<path d="M324.858 132.501C324.858 132.869 324.751 133.199 324.536 133.492C324.321 133.782 324.038 133.995 323.687 134.132C324.097 134.272 324.425 134.498 324.673 134.811C324.92 135.123 325.044 135.484 325.044 135.895C325.044 136.503 324.837 136.987 324.424 137.345C324.01 137.7 323.464 137.877 322.783 137.877C322.096 137.877 321.546 137.7 321.133 137.345C320.723 136.99 320.518 136.507 320.518 135.895C320.518 135.491 320.636 135.131 320.874 134.815C321.112 134.5 321.437 134.272 321.851 134.132C321.499 133.995 321.219 133.782 321.011 133.492C320.802 133.199 320.698 132.869 320.698 132.501C320.698 131.912 320.887 131.443 321.265 131.095C321.646 130.746 322.148 130.572 322.773 130.572C323.398 130.572 323.901 130.748 324.282 131.1C324.666 131.451 324.858 131.918 324.858 132.501ZM324.458 135.899C324.458 135.457 324.3 135.094 323.984 134.811C323.669 134.524 323.265 134.381 322.773 134.381C322.282 134.381 321.88 134.521 321.567 134.801C321.255 135.081 321.099 135.447 321.099 135.899C321.099 136.352 321.25 136.713 321.553 136.983C321.855 137.25 322.266 137.384 322.783 137.384C323.288 137.384 323.693 137.25 323.999 136.983C324.305 136.716 324.458 136.355 324.458 135.899ZM324.272 132.496C324.272 132.089 324.131 131.751 323.848 131.48C323.568 131.207 323.21 131.07 322.773 131.07C322.331 131.07 321.971 131.202 321.694 131.466C321.421 131.726 321.284 132.07 321.284 132.496C321.284 132.913 321.421 133.248 321.694 133.502C321.971 133.756 322.332 133.883 322.778 133.883C323.218 133.883 323.576 133.756 323.853 133.502C324.132 133.245 324.272 132.91 324.272 132.496ZM330.178 134.815C330.178 135.818 329.994 136.58 329.627 137.101C329.259 137.618 328.717 137.877 328.001 137.877C327.297 137.877 326.759 137.623 326.384 137.115C326.01 136.604 325.818 135.862 325.808 134.889V133.614C325.808 132.615 325.994 131.858 326.365 131.344C326.736 130.829 327.278 130.572 327.991 130.572C328.694 130.572 329.231 130.821 329.602 131.319C329.973 131.814 330.165 132.545 330.178 133.512V134.815ZM329.592 133.541C329.592 132.727 329.459 132.112 329.192 131.695C328.928 131.279 328.528 131.07 327.991 131.07C327.463 131.07 327.066 131.274 326.799 131.681C326.532 132.088 326.396 132.688 326.389 133.482V134.879C326.389 135.689 326.526 136.31 326.799 136.739C327.076 137.169 327.476 137.384 328.001 137.384C328.521 137.384 328.915 137.174 329.182 136.754C329.452 136.334 329.589 135.719 329.592 134.908V133.541ZM330.977 132.037C330.977 131.614 331.107 131.264 331.367 130.987C331.631 130.707 331.965 130.567 332.368 130.567C332.772 130.567 333.104 130.707 333.364 130.987C333.628 131.264 333.76 131.624 333.76 132.066V132.413C333.76 132.83 333.63 133.178 333.369 133.458C333.112 133.735 332.782 133.873 332.378 133.873C331.978 133.873 331.644 133.736 331.377 133.463C331.11 133.189 330.977 132.828 330.977 132.379V132.037ZM331.45 132.413C331.45 132.716 331.533 132.965 331.699 133.16C331.869 133.355 332.095 133.453 332.378 133.453C332.655 133.453 332.874 133.355 333.037 133.16C333.203 132.962 333.286 132.706 333.286 132.394V132.037C333.286 131.734 333.202 131.485 333.032 131.29C332.863 131.091 332.642 130.992 332.368 130.992C332.098 130.992 331.877 131.09 331.704 131.285C331.535 131.48 331.45 131.741 331.45 132.066V132.413ZM334.556 136.036C334.556 135.613 334.686 135.263 334.946 134.986C335.21 134.71 335.542 134.571 335.943 134.571C336.343 134.571 336.675 134.71 336.939 134.986C337.206 135.26 337.339 135.621 337.339 136.07V136.417C337.339 136.84 337.207 137.19 336.943 137.467C336.683 137.743 336.353 137.882 335.952 137.882C335.552 137.882 335.218 137.745 334.951 137.472C334.688 137.195 334.556 136.835 334.556 136.393V136.036ZM335.025 136.417C335.025 136.723 335.108 136.974 335.274 137.169C335.443 137.364 335.669 137.462 335.952 137.462C336.232 137.462 336.454 137.364 336.616 137.169C336.782 136.97 336.865 136.712 336.865 136.393V136.036C336.865 135.724 336.781 135.473 336.611 135.284C336.445 135.092 336.222 134.996 335.943 134.996C335.669 134.996 335.448 135.092 335.278 135.284C335.109 135.476 335.025 135.733 335.025 136.056V136.417ZM332.564 137.188L332.197 136.954L335.669 131.397L336.035 131.632L332.564 137.188Z" fill="black"/>
<path d="M347.317 131.447L351.558 135.449H343.076L347.317 131.447Z" fill="#FF0000"/>
</svg>
