<svg width="48" height="50" viewBox="0 0 48 50" fill="none" xmlns="http://www.w3.org/2000/svg">
<g filter="url(#filter0_d)">
<path fill-rule="evenodd" clip-rule="evenodd" d="M25.7273 41L18.9753 37.0909C12.4445 33.3099 8.45459 26.539 8.45459 19.237V8.14286H10.9095C16.7531 8.14286 22.2507 5.49277 25.7273 1V41Z" fill="url(#paint0_linear)" stroke="#003071" stroke-opacity="0.407862" stroke-width="1.5" stroke-linecap="round" stroke-linejoin="round"/>
<path fill-rule="evenodd" clip-rule="evenodd" d="M26.4773 3.00952V39.6991L32.1036 36.4418C38.4051 32.7936 42.25 26.2686 42.25 19.237V8.89282H40.5451C35.1766 8.89282 30.0866 6.73973 26.4773 3.00952Z" fill="url(#paint1_linear)" stroke="url(#paint2_linear)" stroke-width="1.5"/>
<path d="M25.7273 1C29.2039 5.49277 34.7015 8.14286 40.5451 8.14286H43V19.237C43 26.539 39.0102 33.3099 32.4794 37.0909L25.7273 41" stroke="#003071" stroke-opacity="0.407862" stroke-width="1.5"/>
<path fill-rule="evenodd" clip-rule="evenodd" d="M20.5247 20.5547L23.6667 19.1953C24.0722 19.0199 24.5431 19.2064 24.7186 19.6119C24.8143 19.8332 24.8051 20.086 24.6935 20.2998L23.2372 23.0891L31.0057 24.2677C31.4425 24.3339 31.7429 24.7418 31.6767 25.1786C31.6238 25.5273 31.3488 25.8002 30.9998 25.8505L23.1974 26.9743L24.6049 29.7944C24.8023 30.1898 24.6417 30.6702 24.2464 30.8675C24.031 30.975 23.7786 30.9798 23.5593 30.8805L20.4475 29.4722L19.1563 36.8496C19.0801 37.2848 18.6656 37.5758 18.2304 37.4997C17.8959 37.4411 17.6348 37.1778 17.5791 36.8428L16.3484 29.4366L13.2064 30.796C12.8009 30.9714 12.33 30.7849 12.1545 30.3794C12.0588 30.158 12.068 29.9053 12.1796 29.6915L13.6359 26.9021L5.86737 25.7236C5.43054 25.6573 5.13015 25.2495 5.19642 24.8126C5.24931 24.464 5.52427 24.1911 5.87331 24.1408L13.6757 23.017L12.2681 20.1968C12.0708 19.8015 12.2313 19.3211 12.6267 19.1238C12.8421 19.0163 13.0944 19.0115 13.3138 19.1107L16.4256 20.519L17.7168 13.1417C17.7929 12.7065 18.2075 12.4154 18.6427 12.4916C18.9772 12.5501 19.2383 12.8135 19.294 13.1485L20.5247 20.5547Z" fill="url(#paint3_radial)" stroke="#8EC0FE" stroke-linecap="round" stroke-linejoin="round"/>
</g>
<defs>
<filter id="filter0_d" x="0" y="0" width="48" height="50" filterUnits="userSpaceOnUse" color-interpolation-filters="sRGB">
<feFlood flood-opacity="0" result="BackgroundImageFix"/>
<feColorMatrix in="SourceAlpha" type="matrix" values="0 0 0 0 0 0 0 0 0 0 0 0 0 0 0 0 0 0 127 0"/>
<feOffset dy="4"/>
<feGaussianBlur stdDeviation="2"/>
<feColorMatrix type="matrix" values="0 0 0 0 0 0 0 0 0 0 0 0 0 0 0 0 0 0 0.25 0"/>
<feBlend mode="normal" in2="BackgroundImageFix" result="effect1_dropShadow"/>
<feBlend mode="normal" in="SourceGraphic" in2="effect1_dropShadow" result="shape"/>
</filter>
<linearGradient id="paint0_linear" x1="18.7013" y1="41" x2="3.63704" y2="6.11424" gradientUnits="userSpaceOnUse">
<stop stop-color="#B341FF"/>
<stop offset="1" stop-color="#2582FF"/>
</linearGradient>
<linearGradient id="paint1_linear" x1="26.4773" y1="21.3543" x2="42.25" y2="21.3543" gradientUnits="userSpaceOnUse">
<stop stop-color="#D7EBFF"/>
<stop offset="0.484741" stop-color="#ABCEF2"/>
<stop offset="1" stop-color="#8AACD1"/>
</linearGradient>
<linearGradient id="paint2_linear" x1="34.0953" y1="43.6928" x2="29.5233" y2="0.00773191" gradientUnits="userSpaceOnUse">
<stop stop-color="#205193" stop-opacity="0.292859"/>
<stop offset="1" stop-color="#0383FF" stop-opacity="0.103365"/>
</linearGradient>
<radialGradient id="paint3_radial" cx="0" cy="0" r="1" gradientUnits="userSpaceOnUse" gradientTransform="translate(-0.788852 28.9577) rotate(44.0104) scale(17.2397 16.3675)">
<stop stop-color="#F7F7F7"/>
<stop offset="1" stop-color="white"/>
</radialGradient>
</defs>
</svg>
