<svg width="61" height="38" viewBox="0 0 61 38" fill="none" xmlns="http://www.w3.org/2000/svg">
<path d="M11.446 16.8683C12.2357 7.96374 19.708 0.9823 28.8095 0.9823C35.9827 0.9823 42.1441 5.31905 44.8193 11.5161C45.6353 11.3534 46.4792 11.268 47.3429 11.268C54.437 11.268 60.1879 17.0244 60.1879 24.1252C60.1879 31.226 54.437 36.9823 47.3429 36.9823H10.276V36.9807C10.2149 36.9818 10.1538 36.9823 10.0925 36.9823C4.51856 36.9823 0 32.4595 0 26.8803C0 21.3011 4.51856 16.7782 10.0925 16.7782C10.5514 16.7782 11.0033 16.8089 11.446 16.8683H11.446Z" fill="white"/>
<g filter="url(#filter0_i)">
<path d="M11.446 16.8683C12.2357 7.96374 19.708 0.9823 28.8095 0.9823C35.9827 0.9823 42.1441 5.31905 44.8193 11.5161C45.6353 11.3534 46.4792 11.268 47.3429 11.268C54.437 11.268 60.1879 17.0244 60.1879 24.1252C60.1879 31.226 54.437 36.9823 47.3429 36.9823H10.276V36.9807C10.2149 36.9818 10.1538 36.9823 10.0925 36.9823C4.51856 36.9823 0 32.4595 0 26.8803C0 21.3011 4.51856 16.7782 10.0925 16.7782C10.5514 16.7782 11.0033 16.8089 11.446 16.8683H11.446Z" fill="white"/>
</g>
<path d="M10.2762 36.0752V36.0606H47.3431C53.928 36.0606 59.2664 30.7171 59.2664 24.1251C59.2664 17.5331 53.928 12.1896 47.3431 12.1896C46.549 12.1896 45.7654 12.2672 44.9998 12.4199L44.2688 12.5657L43.9733 11.8813C41.3805 5.87524 35.4595 1.90393 28.8096 1.90393C20.2419 1.90393 13.1168 8.46437 12.3642 16.9497L12.2791 17.9099L11.3236 17.7817C10.9181 17.7273 10.5072 17.6998 10.0927 17.6998C5.02798 17.6998 0.921875 21.8098 0.921875 26.8802C0.921875 31.9506 5.02798 36.0606 10.0927 36.0606C10.1763 36.0603 10.1763 36.0603 10.2597 36.0591L10.2762 36.0752Z" stroke="black" stroke-opacity="0.2"/>
<defs>
<filter id="filter0_i" x="0" y="-4.0177" width="60.1879" height="41" filterUnits="userSpaceOnUse" color-interpolation-filters="sRGB">
<feFlood flood-opacity="0" result="BackgroundImageFix"/>
<feBlend mode="normal" in="SourceGraphic" in2="BackgroundImageFix" result="shape"/>
<feColorMatrix in="SourceAlpha" type="matrix" values="0 0 0 0 0 0 0 0 0 0 0 0 0 0 0 0 0 0 127 0" result="hardAlpha"/>
<feOffset dy="-5"/>
<feGaussianBlur stdDeviation="6"/>
<feComposite in2="hardAlpha" operator="arithmetic" k2="-1" k3="1"/>
<feColorMatrix type="matrix" values="0 0 0 0 0.453731 0 0 0 0 0.545333 0 0 0 0 0.624575 0 0 0 0.6 0"/>
<feBlend mode="normal" in2="shape" result="effect1_innerShadow"/>
</filter>
</defs>
</svg>
