<svg width="21" height="25" viewBox="0 0 21 25" fill="none" xmlns="http://www.w3.org/2000/svg">
<g clip-path="url(#clip0)">
<path d="M9.1456 17.5399L9.35775 17.851C10.2944 19.2132 11.4565 20.7637 12.8722 22.5395L13.3724 23.1632L14.2868 24.2862C14.4259 24.4571 14.4001 24.7084 14.2293 24.8475C14.0691 24.9779 13.8382 24.9634 13.6954 24.8203L13.668 24.79L12.7525 23.6655L12.4141 23.2443C10.8001 21.2278 9.50387 19.4935 8.48474 17.987C8.36129 17.8045 8.40915 17.5565 8.59164 17.433C8.77413 17.3096 9.02215 17.3574 9.1456 17.5399ZM4.43153 6.31338C4.60813 6.44513 4.64448 6.69509 4.51273 6.87168C3.66378 8.00962 3.47217 8.63369 3.47217 10.3147C3.47217 13.4609 5.82398 18.3753 9.76332 23.4943C9.89769 23.6689 9.86507 23.9193 9.69046 24.0537C9.51585 24.1881 9.26538 24.1555 9.13101 23.9809C5.09377 18.7347 2.6743 13.6789 2.6743 10.3147L2.67578 10.0746C2.69732 8.39625 2.95992 7.61878 3.87322 6.39458C4.00497 6.21798 4.25493 6.18163 4.43153 6.31338ZM13.3848 9.20375C15.0627 11.9991 16.5437 13.5031 18.0789 13.9246C18.2914 13.9829 18.4163 14.2024 18.358 14.4149C18.2997 14.6274 18.0801 14.7523 17.8677 14.694C16.084 14.2043 14.4749 12.5702 12.7007 9.61437C11.9806 8.41462 10.8011 8.03191 9.82734 8.62308C8.92006 9.17386 8.57203 10.3536 9.01323 11.4521L9.04313 11.5236L9.36984 12.2293C9.55448 12.6168 9.74518 12.9764 9.96904 13.3561C10.6154 14.4525 11.4706 15.5932 12.5797 16.8207C13.3344 17.6559 14.1945 18.5161 15.1602 19.3996L15.385 19.604L15.8693 20.0297C16.0516 20.1842 16.2139 20.3138 16.3685 20.4286L16.4453 20.4849L16.7425 20.6902L18.0346 21.5003C18.2213 21.6173 18.2778 21.8635 18.1607 22.0502C18.0506 22.2259 17.826 22.2862 17.6443 22.1952L17.6108 22.1763L16.3042 21.3567L15.9853 21.1367C15.8116 21.0113 15.6387 20.8766 15.446 20.7161L15.3479 20.6336L14.8542 20.1996C13.7732 19.2232 12.8192 18.2758 11.9876 17.3556C10.8441 16.0899 9.95683 14.9064 9.28172 13.7613C9.08514 13.4279 8.91232 13.1082 8.74648 12.7723L8.64768 12.5685L8.31524 11.8503C7.67071 10.3673 8.13517 8.71696 9.4133 7.94104C10.7886 7.10613 12.4492 7.64494 13.3848 9.20375ZM7.90531 1.08368C7.9736 1.29316 7.85914 1.51833 7.64966 1.58662C4.52697 2.60456 2.59075 4.29913 1.47678 6.89072C0.3236 9.57352 1.2774 14.4741 4.22072 20.9233C4.31219 21.1238 4.22386 21.3604 4.02342 21.4519C3.82299 21.5434 3.58634 21.455 3.49486 21.2546C0.464725 14.6151 -0.525352 9.52814 0.743753 6.57564C1.95086 3.76737 4.06707 1.91529 7.40238 0.828035C7.61186 0.759749 7.83703 0.874207 7.90531 1.08368ZM11.257 10.5969C12.8501 13.508 15.3569 16.365 18.0547 17.5367C18.2568 17.6245 18.3495 17.8595 18.2617 18.0616C18.1739 18.2637 17.9389 18.3563 17.7369 18.2686C14.8409 17.0107 12.2274 14.0322 10.5571 10.9799C10.4513 10.7866 10.5223 10.5442 10.7155 10.4384C10.9088 10.3327 11.1512 10.4036 11.257 10.5969ZM14.5281 0.816934C17.541 2.31694 19.6933 5.07522 20.6593 8.56651C21.2 10.521 18.7737 12.5137 17.1132 11.3507C16.7005 11.0616 16.343 10.6285 15.8183 9.79875L15.7593 9.70492L15.092 8.61621L14.9574 8.40476C13.8254 6.65059 13.0049 5.99032 11.6967 5.78631C10.3438 5.57533 8.39147 6.20885 7.44923 7.03999L7.38923 7.09446L7.12964 7.36629L7.02768 7.4791C6.91217 7.61023 6.81466 7.73332 6.723 7.86459C5.67655 9.36336 5.76542 11.4277 7.16788 14.237C7.26629 14.4341 7.18626 14.6737 6.98913 14.7721C6.79201 14.8705 6.55243 14.7905 6.45402 14.5934C4.93301 11.5466 4.83115 9.18045 6.06881 7.40783C6.1564 7.28238 6.24818 7.16356 6.35203 7.04087L6.4323 6.94797L6.545 6.82344L6.82797 6.52782C7.93584 5.49066 10.1883 4.74357 11.8197 4.99797C13.4197 5.24748 14.4167 6.07122 15.6984 8.08242L15.7699 8.19538L16.4376 9.28493L16.5463 9.45687C16.9869 10.1454 17.2763 10.4908 17.5709 10.6972C18.5854 11.4078 20.2413 10.0479 19.8903 8.77926C18.9828 5.49923 16.9754 2.92661 14.1725 1.53119C13.2528 1.0733 12.3883 0.95072 10.6279 1.01831C10.4078 1.02676 10.2224 0.855139 10.214 0.634975C10.2055 0.414811 10.3772 0.22948 10.5973 0.221027C12.4794 0.148763 13.4674 0.288868 14.5281 0.816934ZM17.9762 7.65381L18.0568 7.80268L18.4844 8.67904C18.581 8.87705 18.4988 9.11589 18.3008 9.2125C18.1144 9.30343 17.8919 9.23596 17.7858 9.06262L17.7673 9.0289L17.3466 8.166C14.8717 3.54615 11.842 2.35254 8.6697 4.0507C8.47546 4.15468 8.2337 4.08151 8.12971 3.88726C8.02573 3.69302 8.09891 3.45126 8.29315 3.34727C11.8103 1.4645 15.2402 2.7507 17.896 7.50857L17.9762 7.65381Z" fill="#2582FF"/>
</g>
<defs>
<clipPath id="clip0">
<rect width="20.7447" height="25" fill="white"/>
</clipPath>
</defs>
</svg>
