<svg width="125" height="18" viewBox="0 0 125 18" fill="none" xmlns="http://www.w3.org/2000/svg">
<path d="M4.88018 4.63632V16.5035C4.88018 16.9765 4.4967 17.36 4.02365 17.36C3.8954 17.36 3.76879 17.3312 3.65316 17.2757L0.48604 15.7563C0.188982 15.6138 0 15.3135 0 14.984V6.85873L4.88018 4.63632ZM10.9254 1.88337V16.5035C10.9254 16.9765 10.5419 17.36 10.0688 17.36C9.94058 17.36 9.81397 17.3312 9.69834 17.2757L6.53122 15.7563C6.23417 15.6138 6.04518 15.3135 6.04518 14.984V4.10578L10.9254 1.88337ZM12.0904 1.35283L12.581 1.12941C13.9801 0.492249 15.468 0.123163 16.9705 0.0234027V16.5035C16.9705 16.9765 16.5871 17.36 16.114 17.36C15.9858 17.36 15.8592 17.3312 15.7435 17.2757L12.5764 15.7563C12.2793 15.6138 12.0904 15.3135 12.0904 14.984V1.35283ZM23.0157 1.11527V16.5035C23.0157 16.9765 22.6322 17.36 22.1592 17.36C22.0309 17.36 21.9043 17.3312 21.7887 17.2757L18.6216 15.7563C18.3245 15.6138 18.1355 15.3135 18.1355 14.984V0C19.6677 0.0400343 21.1953 0.359416 22.6405 0.959462L23.0157 1.11527ZM29.0609 7.17248L29.0578 10.5176L24.1807 12.5426V1.59899L29.0578 3.62398V6.96914L29.0609 7.17248ZM39.2915 10.3382V6.84748H38.4286V5.34399H39.2915V3.55286H41.1349V5.34399H42.7561V6.84748H41.1349V10.3513C41.1349 10.835 41.331 11.0442 41.9063 11.0442H42.7561V12.5869H41.6056C40.2197 12.5869 39.2915 11.9986 39.2915 10.3382ZM43.5975 8.9393C43.5975 6.67752 45.0618 5.22632 46.9052 5.22632C48.0688 5.22632 48.8663 5.77542 49.2977 6.37682V5.34399H51.1412V12.5869H49.2977V11.5279C48.8663 12.1555 48.0427 12.7046 46.8922 12.7046C45.0618 12.7046 43.5975 11.2011 43.5975 8.9393ZM49.2977 8.96545C49.2977 7.5927 48.3826 6.83441 47.3759 6.83441C46.3953 6.83441 45.4671 7.56655 45.4671 8.9393C45.4671 10.3121 46.3953 11.0965 47.3759 11.0965C48.3826 11.0965 49.2977 10.3382 49.2977 8.96545ZM54.7543 8.97853V12.5869H52.9239V5.34399H54.7543V6.46834C55.2119 5.72313 55.9702 5.2394 56.9768 5.2394V7.16126H56.4931C55.408 7.16126 54.7543 7.57962 54.7543 8.97853ZM57.7268 8.9393C57.7268 6.67752 59.1911 5.22632 61.0475 5.22632C62.0019 5.22632 62.9171 5.67083 63.4139 6.35068V2.91224H65.2704V12.5869H63.4139V11.5149C62.9825 12.1816 62.1719 12.7046 61.0345 12.7046C59.1911 12.7046 57.7268 11.2011 57.7268 8.9393ZM63.427 8.96545C63.427 7.5927 62.5118 6.83441 61.5051 6.83441C60.5246 6.83441 59.5963 7.56655 59.5963 8.9393C59.5963 10.3121 60.5246 11.0965 61.5051 11.0965C62.5118 11.0965 63.427 10.3382 63.427 8.96545ZM67.0532 12.5869V5.34399H68.8835V12.5869H67.0532ZM67.9814 4.48111C67.3277 4.48111 66.8571 4.01045 66.8571 3.40905C66.8571 2.80765 67.3277 2.33699 67.9814 2.33699C68.6221 2.33699 69.1058 2.80765 69.1058 3.40905C69.1058 4.01045 68.6221 4.48111 67.9814 4.48111ZM70.2087 8.9393C70.2087 6.67752 71.673 5.22632 73.5164 5.22632C74.6538 5.22632 75.4775 5.74928 75.9089 6.37682V5.34399H77.7523V12.6392C77.7523 14.6003 76.5496 16.1561 74.1701 16.1561C72.1306 16.1561 70.7055 15.1363 70.5225 13.4759H72.3398C72.5228 14.1296 73.2026 14.5611 74.1178 14.5611C75.1245 14.5611 75.9089 13.9858 75.9089 12.6392V11.5149C75.4775 12.1424 74.6538 12.7046 73.5164 12.7046C71.673 12.7046 70.2087 11.2011 70.2087 8.9393ZM75.9089 8.96545C75.9089 7.5927 74.9938 6.83441 73.9871 6.83441C73.0065 6.83441 72.0783 7.56655 72.0783 8.9393C72.0783 10.3121 73.0065 11.0965 73.9871 11.0965C74.9938 11.0965 75.9089 10.3382 75.9089 8.96545ZM81.3655 8.97853V12.5869H79.5351V5.34399H81.3655V6.46834C81.8231 5.72313 82.5813 5.2394 83.588 5.2394V7.16126H83.1043C82.0192 7.16126 81.3655 7.57962 81.3655 8.97853ZM84.338 8.9393C84.338 6.67752 85.8023 5.22632 87.6457 5.22632C88.8092 5.22632 89.6068 5.77542 90.0382 6.37682V5.34399H91.8816V12.5869H90.0382V11.5279C89.6068 12.1555 88.7831 12.7046 87.6326 12.7046C85.8022 12.7046 84.338 11.2011 84.338 8.9393ZM90.0382 8.96545C90.0382 7.5927 89.123 6.83441 88.1163 6.83441C87.1358 6.83441 86.2075 7.56655 86.2075 8.9393C86.2075 10.3121 87.1358 11.0965 88.1163 11.0965C89.123 11.0965 90.0382 10.3382 90.0382 8.96545ZM93.1937 8.9393C93.1937 6.67752 94.658 5.22632 96.5145 5.22632C97.4689 5.22632 98.3841 5.67083 98.8809 6.35068V2.91224H100.737V12.5869H98.8809V11.5149C98.4494 12.1816 97.6388 12.7046 96.5014 12.7046C94.658 12.7046 93.1937 11.2011 93.1937 8.9393ZM98.8939 8.96545C98.8939 7.5927 97.9788 6.83441 96.9721 6.83441C95.9915 6.83441 95.0633 7.56655 95.0633 8.9393C95.0633 10.3121 95.9915 11.0965 96.9721 11.0965C97.9788 11.0965 98.8939 10.3382 98.8939 8.96545ZM105.632 6.72982C104.756 6.72982 104.063 7.292 103.919 8.28561H107.357C107.331 7.33122 106.573 6.72982 105.632 6.72982ZM109.07 10.3121C108.678 11.6456 107.475 12.7046 105.684 12.7046C103.579 12.7046 102.049 11.2403 102.049 8.96545C102.049 6.67752 103.54 5.22632 105.684 5.22632C107.776 5.22632 109.253 6.65137 109.253 8.80857C109.253 9.0439 109.24 9.27923 109.201 9.51456H103.906C103.997 10.5866 104.73 11.188 105.645 11.188C106.429 11.188 106.861 10.7958 107.096 10.3121H109.07ZM112.5 11.6064C112.5 12.2078 112.03 12.6784 111.389 12.6784C110.722 12.6784 110.252 12.2078 110.252 11.6064C110.252 11.005 110.722 10.5343 111.389 10.5343C112.03 10.5343 112.5 11.005 112.5 11.6064ZM113.969 12.5869V5.34399H115.8V12.5869H113.969ZM114.897 4.48111C114.244 4.48111 113.773 4.01045 113.773 3.40905C113.773 2.80765 114.244 2.33699 114.897 2.33699C115.538 2.33699 116.022 2.80765 116.022 3.40905C116.022 4.01045 115.538 4.48111 114.897 4.48111ZM124.59 8.96545C124.59 11.2403 122.916 12.7046 120.812 12.7046C118.72 12.7046 117.138 11.2403 117.138 8.96545C117.138 6.67752 118.772 5.22632 120.864 5.22632C122.956 5.22632 124.59 6.67752 124.59 8.96545ZM118.994 8.96545C118.994 10.4036 119.831 11.1096 120.812 11.1096C121.779 11.1096 122.707 10.4036 122.707 8.96545C122.707 7.51425 121.805 6.82134 120.838 6.82134C119.87 6.82134 118.994 7.51425 118.994 8.96545Z" fill="#2582FF"/>
</svg>
