<svg width="39" height="36" viewBox="0 0 39 36" fill="none" xmlns="http://www.w3.org/2000/svg">
<path fill-rule="evenodd" clip-rule="evenodd" d="M38.3757 16.4713C38.3757 16.8149 38.2415 17.1474 37.9967 17.4105L21.6672 34.9573C20.5174 36.1928 18.4755 36.3533 17.1063 35.3158C16.9627 35.2069 16.8297 35.087 16.7091 34.9573L0.379047 17.41C-0.195821 16.7922 -0.106877 15.871 0.577693 15.3522C0.869193 15.1314 1.23763 15.0103 1.61828 15.0102L10.5175 15.009L10.5145 -1.21785e-06L27.8642 0.213999L27.8587 15.0108L36.7571 15.0108C37.6511 15.0108 38.3757 15.6647 38.3757 16.4713Z" fill="url(#paint0_linear)"/>
<path d="M10.5176 15.509L11.0176 15.509L11.0175 15.0089L11.0146 0.506205L27.364 0.707868L27.3587 15.0106L27.3585 15.5108L27.8587 15.5108L36.7571 15.5108C37.4245 15.5108 37.8757 15.9879 37.8757 16.4713C37.8757 16.6822 37.7938 16.8946 37.6306 17.0699L21.3012 34.6167C20.3311 35.659 18.5787 35.8041 17.4083 34.9173C17.2872 34.8255 17.1758 34.7249 17.0751 34.6167L0.745067 17.0693C0.37852 16.6755 0.423282 16.0966 0.879665 15.7508C1.08056 15.5985 1.34195 15.5102 1.61836 15.5102L10.5176 15.509Z" stroke="black" stroke-opacity="0.11"/>
<defs>
<linearGradient id="paint0_linear" x1="8.95856" y1="36" x2="36.7814" y2="-7.91803" gradientUnits="userSpaceOnUse">
<stop stop-color="#2582FF"/>
<stop offset="1" stop-color="#12F5E1"/>
</linearGradient>
</defs>
</svg>
