<svg width="36" height="36" viewBox="0 0 36 36" fill="none" xmlns="http://www.w3.org/2000/svg">
<g clip-path="url(#clip0)">
<path d="M1.07959 22.6498C1.17688 23.0127 1.41423 23.322 1.73947 23.51C2.06471 23.698 2.45126 23.7492 2.81423 23.6523L5.67692 22.8855L4.91003 25.7475C4.81273 26.1107 4.86365 26.4977 5.05162 26.8233C5.23966 27.1488 5.54928 27.3864 5.91241 27.4837C6.27557 27.581 6.66253 27.53 6.98808 27.3422C7.31371 27.1542 7.55128 26.8445 7.64859 26.4813L8.83924 22.0377L12.4927 21.0592L15.1668 23.7329L14.1879 27.3859L9.7442 28.5762C9.38099 28.6735 9.07132 28.911 8.88328 29.2366C8.69523 29.5622 8.64426 29.9492 8.74151 30.3125C8.83879 30.6758 9.0764 30.9855 9.40205 31.1734C9.72764 31.3616 10.1147 31.4125 10.4779 31.3152L13.3405 30.5486L12.5737 33.4104C12.4764 33.7735 12.5273 34.1605 12.7153 34.4862C12.9033 34.8116 13.2129 35.0493 13.5761 35.1466C13.9392 35.2439 14.3262 35.1929 14.6517 35.0051C14.9774 34.817 15.2149 34.5073 15.3122 34.1442L16.0792 31.2819L18.1749 33.3776C18.3066 33.5092 18.4629 33.6136 18.6349 33.6849C18.8068 33.7562 18.9913 33.7927 19.1774 33.7927C19.3636 33.7927 19.548 33.7561 19.72 33.6848C19.892 33.6135 20.0483 33.5092 20.1799 33.3774C20.3116 33.2457 20.416 33.0894 20.4873 32.9174C20.5585 32.7454 20.5951 32.5612 20.5951 32.3748C20.5951 32.1887 20.5584 32.0042 20.4872 31.8322C20.4159 31.6602 20.3114 31.5039 20.1797 31.3724L16.9264 28.1202L17.9053 24.4667L21.5582 23.4883L24.233 26.1625L23.0423 30.6061C22.945 30.9692 22.9959 31.3562 23.1839 31.6819C23.3719 32.0073 23.6815 32.2449 24.0447 32.3422C24.4078 32.4395 24.7948 32.3885 25.1204 32.2007C25.446 32.0127 25.6836 31.703 25.7809 31.3398L26.5477 28.4778L28.6436 30.5733C28.7751 30.7049 28.9314 30.8093 29.1034 30.8805C29.2754 30.9518 29.4599 30.9885 29.646 30.9884C29.8323 30.9884 30.0165 30.9517 30.1886 30.8804C30.3606 30.8092 30.5168 30.7047 30.6487 30.5731C30.7802 30.4414 30.8846 30.2851 30.956 30.1131C31.027 29.941 31.0639 29.7567 31.0638 29.5705C31.0638 29.3843 31.0271 29.2 30.9558 29.028C30.8845 28.8559 30.7799 28.6996 30.6485 28.568L28.5534 26.473L31.4152 25.7065C31.5949 25.6583 31.7636 25.5752 31.9114 25.4619C32.0591 25.3486 32.183 25.2072 32.2761 25.046C32.3693 24.8848 32.4295 24.7067 32.454 24.5222C32.4783 24.3376 32.466 24.15 32.4179 23.9702C32.3696 23.7903 32.2865 23.6217 32.1731 23.474C32.0598 23.3262 31.9186 23.2023 31.7572 23.1092C31.5961 23.0161 31.418 22.9556 31.2334 22.9313C31.0488 22.907 30.8612 22.9193 30.6816 22.9675L26.2374 24.158L23.5636 21.4832L24.5421 17.8316L28.1945 16.8537L31.4481 20.1068C31.5795 20.2384 31.7359 20.3428 31.9079 20.414C32.0799 20.4853 32.2644 20.522 32.4505 20.5219C32.6368 20.5219 32.821 20.4852 32.993 20.4139C33.1651 20.3427 33.3213 20.2382 33.4532 20.1066C33.5847 19.9749 33.6891 19.8186 33.7604 19.6466C33.8315 19.4745 33.8684 19.2902 33.8683 19.104C33.8682 18.9178 33.8316 18.7335 33.7603 18.5615C33.689 18.3894 33.5844 18.2331 33.453 18.1015L31.3578 16.0068L34.2197 15.24C34.5828 15.1427 34.8924 14.9051 35.0806 14.5795C35.2685 14.2538 35.3197 13.8669 35.2224 13.5037C35.1251 13.1404 34.8873 12.8307 34.5617 12.6427C34.2361 12.4546 33.8491 12.4037 33.4861 12.501L30.6232 13.2678L31.3904 10.4047C31.4877 10.0415 31.4368 9.65455 31.2488 9.32898C31.0608 9.00338 30.7512 8.76579 30.388 8.66848C30.0249 8.57117 29.638 8.62212 29.3124 8.81011C28.9868 8.99807 28.7492 9.3077 28.6519 9.67086L27.4612 14.1144L23.8077 15.093L21.1337 12.4193L22.1124 8.7666L26.5562 7.57628C26.736 7.52812 26.9046 7.44499 27.0524 7.33165C27.2001 7.21832 27.3241 7.077 27.4172 6.91577C27.5103 6.75454 27.5707 6.57654 27.595 6.39195C27.6193 6.20736 27.607 6.01979 27.5589 5.83993C27.5107 5.66007 27.4276 5.49148 27.3143 5.34377C27.2009 5.19605 27.0596 5.07209 26.8984 4.97898C26.7371 4.88587 26.5591 4.82543 26.3745 4.80111C26.1899 4.7768 26.0024 4.78908 25.8225 4.83725L22.9599 5.60384L23.7268 2.74177C23.8241 2.37862 23.7731 1.99168 23.5852 1.66609C23.3972 1.34049 23.0876 1.1029 22.7244 1.00559C22.3613 0.908293 21.9743 0.959232 21.6487 1.14722C21.3231 1.3352 21.0855 1.64482 20.9882 2.00798L20.2213 4.87032L18.1256 2.77457C17.8597 2.50871 17.4991 2.35936 17.123 2.35939C16.747 2.35942 16.3864 2.50882 16.1205 2.77474C15.8547 3.04067 15.7053 3.40131 15.7054 3.77731C15.7054 4.15335 15.8548 4.51396 16.1207 4.77981L19.3739 8.03281L18.3951 11.6855L14.7425 12.664L12.0678 9.98979L13.2584 5.5462C13.3557 5.18304 13.3048 4.79611 13.1168 4.47053C12.9288 4.14493 12.6192 3.90734 12.256 3.81003C11.8929 3.71273 11.506 3.76367 11.1804 3.95166C10.8548 4.13962 10.6172 4.44925 10.5199 4.81241L9.75298 7.67448L7.65698 5.57893C7.52528 5.44728 7.36893 5.34287 7.19688 5.27161C7.02482 5.20038 6.84041 5.16374 6.6542 5.16377C6.46797 5.16383 6.28358 5.20054 6.11155 5.27182C5.93952 5.34313 5.78322 5.4476 5.65156 5.57931C5.38568 5.84529 5.23634 6.20601 5.23642 6.58209C5.23648 6.95819 5.38595 7.31885 5.65194 7.58472L7.74692 9.6797L4.88534 10.4457C4.52213 10.543 4.21243 10.7806 4.02439 11.1062C3.83635 11.4318 3.78537 11.8188 3.88266 12.182C3.97995 12.5453 4.21754 12.855 4.54317 13.043C4.8688 13.231 5.25579 13.282 5.61901 13.1847L10.0631 11.9954L12.7369 14.6696L11.7588 18.3201L8.10605 19.2991L4.85219 16.0465C4.58628 15.7807 4.22565 15.6313 3.84962 15.6314C3.4736 15.6314 3.113 15.7808 2.84713 16.0467C2.58126 16.3126 2.43192 16.6733 2.43195 17.0493C2.43198 17.4253 2.58139 17.7859 2.8473 18.0518L4.94235 20.1465L2.08056 20.9133C1.90069 20.9614 1.73209 21.0445 1.58439 21.1579C1.43669 21.2712 1.3128 21.4126 1.21982 21.5739C1.12684 21.7352 1.06659 21.9133 1.04254 22.0979C1.01847 22.2825 1.03106 22.4701 1.07959 22.6498ZM15.4759 15.4018L19.1292 14.4229L21.8037 17.0973L20.8251 20.7494L17.1718 21.7283L14.4974 19.0539L15.4759 15.4018Z" fill="url(#paint0_linear)"/>
</g>
<defs>
<linearGradient id="paint0_linear" x1="25.5806" y1="36.3849" x2="5.90723" y2="4.82811" gradientUnits="userSpaceOnUse">
<stop stop-color="#2582FF"/>
<stop offset="1" stop-color="#B9FFF9"/>
</linearGradient>
<clipPath id="clip0">
<rect width="36" height="36" fill="white"/>
</clipPath>
</defs>
</svg>
