<svg width="57" height="36" viewBox="0 0 57 36" fill="none" xmlns="http://www.w3.org/2000/svg">
<path d="M36.72 32.245C44.9849 27.4733 47.8167 16.905 43.0449 8.64012C38.2732 0.375221 27.7049 -2.45654 19.44 2.3152C11.1751 7.08694 8.34333 17.6552 13.1151 25.9201C17.8868 34.185 28.4551 37.0168 36.72 32.245Z" fill="url(#paint0_linear)"/>
<path fill-rule="evenodd" clip-rule="evenodd" d="M38.4825 3.47653C47.3976 0.0575316 54.2806 -0.699076 55.8757 2.0636C58.2616 6.19605 47.9123 16.6379 32.76 25.3861C17.6077 34.1343 3.39017 37.8761 1.0043 33.7436C-0.590736 30.9809 3.50601 25.3984 10.9245 19.3872C11.0051 20.0424 11.1234 20.6957 11.2807 21.3444C7.29974 25.0144 5.28303 28.1946 6.25614 29.8801C8.04554 32.9794 19.267 29.8507 31.32 22.8919C43.373 15.9331 51.6932 7.7794 49.9038 4.68006C48.9307 2.99459 45.1682 3.15098 39.9997 4.76313C39.5437 4.32846 39.0667 3.92178 38.5714 3.54382L38.4825 3.47653Z" fill="url(#paint1_linear)"/>
<path opacity="0.548" d="M39.0813 3.94808C46.3756 1.35333 51.8911 0.921992 53.2915 3.34766C55.4951 7.16446 46.4786 16.2677 33.1324 24.127L32.31 24.6066C18.5141 32.5716 5.65705 36.0424 3.40845 32.1477C2.00796 29.722 5.13936 25.161 11.0339 20.1412C11.0769 20.3958 11.1256 20.6505 11.1801 20.9046C6.29574 25.2707 3.751 29.141 4.87729 31.0918C6.76543 34.3621 18.484 31.395 31.0873 24.2686L31.86 23.8272C44.7536 16.383 53.5693 7.42886 51.6427 4.09177C50.5164 2.14103 45.8925 2.40961 39.6694 4.45638C39.5323 4.33248 39.3935 4.21101 39.2531 4.092L39.0813 3.94808Z" fill="white"/>
<defs>
<linearGradient id="paint0_linear" x1="45" y1="17.143" x2="17.5714" y2="2.14301" gradientUnits="userSpaceOnUse">
<stop stop-color="#006DFF"/>
<stop offset="1" stop-color="#12F5E1"/>
</linearGradient>
<linearGradient id="paint1_linear" x1="16" y1="16.5" x2="19.7335" y2="23.2575" gradientUnits="userSpaceOnUse">
<stop stop-color="#315077"/>
<stop offset="1" stop-color="#92C8FF"/>
</linearGradient>
</defs>
</svg>
