<svg width="80" height="48" viewBox="0 0 80 48" fill="none" xmlns="http://www.w3.org/2000/svg">
<path d="M13.2743 12.611V44.8902C13.2743 46.1769 12.2312 47.22 10.9445 47.22C10.5957 47.22 10.2513 47.1417 9.93675 46.9908L1.32205 42.8579C0.51404 42.4702 0 41.6535 0 40.7573V18.6561L13.2743 12.611ZM29.7175 5.12286V44.8902C29.7175 46.1769 28.6744 47.22 27.3877 47.22C27.0388 47.22 26.6944 47.1417 26.3799 46.9908L17.7652 42.8579C16.9572 42.4702 16.4432 41.6535 16.4432 40.7573V11.1679L29.7175 5.12286ZM32.8863 3.67977L34.2208 3.07205C38.0266 1.33894 42.0735 0.33501 46.1607 0.0636563V44.8902C46.1607 46.1769 45.1176 47.22 43.8309 47.22C43.482 47.22 43.1376 47.1417 42.8231 46.9908L34.2084 42.8579C33.4004 42.4702 32.8863 41.6535 32.8863 40.7573V3.67977ZM62.6038 3.03359V44.8902C62.6038 46.1769 61.5607 47.22 60.274 47.22C59.9252 47.22 59.5808 47.1417 59.2663 46.9908L50.6516 42.8579C49.8436 42.4702 49.3295 41.6535 49.3295 40.7573V0C53.4969 0.108895 57.6522 0.977628 61.5831 2.60978L62.6038 3.03359ZM79.047 18.9564V19.5095H79.0386V28.6085L65.7727 34.1165V4.34932L79.0386 9.85739V18.9564H79.047Z" fill="#2582FF"/>
</svg>
