<svg width="23" height="18" viewBox="0 0 23 18" fill="none" xmlns="http://www.w3.org/2000/svg">
<path fill-rule="evenodd" clip-rule="evenodd" d="M22.444 2.334C21.63 2.697 20.944 2.709 20.216 2.35C21.155 1.788 21.198 1.394 21.537 0.331C20.659 0.852 19.686 1.231 18.651 1.436C17.823 0.553 16.641 0 15.335 0C12.825 0 10.791 2.036 10.791 4.544C10.791 4.901 10.831 5.248 10.908 5.58C7.131 5.391 3.783 3.581 1.542 0.831C1.151 1.503 0.926 2.284 0.926 3.117C0.926 4.694 1.729 6.084 2.948 6.899C2.203 6.875 1.503 6.671 0.89 6.331C0.889 6.35 0.889 6.368 0.889 6.388C0.889 8.59 2.456 10.426 4.535 10.844C3.869 11.025 3.167 11.053 2.482 10.922C3.061 12.727 4.739 14.041 6.727 14.078C4.783 15.602 2.372 16.237 0 15.959C2.011 17.248 4.399 18 6.966 18C15.324 18 19.893 11.076 19.893 5.071C19.893 4.873 19.89 4.679 19.881 4.483C20.768 3.843 21.835 3.246 22.444 2.334Z" fill="#7E8B9C"/>
</svg>
