<svg width="49" height="43" viewBox="0 0 49 43" fill="none" xmlns="http://www.w3.org/2000/svg">
<g clip-path="url(#clip0)">
<path fill-rule="evenodd" clip-rule="evenodd" d="M18.2802 3.88685L2.01669 13.2772L0.20813 12.2328L18.2802 1.79893V3.88685Z" fill="url(#paint0_linear)"/>
<path fill-rule="evenodd" clip-rule="evenodd" d="M18.2801 3.85113V26.5913L1.9799 36.0016L1.97916 13.2619L18.2801 3.85113Z" fill="url(#paint1_linear)"/>
<path fill-rule="evenodd" clip-rule="evenodd" d="M0.232132 34.9494V12.2092L2.05572 13.2619L2.05497 36.0016L0.232132 34.9494Z" fill="url(#paint2_linear)"/>
<path fill-rule="evenodd" clip-rule="evenodd" d="M18.3146 3.88685L34.5781 13.2772L36.3867 12.2328L18.3146 1.79893V3.88685Z" fill="url(#paint3_linear)"/>
<path fill-rule="evenodd" clip-rule="evenodd" d="M18.3146 3.85113V26.5913L34.6149 36.0016L34.6156 13.2619L18.3146 3.85113Z" fill="url(#paint4_linear)"/>
<path fill-rule="evenodd" clip-rule="evenodd" d="M36.3627 34.9494V12.2092L34.5391 13.2619L34.5398 36.0016L36.3627 34.9494Z" fill="url(#paint5_linear)"/>
<path fill-rule="evenodd" clip-rule="evenodd" d="M18.3649 22.9842L26.9922 27.9662L18.3649 32.9482L9.7375 27.9662L18.3649 22.9842Z" fill="url(#paint6_linear)"/>
<path fill-rule="evenodd" clip-rule="evenodd" d="M18.3215 32.8959L26.9497 27.9154L26.9506 37.8779L18.3224 42.8585L18.3215 32.8959Z" fill="url(#paint7_linear)"/>
<path fill-rule="evenodd" clip-rule="evenodd" d="M18.4099 32.8959L18.4091 42.8585L9.78086 37.8779L9.78172 27.9154L18.4099 32.8959Z" fill="url(#paint8_linear)"/>
<path fill-rule="evenodd" clip-rule="evenodd" d="M18.3649 11.4921L26.9922 16.4741L18.3649 21.4561L9.7375 16.4741L18.3649 11.4921Z" fill="url(#paint9_linear)"/>
<path fill-rule="evenodd" clip-rule="evenodd" d="M18.3215 21.4038L26.9497 16.4233L26.9506 26.3858L18.3224 31.3663L18.3215 21.4038Z" fill="url(#paint10_linear)"/>
<path fill-rule="evenodd" clip-rule="evenodd" d="M21.2751 25.9018C20.8534 26.461 20.2634 26.5802 19.9572 26.1678C19.6511 25.7555 19.7447 24.9679 20.1664 24.4086C20.5881 23.8494 21.1781 23.7303 21.4843 24.1426C21.7905 24.5549 21.6968 25.3425 21.2751 25.9018ZM25.8179 23.2339C25.3962 23.7932 24.8062 23.9123 24.5 23.5C24.1938 23.0877 24.2875 22.3001 24.7092 21.7408C25.1308 21.1815 25.7209 21.0624 26.0271 21.4747C26.3332 21.8871 26.2396 22.6747 25.8179 23.2339Z" fill="black"/>
<path fill-rule="evenodd" clip-rule="evenodd" d="M21.6853 24.3421L27.5318 27.7176C28.0699 28.0283 28.2543 28.7164 27.9436 29.2545C27.6329 29.7927 26.9448 29.9771 26.4066 29.6664L20.5602 26.2909C20.022 25.9802 19.8377 25.2921 20.1484 24.7539C20.4591 24.2158 21.1472 24.0314 21.6853 24.3421ZM26.3159 21.6418L32.1624 25.0172C32.7005 25.3279 32.8849 26.016 32.5742 26.5542C32.2635 27.0923 31.5754 27.2767 31.0372 26.966L25.1908 23.5906C24.6526 23.2799 24.4683 22.5917 24.779 22.0536C25.0897 21.5154 25.7778 21.3311 26.3159 21.6418Z" fill="url(#paint11_linear)"/>
<path fill-rule="evenodd" clip-rule="evenodd" d="M18.4099 21.4038L18.4091 31.3663L9.78086 26.3858L9.78172 16.4233L18.4099 21.4038Z" fill="url(#paint12_linear)"/>
<path fill-rule="evenodd" clip-rule="evenodd" d="M33.5986 20.3117L42.226 25.2937L33.5986 30.2756L24.9712 25.2937L33.5986 20.3117Z" fill="url(#paint13_linear)"/>
<path fill-rule="evenodd" clip-rule="evenodd" d="M33.5553 30.2234L42.1835 25.2428L42.1843 35.2054L33.5561 40.1859L33.5553 30.2234Z" fill="url(#paint14_linear)"/>
<path opacity="0.1846" fill-rule="evenodd" clip-rule="evenodd" d="M37.8698 32.7144L40.0896 32.6056L41.1817 35.8127L39.0701 37.0016L37.8698 32.7144Z" fill="black"/>
<path fill-rule="evenodd" clip-rule="evenodd" d="M33.6437 30.2234L33.6428 40.1859L25.0146 35.2054L25.0155 25.2428L33.6437 30.2234Z" fill="url(#paint15_linear)"/>
<path fill-rule="evenodd" clip-rule="evenodd" d="M18.3649 0L26.9922 4.982L18.3649 9.964L9.7375 4.982L18.3649 0Z" fill="url(#paint16_linear)"/>
<path fill-rule="evenodd" clip-rule="evenodd" d="M18.3215 9.91171L26.9497 4.93119L26.9506 14.8937L18.3224 19.8742L18.3215 9.91171Z" fill="url(#paint17_linear)"/>
<path fill-rule="evenodd" clip-rule="evenodd" d="M18.4099 9.91171L18.4091 19.8742L9.78086 14.8937L9.78171 4.93119L18.4099 9.91171Z" fill="url(#paint18_linear)"/>
<path d="M42.1823 29.4982V26.8882C46.3858 28.3282 48.4572 29.9542 48.23 32.1155C48.0664 33.6726 46.7766 34.4669 44.8557 34.5645C43.3187 34.6426 41.405 34.3372 38.6174 33.6138C38.2906 33.529 37.7092 33.0559 37.8997 32.2384C38.0901 31.4209 38.6803 31.1329 39.0209 31.2213C41.5792 31.8852 43.4929 32.1796 44.7166 32.1174C45.2126 32.0922 45.5432 32.0106 45.7051 31.9109C45.7496 31.8835 45.7417 31.8959 45.746 31.8545C45.7739 31.5893 45.4552 31.1601 44.5287 30.596C43.9301 30.2315 43.147 29.8645 42.1823 29.4982Z" fill="#002F67"/>
</g>
<defs>
<linearGradient id="paint0_linear" x1="9.24414" y1="13.2772" x2="9.24414" y2="1.79893" gradientUnits="userSpaceOnUse">
<stop stop-color="#FFC1C1"/>
<stop offset="1" stop-color="#FF0000"/>
</linearGradient>
<linearGradient id="paint1_linear" x1="-0.495091" y1="26.0884" x2="8.50486" y2="26.0884" gradientUnits="userSpaceOnUse">
<stop stop-color="#FF2E2E"/>
<stop offset="1" stop-color="#710000"/>
</linearGradient>
<linearGradient id="paint2_linear" x1="1.14392" y1="12.5185" x2="1.14392" y2="36.3109" gradientUnits="userSpaceOnUse">
<stop stop-color="#FF304C"/>
<stop offset="1" stop-color="#FF6B6B"/>
</linearGradient>
<linearGradient id="paint3_linear" x1="27.3506" y1="13.2772" x2="27.3506" y2="1.79893" gradientUnits="userSpaceOnUse">
<stop stop-color="#FFC1C1"/>
<stop offset="1" stop-color="#FF0000"/>
</linearGradient>
<linearGradient id="paint4_linear" x1="37.0899" y1="26.0884" x2="28.0899" y2="26.0884" gradientUnits="userSpaceOnUse">
<stop stop-color="#FF2E2E"/>
<stop offset="1" stop-color="#710000"/>
</linearGradient>
<linearGradient id="paint5_linear" x1="35.4509" y1="12.5185" x2="35.4509" y2="36.3109" gradientUnits="userSpaceOnUse">
<stop stop-color="#FF304C"/>
<stop offset="1" stop-color="#FF6B6B"/>
</linearGradient>
<linearGradient id="paint6_linear" x1="18.3649" y1="39.2394" x2="18.3649" y2="22.9842" gradientUnits="userSpaceOnUse">
<stop stop-color="#A70000"/>
<stop offset="1" stop-color="#010000"/>
</linearGradient>
<linearGradient id="paint7_linear" x1="27.6816" y1="36.6118" x2="16.5341" y2="30.1758" gradientUnits="userSpaceOnUse">
<stop stop-color="#470202"/>
<stop offset="1" stop-color="#FF1743"/>
</linearGradient>
<linearGradient id="paint8_linear" x1="18.4228" y1="46.4996" x2="18.848" y2="32.7209" gradientUnits="userSpaceOnUse">
<stop stop-color="#FF0000"/>
<stop offset="1" stop-color="#FF6B6B"/>
</linearGradient>
<linearGradient id="paint9_linear" x1="18.3649" y1="27.7473" x2="18.3649" y2="11.4921" gradientUnits="userSpaceOnUse">
<stop stop-color="#A70000"/>
<stop offset="1" stop-color="#010000"/>
</linearGradient>
<linearGradient id="paint10_linear" x1="27.6816" y1="25.1197" x2="16.5341" y2="18.6837" gradientUnits="userSpaceOnUse">
<stop stop-color="#470202"/>
<stop offset="1" stop-color="#FF1743"/>
</linearGradient>
<linearGradient id="paint11_linear" x1="28" y1="22.5" x2="24.7566" y2="28.8975" gradientUnits="userSpaceOnUse">
<stop stop-color="white"/>
<stop offset="0.311218" stop-color="#6A6A6A"/>
<stop offset="0.636457" stop-color="white"/>
<stop offset="1" stop-color="#707070"/>
</linearGradient>
<linearGradient id="paint12_linear" x1="18.4228" y1="35.0075" x2="18.848" y2="21.2288" gradientUnits="userSpaceOnUse">
<stop stop-color="#FF0000"/>
<stop offset="1" stop-color="#FF6B6B"/>
</linearGradient>
<linearGradient id="paint13_linear" x1="33.5986" y1="30.2756" x2="33.5986" y2="20.3117" gradientUnits="userSpaceOnUse">
<stop stop-color="#92B3FF"/>
<stop offset="1" stop-color="#60A4FF"/>
</linearGradient>
<linearGradient id="paint14_linear" x1="32" y1="42" x2="46.4303" y2="29.2523" gradientUnits="userSpaceOnUse">
<stop stop-color="#002E6C"/>
<stop offset="1" stop-color="#4FA9FF"/>
</linearGradient>
<linearGradient id="paint15_linear" x1="26.4542" y1="24.4122" x2="26.4528" y2="41.016" gradientUnits="userSpaceOnUse">
<stop stop-color="#205193"/>
<stop offset="1" stop-color="#0383FF"/>
</linearGradient>
<linearGradient id="paint16_linear" x1="14.1803" y1="5.71891" x2="22.6769" y2="-0.212034" gradientUnits="userSpaceOnUse">
<stop stop-color="#FF9A9A"/>
<stop offset="1" stop-color="#FF5A5A"/>
</linearGradient>
<linearGradient id="paint17_linear" x1="27.6816" y1="13.6275" x2="16.5341" y2="7.19156" gradientUnits="userSpaceOnUse">
<stop stop-color="#470202"/>
<stop offset="1" stop-color="#FF1743"/>
</linearGradient>
<linearGradient id="paint18_linear" x1="18.4228" y1="23.5153" x2="18.848" y2="9.73668" gradientUnits="userSpaceOnUse">
<stop stop-color="#FF0000"/>
<stop offset="1" stop-color="#FF6B6B"/>
</linearGradient>
<clipPath id="clip0">
<rect width="48.6792" height="43" fill="white"/>
</clipPath>
</defs>
</svg>
