<svg width="44" height="40" viewBox="0 0 44 40" fill="none" xmlns="http://www.w3.org/2000/svg">
<path fill-rule="evenodd" clip-rule="evenodd" d="M24.3848 37.6936L24.4019 26.5808L24.3948 13.3561L24.4016 2.2449H3.67347C1.9828 2.2449 0.612244 3.61546 0.612244 5.30612V34.6846C0.612245 34.6885 0.612245 34.6885 0.612253 34.6923C0.616516 36.383 1.99052 37.7501 3.68119 37.7458L24.3848 37.6936Z" fill="url(#paint0_linear)" stroke="#00721A"/>
<path fill-rule="evenodd" clip-rule="evenodd" d="M38.205 38.9796H23.286L23.2922 26.2669C23.2924 25.7033 22.8358 25.2463 22.2722 25.246C22.1088 25.2459 21.9477 25.2851 21.8025 25.3603L19.6548 26.4725C16.7827 27.9599 13.2554 27.1361 11.3392 24.5306L11.3242 24.5101C9.38002 21.8666 9.38665 18.2644 11.3405 15.6281C13.2586 13.0401 16.7717 12.2271 19.6317 13.7094L21.7996 14.8329C22.3 15.0923 22.9158 14.8969 23.1751 14.3965C23.2501 14.2518 23.2894 14.0912 23.2896 13.9282L23.3051 1.08557L38.1899 1.03334C40.5569 1.02504 42.4824 2.93708 42.4907 5.304C42.4907 5.31152 42.4907 5.31152 42.4907 5.31903L42.4907 34.6939C42.4907 37.0608 40.5719 38.9796 38.205 38.9796Z" fill="url(#paint1_linear)" stroke="url(#paint2_linear)"/>
<defs>
<linearGradient id="paint0_linear" x1="13" y1="52.5" x2="14.0487" y2="2.2643" gradientUnits="userSpaceOnUse">
<stop stop-color="#00924C"/>
<stop offset="1" stop-color="#3EFFC4"/>
</linearGradient>
<linearGradient id="paint1_linear" x1="89.594" y1="97.7499" x2="10.9947" y2="10.4953" gradientUnits="userSpaceOnUse">
<stop stop-color="#8F00AA"/>
<stop offset="1" stop-color="#12C9F5"/>
</linearGradient>
<linearGradient id="paint2_linear" x1="39.3939" y1="38.9796" x2="8.02375" y2="5.69225" gradientUnits="userSpaceOnUse">
<stop offset="0.431738" stop-color="#205193"/>
<stop offset="1" stop-color="#0383FF"/>
</linearGradient>
</defs>
</svg>
