<svg width="53" height="44" viewBox="0 0 53 44" fill="none" xmlns="http://www.w3.org/2000/svg">
<path d="M25.9866 41.4472C36.727 41.4472 45.4338 32.7404 45.4338 22C45.4338 11.2596 36.727 2.55286 25.9866 2.55286C15.2462 2.55286 6.53944 11.2596 6.53944 22C6.53944 32.7404 15.2462 41.4472 25.9866 41.4472Z" fill="url(#paint0_linear)"/>
<path fill-rule="evenodd" clip-rule="evenodd" d="M39.9888 8.50439C43.3602 12.0016 45.4338 16.7587 45.4338 22C45.4338 27.7262 42.9589 32.8743 39.0205 36.4331C37.6088 34.6745 37.5097 30.4597 36.2857 26.738C35.1965 23.4261 31.6572 20.9506 31.6572 19.1854C31.6572 15.0411 35.0572 9.05979 39.9888 8.50439ZM18.0197 39.7457C11.2519 36.7026 6.53944 29.9016 6.53944 22C6.53944 13.9454 11.4363 7.03439 18.4153 4.08179C18.4573 4.10034 18.4975 4.11856 18.536 4.13645C19.9292 4.78421 21.4283 6.11397 23.0334 8.12572C23.5417 8.76284 23.7563 9.58544 23.6242 10.3897L21.5394 23.076C21.4484 23.6302 21.5212 24.1988 21.7491 24.7121L23.1481 27.864C23.3915 28.4122 23.1443 29.0539 22.5961 29.2973C22.4574 29.3589 22.3072 29.3907 22.1555 29.3907C21.1386 29.3907 20.2159 28.7952 19.797 27.8687L18.536 25.0794C14.2919 26.0118 12.3818 27.4489 12.8058 29.3907C13.4897 32.5229 15.903 36.4701 18.0197 39.7457Z" fill="url(#paint1_linear)"/>
<path d="M23.6353 2.69353C23.4294 2.71835 23.2245 2.74639 23.0206 2.77759C20.714 2.11628 18.5617 2.22348 16.8032 3.23871C11.3415 6.39204 11.5662 17.2164 17.4468 27.402C23.3275 37.5876 32.5893 43.1944 38.051 40.041C40.2064 38.7966 41.4762 36.3576 41.8623 33.2345C42.0185 33.0142 42.1703 32.7904 42.3175 32.5634C42.0942 36.4322 40.6815 39.5062 38.051 41.0249C32.1443 44.4352 22.516 38.6065 16.4629 28.1223C10.4098 17.638 10.1763 6.38531 16.0829 2.97508C18.2265 1.73749 20.8602 1.71666 23.6353 2.69353Z" fill="url(#paint2_radial)"/>
<g filter="url(#filter0_d)">
<path d="M18.4238 31.3634C19.0205 31.3634 19.5042 30.8797 19.5042 30.283C19.5042 29.6863 19.0205 29.2026 18.4238 29.2026C17.8271 29.2026 17.3434 29.6863 17.3434 30.283C17.3434 30.8797 17.8271 31.3634 18.4238 31.3634Z" fill="black"/>
</g>
<path d="M18.4238 31.3634C19.0205 31.3634 19.5042 30.8797 19.5042 30.283C19.5042 29.6863 19.0205 29.2026 18.4238 29.2026C17.8271 29.2026 17.3434 29.6863 17.3434 30.283C17.3434 30.8797 17.8271 31.3634 18.4238 31.3634Z" fill="white"/>
<g filter="url(#filter1_d)">
<path d="M13.382 19.8393C13.9786 19.8393 14.4624 19.3556 14.4624 18.7589C14.4624 18.1622 13.9786 17.6785 13.382 17.6785C12.7853 17.6785 12.3016 18.1622 12.3016 18.7589C12.3016 19.3556 12.7853 19.8393 13.382 19.8393Z" fill="black"/>
</g>
<path d="M13.382 19.8393C13.9786 19.8393 14.4624 19.3556 14.4624 18.7589C14.4624 18.1622 13.9786 17.6785 13.382 17.6785C12.7853 17.6785 12.3016 18.1622 12.3016 18.7589C12.3016 19.3556 12.7853 19.8393 13.382 19.8393Z" fill="white"/>
<path d="M41.3088 10.0984C43.9618 11.3699 45.8094 13.247 46.4501 15.6378C48.2153 22.2259 40.0933 30.0175 28.3996 33.1509C16.7059 36.2842 5.77624 33.5974 4.01097 27.0093C3.22484 24.0754 4.39957 20.9029 6.97738 18.0093C6.9209 18.2739 6.86998 18.5394 6.82462 18.8057C4.88933 21.287 4.06254 23.9096 4.70669 26.3136C6.33898 32.4054 16.8527 34.9899 28.2132 31.9458C39.5737 28.9018 47.3866 21.4067 45.7543 15.3149C45.2288 13.3536 43.7827 11.7559 41.6841 10.5925C41.5619 10.4263 41.4369 10.2615 41.3088 10.0984Z" fill="url(#paint3_radial)"/>
<g filter="url(#filter2_d)">
<path d="M34.2696 31.3634C34.8663 31.3634 35.35 30.8797 35.35 30.283C35.35 29.6863 34.8663 29.2026 34.2696 29.2026C33.673 29.2026 33.1892 29.6863 33.1892 30.283C33.1892 30.8797 33.673 31.3634 34.2696 31.3634Z" fill="white"/>
</g>
<path d="M11.5813 33.8844C12.178 33.8844 12.6617 33.4007 12.6617 32.804C12.6617 32.2073 12.178 31.7236 11.5813 31.7236C10.9846 31.7236 10.5009 32.2073 10.5009 32.804C10.5009 33.4007 10.9846 33.8844 11.5813 33.8844Z" fill="white"/>
<path d="M6.72264 24.6641C5.0608 22.2364 4.39926 19.687 5.03989 17.2962C6.80515 10.7081 17.7349 8.02136 29.4285 11.1547C41.1222 14.288 49.2442 22.0797 47.479 28.6677C46.6928 31.6016 44.0892 33.7618 40.41 34.9788C40.5912 34.7779 40.7681 34.5734 40.9405 34.3654C43.8571 33.1842 45.8844 31.3264 46.5286 28.9224C48.1609 22.8306 40.348 15.3355 28.9875 12.2915C17.6269 9.24741 7.11324 11.8319 5.48096 17.9237C4.95543 19.885 5.40896 21.9917 6.64472 24.0486C6.66735 24.2536 6.69331 24.4588 6.72264 24.6641Z" fill="url(#paint4_radial)"/>
<g filter="url(#filter3_d)">
<path d="M28.5075 12.6365C29.1042 12.6365 29.5879 12.1528 29.5879 11.5561C29.5879 10.9594 29.1042 10.4757 28.5075 10.4757C27.9108 10.4757 27.4271 10.9594 27.4271 11.5561C27.4271 12.1528 27.9108 12.6365 28.5075 12.6365Z" fill="black"/>
</g>
<path d="M28.5075 12.6365C29.1042 12.6365 29.5879 12.1528 29.5879 11.5561C29.5879 10.9594 29.1042 10.4757 28.5075 10.4757C27.9108 10.4757 27.4271 10.9594 27.4271 11.5561C27.4271 12.1528 27.9108 12.6365 28.5075 12.6365Z" fill="white"/>
<g filter="url(#filter4_d)">
<path d="M46.8743 29.2026C47.2721 29.2026 47.5945 28.8801 47.5945 28.4824C47.5945 28.0846 47.2721 27.7621 46.8743 27.7621C46.4765 27.7621 46.154 28.0846 46.154 28.4824C46.154 28.8801 46.4765 29.2026 46.8743 29.2026Z" fill="black"/>
</g>
<path d="M46.8743 29.2026C47.2721 29.2026 47.5945 28.8801 47.5945 28.4824C47.5945 28.0846 47.2721 27.7621 46.8743 27.7621C46.4765 27.7621 46.154 28.0846 46.154 28.4824C46.154 28.8801 46.4765 29.2026 46.8743 29.2026Z" fill="white"/>
<g filter="url(#filter5_d)">
<path d="M12.3015 12.6366C12.6993 12.6366 13.0218 12.3141 13.0218 11.9163C13.0218 11.5185 12.6993 11.196 12.3015 11.196C11.9038 11.196 11.5813 11.5185 11.5813 11.9163C11.5813 12.3141 11.9038 12.6366 12.3015 12.6366Z" fill="white"/>
</g>
<g filter="url(#filter6_d)">
<path d="M5.45903 22.3602C5.85683 22.3602 6.1793 22.0377 6.1793 21.6399C6.1793 21.2422 5.85683 20.9197 5.45903 20.9197C5.06124 20.9197 4.73877 21.2422 4.73877 21.6399C4.73877 22.0377 5.06124 22.3602 5.45903 22.3602Z" fill="black"/>
</g>
<path d="M5.45903 22.3602C5.85683 22.3602 6.1793 22.0377 6.1793 21.6399C6.1793 21.2422 5.85683 20.9197 5.45903 20.9197C5.06124 20.9197 4.73877 21.2422 4.73877 21.6399C4.73877 22.0377 5.06124 22.3602 5.45903 22.3602Z" fill="white"/>
<g filter="url(#filter7_d)">
<path d="M45.0736 13.717C45.4714 13.717 45.7939 13.3945 45.7939 12.9968C45.7939 12.599 45.4714 12.2765 45.0736 12.2765C44.6758 12.2765 44.3534 12.599 44.3534 12.9968C44.3534 13.3945 44.6758 13.717 45.0736 13.717Z" fill="black"/>
</g>
<path d="M45.0736 13.717C45.4714 13.717 45.7939 13.3945 45.7939 12.9968C45.7939 12.599 45.4714 12.2765 45.0736 12.2765C44.6758 12.2765 44.3534 12.599 44.3534 12.9968C44.3534 13.3945 44.6758 13.717 45.0736 13.717Z" fill="white"/>
<g filter="url(#filter8_d)">
<path d="M16.9833 3.63316C17.3811 3.63316 17.7035 3.31068 17.7035 2.91289C17.7035 2.5151 17.3811 2.19263 16.9833 2.19263C16.5855 2.19263 16.263 2.5151 16.263 2.91289C16.263 3.31068 16.5855 3.63316 16.9833 3.63316Z" fill="black"/>
</g>
<path d="M16.9833 3.63316C17.3811 3.63316 17.7035 3.31068 17.7035 2.91289C17.7035 2.5151 17.3811 2.19263 16.9833 2.19263C16.5855 2.19263 16.263 2.5151 16.263 2.91289C16.263 3.31068 16.5855 3.63316 16.9833 3.63316Z" fill="white"/>
<g filter="url(#filter9_d)">
<path d="M31.0284 41.4471C31.4262 41.4471 31.7487 41.1246 31.7487 40.7269C31.7487 40.3291 31.4262 40.0066 31.0284 40.0066C30.6307 40.0066 30.3082 40.3291 30.3082 40.7269C30.3082 41.1246 30.6307 41.4471 31.0284 41.4471Z" fill="black"/>
</g>
<path d="M31.0284 41.4471C31.4262 41.4471 31.7487 41.1246 31.7487 40.7269C31.7487 40.3291 31.4262 40.0066 31.0284 40.0066C30.6307 40.0066 30.3082 40.3291 30.3082 40.7269C30.3082 41.1246 30.6307 41.4471 31.0284 41.4471Z" fill="white"/>
<g filter="url(#filter10_d)">
<path d="M6.53943 30.6432C6.93723 30.6432 7.2597 30.3207 7.2597 29.9229C7.2597 29.5251 6.93723 29.2026 6.53943 29.2026C6.14164 29.2026 5.81917 29.5251 5.81917 29.9229C5.81917 30.3207 6.14164 30.6432 6.53943 30.6432Z" fill="black"/>
</g>
<path d="M6.53943 30.6432C6.93723 30.6432 7.2597 30.3207 7.2597 29.9229C7.2597 29.5251 6.93723 29.2026 6.53943 29.2026C6.14164 29.2026 5.81917 29.5251 5.81917 29.9229C5.81917 30.3207 6.14164 30.6432 6.53943 30.6432Z" fill="white"/>
<path d="M42.285 21.57C47.413 21.57 51.57 17.413 51.57 12.285C51.57 7.15704 47.413 3 42.285 3C37.157 3 33 7.15704 33 12.285C33 17.413 37.157 21.57 42.285 21.57Z" fill="url(#paint5_linear)" stroke="url(#paint6_linear)" stroke-width="2"/>
<path d="M42.3538 20.2632C46.722 20.2632 50.2632 16.722 50.2632 12.3538C50.2632 7.98551 46.722 4.44434 42.3538 4.44434C37.9855 4.44434 34.4443 7.98551 34.4443 12.3538C34.4443 16.722 37.9855 20.2632 42.3538 20.2632Z" fill="url(#paint7_linear)"/>
<path d="M41.4722 12.2318C40.7977 11.8875 40.2217 11.1862 40.2217 10.3769C40.2217 9.22761 41.1534 8.2959 42.3027 8.2959C43.452 8.2959 44.3838 9.22761 44.3838 10.3769C44.3838 11.1862 43.7237 11.8875 43.0491 12.2318L44.3005 16.6201H40.3049L41.4722 12.2318Z" fill="black" stroke="url(#paint8_linear)" stroke-linejoin="round"/>
<defs>
<filter id="filter0_d" x="15.3434" y="27.2026" width="6.1608" height="6.16079" filterUnits="userSpaceOnUse" color-interpolation-filters="sRGB">
<feFlood flood-opacity="0" result="BackgroundImageFix"/>
<feColorMatrix in="SourceAlpha" type="matrix" values="0 0 0 0 0 0 0 0 0 0 0 0 0 0 0 0 0 0 127 0"/>
<feOffset/>
<feGaussianBlur stdDeviation="1"/>
<feColorMatrix type="matrix" values="0 0 0 0 1 0 0 0 0 1 0 0 0 0 1 0 0 0 1 0"/>
<feBlend mode="normal" in2="BackgroundImageFix" result="effect1_dropShadow"/>
<feBlend mode="normal" in="SourceGraphic" in2="effect1_dropShadow" result="shape"/>
</filter>
<filter id="filter1_d" x="10.3016" y="15.6785" width="6.1608" height="6.1608" filterUnits="userSpaceOnUse" color-interpolation-filters="sRGB">
<feFlood flood-opacity="0" result="BackgroundImageFix"/>
<feColorMatrix in="SourceAlpha" type="matrix" values="0 0 0 0 0 0 0 0 0 0 0 0 0 0 0 0 0 0 127 0"/>
<feOffset/>
<feGaussianBlur stdDeviation="1"/>
<feColorMatrix type="matrix" values="0 0 0 0 1 0 0 0 0 1 0 0 0 0 1 0 0 0 1 0"/>
<feBlend mode="normal" in2="BackgroundImageFix" result="effect1_dropShadow"/>
<feBlend mode="normal" in="SourceGraphic" in2="effect1_dropShadow" result="shape"/>
</filter>
<filter id="filter2_d" x="31.1892" y="27.2026" width="6.1608" height="6.16079" filterUnits="userSpaceOnUse" color-interpolation-filters="sRGB">
<feFlood flood-opacity="0" result="BackgroundImageFix"/>
<feColorMatrix in="SourceAlpha" type="matrix" values="0 0 0 0 0 0 0 0 0 0 0 0 0 0 0 0 0 0 127 0"/>
<feOffset/>
<feGaussianBlur stdDeviation="1"/>
<feColorMatrix type="matrix" values="0 0 0 0 1 0 0 0 0 1 0 0 0 0 1 0 0 0 1 0"/>
<feBlend mode="normal" in2="BackgroundImageFix" result="effect1_dropShadow"/>
<feBlend mode="normal" in="SourceGraphic" in2="effect1_dropShadow" result="shape"/>
</filter>
<filter id="filter3_d" x="25.4271" y="8.47571" width="6.1608" height="6.1608" filterUnits="userSpaceOnUse" color-interpolation-filters="sRGB">
<feFlood flood-opacity="0" result="BackgroundImageFix"/>
<feColorMatrix in="SourceAlpha" type="matrix" values="0 0 0 0 0 0 0 0 0 0 0 0 0 0 0 0 0 0 127 0"/>
<feOffset/>
<feGaussianBlur stdDeviation="1"/>
<feColorMatrix type="matrix" values="0 0 0 0 1 0 0 0 0 1 0 0 0 0 1 0 0 0 1 0"/>
<feBlend mode="normal" in2="BackgroundImageFix" result="effect1_dropShadow"/>
<feBlend mode="normal" in="SourceGraphic" in2="effect1_dropShadow" result="shape"/>
</filter>
<filter id="filter4_d" x="44.154" y="25.7621" width="5.44053" height="5.44053" filterUnits="userSpaceOnUse" color-interpolation-filters="sRGB">
<feFlood flood-opacity="0" result="BackgroundImageFix"/>
<feColorMatrix in="SourceAlpha" type="matrix" values="0 0 0 0 0 0 0 0 0 0 0 0 0 0 0 0 0 0 127 0"/>
<feOffset/>
<feGaussianBlur stdDeviation="1"/>
<feColorMatrix type="matrix" values="0 0 0 0 1 0 0 0 0 1 0 0 0 0 1 0 0 0 1 0"/>
<feBlend mode="normal" in2="BackgroundImageFix" result="effect1_dropShadow"/>
<feBlend mode="normal" in="SourceGraphic" in2="effect1_dropShadow" result="shape"/>
</filter>
<filter id="filter5_d" x="0.581284" y="8.19604" width="23.4405" height="23.4405" filterUnits="userSpaceOnUse" color-interpolation-filters="sRGB">
<feFlood flood-opacity="0" result="BackgroundImageFix"/>
<feColorMatrix in="SourceAlpha" type="matrix" values="0 0 0 0 0 0 0 0 0 0 0 0 0 0 0 0 0 0 127 0"/>
<feOffset dy="8"/>
<feGaussianBlur stdDeviation="5.5"/>
<feColorMatrix type="matrix" values="0 0 0 0 1 0 0 0 0 1 0 0 0 0 1 0 0 0 1 0"/>
<feBlend mode="normal" in2="BackgroundImageFix" result="effect1_dropShadow"/>
<feBlend mode="normal" in="SourceGraphic" in2="effect1_dropShadow" result="shape"/>
</filter>
<filter id="filter6_d" x="2.73877" y="18.9197" width="5.44053" height="5.44053" filterUnits="userSpaceOnUse" color-interpolation-filters="sRGB">
<feFlood flood-opacity="0" result="BackgroundImageFix"/>
<feColorMatrix in="SourceAlpha" type="matrix" values="0 0 0 0 0 0 0 0 0 0 0 0 0 0 0 0 0 0 127 0"/>
<feOffset/>
<feGaussianBlur stdDeviation="1"/>
<feColorMatrix type="matrix" values="0 0 0 0 1 0 0 0 0 1 0 0 0 0 1 0 0 0 1 0"/>
<feBlend mode="normal" in2="BackgroundImageFix" result="effect1_dropShadow"/>
<feBlend mode="normal" in="SourceGraphic" in2="effect1_dropShadow" result="shape"/>
</filter>
<filter id="filter7_d" x="42.3534" y="10.2765" width="5.44053" height="5.44053" filterUnits="userSpaceOnUse" color-interpolation-filters="sRGB">
<feFlood flood-opacity="0" result="BackgroundImageFix"/>
<feColorMatrix in="SourceAlpha" type="matrix" values="0 0 0 0 0 0 0 0 0 0 0 0 0 0 0 0 0 0 127 0"/>
<feOffset/>
<feGaussianBlur stdDeviation="1"/>
<feColorMatrix type="matrix" values="0 0 0 0 1 0 0 0 0 1 0 0 0 0 1 0 0 0 1 0"/>
<feBlend mode="normal" in2="BackgroundImageFix" result="effect1_dropShadow"/>
<feBlend mode="normal" in="SourceGraphic" in2="effect1_dropShadow" result="shape"/>
</filter>
<filter id="filter8_d" x="14.263" y="0.192627" width="5.44053" height="5.44053" filterUnits="userSpaceOnUse" color-interpolation-filters="sRGB">
<feFlood flood-opacity="0" result="BackgroundImageFix"/>
<feColorMatrix in="SourceAlpha" type="matrix" values="0 0 0 0 0 0 0 0 0 0 0 0 0 0 0 0 0 0 127 0"/>
<feOffset/>
<feGaussianBlur stdDeviation="1"/>
<feColorMatrix type="matrix" values="0 0 0 0 1 0 0 0 0 1 0 0 0 0 1 0 0 0 1 0"/>
<feBlend mode="normal" in2="BackgroundImageFix" result="effect1_dropShadow"/>
<feBlend mode="normal" in="SourceGraphic" in2="effect1_dropShadow" result="shape"/>
</filter>
<filter id="filter9_d" x="28.3082" y="38.0066" width="5.44053" height="5.44053" filterUnits="userSpaceOnUse" color-interpolation-filters="sRGB">
<feFlood flood-opacity="0" result="BackgroundImageFix"/>
<feColorMatrix in="SourceAlpha" type="matrix" values="0 0 0 0 0 0 0 0 0 0 0 0 0 0 0 0 0 0 127 0"/>
<feOffset/>
<feGaussianBlur stdDeviation="1"/>
<feColorMatrix type="matrix" values="0 0 0 0 1 0 0 0 0 1 0 0 0 0 1 0 0 0 1 0"/>
<feBlend mode="normal" in2="BackgroundImageFix" result="effect1_dropShadow"/>
<feBlend mode="normal" in="SourceGraphic" in2="effect1_dropShadow" result="shape"/>
</filter>
<filter id="filter10_d" x="3.81917" y="27.2026" width="5.44053" height="5.44053" filterUnits="userSpaceOnUse" color-interpolation-filters="sRGB">
<feFlood flood-opacity="0" result="BackgroundImageFix"/>
<feColorMatrix in="SourceAlpha" type="matrix" values="0 0 0 0 0 0 0 0 0 0 0 0 0 0 0 0 0 0 127 0"/>
<feOffset/>
<feGaussianBlur stdDeviation="1"/>
<feColorMatrix type="matrix" values="0 0 0 0 1 0 0 0 0 1 0 0 0 0 1 0 0 0 1 0"/>
<feBlend mode="normal" in2="BackgroundImageFix" result="effect1_dropShadow"/>
<feBlend mode="normal" in="SourceGraphic" in2="effect1_dropShadow" result="shape"/>
</filter>
<linearGradient id="paint0_linear" x1="37.1037" y1="38.6163" x2="19.3595" y2="3.73378" gradientUnits="userSpaceOnUse">
<stop stop-color="#000B1A"/>
<stop offset="1" stop-color="#006AD5"/>
</linearGradient>
<linearGradient id="paint1_linear" x1="28.0936" y1="88.9782" x2="14.8631" y2="-5.00519" gradientUnits="userSpaceOnUse">
<stop stop-color="#D705FF"/>
<stop offset="1" stop-color="#29D6FF"/>
</linearGradient>
<radialGradient id="paint2_radial" cx="0" cy="0" r="1" gradientUnits="userSpaceOnUse" gradientTransform="translate(5.83418 -20.6433) rotate(-135) scale(21.5897 29.3222)">
<stop stop-color="#EEFFFF"/>
<stop offset="1" stop-color="#72AEFF" stop-opacity="0.576349"/>
</radialGradient>
<radialGradient id="paint3_radial" cx="0" cy="0" r="1" gradientUnits="userSpaceOnUse" gradientTransform="translate(-0.705639 -25.3764) rotate(-135) scale(30.3499 20.0621)">
<stop stop-color="#EEFFFF"/>
<stop offset="1" stop-color="#72AEFF" stop-opacity="0.85"/>
</radialGradient>
<radialGradient id="paint4_radial" cx="0" cy="0" r="1" gradientUnits="userSpaceOnUse" gradientTransform="translate(-1.11863 -26.1269) rotate(-135) scale(30.3499 20.3767)">
<stop stop-color="#EEFFFF"/>
<stop offset="1" stop-color="#72AEFF" stop-opacity="0.576349"/>
</radialGradient>
<linearGradient id="paint5_linear" x1="47.5929" y1="20.2184" x2="39.1209" y2="3.56383" gradientUnits="userSpaceOnUse">
<stop stop-color="#000B1A"/>
<stop offset="1" stop-color="#93A1AF"/>
</linearGradient>
<linearGradient id="paint6_linear" x1="51.0862" y1="26.7098" x2="30.4411" y2="-20.2076" gradientUnits="userSpaceOnUse">
<stop stop-color="#000B1A"/>
<stop offset="1" stop-color="#93A1AF"/>
</linearGradient>
<linearGradient id="paint7_linear" x1="49.8511" y1="24.6416" x2="39.6584" y2="4.92463" gradientUnits="userSpaceOnUse">
<stop stop-color="#607593"/>
<stop offset="1" stop-color="#C7D3DF"/>
</linearGradient>
<linearGradient id="paint8_linear" x1="42.7959" y1="18.9241" x2="39.0134" y2="6.83687" gradientUnits="userSpaceOnUse">
<stop stop-color="#000B1A"/>
<stop offset="1" stop-color="#DBE4ED"/>
</linearGradient>
</defs>
</svg>
