<svg width="51" height="40" viewBox="0 0 51 40" fill="none" xmlns="http://www.w3.org/2000/svg">
<g clip-path="url(#clip0)">
<path d="M2.18182 1.13H27.8541C29.0591 1.13 30.0359 2.10684 30.0359 3.31182V14.5669C30.0359 15.7719 29.0591 16.7487 27.8541 16.7487H2.18182C0.976833 16.7487 0 15.7719 0 14.5669V3.31182C0 2.10684 0.976833 1.13 2.18182 1.13Z" fill="url(#paint0_linear)"/>
<path fill-rule="evenodd" clip-rule="evenodd" d="M2.18181 1.8573C1.37849 1.8573 0.727264 2.50852 0.727264 3.31185V14.5669C0.727264 15.3702 1.37849 16.0214 2.18181 16.0214H27.8541C28.6574 16.0214 29.3086 15.3702 29.3086 14.5669V3.31185C29.3086 2.50852 28.6574 1.8573 27.8541 1.8573H2.18181Z" fill="url(#paint1_linear)" stroke="url(#paint2_linear)" stroke-width="2"/>
<path opacity="0.148461" fill-rule="evenodd" clip-rule="evenodd" d="M6.77966 0.564941H9.03955L13.5593 15.8192H2.25989L6.77966 0.564941Z" fill="url(#paint3_linear)"/>
<path opacity="0.148461" fill-rule="evenodd" clip-rule="evenodd" d="M20.339 0.564941H22.5989L27.1186 15.8192H15.8192L20.339 0.564941Z" fill="url(#paint4_linear)"/>
<path opacity="0.330357" fill-rule="evenodd" clip-rule="evenodd" d="M21.6364 11.3334H30V16.7487H18V14.9697C18 12.9614 19.6281 11.3334 21.6364 11.3334Z" fill="black"/>
<path fill-rule="evenodd" clip-rule="evenodd" d="M6.06363 1.33129H9.75559C9.59736 0.772801 9.08375 0.363647 8.47458 0.363647H7.34464C6.73546 0.363647 6.22186 0.772801 6.06363 1.33129Z" fill="url(#paint5_linear)" stroke="url(#paint6_linear)"/>
<path d="M8.74982 2.54968L7.06939 2.54968C6.59735 2.54968 6.21469 2.16702 6.21469 1.69498L9.60452 1.69498C9.60452 2.16702 9.22186 2.54968 8.74982 2.54968Z" fill="url(#paint7_linear)"/>
<path d="M8.74982 2.54968L7.06939 2.54968C6.59735 2.54968 6.21469 2.16702 6.21469 1.69498L9.60452 1.69498C9.60452 2.16702 9.22186 2.54968 8.74982 2.54968Z" fill="white"/>
<path fill-rule="evenodd" clip-rule="evenodd" d="M19.623 1.33129H23.3149C23.1567 0.772801 22.6431 0.363647 22.0339 0.363647H20.904C20.2948 0.363647 19.7812 0.772801 19.623 1.33129Z" fill="url(#paint8_linear)" stroke="url(#paint9_linear)"/>
<path d="M22.3091 2.54968L20.6287 2.54968C20.1567 2.54968 19.774 2.16702 19.774 1.69498L23.1638 1.69498C23.1638 2.16702 22.7812 2.54968 22.3091 2.54968Z" fill="url(#paint10_linear)"/>
<path d="M22.3091 2.54968L20.6287 2.54968C20.1567 2.54968 19.774 2.16702 19.774 1.69498L23.1638 1.69498C23.1638 2.16702 22.7812 2.54968 22.3091 2.54968Z" fill="white"/>
<path fill-rule="evenodd" clip-rule="evenodd" d="M12.9944 16.7487H16.9492V39.6159H12.9944V16.7487Z" fill="url(#paint11_linear)"/>
<path opacity="0.453567" fill-rule="evenodd" clip-rule="evenodd" d="M12.9944 16.7487H16.9492V17.9774H12.9944V16.7487Z" fill="black"/>
<path d="M22.1818 12.5238C21.3785 12.5238 20.7273 13.175 20.7273 13.9783V25.2334C20.7273 26.0367 21.3785 26.6879 22.1818 26.6879H47.8541C48.6574 26.6879 49.3086 26.0367 49.3086 25.2334V13.9783C49.3086 13.175 48.6574 12.5238 47.8541 12.5238H22.1818Z" fill="url(#paint12_linear)" stroke="url(#paint13_linear)" stroke-width="2"/>
<path opacity="0.570824" fill-rule="evenodd" clip-rule="evenodd" d="M26.7797 11.2316H29.0396L33.5593 26.4858H22.2599L26.7797 11.2316Z" fill="url(#paint14_linear)"/>
<path opacity="0.570824" fill-rule="evenodd" clip-rule="evenodd" d="M40.339 11.2316H42.5989L47.1186 26.4858H35.8192L40.339 11.2316Z" fill="url(#paint15_linear)"/>
<path fill-rule="evenodd" clip-rule="evenodd" d="M26.0636 11.9979H29.7556C29.5973 11.4394 29.0837 11.0303 28.4746 11.0303H27.3446C26.7354 11.0303 26.2218 11.4394 26.0636 11.9979Z" fill="url(#paint16_linear)" stroke="url(#paint17_linear)"/>
<path d="M28.7498 13.2163H27.0694C26.5973 13.2163 26.2147 12.8336 26.2147 12.3616H29.6045C29.6045 12.8336 29.2218 13.2163 28.7498 13.2163Z" fill="url(#paint18_linear)"/>
<path d="M28.7498 13.2163H27.0694C26.5973 13.2163 26.2147 12.8336 26.2147 12.3616H29.6045C29.6045 12.8336 29.2218 13.2163 28.7498 13.2163Z" fill="white"/>
<path fill-rule="evenodd" clip-rule="evenodd" d="M39.6229 11.9979H43.3149C43.1567 11.4394 42.643 11.0303 42.0339 11.0303H40.9039C40.2948 11.0303 39.7812 11.4394 39.6229 11.9979Z" fill="url(#paint19_linear)" stroke="url(#paint20_linear)"/>
<path d="M42.3091 13.2163H40.6287C40.1566 13.2163 39.774 12.8336 39.774 12.3616H43.1638C43.1638 12.8336 42.7812 13.2163 42.3091 13.2163Z" fill="url(#paint21_linear)"/>
<path d="M42.3091 13.2163H40.6287C40.1566 13.2163 39.774 12.8336 39.774 12.3616H43.1638C43.1638 12.8336 42.7812 13.2163 42.3091 13.2163Z" fill="white"/>
<path fill-rule="evenodd" clip-rule="evenodd" d="M32.9944 27.4153H36.9492V39.6158H32.9944V27.4153Z" fill="url(#paint22_linear)"/>
<path opacity="0.453567" fill-rule="evenodd" clip-rule="evenodd" d="M32.9944 27.4153H36.9492V28.6441H32.9944V27.4153Z" fill="black"/>
<path fill-rule="evenodd" clip-rule="evenodd" d="M25 36.52C28.3466 36.52 32.9996 36.9583 36.3462 37.2933C39.3382 37.5928 43.3239 38.3535 48.3034 39.5756C48.302 39.8148 48.335 39.8693 48.3217 39.9233C48.3107 39.9684 48.2703 40 48.2239 40H2.5C2.33028 39.974 2.19269 39.8364 2.19269 39.6667C2.19269 39.5261 2.28815 39.4034 2.42446 39.3688C7.87044 37.9877 12.1734 37.1596 15.3333 36.8845" fill="url(#paint23_linear)"/>
</g>
<defs>
<linearGradient id="paint0_linear" x1="30.0359" y1="11.051" x2="4.66435" y2="-2.14222" gradientUnits="userSpaceOnUse">
<stop stop-color="#B341FF"/>
<stop offset="1" stop-color="#2582FF"/>
</linearGradient>
<linearGradient id="paint1_linear" x1="26.2299" y1="17.201" x2="16.7814" y2="-0.815825" gradientUnits="userSpaceOnUse">
<stop stop-color="#205193"/>
<stop offset="1" stop-color="#0383FF" stop-opacity="0"/>
</linearGradient>
<linearGradient id="paint2_linear" x1="28.564" y1="11.9144" x2="11.3137" y2="-9.47578" gradientUnits="userSpaceOnUse">
<stop stop-color="#000B1A"/>
<stop offset="1" stop-color="#93A1AF"/>
</linearGradient>
<linearGradient id="paint3_linear" x1="7.9096" y1="2.6826" x2="7.9096" y2="15.8192" gradientUnits="userSpaceOnUse">
<stop stop-color="white"/>
<stop offset="1" stop-color="white" stop-opacity="0"/>
</linearGradient>
<linearGradient id="paint4_linear" x1="21.4689" y1="2.6826" x2="21.4689" y2="15.8192" gradientUnits="userSpaceOnUse">
<stop stop-color="white"/>
<stop offset="1" stop-color="white" stop-opacity="0"/>
</linearGradient>
<linearGradient id="paint5_linear" x1="6.69057" y1="1.33129" x2="6.69057" y2="0.363647" gradientUnits="userSpaceOnUse">
<stop stop-color="#3D536E"/>
<stop offset="1" stop-color="#93A1AF"/>
</linearGradient>
<linearGradient id="paint6_linear" x1="6.78871" y1="1.33129" x2="6.78871" y2="-0.1807" gradientUnits="userSpaceOnUse">
<stop stop-color="#000B1A"/>
<stop offset="1" stop-color="#93A1AF"/>
</linearGradient>
<linearGradient id="paint7_linear" x1="9.02888" y1="1.69498" x2="9.02888" y2="2.54968" gradientUnits="userSpaceOnUse">
<stop stop-color="#3D536E"/>
<stop offset="1" stop-color="#93A1AF"/>
</linearGradient>
<linearGradient id="paint8_linear" x1="20.2499" y1="1.33129" x2="20.2499" y2="0.363647" gradientUnits="userSpaceOnUse">
<stop stop-color="#3D536E"/>
<stop offset="1" stop-color="#93A1AF"/>
</linearGradient>
<linearGradient id="paint9_linear" x1="20.348" y1="1.33129" x2="20.348" y2="-0.1807" gradientUnits="userSpaceOnUse">
<stop stop-color="#000B1A"/>
<stop offset="1" stop-color="#93A1AF"/>
</linearGradient>
<linearGradient id="paint10_linear" x1="22.5882" y1="1.69498" x2="22.5882" y2="2.54968" gradientUnits="userSpaceOnUse">
<stop stop-color="#3D536E"/>
<stop offset="1" stop-color="#93A1AF"/>
</linearGradient>
<linearGradient id="paint11_linear" x1="16.9492" y1="29.4111" x2="12.9944" y2="29.4111" gradientUnits="userSpaceOnUse">
<stop stop-color="#292F3D"/>
<stop offset="0.491974" stop-color="#5B657C"/>
<stop offset="1" stop-color="#292F3D"/>
</linearGradient>
<linearGradient id="paint12_linear" x1="20.7273" y1="18.0762" x2="45.1239" y2="30.0484" gradientUnits="userSpaceOnUse">
<stop stop-color="#FF659C"/>
<stop offset="1" stop-color="#FF8500"/>
</linearGradient>
<linearGradient id="paint13_linear" x1="48.564" y1="22.5809" x2="31.3137" y2="1.19073" gradientUnits="userSpaceOnUse">
<stop stop-color="#000B1A"/>
<stop offset="1" stop-color="#93A1AF"/>
</linearGradient>
<linearGradient id="paint14_linear" x1="27.9096" y1="13.3492" x2="27.9096" y2="26.4858" gradientUnits="userSpaceOnUse">
<stop stop-color="white"/>
<stop offset="1" stop-color="white" stop-opacity="0"/>
</linearGradient>
<linearGradient id="paint15_linear" x1="41.4689" y1="13.3492" x2="41.4689" y2="26.4858" gradientUnits="userSpaceOnUse">
<stop stop-color="white"/>
<stop offset="1" stop-color="white" stop-opacity="0"/>
</linearGradient>
<linearGradient id="paint16_linear" x1="26.6905" y1="11.9979" x2="26.6905" y2="11.0303" gradientUnits="userSpaceOnUse">
<stop stop-color="#3D536E"/>
<stop offset="1" stop-color="#93A1AF"/>
</linearGradient>
<linearGradient id="paint17_linear" x1="26.7887" y1="11.9979" x2="26.7887" y2="10.4859" gradientUnits="userSpaceOnUse">
<stop stop-color="#000B1A"/>
<stop offset="1" stop-color="#93A1AF"/>
</linearGradient>
<linearGradient id="paint18_linear" x1="29.0289" y1="12.3616" x2="29.0289" y2="13.2163" gradientUnits="userSpaceOnUse">
<stop stop-color="#3D536E"/>
<stop offset="1" stop-color="#93A1AF"/>
</linearGradient>
<linearGradient id="paint19_linear" x1="40.2499" y1="11.9979" x2="40.2499" y2="11.0303" gradientUnits="userSpaceOnUse">
<stop stop-color="#3D536E"/>
<stop offset="1" stop-color="#93A1AF"/>
</linearGradient>
<linearGradient id="paint20_linear" x1="40.348" y1="11.9979" x2="40.348" y2="10.4859" gradientUnits="userSpaceOnUse">
<stop stop-color="#000B1A"/>
<stop offset="1" stop-color="#93A1AF"/>
</linearGradient>
<linearGradient id="paint21_linear" x1="42.5882" y1="12.3616" x2="42.5882" y2="13.2163" gradientUnits="userSpaceOnUse">
<stop stop-color="#3D536E"/>
<stop offset="1" stop-color="#93A1AF"/>
</linearGradient>
<linearGradient id="paint22_linear" x1="36.9492" y1="34.1712" x2="32.9944" y2="34.1712" gradientUnits="userSpaceOnUse">
<stop stop-color="#292F3D"/>
<stop offset="0.491974" stop-color="#5B657C"/>
<stop offset="1" stop-color="#292F3D"/>
</linearGradient>
<linearGradient id="paint23_linear" x1="25.2588" y1="37" x2="25.2588" y2="40" gradientUnits="userSpaceOnUse">
<stop stop-color="#00EA73"/>
<stop offset="1" stop-color="#009D4D"/>
</linearGradient>
<clipPath id="clip0">
<rect width="50.1818" height="40" fill="white"/>
</clipPath>
</defs>
</svg>
