<svg width="35" height="40" viewBox="0 0 35 40" fill="none" xmlns="http://www.w3.org/2000/svg">
<g clip-path="url(#clip0)">
<path fill-rule="evenodd" clip-rule="evenodd" d="M24.2071 15.6714L25.9357 17.4L25.6103 18.7026L27.3073 20.3996L28.8374 20.3018L31.2834 22.7478L31.4953 24.4311L33.4337 24.722L33.6962 29.1847L29.4207 28.9332L20.0934 19.606C19.8565 19.6966 19.6145 19.7751 19.3683 19.8411C16.8318 20.5208 14.1253 19.7956 12.2684 17.9387C10.4116 16.0818 9.68638 13.3754 10.366 10.8389C11.0457 8.30232 13.027 6.32106 15.5635 5.6414C18.1 4.96174 20.8065 5.68693 22.6633 7.5438C24.5202 9.40067 25.2454 12.1071 24.5657 14.6437C24.4714 14.9958 24.3514 15.3391 24.2071 15.6714ZM16.8388 12.1142C17.434 11.5191 17.434 10.5542 16.8388 9.9591C16.2437 9.36398 15.2788 9.36398 14.6837 9.9591C14.0886 10.5542 14.0886 11.5191 14.6837 12.1142C15.2788 12.7093 16.2437 12.7093 16.8388 12.1142Z" fill="url(#paint0_linear)" stroke="url(#paint1_linear)" stroke-linejoin="round"/>
<path opacity="0.165806" d="M21.0406 10.1711L14.8918 16.3198C14.722 16.4896 14.722 16.7649 14.8918 16.9347C15.0616 17.1045 15.3369 17.1045 15.5067 16.9347L21.6555 10.786C21.8252 10.6162 21.8252 10.3409 21.6555 10.1711C21.4857 10.0013 21.2104 10.0013 21.0406 10.1711Z" fill="#D8D8D8"/>
<path opacity="0.165806" d="M21.348 12.3232L17.0439 16.6273C16.8741 16.7971 16.8741 17.0724 17.0439 17.2422C17.2137 17.412 17.4889 17.412 17.6587 17.2422L21.9629 12.938C22.1327 12.7682 22.1327 12.493 21.9629 12.3232C21.7931 12.1534 21.5178 12.1534 21.348 12.3232Z" fill="#D8D8D8"/>
<path opacity="0.165806" d="M21.348 14.7827L19.5034 16.6273C19.3336 16.7971 19.3336 17.0724 19.5034 17.2422C19.6732 17.412 19.9484 17.412 20.1182 17.2422L21.9629 15.3975C22.1327 15.2277 22.1327 14.9525 21.9629 14.7827C21.7931 14.6129 21.5178 14.6129 21.348 14.7827Z" fill="#D8D8D8"/>
<path fill-rule="evenodd" clip-rule="evenodd" d="M17.0454 23.6126V25.9643L15.8943 26.6553V29.0552L17.0454 30.068V33.5272L16.0049 34.8673L17.1699 36.4437L14.1999 39.7849L11.3545 36.5837V23.4386L7.00027 20.9247V12.4373L14.3506 8.1936L21.7009 12.4373V20.9247L17.0454 23.6126ZM14.3506 15.7942C15.1922 15.7942 15.8745 15.112 15.8745 14.2703C15.8745 13.4287 15.1922 12.7464 14.3506 12.7464C13.509 12.7464 12.8267 13.4287 12.8267 14.2703C12.8267 15.112 13.509 15.7942 14.3506 15.7942Z" fill="url(#paint2_linear)" stroke="url(#paint3_linear)" stroke-linejoin="round"/>
<path opacity="0.165806" d="M18.6956 17.3913H10C9.75987 17.3913 9.56522 17.586 9.56522 17.8261C9.56522 18.0662 9.75987 18.2609 10 18.2609H18.6956C18.9358 18.2609 19.1304 18.0662 19.1304 17.8261C19.1304 17.586 18.9358 17.3913 18.6956 17.3913Z" fill="#D8D8D8"/>
<path opacity="0.165806" d="M17.3913 19.1304H11.3044C11.0642 19.1304 10.8696 19.3251 10.8696 19.5652C10.8696 19.8053 11.0642 20 11.3044 20H17.3913C17.6314 20 17.8261 19.8053 17.8261 19.5652C17.8261 19.3251 17.6314 19.1304 17.3913 19.1304Z" fill="#D8D8D8"/>
<path opacity="0.165806" d="M15.6522 20.8696H13.0435C12.8033 20.8696 12.6087 21.0642 12.6087 21.3044C12.6087 21.5445 12.8033 21.7391 13.0435 21.7391H15.6522C15.8923 21.7391 16.0869 21.5445 16.0869 21.3044C16.0869 21.0642 15.8923 20.8696 15.6522 20.8696Z" fill="#D8D8D8"/>
<path d="M16.5729 5.00801C15.1854 2.04914 12.1798 0 8.69565 0C3.89318 0 0 3.89318 0 8.69565C0 13.4981 3.89318 17.3913 8.69565 17.3913C11.1945 17.3913 13.5244 16.3304 15.1628 14.5087C15.4839 14.1516 15.4548 13.6018 15.0977 13.2807C14.7407 12.9595 14.1909 12.9887 13.8697 13.3457C12.5578 14.8044 10.696 15.6522 8.69565 15.6522C4.85367 15.6522 1.73913 12.5376 1.73913 8.69565C1.73913 4.85367 4.85367 1.73913 8.69565 1.73913C11.3476 1.73913 13.653 3.22311 14.8267 5.40598C15.3559 5.24732 15.666 5.17647 16.5729 5.00801Z" fill="url(#paint4_linear)"/>
<path opacity="0.509719" d="M15.4384 5.33441C14.151 2.77698 11.5022 1.02249 8.44373 1.02249C4.1215 1.02249 0.617645 4.52635 0.617645 8.84858C0.617645 13.1708 4.1215 16.6747 8.44373 16.6747C11.0256 16.6747 13.3154 15.4244 14.7408 13.4964" stroke="black" stroke-opacity="0.4" stroke-width="0.5"/>
</g>
<defs>
<linearGradient id="paint0_linear" x1="12.2684" y1="7.5438" x2="33.8028" y2="29.0781" gradientUnits="userSpaceOnUse">
<stop stop-color="#FFA500"/>
<stop offset="1" stop-color="#FFD138"/>
</linearGradient>
<linearGradient id="paint1_linear" x1="12.6026" y1="7.878" x2="33.8028" y2="29.0781" gradientUnits="userSpaceOnUse">
<stop stop-color="#DD9500"/>
<stop offset="0.506127" stop-color="white"/>
<stop offset="1" stop-color="#D4890A"/>
</linearGradient>
<linearGradient id="paint2_linear" x1="11.8821" y1="0.837049" x2="24.3911" y2="36.4303" gradientUnits="userSpaceOnUse">
<stop stop-color="#003BAA"/>
<stop offset="1" stop-color="#0086FF"/>
</linearGradient>
<linearGradient id="paint3_linear" x1="15.8686" y1="39.7849" x2="3.6633" y2="13.8146" gradientUnits="userSpaceOnUse">
<stop stop-color="#205193"/>
<stop offset="0.504722" stop-color="#BFDEFF"/>
<stop offset="1" stop-color="#5CAFFF"/>
</linearGradient>
<linearGradient id="paint4_linear" x1="15.8114" y1="15.6189" x2="6.6564" y2="0.380685" gradientUnits="userSpaceOnUse">
<stop stop-color="#838CAC"/>
<stop offset="1" stop-color="#D8EBFF"/>
</linearGradient>
<clipPath id="clip0">
<rect width="34.7826" height="40" fill="white"/>
</clipPath>
</defs>
</svg>
