<svg width="47" height="43" viewBox="0 0 47 43" fill="none" xmlns="http://www.w3.org/2000/svg">
<path d="M41.5385 16.9231C41.5385 7.57672 33.273 0 23.0769 0C12.8809 0 4.61539 7.57672 4.61539 16.9231H9.04616C9.04616 9.81985 15.3279 4.06154 23.0769 4.06154C30.8259 4.06154 37.1077 9.81985 37.1077 16.9231H41.5385Z" fill="url(#paint0_linear)"/>
<path d="M31.857 39.4615C37.0074 38.0088 40.5385 34.4268 40.5385 30.2308L39.0526 31.1023C39.0526 34.1476 36.253 36.9876 31.9295 38.2071L31.857 39.4615Z" fill="url(#paint1_linear)"/>
<path d="M41.1538 30.7692L37.5619 31.2482C36.5091 31.3885 35.5419 30.6489 35.4015 29.5961C35.3902 29.5119 35.3846 29.427 35.3846 29.342V16.8119C35.3846 15.7498 36.2456 14.8888 37.3077 14.8888C37.3927 14.8888 37.4776 14.8944 37.5619 14.9057L41.1538 15.3846C44.4565 15.825 46.9231 18.6422 46.9231 21.9741V24.1797C46.9231 27.5116 44.4565 30.3289 41.1538 30.7692Z" fill="url(#paint2_linear)"/>
<path fill-rule="evenodd" clip-rule="evenodd" d="M40.7692 30.8205L37.5619 31.2482C36.5091 31.3885 35.5419 30.6489 35.4015 29.5961C35.3902 29.5119 35.3846 29.427 35.3846 29.342V16.8119C35.3846 15.7498 36.2456 14.8888 37.3077 14.8888C37.3927 14.8888 37.4776 14.8944 37.5619 14.9057L40.7692 15.3333V30.8205Z" fill="url(#paint3_linear)"/>
<path d="M5.76922 30.7692L9.36121 31.2482C10.414 31.3885 11.3812 30.6489 11.5216 29.5961C11.5328 29.5119 11.5385 29.427 11.5385 29.342V16.8119C11.5385 15.7498 10.6775 14.8888 9.61538 14.8888C9.53038 14.8888 9.44547 14.8944 9.36121 14.9057L5.76922 15.3846C2.46654 15.825 -9.53674e-06 18.6422 -9.53674e-06 21.9741V24.1797C-9.53674e-06 27.5116 2.46654 30.3289 5.76922 30.7692Z" fill="url(#paint4_linear)"/>
<path fill-rule="evenodd" clip-rule="evenodd" d="M6.15384 30.8205L9.36121 31.2482C10.414 31.3885 11.3812 30.6489 11.5216 29.5961C11.5328 29.5119 11.5385 29.427 11.5385 29.342V16.8119C11.5385 15.7498 10.6775 14.8888 9.61538 14.8888C9.53038 14.8888 9.44547 14.8944 9.36121 14.9057L6.15384 15.3333V30.8205Z" fill="url(#paint5_linear)"/>
<path d="M29.4029 37.1097L30.0999 37.053C31.21 36.9627 32.2261 37.6787 32.5143 38.7546C32.7967 39.8085 32.2332 40.9047 31.2118 41.2885L30.2875 41.6357C29.1248 42.0725 27.8281 41.4841 27.3913 40.3214C27.3459 40.2005 27.311 40.076 27.287 39.9492L27.2775 39.8988C27.035 38.6194 27.8757 37.3856 29.1552 37.1432C29.2371 37.1276 29.3198 37.1165 29.4029 37.1097Z" fill="url(#paint6_linear)"/>
<defs>
<linearGradient id="paint0_linear" x1="25.0156" y1="22.8649" x2="25.0156" y2="0" gradientUnits="userSpaceOnUse">
<stop/>
<stop offset="0.30515" stop-color="#000F23"/>
<stop offset="0.409795" stop-color="#003274"/>
<stop offset="1" stop-color="#0055C6"/>
</linearGradient>
<linearGradient id="paint1_linear" x1="40.0372" y1="32.3824" x2="39.383" y2="39.4546" gradientUnits="userSpaceOnUse">
<stop/>
<stop offset="1" stop-color="#0055C6"/>
</linearGradient>
<linearGradient id="paint2_linear" x1="44.0179" y1="36.3077" x2="33.7863" y2="17.3149" gradientUnits="userSpaceOnUse">
<stop stop-color="#B341FF"/>
<stop offset="1" stop-color="#FF78D1"/>
</linearGradient>
<linearGradient id="paint3_linear" x1="38.368" y1="36.3077" x2="33.2689" y2="16.0244" gradientUnits="userSpaceOnUse">
<stop stop-color="#270041"/>
<stop offset="1" stop-color="#0046A5"/>
</linearGradient>
<linearGradient id="paint4_linear" x1="2.90521" y1="36.3077" x2="13.1367" y2="17.3149" gradientUnits="userSpaceOnUse">
<stop stop-color="#B341FF"/>
<stop offset="1" stop-color="#FF78D1"/>
</linearGradient>
<linearGradient id="paint5_linear" x1="8.55508" y1="36.3077" x2="13.6542" y2="16.0244" gradientUnits="userSpaceOnUse">
<stop stop-color="#270041"/>
<stop offset="1" stop-color="#0046A5"/>
</linearGradient>
<linearGradient id="paint6_linear" x1="34.9316" y1="42.091" x2="27.4942" y2="36.9053" gradientUnits="userSpaceOnUse">
<stop stop-color="#B341FF"/>
<stop offset="1" stop-color="#2582FF"/>
</linearGradient>
</defs>
</svg>
