<svg width="59" height="40" viewBox="0 0 59 40" fill="none" xmlns="http://www.w3.org/2000/svg">
<g clip-path="url(#clip0)">
<path d="M0 13.4084L29.1915 27.7921V39.9235L0 25.5399V13.4084Z" fill="url(#paint0_linear)"/>
<mask id="mask0" mask-type="alpha" maskUnits="userSpaceOnUse" x="29" y="19" width="17" height="21">
<path d="M45.1737 32.0583L29.2113 39.9235V27.7921L45.1737 19.9268V32.0583Z" fill="white"/>
</mask>
<g mask="url(#mask0)">
<path d="M45.1737 32.0583L29.2113 39.9235V27.7921L45.1737 19.9268V32.0583Z" fill="#05B2C8"/>
</g>
<mask id="mask1" mask-type="alpha" maskUnits="userSpaceOnUse" x="0" y="5" width="46" height="23">
<path d="M16.1686 5.42511L45.3601 19.8087L29.1915 27.7921L0 13.4084L16.1686 5.42511Z" fill="white"/>
</mask>
<g mask="url(#mask1)">
<path d="M16.1686 5.42511L45.3601 19.8087L29.1915 27.7921L0 13.4084L16.1686 5.42511Z" fill="#42FFEF"/>
<path opacity="0.145717" d="M23.5111 5.18322C24.2254 5.61498 24.4544 6.54402 24.0226 7.25828C23.8792 7.49564 23.6731 7.68893 23.4271 7.81699L19.0099 10.1163L17.7281 9.43145C16.6901 8.8768 16.2982 7.58563 16.8528 6.54756C17.05 6.17859 17.3514 5.8758 17.7194 5.67694L18.8421 5.07035C20.3085 4.27805 22.0847 4.32099 23.5111 5.18322Z" fill="#008855"/>
<path opacity="0.531576" d="M32.4501 10.2912C33.1644 10.723 33.3934 11.652 32.9616 12.3663C32.8181 12.6036 32.6121 12.7969 32.3661 12.925L27.9489 15.2243L26.6671 14.5394C25.629 13.9848 25.2372 12.6936 25.7918 11.6555C25.989 11.2866 26.2903 10.9838 26.6584 10.7849L27.7811 10.1783C29.2475 9.38603 31.0237 9.42897 32.4501 10.2912Z" fill="#A45200"/>
<path opacity="0.531576" d="M42.6661 14.7607C43.3803 15.1925 43.6093 16.1215 43.1776 16.8357C43.0341 17.0731 42.8281 17.2664 42.5821 17.3945L38.1648 19.6938L36.8831 19.0089C35.845 18.4543 35.4531 17.1631 36.0078 16.125C36.2049 15.7561 36.5063 15.4533 36.8744 15.2544L37.9971 14.6478C39.4635 13.8555 41.2397 13.8985 42.6661 14.7607Z" fill="#A45200"/>
</g>
<path d="M14.6854 6.38497C14.6854 5.6797 15.8289 5.10797 17.2394 5.10797C18.65 5.10797 19.7934 5.6797 19.7934 6.38497V9.57745C19.7934 10.2827 18.65 10.8544 17.2394 10.8544C15.8289 10.8544 14.6854 10.2827 14.6854 9.57745V6.38497Z" fill="#05B2C8"/>
<path d="M17.2394 7.66196C18.65 7.66196 19.7934 7.09023 19.7934 6.38497C19.7934 5.6797 18.65 5.10797 17.2394 5.10797C15.8289 5.10797 14.6854 5.6797 14.6854 6.38497C14.6854 7.09023 15.8289 7.66196 17.2394 7.66196Z" fill="#AFFFF8"/>
<path opacity="0.145717" d="M15.4164 9.9436C16.1306 10.3754 16.3597 11.3044 15.9279 12.0187C15.7844 12.256 15.5784 12.4493 15.3324 12.5774L10.9151 14.8767L9.63339 14.1918C8.59532 13.6372 8.20343 12.346 8.75809 11.3079C8.95523 10.939 9.25662 10.6362 9.62467 10.4373L10.7474 9.83072C12.2138 9.03842 13.99 9.08136 15.4164 9.9436Z" fill="#008855"/>
<path d="M6.38498 10.8544C6.38498 10.1492 7.52844 9.57745 8.93897 9.57745C10.3495 9.57745 11.493 10.1492 11.493 10.8544V14.0469C11.493 14.7522 10.3495 15.3239 8.93897 15.3239C7.52844 15.3239 6.38498 14.7522 6.38498 14.0469V10.8544Z" fill="#05B2C8"/>
<path d="M8.93897 12.1314C10.3495 12.1314 11.493 11.5597 11.493 10.8544C11.493 10.1492 10.3495 9.57745 8.93897 9.57745C7.52844 9.57745 6.38498 10.1492 6.38498 10.8544C6.38498 11.5597 7.52844 12.1314 8.93897 12.1314Z" fill="#AFFFF8"/>
<path d="M24.2629 10.8544C24.2629 10.1492 25.4064 9.57745 26.8169 9.57745C28.2274 9.57745 29.3709 10.1492 29.3709 10.8544V14.0469C29.3709 14.7522 28.2274 15.3239 26.8169 15.3239C25.4064 15.3239 24.2629 14.7522 24.2629 14.0469V10.8544Z" fill="#E57300"/>
<path d="M26.8169 12.1314C28.2274 12.1314 29.3709 11.5597 29.3709 10.8544C29.3709 10.1492 28.2274 9.57745 26.8169 9.57745C25.4064 9.57745 24.2629 10.1492 24.2629 10.8544C24.2629 11.5597 25.4064 12.1314 26.8169 12.1314Z" fill="#FF8700"/>
<path opacity="0.10998" d="M24.9938 14.4131C25.7081 14.8448 25.9371 15.7739 25.5054 16.4881C25.3619 16.7255 25.1559 16.9188 24.9098 17.0468L20.4926 19.3462L19.2109 18.6613C18.1728 18.1067 17.7809 16.8155 18.3355 15.7774C18.5327 15.4084 18.8341 15.1057 19.2021 14.9068L20.3248 14.3002C21.7912 13.5079 23.5674 13.5508 24.9938 14.4131Z" fill="#A45200"/>
<path d="M15.9624 15.3239C15.9624 14.6187 17.1059 14.0469 18.5164 14.0469C19.927 14.0469 21.0704 14.6187 21.0704 15.3239V18.5164C21.0704 19.2217 19.927 19.7934 18.5164 19.7934C17.1059 19.7934 15.9624 19.2217 15.9624 18.5164V15.3239Z" fill="#E57300"/>
<path d="M18.5164 16.6009C19.927 16.6009 21.0704 16.0292 21.0704 15.3239C21.0704 14.6187 19.927 14.0469 18.5164 14.0469C17.1059 14.0469 15.9624 14.6187 15.9624 15.3239C15.9624 16.0292 17.1059 16.6009 18.5164 16.6009Z" fill="#FF8700"/>
<path d="M34.4789 15.3239C34.4789 14.6187 35.6223 14.0469 37.0329 14.0469C38.4434 14.0469 39.5869 14.6187 39.5869 15.3239V18.5164C39.5869 19.2217 38.4434 19.7934 37.0329 19.7934C35.6223 19.7934 34.4789 19.2217 34.4789 18.5164V15.3239Z" fill="#E57300"/>
<path d="M37.0329 16.6009C38.4434 16.6009 39.5869 16.0292 39.5869 15.3239C39.5869 14.6187 38.4434 14.0469 37.0329 14.0469C35.6223 14.0469 34.4789 14.6187 34.4789 15.3239C34.4789 16.0292 35.6223 16.6009 37.0329 16.6009Z" fill="#FF8700"/>
<path opacity="0.10998" d="M35.2098 18.8826C35.9241 19.3143 36.1531 20.2434 35.7213 20.9576C35.5779 21.195 35.3718 21.3883 35.1258 21.5163L30.7086 23.8156L29.4268 23.1308C28.3887 22.5761 27.9969 21.285 28.5515 20.2469C28.7487 19.8779 29.05 19.5751 29.4181 19.3763L30.5408 18.7697C32.0072 17.9774 33.7834 18.0203 35.2098 18.8826Z" fill="#A45200"/>
<path d="M26.1784 19.7934C26.1784 19.0881 27.3219 18.5164 28.7324 18.5164C30.1429 18.5164 31.2864 19.0881 31.2864 19.7934V22.9859C31.2864 23.6912 30.1429 24.2629 28.7324 24.2629C27.3219 24.2629 26.1784 23.6912 26.1784 22.9859V19.7934Z" fill="#E57300"/>
<path d="M28.7324 21.0704C30.1429 21.0704 31.2864 20.4987 31.2864 19.7934C31.2864 19.0881 30.1429 18.5164 28.7324 18.5164C27.3219 18.5164 26.1784 19.0881 26.1784 19.7934C26.1784 20.4987 27.3219 21.0704 28.7324 21.0704Z" fill="#FF8700"/>
<path d="M58.4225 8.61972L29.231 23.0034V28.1113L58.4225 13.7277V8.61972Z" fill="url(#paint1_linear)"/>
<path d="M13.2488 20.2461L29.2113 28.1113V23.0033L13.2488 15.1381V20.2461Z" fill="#2D86FF"/>
<mask id="mask2" mask-type="alpha" maskUnits="userSpaceOnUse" x="13" y="0" width="46" height="24">
<path d="M42.2539 0.636383L13.0624 15.02L29.231 23.0033L58.4225 8.61971L42.2539 0.636383Z" fill="white"/>
</mask>
<g mask="url(#mask2)">
<path d="M42.2539 0.636383L13.0624 15.02L29.231 23.0033L58.4225 8.61971L42.2539 0.636383Z" fill="#75B0FF"/>
<path opacity="0.172154" d="M47.7036 0.678264C48.4179 1.11002 48.6469 2.03906 48.2151 2.75332C48.0717 2.99068 47.8656 3.18397 47.6196 3.31203L43.2024 5.61135L41.9206 4.92649C40.8826 4.37184 40.4907 3.08068 41.0453 2.0426C41.2425 1.67363 41.5439 1.37084 41.9119 1.17198L43.0346 0.565389C44.501 -0.226912 46.2772 -0.183971 47.7036 0.678264Z" fill="#175ECC"/>
<path opacity="0.172154" d="M38.1262 5.14775C38.8404 5.57951 39.0694 6.50854 38.6377 7.2228C38.4942 7.46016 38.2882 7.65345 38.0422 7.78151L33.6249 10.0808L32.3432 9.39598C31.3051 8.84132 30.9132 7.55016 31.4679 6.51208C31.665 6.14311 31.9664 5.84033 32.3345 5.64147L33.4572 5.03487C34.9236 4.24257 36.6998 4.28551 38.1262 5.14775Z" fill="#175ECC"/>
<path opacity="0.172154" d="M27.9102 9.61723C28.6245 10.049 28.8535 10.978 28.4217 11.6923C28.2782 11.9296 28.0722 12.1229 27.8262 12.251L23.409 14.5503L22.1272 13.8655C21.0891 13.3108 20.6972 12.0196 21.2519 10.9816C21.449 10.6126 21.7504 10.3098 22.1185 10.1109L23.2412 9.50435C24.7076 8.71205 26.4838 8.75499 27.9102 9.61723Z" fill="#175ECC"/>
<g opacity="0.172154">
<g opacity="0.172154">
<path opacity="0.172154" d="M45.9942 1.32388C46.7085 1.75564 46.9375 2.68467 46.5057 3.39894C46.3623 3.63629 46.1562 3.82959 45.9102 3.95765L41.493 6.25696L40.2112 5.57211C39.1731 5.01745 38.7813 3.72629 39.3359 2.68822C39.5331 2.31924 39.8344 2.01646 40.2025 1.8176L41.3252 1.211C42.7916 0.418703 44.5678 0.461643 45.9942 1.32388Z" fill="#8D00E9"/>
<path opacity="0.172154" d="M36.4167 5.79336C37.131 6.22512 37.36 7.15415 36.9283 7.86842C36.7848 8.10577 36.5788 8.29907 36.3327 8.42713L31.9155 10.7264L30.6338 10.0416C29.5957 9.48693 29.2038 8.19577 29.7584 7.1577C29.9556 6.78873 30.257 6.48594 30.625 6.28708L31.7477 5.68049C33.2141 4.88819 34.9903 4.93113 36.4167 5.79336Z" fill="#8D00E9"/>
<path opacity="0.172154" d="M26.2008 10.2628C26.915 10.6946 27.1441 11.6236 26.7123 12.3379C26.5688 12.5753 26.3628 12.7686 26.1168 12.8966L21.6995 15.1959L20.4178 14.5111C19.3797 13.9564 18.9878 12.6653 19.5425 11.6272C19.7396 11.2582 20.041 10.9554 20.4091 10.7566L21.5318 10.15C22.9982 9.35767 24.7744 9.40061 26.2008 10.2628Z" fill="#8D00E9"/>
</g>
</g>
<path opacity="0.172154" d="M54.9332 5.79336C55.6474 6.22512 55.8764 7.15415 55.4447 7.86842C55.3012 8.10577 55.0952 8.29907 54.8492 8.42713L50.4319 10.7264L49.1502 10.0416C48.1121 9.48693 47.7202 8.19577 48.2749 7.1577C48.472 6.78873 48.7734 6.48594 49.1415 6.28708L50.2641 5.68049C51.7306 4.88819 53.5068 4.93113 54.9332 5.79336Z" fill="#175ECC"/>
</g>
<path d="M43.7371 1.59624C43.7371 0.890975 42.5936 0.319244 41.1831 0.319244C39.7726 0.319244 38.6291 0.890975 38.6291 1.59624V4.78873C38.6291 5.49399 39.7726 6.06572 41.1831 6.06572C42.5936 6.06572 43.7371 5.49399 43.7371 4.78873V1.59624Z" fill="#175ECC"/>
<path d="M41.1831 2.87323C39.7726 2.87323 38.6291 2.3015 38.6291 1.59624C38.6291 0.890975 39.7726 0.319244 41.1831 0.319244C42.5936 0.319244 43.7371 0.890975 43.7371 1.59624C43.7371 2.3015 42.5936 2.87323 41.1831 2.87323Z" fill="#B0CFFF"/>
<path d="M52.0376 6.06572C52.0376 5.36046 50.8941 4.78873 49.4836 4.78873C48.073 4.78873 46.9296 5.36046 46.9296 6.06572V9.25821C46.9296 9.96348 48.073 10.5352 49.4836 10.5352C50.8941 10.5352 52.0376 9.96348 52.0376 9.25821V6.06572Z" fill="#175ECC"/>
<path d="M49.4836 7.34272C48.073 7.34272 46.9296 6.77099 46.9296 6.06572C46.9296 5.36046 48.073 4.78873 49.4836 4.78873C50.8941 4.78873 52.0376 5.36046 52.0376 6.06572C52.0376 6.77099 50.8941 7.34272 49.4836 7.34272Z" fill="#B0CFFF"/>
<path d="M34.1596 6.06572C34.1596 5.36046 33.0162 4.78873 31.6056 4.78873C30.1951 4.78873 29.0516 5.36046 29.0516 6.06572V9.25821C29.0516 9.96348 30.1951 10.5352 31.6056 10.5352C33.0162 10.5352 34.1596 9.96348 34.1596 9.25821V6.06572Z" fill="#175ECC"/>
<path d="M31.6056 7.34272C30.1951 7.34272 29.0516 6.77099 29.0516 6.06572C29.0516 5.36046 30.1951 4.78873 31.6056 4.78873C33.0162 4.78873 34.1596 5.36046 34.1596 6.06572C34.1596 6.77099 33.0162 7.34272 31.6056 7.34272Z" fill="#B0CFFF"/>
<path opacity="0.172154" d="M45.3557 10.2628C46.07 10.6946 46.299 11.6236 45.8672 12.3379C45.7237 12.5753 45.5177 12.7686 45.2717 12.8966L40.8545 15.1959L39.5727 14.5111C38.5346 13.9564 38.1428 12.6653 38.6974 11.6272C38.8946 11.2582 39.1959 10.9554 39.564 10.7566L40.6867 10.15C42.1531 9.35767 43.9293 9.40061 45.3557 10.2628Z" fill="#175ECC"/>
<path d="M42.4601 10.5352C42.4601 9.82994 41.3166 9.25821 39.9061 9.25821C38.4956 9.25821 37.3521 9.82994 37.3521 10.5352V13.7277C37.3521 14.433 38.4956 15.0047 39.9061 15.0047C41.3166 15.0047 42.4601 14.433 42.4601 13.7277V10.5352Z" fill="#175ECC"/>
<path d="M39.9061 11.8122C38.4956 11.8122 37.3521 11.2405 37.3521 10.5352C37.3521 9.82994 38.4956 9.25821 39.9061 9.25821C41.3166 9.25821 42.4601 9.82994 42.4601 10.5352C42.4601 11.2405 41.3166 11.8122 39.9061 11.8122Z" fill="#B0CFFF"/>
<path d="M23.9437 10.5352C23.9437 9.82994 22.8002 9.25821 21.3897 9.25821C19.9791 9.25821 18.8357 9.82994 18.8357 10.5352V13.7277C18.8357 14.433 19.9791 15.0047 21.3897 15.0047C22.8002 15.0047 23.9437 14.433 23.9437 13.7277V10.5352Z" fill="#175ECC"/>
<path d="M21.3897 11.8122C19.9791 11.8122 18.8357 11.2405 18.8357 10.5352C18.8357 9.82994 19.9791 9.25821 21.3897 9.25821C22.8002 9.25821 23.9437 9.82994 23.9437 10.5352C23.9437 11.2405 22.8002 11.8122 21.3897 11.8122Z" fill="#B0CFFF"/>
<path opacity="0.172154" d="M35.1397 14.7323C35.854 15.1641 36.083 16.0931 35.6513 16.8074C35.5078 17.0447 35.3018 17.238 35.0557 17.3661L30.6385 19.6654L29.3568 18.9806C28.3187 18.4259 27.9268 17.1347 28.4815 16.0967C28.6786 15.7277 28.98 15.4249 29.348 15.226L30.4707 14.6195C31.9371 13.8272 33.7133 13.8701 35.1397 14.7323Z" fill="#175ECC"/>
<path d="M32.2441 15.0047C32.2441 14.2994 31.1007 13.7277 29.6901 13.7277C28.2796 13.7277 27.1362 14.2994 27.1362 15.0047V18.1972C27.1362 18.9024 28.2796 19.4742 29.6901 19.4742C31.1007 19.4742 32.2441 18.9024 32.2441 18.1972V15.0047Z" fill="#175ECC"/>
<path d="M29.6901 16.2817C28.2796 16.2817 27.1362 15.71 27.1362 15.0047C27.1362 14.2994 28.2796 13.7277 29.6901 13.7277C31.1007 13.7277 32.2441 14.2994 32.2441 15.0047C32.2441 15.71 31.1007 16.2817 29.6901 16.2817Z" fill="#B0CFFF"/>
</g>
<defs>
<linearGradient id="paint0_linear" x1="25" y1="18.5" x2="16.984" y2="42.1719" gradientUnits="userSpaceOnUse">
<stop stop-color="#00FFE9"/>
<stop offset="0.691288" stop-color="#06B5BF"/>
</linearGradient>
<linearGradient id="paint1_linear" x1="39.5" y1="22.5" x2="36.9775" y2="16.8173" gradientUnits="userSpaceOnUse">
<stop stop-color="#2582FF"/>
<stop offset="1" stop-color="#00237B"/>
</linearGradient>
<clipPath id="clip0">
<rect width="58.6667" height="40" fill="white"/>
</clipPath>
</defs>
</svg>
