<?xml version="1.0" encoding="UTF-8"?>
<svg width="922px" height="357px" viewBox="0 0 922 357" version="1.1" xmlns="http://www.w3.org/2000/svg" xmlns:xlink="http://www.w3.org/1999/xlink">
    <!-- Generator: Sketch 53.2 (72643) - https://sketchapp.com -->
    <title>Group 3</title>
    <desc>Created with Sketch.</desc>
    <g id="Page-1" stroke="none" stroke-width="1" fill="none" fill-rule="evenodd">
        <g id="Group-3">
            <g id="Group-2">
                <g id="Group-2-Copy">
                    <g id="Group">
                        <path d="M790.765492,356.921771 L25.0420774,356.921771 C11.2349586,356.921771 0.0420773559,345.72889 0.0420773559,331.921771 C0.0420773559,328.31028 0.82454406,324.741663 2.33563133,321.461498 L63.1812226,189.382044 C66.2392946,182.74379 66.2392946,175.099752 63.1812226,168.461498 L2.33563133,36.382044 C-3.44141786,23.8416201 2.04138061,8.99237425 14.5818045,3.21532506 C17.8619695,1.70423779 21.4305863,0.921771082 25.0420774,0.921771082 L790.835184,0.921771082 C808.001908,0.921771082 823.968384,9.72847724 833.126252,24.2484587 L913.630649,151.889783 C923.88865,168.154047 923.910765,188.859868 913.68753,205.146008 L833.113441,333.504683 C823.966425,348.076351 807.970184,356.921771 790.765492,356.921771 Z" id="Path" fill="#133E9C"></path>
                        <g id="Group-4" transform="translate(132.000000, 38.000000)" fill="#FFFFFF">
                            <g id="Group-19">
                                <path d="M61.8947368,143.522465 C61.8947368,151.311177 64.4386654,158.488125 68.7469695,164.33721 L39.7413492,181.08449 L39.7231932,180.959512 C38.3156471,181.764129 36.9074443,182.567572 35.498473,183.36965 C34.8689963,183.727216 33.6464071,183.653193 33.0068989,183.266772 C29.9987025,181.45009 26.7948919,180.24315 23.2888822,180.149054 C11.6247543,179.850456 4.53122904,189.383019 4.13247687,197.664732 C3.67102782,207.365413 11.006563,217.301963 22.870067,217.212885 C33.2739876,217.135099 41.1913499,208.788146 41.088527,198.373589 C41.0722258,196.512995 41.6189426,195.460373 43.2503155,194.533213 C51.2644223,189.96753 63.227476,183.071235 79.1394765,173.844328 C84.8072052,177.303836 91.5041308,179.298246 98.654043,179.298246 C98.7265344,179.298246 98.7990089,179.29804 98.8714659,179.297629 C98.8890159,179.297827 98.9073168,179.298032 98.9264389,179.298246 L117.428199,179.298246 C117.432,180.620833 117.433689,181.402936 117.433266,181.644555 C117.391886,200.507689 117.395648,219.365804 117.429505,238.227683 C117.430758,239.558829 117.011943,240.316617 115.799386,240.897503 C109.446938,243.961273 104.653134,251.866601 105.960991,260.32145 C107.478255,270.143829 117.563676,277.561112 127.29674,275.656606 C135.871165,273.981696 141.503853,268.123899 142.710141,259.113256 C143.526455,253.002027 140.588479,244.934854 132.733813,240.894994 C131.667966,240.350491 131.07987,239.754549 131.083632,238.444731 C131.122504,220.123591 131.126265,201.802451 131.083632,183.485075 C131.083632,182.896528 131.181246,182.477096 131.37322,182.169509 L131.37322,179.298246 L153.969837,179.298246 C154.677744,179.298246 155.380748,179.24166 156.072641,179.130593 C161.28722,178.597324 166.121859,176.817967 170.260286,174.101455 L202.752665,192.933554 L202.625022,193.032582 C203.491421,193.526309 204.358141,194.019423 205.225202,194.511885 C206.840274,195.426499 207.463481,196.437718 207.415831,198.329677 C207.127426,209.292502 216.681177,218.247942 227.819905,217.059822 C238.755495,215.896794 246.503576,205.365557 243.96686,194.716387 C240.926061,181.954445 227.110176,176.195763 215.950131,183.093635 C214.773938,183.818803 213.923768,184.017032 212.668576,183.281827 C203.225172,177.761522 193.759197,172.278856 184.254349,166.865193 C183.758739,166.583414 183.414645,166.308653 183.196456,166.004948 L179.893911,164.094808 C182.637448,159.523935 184.210526,154.196784 184.210526,148.506632 C184.210526,137.21312 178.035514,127.41113 168.872511,122.053346 L168.990468,121.98524 C169.149401,121.865344 169.331839,121.747275 169.538137,121.628801 C173.557337,119.325777 177.574879,117.019532 181.590681,114.710122 L208.27979,99.3003501 C209.7551,98.4451392 211.230152,97.5895144 212.70494,96.7334796 C213.862325,96.0647699 214.64729,96.0534784 215.783357,96.8162842 C219.832322,99.5350345 224.371576,100.3957 229.134031,99.5613814 C238.404392,97.9354006 245.12299,89.5420275 244.296645,79.6343344 C243.397572,68.8860493 232.860734,60.8514961 222.336435,63.1825704 C213.101185,65.2288472 207.299215,72.45041 207.4058,81.9440802 C207.420847,83.5612787 206.971938,84.4834206 205.529909,85.3089572 C201.809021,87.4391146 198.090498,89.5729424 194.374172,91.7103366 L194.376677,91.7146832 L160.358286,111.42888 C154.402967,100.991328 143.806104,93.4621752 131.358541,91.4271113 C131.276286,91.4136635 131.193951,91.4004555 131.111536,91.3874883 C131.115256,75.4154371 131.146121,59.4434616 131.059807,43.4725718 C131.047267,41.0762575 131.606524,39.6873989 133.851072,38.3976549 C141.89759,33.7718901 144.955944,23.8140124 141.274383,15.3227794 C137.561473,6.75752407 128.076689,2.18194387 119.181255,4.89316647 C111.08458,7.36099379 106.571659,13.0832919 105.777916,21.411425 C105.167248,27.8375621 108.205539,34.9763203 115.536059,38.9848146 C116.662095,39.5995759 117.44706,40.1403149 117.442044,41.6860003 C117.427097,46.3872861 117.416093,51.0883398 117.408727,55.7892767 L117.679412,55.7892767 L117.679412,91.4429467 C106.550262,93.2899953 96.740147,99.5513951 90.5212482,108.627063 C88.9984073,108.962218 87.5105808,109.389479 86.0644871,109.902646 C85.9985127,109.926058 85.9326253,109.949649 85.8668253,109.973418 C71.8527891,101.961022 57.9007424,93.8365094 43.8622371,85.8622423 C41.7568758,84.667849 40.7411863,83.3868873 41.0922888,80.9604622 C41.2327299,79.9931542 40.9342927,78.9568424 40.7762966,77.9606782 C39.3380301,68.8910678 30.472691,61.304412 19.7715871,63.063382 C9.2736212,64.7922412 2.6076887,74.297203 4.34063052,84.4708745 C6.55006864,97.4636654 21.3691037,104.040356 32.5492117,96.9329633 C33.810673,96.1312645 34.6834136,96.0685337 35.9762233,96.8225572 C39.9585019,99.1466573 43.946774,101.460871 47.9381867,103.769916 L48.0890684,103.508114 L72.9872714,117.908843 C66.1544824,124.388751 61.8947368,133.445514 61.8947368,143.522465 C61.8947368,151.278036 64.4170625,158.427038 68.6920697,164.262474 C59.0426068,169.842431 49.3984139,175.428716 39.7231932,180.959512 Z M237.121614,100.959022 C235.766108,101.769503 235.295881,102.59504 235.299643,104.140725 C235.346039,128.071248 235.342277,152.003026 235.305913,175.92853 C235.303405,177.366319 235.669554,178.233257 236.987443,178.992299 C245.484124,183.905371 249.783877,192.967454 248.257834,202.493744 C246.794489,211.622321 239.501588,219.121154 230.054422,220.916508 C224.577222,221.961602 219.271812,221.129792 214.471739,218.182702 C213.008393,217.286907 211.977657,217.444989 210.605849,218.235396 C190.045033,230.151727 169.461647,242.036693 148.854436,253.876493 C147.44501,254.688229 146.917102,255.579006 146.920864,257.22506 C146.942181,268.73866 138.060541,278.758014 126.9657,279.874621 C115.148592,281.06776 104.700784,273.637931 102.147767,262.164479 C101.756538,260.40049 101.624875,258.556207 101.584749,256.750816 C101.554654,255.527567 101.216091,254.778561 100.128927,254.148745 C79.2370719,242.124517 58.362772,230.071432 37.4972496,218.000783 C36.3674518,217.34211 35.479664,217.337092 34.3398346,218.02713 C20.7057707,226.238584 3.32870284,218.367131 0.437122642,203.026955 C-1.38735663,193.336311 2.55502332,184.275482 11.2234942,179.171709 C12.5927941,178.362483 13.2122393,177.548238 13.2097315,175.873327 C13.1470346,151.940295 13.1570661,128.012281 13.1946842,104.083013 C13.1959381,102.645225 12.8222647,101.794596 11.5068841,101.030535 C2.80455691,95.973183 -1.28954949,87.1858609 0.381949386,77.3195701 C2.04216282,67.5185192 9.61720011,60.3283217 19.4756578,58.9231531 C24.7597511,58.1716389 29.8557536,59.135183 34.4276103,62.0559263 C35.4896955,62.7359275 36.2784222,62.7145991 37.3593165,62.0910555 C58.1633959,50.0454988 78.9837765,38.0338166 99.8204583,26.049736 C101.080666,25.3245686 101.572209,24.492759 101.575971,23.0072951 C101.609827,9.8275665 112.018764,-0.262045776 125.20768,0.00518717845 C135.487461,0.210944007 145.106416,8.70092241 146.564746,18.8507562 C146.697663,19.7841896 146.907071,20.3588032 146.907071,21.6435288 C146.907071,24.4576298 147.942823,25.6507685 150.132198,26.902874 C170.350689,38.4779502 190.512752,50.1433587 210.661022,61.828841 C212.045369,62.6343037 213.051027,62.6669237 214.493056,61.8489149 C228.178531,54.0389377 244.771888,61.5239696 248.1036,76.9783148 C248.417084,78.4161034 248.38699,79.9291689 248.496083,81.2427506 C248.271628,90.0150173 244.465927,96.5528151 237.121614,100.959022 Z M220.701301,198.721117 C220.701301,195.673658 222.889422,193.460517 225.886333,193.46679 C228.771643,193.481846 231.230615,195.864359 231.259456,198.684733 C231.290804,201.39972 228.663805,204.025629 225.928967,204.030647 C223.001022,204.030647 220.702555,201.698318 220.701301,198.721117 Z M118.978118,22.6748221 C118.989403,19.7239681 121.289125,17.4468422 124.260957,17.444333 C127.237805,17.4418238 129.519971,19.7139312 129.531257,22.6760767 C129.53878,25.5165247 127.059746,28.0282635 124.270988,27.9931343 C121.435835,27.9655328 118.96934,25.4839047 118.978118,22.6748221 Z M27.8043117,198.742446 C27.7930262,201.717137 25.4744955,204.054485 22.5615984,204.030647 C19.8092053,204.0043 17.2649658,201.436104 17.2524264,198.663405 C17.2386331,195.893215 19.7565399,193.46679 22.6456122,193.46679 C25.6387614,193.4693 27.8155971,195.693732 27.8043117,198.742446 Z M124.318638,252.185273 C127.287962,252.205347 129.543796,254.464908 129.530003,257.405725 C129.511194,260.33525 127.221504,262.542118 124.212053,262.523299 C121.227682,262.508243 118.945515,260.232372 118.978118,257.300337 C119.011974,254.384612 121.338028,252.16269 124.318638,252.185273 Z M22.7045473,86.5121328 C19.6950969,86.5384797 17.3427099,84.3441584 17.2536803,81.4347066 C17.1646508,78.5992772 19.5446244,76.2192729 22.5114409,76.176616 C25.6086668,76.1301952 27.7604238,78.1952912 27.8043117,81.2502783 C27.8507074,84.3203207 25.7503618,86.4845312 22.7045473,86.5121328 Z M225.821128,86.5196604 C222.779075,86.498332 220.671206,84.3303576 220.701301,81.2603152 C220.731395,78.2128558 222.889422,76.1402321 225.986648,76.1803798 C228.955972,76.2217821 231.319645,78.5804579 231.249424,81.4309428 C231.179204,84.3190661 228.810516,86.5409889 225.821128,86.5196604 Z" id="Combined-Shape" fill-rule="nonzero"></path>
                                <path d="M146.799659,166.517994 C146.757233,166.523484 146.713973,166.526316 146.670052,166.526316 L92.6441982,166.526316 C92.5764765,166.526316 92.510327,166.519584 92.4463825,166.506753 C82.5497299,166.064368 74.6666667,158.174654 74.6666667,148.506632 C74.6666667,138.554636 83.0196222,130.486949 93.323515,130.486949 C93.3396621,130.486949 93.3558045,130.486969 93.371942,130.487008 C93.5842033,115.629854 106.116348,103.649123 121.544854,103.649123 C133.312704,103.649123 143.395557,110.619076 147.611903,120.519119 C160.785813,120.601996 171.438596,130.869193 171.438596,143.522465 C171.438596,156.227141 160.699082,166.526316 147.45122,166.526316 C147.233342,166.526316 147.016143,166.52353 146.799659,166.517994 Z" id="Combined-Shape" transform="translate(123.052632, 135.087719) scale(-1, 1) translate(-123.052632, -135.087719) "></path>
                            </g>
                            <path d="M298.420452,61.761602 C310.124384,61.761602 317.225647,67.6793204 317.225647,77.5421846 C317.225647,87.3392963 310.124384,93.2570148 298.420452,93.2570148 L286.058996,93.2570148 L286.058996,107.788301 L281.193316,107.788301 L281.193316,61.761602 L298.420452,61.761602 Z M298.288947,88.983107 C307.494287,88.983107 312.359967,84.7749516 312.359967,77.5421846 C312.359967,70.1779127 307.494287,65.9697573 298.288947,65.9697573 L286.058996,65.9697573 L286.058996,88.983107 L298.288947,88.983107 Z M340.52523,108.117063 C330.399356,108.117063 322.90358,100.752792 322.90358,90.4954128 C322.90358,80.2380341 330.399356,72.9395146 340.52523,72.9395146 C350.651104,72.9395146 358.081128,80.2380341 358.081128,90.4954128 C358.081128,100.752792 350.651104,108.117063 340.52523,108.117063 Z M340.52523,103.97466 C347.889502,103.97466 353.346954,98.5829614 353.346954,90.4954128 C353.346954,82.4078642 347.889502,77.0161652 340.52523,77.0161652 C333.160958,77.0161652 327.637754,82.4078642 327.637754,90.4954128 C327.637754,98.5829614 333.160958,103.97466 340.52523,103.97466 Z M412.941877,73.2025244 L417.215785,73.2025244 L404.131052,107.788301 L399.725639,107.788301 L388.810736,79.449005 L377.895833,107.788301 L373.490421,107.788301 L360.47144,73.2025244 L364.942605,73.2025244 L375.791756,102.593859 L386.903916,73.2025244 L390.914814,73.2025244 L401.961222,102.593859 L412.941877,73.2025244 Z M453.27134,90.4954128 C453.27134,90.8899274 453.205587,91.4159468 453.205587,91.9419662 L424.274519,91.9419662 C424.800538,99.1747332 430.323742,103.97466 437.885272,103.97466 C442.093427,103.97466 445.841315,102.462355 448.471412,99.4377429 L451.101509,102.462355 C448.011145,106.144491 443.211218,108.117063 437.753767,108.117063 C426.970369,108.117063 419.606097,100.752792 419.606097,90.4954128 C419.606097,80.2380341 426.773111,72.9395146 436.504471,72.9395146 C446.23583,72.9395146 453.27134,80.1065292 453.27134,90.4954128 Z M436.504471,76.9504127 C429.797723,76.9504127 424.866291,81.6845875 424.274519,88.4570875 L448.800175,88.4570875 C448.208403,81.6845875 443.276971,76.9504127 436.504471,76.9504127 Z M467.102574,79.9750244 C469.272404,75.3723545 473.677816,72.9395146 480.055802,72.9395146 L480.055802,77.4764321 C479.661287,77.4764321 479.266773,77.4106797 478.938011,77.4106797 C471.705244,77.4106797 467.299831,82.0133496 467.299831,90.1666507 L467.299831,107.788301 L462.631409,107.788301 L462.631409,73.2025244 L467.102574,73.2025244 L467.102574,79.9750244 Z M518.149682,90.4954128 C518.149682,90.8899274 518.083929,91.4159468 518.083929,91.9419662 L489.152861,91.9419662 C489.678881,99.1747332 495.202084,103.97466 502.763614,103.97466 C506.971769,103.97466 510.719657,102.462355 513.349755,99.4377429 L515.979852,102.462355 C512.889488,106.144491 508.08956,108.117063 502.632109,108.117063 C491.848711,108.117063 484.484439,100.752792 484.484439,90.4954128 C484.484439,80.2380341 491.651453,72.9395146 501.382813,72.9395146 C511.114172,72.9395146 518.149682,80.1065292 518.149682,90.4954128 Z M501.382813,76.9504127 C494.676065,76.9504127 489.744633,81.6845875 489.152861,88.4570875 L513.678517,88.4570875 C513.086745,81.6845875 508.155313,76.9504127 501.382813,76.9504127 Z M554.402494,59 L559.070916,59 L559.070916,107.788301 L554.599751,107.788301 L554.599751,100.950049 C551.772396,105.618471 546.972469,108.117063 541.252008,108.117063 C531.389144,108.117063 524.024872,100.950049 524.024872,90.4954128 C524.024872,80.0407768 531.389144,72.9395146 541.252008,72.9395146 C546.775212,72.9395146 551.509387,75.306602 554.402494,79.7777671 L554.402494,59 Z M541.646523,103.97466 C548.945042,103.97466 554.468246,98.5829614 554.468246,90.4954128 C554.468246,82.4078642 548.945042,77.0161652 541.646523,77.0161652 C534.282251,77.0161652 528.759047,82.4078642 528.759047,90.4954128 C528.759047,98.5829614 534.282251,103.97466 541.646523,103.97466 Z M606.787874,72.9395146 C616.650739,72.9395146 624.01501,80.0407768 624.01501,90.4954128 C624.01501,100.950049 616.650739,108.117063 606.787874,108.117063 C601.067413,108.117063 596.267486,105.618471 593.440132,100.950049 L593.440132,107.788301 L588.968967,107.788301 L588.968967,59 L593.637389,59 L593.637389,79.7777671 C596.530496,75.306602 601.264671,72.9395146 606.787874,72.9395146 Z M606.459112,103.97466 C613.757632,103.97466 619.346588,98.5829614 619.346588,90.4954128 C619.346588,82.4078642 613.757632,77.0161652 606.459112,77.0161652 C599.09484,77.0161652 593.571637,82.4078642 593.571637,90.4954128 C593.571637,98.5829614 599.09484,103.97466 606.459112,103.97466 Z M656.848696,73.2025244 L661.451366,73.2025244 L644.158478,111.930704 C641.265371,118.703204 637.583235,120.873034 632.651803,120.873034 C629.429934,120.873034 626.33957,119.820995 624.235492,117.716918 L626.405322,114.232039 C628.114885,115.941602 630.218963,116.862136 632.717555,116.862136 C635.807919,116.862136 637.911997,115.415583 639.88457,111.075923 L641.396876,107.722549 L625.945055,73.2025244 L630.810735,73.2025244 L643.829715,102.593859 L656.848696,73.2025244 Z M310.61433,219.0565 C297.522433,219.0565 284.312591,215.164314 277,209.502954 L283.486976,195.113662 C290.445732,200.185297 300.824893,203.723648 310.732275,203.723648 C322.054996,203.723648 326.654852,199.949407 326.654852,194.877772 C326.654852,179.426975 278.65123,190.042026 278.65123,159.376322 C278.65123,145.340865 289.973952,133.664308 313.44501,133.664308 C323.824171,133.664308 334.439223,136.141154 342.105649,140.976899 L336.208398,155.484136 C328.541972,151.120171 320.639656,148.997161 313.327065,148.997161 C302.004343,148.997161 297.640378,153.243181 297.640378,158.432762 C297.640378,173.647669 345.643999,163.150562 345.643999,193.462432 C345.643999,207.261998 334.203333,219.0565 310.61433,219.0565 Z M374.48444,217.64116 L374.48444,150.648391 L348.064757,150.648391 L348.064757,135.079649 L420.011216,135.079649 L420.011216,150.648391 L393.591533,150.648391 L393.591533,217.64116 L374.48444,217.64116 Z M468.90231,219.0565 C442.836461,219.0565 423.729369,200.892968 423.729369,176.360404 C423.729369,151.827841 442.836461,133.664308 468.90231,133.664308 C494.850214,133.664308 514.075251,151.709896 514.075251,176.360404 C514.075251,201.010913 494.850214,219.0565 468.90231,219.0565 Z M468.90231,202.780088 C483.645437,202.780088 494.732269,192.047091 494.732269,176.360404 C494.732269,160.673717 483.645437,149.940721 468.90231,149.940721 C454.159183,149.940721 443.072352,160.673717 443.072352,176.360404 C443.072352,192.047091 454.159183,202.780088 468.90231,202.780088 Z M601.41642,217.64116 L580.893987,217.64116 L564.97141,194.641882 L547.397603,194.641882 L547.397603,217.64116 L528.29051,217.64116 L528.29051,135.079649 L564.02785,135.079649 C586.083568,135.079649 599.883135,146.520315 599.883135,165.037683 C599.883135,177.421909 593.632049,186.503676 582.899052,191.103531 L601.41642,217.64116 Z M580.540152,165.037683 C580.540152,155.955916 574.642901,150.648391 562.966345,150.648391 L547.397603,150.648391 L547.397603,179.426975 L562.966345,179.426975 C574.642901,179.426975 580.540152,174.001504 580.540152,165.037683 Z M628.841521,219.0565 C617.754689,219.0565 607.965253,214.810479 601.950057,207.026108 L612.565108,194.288047 C617.047019,200.303242 622.00071,203.369813 627.897961,203.369813 C635.564387,203.369813 639.574517,198.769957 639.574517,189.688191 L639.574517,150.412501 L610.560043,150.412501 L610.560043,135.079649 L658.563665,135.079649 L658.563665,188.626686 C658.563665,209.031174 648.302448,219.0565 628.841521,219.0565 Z" id="PoweredbySTORJ" fill-rule="nonzero"></path>
                        </g>
                    </g>
                </g>
            </g>
        </g>
    </g>
</svg>