<svg width="54" height="54" viewBox="0 0 54 54" fill="none" xmlns="http://www.w3.org/2000/svg">
<path d="M35.7248 41.1431C33.189 42.7107 30.2002 43.6154 27 43.6154C20.8494 43.6154 15.4794 40.2735 12.6067 35.3064C12.5584 35.3073 12.51 35.3077 12.4615 35.3077C7.87333 35.3077 4.15385 31.5882 4.15385 27C4.15385 25.3315 4.64573 23.7778 5.49239 22.4762C4.64272 21.0683 4.15385 19.4182 4.15385 17.6538C4.15385 12.8019 7.85102 8.81353 12.5818 8.35223C15.4483 3.36133 20.8316 0 27 0C28.7883 0 30.5106 0.282518 32.1247 0.805357C33.4306 0.285704 34.855 0 36.3462 0C41.9891 0 46.6763 4.09164 47.6029 9.46993C51.3918 11.3293 54 15.2254 54 19.7308C54 24.2695 51.353 28.19 47.5185 30.0326C47.6824 30.7259 47.7692 31.4489 47.7692 32.1923C47.7692 37.354 43.5848 41.5385 38.4231 41.5385C37.4849 41.5385 36.5791 41.4002 35.7248 41.1431ZM9.34615 47.7692C6.47852 47.7692 4.15385 45.4446 4.15385 42.5769C4.15385 39.7093 6.47852 37.3846 9.34615 37.3846C12.2138 37.3846 14.5385 39.7093 14.5385 42.5769C14.5385 45.4446 12.2138 47.7692 9.34615 47.7692ZM3.11538 54C1.39481 54 0 52.6052 0 50.8846C0 49.164 1.39481 47.7692 3.11538 47.7692C4.83596 47.7692 6.23077 49.164 6.23077 50.8846C6.23077 52.6052 4.83596 54 3.11538 54Z" fill="url(#paint0_radial)"/>
<path fill-rule="evenodd" clip-rule="evenodd" d="M35.4619 40.7178L35.6533 40.5994L35.8689 40.6643C36.69 40.9115 37.5477 41.0385 38.4231 41.0385C43.3087 41.0385 47.2692 37.0779 47.2692 32.1923C47.2692 31.4968 47.1891 30.8122 47.0319 30.1477L46.9393 29.7562L47.3019 29.582C51.0592 27.7764 53.5 23.9737 53.5 19.7308C53.5 15.5201 51.0963 11.7412 47.3826 9.91879L47.1535 9.80635L47.1102 9.55482C46.2141 4.35401 41.6831 0.5 36.3462 0.5C34.9456 0.5 33.5824 0.763438 32.3096 1.26993L32.1421 1.33657L31.9707 1.28103C30.3793 0.765551 28.7079 0.5 27 0.5C21.1619 0.5 15.8705 3.63015 13.0154 8.60125L12.8869 8.82484L12.6303 8.84986C8.12304 9.28938 4.65385 13.0919 4.65385 17.6538C4.65385 19.2858 5.09594 20.8516 5.92048 22.2178L6.08239 22.4861L5.91153 22.7488C5.09494 24.0042 4.65385 25.4688 4.65385 27C4.65385 31.3121 8.14947 34.8077 12.4615 34.8077C12.53 34.8075 12.53 34.8075 12.5982 34.8065L12.8923 34.8015L13.0396 35.0561C15.9011 40.0038 21.1792 43.1154 27 43.1154C30.032 43.1154 32.9394 42.2772 35.4619 40.7178ZM9.34615 47.2692C11.9376 47.2692 14.0385 45.1684 14.0385 42.5769C14.0385 39.9854 11.9376 37.8846 9.34615 37.8846C6.75466 37.8846 4.65385 39.9854 4.65385 42.5769C4.65385 45.1684 6.75466 47.2692 9.34615 47.2692ZM3.11538 53.5C4.55982 53.5 5.73077 52.3291 5.73077 50.8846C5.73077 49.4402 4.55982 48.2692 3.11538 48.2692C1.67095 48.2692 0.5 49.4402 0.5 50.8846C0.5 52.3291 1.67095 53.5 3.11538 53.5Z" stroke="#002570" stroke-opacity="0.21"/>
<g filter="url(#filter0_d)">
<path d="M22.6336 17.1762C22.6336 16.357 22.887 15.527 23.3938 14.6863C23.9006 13.8455 24.6399 13.1492 25.6119 12.5973C26.5839 12.0455 27.7179 11.7695 29.0139 11.7695C30.2186 11.7695 31.2819 12.0002 32.2041 12.4615C33.1263 12.9229 33.8386 13.5502 34.3413 14.3435C34.8439 15.1368 35.0952 15.9991 35.0952 16.9304C35.0952 17.6634 34.9519 18.3058 34.6653 18.8577C34.3786 19.4096 34.038 19.886 33.6434 20.2869C33.2488 20.6879 32.5406 21.3627 31.5187 22.3112C31.2362 22.5785 31.0099 22.8135 30.8396 23.0161C30.6693 23.2188 30.5426 23.4042 30.4595 23.5723C30.3764 23.7405 30.312 23.9086 30.2663 24.0768C30.2206 24.2449 30.1521 24.5403 30.0607 24.9628C29.9029 25.8596 29.4086 26.308 28.5778 26.308C28.1458 26.308 27.7823 26.1614 27.4874 25.8682C27.1925 25.575 27.045 25.1396 27.045 24.5618C27.045 23.8375 27.153 23.2102 27.369 22.6798C27.585 22.1495 27.8716 21.6839 28.2289 21.2829C28.5861 20.8819 29.0679 20.4055 29.6744 19.8536C30.2061 19.3707 30.5903 19.0064 30.8271 18.7607C31.0639 18.5149 31.2633 18.2411 31.4253 17.9393C31.5873 17.6375 31.6683 17.3098 31.6683 16.9563C31.6683 16.2664 31.4211 15.6844 30.9268 15.2101C30.4325 14.7359 29.7949 14.4987 29.0139 14.4987C28.1001 14.4987 27.4272 14.738 26.9952 15.2166C26.5632 15.6952 26.1976 16.4001 25.8986 17.3314C25.6161 18.3058 25.0803 18.793 24.291 18.793C23.8258 18.793 23.4333 18.6227 23.1134 18.2821C22.7936 17.9415 22.6336 17.5728 22.6336 17.1762ZM28.8851 33.1938C28.3239 33.1938 27.834 33.0108 27.4154 32.645C26.9968 32.2792 26.7875 31.7675 26.7875 31.1099C26.7875 30.5264 26.9899 30.0355 27.3947 29.6373C27.7995 29.239 28.2963 29.0399 28.8851 29.0399C29.4647 29.0399 29.9523 29.239 30.3479 29.6373C30.7435 30.0355 30.9413 30.5264 30.9413 31.1099C30.9413 31.7582 30.7343 32.2676 30.3203 32.6381C29.9063 33.0085 29.4279 33.1938 28.8851 33.1938Z" fill="black"/>
</g>
<path d="M22.6336 17.1762C22.6336 16.357 22.887 15.527 23.3938 14.6863C23.9006 13.8455 24.6399 13.1492 25.6119 12.5973C26.5839 12.0455 27.7179 11.7695 29.0139 11.7695C30.2186 11.7695 31.2819 12.0002 32.2041 12.4615C33.1263 12.9229 33.8386 13.5502 34.3413 14.3435C34.8439 15.1368 35.0952 15.9991 35.0952 16.9304C35.0952 17.6634 34.9519 18.3058 34.6653 18.8577C34.3786 19.4096 34.038 19.886 33.6434 20.2869C33.2488 20.6879 32.5406 21.3627 31.5187 22.3112C31.2362 22.5785 31.0099 22.8135 30.8396 23.0161C30.6693 23.2188 30.5426 23.4042 30.4595 23.5723C30.3764 23.7405 30.312 23.9086 30.2663 24.0768C30.2206 24.2449 30.1521 24.5403 30.0607 24.9628C29.9029 25.8596 29.4086 26.308 28.5778 26.308C28.1458 26.308 27.7823 26.1614 27.4874 25.8682C27.1925 25.575 27.045 25.1396 27.045 24.5618C27.045 23.8375 27.153 23.2102 27.369 22.6798C27.585 22.1495 27.8716 21.6839 28.2289 21.2829C28.5861 20.8819 29.0679 20.4055 29.6744 19.8536C30.2061 19.3707 30.5903 19.0064 30.8271 18.7607C31.0639 18.5149 31.2633 18.2411 31.4253 17.9393C31.5873 17.6375 31.6683 17.3098 31.6683 16.9563C31.6683 16.2664 31.4211 15.6844 30.9268 15.2101C30.4325 14.7359 29.7949 14.4987 29.0139 14.4987C28.1001 14.4987 27.4272 14.738 26.9952 15.2166C26.5632 15.6952 26.1976 16.4001 25.8986 17.3314C25.6161 18.3058 25.0803 18.793 24.291 18.793C23.8258 18.793 23.4333 18.6227 23.1134 18.2821C22.7936 17.9415 22.6336 17.5728 22.6336 17.1762ZM28.8851 33.1938C28.3239 33.1938 27.834 33.0108 27.4154 32.645C26.9968 32.2792 26.7875 31.7675 26.7875 31.1099C26.7875 30.5264 26.9899 30.0355 27.3947 29.6373C27.7995 29.239 28.2963 29.0399 28.8851 29.0399C29.4647 29.0399 29.9523 29.239 30.3479 29.6373C30.7435 30.0355 30.9413 30.5264 30.9413 31.1099C30.9413 31.7582 30.7343 32.2676 30.3203 32.6381C29.9063 33.0085 29.4279 33.1938 28.8851 33.1938Z" fill="url(#paint1_linear)"/>
<defs>
<filter id="filter0_d" x="20.6336" y="10.7695" width="16.4615" height="25.4242" filterUnits="userSpaceOnUse" color-interpolation-filters="sRGB">
<feFlood flood-opacity="0" result="BackgroundImageFix"/>
<feColorMatrix in="SourceAlpha" type="matrix" values="0 0 0 0 0 0 0 0 0 0 0 0 0 0 0 0 0 0 127 0"/>
<feOffset dy="1"/>
<feGaussianBlur stdDeviation="1"/>
<feColorMatrix type="matrix" values="0 0 0 0 0.180392 0 0 0 0 0.384314 0 0 0 0 0.658824 0 0 0 0.597373 0"/>
<feBlend mode="normal" in2="BackgroundImageFix" result="effect1_dropShadow"/>
<feBlend mode="normal" in="SourceGraphic" in2="effect1_dropShadow" result="shape"/>
</filter>
<radialGradient id="paint0_radial" cx="0" cy="0" r="1" gradientUnits="userSpaceOnUse" gradientTransform="translate(27 22.2028) scale(43.7023)">
<stop stop-color="#FDFDFD"/>
<stop offset="1" stop-color="#DCDCDC"/>
</radialGradient>
<linearGradient id="paint1_linear" x1="26.7564" y1="11.7695" x2="37.1335" y2="29.6101" gradientUnits="userSpaceOnUse">
<stop stop-color="#006DFF"/>
<stop offset="1" stop-color="#006FDA"/>
</linearGradient>
</defs>
</svg>
