<svg width="73" height="54" viewBox="0 0 73 54" fill="none" xmlns="http://www.w3.org/2000/svg">
<path fill-rule="evenodd" clip-rule="evenodd" d="M66 29V34.9194C66 35.4717 65.5523 35.9194 65 35.9194C64.7729 35.9194 64.5526 35.8421 64.3753 35.7002L56 29H36C32.134 29 29 25.866 29 22V7C29 3.13401 32.134 0 36 0H66C69.866 0 73 3.13401 73 7V22C73 25.866 69.866 29 66 29Z" fill="url(#paint0_linear)"/>
<path d="M7 47V52.9194C7 53.4717 7.44772 53.9194 8 53.9194C8.22707 53.9194 8.44738 53.8421 8.62469 53.7002L17 47H37C40.866 47 44 43.866 44 40V25C44 21.134 40.866 18 37 18H7C3.13401 18 0 21.134 0 25V40C0 43.866 3.13401 47 7 47Z" fill="url(#paint1_radial)"/>
<path fill-rule="evenodd" clip-rule="evenodd" d="M7.5 52.9194V46.5H7C3.41015 46.5 0.5 43.5899 0.5 40V25C0.5 21.4101 3.41015 18.5 7 18.5H37C40.5899 18.5 43.5 21.4101 43.5 25V40C43.5 43.5899 40.5899 46.5 37 46.5H16.8246L8.31235 53.3098C8.22369 53.3807 8.11354 53.4194 8 53.4194C7.72386 53.4194 7.5 53.1955 7.5 52.9194Z" stroke="#BBC3D3"/>
<g filter="url(#filter0_d)">
<path d="M12.4 34.8C11.0745 34.8 10 33.7255 10 32.4C10 31.0745 11.0745 30 12.4 30C13.7255 30 14.8 31.0745 14.8 32.4C14.8 33.7255 13.7255 34.8 12.4 34.8ZM22 34.8C20.6745 34.8 19.6 33.7255 19.6 32.4C19.6 31.0745 20.6745 30 22 30C23.3255 30 24.4 31.0745 24.4 32.4C24.4 33.7255 23.3255 34.8 22 34.8ZM31.6 34.8C30.2745 34.8 29.2 33.7255 29.2 32.4C29.2 31.0745 30.2745 30 31.6 30C32.9255 30 34 31.0745 34 32.4C34 33.7255 32.9255 34.8 31.6 34.8Z" fill="black"/>
</g>
<path d="M12.4 34.8C11.0745 34.8 10 33.7255 10 32.4C10 31.0745 11.0745 30 12.4 30C13.7255 30 14.8 31.0745 14.8 32.4C14.8 33.7255 13.7255 34.8 12.4 34.8ZM22 34.8C20.6745 34.8 19.6 33.7255 19.6 32.4C19.6 31.0745 20.6745 30 22 30C23.3255 30 24.4 31.0745 24.4 32.4C24.4 33.7255 23.3255 34.8 22 34.8ZM31.6 34.8C30.2745 34.8 29.2 33.7255 29.2 32.4C29.2 31.0745 30.2745 30 31.6 30C32.9255 30 34 31.0745 34 32.4C34 33.7255 32.9255 34.8 31.6 34.8Z" fill="#BBC3D3"/>
<defs>
<filter id="filter0_d" x="6" y="27" width="32" height="12.8" filterUnits="userSpaceOnUse" color-interpolation-filters="sRGB">
<feFlood flood-opacity="0" result="BackgroundImageFix"/>
<feColorMatrix in="SourceAlpha" type="matrix" values="0 0 0 0 0 0 0 0 0 0 0 0 0 0 0 0 0 0 127 0"/>
<feOffset dy="1"/>
<feGaussianBlur stdDeviation="2"/>
<feColorMatrix type="matrix" values="0 0 0 0 0 0 0 0 0 0 0 0 0 0 0 0 0 0 0.0557528 0"/>
<feBlend mode="normal" in2="BackgroundImageFix" result="effect1_dropShadow"/>
<feBlend mode="normal" in="SourceGraphic" in2="effect1_dropShadow" result="shape"/>
</filter>
<linearGradient id="paint0_linear" x1="29" y1="29.9285" x2="67.1304" y2="-1.19921" gradientUnits="userSpaceOnUse">
<stop stop-color="#006DFF"/>
<stop offset="1" stop-color="#61ADFF"/>
</linearGradient>
<radialGradient id="paint1_radial" cx="0" cy="0" r="1" gradientUnits="userSpaceOnUse" gradientTransform="translate(22 32) rotate(34.1359) scale(35.6406 41.5318)">
<stop stop-color="white"/>
<stop offset="1" stop-color="#DFDFDF"/>
</radialGradient>
</defs>
</svg>
