<?xml version="1.0" encoding="UTF-8"?>
<svg width="172px" height="178px" viewBox="0 0 172 178" version="1.1" xmlns="http://www.w3.org/2000/svg" xmlns:xlink="http://www.w3.org/1999/xlink">
    <!-- Generator: Sketch 53.2 (72643) - https://sketchapp.com -->
    <title>Combined Shape Copy</title>
    <desc>Created with Sketch.</desc>
    <defs>
        <path d="M23,20 L41,20 C42.6568542,20 44,21.3431458 44,23 L44,41 C44,42.6568542 42.6568542,44 41,44 L23,44 C21.3431458,44 20,42.6568542 20,41 L20,23 C20,21.3431458 21.3431458,20 23,20 Z M77,0 L95,0 C96.6568542,-3.04359188e-16 98,1.34314575 98,3 L98,21 C98,22.6568542 96.6568542,24 95,24 L77,24 C75.3431458,24 74,22.6568542 74,21 L74,3 C74,1.34314575 75.3431458,3.04359188e-16 77,0 Z M131,20 L149,20 C150.656854,20 152,21.3431458 152,23 L152,41 C152,42.6568542 150.656854,44 149,44 L131,44 C129.343146,44 128,42.6568542 128,41 L128,23 C128,21.3431458 129.343146,20 131,20 Z M3,78 L21,78 C22.6568542,78 24,79.3431458 24,81 L24,99 C24,100.656854 22.6568542,102 21,102 L3,102 C1.34314575,102 2.02906125e-16,100.656854 0,99 L0,81 C-2.02906125e-16,79.3431458 1.34314575,78 3,78 Z M77,78 L95,78 C96.6568542,78 98,79.3431458 98,81 L98,99 C98,100.656854 96.6568542,102 95,102 L77,102 C75.3431458,102 74,100.656854 74,99 L74,81 C74,79.3431458 75.3431458,78 77,78 Z M151,78 L169,78 C170.656854,78 172,79.3431458 172,81 L172,99 C172,100.656854 170.656854,102 169,102 L151,102 C149.343146,102 148,100.656854 148,99 L148,81 C148,79.3431458 149.343146,78 151,78 Z M23,134 L41,134 C42.6568542,134 44,135.343146 44,137 L44,155 C44,156.656854 42.6568542,158 41,158 L23,158 C21.3431458,158 20,156.656854 20,155 L20,137 C20,135.343146 21.3431458,134 23,134 Z M77,154 L95,154 C96.6568542,154 98,155.343146 98,157 L98,175 C98,176.656854 96.6568542,178 95,178 L77,178 C75.3431458,178 74,176.656854 74,175 L74,157 C74,155.343146 75.3431458,154 77,154 Z M131,134 L149,134 C150.656854,134 152,135.343146 152,137 L152,155 C152,156.656854 150.656854,158 149,158 L131,158 C129.343146,158 128,156.656854 128,155 L128,137 C128,135.343146 129.343146,134 131,134 Z" id="path-1"></path>
    </defs>
    <g id="Tardigrade-Icos" stroke="none" stroke-width="1" fill="none" fill-rule="evenodd">
        <g id="Combined-Shape-Copy">
            <use fill-opacity="0.40663243" fill="#2582FF" xlink:href="#path-1"></use>
            <path stroke-opacity="0.226890297" stroke="#2B4261" stroke-width="2" d="M23,21 C21.8954305,21 21,21.8954305 21,23 L21,41 C21,42.1045695 21.8954305,43 23,43 L41,43 C42.1045695,43 43,42.1045695 43,41 L43,23 C43,21.8954305 42.1045695,21 41,21 L23,21 Z M77,1 C75.8954305,1 75,1.8954305 75,3 L75,21 C75,22.1045695 75.8954305,23 77,23 L95,23 C96.1045695,23 97,22.1045695 97,21 L97,3 C97,1.8954305 96.1045695,1 95,1 L77,1 Z M131,21 C129.895431,21 129,21.8954305 129,23 L129,41 C129,42.1045695 129.895431,43 131,43 L149,43 C150.104569,43 151,42.1045695 151,41 L151,23 C151,21.8954305 150.104569,21 149,21 L131,21 Z M3,79 C1.8954305,79 1,79.8954305 1,81 L1,99 C1,100.104569 1.8954305,101 3,101 L21,101 C22.1045695,101 23,100.104569 23,99 L23,81 C23,79.8954305 22.1045695,79 21,79 L3,79 Z M77,79 C75.8954305,79 75,79.8954305 75,81 L75,99 C75,100.104569 75.8954305,101 77,101 L95,101 C96.1045695,101 97,100.104569 97,99 L97,81 C97,79.8954305 96.1045695,79 95,79 L77,79 Z M151,79 C149.895431,79 149,79.8954305 149,81 L149,99 C149,100.104569 149.895431,101 151,101 L169,101 C170.104569,101 171,100.104569 171,99 L171,81 C171,79.8954305 170.104569,79 169,79 L151,79 Z M23,135 C21.8954305,135 21,135.895431 21,137 L21,155 C21,156.104569 21.8954305,157 23,157 L41,157 C42.1045695,157 43,156.104569 43,155 L43,137 C43,135.895431 42.1045695,135 41,135 L23,135 Z M77,155 C75.8954305,155 75,155.895431 75,157 L75,175 C75,176.104569 75.8954305,177 77,177 L95,177 C96.1045695,177 97,176.104569 97,175 L97,157 C97,155.895431 96.1045695,155 95,155 L77,155 Z M131,135 C129.895431,135 129,135.895431 129,137 L129,155 C129,156.104569 129.895431,157 131,157 L149,157 C150.104569,157 151,156.104569 151,155 L151,137 C151,135.895431 150.104569,135 149,135 L131,135 Z" stroke-linejoin="square" fill-opacity="0.833151224" fill="#FFFFFF"></path>
        </g>
    </g>
</svg>