<?xml version="1.0" encoding="UTF-8"?>
<svg width="51px" height="53px" viewBox="0 0 51 53" version="1.1" xmlns="http://www.w3.org/2000/svg" xmlns:xlink="http://www.w3.org/1999/xlink">
    <!-- Generator: Sketch 53.2 (72643) - https://sketchapp.com -->
    <title>tar-com-ico-media</title>
    <desc>Created with Sketch.</desc>
    <defs>
        <linearGradient x1="100%" y1="77.8801452%" x2="0%" y2="26.6503699%" id="linearGradient-1">
            <stop stop-color="#2582FF" offset="0%"></stop>
            <stop stop-color="#12F5E1" offset="100%"></stop>
        </linearGradient>
        <linearGradient x1="100%" y1="78.9377728%" x2="0%" y2="25.7646064%" id="linearGradient-2">
            <stop stop-color="#2582FF" offset="0%"></stop>
            <stop stop-color="#12F5E1" offset="100%"></stop>
        </linearGradient>
        <linearGradient x1="100%" y1="78.9377728%" x2="0%" y2="25.7646064%" id="linearGradient-3">
            <stop stop-color="#2582FF" offset="0%"></stop>
            <stop stop-color="#12F5E1" offset="100%"></stop>
        </linearGradient>
        <linearGradient x1="100%" y1="76.8234154%" x2="0%" y2="27.5353814%" id="linearGradient-4">
            <stop stop-color="#2582FF" offset="0%"></stop>
            <stop stop-color="#12F5E1" offset="100%"></stop>
        </linearGradient>
        <linearGradient x1="14.3135341%" y1="138.653022%" x2="147.400907%" y2="-79.214749%" id="linearGradient-5">
            <stop stop-color="#EEEEEE" offset="0%"></stop>
            <stop stop-color="#878787" offset="100%"></stop>
        </linearGradient>
        <path d="M30.8997153,17.7034382 L24.7662455,22.2244006 C24.1221431,22.6991666 23.2270321,22.545217 22.7669589,21.8805447 C22.5933351,21.6297086 22.5,21.3291584 22.5,21.0209049 L22.5,11.9789802 C22.5,11.162162 23.1416697,10.5 23.9332094,10.5 C24.2319232,10.5 24.5231721,10.5963158 24.7662455,10.7754845 L30.8997153,15.2964469 C31.5438177,15.7712128 31.6930028,16.69491 31.2329297,17.3595823 C31.1410042,17.4923881 31.0284111,17.608577 30.8997153,17.7034382 Z" id="path-6"></path>
        <filter x="-72.2%" y="-45.8%" width="244.4%" height="208.3%" filterUnits="objectBoundingBox" id="filter-7">
            <feOffset dx="0" dy="1" in="SourceAlpha" result="shadowOffsetOuter1"></feOffset>
            <feGaussianBlur stdDeviation="2" in="shadowOffsetOuter1" result="shadowBlurOuter1"></feGaussianBlur>
            <feColorMatrix values="0 0 0 0 0   0 0 0 0 0   0 0 0 0 0  0 0 0 0.172066215 0" type="matrix" in="shadowBlurOuter1"></feColorMatrix>
        </filter>
        <linearGradient x1="75.5635547%" y1="51.3458252%" x2="-108.41949%" y2="33.625452%" id="linearGradient-8">
            <stop stop-color="#E8ECF1" offset="0%"></stop>
            <stop stop-color="#93A1AF" offset="100%"></stop>
        </linearGradient>
        <path d="M0.847826087,0.75 L42.6878882,0.75 C43.1561296,0.75 43.5357143,1.12958467 43.5357143,1.59782609 L43.5357143,1.59782609 C43.5357143,2.06606751 43.1561296,2.44565217 42.6878882,2.44565217 L0.847826087,2.44565217 C0.379584669,2.44565217 5.73430354e-17,2.06606751 0,1.59782609 L0,1.59782609 C-5.73430354e-17,1.12958467 0.379584669,0.75 0.847826087,0.75 Z" id="path-9"></path>
        <linearGradient x1="77.31569%" y1="100%" x2="22.68431%" y2="0%" id="linearGradient-11">
            <stop stop-color="#2582FF" offset="0%"></stop>
            <stop stop-color="#2582FF" offset="100%"></stop>
        </linearGradient>
        <circle id="path-12" cx="11.25" cy="34.5" r="2.25"></circle>
        <filter x="-144.4%" y="-122.2%" width="388.9%" height="388.9%" filterUnits="objectBoundingBox" id="filter-13">
            <feOffset dx="0" dy="1" in="SourceAlpha" result="shadowOffsetOuter1"></feOffset>
            <feGaussianBlur stdDeviation="2" in="shadowOffsetOuter1" result="shadowBlurOuter1"></feGaussianBlur>
            <feColorMatrix values="0 0 0 0 0   0 0 0 0 0   0 0 0 0 0  0 0 0 0.216154939 0" type="matrix" in="shadowBlurOuter1"></feColorMatrix>
        </filter>
    </defs>
    <g id="Tardigrade-Icos" stroke="none" stroke-width="1" fill="none" fill-rule="evenodd">
        <g id="tar-com-ico-media">
            <g id="Group-50-Copy" opacity="0.547549293" transform="translate(3.000000, 0.000000)">
                <g id="Group-56" opacity="0.756277902">
                    <path d="M5.25,7.29620563 L38.75,7.29620563 C41.6494949,7.29620563 44,9.69256346 44,12.6486207 L44,35.8424191 C44,39.2911525 41.2577441,42.0869033 37.875,42.0869033 L6.125,42.0869033 C2.74225591,42.0869033 -3.62889445e-16,39.2911525 -7.77156117e-16,35.8424191 L0,12.6486207 C-3.55085719e-16,9.69256346 2.35050506,7.29620563 5.25,7.29620563 Z" id="Rectangle" fill="url(#linearGradient-1)"></path>
                    <path d="M8.29545455,3.28947368 L35.7045455,3.28947368 C38.0768595,3.28947368 40,5.28697249 40,7.75101215 L40,27.0843455 C40,29.9590584 37.7563361,32.2894737 34.9886364,32.2894737 L9.01136364,32.2894737 C6.24366392,32.2894737 4,29.9590584 4,27.0843455 L4,7.75101215 C4,5.28697249 5.92314051,3.28947368 8.29545455,3.28947368 Z" id="Rectangle" fill="url(#linearGradient-2)" opacity="0.35139974"></path>
                    <path d="M11.2586207,0.289473684 L32.0517241,0.289473684 C33.8514107,0.289473684 35.3103448,1.80481761 35.3103448,3.67408907 L35.3103448,18.3407557 C35.3103448,20.5215724 33.608255,22.2894737 31.5086207,22.2894737 L11.8017241,22.2894737 C9.70208987,22.2894737 8,20.5215724 8,18.3407557 L8,3.67408907 C8,1.80481761 9.45893418,0.289473684 11.2586207,0.289473684 Z" id="Rectangle" fill="url(#linearGradient-3)" opacity="0.131394159"></path>
                </g>
            </g>
            <g id="Group-50-Copy-2" opacity="0.547549293" transform="translate(7.000000, 3.289474)"></g>
            <g id="Group-50-Copy-3" opacity="0.547549293" transform="translate(11.000000, 0.289474)"></g>
            <g id="Group-50" transform="translate(0.000000, 11.289474)">
                <path d="M6,0 L44.2857143,0 C47.5994228,-3.55188275e-15 50.2857143,2.6862915 50.2857143,6 L50.2857143,32 C50.2857143,35.8659932 47.1517075,39 43.2857143,39 L7,39 C3.13400675,39 4.73447626e-16,35.8659932 0,32 L-8.8817842e-16,6 C-1.29399067e-15,2.6862915 2.6862915,6.08718376e-16 6,0 Z" id="Rectangle" fill="url(#linearGradient-4)"></path>
                <g id="Triangle" opacity="0.683082217">
                    <use fill="black" fill-opacity="1" filter="url(#filter-7)" xlink:href="#path-6"></use>
                    <use fill="url(#linearGradient-5)" fill-rule="evenodd" xlink:href="#path-6"></use>
                    <use fill-opacity="0.579326923" fill="#FFFFFF" fill-rule="evenodd" xlink:href="#path-6"></use>
                </g>
                <path d="M-4.26325641e-14,30.75 L50.2857143,30.75 L50.2857143,33 C50.2857143,36.3137085 47.5994228,39 44.2857143,39 L6,39 C2.6862915,39 -4.13385735e-14,36.3137085 -4.17443857e-14,33 L-4.26325641e-14,30.75 Z" id="Rectangle" fill="url(#linearGradient-8)"></path>
                <g id="Rectangle-4" transform="translate(3.000000, 32.902174)">
                    <mask id="mask-10" fill="white">
                        <use xlink:href="#path-9"></use>
                    </mask>
                    <use id="Rectangle" fill-opacity="0.152753497" fill="#000000" xlink:href="#path-9"></use>
                    <rect id="Rectangle" fill="url(#linearGradient-11)" mask="url(#mask-10)" x="-4.5" y="-10.4021739" width="12.75" height="17.25"></rect>
                </g>
                <g id="Oval">
                    <use fill="black" fill-opacity="1" filter="url(#filter-13)" xlink:href="#path-12"></use>
                    <use fill="#FFFFFF" fill-rule="evenodd" xlink:href="#path-12"></use>
                </g>
            </g>
        </g>
    </g>
</svg>