<svg id="design" xmlns="http://www.w3.org/2000/svg" xmlns:xlink="http://www.w3.org/1999/xlink" viewBox="0 0 950 879.56"><defs><style>.cls-1,.cls-10,.cls-11,.cls-14,.cls-15,.cls-20,.cls-21,.cls-22,.cls-25,.cls-26,.cls-27,.cls-28,.cls-29,.cls-3,.cls-31,.cls-32,.cls-33,.cls-34,.cls-39,.cls-4,.cls-42,.cls-46,.cls-49,.cls-5,.cls-50,.cls-55,.cls-56,.cls-59,.cls-63,.cls-64,.cls-67,.cls-7,.cls-8,.cls-9{fill:none;stroke-miterlimit:10;}.cls-1{stroke:#f4b244;}.cls-1,.cls-38,.cls-46,.cls-59,.cls-67,.cls-7{opacity:0.5;}.cls-2{fill:url(#linear-gradient);}.cls-25,.cls-26,.cls-3,.cls-4,.cls-5{stroke:#fff;}.cls-4{stroke-dasharray:10.36 5.76;}.cls-5{stroke-dasharray:9.69 5.38;}.cls-6{fill:url(#linear-gradient-2);}.cls-7{stroke:url(#linear-gradient-3);}.cls-10,.cls-11,.cls-20,.cls-21,.cls-22,.cls-27,.cls-28,.cls-29,.cls-31,.cls-32,.cls-33,.cls-34,.cls-42,.cls-8,.cls-9{stroke-dasharray:9 5;}.cls-10,.cls-11,.cls-20,.cls-21,.cls-22,.cls-27,.cls-28,.cls-29,.cls-31,.cls-32,.cls-33,.cls-34,.cls-41,.cls-8,.cls-9{opacity:0.8;}.cls-8{stroke:url(#linear-gradient-4);}.cls-9{stroke:url(#linear-gradient-5);}.cls-10{stroke:url(#linear-gradient-6);}.cls-11{stroke:url(#linear-gradient-7);}.cls-12{fill:url(#linear-gradient-8);}.cls-13{fill:url(#linear-gradient-9);}.cls-14,.cls-49,.cls-55,.cls-63{opacity:0.4;}.cls-14{stroke:url(#linear-gradient-10);}.cls-15{stroke:url(#linear-gradient-11);}.cls-16{fill:url(#linear-gradient-12);}.cls-17{fill:url(#linear-gradient-13);}.cls-18{fill:url(#linear-gradient-14);}.cls-19{fill:#f4c444;}.cls-20{stroke:url(#linear-gradient-15);}.cls-21{stroke:url(#linear-gradient-16);}.cls-22{stroke:url(#linear-gradient-17);}.cls-23{fill:url(#linear-gradient-18);}.cls-24{fill:url(#linear-gradient-19);}.cls-25{stroke-dasharray:10.42 5.79;}.cls-26{stroke-dasharray:8.77 4.87;}.cls-27{stroke:url(#linear-gradient-20);}.cls-28{stroke:url(#linear-gradient-21);}.cls-29{stroke:url(#linear-gradient-22);}.cls-30{fill:url(#linear-gradient-23);}.cls-31{stroke:url(#linear-gradient-24);}.cls-32{stroke:url(#linear-gradient-25);}.cls-33{stroke:url(#linear-gradient-26);}.cls-34{stroke:url(#linear-gradient-27);}.cls-35{fill:url(#linear-gradient-28);}.cls-36{fill:#191966;}.cls-37{fill:url(#linear-gradient-29);}.cls-39{stroke:url(#linear-gradient-30);}.cls-40{fill:url(#linear-gradient-31);}.cls-42{stroke:url(#linear-gradient-32);}.cls-43{fill:#fff;}.cls-44{fill:url(#linear-gradient-33);}.cls-45,.cls-54,.cls-62,.cls-79{opacity:0.6;}.cls-45{fill:url(#linear-gradient-34);}.cls-46{stroke:url(#linear-gradient-35);}.cls-47{fill:url(#linear-gradient-36);}.cls-48{fill:url(#linear-gradient-37);}.cls-49{stroke:url(#linear-gradient-38);}.cls-50{stroke:url(#linear-gradient-39);}.cls-51{fill:url(#linear-gradient-40);}.cls-52{fill:url(#linear-gradient-41);}.cls-53{fill:url(#linear-gradient-42);}.cls-54{fill:url(#linear-gradient-43);}.cls-55{stroke:url(#linear-gradient-44);}.cls-56{stroke:url(#linear-gradient-45);}.cls-57{fill:url(#linear-gradient-46);}.cls-58{fill:url(#linear-gradient-47);}.cls-59{stroke:url(#linear-gradient-48);}.cls-60{fill:url(#linear-gradient-49);}.cls-61{fill:url(#linear-gradient-50);}.cls-62{fill:url(#linear-gradient-51);}.cls-63{stroke:url(#linear-gradient-52);}.cls-64{stroke:url(#linear-gradient-53);}.cls-65{fill:url(#linear-gradient-54);}.cls-66{fill:url(#linear-gradient-55);}.cls-67{stroke:url(#linear-gradient-56);}.cls-68{fill:url(#linear-gradient-57);}.cls-69{fill:url(#linear-gradient-58);}.cls-70{fill:url(#linear-gradient-59);}.cls-71{fill:url(#linear-gradient-60);}.cls-72{fill:url(#linear-gradient-61);}.cls-73{fill:#2682ff;}.cls-74{fill:url(#linear-gradient-62);}.cls-75,.cls-76,.cls-77{opacity:0.2;}.cls-75{fill:url(#linear-gradient-63);}.cls-76{fill:url(#linear-gradient-64);}.cls-77{fill:url(#linear-gradient-65);}.cls-78{fill:url(#linear-gradient-66);}.cls-79{fill:url(#linear-gradient-68);}.cls-80{fill:#0c3784;}.cls-81{fill:url(#linear-gradient-69);}.cls-82{fill:url(#linear-gradient-70);}.cls-83{fill:url(#linear-gradient-71);}.cls-84{fill:url(#linear-gradient-72);}.cls-85{fill:url(#linear-gradient-73);}.cls-86{fill:url(#linear-gradient-74);}.cls-87{fill:url(#linear-gradient-75);}.cls-88{fill:url(#linear-gradient-76);}.cls-89{fill:url(#linear-gradient-77);}.cls-90{fill:url(#linear-gradient-78);}.cls-91{fill:url(#linear-gradient-79);}.cls-92{fill:url(#linear-gradient-80);}.cls-93{fill:url(#linear-gradient-81);}.cls-94{fill:url(#linear-gradient-82);}.cls-95{fill:url(#linear-gradient-83);}.cls-96{fill:url(#linear-gradient-84);}</style><linearGradient id="linear-gradient" x1="606.71" y1="716.1" x2="606.71" y2="673.64" gradientTransform="matrix(-1, 0, 0, 1, 1504.86, 0)" gradientUnits="userSpaceOnUse"><stop offset="0" stop-color="#f4e113"/><stop offset="1" stop-color="#f49d1a"/></linearGradient><linearGradient id="linear-gradient-2" x1="514.71" y1="326.1" x2="514.71" y2="283.64" gradientTransform="matrix(-1, 0, 0, 1, 1336.86, 0)" xlink:href="#linear-gradient"/><linearGradient id="linear-gradient-3" x1="92.21" y1="455.87" x2="167.5" y2="455.87" gradientUnits="userSpaceOnUse"><stop offset="0" stop-color="#10b0ff"/><stop offset="1" stop-color="#08ebbf"/></linearGradient><linearGradient id="linear-gradient-4" x1="251" y1="436.37" x2="281.64" y2="436.37" gradientUnits="userSpaceOnUse"><stop offset="0" stop-color="#10b0ff"/><stop offset="1" stop-color="#005eff"/></linearGradient><linearGradient id="linear-gradient-5" x1="336.51" y1="569.87" x2="460" y2="569.87" xlink:href="#linear-gradient-4"/><linearGradient id="linear-gradient-6" x1="459" y1="459.1" x2="460" y2="459.1" xlink:href="#linear-gradient-4"/><linearGradient id="linear-gradient-7" x1="459" y1="232.86" x2="460" y2="232.86" xlink:href="#linear-gradient-4"/><linearGradient id="linear-gradient-8" x1="129.85" y1="326.1" x2="129.85" y2="283.64" gradientTransform="matrix(1, 0, 0, 1, 0, 0)" xlink:href="#linear-gradient"/><linearGradient id="linear-gradient-9" x1="129.85" y1="467.1" x2="129.85" y2="424.64" xlink:href="#linear-gradient-3"/><linearGradient id="linear-gradient-10" x1="149.4" y1="385.87" x2="356.37" y2="385.87" xlink:href="#linear-gradient-4"/><linearGradient id="linear-gradient-11" x1="149.4" y1="371.87" x2="356.37" y2="371.87" xlink:href="#linear-gradient-4"/><linearGradient id="linear-gradient-12" x1="252.85" y1="409.09" x2="252.85" y2="307.53" xlink:href="#linear-gradient-4"/><linearGradient id="linear-gradient-13" x1="252.88" y1="365.73" x2="252.88" y2="248.01" xlink:href="#linear-gradient-4"/><linearGradient id="linear-gradient-14" x1="289.63" y1="515.13" x2="328.35" y2="515.13" xlink:href="#linear-gradient-4"/><linearGradient id="linear-gradient-15" x1="219" y1="792.79" x2="329.9" y2="792.79" xlink:href="#linear-gradient-4"/><linearGradient id="linear-gradient-16" x1="392.06" y1="590.17" x2="471" y2="590.17" xlink:href="#linear-gradient-4"/><linearGradient id="linear-gradient-17" x1="470" y1="238.85" x2="471" y2="238.85" xlink:href="#linear-gradient-4"/><linearGradient id="linear-gradient-18" x1="459" y1="559.1" x2="459" y2="509.1" xlink:href="#linear-gradient-4"/><linearGradient id="linear-gradient-19" x1="341.15" y1="777.1" x2="380.85" y2="777.1" xlink:href="#linear-gradient-3"/><linearGradient id="linear-gradient-20" x1="640.83" y1="445.27" x2="701" y2="445.27" xlink:href="#linear-gradient-4"/><linearGradient id="linear-gradient-21" x1="492" y1="521.79" x2="581.93" y2="521.79" xlink:href="#linear-gradient-4"/><linearGradient id="linear-gradient-22" x1="492" y1="253.62" x2="493" y2="253.62" xlink:href="#linear-gradient-4"/><linearGradient id="linear-gradient-23" x1="591.65" y1="535.13" x2="630.37" y2="535.13" gradientUnits="userSpaceOnUse"><stop offset="0" stop-color="#702aff"/><stop offset="1" stop-color="#c842ff"/></linearGradient><linearGradient id="linear-gradient-24" x1="671.4" y1="792.79" x2="733" y2="792.79" xlink:href="#linear-gradient-4"/><linearGradient id="linear-gradient-25" x1="481" y1="737.79" x2="611.04" y2="737.79" xlink:href="#linear-gradient-4"/><linearGradient id="linear-gradient-26" x1="481" y1="524.9" x2="482" y2="524.9" xlink:href="#linear-gradient-4"/><linearGradient id="linear-gradient-27" x1="481" y1="246.76" x2="482" y2="246.76" xlink:href="#linear-gradient-4"/><linearGradient id="linear-gradient-28" x1="621.15" y1="806.1" x2="660.85" y2="806.1" xlink:href="#linear-gradient-4"/><linearGradient id="linear-gradient-29" x1="213.68" y1="295.52" x2="292.32" y2="295.52" gradientTransform="matrix(1, 0, 0, 1, 0, 0)" xlink:href="#linear-gradient"/><linearGradient id="linear-gradient-30" x1="428.5" y1="112.96" x2="539.5" y2="112.96" xlink:href="#linear-gradient-4"/><linearGradient id="linear-gradient-31" x1="419" y1="120.96" x2="529" y2="120.96" xlink:href="#linear-gradient-4"/><linearGradient id="linear-gradient-32" x1="430.5" y1="347.46" x2="515.5" y2="347.46" xlink:href="#linear-gradient-4"/><linearGradient id="linear-gradient-33" x1="514.8" y1="104.63" x2="514.8" y2="25.65" gradientTransform="matrix(1, 0, 0, 1, 0, 0)" xlink:href="#linear-gradient"/><linearGradient id="linear-gradient-34" x1="253" y1="322.76" x2="253" y2="179.1" gradientUnits="userSpaceOnUse"><stop offset="0" stop-color="#f4e113"/><stop offset="1" stop-color="#f49d1a" stop-opacity="0"/></linearGradient><linearGradient id="linear-gradient-35" x1="14.21" y1="845.87" x2="89.5" y2="845.87" xlink:href="#linear-gradient-3"/><linearGradient id="linear-gradient-36" x1="51.85" y1="716.1" x2="51.85" y2="673.64" gradientTransform="matrix(1, 0, 0, 1, 0, 0)" xlink:href="#linear-gradient"/><linearGradient id="linear-gradient-37" x1="51.85" y1="857.1" x2="51.85" y2="814.64" xlink:href="#linear-gradient-3"/><linearGradient id="linear-gradient-38" x1="71.4" y1="775.87" x2="278.37" y2="775.87" xlink:href="#linear-gradient-4"/><linearGradient id="linear-gradient-39" x1="71.4" y1="761.87" x2="278.37" y2="761.87" xlink:href="#linear-gradient-4"/><linearGradient id="linear-gradient-40" x1="174.85" y1="799.09" x2="174.85" y2="697.53" xlink:href="#linear-gradient-4"/><linearGradient id="linear-gradient-41" x1="174.88" y1="755.73" x2="174.88" y2="638.01" xlink:href="#linear-gradient-4"/><linearGradient id="linear-gradient-42" x1="135.68" y1="685.52" x2="214.32" y2="685.52" gradientTransform="matrix(1, 0, 0, 1, 0, 0)" xlink:href="#linear-gradient"/><linearGradient id="linear-gradient-43" x1="175" y1="712.76" x2="175" y2="559.1" xlink:href="#linear-gradient-34"/><linearGradient id="linear-gradient-44" x1="673.4" y1="775.87" x2="880.37" y2="775.87" xlink:href="#linear-gradient-4"/><linearGradient id="linear-gradient-45" x1="673.4" y1="761.87" x2="880.37" y2="761.87" xlink:href="#linear-gradient-4"/><linearGradient id="linear-gradient-46" x1="776.85" y1="799.09" x2="776.85" y2="697.53" xlink:href="#linear-gradient-4"/><linearGradient id="linear-gradient-47" x1="776.88" y1="755.73" x2="776.88" y2="638.01" xlink:href="#linear-gradient-4"/><linearGradient id="linear-gradient-48" x1="569.07" y1="845.87" x2="644.36" y2="845.87" gradientTransform="matrix(-1, 0, 0, 1, 1504.86, 0)" xlink:href="#linear-gradient-3"/><linearGradient id="linear-gradient-49" x1="606.71" y1="857.1" x2="606.71" y2="814.64" gradientTransform="matrix(-1, 0, 0, 1, 1504.86, 0)" xlink:href="#linear-gradient-3"/><linearGradient id="linear-gradient-50" x1="737.68" y1="685.52" x2="816.32" y2="685.52" gradientTransform="matrix(1, 0, 0, 1, 0, 0)" xlink:href="#linear-gradient"/><linearGradient id="linear-gradient-51" x1="777" y1="712.76" x2="777" y2="569.1" xlink:href="#linear-gradient-34"/><linearGradient id="linear-gradient-52" x1="594.4" y1="385.87" x2="801.37" y2="385.87" xlink:href="#linear-gradient-4"/><linearGradient id="linear-gradient-53" x1="594.4" y1="371.87" x2="801.37" y2="371.87" xlink:href="#linear-gradient-4"/><linearGradient id="linear-gradient-54" x1="697.85" y1="409.09" x2="697.85" y2="307.53" xlink:href="#linear-gradient-4"/><linearGradient id="linear-gradient-55" x1="697.88" y1="365.73" x2="697.88" y2="248.01" xlink:href="#linear-gradient-4"/><linearGradient id="linear-gradient-56" x1="477.07" y1="455.87" x2="552.36" y2="455.87" gradientTransform="matrix(-1, 0, 0, 1, 1336.86, 0)" xlink:href="#linear-gradient-3"/><linearGradient id="linear-gradient-57" x1="514.71" y1="467.1" x2="514.71" y2="424.64" gradientTransform="matrix(-1, 0, 0, 1, 1336.86, 0)" xlink:href="#linear-gradient-3"/><linearGradient id="linear-gradient-58" x1="658.68" y1="295.52" x2="737.32" y2="295.52" gradientTransform="matrix(1, 0, 0, 1, 0, 0)" xlink:href="#linear-gradient"/><linearGradient id="linear-gradient-59" x1="213.69" y1="222.81" x2="213.69" y2="90.28" gradientTransform="matrix(0.99, 0.12, 0.02, 1.01, 34.72, -13.06)" xlink:href="#linear-gradient-23"/><linearGradient id="linear-gradient-60" x1="735.95" y1="546.06" x2="735.95" y2="413.53" gradientTransform="matrix(0.99, 0.12, 0.02, 1.01, 34.72, -13.06)" xlink:href="#linear-gradient-23"/><linearGradient id="linear-gradient-61" x1="482" y1="677.1" x2="482" y2="627.1" gradientTransform="matrix(1, 0, 0, 1, 0, 0)" xlink:href="#linear-gradient"/><linearGradient id="linear-gradient-62" x1="555" y1="412.6" x2="557" y2="412.6" xlink:href="#linear-gradient-23"/><linearGradient id="linear-gradient-63" x1="404" y1="405.6" x2="406" y2="405.6" xlink:href="#linear-gradient-4"/><linearGradient id="linear-gradient-64" x1="383.5" y1="350.6" x2="386.5" y2="350.6" xlink:href="#linear-gradient-4"/><linearGradient id="linear-gradient-65" x1="553" y1="306.1" x2="556" y2="306.1" xlink:href="#linear-gradient-4"/><linearGradient id="linear-gradient-66" x1="452.79" y1="375.51" x2="496.89" y2="331.41" xlink:href="#linear-gradient-3"/><linearGradient id="linear-gradient-68" x1="698" y1="322.76" x2="698" y2="169.1" xlink:href="#linear-gradient-34"/><linearGradient id="linear-gradient-69" x1="625.86" y1="119.14" x2="701.72" y2="119.14" xlink:href="#linear-gradient-3"/><linearGradient id="linear-gradient-70" x1="636.68" y1="204.36" x2="636.68" y2="128.8" xlink:href="#linear-gradient-4"/><linearGradient id="linear-gradient-71" x1="-1318.94" y1="188.48" x2="-1291.47" y2="188.48" gradientTransform="matrix(-1, 0, 0, 1, -581.94, 0)" xlink:href="#linear-gradient-4"/><linearGradient id="linear-gradient-72" x1="700" y1="231.92" x2="700" y2="192.29" xlink:href="#linear-gradient-4"/><linearGradient id="linear-gradient-73" x1="-1347.66" y1="155.98" x2="-1269.8" y2="155.98" gradientTransform="matrix(-1, 0, 0, 1, -581.94, 0)" xlink:href="#linear-gradient-4"/><linearGradient id="linear-gradient-74" x1="687.79" y1="157.58" x2="760.58" y2="157.58" xlink:href="#linear-gradient-3"/><linearGradient id="linear-gradient-75" x1="703.81" y1="158.25" x2="743.63" y2="158.25" xlink:href="#linear-gradient-3"/><linearGradient id="linear-gradient-76" x1="703.81" y1="169.87" x2="743.63" y2="169.87" xlink:href="#linear-gradient-3"/><linearGradient id="linear-gradient-77" x1="103.86" y1="511.14" x2="179.72" y2="511.14" xlink:href="#linear-gradient-3"/><linearGradient id="linear-gradient-78" x1="114.68" y1="596.36" x2="114.68" y2="520.8" xlink:href="#linear-gradient-4"/><linearGradient id="linear-gradient-79" x1="-796.94" y1="580.48" x2="-769.47" y2="580.48" gradientTransform="matrix(-1, 0, 0, 1, -581.94, 0)" xlink:href="#linear-gradient-4"/><linearGradient id="linear-gradient-80" x1="178" y1="623.92" x2="178" y2="584.29" xlink:href="#linear-gradient-4"/><linearGradient id="linear-gradient-81" x1="-825.66" y1="547.98" x2="-747.8" y2="547.98" gradientTransform="matrix(-1, 0, 0, 1, -581.94, 0)" xlink:href="#linear-gradient-4"/><linearGradient id="linear-gradient-82" x1="165.79" y1="549.58" x2="238.58" y2="549.58" xlink:href="#linear-gradient-3"/><linearGradient id="linear-gradient-83" x1="181.81" y1="550.25" x2="221.63" y2="550.25" xlink:href="#linear-gradient-3"/><linearGradient id="linear-gradient-84" x1="181.81" y1="561.87" x2="221.63" y2="561.87" xlink:href="#linear-gradient-3"/></defs><title>tardigrade-io-illustration</title><path class="cls-1" d="M933.69,708l-30.92,16.84a10.25,10.25,0,0,1-10-.08l-30.25-17.15a3.07,3.07,0,0,1,0-5.32L892.31,685a10.26,10.26,0,0,1,10.2-.06l31.23,17.68A3.07,3.07,0,0,1,933.69,708Z"/><path class="cls-2" d="M933.69,698l-30.92,16.84a10.25,10.25,0,0,1-10-.08l-30.25-17.15a3.07,3.07,0,0,1,0-5.32L892.31,675a10.26,10.26,0,0,1,10.2-.06l31.23,17.68A3.07,3.07,0,0,1,933.69,698Z"/><line class="cls-3" x1="898.5" y1="691.1" x2="898.5" y2="686.6"/><line class="cls-4" x1="898.5" y1="680.85" x2="898.5" y2="651.48"/><polyline class="cls-3" points="898.5 648.6 898.5 644.1 894.46 646.09"/><line class="cls-5" x1="889.63" y1="648.47" x2="837.95" y2="673.93"/><line class="cls-3" x1="835.54" y1="675.12" x2="831.5" y2="677.1"/><path class="cls-1" d="M857.69,318l-30.92,16.84a10.25,10.25,0,0,1-10-.08l-30.25-17.15a3.07,3.07,0,0,1,0-5.32L816.31,295a10.26,10.26,0,0,1,10.2-.06l31.23,17.68A3.07,3.07,0,0,1,857.69,318Z"/><path class="cls-6" d="M857.69,308l-30.92,16.84a10.25,10.25,0,0,1-10-.08l-30.25-17.15a3.07,3.07,0,0,1,0-5.32L816.31,285a10.26,10.26,0,0,1,10.2-.06l31.23,17.68A3.07,3.07,0,0,1,857.69,308Z"/><line class="cls-3" x1="822.5" y1="301.1" x2="822.5" y2="296.6"/><line class="cls-4" x1="822.5" y1="290.85" x2="822.5" y2="261.48"/><polyline class="cls-3" points="822.5 258.6 822.5 254.1 818.46 256.09"/><line class="cls-5" x1="813.63" y1="258.47" x2="761.95" y2="283.93"/><line class="cls-3" x1="759.54" y1="285.12" x2="755.5" y2="287.1"/><path class="cls-7" d="M94.31,459l30.92,16.84a10.25,10.25,0,0,0,10-.08l30.25-17.15a3.07,3.07,0,0,0,0-5.32L135.69,436a10.26,10.26,0,0,0-10.2-.06L94.26,453.65A3.07,3.07,0,0,0,94.31,459Z"/><path class="cls-1" d="M94.31,318l30.92,16.84a10.25,10.25,0,0,0,10-.08l30.25-17.15a3.07,3.07,0,0,0,0-5.32L135.69,295a10.26,10.26,0,0,0-10.2-.06L94.26,312.65A3.07,3.07,0,0,0,94.31,318Z"/><polyline class="cls-8" points="281.38 499.31 251.5 481.31 251.5 373.01"/><polyline class="cls-9" points="459.5 565.6 459.5 606.6 336.77 532.67"/><line class="cls-10" x1="459.5" y1="413.6" x2="459.5" y2="504.6"/><line class="cls-11" x1="459.5" y1="197.95" x2="459.5" y2="267.77"/><path class="cls-12" d="M94.31,308l30.92,16.84a10.25,10.25,0,0,0,10-.08l30.25-17.15a3.07,3.07,0,0,0,0-5.32L135.69,285a10.26,10.26,0,0,0-10.2-.06L94.26,302.65A3.07,3.07,0,0,0,94.31,308Z"/><line class="cls-3" x1="129.5" y1="301.1" x2="129.5" y2="296.6"/><line class="cls-4" x1="129.5" y1="290.85" x2="129.5" y2="261.48"/><polyline class="cls-3" points="129.5 258.6 129.5 254.1 133.54 256.09"/><line class="cls-5" x1="138.37" y1="258.47" x2="190.05" y2="283.93"/><line class="cls-3" x1="192.46" y1="285.12" x2="196.5" y2="287.1"/><path class="cls-13" d="M94.31,449l30.92,16.84a10.25,10.25,0,0,0,10-.08l30.25-17.15a3.07,3.07,0,0,0,0-5.32L135.69,426a10.26,10.26,0,0,0-10.2-.06L94.26,443.65A3.07,3.07,0,0,0,94.31,449Z"/><path class="cls-14" d="M154.33,394.57l85.74,46.7a28.42,28.42,0,0,0,27.62-.24l83.87-47.54a8.5,8.5,0,0,0,.07-14.75l-82.58-47.89a28.46,28.46,0,0,0-28.28-.15l-86.56,49A8.5,8.5,0,0,0,154.33,394.57Z"/><path class="cls-15" d="M154.33,380.57l85.74,46.7a28.42,28.42,0,0,0,27.62-.24l83.87-47.54a8.5,8.5,0,0,0,.07-14.75l-82.58-47.89a28.46,28.46,0,0,0-28.28-.15l-86.56,49A8.5,8.5,0,0,0,154.33,380.57Z"/><path class="cls-16" d="M355.81,350.36a8.48,8.48,0,0,1-4.34,7.42l-83.8,47.59a28.5,28.5,0,0,1-27.73.23l-85.66-46.74a8.53,8.53,0,0,1-4.38-8.77V308.6l206-1.07Z"/><path class="cls-17" d="M154.33,315.57l85.74,46.7a28.42,28.42,0,0,0,27.62-.24l83.87-47.54a8.5,8.5,0,0,0,.07-14.75l-82.58-47.89a28.46,28.46,0,0,0-28.28-.15l-86.56,49A8.5,8.5,0,0,0,154.33,315.57Z"/><polygon class="cls-18" points="328.35 530.95 289.63 509.05 289.63 499.32 328.35 521.22 328.35 530.95"/><polygon class="cls-19" points="174.23 340.45 160.35 332.6 160.35 342.34 174.23 350.19 174.23 340.45"/><polygon class="cls-19" points="196.23 352.45 182.35 344.6 182.35 354.34 196.23 362.19 196.23 352.45"/><polyline class="cls-20" points="329.65 795.69 219.5 859.1 219.5 725.6"/><polyline class="cls-21" points="470.5 420.7 470.5 714.6 392.3 759.2"/><line class="cls-22" x1="470.5" y1="205.1" x2="470.5" y2="272.6"/><polygon class="cls-23" points="463 559.1 455 554.1 455 509.1 463 514.1 463 559.1"/><polygon class="cls-24" points="341.15 792.81 341.6 783.39 380.85 761.39 380.4 770.82 341.15 792.81"/><line class="cls-3" x1="129.5" y1="443.1" x2="129.5" y2="438.6"/><line class="cls-25" x1="129.5" y1="432.81" x2="129.5" y2="419.5"/><polyline class="cls-3" points="129.5 416.6 129.5 412.1 133.45 409.94"/><line class="cls-26" x1="137.72" y1="407.6" x2="207.42" y2="369.44"/><line class="cls-3" x1="209.55" y1="368.27" x2="213.5" y2="366.1"/><polyline class="cls-27" points="641.09 517.1 700.5 481.31 700.5 373.01"/><polyline class="cls-28" points="492.5 436.08 492.5 606.6 581.67 552.89"/><line class="cls-29" x1="492.5" y1="218.6" x2="492.5" y2="288.64"/><polygon class="cls-30" points="591.65 550.95 630.37 529.05 630.37 519.32 591.65 541.22 591.65 550.95"/><polyline class="cls-31" points="671.65 824.07 732.5 859.1 732.5 725.6"/><polyline class="cls-32" points="481.5 686.1 481.5 714.6 610.79 789.04"/><line class="cls-33" x1="481.5" y1="427.7" x2="481.5" y2="622.1"/><line class="cls-34" x1="481.5" y1="212.92" x2="481.5" y2="280.6"/><polygon class="cls-35" points="660.85 821.81 660.4 812.39 621.15 790.39 621.6 799.82 660.85 821.81"/><ellipse class="cls-36" cx="253" cy="302.93" rx="39.32" ry="19.83"/><path class="cls-37" d="M253,293.1c18.29,0,33.66,6.3,38.05,14.83a10.73,10.73,0,0,0,1.27-5c0-10.95-17.61-19.83-39.32-19.83s-39.32,8.88-39.32,19.83a10.73,10.73,0,0,0,1.27,5C219.34,299.4,234.71,293.1,253,293.1Z"/><g class="cls-38"><path class="cls-39" d="M530.61,212.69l-92.43-52.64a18.48,18.48,0,0,1-9.18-16v-126a5.59,5.59,0,0,1,8.39-4.83l92.43,52.65a18.48,18.48,0,0,1,9.18,16v126A5.58,5.58,0,0,1,530.61,212.69Z"/></g><path class="cls-40" d="M520.61,220.69l-92.43-52.64a18.48,18.48,0,0,1-9.18-16v-126a5.59,5.59,0,0,1,8.39-4.83l92.43,52.65a18.48,18.48,0,0,1,9.18,16v126A5.58,5.58,0,0,1,520.61,220.69Z"/><g class="cls-41"><path class="cls-42" d="M508.59,426.12,438,385.92a14.11,14.11,0,0,1-7-12.19V272.48a4.26,4.26,0,0,1,6.41-3.68L508,309a14.1,14.1,0,0,1,7,12.19V422.44A4.27,4.27,0,0,1,508.59,426.12Z"/></g><polygon class="cls-43" points="474.35 90.95 435.63 69.05 435.63 59.32 474.35 81.22 474.35 90.95"/><polygon class="cls-43" points="507 137.95 435.63 97.05 435.63 87.32 507 128.22 507 137.95"/><polygon class="cls-43" points="507 161.95 435.63 121.05 435.63 111.32 507 152.22 507 161.95"/><polygon class="cls-43" points="507 185.95 435.63 145.05 435.63 135.32 507 176.22 507 185.95"/><path class="cls-44" d="M532.5,102.69c8.67,5,16.42.06,17.31-10.94.83-10.36-4.71-22.42-12.6-27.94.32-13.86-7.65-29.49-18.42-35.65-11.27-6.44-21.34-.08-22.49,14.22-.05.69-.08,1.39-.09,2.09-.29-.18-.57-.38-.85-.54-7.81-4.47-14.78-.06-15.58,9.84s4.89,21.55,12.69,26Z"/><path class="cls-45" d="M292.32,302.93c0,11-17.61,19.83-39.32,19.83s-39.32-8.87-39.32-19.83v-104c0-11,17.61-19.83,39.32-19.83s39.32,8.88,39.32,19.83Z"/><path class="cls-46" d="M16.31,849l30.92,16.84a10.25,10.25,0,0,0,10-.08l30.25-17.15a3.07,3.07,0,0,0,0-5.32L57.69,826a10.26,10.26,0,0,0-10.2-.06L16.26,843.65A3.07,3.07,0,0,0,16.31,849Z"/><path class="cls-1" d="M16.31,708l30.92,16.84a10.25,10.25,0,0,0,10-.08l30.25-17.15a3.07,3.07,0,0,0,0-5.32L57.69,685a10.26,10.26,0,0,0-10.2-.06L16.26,702.65A3.07,3.07,0,0,0,16.31,708Z"/><path class="cls-47" d="M16.31,698l30.92,16.84a10.25,10.25,0,0,0,10-.08l30.25-17.15a3.07,3.07,0,0,0,0-5.32L57.69,675a10.26,10.26,0,0,0-10.2-.06L16.26,692.65A3.07,3.07,0,0,0,16.31,698Z"/><line class="cls-3" x1="51.5" y1="691.1" x2="51.5" y2="686.6"/><line class="cls-4" x1="51.5" y1="680.85" x2="51.5" y2="651.48"/><polyline class="cls-3" points="51.5 648.6 51.5 644.1 55.54 646.09"/><line class="cls-5" x1="60.37" y1="648.47" x2="112.05" y2="673.93"/><line class="cls-3" x1="114.46" y1="675.12" x2="118.5" y2="677.1"/><path class="cls-48" d="M16.31,839l30.92,16.84a10.25,10.25,0,0,0,10-.08l30.25-17.15a3.07,3.07,0,0,0,0-5.32L57.69,816a10.26,10.26,0,0,0-10.2-.06L16.26,833.65A3.07,3.07,0,0,0,16.31,839Z"/><path class="cls-49" d="M76.33,784.57l85.74,46.7a28.42,28.42,0,0,0,27.62-.24l83.87-47.54a8.5,8.5,0,0,0,.07-14.75l-82.58-47.89a28.46,28.46,0,0,0-28.28-.15l-86.56,49A8.5,8.5,0,0,0,76.33,784.57Z"/><path class="cls-50" d="M76.33,770.57l85.74,46.7a28.42,28.42,0,0,0,27.62-.24l83.87-47.54a8.5,8.5,0,0,0,.07-14.75l-82.58-47.89a28.46,28.46,0,0,0-28.28-.15l-86.56,49A8.5,8.5,0,0,0,76.33,770.57Z"/><path class="cls-51" d="M277.81,740.36a8.48,8.48,0,0,1-4.34,7.42l-83.8,47.59a28.5,28.5,0,0,1-27.73.23L76.28,748.86a8.53,8.53,0,0,1-4.38-8.77V698.6l206-1.07Z"/><path class="cls-52" d="M76.33,705.57l85.74,46.7a28.42,28.42,0,0,0,27.62-.24l83.87-47.54a8.5,8.5,0,0,0,.07-14.75l-82.58-47.89a28.46,28.46,0,0,0-28.28-.15l-86.56,49A8.5,8.5,0,0,0,76.33,705.57Z"/><polygon class="cls-19" points="96.23 730.45 82.35 722.6 82.35 732.34 96.23 740.18 96.23 730.45"/><polygon class="cls-19" points="118.23 742.45 104.35 734.6 104.35 744.34 118.23 752.18 118.23 742.45"/><line class="cls-3" x1="51.5" y1="833.1" x2="51.5" y2="828.6"/><line class="cls-25" x1="51.5" y1="822.81" x2="51.5" y2="809.5"/><polyline class="cls-3" points="51.5 806.6 51.5 802.1 55.45 799.94"/><line class="cls-26" x1="59.72" y1="797.6" x2="129.42" y2="759.44"/><line class="cls-3" x1="131.55" y1="758.27" x2="135.5" y2="756.1"/><ellipse class="cls-36" cx="175" cy="692.93" rx="39.32" ry="19.83"/><path class="cls-53" d="M175,683.1c18.29,0,33.66,6.3,38.05,14.83a10.73,10.73,0,0,0,1.27-5c0-10.95-17.61-19.83-39.32-19.83s-39.32,8.88-39.32,19.83a10.73,10.73,0,0,0,1.27,5C141.34,689.4,156.71,683.1,175,683.1Z"/><path class="cls-54" d="M214.32,692.93c0,11-17.61,19.83-39.32,19.83s-39.32-8.87-39.32-19.83v-114c0-10.95,17.61-19.83,39.32-19.83s39.32,8.88,39.32,19.83Z"/><path class="cls-55" d="M678.33,784.57l85.74,46.7a28.42,28.42,0,0,0,27.62-.24l83.87-47.54a8.5,8.5,0,0,0,.07-14.75l-82.58-47.89a28.46,28.46,0,0,0-28.28-.15l-86.56,49A8.5,8.5,0,0,0,678.33,784.57Z"/><path class="cls-56" d="M678.33,770.57l85.74,46.7a28.42,28.42,0,0,0,27.62-.24l83.87-47.54a8.5,8.5,0,0,0,.07-14.75l-82.58-47.89a28.46,28.46,0,0,0-28.28-.15l-86.56,49A8.5,8.5,0,0,0,678.33,770.57Z"/><path class="cls-57" d="M879.81,740.36a8.48,8.48,0,0,1-4.34,7.42l-83.8,47.59a28.5,28.5,0,0,1-27.73.23l-85.66-46.74a8.53,8.53,0,0,1-4.38-8.77V698.6l206-1.07Z"/><path class="cls-58" d="M678.33,705.57l85.74,46.7a28.42,28.42,0,0,0,27.62-.24l83.87-47.54a8.5,8.5,0,0,0,.07-14.75l-82.58-47.89a28.46,28.46,0,0,0-28.28-.15l-86.56,49A8.5,8.5,0,0,0,678.33,705.57Z"/><polygon class="cls-19" points="698.23 730.45 684.35 722.6 684.35 732.34 698.23 740.18 698.23 730.45"/><polygon class="cls-19" points="720.23 742.45 706.35 734.6 706.35 744.34 720.23 752.18 720.23 742.45"/><path class="cls-59" d="M933.69,849l-30.92,16.84a10.25,10.25,0,0,1-10-.08l-30.25-17.15a3.07,3.07,0,0,1,0-5.32L892.31,826a10.26,10.26,0,0,1,10.2-.06l31.23,17.68A3.07,3.07,0,0,1,933.69,849Z"/><path class="cls-60" d="M933.69,839l-30.92,16.84a10.25,10.25,0,0,1-10-.08l-30.25-17.15a3.07,3.07,0,0,1,0-5.32L892.31,816a10.26,10.26,0,0,1,10.2-.06l31.23,17.68A3.07,3.07,0,0,1,933.69,839Z"/><line class="cls-3" x1="898.5" y1="833.1" x2="898.5" y2="828.6"/><line class="cls-25" x1="898.5" y1="822.81" x2="898.5" y2="809.5"/><polyline class="cls-3" points="898.5 806.6 898.5 802.1 894.55 799.94"/><line class="cls-26" x1="890.28" y1="797.6" x2="820.58" y2="759.44"/><line class="cls-3" x1="818.45" y1="758.27" x2="814.5" y2="756.1"/><ellipse class="cls-36" cx="777" cy="692.93" rx="39.32" ry="19.83"/><path class="cls-61" d="M777,683.1c18.29,0,33.66,6.3,38,14.83a10.73,10.73,0,0,0,1.27-5c0-10.95-17.61-19.83-39.32-19.83s-39.32,8.88-39.32,19.83a10.73,10.73,0,0,0,1.27,5C743.34,689.4,758.71,683.1,777,683.1Z"/><path class="cls-62" d="M816.32,692.93c0,11-17.61,19.83-39.32,19.83s-39.32-8.87-39.32-19.83v-104c0-10.95,17.61-19.83,39.32-19.83s39.32,8.88,39.32,19.83Z"/><path class="cls-63" d="M599.33,394.57l85.74,46.7a28.42,28.42,0,0,0,27.62-.24l83.87-47.54a8.5,8.5,0,0,0,.07-14.75l-82.58-47.89a28.46,28.46,0,0,0-28.28-.15l-86.56,49A8.5,8.5,0,0,0,599.33,394.57Z"/><path class="cls-64" d="M599.33,380.57l85.74,46.7a28.42,28.42,0,0,0,27.62-.24l83.87-47.54a8.5,8.5,0,0,0,.07-14.75l-82.58-47.89a28.46,28.46,0,0,0-28.28-.15l-86.56,49A8.5,8.5,0,0,0,599.33,380.57Z"/><path class="cls-65" d="M800.81,350.36a8.48,8.48,0,0,1-4.34,7.42l-83.8,47.59a28.5,28.5,0,0,1-27.73.23l-85.66-46.74a8.53,8.53,0,0,1-4.38-8.77V308.6l206-1.07Z"/><path class="cls-66" d="M599.33,315.57l85.74,46.7a28.42,28.42,0,0,0,27.62-.24l83.87-47.54a8.5,8.5,0,0,0,.07-14.75l-82.58-47.89a28.46,28.46,0,0,0-28.28-.15l-86.56,49A8.5,8.5,0,0,0,599.33,315.57Z"/><polygon class="cls-19" points="619.23 340.45 605.35 332.6 605.35 342.34 619.23 350.19 619.23 340.45"/><polygon class="cls-19" points="641.23 352.45 627.35 344.6 627.35 354.34 641.23 362.19 641.23 352.45"/><path class="cls-67" d="M857.69,459l-30.92,16.84a10.25,10.25,0,0,1-10-.08l-30.25-17.15a3.07,3.07,0,0,1,0-5.32L816.31,436a10.26,10.26,0,0,1,10.2-.06l31.23,17.68A3.07,3.07,0,0,1,857.69,459Z"/><path class="cls-68" d="M857.69,449l-30.92,16.84a10.25,10.25,0,0,1-10-.08l-30.25-17.15a3.07,3.07,0,0,1,0-5.32L816.31,426a10.26,10.26,0,0,1,10.2-.06l31.23,17.68A3.07,3.07,0,0,1,857.69,449Z"/><line class="cls-3" x1="822.5" y1="443.1" x2="822.5" y2="438.6"/><line class="cls-25" x1="822.5" y1="432.81" x2="822.5" y2="419.5"/><polyline class="cls-3" points="822.5 416.6 822.5 412.1 818.55 409.94"/><line class="cls-26" x1="814.28" y1="407.6" x2="744.58" y2="369.44"/><line class="cls-3" x1="742.45" y1="368.27" x2="738.5" y2="366.1"/><ellipse class="cls-36" cx="698" cy="302.93" rx="39.32" ry="19.83"/><path class="cls-69" d="M698,293.1c18.29,0,33.66,6.3,38,14.83a10.73,10.73,0,0,0,1.27-5c0-10.95-17.61-19.83-39.32-19.83s-39.32,8.88-39.32,19.83a10.73,10.73,0,0,0,1.27,5C664.34,299.4,679.71,293.1,698,293.1Z"/><path class="cls-70" d="M292,241.9l-81.65-46.14a19.36,19.36,0,0,1-9.86-16.16l-1.15-75.43c-.07-4.64,4.57-7.17,8.78-4.79L237.54,116a26.7,26.7,0,0,1,10.78,11.51l9.68,20,32.09,18.13A19.36,19.36,0,0,1,300,181.76l.84,55.35C300.86,241.75,296.22,244.28,292,241.9Z"/><polygon class="cls-43" points="250.71 195.08 212.64 173.57 212.78 181.57 250.84 203.08 250.71 195.08"/><path class="cls-71" d="M817,630.9l-81.65-46.14a19.36,19.36,0,0,1-9.86-16.16l-1.15-75.43c-.07-4.64,4.57-7.17,8.78-4.79L762.54,505a26.7,26.7,0,0,1,10.78,11.51l9.68,20,32.09,18.13A19.36,19.36,0,0,1,825,570.76l.84,55.35C825.86,630.75,821.22,633.28,817,630.9Z"/><polygon class="cls-43" points="775.71 584.08 737.64 562.57 737.78 570.57 775.85 592.08 775.71 584.08"/><polygon class="cls-72" points="486 677.1 478 672.1 478 627.1 486 632.1 486 677.1"/><circle class="cls-19" cx="530.5" cy="294.1" r="2.5"/><circle class="cls-73" cx="402.5" cy="378.1" r="2.5"/><circle class="cls-73" cx="386.5" cy="319.1" r="2.5"/><circle class="cls-74" cx="556" cy="412.6" r="1"/><circle class="cls-19" cx="407" cy="335.6" r="1"/><circle class="cls-19" cx="535.5" cy="381.1" r="2.5"/><circle class="cls-75" cx="405" cy="405.6" r="1"/><circle class="cls-19" cx="405" cy="288.6" r="2"/><circle class="cls-76" cx="385" cy="350.6" r="1.5"/><circle class="cls-19" cx="553.5" cy="342.1" r="1.5"/><circle class="cls-77" cx="554.5" cy="306.1" r="1.5"/><path class="cls-78" d="M490.21,349.77l-2-1.09v-10.9c0-11.76-7.39-25.33-16.52-30.24s-16.57.66-16.59,12.42l0,10.9-2-1.08c-2.95-1.59-5.35.21-5.36,4l0,31.74c0,3.8,2.38,8.17,5.33,9.76l37.15,20c3,1.59,5.34-.21,5.35-4l0-31.74C495.55,355.73,493.16,351.36,490.21,349.77ZM461,323.13c0-7.58,4.8-11.18,10.69-8s10.66,11.91,10.65,19.49l0,10.91L461,334Z"/><path class="cls-43" d="M452.36,344.6a10.22,10.22,0,0,1,.25-2.49,3.51,3.51,0,0,1,.68-1.49,1.47,1.47,0,0,1,1.06-.54,2.53,2.53,0,0,1,1.37.36,5.69,5.69,0,0,1,2.48,2.79,12,12,0,0,1,.86,5,10.9,10.9,0,0,1-.24,2.5,3.75,3.75,0,0,1-.69,1.5,1.48,1.48,0,0,1-1.06.55,2.66,2.66,0,0,1-1.38-.37,5.63,5.63,0,0,1-2.48-2.87A12.51,12.51,0,0,1,452.36,344.6Zm1.66.89V346c0,.15,0,.31,0,.46l3.09-2a3.1,3.1,0,0,0-1.43-2.18.81.81,0,0,0-1.24.34A6.62,6.62,0,0,0,454,345.49Zm3.39,1.82c0-.17,0-.34,0-.5s0-.32,0-.48l-3.1,2a3.2,3.2,0,0,0,1.43,2.26.82.82,0,0,0,1.25-.33A6.64,6.64,0,0,0,457.41,347.31Z"/><path class="cls-43" d="M460,348.71a10.77,10.77,0,0,1,.24-2.48,3.5,3.5,0,0,1,.69-1.5,1.53,1.53,0,0,1,1.06-.54,2.58,2.58,0,0,1,1.37.37,5.65,5.65,0,0,1,2.48,2.79,12.28,12.28,0,0,1,.86,5,10.93,10.93,0,0,1-.25,2.51,3.49,3.49,0,0,1-.69,1.5,1.43,1.43,0,0,1-1.06.54,2.55,2.55,0,0,1-1.37-.37,5.58,5.58,0,0,1-2.48-2.87A12.33,12.33,0,0,1,460,348.71Zm1.65.9c0,.16,0,.32,0,.47s0,.3,0,.46l3.09-2a3.11,3.11,0,0,0-1.43-2.18.82.82,0,0,0-1.25.34A6.71,6.71,0,0,0,461.66,349.61Zm3.39,1.82v-.5c0-.17,0-.32,0-.48l-3.1,2a3.22,3.22,0,0,0,1.42,2.27.83.83,0,0,0,1.26-.33A6.68,6.68,0,0,0,465.05,351.43Z"/><path class="cls-43" d="M468.51,357.25l1.95,1.05v-7.17l-1.68.75-.77-1.73,2.91-1.29,1.13.6,0,9.69,1.91,1V362l-5.44-2.93Z"/><path class="cls-43" d="M475.3,356.94a10.93,10.93,0,0,1,.24-2.49,3.63,3.63,0,0,1,.69-1.49,1.47,1.47,0,0,1,1.06-.54,2.49,2.49,0,0,1,1.37.37,5.67,5.67,0,0,1,2.48,2.78,12.37,12.37,0,0,1,.86,5,10.25,10.25,0,0,1-.25,2.5,3.6,3.6,0,0,1-.68,1.51,1.47,1.47,0,0,1-1.07.54,2.55,2.55,0,0,1-1.37-.37,5.58,5.58,0,0,1-2.48-2.87A12.33,12.33,0,0,1,475.3,356.94Zm1.65.89c0,.17,0,.32,0,.48s0,.3,0,.46l3.09-2a3.12,3.12,0,0,0-1.43-2.18.83.83,0,0,0-1.25.34A6.77,6.77,0,0,0,477,357.83Zm3.39,1.83v-.51c0-.16,0-.32,0-.47l-3.1,2a3.17,3.17,0,0,0,1.42,2.26.84.84,0,0,0,1.26-.32A6.71,6.71,0,0,0,480.34,359.66Z"/><path class="cls-43" d="M483.8,365.48l1.95,1v-7.18l-1.68.76-.76-1.73,2.91-1.29,1.12.6,0,9.69,1.91,1v1.8l-5.44-2.92Z"/><path class="cls-43" d="M452.34,361a10.81,10.81,0,0,1,.24-2.49,3.51,3.51,0,0,1,.69-1.49,1.45,1.45,0,0,1,1.06-.54,2.56,2.56,0,0,1,1.37.36,5.74,5.74,0,0,1,2.48,2.79,12.34,12.34,0,0,1,.86,5,10.84,10.84,0,0,1-.25,2.5,3.44,3.44,0,0,1-.69,1.5,1.45,1.45,0,0,1-1.06.55,2.65,2.65,0,0,1-1.37-.37,5.58,5.58,0,0,1-2.48-2.87A12.33,12.33,0,0,1,452.34,361Zm1.65.89c0,.17,0,.32,0,.47s0,.31,0,.46l3.09-2a3.13,3.13,0,0,0-1.43-2.18.82.82,0,0,0-1.25.34A6.77,6.77,0,0,0,454,361.91Zm3.39,1.83v-.51c0-.16,0-.32,0-.48l-3.1,2a3.2,3.2,0,0,0,1.42,2.26.83.83,0,0,0,1.26-.33A6.66,6.66,0,0,0,457.38,363.74Z"/><path class="cls-43" d="M460.84,369.56l2,1.05v-7.18l-1.68.75-.76-1.72,2.91-1.29,1.12.6,0,9.69,1.91,1v1.8l-5.44-2.93Z"/><path class="cls-43" d="M467.63,369.25a10.81,10.81,0,0,1,.24-2.49,3.75,3.75,0,0,1,.69-1.5,1.55,1.55,0,0,1,1.06-.54,2.67,2.67,0,0,1,1.37.37,5.74,5.74,0,0,1,2.48,2.79,12.34,12.34,0,0,1,.86,5,10.31,10.31,0,0,1-.25,2.5,3.61,3.61,0,0,1-.68,1.5,1.48,1.48,0,0,1-1.07.55A2.65,2.65,0,0,1,471,377a5.58,5.58,0,0,1-2.48-2.87A12.33,12.33,0,0,1,467.63,369.25Zm1.65.89c0,.16,0,.32,0,.47s0,.31,0,.46l3.09-2a3.1,3.1,0,0,0-1.43-2.18.82.82,0,0,0-1.25.34A6.77,6.77,0,0,0,469.28,370.14Zm3.39,1.82v-.5c0-.16,0-.32,0-.48l-3.1,2a3.2,3.2,0,0,0,1.42,2.26.83.83,0,0,0,1.26-.33A6.68,6.68,0,0,0,472.67,372Z"/><path class="cls-43" d="M476.13,377.79l1.95,1v-7.18l-1.68.75-.76-1.72,2.91-1.3,1.12.61,0,9.69,1.91,1v1.81l-5.44-2.93Z"/><path class="cls-43" d="M482.92,377.48a10.22,10.22,0,0,1,.25-2.49,3.61,3.61,0,0,1,.68-1.5,1.55,1.55,0,0,1,1.06-.54,2.65,2.65,0,0,1,1.37.37,5.74,5.74,0,0,1,2.48,2.79,12.15,12.15,0,0,1,.86,5,10.34,10.34,0,0,1-.25,2.51,3.61,3.61,0,0,1-.68,1.5,1.52,1.52,0,0,1-1.07.55,2.65,2.65,0,0,1-1.37-.37,5.67,5.67,0,0,1-2.48-2.87A12.51,12.51,0,0,1,482.92,377.48Zm1.66.89v.47c0,.15,0,.3,0,.46l3.09-2a3.1,3.1,0,0,0-1.43-2.18.81.81,0,0,0-1.24.34A6.47,6.47,0,0,0,484.58,378.37Zm3.38,1.82v-.5c0-.16,0-.32,0-.48l-3.1,2a3.2,3.2,0,0,0,1.42,2.26.83.83,0,0,0,1.26-.33A6.68,6.68,0,0,0,488,380.19Z"/><ellipse class="cls-36" cx="698" cy="302.93" rx="39.32" ry="19.83"/><path class="cls-69" d="M698,293.1c18.29,0,33.66,6.3,38,14.83a10.73,10.73,0,0,0,1.27-5c0-10.95-17.61-19.83-39.32-19.83s-39.32,8.88-39.32,19.83a10.73,10.73,0,0,0,1.27,5C664.34,299.4,679.71,293.1,698,293.1Z"/><path class="cls-79" d="M737.32,302.93c0,11-17.61,19.83-39.32,19.83s-39.32-8.87-39.32-19.83v-114c0-11,17.61-19.83,39.32-19.83s39.32,8.88,39.32,19.83Z"/><polygon class="cls-80" points="647.58 140.68 647.58 204.36 701.72 173.24 701.72 109.72 647.58 140.68"/><polygon class="cls-81" points="701.72 109.72 680.02 97.6 625.86 128.8 647.58 140.68 701.72 109.72"/><polygon class="cls-82" points="625.89 192.47 625.79 128.8 647.58 140.84 647.58 204.36 625.89 192.47"/><polygon class="cls-83" points="716.01 170.42 737 182.57 737 202.65 730.52 206.55 730.52 186.43 709.52 174.34 716.01 170.42"/><polygon class="cls-84" points="713.16 231.92 734 219.55 687.58 192.29 666 204.66 713.16 231.92"/><path class="cls-43" d="M739,239.66l6.3-3.51a3.1,3.1,0,0,0,.09-5.36h0a12,12,0,0,0-11.84-.3L727,234a3.1,3.1,0,0,0-.06,5.44l.36.2A12,12,0,0,0,739,239.66Z"/><polygon class="cls-85" points="693.02 98.6 765.72 140.72 765.72 210.24 760.58 213.36 760.58 143.68 687.86 101.8 693.02 98.6"/><polygon class="cls-86" points="760.58 143.84 687.79 101.8 687.89 171.47 709.52 183.94 709.53 194.45 730.52 206.55 730.52 196.04 760.58 213.36 760.58 143.84"/><polygon class="cls-80" points="692.23 170.3 692.23 110.48 756.87 147.12 756.87 206.79 692.23 170.3"/><polygon class="cls-43" points="728 151.53 703.81 137.8 703.81 133.61 728 147.34 728 151.53"/><polygon class="cls-87" points="743.63 171.28 703.81 149.42 703.81 145.23 743.63 167.09 743.63 171.28"/><polygon class="cls-88" points="743.63 182.89 703.81 161.03 703.81 156.84 743.63 178.7 743.63 182.89"/><polygon class="cls-80" points="125.58 532.68 125.58 596.36 179.72 565.24 179.72 501.72 125.58 532.68"/><polygon class="cls-89" points="179.72 501.72 158.02 489.6 103.86 520.8 125.58 532.68 179.72 501.72"/><polygon class="cls-90" points="103.89 584.47 103.79 520.8 125.58 532.84 125.58 596.36 103.89 584.47"/><polygon class="cls-91" points="194.01 562.42 215 574.58 215 594.65 208.52 598.55 208.52 578.43 187.52 566.34 194.01 562.42"/><polygon class="cls-92" points="191.16 623.92 212 611.55 165.58 584.29 144 596.66 191.16 623.92"/><path class="cls-43" d="M217,631.66l6.3-3.51a3.1,3.1,0,0,0,.09-5.36h0a12,12,0,0,0-11.84-.3L205,626a3.1,3.1,0,0,0-.06,5.44l.36.2A12,12,0,0,0,217,631.66Z"/><polygon class="cls-93" points="171.02 490.6 243.72 532.72 243.72 602.24 238.58 605.36 238.58 535.68 165.86 493.8 171.02 490.6"/><polygon class="cls-94" points="238.58 535.84 165.79 493.8 165.89 563.47 187.52 575.94 187.53 586.45 208.52 598.55 208.52 588.04 238.58 605.36 238.58 535.84"/><polygon class="cls-80" points="170.22 562.3 170.22 502.48 234.87 539.12 234.87 598.79 170.22 562.3"/><polygon class="cls-43" points="206 543.53 181.81 529.8 181.81 525.61 206 539.34 206 543.53"/><polygon class="cls-95" points="221.63 563.28 181.81 541.42 181.81 537.23 221.63 559.09 221.63 563.28"/><polygon class="cls-96" points="221.63 574.89 181.81 553.03 181.81 548.84 221.63 570.7 221.63 574.89"/></svg>