<svg width="49" height="40" viewBox="0 0 49 40" fill="none" xmlns="http://www.w3.org/2000/svg">
<g clip-path="url(#clip0)">
<path d="M4.76478 37.696C1.97272 33.8161 0.329681 29.0641 0.329681 23.9308C0.329681 10.8455 11.006 0.237793 24.1758 0.237793C29.0706 0.237793 33.6208 1.70306 37.4066 4.2162C43.8069 8.46497 48.022 15.7088 48.022 23.9308C48.022 29.149 46.3242 33.9731 43.4475 37.8877C42.9099 38.6193 42.0765 39.005 41.2332 39.0013C40.958 39.0002 35.2456 40 24.2661 40C13.2866 40 7.38334 38.9223 6.99863 38.905C6.26872 38.8721 5.55032 38.5664 5.00957 37.9927C4.92153 37.8993 4.83975 37.8002 4.76478 37.696Z" fill="url(#paint0_linear)" fill-opacity="0.9"/>
<path d="M30.3846 32.3076H17.3077C15.8208 32.3076 14.6154 33.513 14.6154 34.9999C14.6154 36.4868 15.8208 37.6922 17.3077 37.6922H30.3846C31.8715 37.6922 33.0769 36.4868 33.0769 34.9999C33.0769 33.513 31.8715 32.3076 30.3846 32.3076Z" fill="black"/>
<path d="M18.3081 34.3297C18.3081 33.9048 17.9637 33.5604 17.5389 33.5604C17.114 33.5604 16.7697 33.9048 16.7697 34.3297V35.8681C16.7697 36.293 17.114 36.6373 17.5389 36.6373C17.9637 36.6373 18.3081 36.293 18.3081 35.8681V34.3297Z" fill="#72B3A5"/>
<path fill-rule="evenodd" clip-rule="evenodd" d="M26.2369 33.5604C26.6378 33.5604 26.9627 33.8854 26.9627 34.2863V35.9115C26.9627 36.3124 26.6378 36.6373 26.2369 36.6373C25.836 36.6373 25.511 36.3124 25.511 35.9115V34.2863C25.511 33.8854 25.836 33.5604 26.2369 33.5604Z" fill="#72B3A5"/>
<path d="M30.6158 33.945C30.6158 33.7326 30.4436 33.5604 30.2312 33.5604C30.0188 33.5604 29.8466 33.7326 29.8466 33.945V36.2527C29.8466 36.4651 30.0188 36.6373 30.2312 36.6373C30.4436 36.6373 30.6158 36.4651 30.6158 36.2527V33.945Z" fill="#72B3A5"/>
<path d="M21.7692 33.945C21.7692 33.7326 21.597 33.5604 21.3846 33.5604C21.1722 33.5604 21 33.7326 21 33.945V36.2527C21 36.4651 21.1722 36.6373 21.3846 36.6373C21.597 36.6373 21.7692 36.4651 21.7692 36.2527V33.945Z" fill="#72B3A5"/>
<path d="M7.62723 35.9869C5.24691 32.6578 3.84616 28.5803 3.84616 24.1757C3.84616 12.948 12.9481 3.84607 24.1758 3.84607C28.3488 3.84607 32.228 5.10333 35.4555 7.25972C40.912 10.9054 44.5055 17.1209 44.5055 24.1757C44.5055 28.6532 43.0581 32.7925 40.6056 36.1514C39.8492 37.1874 38.3961 37.414 37.3602 36.6576C37.2799 36.5989 37.2034 36.5352 37.1312 36.4668C37.0056 36.3476 36.8913 36.2391 36.7881 36.1412C33.9854 33.4822 29.7813 29.4937 24.1758 24.1757L11.4826 36.218L11.3503 36.3435C10.357 37.2859 8.78778 37.2446 7.84539 36.2513C7.76666 36.1683 7.69377 36.08 7.62723 35.9869Z" fill="url(#paint1_radial)"/>
<path d="M38.7 36.2975L33.974 32.3561C34.5296 31.6899 35.0158 30.9693 35.4241 30.2059L40.8505 33.1084C40.2421 34.2457 39.5203 35.3139 38.7 36.2975ZM42.8078 21.1012L36.7383 22.1161C36.5952 21.2604 36.3655 20.4276 36.0536 19.6268L41.7879 17.3934C42.2482 18.5753 42.5929 19.8158 42.8078 21.1012ZM33.9815 8.10838L30.7899 13.3699C30.0507 12.9215 29.2682 12.55 28.4536 12.2618L30.5061 6.46033C31.7267 6.89215 32.8902 7.44634 33.9815 8.10838ZM14.8286 7.89015C15.933 7.25413 17.1084 6.72665 18.3406 6.32254L20.2583 12.1699C19.4374 12.4392 18.6476 12.7922 17.8998 13.2229L14.8286 7.89015ZM6.81103 17.0049L12.4933 19.3674C12.1629 20.1621 11.9145 20.9896 11.7526 21.8399L5.70729 20.6891C5.95054 19.4113 6.3231 18.1784 6.81103 17.0049ZM7.38381 32.7092L12.8785 29.9382C13.2679 30.7104 13.7362 31.4413 14.2752 32.1197L9.45751 35.9484C8.66167 34.947 7.96535 33.8623 7.38381 32.7092Z" fill="black" fill-opacity="0.146853"/>
<path d="M3.84616 24.1757C3.84616 12.948 12.9481 3.84607 24.1758 3.84607C28.3488 3.84607 32.228 5.10333 35.4555 7.25972C40.912 10.9054 44.5055 17.1209 44.5055 24.1757C44.5055 28.6532 43.0581 32.7925 40.6056 36.1514C39.8492 37.1874 38.3961 37.414 37.3602 36.6576C37.2798 36.599 37.2034 36.5352 37.1312 36.4668C37.0056 36.3476 36.8913 36.2391 36.7881 36.1412C33.9854 33.4822 29.7813 29.4937 24.1758 24.1757L11.4826 36.218L11.3503 36.3435C10.357 37.2859 8.78779 37.2446 7.84539 36.2513C7.76666 36.1683 7.69377 36.08 7.62723 35.9869C5.24691 32.6578 3.84616 28.5803 3.84616 24.1757ZM9.04121 35.1168C9.35704 35.4497 9.88294 35.4635 10.2158 35.1477L24.1758 21.9036L37.9226 34.9454L38.2658 35.271C38.2867 35.2908 38.3089 35.3093 38.3322 35.3263C38.6329 35.5459 39.0547 35.4801 39.2743 35.1794C41.5902 32.0076 42.8572 28.1894 42.8572 24.1757C42.8572 17.8568 39.6977 12.0765 34.5398 8.6303C31.4953 6.59616 27.9197 5.49442 24.1758 5.49442C13.8584 5.49442 5.49451 13.8583 5.49451 24.1757C5.49451 28.1249 6.7209 31.8853 8.9681 35.0282C8.9904 35.0594 9.01482 35.089 9.04121 35.1168Z" fill="url(#paint2_linear)"/>
<path fill-rule="evenodd" clip-rule="evenodd" d="M24.6158 22.0221V22.0195L39.5501 23.794C39.761 23.8191 39.9117 24.0104 39.8867 24.2213C39.8657 24.3978 39.7266 24.5369 39.5501 24.5579L24.6158 26.3334V26.3296C24.4736 26.3585 24.3265 26.3736 24.1758 26.3736C22.962 26.3736 21.978 25.3896 21.978 24.1758C21.978 22.962 22.962 21.978 24.1758 21.978C24.3265 21.978 24.4736 21.9932 24.6158 22.0221Z" fill="url(#paint3_linear)"/>
</g>
<defs>
<linearGradient id="paint0_linear" x1="46.7795" y1="41.5879" x2="15.5471" y2="-3.47571" gradientUnits="userSpaceOnUse">
<stop stop-color="#002D65"/>
<stop offset="1" stop-color="#0056AC"/>
</linearGradient>
<radialGradient id="paint1_radial" cx="0" cy="0" r="1" gradientUnits="userSpaceOnUse" gradientTransform="translate(23.8462 27.3076) rotate(149.421) scale(29.4852 20.3649)">
<stop stop-color="#F8FBFF"/>
<stop offset="1" stop-color="#93A1AF"/>
</radialGradient>
<linearGradient id="paint2_linear" x1="43.4462" y1="37.761" x2="9.84433" y2="-24.702" gradientUnits="userSpaceOnUse">
<stop stop-color="#000B1A"/>
<stop offset="1" stop-color="#93A1AF"/>
</linearGradient>
<linearGradient id="paint3_linear" x1="21.978" y1="24.1131" x2="34.1593" y2="26.4158" gradientUnits="userSpaceOnUse">
<stop stop-color="#FF0053"/>
<stop offset="1" stop-color="#8B0722"/>
</linearGradient>
<clipPath id="clip0">
<rect width="48.4615" height="40" fill="white"/>
</clipPath>
</defs>
</svg>
