<svg width="45" height="51" viewBox="0 0 45 51" fill="none" xmlns="http://www.w3.org/2000/svg">
<g clip-path="url(#clip0)">
<mask id="mask0" mask-type="alpha" maskUnits="userSpaceOnUse" x="0" y="12" width="45" height="39">
<path d="M0.803577 12.2235C0.787391 12.7538 1.03109 13.1671 1.53467 13.4635C2.01018 13.7434 8.32851 17.4445 20.4897 24.567C21.8581 25.3685 23.5519 25.3715 24.9232 24.5751C37.083 17.5124 43.4154 13.8345 43.9204 13.5411C44.4552 13.2304 44.7493 12.9563 44.8028 12.719L44.8028 37.2688C44.6707 37.7167 44.3643 38.0665 43.8836 38.3181C43.4029 38.5697 42.6279 39.0221 41.5586 39.6753L25.1632 49.2466C24.3769 49.7718 23.5903 50.0329 22.8032 50.0297C22.0161 50.0266 21.2153 49.7593 20.4007 49.2277L3.96736 39.6748C3.17947 39.2454 2.46303 38.8235 1.81803 38.4093C1.17303 37.995 0.834882 37.5158 0.803574 36.9716L0.803577 12.2235Z" fill="white"/>
</mask>
<g mask="url(#mask0)">
<path d="M0.803577 12.2235C0.787391 12.7538 1.03109 13.1671 1.53467 13.4635C2.01018 13.7434 8.32851 17.4445 20.4897 24.567C21.8581 25.3685 23.5519 25.3715 24.9232 24.5751C37.083 17.5124 43.4154 13.8345 43.9204 13.5411C44.4552 13.2304 44.7493 12.9563 44.8028 12.719L44.8028 37.2688C44.6707 37.7167 44.3643 38.0665 43.8836 38.3181C43.4029 38.5697 42.6279 39.0221 41.5586 39.6753L25.1632 49.2466C24.3769 49.7718 23.5903 50.0329 22.8032 50.0297C22.0161 50.0266 21.2153 49.7593 20.4007 49.2277L3.96736 39.6748C3.17947 39.2454 2.46303 38.8235 1.81803 38.4093C1.17303 37.995 0.834882 37.5158 0.803574 36.9716L0.803577 12.2235Z" fill="url(#paint0_linear)"/>
<path fill-rule="evenodd" clip-rule="evenodd" d="M22.5 25.165C23.3336 25.2054 24.1762 25.0088 24.9232 24.575C37.083 17.5124 43.4154 13.8344 43.9204 13.541C44.2557 13.3462 44.4964 13.1658 44.6425 12.9998L44.8028 12.9998L44.8028 37.2688C44.6707 37.7167 44.3643 38.0664 43.8836 38.318C43.4029 38.5696 42.6279 39.022 41.5586 39.6753L25.1632 49.2465C24.3769 49.7717 23.5903 50.0328 22.8032 50.0297C22.7023 50.0293 22.6013 50.0245 22.5 50.0154L22.5 25.165Z" fill="black" fill-opacity="0.282589"/>
<path fill-rule="evenodd" clip-rule="evenodd" d="M22.5921 25.4998L44.7001 12.2569C44.776 12.4283 44.8223 12.636 44.8391 12.88C44.8558 13.1241 44.8558 13.5926 44.8391 14.2856C40.3069 17.1232 37.1716 19.0463 35.4334 20.055C31.5878 22.2865 28.9227 23.5428 27.2039 24.4285C24.3198 25.9147 22.7826 26.3552 22.5921 25.75V25.4998Z" fill="black" fill-opacity="0.598339"/>
<g opacity="0.428362">
<path opacity="0.428362" d="M6.39842 25.4536L13.172 29.4297C13.3516 29.5352 13.6357 29.6851 14.0242 29.8794C14.0247 29.3196 14.0247 29.0057 14.0242 28.9377L13.9676 21.0836C13.9636 20.5301 13.6658 20.0204 13.1857 19.745L6.49992 15.911C6.22884 15.7555 5.88308 15.8492 5.72763 16.1203C5.67878 16.2055 5.65294 16.3019 5.65265 16.4001L5.63015 24.1072C5.62965 24.2772 5.62965 24.5677 5.63015 24.9787C5.97074 25.1946 6.22683 25.3529 6.39842 25.4536Z" fill="url(#paint1_linear)"/>
<path opacity="0.428362" d="M6.39842 25.4536L13.172 29.4297C13.3516 29.5352 13.6357 29.6851 14.0242 29.8794C14.0247 29.3196 14.0247 29.0057 14.0242 28.9377L13.9676 21.0836C13.9636 20.5301 13.6658 20.0204 13.1857 19.745L6.49992 15.911C6.22884 15.7555 5.88308 15.8492 5.72763 16.1203C5.67878 16.2055 5.65294 16.3019 5.65265 16.4001L5.63015 24.1072C5.62965 24.2772 5.62965 24.5677 5.63015 24.9787C5.97074 25.1946 6.22683 25.3529 6.39842 25.4536Z" fill="white"/>
</g>
<g opacity="0.284203" filter="url(#filter0_f)">
<path fill-rule="evenodd" clip-rule="evenodd" d="M67.5456 16.9341L72.2599 25.0995L22.9273 53.5816L22.9273 32.3494L67.5456 16.9341Z" fill="black"/>
</g>
</g>
<mask id="mask1" mask-type="alpha" maskUnits="userSpaceOnUse" x="0" y="0" width="45" height="26">
<path d="M24.6924 0.626461L43.8873 11.5249C44.6509 11.9584 44.9185 12.929 44.4849 13.6927C44.3433 13.9422 44.1368 14.1487 43.8873 14.2904L24.6924 25.1887C23.3397 25.9567 21.6809 25.9483 20.336 25.1667L1.61025 14.2823C0.851019 13.841 0.593283 12.8678 1.03459 12.1085C1.17327 11.8699 1.37166 11.6716 1.61025 11.5329L20.336 0.648509C21.6809 -0.133161 23.3397 -0.141562 24.6924 0.626461Z" fill="white"/>
</mask>
<g mask="url(#mask1)">
<path d="M24.6924 0.626461L43.8873 11.5249C44.6509 11.9584 44.9185 12.929 44.4849 13.6927C44.3433 13.9422 44.1368 14.1487 43.8873 14.2904L24.6924 25.1887C23.3397 25.9567 21.6809 25.9483 20.336 25.1667L1.61025 14.2823C0.851019 13.841 0.593283 12.8678 1.03459 12.1085C1.17327 11.8699 1.37166 11.6716 1.61025 11.5329L20.336 0.648509C21.6809 -0.133161 23.3397 -0.141562 24.6924 0.626461Z" fill="url(#paint2_linear)"/>
<path fill-rule="evenodd" clip-rule="evenodd" d="M35.4334 19.0902L34.425 19.6627L10.9454 6.10676L11.942 5.52747L35.4334 19.0902Z" fill="black" fill-opacity="0.598339"/>
<path d="M29.111 3.13526L37.43 7.85858L13.9155 21.4347L5.69323 16.6555L29.111 3.13526Z" fill="url(#paint3_linear)"/>
<path d="M29.111 3.13526L37.43 7.85858L13.9155 21.4347L5.69323 16.6555L29.111 3.13526Z" fill="url(#paint4_linear)"/>
</g>
</g>
<defs>
<filter id="filter0_f" x="12.9273" y="6.93408" width="69.3325" height="56.6475" filterUnits="userSpaceOnUse" color-interpolation-filters="sRGB">
<feFlood flood-opacity="0" result="BackgroundImageFix"/>
<feBlend mode="normal" in="SourceGraphic" in2="BackgroundImageFix" result="shape"/>
<feGaussianBlur stdDeviation="5" result="effect1_foregroundBlur"/>
</filter>
<linearGradient id="paint0_linear" x1="31.7255" y1="0.20697" x2="16.5198" y2="54.389" gradientUnits="userSpaceOnUse">
<stop stop-color="#EFBA8B"/>
<stop offset="1" stop-color="#76593B"/>
</linearGradient>
<linearGradient id="paint1_linear" x1="8.32732" y1="28.4664" x2="15.069" y2="18.323" gradientUnits="userSpaceOnUse">
<stop stop-color="#B0A45B"/>
<stop offset="1" stop-color="#FFC381"/>
</linearGradient>
<linearGradient id="paint2_linear" x1="64.6553" y1="-9.42727" x2="9.4745" y2="33.4541" gradientUnits="userSpaceOnUse">
<stop stop-color="#C7986C"/>
<stop offset="1" stop-color="#E1C69B"/>
</linearGradient>
<linearGradient id="paint3_linear" x1="55.715" y1="-7.34385" x2="7.22028" y2="24.5426" gradientUnits="userSpaceOnUse">
<stop stop-color="#C7986C"/>
<stop offset="1" stop-color="#E1C69B"/>
</linearGradient>
<linearGradient id="paint4_linear" x1="35.3675" y1="4.28622" x2="7.75573" y2="20.2279" gradientUnits="userSpaceOnUse">
<stop stop-color="white" stop-opacity="0.5"/>
<stop offset="1" stop-color="white" stop-opacity="0.5"/>
</linearGradient>
<clipPath id="clip0">
<rect width="45" height="51" fill="white"/>
</clipPath>
</defs>
</svg>
