<svg width="87" height="73" viewBox="0 0 87 73" fill="none" xmlns="http://www.w3.org/2000/svg">
<path d="M14.6098 13.9498V49.6559C14.6098 51.0792 13.4618 52.233 12.0456 52.233C11.6617 52.233 11.2827 52.1464 10.9365 51.9795L1.45506 47.4078C0.565758 46.979 0 46.0756 0 45.0842V20.6367L14.6098 13.9498ZM32.7074 5.66672V49.6559C32.7074 51.0792 31.5593 52.233 30.1432 52.233C29.7592 52.233 29.3802 52.1464 29.034 51.9795L19.5526 47.4078C18.6633 46.979 18.0975 46.0756 18.0975 45.0842V12.3535L32.7074 5.66672ZM36.1951 4.07043L37.6638 3.39819C41.8524 1.48109 46.3066 0.370575 50.8049 0.0704143V49.6559C50.8049 51.0792 49.6569 52.233 48.2407 52.233C47.8568 52.233 47.4777 52.1464 47.1316 51.9795L37.6501 47.4078C36.7608 46.979 36.1951 46.0756 36.1951 45.0842V4.07043ZM68.9025 3.35565V49.6559C68.9025 51.0792 67.7544 52.233 66.3382 52.233C65.9543 52.233 65.5753 52.1464 65.2291 51.9795L55.7477 47.4078C54.8584 46.979 54.2926 46.0756 54.2926 45.0842V0C58.8793 0.120456 63.4526 1.08142 67.779 2.88684L68.9025 3.35565ZM87 20.9689V21.5807H86.9907V31.6456L72.3901 37.7385V4.81106L86.9907 10.9039V20.9689H87ZM0.871275 67.0959V63.5534H0V62.0276H0.871275V60.2099H2.73264V62.0276H4.36958V63.5534H2.73264V67.1091C2.73264 67.6 2.93065 67.8123 3.5115 67.8123H4.36958V69.3779H3.20788C1.80856 69.3779 0.871275 68.7809 0.871275 67.0959ZM5.21922 65.6762C5.21922 63.3809 6.69775 61.9082 8.55911 61.9082C9.73401 61.9082 10.5393 62.4654 10.9749 63.0757V62.0276H12.8363V69.3779H10.9749V68.3032C10.5393 68.9401 9.70761 69.4973 8.54591 69.4973C6.69775 69.4973 5.21922 67.9715 5.21922 65.6762ZM10.9749 65.7027C10.9749 64.3096 10.0508 63.5401 9.03435 63.5401C8.04427 63.5401 7.10699 64.2831 7.10699 65.6762C7.10699 67.0693 8.04427 67.8654 9.03435 67.8654C10.0508 67.8654 10.9749 67.0959 10.9749 65.7027ZM16.4846 65.716V69.3779H14.6364V62.0276H16.4846V63.1686C16.9466 62.4123 17.7123 61.9214 18.7288 61.9214V63.8718H18.2403C17.1446 63.8718 16.4846 64.2964 16.4846 65.716ZM19.486 65.6762C19.486 63.3809 20.9645 61.9082 22.8391 61.9082C23.8028 61.9082 24.7269 62.3593 25.2285 63.0492V59.5598H27.1031V69.3779H25.2285V68.29C24.7929 68.9666 23.9744 69.4973 22.8259 69.4973C20.9645 69.4973 19.486 67.9715 19.486 65.6762ZM25.2417 65.7027C25.2417 64.3096 24.3176 63.5401 23.3011 63.5401C22.311 63.5401 21.3738 64.2831 21.3738 65.6762C21.3738 67.0693 22.311 67.8654 23.3011 67.8654C24.3176 67.8654 25.2417 67.0959 25.2417 65.7027ZM28.9032 69.3779V62.0276H30.7514V69.3779H28.9032ZM29.8405 61.1519C29.1804 61.1519 28.7052 60.6743 28.7052 60.064C28.7052 59.4536 29.1804 58.976 29.8405 58.976C30.4873 58.976 30.9758 59.4536 30.9758 60.064C30.9758 60.6743 30.4873 61.1519 29.8405 61.1519ZM32.0894 65.6762C32.0894 63.3809 33.568 61.9082 35.4293 61.9082C36.5778 61.9082 37.4095 62.4389 37.8451 63.0757V62.0276H39.7065V69.431C39.7065 71.4211 38.492 73 36.0894 73C34.03 73 32.5911 71.9651 32.4063 70.2801H34.2412C34.426 70.9435 35.1125 71.3813 36.0366 71.3813C37.0531 71.3813 37.8451 70.7976 37.8451 69.431V68.29C37.4095 68.9268 36.5778 69.4973 35.4293 69.4973C33.568 69.4973 32.0894 67.9715 32.0894 65.6762ZM37.8451 65.7027C37.8451 64.3096 36.9211 63.5401 35.9046 63.5401C34.9145 63.5401 33.9772 64.2831 33.9772 65.6762C33.9772 67.0693 34.9145 67.8654 35.9046 67.8654C36.9211 67.8654 37.8451 67.0959 37.8451 65.7027ZM43.3548 65.716V69.3779H41.5066V62.0276H43.3548V63.1686C43.8168 62.4123 44.5825 61.9214 45.599 61.9214V63.8718H45.1105C44.0148 63.8718 43.3548 64.2964 43.3548 65.716ZM46.3562 65.6762C46.3562 63.3809 47.8347 61.9082 49.6961 61.9082C50.871 61.9082 51.6763 62.4654 52.1119 63.0757V62.0276H53.9733V69.3779H52.1119V68.3032C51.6763 68.9401 50.8446 69.4973 49.6829 69.4973C47.8347 69.4973 46.3562 67.9715 46.3562 65.6762ZM52.1119 65.7027C52.1119 64.3096 51.1878 63.5401 50.1713 63.5401C49.1813 63.5401 48.244 64.2831 48.244 65.6762C48.244 67.0693 49.1813 67.8654 50.1713 67.8654C51.1878 67.8654 52.1119 67.0959 52.1119 65.7027ZM55.2982 65.6762C55.2982 63.3809 56.7767 61.9082 58.6513 61.9082C59.6149 61.9082 60.539 62.3593 61.0407 63.0492V59.5598H62.9152V69.3779H61.0407V68.29C60.605 68.9666 59.7866 69.4973 58.6381 69.4973C56.7767 69.4973 55.2982 67.9715 55.2982 65.6762ZM61.0539 65.7027C61.0539 64.3096 60.1298 63.5401 59.1133 63.5401C58.1232 63.5401 57.1859 64.2831 57.1859 65.6762C57.1859 67.0693 58.1232 67.8654 59.1133 67.8654C60.1298 67.8654 61.0539 67.0959 61.0539 65.7027ZM67.8572 63.434C66.9727 63.434 66.2731 64.0045 66.1279 65.0128H69.5998C69.5734 64.0443 68.8077 63.434 67.8572 63.434ZM71.3291 67.0693C70.9331 68.4226 69.7186 69.4973 67.91 69.4973C65.7846 69.4973 64.2401 68.0113 64.2401 65.7027C64.2401 63.3809 65.745 61.9082 67.91 61.9082C70.0222 61.9082 71.5139 63.3544 71.5139 65.5435C71.5139 65.7823 71.5007 66.0212 71.4611 66.26H66.1147C66.2071 67.3479 66.9464 67.9583 67.8704 67.9583C68.6625 67.9583 69.0981 67.5602 69.3358 67.0693H71.3291ZM74.7926 68.3828C74.7926 68.9931 74.3174 69.4708 73.6705 69.4708C72.9972 69.4708 72.522 68.9931 72.522 68.3828C72.522 67.7725 72.9972 67.2949 73.6705 67.2949C74.3174 67.2949 74.7926 67.7725 74.7926 68.3828ZM76.2759 69.3779V62.0276H78.1241V69.3779H76.2759ZM77.2132 61.1519C76.5531 61.1519 76.0779 60.6743 76.0779 60.064C76.0779 59.4536 76.5531 58.976 77.2132 58.976C77.86 58.976 78.3485 59.4536 78.3485 60.064C78.3485 60.6743 77.86 61.1519 77.2132 61.1519ZM87 65.7027C87 68.0113 85.3103 69.4973 83.1849 69.4973C81.0727 69.4973 79.4753 68.0113 79.4753 65.7027C79.4753 63.3809 81.1255 61.9082 83.2377 61.9082C85.3499 61.9082 87 63.3809 87 65.7027ZM81.3499 65.7027C81.3499 67.1622 82.1948 67.8787 83.1849 67.8787C84.1618 67.8787 85.099 67.1622 85.099 65.7027C85.099 64.23 84.1882 63.5268 83.2113 63.5268C82.2344 63.5268 81.3499 64.23 81.3499 65.7027Z" fill="white"/>
</svg>
