<svg width="290" height="40" viewBox="0 0 290 40" fill="none" xmlns="http://www.w3.org/2000/svg">
<path d="M11.3593 10.6828V38.0264C11.3593 39.1164 10.4667 40 9.36558 40C9.06707 40 8.77236 39.9336 8.50322 39.8058L1.13132 36.3048C0.439882 35.9765 0 35.2846 0 34.5254V15.8035L11.3593 10.6828ZM25.4303 4.33956V38.0264C25.4303 39.1164 24.5377 40 23.4366 40C23.1381 40 22.8433 39.9336 22.5742 39.8058L15.2023 36.3048C14.5109 35.9765 14.071 35.2846 14.071 34.5254V9.46033L25.4303 4.33956ZM28.142 3.11713L29.2839 2.60233C32.5406 1.13421 36.0038 0.283786 39.5012 0.0539232V38.0264C39.5012 39.1164 38.6086 40 37.5075 40C37.209 40 36.9143 39.9336 36.6452 39.8058L29.2733 36.3048C28.5818 35.9765 28.142 35.2846 28.142 34.5254V3.11713ZM53.5722 2.56975V38.0264C53.5722 39.1164 52.6796 40 51.5785 40C51.28 40 50.9853 39.9336 50.7162 39.8058L43.3443 36.3048C42.6528 35.9765 42.2129 35.2846 42.2129 34.5254V0C45.7792 0.0922448 49.3349 0.828147 52.6988 2.21074L53.5722 2.56975ZM67.6432 16.5265L67.636 24.2342L56.2839 28.9001V3.68431L67.636 8.35019V16.0579L67.6432 16.5265ZM91.4563 23.8208V15.7776H89.4478V12.3133H91.4563V8.18632H95.7471V12.3133H99.5206V15.7776H95.7471V23.8509C95.7471 24.9655 96.2036 25.4475 97.5425 25.4475H99.5206V29.0021H96.8426C93.6169 29.0021 91.4563 27.6465 91.4563 23.8208ZM101.479 20.5975C101.479 15.386 104.887 12.0422 109.178 12.0422C111.887 12.0422 113.743 13.3074 114.747 14.6931V12.3133H119.038V29.0021H114.747V26.5621C113.743 28.008 111.826 29.2732 109.148 29.2732C104.887 29.2732 101.479 25.809 101.479 20.5975ZM114.747 20.6577C114.747 17.4947 112.617 15.7475 110.274 15.7475C107.991 15.7475 105.831 17.4344 105.831 20.5975C105.831 23.7605 107.991 25.568 110.274 25.568C112.617 25.568 114.747 23.8208 114.747 20.6577ZM127.448 20.6878V29.0021H123.188V12.3133H127.448V14.904C128.513 13.1869 130.278 12.0723 132.621 12.0723V16.5006H131.495C128.97 16.5006 127.448 17.4646 127.448 20.6878ZM134.367 20.5975C134.367 15.386 137.775 12.0422 142.096 12.0422C144.318 12.0422 146.448 13.0664 147.604 14.6329V6.71024H151.926V29.0021H147.604V26.5319C146.6 28.0683 144.714 29.2732 142.066 29.2732C137.775 29.2732 134.367 25.809 134.367 20.5975ZM147.635 20.6577C147.635 17.4947 145.505 15.7475 143.162 15.7475C140.879 15.7475 138.719 17.4344 138.719 20.5975C138.719 23.7605 140.879 25.568 143.162 25.568C145.505 25.568 147.635 23.8208 147.635 20.6577ZM156.075 29.0021V12.3133H160.336V29.0021H156.075ZM158.236 10.3251C156.714 10.3251 155.619 9.24067 155.619 7.85496C155.619 6.46925 156.714 5.38478 158.236 5.38478C159.727 5.38478 160.853 6.46925 160.853 7.85496C160.853 9.24067 159.727 10.3251 158.236 10.3251ZM163.42 20.5975C163.42 15.386 166.829 12.0422 171.119 12.0422C173.767 12.0422 175.684 13.2472 176.688 14.6931V12.3133H180.979V29.1226C180.979 33.6412 178.179 37.226 172.641 37.226C167.894 37.226 164.577 34.8763 164.151 31.0506H168.381C168.807 32.5568 170.389 33.5509 172.519 33.5509C174.862 33.5509 176.688 32.2254 176.688 29.1226V26.5319C175.684 27.9779 173.767 29.2732 171.119 29.2732C166.829 29.2732 163.42 25.809 163.42 20.5975ZM176.688 20.6577C176.688 17.4947 174.558 15.7475 172.215 15.7475C169.933 15.7475 167.772 17.4344 167.772 20.5975C167.772 23.7605 169.933 25.568 172.215 25.568C174.558 25.568 176.688 23.8208 176.688 20.6577ZM189.389 20.6878V29.0021H185.129V12.3133H189.389V14.904C190.454 13.1869 192.219 12.0723 194.562 12.0723V16.5006H193.437C190.911 16.5006 189.389 17.4646 189.389 20.6878ZM196.308 20.5975C196.308 15.386 199.716 12.0422 204.007 12.0422C206.716 12.0422 208.572 13.3074 209.576 14.6931V12.3133H213.867V29.0021H209.576V26.5621C208.572 28.008 206.655 29.2732 203.977 29.2732C199.716 29.2732 196.308 25.809 196.308 20.5975ZM209.576 20.6577C209.576 17.4947 207.446 15.7475 205.103 15.7475C202.82 15.7475 200.66 17.4344 200.66 20.5975C200.66 23.7605 202.82 25.568 205.103 25.568C207.446 25.568 209.576 23.8208 209.576 20.6577ZM216.921 20.5975C216.921 15.386 220.329 12.0422 224.651 12.0422C226.872 12.0422 229.002 13.0664 230.159 14.6329V6.71024H234.48V29.0021H230.159V26.5319C229.154 28.0683 227.268 29.2732 224.62 29.2732C220.329 29.2732 216.921 25.809 216.921 20.5975ZM230.189 20.6577C230.189 17.4947 228.059 15.7475 225.716 15.7475C223.433 15.7475 221.273 17.4344 221.273 20.5975C221.273 23.7605 223.433 25.568 225.716 25.568C228.059 25.568 230.189 23.8208 230.189 20.6577ZM245.872 15.5065C243.833 15.5065 242.22 16.8018 241.886 19.0913H249.889C249.828 16.8922 248.063 15.5065 245.872 15.5065ZM253.876 23.7605C252.963 26.8332 250.163 29.2732 245.994 29.2732C241.094 29.2732 237.534 25.8993 237.534 20.6577C237.534 15.386 241.003 12.0422 245.994 12.0422C250.863 12.0422 254.302 15.3257 254.302 20.2962C254.302 20.8385 254.271 21.3807 254.18 21.9229H241.855C242.068 24.3931 243.772 25.7788 245.903 25.7788C247.728 25.7788 248.733 24.8751 249.28 23.7605H253.876ZM261.86 26.7428C261.86 28.1285 260.764 29.213 259.273 29.213C257.721 29.213 256.625 28.1285 256.625 26.7428C256.625 25.3571 257.721 24.2726 259.273 24.2726C260.764 24.2726 261.86 25.3571 261.86 26.7428ZM265.279 29.0021V12.3133H269.539V29.0021H265.279ZM267.439 10.3251C265.918 10.3251 264.822 9.24067 264.822 7.85496C264.822 6.46925 265.918 5.38478 267.439 5.38478C268.931 5.38478 270.057 6.46925 270.057 7.85496C270.057 9.24067 268.931 10.3251 267.439 10.3251ZM290 20.6577C290 25.8993 286.105 29.2732 281.205 29.2732C276.336 29.2732 272.654 25.8993 272.654 20.6577C272.654 15.386 276.458 12.0422 281.327 12.0422C286.196 12.0422 290 15.386 290 20.6577ZM276.975 20.6577C276.975 23.9714 278.923 25.5981 281.205 25.5981C283.457 25.5981 285.618 23.9714 285.618 20.6577C285.618 17.3139 283.518 15.7174 281.266 15.7174C279.014 15.7174 276.975 17.3139 276.975 20.6577Z" fill="#2582FF"/>
</svg>
